<?xml version="1.0" encoding="UTF-8" standalone="no"?>
<!-- Created with Digital by H.Neemann -->
<!-- created: Wed Feb 23 08:16:48 EST 2022 -->

<svg
   xmlns:svg="http://www.w3.org/2000/svg"
   xmlns="http://www.w3.org/2000/svg"
   width="123.75mm"
   height="74.1mm"
   viewBox="-559 -337 825 494">
<g stroke-linecap="square">
<path d="M -480,80 L -380,80 L -380,20" stroke="#0000b2" stroke-width="4.0" fill="none"/>
<path d="M 120,-40 L 120,-100 L 160,-100 L 160,-260" stroke="#0000b2" stroke-width="4.0" fill="none"/>
<path d="M -40,-40 L -40,-100 L 0,-100 L 0,-260" stroke="#0000b2" stroke-width="4.0" fill="none"/>
<path d="M -200,-40 L -200,-100 L -160,-100 L -160,-260" stroke="#0000b2" stroke-width="4.0" fill="none"/>
<path d="M -360,-40 L -360,-100 L -320,-100 L -320,-260" stroke="#0000b2" stroke-width="4.0" fill="none"/>
<path d="M -400,-186 L -400,-200 L -400,-220 L -240,-220 L -80,-220 L 40,-220 L 80,-220 L 200,-220" stroke="#0000b2" stroke-width="4.0" fill="none"/>
<path d="M 40,-220 L 40,-80 L 80,-80 L 80,-40" stroke="#0000b2" stroke-width="4.0" fill="none"/>
<path d="M 100,-120 L 100,-40" stroke="#0000b2" stroke-width="4.0" fill="none"/>
<path d="M -360,20 L -360,80" stroke="#0000b2" stroke-width="4.0" fill="none"/>
<path d="M -360,-260 L -360,-200 L -360,-186" stroke="#0000b2" stroke-width="4.0" fill="none"/>
<path d="M -200,20 L -200,80" stroke="#0000b2" stroke-width="4.0" fill="none"/>
<path d="M -200,-260 L -200,-200 L -200,-186" stroke="#0000b2" stroke-width="4.0" fill="none"/>
<path d="M -40,20 L -40,80" stroke="#0000b2" stroke-width="4.0" fill="none"/>
<path d="M -40,-260 L -40,-200 L -40,-186" stroke="#0000b2" stroke-width="4.0" fill="none"/>
<path d="M -80,-220 L -80,-200 L -80,-186" stroke="#0000b2" stroke-width="4.0" fill="none"/>
<path d="M -240,-220 L -240,-200 L -240,-186" stroke="#0000b2" stroke-width="4.0" fill="none"/>
<path d="M 80,-220 L 80,-200 L 80,-186" stroke="#0000b2" stroke-width="4.0" fill="none"/>
<path d="M 100,20 L 100,60 L -120,60 L -120,-80 L -80,-80 L -80,-40" stroke="#0000b2" stroke-width="4.0" fill="none"/>
<path d="M -60,20 L -60,40 L -280,40 L -280,-80 L -240,-80 L -240,-40" stroke="#0000b2" stroke-width="4.0" fill="none"/>
<path d="M -220,20 L -220,60 L -440,60 L -440,-80 L -400,-80 L -400,-40" stroke="#0000b2" stroke-width="4.0" fill="none"/>
<path d="M 120,-260 L 120,-200 L 120,-186" stroke="#0000b2" stroke-width="4.0" fill="none"/>
<path d="M 120,20 L 120,80" stroke="#0000b2" stroke-width="4.0" fill="none"/>
<path d="M -60,-120 L -60,-40" stroke="#0000b2" stroke-width="4.0" fill="none"/>
<path d="M -220,-120 L -220,-40" stroke="#0000b2" stroke-width="4.0" fill="none"/>
<path d="M -380,-120 L -380,-40" stroke="#0000b2" stroke-width="4.0" fill="none"/>
<g>
<circle cx="-240.0" cy="-220.0" r="4.0" stroke="#0000b2" stroke-width="4.0" fill="#0000b2" />
<circle cx="-80.0" cy="-220.0" r="4.0" stroke="#0000b2" stroke-width="4.0" fill="#0000b2" />
<circle cx="40.0" cy="-220.0" r="4.0" stroke="#0000b2" stroke-width="4.0" fill="#0000b2" />
<circle cx="80.0" cy="-220.0" r="4.0" stroke="#0000b2" stroke-width="4.0" fill="#0000b2" />
</g>
<g>
<path d="M 70,-170 L 70,-190 C 86,-180 114,-180 130,-190 L 130,-170 C 130,-150 120,-130 100,-120 C 80,-130 70,-150 70,-170 Z" stroke="#000000" stroke-width="4.0" fill="none"/>
<path d="M 70,-200 C 80,-190 120,-190 130,-200" stroke="#000000" stroke-width="4.0" fill="none"/>
<circle cx="120.0" cy="-200.0" r="2.0" stroke="#0000b2" stroke-width="4.0" fill="#0000b2" />
<circle cx="80.0" cy="-200.0" r="2.0" stroke="#0000b2" stroke-width="4.0" fill="#0000b2" />
<circle cx="100.0" cy="-120.0" r="2.0" stroke="#b20000" stroke-width="4.0" fill="#b20000" />
</g>
<g>
<path d="M -90,-170 L -90,-190 C -74,-180 -46,-180 -30,-190 L -30,-170 C -30,-150 -40,-130 -60,-120 C -80,-130 -90,-150 -90,-170 Z" stroke="#000000" stroke-width="4.0" fill="none"/>
<path d="M -90,-200 C -80,-190 -40,-190 -30,-200" stroke="#000000" stroke-width="4.0" fill="none"/>
<circle cx="-40.0" cy="-200.0" r="2.0" stroke="#0000b2" stroke-width="4.0" fill="#0000b2" />
<circle cx="-80.0" cy="-200.0" r="2.0" stroke="#0000b2" stroke-width="4.0" fill="#0000b2" />
<circle cx="-60.0" cy="-120.0" r="2.0" stroke="#b20000" stroke-width="4.0" fill="#b20000" />
</g>
<g>
<path d="M -250,-170 L -250,-190 C -234,-180 -206,-180 -190,-190 L -190,-170 C -190,-150 -200,-130 -220,-120 C -240,-130 -250,-150 -250,-170 Z" stroke="#000000" stroke-width="4.0" fill="none"/>
<path d="M -250,-200 C -240,-190 -200,-190 -190,-200" stroke="#000000" stroke-width="4.0" fill="none"/>
<circle cx="-200.0" cy="-200.0" r="2.0" stroke="#0000b2" stroke-width="4.0" fill="#0000b2" />
<circle cx="-240.0" cy="-200.0" r="2.0" stroke="#0000b2" stroke-width="4.0" fill="#0000b2" />
<circle cx="-220.0" cy="-120.0" r="2.0" stroke="#b20000" stroke-width="4.0" fill="#b20000" />
</g>
<g>
<path d="M -410,-170 L -410,-190 C -394,-180 -366,-180 -350,-190 L -350,-170 C -350,-150 -360,-130 -380,-120 C -400,-130 -410,-150 -410,-170 Z" stroke="#000000" stroke-width="4.0" fill="none"/>
<path d="M -410,-200 C -400,-190 -360,-190 -350,-200" stroke="#000000" stroke-width="4.0" fill="none"/>
<circle cx="-360.0" cy="-200.0" r="2.0" stroke="#0000b2" stroke-width="4.0" fill="#0000b2" />
<circle cx="-400.0" cy="-200.0" r="2.0" stroke="#0000b2" stroke-width="4.0" fill="#0000b2" />
<circle cx="-380.0" cy="-120.0" r="2.0" stroke="#b20000" stroke-width="4.0" fill="#b20000" />
</g>
<g>
<circle cx="120.0" cy="96.0" r="9.0" stroke="#000000" stroke-width="4.0" fill="none" />
<circle cx="120.0" cy="96.0" r="15.0" stroke="#000000" stroke-width="4.0" fill="none" />
<text text-anchor="end" x="120.0" y="134.0" fill="#000000" style="font-size:24px" transform="rotate(-90,120.0,125.0)" ><tspan style="font-style:italic;">S<tspan style="font-size:80%;baseline-shift:sub;">0</tspan></tspan></text>
<circle cx="120.0" cy="80.0" r="2.0" stroke="#0000b2" stroke-width="4.0" fill="#0000b2" />
</g>
<g>
<circle cx="-40.0" cy="96.0" r="9.0" stroke="#000000" stroke-width="4.0" fill="none" />
<circle cx="-40.0" cy="96.0" r="15.0" stroke="#000000" stroke-width="4.0" fill="none" />
<text text-anchor="end" x="-40.0" y="134.0" fill="#000000" style="font-size:24px" transform="rotate(-90,-40.0,125.0)" ><tspan style="font-style:italic;">S<tspan style="font-size:80%;baseline-shift:sub;">1</tspan></tspan></text>
<circle cx="-40.0" cy="80.0" r="2.0" stroke="#0000b2" stroke-width="4.0" fill="#0000b2" />
</g>
<g>
<circle cx="-200.0" cy="96.0" r="9.0" stroke="#000000" stroke-width="4.0" fill="none" />
<circle cx="-200.0" cy="96.0" r="15.0" stroke="#000000" stroke-width="4.0" fill="none" />
<text text-anchor="end" x="-200.0" y="134.0" fill="#000000" style="font-size:24px" transform="rotate(-90,-200.0,125.0)" ><tspan style="font-style:italic;">S<tspan style="font-size:80%;baseline-shift:sub;">2</tspan></tspan></text>
<circle cx="-200.0" cy="80.0" r="2.0" stroke="#0000b2" stroke-width="4.0" fill="#0000b2" />
</g>
<g>
<circle cx="-360.0" cy="96.0" r="9.0" stroke="#000000" stroke-width="4.0" fill="none" />
<circle cx="-360.0" cy="96.0" r="15.0" stroke="#000000" stroke-width="4.0" fill="none" />
<text text-anchor="end" x="-360.0" y="134.0" fill="#000000" style="font-size:24px" transform="rotate(-90,-360.0,125.0)" ><tspan style="font-style:italic;">S<tspan style="font-size:80%;baseline-shift:sub;">3</tspan></tspan></text>
<circle cx="-360.0" cy="80.0" r="2.0" stroke="#0000b2" stroke-width="4.0" fill="#0000b2" />
</g>
<g>
<circle cx="-496.0" cy="80.0" r="9.0" stroke="#000000" stroke-width="4.0" fill="none" />
<circle cx="-496.0" cy="80.0" r="15.0" stroke="#000000" stroke-width="4.0" fill="none" />
<text text-anchor="end" x="-525.0" y="89.0" fill="#000000" style="font-size:24px"><tspan style="font-style:italic;">R<tspan style="font-size:80%;baseline-shift:sub;">4</tspan></tspan></text>
<circle cx="-480.0" cy="80.0" r="2.0" stroke="#0000b2" stroke-width="4.0" fill="#0000b2" />
</g>
<g>
<path d="M 135,-291 L 135,-261 L 105,-261 L 105,-291 Z" stroke="#000000" stroke-width="4.0" fill="none"/>
<circle cx="120.0" cy="-276.0" r="9.0" stroke="#000000" stroke-width="4.0" fill="none" />
<text text-anchor="start" x="120.0" y="-296.0" fill="#000000" style="font-size:24px" transform="rotate(-90,120.0,-305.0)" ><tspan style="font-style:italic;">b<tspan style="font-size:80%;baseline-shift:sub;">0</tspan></tspan></text>
<circle cx="120.0" cy="-260.0" r="2.0" stroke="#b20000" stroke-width="4.0" fill="#b20000" />
</g>
<g>
<path d="M 175,-291 L 175,-261 L 145,-261 L 145,-291 Z" stroke="#000000" stroke-width="4.0" fill="none"/>
<circle cx="160.0" cy="-276.0" r="9.0" stroke="#000000" stroke-width="4.0" fill="none" />
<text text-anchor="start" x="160.0" y="-296.0" fill="#000000" style="font-size:24px" transform="rotate(-90,160.0,-305.0)" ><tspan style="font-style:italic;">a<tspan style="font-size:80%;baseline-shift:sub;">0</tspan></tspan></text>
<circle cx="160.0" cy="-260.0" r="2.0" stroke="#b20000" stroke-width="4.0" fill="#b20000" />
</g>
<g>
<path d="M 15,-291 L 15,-261 L -15,-261 L -15,-291 Z" stroke="#000000" stroke-width="4.0" fill="none"/>
<circle cx="0.0" cy="-276.0" r="9.0" stroke="#000000" stroke-width="4.0" fill="none" />
<text text-anchor="start" x="0.0" y="-296.0" fill="#000000" style="font-size:24px" transform="rotate(-90,0.0,-305.0)" ><tspan style="font-style:italic;">a<tspan style="font-size:80%;baseline-shift:sub;">1</tspan></tspan></text>
<circle cx="0.0" cy="-260.0" r="2.0" stroke="#b20000" stroke-width="4.0" fill="#b20000" />
</g>
<g>
<path d="M -145,-291 L -145,-261 L -175,-261 L -175,-291 Z" stroke="#000000" stroke-width="4.0" fill="none"/>
<circle cx="-160.0" cy="-276.0" r="9.0" stroke="#000000" stroke-width="4.0" fill="none" />
<text text-anchor="start" x="-160.0" y="-296.0" fill="#000000" style="font-size:24px" transform="rotate(-90,-160.0,-305.0)" ><tspan style="font-style:italic;">a<tspan style="font-size:80%;baseline-shift:sub;">2</tspan></tspan></text>
<circle cx="-160.0" cy="-260.0" r="2.0" stroke="#b20000" stroke-width="4.0" fill="#b20000" />
</g>
<g>
<path d="M -305,-291 L -305,-261 L -335,-261 L -335,-291 Z" stroke="#000000" stroke-width="4.0" fill="none"/>
<circle cx="-320.0" cy="-276.0" r="9.0" stroke="#000000" stroke-width="4.0" fill="none" />
<text text-anchor="start" x="-320.0" y="-296.0" fill="#000000" style="font-size:24px" transform="rotate(-90,-320.0,-305.0)" ><tspan style="font-style:italic;">a<tspan style="font-size:80%;baseline-shift:sub;">3</tspan></tspan></text>
<circle cx="-320.0" cy="-260.0" r="2.0" stroke="#b20000" stroke-width="4.0" fill="#b20000" />
</g>
<g>
<path d="M -25,-291 L -25,-261 L -55,-261 L -55,-291 Z" stroke="#000000" stroke-width="4.0" fill="none"/>
<circle cx="-40.0" cy="-276.0" r="9.0" stroke="#000000" stroke-width="4.0" fill="none" />
<text text-anchor="start" x="-40.0" y="-296.0" fill="#000000" style="font-size:24px" transform="rotate(-90,-40.0,-305.0)" ><tspan style="font-style:italic;">b<tspan style="font-size:80%;baseline-shift:sub;">1</tspan></tspan></text>
<circle cx="-40.0" cy="-260.0" r="2.0" stroke="#b20000" stroke-width="4.0" fill="#b20000" />
</g>
<g>
<path d="M -185,-291 L -185,-261 L -215,-261 L -215,-291 Z" stroke="#000000" stroke-width="4.0" fill="none"/>
<circle cx="-200.0" cy="-276.0" r="9.0" stroke="#000000" stroke-width="4.0" fill="none" />
<text text-anchor="start" x="-200.0" y="-296.0" fill="#000000" style="font-size:24px" transform="rotate(-90,-200.0,-305.0)" ><tspan style="font-style:italic;">b<tspan style="font-size:80%;baseline-shift:sub;">2</tspan></tspan></text>
<circle cx="-200.0" cy="-260.0" r="2.0" stroke="#b20000" stroke-width="4.0" fill="#b20000" />
</g>
<g>
<path d="M -345,-291 L -345,-261 L -375,-261 L -375,-291 Z" stroke="#000000" stroke-width="4.0" fill="none"/>
<circle cx="-360.0" cy="-276.0" r="9.0" stroke="#000000" stroke-width="4.0" fill="none" />
<text text-anchor="start" x="-360.0" y="-296.0" fill="#000000" style="font-size:24px" transform="rotate(-90,-360.0,-305.0)" ><tspan style="font-style:italic;">b<tspan style="font-size:80%;baseline-shift:sub;">3</tspan></tspan></text>
<circle cx="-360.0" cy="-260.0" r="2.0" stroke="#b20000" stroke-width="4.0" fill="#b20000" />
</g>
<g>
<path d="M 231,-205 L 201,-205 L 201,-235 L 231,-235 Z" stroke="#000000" stroke-width="4.0" fill="none"/>
<circle cx="216.0" cy="-220.0" r="9.0" stroke="#000000" stroke-width="4.0" fill="none" />
<text text-anchor="start" x="245.0" y="-211.0" fill="#000000" style="font-size:24px"><tspan style="font-style:italic;">O</tspan></text>
<circle cx="200.0" cy="-220.0" r="2.0" stroke="#b20000" stroke-width="4.0" fill="#b20000" />
</g>
<g>
<path d="M -346,-39 L -346,19 L -414,19 L -414,-39 Z" stroke="#ffffb4" stroke-width="0.0" fill="#ffffb4" fill-opacity="0.7843137254901961"/>
<path d="M -346,-39 L -346,19 L -414,19 L -414,-39 Z" stroke="#000000" stroke-width="4.0" fill="none"/>
<text text-anchor="end" x="-360.0" y="-29.25" fill="#808080" style="font-size:18px" transform="rotate(-90,-360.0,-36.0)" >a<tspan style="font-size:80%;baseline-shift:sub;">i</tspan></text>
<text text-anchor="end" x="-380.0" y="-29.25" fill="#808080" style="font-size:18px" transform="rotate(-90,-380.0,-36.0)" >b<tspan style="font-size:80%;baseline-shift:sub;">i</tspan></text>
<text text-anchor="end" x="-400.0" y="-29.25" fill="#808080" style="font-size:18px" transform="rotate(-90,-400.0,-36.0)" >r<tspan style="font-size:80%;baseline-shift:sub;">i-1</tspan></text>
<text text-anchor="start" x="-360.0" y="22.75" fill="#808080" style="font-size:18px" transform="rotate(-90,-360.0,16.0)" >S<tspan style="font-size:80%;baseline-shift:sub;">i</tspan></text>
<text text-anchor="start" x="-380.0" y="22.75" fill="#808080" style="font-size:18px" transform="rotate(-90,-380.0,16.0)" >R<tspan style="font-size:80%;baseline-shift:sub;">i</tspan></text>
<text text-anchor="middle" x="-418.0" y="-10.0" fill="#808080" style="font-size:18px" transform="rotate(-90,-418.0,-10.0)" >fulladderxor</text>
<circle cx="-360.0" cy="-40.0" r="2.0" stroke="#0000b2" stroke-width="4.0" fill="#0000b2" />
<circle cx="-380.0" cy="-40.0" r="2.0" stroke="#0000b2" stroke-width="4.0" fill="#0000b2" />
<circle cx="-400.0" cy="-40.0" r="2.0" stroke="#0000b2" stroke-width="4.0" fill="#0000b2" />
<circle cx="-360.0" cy="20.0" r="2.0" stroke="#b20000" stroke-width="4.0" fill="#b20000" />
<circle cx="-380.0" cy="20.0" r="2.0" stroke="#b20000" stroke-width="4.0" fill="#b20000" />
</g>
<g>
<path d="M -186,-39 L -186,19 L -254,19 L -254,-39 Z" stroke="#ffffb4" stroke-width="0.0" fill="#ffffb4" fill-opacity="0.7843137254901961"/>
<path d="M -186,-39 L -186,19 L -254,19 L -254,-39 Z" stroke="#000000" stroke-width="4.0" fill="none"/>
<text text-anchor="end" x="-200.0" y="-29.25" fill="#808080" style="font-size:18px" transform="rotate(-90,-200.0,-36.0)" >a<tspan style="font-size:80%;baseline-shift:sub;">i</tspan></text>
<text text-anchor="end" x="-220.0" y="-29.25" fill="#808080" style="font-size:18px" transform="rotate(-90,-220.0,-36.0)" >b<tspan style="font-size:80%;baseline-shift:sub;">i</tspan></text>
<text text-anchor="end" x="-240.0" y="-29.25" fill="#808080" style="font-size:18px" transform="rotate(-90,-240.0,-36.0)" >r<tspan style="font-size:80%;baseline-shift:sub;">i-1</tspan></text>
<text text-anchor="start" x="-200.0" y="22.75" fill="#808080" style="font-size:18px" transform="rotate(-90,-200.0,16.0)" >S<tspan style="font-size:80%;baseline-shift:sub;">i</tspan></text>
<text text-anchor="start" x="-220.0" y="22.75" fill="#808080" style="font-size:18px" transform="rotate(-90,-220.0,16.0)" >R<tspan style="font-size:80%;baseline-shift:sub;">i</tspan></text>
<text text-anchor="middle" x="-258.0" y="-10.0" fill="#808080" style="font-size:18px" transform="rotate(-90,-258.0,-10.0)" >fulladderxor</text>
<circle cx="-200.0" cy="-40.0" r="2.0" stroke="#0000b2" stroke-width="4.0" fill="#0000b2" />
<circle cx="-220.0" cy="-40.0" r="2.0" stroke="#0000b2" stroke-width="4.0" fill="#0000b2" />
<circle cx="-240.0" cy="-40.0" r="2.0" stroke="#0000b2" stroke-width="4.0" fill="#0000b2" />
<circle cx="-200.0" cy="20.0" r="2.0" stroke="#b20000" stroke-width="4.0" fill="#b20000" />
<circle cx="-220.0" cy="20.0" r="2.0" stroke="#b20000" stroke-width="4.0" fill="#b20000" />
</g>
<g>
<path d="M -26,-39 L -26,19 L -94,19 L -94,-39 Z" stroke="#ffffb4" stroke-width="0.0" fill="#ffffb4" fill-opacity="0.7843137254901961"/>
<path d="M -26,-39 L -26,19 L -94,19 L -94,-39 Z" stroke="#000000" stroke-width="4.0" fill="none"/>
<text text-anchor="end" x="-40.0" y="-29.25" fill="#808080" style="font-size:18px" transform="rotate(-90,-40.0,-36.0)" >a<tspan style="font-size:80%;baseline-shift:sub;">i</tspan></text>
<text text-anchor="end" x="-60.0" y="-29.25" fill="#808080" style="font-size:18px" transform="rotate(-90,-60.0,-36.0)" >b<tspan style="font-size:80%;baseline-shift:sub;">i</tspan></text>
<text text-anchor="end" x="-80.0" y="-29.25" fill="#808080" style="font-size:18px" transform="rotate(-90,-80.0,-36.0)" >r<tspan style="font-size:80%;baseline-shift:sub;">i-1</tspan></text>
<text text-anchor="start" x="-40.0" y="22.75" fill="#808080" style="font-size:18px" transform="rotate(-90,-40.0,16.0)" >S<tspan style="font-size:80%;baseline-shift:sub;">i</tspan></text>
<text text-anchor="start" x="-60.0" y="22.75" fill="#808080" style="font-size:18px" transform="rotate(-90,-60.0,16.0)" >R<tspan style="font-size:80%;baseline-shift:sub;">i</tspan></text>
<text text-anchor="middle" x="-98.0" y="-10.0" fill="#808080" style="font-size:18px" transform="rotate(-90,-98.0,-10.0)" >fulladderxor</text>
<circle cx="-40.0" cy="-40.0" r="2.0" stroke="#0000b2" stroke-width="4.0" fill="#0000b2" />
<circle cx="-60.0" cy="-40.0" r="2.0" stroke="#0000b2" stroke-width="4.0" fill="#0000b2" />
<circle cx="-80.0" cy="-40.0" r="2.0" stroke="#0000b2" stroke-width="4.0" fill="#0000b2" />
<circle cx="-40.0" cy="20.0" r="2.0" stroke="#b20000" stroke-width="4.0" fill="#b20000" />
<circle cx="-60.0" cy="20.0" r="2.0" stroke="#b20000" stroke-width="4.0" fill="#b20000" />
</g>
<g>
<path d="M 134,-39 L 134,19 L 66,19 L 66,-39 Z" stroke="#ffffb4" stroke-width="0.0" fill="#ffffb4" fill-opacity="0.7843137254901961"/>
<path d="M 134,-39 L 134,19 L 66,19 L 66,-39 Z" stroke="#000000" stroke-width="4.0" fill="none"/>
<text text-anchor="end" x="120.0" y="-29.25" fill="#808080" style="font-size:18px" transform="rotate(-90,120.0,-36.0)" >a<tspan style="font-size:80%;baseline-shift:sub;">i</tspan></text>
<text text-anchor="end" x="100.0" y="-29.25" fill="#808080" style="font-size:18px" transform="rotate(-90,100.0,-36.0)" >b<tspan style="font-size:80%;baseline-shift:sub;">i</tspan></text>
<text text-anchor="end" x="80.0" y="-29.25" fill="#808080" style="font-size:18px" transform="rotate(-90,80.0,-36.0)" >r<tspan style="font-size:80%;baseline-shift:sub;">i-1</tspan></text>
<text text-anchor="start" x="120.0" y="22.75" fill="#808080" style="font-size:18px" transform="rotate(-90,120.0,16.0)" >S<tspan style="font-size:80%;baseline-shift:sub;">i</tspan></text>
<text text-anchor="start" x="100.0" y="22.75" fill="#808080" style="font-size:18px" transform="rotate(-90,100.0,16.0)" >R<tspan style="font-size:80%;baseline-shift:sub;">i</tspan></text>
<text text-anchor="middle" x="62.0" y="-10.0" fill="#808080" style="font-size:18px" transform="rotate(-90,62.0,-10.0)" >fulladderxor</text>
<circle cx="120.0" cy="-40.0" r="2.0" stroke="#0000b2" stroke-width="4.0" fill="#0000b2" />
<circle cx="100.0" cy="-40.0" r="2.0" stroke="#0000b2" stroke-width="4.0" fill="#0000b2" />
<circle cx="80.0" cy="-40.0" r="2.0" stroke="#0000b2" stroke-width="4.0" fill="#0000b2" />
<circle cx="120.0" cy="20.0" r="2.0" stroke="#b20000" stroke-width="4.0" fill="#b20000" />
<circle cx="100.0" cy="20.0" r="2.0" stroke="#b20000" stroke-width="4.0" fill="#b20000" />
</g>
</g>
</svg>