<?xml version="1.0" encoding="utf-8" standalone="no"?>
<!DOCTYPE svg PUBLIC "-//W3C//DTD SVG 1.1//EN"
  "http://www.w3.org/Graphics/SVG/1.1/DTD/svg11.dtd">
<svg xmlns:xlink="http://www.w3.org/1999/xlink" width="117.6036pt" height="63.7pt" viewBox="0 0 117.6036 63.7" xmlns="http://www.w3.org/2000/svg" version="1.1">
 <metadata>
  <rdf:RDF xmlns:dc="http://purl.org/dc/elements/1.1/" xmlns:cc="http://creativecommons.org/ns#" xmlns:rdf="http://www.w3.org/1999/02/22-rdf-syntax-ns#">
   <cc:Work>
    <dc:type rdf:resource="http://purl.org/dc/dcmitype/StillImage"/>
    <dc:date>2022-01-12T14:17:11.587526</dc:date>
    <dc:format>image/svg+xml</dc:format>
    <dc:creator>
     <cc:Agent>
      <dc:title>Matplotlib v3.5.1, https://matplotlib.org/</dc:title>
     </cc:Agent>
    </dc:creator>
   </cc:Work>
  </rdf:RDF>
 </metadata>
 <defs>
  <style type="text/css">*{stroke-linejoin: round; stroke-linecap: butt}</style>
 </defs>
 <g id="figure_1">
  <g id="patch_1">
   <path d="M 0 63.7 
L 117.6036 63.7 
L 117.6036 0 
L 0 0 
L 0 63.7 
z
" style="fill: none"/>
  </g>
  <g id="axes_1">
   <g id="line2d_1">
    <path d="M 58.0368 50.21 
L 59.017074 50.178565 
L 59.993321 50.084387 
L 60.961527 49.927855 
L 61.917715 49.709611 
L 62.857956 49.430553 
L 63.778385 49.091826 
L 64.675221 48.694824 
L 65.544779 48.241176 
L 66.383484 47.732748 
L 67.187891 47.171628 
L 67.954694 46.560123 
L 68.680743 45.900745 
L 69.363053 45.196204 
L 69.998822 44.449394 
L 70.585435 43.663385 
L 71.120484 42.841406 
L 71.601769 41.986836 
L 72.027313 41.103185 
L 72.395367 40.194085 
L 72.704418 39.263272 
L 72.953197 38.31457 
L 73.140681 37.351878 
L 73.2661 36.379152 
L 73.328939 35.400389 
L 73.328939 34.419611 
L 73.2661 33.440848 
L 73.140681 32.468122 
L 72.953197 31.50543 
L 72.704418 30.556728 
L 72.395367 29.625915 
L 72.027313 28.716815 
L 71.601769 27.833164 
L 71.120484 26.978594 
L 70.585435 26.156615 
L 69.998822 25.370606 
L 69.363053 24.623796 
L 68.680743 23.919255 
L 67.954694 23.259877 
L 67.187891 22.648372 
L 66.383484 22.087252 
L 65.544779 21.578824 
L 64.675221 21.125176 
L 63.778385 20.728174 
L 62.857956 20.389447 
L 61.917715 20.110389 
L 60.961527 19.892145 
L 59.993321 19.735613 
L 59.017074 19.641435 
L 58.0368 19.61 
L 58.0368 19.61 
L 38.1468 19.61 
L 38.1468 34.91 
L 38.1468 50.21 
L 58.0368 50.21 
" clip-path="url(#p079bbd4941)" style="fill: none; stroke: #000000; stroke-width: 2; stroke-linecap: round"/>
   </g>
   <g id="line2d_2">
    <path d="M 27.4368 42.56 
L 38.1468 42.56 
" clip-path="url(#p079bbd4941)" style="fill: none; stroke: #000000; stroke-width: 2; stroke-linecap: round"/>
   </g>
   <g id="line2d_3">
    <path d="M 27.4368 27.26 
L 38.1468 27.26 
" clip-path="url(#p079bbd4941)" style="fill: none; stroke: #000000; stroke-width: 2; stroke-linecap: round"/>
   </g>
   <g id="line2d_4">
    <path d="M 27.4368 34.91 
M 73.3368 34.91 
L 84.0468 34.91 
" clip-path="url(#p079bbd4941)" style="fill: none; stroke: #000000; stroke-width: 2; stroke-linecap: round"/>
   </g>
   <g id="text_1">
    <g clip-path="url(#p079bbd4941)">
     <!-- S -->
     <g transform="translate(87.1068 38.359219)scale(0.125 -0.125)">
      <defs>
       <path id="DejaVuSans-53" d="M 3425 4513 
L 3425 3897 
Q 3066 4069 2747 4153 
Q 2428 4238 2131 4238 
Q 1616 4238 1336 4038 
Q 1056 3838 1056 3469 
Q 1056 3159 1242 3001 
Q 1428 2844 1947 2747 
L 2328 2669 
Q 3034 2534 3370 2195 
Q 3706 1856 3706 1288 
Q 3706 609 3251 259 
Q 2797 -91 1919 -91 
Q 1588 -91 1214 -16 
Q 841 59 441 206 
L 441 856 
Q 825 641 1194 531 
Q 1563 422 1919 422 
Q 2459 422 2753 634 
Q 3047 847 3047 1241 
Q 3047 1584 2836 1778 
Q 2625 1972 2144 2069 
L 1759 2144 
Q 1053 2284 737 2584 
Q 422 2884 422 3419 
Q 422 4038 858 4394 
Q 1294 4750 2059 4750 
Q 2388 4750 2728 4690 
Q 3069 4631 3425 4513 
z
" transform="scale(0.015625)"/>
      </defs>
      <use xlink:href="#DejaVuSans-53"/>
     </g>
    </g>
   </g>
   <g id="text_2">
    <g clip-path="url(#p079bbd4941)">
     <!-- A -->
     <g transform="translate(15.826019 30.709219)scale(0.125 -0.125)">
      <defs>
       <path id="DejaVuSans-41" d="M 2188 4044 
L 1331 1722 
L 3047 1722 
L 2188 4044 
z
M 1831 4666 
L 2547 4666 
L 4325 0 
L 3669 0 
L 3244 1197 
L 1141 1197 
L 716 0 
L 50 0 
L 1831 4666 
z
" transform="scale(0.015625)"/>
      </defs>
      <use xlink:href="#DejaVuSans-41"/>
     </g>
    </g>
   </g>
   <g id="text_3">
    <g clip-path="url(#p079bbd4941)">
     <!-- B -->
     <g transform="translate(15.800628 46.009219)scale(0.125 -0.125)">
      <defs>
       <path id="DejaVuSans-42" d="M 1259 2228 
L 1259 519 
L 2272 519 
Q 2781 519 3026 730 
Q 3272 941 3272 1375 
Q 3272 1813 3026 2020 
Q 2781 2228 2272 2228 
L 1259 2228 
z
M 1259 4147 
L 1259 2741 
L 2194 2741 
Q 2656 2741 2882 2914 
Q 3109 3088 3109 3444 
Q 3109 3797 2882 3972 
Q 2656 4147 2194 4147 
L 1259 4147 
z
M 628 4666 
L 2241 4666 
Q 2963 4666 3353 4366 
Q 3744 4066 3744 3513 
Q 3744 3084 3544 2831 
Q 3344 2578 2956 2516 
Q 3422 2416 3680 2098 
Q 3938 1781 3938 1306 
Q 3938 681 3513 340 
Q 3088 0 2303 0 
L 628 0 
L 628 4666 
z
" transform="scale(0.015625)"/>
      </defs>
      <use xlink:href="#DejaVuSans-42"/>
     </g>
    </g>
   </g>
  </g>
 </g>
 <defs>
  <clipPath id="p079bbd4941">
   <rect x="7.2" y="7.2" width="103.2036" height="49.3"/>
  </clipPath>
 </defs>
</svg>
