<?xml version="1.0" encoding="UTF-8" standalone="no"?>
<!-- Created with Digital by H.Neemann -->
<!-- created: Wed Jan 26 13:58:05 EST 2022 -->

<svg
   xmlns:svg="http://www.w3.org/2000/svg"
   xmlns="http://www.w3.org/2000/svg"
   width="48.6mm"
   height="43.65mm"
   viewBox="198 123 324 291">
<g stroke-linecap="square">
<path d="M 300,140 L 300,180 L 320,180" stroke="#0000b2" stroke-width="4.0" fill="none"/>
<path d="M 480,360 L 500,360 L 520,360" stroke="#0000b2" stroke-width="4.0" fill="none"/>
<path d="M 380,360 L 420,360" stroke="#0000b2" stroke-width="4.0" fill="none"/>
<path d="M 260,380 L 300,380 L 314,380" stroke="#0000b2" stroke-width="4.0" fill="none"/>
<path d="M 380,140 L 420,140" stroke="#0000b2" stroke-width="4.0" fill="none"/>
<path d="M 260,140 L 300,140 L 320,140" stroke="#0000b2" stroke-width="4.0" fill="none"/>
<path d="M 314,340 L 300,340 L 280,340 L 280,300 L 500,300 L 500,360" stroke="#0000b2" stroke-width="4.0" fill="none"/>
<g>
<circle cx="500.0" cy="360.0" r="4.0" stroke="#0000b2" stroke-width="4.0" fill="#0000b2" />
<circle cx="300.0" cy="140.0" r="4.0" stroke="#0000b2" stroke-width="4.0" fill="#0000b2" />
</g>
<g>
<path d="M 421,350 L 479,350 L 479,390 L 421,390 Z" stroke="#000000" stroke-width="4.0" fill="none"/>
<text text-anchor="start" x="424.0" y="366.75" fill="#808080" style="font-size:18px">D</text>
<path d="M 421,387 L 428,380 L 421,373" stroke="#000000" stroke-width="2.0" fill="none"/>
<text text-anchor="start" x="431.0" y="386.75" fill="#808080" style="font-size:18px">C</text>
<text text-anchor="end" x="476.0" y="366.75" fill="#808080" style="font-size:18px">Q</text>
<text text-anchor="end" x="476.0" y="386.75" fill="#808080" style="font-size:18px"><tspan style="text-decoration:overline;">Q</tspan></text>
<text text-anchor="middle" x="450.0" y="407.5" fill="#808080" style="font-size:18px">D</text>
<circle cx="420.0" cy="360.0" r="2.0" stroke="#0000b2" stroke-width="4.0" fill="#0000b2" />
<circle cx="420.0" cy="380.0" r="2.0" stroke="#0000b2" stroke-width="4.0" fill="#0000b2" />
<circle cx="480.0" cy="360.0" r="2.0" stroke="#b20000" stroke-width="4.0" fill="#b20000" />
<circle cx="480.0" cy="380.0" r="2.0" stroke="#b20000" stroke-width="4.0" fill="#b20000" />
</g>
<g>
<path d="M 321,130 L 379,130 L 379,190 L 321,190 Z" stroke="#000000" stroke-width="4.0" fill="none"/>
<text text-anchor="start" x="324.0" y="146.75" fill="#808080" style="font-size:18px">J</text>
<path d="M 321,167 L 328,160 L 321,153" stroke="#000000" stroke-width="2.0" fill="none"/>
<text text-anchor="start" x="331.0" y="166.75" fill="#808080" style="font-size:18px">C</text>
<text text-anchor="start" x="324.0" y="186.75" fill="#808080" style="font-size:18px">K</text>
<text text-anchor="end" x="376.0" y="146.75" fill="#808080" style="font-size:18px">Q</text>
<text text-anchor="end" x="376.0" y="166.75" fill="#808080" style="font-size:18px"><tspan style="text-decoration:overline;">Q</tspan></text>
<text text-anchor="middle" x="350.0" y="207.5" fill="#808080" style="font-size:18px">JK</text>
<circle cx="320.0" cy="140.0" r="2.0" stroke="#0000b2" stroke-width="4.0" fill="#0000b2" />
<circle cx="320.0" cy="160.0" r="2.0" stroke="#0000b2" stroke-width="4.0" fill="#0000b2" />
<circle cx="320.0" cy="180.0" r="2.0" stroke="#0000b2" stroke-width="4.0" fill="#0000b2" />
<circle cx="380.0" cy="140.0" r="2.0" stroke="#b20000" stroke-width="4.0" fill="#b20000" />
<circle cx="380.0" cy="160.0" r="2.0" stroke="#b20000" stroke-width="4.0" fill="#b20000" />
</g>
<g>
<path d="M 229,125 L 259,125 L 259,155 L 229,155 Z" stroke="#000000" stroke-width="4.0" fill="none"/>
<circle cx="244.0" cy="140.0" r="9.0" stroke="#000000" stroke-width="4.0" fill="none" />
<text text-anchor="end" x="215.0" y="149.0" fill="#000000" style="font-size:24px"><tspan style="font-style:italic;">T</tspan></text>
<circle cx="260.0" cy="140.0" r="2.0" stroke="#b20000" stroke-width="4.0" fill="#b20000" />
</g>
<g>
<path d="M 330,390 L 310,390 C 320,374 320,346 310,330 L 330,330 C 350,330 370,340 380,360 C 370,380 350,390 330,390 Z" stroke="#000000" stroke-width="4.0" fill="none"/>
<path d="M 300,390 C 310,380 310,340 300,330" stroke="#000000" stroke-width="4.0" fill="none"/>
<circle cx="300.0" cy="340.0" r="2.0" stroke="#0000b2" stroke-width="4.0" fill="#0000b2" />
<circle cx="300.0" cy="380.0" r="2.0" stroke="#0000b2" stroke-width="4.0" fill="#0000b2" />
<circle cx="380.0" cy="360.0" r="2.0" stroke="#b20000" stroke-width="4.0" fill="#b20000" />
</g>
<g>
<path d="M 229,365 L 259,365 L 259,395 L 229,395 Z" stroke="#000000" stroke-width="4.0" fill="none"/>
<circle cx="244.0" cy="380.0" r="9.0" stroke="#000000" stroke-width="4.0" fill="none" />
<text text-anchor="end" x="215.0" y="389.0" fill="#000000" style="font-size:24px"><tspan style="font-style:italic;">T</tspan></text>
<circle cx="260.0" cy="380.0" r="2.0" stroke="#b20000" stroke-width="4.0" fill="#b20000" />
</g>
</g>
</svg>