<?xml version="1.0" encoding="UTF-8" standalone="no"?>
<!-- Created with Digital by H.Neemann -->
<!-- created: Fri Jan 21 12:04:38 EST 2022 -->

<svg
   xmlns:svg="http://www.w3.org/2000/svg"
   xmlns="http://www.w3.org/2000/svg"
   width="57.45mm"
   height="14.1mm"
   viewBox="333 203 383 94">
<g stroke-linecap="square">
<path d="M 480,280 L 540,280 L 540,240" stroke="#0000b2" stroke-width="4.0" fill="none"/>
<path d="M 480,220 L 520,220" stroke="#0000b2" stroke-width="4.0" fill="none"/>
<path d="M 560,220 L 600,220" stroke="#0000b2" stroke-width="4.0" fill="none"/>
<path d="M 540,240 L 540,227" stroke="#000000" stroke-width="4.0" fill="none"/>
<g>
</g>
<g>
<path d="M 521,208 L 559,220 L 521,232 Z" stroke="#000000" stroke-width="4.0" fill="none"/>
<circle cx="520.0" cy="220.0" r="2.0" stroke="#0000b2" stroke-width="4.0" fill="#0000b2" />
<circle cx="540.0" cy="240.0" r="2.0" stroke="#0000b2" stroke-width="4.0" fill="#0000b2" />
<circle cx="560.0" cy="220.0" r="2.0" stroke="#b20000" stroke-width="4.0" fill="#b20000" />
</g>
<g>
<circle cx="616.0" cy="220.0" r="9.0" stroke="#000000" stroke-width="4.0" fill="none" />
<circle cx="616.0" cy="220.0" r="15.0" stroke="#000000" stroke-width="4.0" fill="none" />
<text text-anchor="start" x="645.0" y="229.0" fill="#000000" style="font-size:24px"><tspan style="font-style:italic;">Sortie</tspan></text>
<circle cx="600.0" cy="220.0" r="2.0" stroke="#0000b2" stroke-width="4.0" fill="#0000b2" />
</g>
<g>
<path d="M 449,205 L 479,205 L 479,235 L 449,235 Z" stroke="#000000" stroke-width="4.0" fill="none"/>
<circle cx="464.0" cy="220.0" r="9.0" stroke="#000000" stroke-width="4.0" fill="none" />
<text text-anchor="end" x="435.0" y="229.0" fill="#000000" style="font-size:24px"><tspan style="font-style:italic;">Entrée</tspan></text>
<circle cx="480.0" cy="220.0" r="2.0" stroke="#b20000" stroke-width="4.0" fill="#b20000" />
</g>
<g>
<path d="M 449,265 L 479,265 L 479,295 L 449,295 Z" stroke="#000000" stroke-width="4.0" fill="none"/>
<circle cx="464.0" cy="280.0" r="9.0" stroke="#000000" stroke-width="4.0" fill="none" />
<text text-anchor="end" x="435.0" y="289.0" fill="#000000" style="font-size:24px"><tspan style="font-style:italic;">Contrôle</tspan></text>
<circle cx="480.0" cy="280.0" r="2.0" stroke="#b20000" stroke-width="4.0" fill="#b20000" />
</g>
</g>
</svg>