<?xml version="1.0" encoding="UTF-8" standalone="no"?>
<!-- Created with Digital by H.Neemann -->
<!-- created: Fri Jan 21 12:25:53 EST 2022 -->

<svg
   xmlns:svg="http://www.w3.org/2000/svg"
   xmlns="http://www.w3.org/2000/svg"
   width="63.3mm"
   height="22.65mm"
   viewBox="359 146 422 151">
<g stroke-linecap="square">
<path d="M 500,220 L 500,160 L 600,160" stroke="#0000b2" stroke-width="4.0" fill="none"/>
<path d="M 640,160 L 660,160 L 660,220" stroke="#0000b2" stroke-width="4.0" fill="none"/>
<path d="M 440,280 L 540,280 L 560,280" stroke="#0000b2" stroke-width="4.0" fill="none"/>
<path d="M 600,280 L 620,280 L 620,180" stroke="#0000b2" stroke-width="4.0" fill="none"/>
<path d="M 440,220 L 500,220 L 520,220" stroke="#0000b2" stroke-width="4.0" fill="none"/>
<path d="M 560,220 L 660,220 L 700,220" stroke="#0000b2" stroke-width="4.0" fill="none"/>
<path d="M 540,240 L 540,280" stroke="#0000b2" stroke-width="4.0" fill="none"/>
<path d="M 540,240 L 540,227" stroke="#000000" stroke-width="4.0" fill="none"/>
<path d="M 620,180 L 620,167" stroke="#000000" stroke-width="4.0" fill="none"/>
<g>
<circle cx="540.0" cy="280.0" r="4.0" stroke="#0000b2" stroke-width="4.0" fill="#0000b2" />
<circle cx="500.0" cy="220.0" r="4.0" stroke="#0000b2" stroke-width="4.0" fill="#0000b2" />
<circle cx="660.0" cy="220.0" r="4.0" stroke="#0000b2" stroke-width="4.0" fill="#0000b2" />
</g>
<g>
<path d="M 521,208 L 559,220 L 521,232 Z" stroke="#000000" stroke-width="4.0" fill="none"/>
<circle cx="520.0" cy="220.0" r="2.0" stroke="#0000b2" stroke-width="4.0" fill="#0000b2" />
<circle cx="540.0" cy="240.0" r="2.0" stroke="#0000b2" stroke-width="4.0" fill="#0000b2" />
<circle cx="560.0" cy="220.0" r="2.0" stroke="#b20000" stroke-width="4.0" fill="#b20000" />
</g>
<g>
<circle cx="716.0" cy="220.0" r="9.0" stroke="#000000" stroke-width="4.0" fill="none" />
<circle cx="716.0" cy="220.0" r="15.0" stroke="#000000" stroke-width="4.0" fill="none" />
<text text-anchor="start" x="745.0" y="229.0" fill="#000000" style="font-size:24px"><tspan style="font-style:italic;">O/I</tspan></text>
<circle cx="700.0" cy="220.0" r="2.0" stroke="#0000b2" stroke-width="4.0" fill="#0000b2" />
</g>
<g>
<path d="M 409,205 L 439,205 L 439,235 L 409,235 Z" stroke="#000000" stroke-width="4.0" fill="none"/>
<circle cx="424.0" cy="220.0" r="9.0" stroke="#000000" stroke-width="4.0" fill="none" />
<text text-anchor="end" x="395.0" y="229.0" fill="#000000" style="font-size:24px"><tspan style="font-style:italic;">I/O</tspan></text>
<circle cx="440.0" cy="220.0" r="2.0" stroke="#b20000" stroke-width="4.0" fill="#b20000" />
</g>
<g>
<path d="M 409,265 L 439,265 L 439,295 L 409,295 Z" stroke="#000000" stroke-width="4.0" fill="none"/>
<circle cx="424.0" cy="280.0" r="9.0" stroke="#000000" stroke-width="4.0" fill="none" />
<text text-anchor="end" x="395.0" y="289.0" fill="#000000" style="font-size:24px"><tspan style="font-style:italic;">E</tspan></text>
<circle cx="440.0" cy="280.0" r="2.0" stroke="#b20000" stroke-width="4.0" fill="#b20000" />
</g>
<g>
<path d="M 639,172 L 601,160 L 639,148 Z" stroke="#000000" stroke-width="4.0" fill="none"/>
<circle cx="640.0" cy="160.0" r="2.0" stroke="#0000b2" stroke-width="4.0" fill="#0000b2" />
<circle cx="620.0" cy="180.0" r="2.0" stroke="#0000b2" stroke-width="4.0" fill="#0000b2" />
<circle cx="600.0" cy="160.0" r="2.0" stroke="#b20000" stroke-width="4.0" fill="#b20000" />
</g>
<g>
<path d="M 561,268 L 579,280 L 561,292 Z" stroke="#000000" stroke-width="4.0" fill="none"/>
<circle cx="590.0" cy="280.0" r="9.0" stroke="#000000" stroke-width="4.0" fill="none" />
<circle cx="560.0" cy="280.0" r="2.0" stroke="#0000b2" stroke-width="4.0" fill="#0000b2" />
<circle cx="600.0" cy="280.0" r="2.0" stroke="#b20000" stroke-width="4.0" fill="#b20000" />
</g>
</g>
</svg>