<?xml version="1.0" encoding="UTF-8" standalone="no"?>
<!-- Created with Digital by H.Neemann -->
<!-- created: Thu Feb 03 08:03:49 EST 2022 -->

<svg
   xmlns:svg="http://www.w3.org/2000/svg"
   xmlns="http://www.w3.org/2000/svg"
   width="112.2mm"
   height="69.9mm"
   viewBox="398 169 748 466">
<g stroke-linecap="square">
<path d="M 900,360 L 900,320 L 1000,320" stroke="#0000b2" stroke-width="4.0" fill="none"/>
<path d="M 640,420 L 640,480 L 700,480" stroke="#0000b2" stroke-width="4.0" fill="none"/>
<path d="M 520,340 L 520,420 L 560,420" stroke="#0000b2" stroke-width="4.0" fill="none"/>
<path d="M 620,420 L 640,420 L 640,360 L 700,360" stroke="#0000b2" stroke-width="4.0" fill="none"/>
<path d="M 460,260 L 540,260 L 560,260" stroke="#0000b2" stroke-width="4.0" fill="none"/>
<path d="M 980,360 L 1000,360" stroke="#0000b2" stroke-width="4.0" fill="none"/>
<path d="M 860,360 L 900,360 L 920,360" stroke="#0000b2" stroke-width="4.0" fill="none"/>
<path d="M 760,360 L 780,360 L 780,520" stroke="#0000b2" stroke-width="4.0" fill="none"/>
<path d="M 460,520 L 720,520 L 720,480" stroke="#0000b2" stroke-width="4.0" fill="none"/>
<path d="M 740,460 L 800,460 L 800,380 L 820,380" stroke="#0000b2" stroke-width="4.0" fill="none"/>
<path d="M 500,440 L 500,300 L 560,300" stroke="#0000b2" stroke-width="4.0" fill="none"/>
<path d="M 540,260 L 540,400 L 560,400" stroke="#0000b2" stroke-width="4.0" fill="none"/>
<path d="M 1040,340 L 1080,340" stroke="#0000b2" stroke-width="4.0" fill="none"/>
<path d="M 760,340 L 820,340" stroke="#0000b2" stroke-width="4.0" fill="none"/>
<path d="M 460,340 L 520,340 L 520,280 L 560,280" stroke="#0000b2" stroke-width="4.0" fill="none"/>
<path d="M 620,280 L 660,280 L 660,340 L 700,340" stroke="#0000b2" stroke-width="4.0" fill="none"/>
<path d="M 460,440 L 500,440 L 560,440" stroke="#0000b2" stroke-width="4.0" fill="none"/>
<path d="M 660,340 L 660,440 L 700,440" stroke="#0000b2" stroke-width="4.0" fill="none"/>
<path d="M 680,240 L 680,380 L 700,380" stroke="#0000b2" stroke-width="4.0" fill="none"/>
<path d="M 880,240 L 880,380 L 920,380" stroke="#0000b2" stroke-width="4.0" fill="none"/>
<path d="M 840,380 L 840,560" stroke="#0000b2" stroke-width="4.0" fill="none"/>
<path d="M 880,380 L 880,520" stroke="#0000b2" stroke-width="4.0" fill="none"/>
<path d="M 1020,360 L 1020,560" stroke="#0000b2" stroke-width="4.0" fill="none"/>
<g>
<circle cx="640.0" cy="420.0" r="4.0" stroke="#0000b2" stroke-width="4.0" fill="#0000b2" />
<circle cx="540.0" cy="260.0" r="4.0" stroke="#0000b2" stroke-width="4.0" fill="#0000b2" />
<circle cx="900.0" cy="360.0" r="4.0" stroke="#0000b2" stroke-width="4.0" fill="#0000b2" />
<circle cx="520.0" cy="340.0" r="4.0" stroke="#0000b2" stroke-width="4.0" fill="#0000b2" />
<circle cx="660.0" cy="340.0" r="4.0" stroke="#0000b2" stroke-width="4.0" fill="#0000b2" />
<circle cx="500.0" cy="440.0" r="4.0" stroke="#0000b2" stroke-width="4.0" fill="#0000b2" />
<circle cx="880.0" cy="380.0" r="4.0" stroke="#0000b2" stroke-width="4.0" fill="#0000b2" />
</g>
<g>
<path d="M 701,330 L 759,330 L 759,390 L 701,390 Z" stroke="#000000" stroke-width="4.0" fill="none"/>
<text text-anchor="start" x="704.0" y="346.75" fill="#808080" style="font-size:18px">a</text>
<text text-anchor="start" x="704.0" y="366.75" fill="#808080" style="font-size:18px">b</text>
<text text-anchor="start" x="704.0" y="386.75" fill="#808080" style="font-size:18px">c<tspan style="font-size:80%;baseline-shift:sub;">i</tspan></text>
<text text-anchor="end" x="756.0" y="346.75" fill="#808080" style="font-size:18px">s</text>
<text text-anchor="end" x="756.0" y="366.75" fill="#808080" style="font-size:18px">c<tspan style="font-size:80%;baseline-shift:sub;">o</tspan></text>
<text text-anchor="middle" x="730.0" y="407.5" fill="#808080" style="font-size:18px">Add</text>
<circle cx="700.0" cy="340.0" r="2.0" stroke="#0000b2" stroke-width="4.0" fill="#0000b2" />
<circle cx="700.0" cy="360.0" r="2.0" stroke="#0000b2" stroke-width="4.0" fill="#0000b2" />
<circle cx="700.0" cy="380.0" r="2.0" stroke="#0000b2" stroke-width="4.0" fill="#0000b2" />
<circle cx="760.0" cy="340.0" r="2.0" stroke="#b20000" stroke-width="4.0" fill="#b20000" />
<circle cx="760.0" cy="360.0" r="2.0" stroke="#b20000" stroke-width="4.0" fill="#b20000" />
</g>
<g>
<path d="M 701,436 L 739,445 L 739,475 L 701,484 Z" stroke="#000000" stroke-width="4.0" fill="none"/>
<text text-anchor="start" x="703.0" y="455.5" fill="#808080" style="font-size:18px">0</text>
<circle cx="720.0" cy="480.0" r="2.0" stroke="#0000b2" stroke-width="4.0" fill="#0000b2" />
<circle cx="700.0" cy="440.0" r="2.0" stroke="#0000b2" stroke-width="4.0" fill="#0000b2" />
<circle cx="700.0" cy="480.0" r="2.0" stroke="#0000b2" stroke-width="4.0" fill="#0000b2" />
<circle cx="740.0" cy="460.0" r="2.0" stroke="#b20000" stroke-width="4.0" fill="#b20000" />
</g>
<g>
<path d="M 821,336 L 859,345 L 859,375 L 821,384 Z" stroke="#000000" stroke-width="4.0" fill="none"/>
<text text-anchor="start" x="823.0" y="355.5" fill="#808080" style="font-size:18px">0</text>
<circle cx="840.0" cy="380.0" r="2.0" stroke="#0000b2" stroke-width="4.0" fill="#0000b2" />
<circle cx="820.0" cy="340.0" r="2.0" stroke="#0000b2" stroke-width="4.0" fill="#0000b2" />
<circle cx="820.0" cy="380.0" r="2.0" stroke="#0000b2" stroke-width="4.0" fill="#0000b2" />
<circle cx="860.0" cy="360.0" r="2.0" stroke="#b20000" stroke-width="4.0" fill="#b20000" />
</g>
<g>
<path d="M 921,350 L 979,350 L 979,390 L 921,390 Z" stroke="#000000" stroke-width="4.0" fill="none"/>
<text text-anchor="start" x="924.0" y="366.75" fill="#808080" style="font-size:18px">D</text>
<path d="M 921,387 L 928,380 L 921,373" stroke="#000000" stroke-width="2.0" fill="none"/>
<text text-anchor="start" x="931.0" y="386.75" fill="#808080" style="font-size:18px">C</text>
<text text-anchor="end" x="976.0" y="366.75" fill="#808080" style="font-size:18px">Q</text>
<text text-anchor="end" x="976.0" y="386.75" fill="#808080" style="font-size:18px"><tspan style="text-decoration:overline;">Q</tspan></text>
<text text-anchor="middle" x="950.0" y="407.5" fill="#808080" style="font-size:18px">D</text>
<circle cx="920.0" cy="360.0" r="2.0" stroke="#0000b2" stroke-width="4.0" fill="#0000b2" />
<circle cx="920.0" cy="380.0" r="2.0" stroke="#0000b2" stroke-width="4.0" fill="#0000b2" />
<circle cx="980.0" cy="360.0" r="2.0" stroke="#b20000" stroke-width="4.0" fill="#b20000" />
<circle cx="980.0" cy="380.0" r="2.0" stroke="#b20000" stroke-width="4.0" fill="#b20000" />
</g>
<g>
<path d="M 1001,316 L 1039,325 L 1039,355 L 1001,364 Z" stroke="#000000" stroke-width="4.0" fill="none"/>
<text text-anchor="start" x="1003.0" y="335.5" fill="#808080" style="font-size:18px">0</text>
<circle cx="1020.0" cy="360.0" r="2.0" stroke="#0000b2" stroke-width="4.0" fill="#0000b2" />
<circle cx="1000.0" cy="320.0" r="2.0" stroke="#0000b2" stroke-width="4.0" fill="#0000b2" />
<circle cx="1000.0" cy="360.0" r="2.0" stroke="#0000b2" stroke-width="4.0" fill="#0000b2" />
<circle cx="1040.0" cy="340.0" r="2.0" stroke="#b20000" stroke-width="4.0" fill="#b20000" />
</g>
<g>
<path d="M 561,250 L 619,250 L 619,310 L 561,310 Z" stroke="#000000" stroke-width="4.0" fill="none"/>
<text text-anchor="start" x="564.0" y="266.75" fill="#808080" style="font-size:18px">0</text>
<text text-anchor="start" x="564.0" y="286.75" fill="#808080" style="font-size:18px">1</text>
<text text-anchor="start" x="564.0" y="306.75" fill="#808080" style="font-size:18px">2</text>
<text text-anchor="end" x="616.0" y="286.75" fill="#808080" style="font-size:18px">out</text>
<text text-anchor="middle" x="590.0" y="327.5" fill="#808080" style="font-size:18px">LUT</text>
<circle cx="560.0" cy="260.0" r="2.0" stroke="#0000b2" stroke-width="4.0" fill="#0000b2" />
<circle cx="560.0" cy="280.0" r="2.0" stroke="#0000b2" stroke-width="4.0" fill="#0000b2" />
<circle cx="560.0" cy="300.0" r="2.0" stroke="#0000b2" stroke-width="4.0" fill="#0000b2" />
<circle cx="620.0" cy="280.0" r="2.0" stroke="#b20000" stroke-width="4.0" fill="#b20000" />
</g>
<g>
<path d="M 561,390 L 619,390 L 619,450 L 561,450 Z" stroke="#000000" stroke-width="4.0" fill="none"/>
<text text-anchor="start" x="564.0" y="406.75" fill="#808080" style="font-size:18px">0</text>
<text text-anchor="start" x="564.0" y="426.75" fill="#808080" style="font-size:18px">1</text>
<text text-anchor="start" x="564.0" y="446.75" fill="#808080" style="font-size:18px">2</text>
<text text-anchor="end" x="616.0" y="426.75" fill="#808080" style="font-size:18px">out</text>
<text text-anchor="middle" x="590.0" y="467.5" fill="#808080" style="font-size:18px">LUT</text>
<circle cx="560.0" cy="400.0" r="2.0" stroke="#0000b2" stroke-width="4.0" fill="#0000b2" />
<circle cx="560.0" cy="420.0" r="2.0" stroke="#0000b2" stroke-width="4.0" fill="#0000b2" />
<circle cx="560.0" cy="440.0" r="2.0" stroke="#0000b2" stroke-width="4.0" fill="#0000b2" />
<circle cx="620.0" cy="420.0" r="2.0" stroke="#b20000" stroke-width="4.0" fill="#b20000" />
</g>
<g>
<circle cx="1096.0" cy="340.0" r="9.0" stroke="#000000" stroke-width="4.0" fill="none" />
<circle cx="1096.0" cy="340.0" r="15.0" stroke="#000000" stroke-width="4.0" fill="none" />
<text text-anchor="start" x="1125.0" y="349.0" fill="#000000" style="font-size:24px"><tspan style="font-style:italic;">O</tspan></text>
<circle cx="1080.0" cy="340.0" r="2.0" stroke="#0000b2" stroke-width="4.0" fill="#0000b2" />
</g>
<g>
<circle cx="780.0" cy="536.0" r="9.0" stroke="#000000" stroke-width="4.0" fill="none" />
<circle cx="780.0" cy="536.0" r="15.0" stroke="#000000" stroke-width="4.0" fill="none" />
<text text-anchor="end" x="780.0" y="574.0" fill="#000000" style="font-size:24px" transform="rotate(-90,780.0,565.0)" ><tspan style="font-style:italic;">R<tspan style="font-size:80%;baseline-shift:sub;">o</tspan></tspan></text>
<circle cx="780.0" cy="520.0" r="2.0" stroke="#0000b2" stroke-width="4.0" fill="#0000b2" />
</g>
<g>
<path d="M 429,245 L 459,245 L 459,275 L 429,275 Z" stroke="#000000" stroke-width="4.0" fill="none"/>
<circle cx="444.0" cy="260.0" r="9.0" stroke="#000000" stroke-width="4.0" fill="none" />
<text text-anchor="end" x="415.0" y="269.0" fill="#000000" style="font-size:24px"><tspan style="font-style:italic;">a</tspan></text>
<circle cx="460.0" cy="260.0" r="2.0" stroke="#b20000" stroke-width="4.0" fill="#b20000" />
</g>
<g>
<path d="M 429,325 L 459,325 L 459,355 L 429,355 Z" stroke="#000000" stroke-width="4.0" fill="none"/>
<circle cx="444.0" cy="340.0" r="9.0" stroke="#000000" stroke-width="4.0" fill="none" />
<text text-anchor="end" x="415.0" y="349.0" fill="#000000" style="font-size:24px"><tspan style="font-style:italic;">b</tspan></text>
<circle cx="460.0" cy="340.0" r="2.0" stroke="#b20000" stroke-width="4.0" fill="#b20000" />
</g>
<g>
<path d="M 429,425 L 459,425 L 459,455 L 429,455 Z" stroke="#000000" stroke-width="4.0" fill="none"/>
<circle cx="444.0" cy="440.0" r="9.0" stroke="#000000" stroke-width="4.0" fill="none" />
<text text-anchor="end" x="415.0" y="449.0" fill="#000000" style="font-size:24px"><tspan style="font-style:italic;">c</tspan></text>
<circle cx="460.0" cy="440.0" r="2.0" stroke="#b20000" stroke-width="4.0" fill="#b20000" />
</g>
<g>
<path d="M 429,505 L 459,505 L 459,535 L 429,535 Z" stroke="#000000" stroke-width="4.0" fill="none"/>
<circle cx="444.0" cy="520.0" r="9.0" stroke="#000000" stroke-width="4.0" fill="none" />
<text text-anchor="end" x="415.0" y="529.0" fill="#000000" style="font-size:24px"><tspan style="font-style:italic;">d</tspan></text>
<circle cx="460.0" cy="520.0" r="2.0" stroke="#b20000" stroke-width="4.0" fill="#b20000" />
</g>
<g>
<path d="M 695,209 L 695,239 L 665,239 L 665,209 Z" stroke="#000000" stroke-width="4.0" fill="none"/>
<circle cx="680.0" cy="224.0" r="9.0" stroke="#000000" stroke-width="4.0" fill="none" />
<text text-anchor="start" x="680.0" y="204.0" fill="#000000" style="font-size:24px" transform="rotate(-90,680.0,195.0)" ><tspan style="font-style:italic;">R<tspan style="font-size:80%;baseline-shift:sub;">i</tspan></tspan></text>
<circle cx="680.0" cy="240.0" r="2.0" stroke="#b20000" stroke-width="4.0" fill="#b20000" />
</g>
<g>
<path d="M 865,551 L 865,521 L 895,521 L 895,551 Z" stroke="#000000" stroke-width="4.0" fill="none"/>
<path d="M 885,545 L 885,540 L 875,540 L 875,535 L 885,535 L 885,530 L 875,530 L 875,525" stroke="#000000" stroke-width="2.0" fill="none"/>
<circle cx="880.0" cy="520.0" r="2.0" stroke="#b20000" stroke-width="4.0" fill="#b20000" />
</g>
<g>
<path d="M 895,209 L 895,239 L 865,239 L 865,209 Z" stroke="#000000" stroke-width="4.0" fill="none"/>
<circle cx="880.0" cy="224.0" r="9.0" stroke="#000000" stroke-width="4.0" fill="none" />
<text text-anchor="start" x="880.0" y="204.0" fill="#000000" style="font-size:24px" transform="rotate(-90,880.0,195.0)" ><tspan style="font-style:italic;">H</tspan></text>
<circle cx="880.0" cy="240.0" r="2.0" stroke="#b20000" stroke-width="4.0" fill="#b20000" />
</g>
<g>
<path d="M 825,591 L 825,561 L 855,561 L 855,591 Z" stroke="#000000" stroke-width="4.0" fill="none"/>
<circle cx="840.0" cy="576.0" r="9.0" stroke="#000000" stroke-width="4.0" fill="none" />
<text text-anchor="end" x="840.0" y="614.0" fill="#000000" style="font-size:24px" transform="rotate(-90,840.0,605.0)" ><tspan style="font-style:italic;">s<tspan style="font-size:80%;baseline-shift:sub;">1</tspan></tspan></text>
<circle cx="840.0" cy="560.0" r="2.0" stroke="#b20000" stroke-width="4.0" fill="#b20000" />
</g>
<g>
<path d="M 1005,591 L 1005,561 L 1035,561 L 1035,591 Z" stroke="#000000" stroke-width="4.0" fill="none"/>
<circle cx="1020.0" cy="576.0" r="9.0" stroke="#000000" stroke-width="4.0" fill="none" />
<text text-anchor="end" x="1020.0" y="614.0" fill="#000000" style="font-size:24px" transform="rotate(-90,1020.0,605.0)" ><tspan style="font-style:italic;">s<tspan style="font-size:80%;baseline-shift:sub;">2</tspan></tspan></text>
<circle cx="1020.0" cy="560.0" r="2.0" stroke="#b20000" stroke-width="4.0" fill="#b20000" />
</g>
</g>
</svg>