<?xml version="1.0" encoding="utf-8" standalone="no"?>
<!DOCTYPE svg PUBLIC "-//W3C//DTD SVG 1.1//EN"
  "http://www.w3.org/Graphics/SVG/1.1/DTD/svg11.dtd">
<svg xmlns:xlink="http://www.w3.org/1999/xlink" width="347.6952pt" height="144.62pt" viewBox="0 0 347.6952 144.62" xmlns="http://www.w3.org/2000/svg" version="1.1">
 <metadata>
  <rdf:RDF xmlns:dc="http://purl.org/dc/elements/1.1/" xmlns:cc="http://creativecommons.org/ns#" xmlns:rdf="http://www.w3.org/1999/02/22-rdf-syntax-ns#">
   <cc:Work>
    <dc:type rdf:resource="http://purl.org/dc/dcmitype/StillImage"/>
    <dc:date>2022-02-23T12:27:50.319859</dc:date>
    <dc:format>image/svg+xml</dc:format>
    <dc:creator>
     <cc:Agent>
      <dc:title>Matplotlib v3.5.1, https://matplotlib.org/</dc:title>
     </cc:Agent>
    </dc:creator>
   </cc:Work>
  </rdf:RDF>
 </metadata>
 <defs>
  <style type="text/css">*{stroke-linejoin: round; stroke-linecap: butt}</style>
 </defs>
 <g id="figure_1">
  <g id="patch_1">
   <path d="M 0 144.62 
L 347.6952 144.62 
L 347.6952 0 
L 0 0 
L 0 144.62 
z
" style="fill: none"/>
  </g>
  <g id="axes_1">
   <g id="line2d_1">
    <path d="M 62.0352 30.66 
L 190.5552 30.66 
" clip-path="url(#p0218d68db3)" style="fill: none; stroke: #000000; stroke-linecap: round"/>
   </g>
   <g id="line2d_2">
    <path d="M 190.5552 30.66 
L 193.6152 15.36 
L 337.4352 15.36 
" clip-path="url(#p0218d68db3)" style="fill: none; stroke: #000000; stroke-linecap: round"/>
   </g>
   <g id="line2d_3">
    <path d="M 62.0352 59.73 
L 227.2752 59.73 
" clip-path="url(#p0218d68db3)" style="fill: none; stroke: #000000; stroke-linecap: round"/>
   </g>
   <g id="line2d_4">
    <path d="M 227.2752 59.73 
L 230.3352 75.03 
L 337.4352 75.03 
" clip-path="url(#p0218d68db3)" style="fill: none; stroke: #000000; stroke-linecap: round"/>
   </g>
   <g id="line2d_5">
    <path d="M 62.0352 119.4 
L 227.2752 119.4 
" clip-path="url(#p0218d68db3)" style="fill: none; stroke: #000000; stroke-linecap: round"/>
   </g>
   <g id="line2d_6">
    <path d="M 227.2752 119.4 
L 230.3352 104.1 
L 263.9952 104.1 
" clip-path="url(#p0218d68db3)" style="fill: none; stroke: #000000; stroke-linecap: round"/>
   </g>
   <g id="line2d_7">
    <path d="M 263.9952 104.1 
L 267.0552 119.4 
L 337.4352 119.4 
" clip-path="url(#p0218d68db3)" style="fill: none; stroke: #000000; stroke-linecap: round"/>
   </g>
   <g id="line2d_8">
    <path d="M 192.0852 81.15 
L 228.8052 81.15 
" clip-path="url(#p5465906046)" style="fill: none; stroke: #0000ff; stroke-linecap: round"/>
   </g>
   <g id="line2d_9">
    <path d="M 192.0852 84.21 
L 192.0852 78.09 
" clip-path="url(#p5465906046)" style="fill: none; stroke: #0000ff; stroke-linecap: round"/>
   </g>
   <g id="line2d_10">
    <path d="M 228.8052 84.21 
L 228.8052 78.09 
" clip-path="url(#p5465906046)" style="fill: none; stroke: #0000ff; stroke-linecap: round"/>
   </g>
   <g id="line2d_11">
    <path d="M 192.0852 125.52 
L 265.5252 125.52 
" clip-path="url(#p5465906046)" style="fill: none; stroke: #0000ff; stroke-linecap: round"/>
   </g>
   <g id="line2d_12">
    <path d="M 192.0852 128.58 
L 192.0852 122.46 
" clip-path="url(#p5465906046)" style="fill: none; stroke: #0000ff; stroke-linecap: round"/>
   </g>
   <g id="line2d_13">
    <path d="M 265.5252 128.58 
L 265.5252 122.46 
" clip-path="url(#p5465906046)" style="fill: none; stroke: #0000ff; stroke-linecap: round"/>
   </g>
   <g id="text_1">
    <g clip-path="url(#p5465906046)">
     <!-- $a$ -->
     <g style="fill: #0000ff" transform="translate(49.4052 28.476328)scale(0.105 -0.105)">
      <defs>
       <path id="DejaVuSans-Oblique-61" d="M 3438 1997 
L 3047 0 
L 2472 0 
L 2578 531 
Q 2325 219 2001 64 
Q 1678 -91 1281 -91 
Q 834 -91 548 182 
Q 263 456 263 884 
Q 263 1497 752 1853 
Q 1241 2209 2100 2209 
L 2900 2209 
L 2931 2363 
Q 2938 2388 2941 2417 
Q 2944 2447 2944 2509 
Q 2944 2788 2717 2942 
Q 2491 3097 2081 3097 
Q 1800 3097 1504 3025 
Q 1209 2953 897 2809 
L 997 3341 
Q 1322 3463 1633 3523 
Q 1944 3584 2234 3584 
Q 2853 3584 3176 3315 
Q 3500 3047 3500 2534 
Q 3500 2431 3484 2292 
Q 3469 2153 3438 1997 
z
M 2816 1759 
L 2241 1759 
Q 1534 1759 1195 1570 
Q 856 1381 856 984 
Q 856 709 1029 553 
Q 1203 397 1509 397 
Q 1978 397 2328 733 
Q 2678 1069 2791 1631 
L 2816 1759 
z
" transform="scale(0.015625)"/>
      </defs>
      <use xlink:href="#DejaVuSans-Oblique-61"/>
     </g>
    </g>
   </g>
   <g id="text_2">
    <g clip-path="url(#p5465906046)">
     <!-- $a^\prime$ -->
     <g style="fill: #0000ff" transform="translate(46.6752 72.846328)scale(0.105 -0.105)">
      <defs>
       <path id="Cmsy10-30" d="M 225 347 
Q 184 359 184 409 
L 966 3316 
Q 1003 3434 1093 3506 
Q 1184 3578 1300 3578 
Q 1450 3578 1564 3479 
Q 1678 3381 1678 3231 
Q 1678 3166 1644 3084 
L 488 319 
Q 466 275 428 275 
Q 394 275 320 306 
Q 247 338 225 347 
z
" transform="scale(0.015625)"/>
      </defs>
      <use xlink:href="#DejaVuSans-Oblique-61" transform="translate(0 0.584375)"/>
      <use xlink:href="#Cmsy10-30" transform="translate(65.929193 38.865625)scale(0.7)"/>
     </g>
    </g>
   </g>
   <g id="text_3">
    <g clip-path="url(#p5465906046)">
     <!-- s -->
     <g style="fill: #0000ff" transform="translate(50.445356 117.216328)scale(0.105 -0.105)">
      <defs>
       <path id="DejaVuSans-73" d="M 2834 3397 
L 2834 2853 
Q 2591 2978 2328 3040 
Q 2066 3103 1784 3103 
Q 1356 3103 1142 2972 
Q 928 2841 928 2578 
Q 928 2378 1081 2264 
Q 1234 2150 1697 2047 
L 1894 2003 
Q 2506 1872 2764 1633 
Q 3022 1394 3022 966 
Q 3022 478 2636 193 
Q 2250 -91 1575 -91 
Q 1294 -91 989 -36 
Q 684 19 347 128 
L 347 722 
Q 666 556 975 473 
Q 1284 391 1588 391 
Q 1994 391 2212 530 
Q 2431 669 2431 922 
Q 2431 1156 2273 1281 
Q 2116 1406 1581 1522 
L 1381 1569 
Q 847 1681 609 1914 
Q 372 2147 372 2553 
Q 372 3047 722 3315 
Q 1072 3584 1716 3584 
Q 2034 3584 2315 3537 
Q 2597 3491 2834 3397 
z
" transform="scale(0.015625)"/>
      </defs>
      <use xlink:href="#DejaVuSans-73"/>
     </g>
    </g>
   </g>
   <g id="line2d_14">
    <path d="M 192.0852 121.44 
L 192.0852 13.32 
" clip-path="url(#p5465906046)" style="fill: none; stroke-dasharray: 1,1.65; stroke-dashoffset: 0; stroke: #d3d3d3"/>
   </g>
   <g id="patch_2">
    <path d="M 201.969 85.23 
L 201.969 77.07 
L 218.9214 77.07 
L 218.9214 85.23 
z
" clip-path="url(#p5465906046)" style="fill: #ffffff"/>
   </g>
   <g id="text_4">
    <g clip-path="url(#p5465906046)">
     <!-- $t_{p1}$ -->
     <g transform="translate(206.1877 82.45)scale(0.065 -0.065)">
      <defs>
       <path id="DejaVuSans-Oblique-74" d="M 2706 3500 
L 2619 3053 
L 1472 3053 
L 1100 1153 
Q 1081 1047 1072 975 
Q 1063 903 1063 863 
Q 1063 663 1183 572 
Q 1303 481 1569 481 
L 2150 481 
L 2053 0 
L 1503 0 
Q 991 0 739 200 
Q 488 400 488 806 
Q 488 878 497 964 
Q 506 1050 525 1153 
L 897 3053 
L 409 3053 
L 500 3500 
L 978 3500 
L 1172 4494 
L 1747 4494 
L 1556 3500 
L 2706 3500 
z
" transform="scale(0.015625)"/>
       <path id="DejaVuSans-Oblique-70" d="M 3175 2156 
Q 3175 2616 2975 2859 
Q 2775 3103 2400 3103 
Q 2144 3103 1911 2972 
Q 1678 2841 1497 2591 
Q 1319 2344 1212 1994 
Q 1106 1644 1106 1300 
Q 1106 863 1306 627 
Q 1506 391 1875 391 
Q 2147 391 2380 519 
Q 2613 647 2778 891 
Q 2956 1147 3065 1494 
Q 3175 1841 3175 2156 
z
M 1394 2969 
Q 1625 3272 1939 3428 
Q 2253 3584 2638 3584 
Q 3175 3584 3472 3232 
Q 3769 2881 3769 2247 
Q 3769 1728 3584 1258 
Q 3400 788 3053 416 
Q 2822 169 2531 39 
Q 2241 -91 1919 -91 
Q 1547 -91 1294 64 
Q 1041 219 916 525 
L 556 -1331 
L -19 -1331 
L 922 3500 
L 1497 3500 
L 1394 2969 
z
" transform="scale(0.015625)"/>
       <path id="DejaVuSans-31" d="M 794 531 
L 1825 531 
L 1825 4091 
L 703 3866 
L 703 4441 
L 1819 4666 
L 2450 4666 
L 2450 531 
L 3481 531 
L 3481 0 
L 794 0 
L 794 531 
z
" transform="scale(0.015625)"/>
      </defs>
      <use xlink:href="#DejaVuSans-Oblique-74" transform="translate(0 0.78125)"/>
      <use xlink:href="#DejaVuSans-Oblique-70" transform="translate(39.208984 -15.625)scale(0.7)"/>
      <use xlink:href="#DejaVuSans-31" transform="translate(83.642578 -15.625)scale(0.7)"/>
     </g>
    </g>
   </g>
   <g id="patch_3">
    <path d="M 207.8136 129.6 
L 207.8136 121.44 
L 249.7968 121.44 
L 249.7968 129.6 
z
" clip-path="url(#p5465906046)" style="fill: #ffffff"/>
   </g>
   <g id="text_5">
    <g clip-path="url(#p5465906046)">
     <!-- $t_{p1}+t_{p2}$ -->
     <g transform="translate(216.2927 126.82)scale(0.065 -0.065)">
      <defs>
       <path id="DejaVuSans-2b" d="M 2944 4013 
L 2944 2272 
L 4684 2272 
L 4684 1741 
L 2944 1741 
L 2944 0 
L 2419 0 
L 2419 1741 
L 678 1741 
L 678 2272 
L 2419 2272 
L 2419 4013 
L 2944 4013 
z
" transform="scale(0.015625)"/>
       <path id="DejaVuSans-32" d="M 1228 531 
L 3431 531 
L 3431 0 
L 469 0 
L 469 531 
Q 828 903 1448 1529 
Q 2069 2156 2228 2338 
Q 2531 2678 2651 2914 
Q 2772 3150 2772 3378 
Q 2772 3750 2511 3984 
Q 2250 4219 1831 4219 
Q 1534 4219 1204 4116 
Q 875 4013 500 3803 
L 500 4441 
Q 881 4594 1212 4672 
Q 1544 4750 1819 4750 
Q 2544 4750 2975 4387 
Q 3406 4025 3406 3419 
Q 3406 3131 3298 2873 
Q 3191 2616 2906 2266 
Q 2828 2175 2409 1742 
Q 1991 1309 1228 531 
z
" transform="scale(0.015625)"/>
      </defs>
      <use xlink:href="#DejaVuSans-Oblique-74" transform="translate(0 0.78125)"/>
      <use xlink:href="#DejaVuSans-Oblique-70" transform="translate(39.208984 -15.625)scale(0.7)"/>
      <use xlink:href="#DejaVuSans-31" transform="translate(83.642578 -15.625)scale(0.7)"/>
      <use xlink:href="#DejaVuSans-2b" transform="translate(150.395508 0.78125)"/>
      <use xlink:href="#DejaVuSans-Oblique-74" transform="translate(253.666992 0.78125)"/>
      <use xlink:href="#DejaVuSans-Oblique-70" transform="translate(292.875977 -15.625)scale(0.7)"/>
      <use xlink:href="#DejaVuSans-32" transform="translate(337.30957 -15.625)scale(0.7)"/>
     </g>
    </g>
   </g>
  </g>
 </g>
 <defs>
  <clipPath id="p0218d68db3">
   <rect x="62.0352" y="15.36" width="550.8" height="148.41"/>
  </clipPath>
  <clipPath id="p5465906046">
   <rect x="7.2" y="7.2" width="333.2952" height="130.22"/>
  </clipPath>
 </defs>
</svg>
