<?xml version="1.0" encoding="utf-8" standalone="no"?>
<!DOCTYPE svg PUBLIC "-//W3C//DTD SVG 1.1//EN"
  "http://www.w3.org/Graphics/SVG/1.1/DTD/svg11.dtd">
<svg xmlns:xlink="http://www.w3.org/1999/xlink" width="271.8684pt" height="99.06pt" viewBox="0 0 271.8684 99.06" xmlns="http://www.w3.org/2000/svg" version="1.1">
 <metadata>
  <rdf:RDF xmlns:dc="http://purl.org/dc/elements/1.1/" xmlns:cc="http://creativecommons.org/ns#" xmlns:rdf="http://www.w3.org/1999/02/22-rdf-syntax-ns#">
   <cc:Work>
    <dc:type rdf:resource="http://purl.org/dc/dcmitype/StillImage"/>
    <dc:date>2022-02-04T08:29:12.627018</dc:date>
    <dc:format>image/svg+xml</dc:format>
    <dc:creator>
     <cc:Agent>
      <dc:title>Matplotlib v3.5.1, https://matplotlib.org/</dc:title>
     </cc:Agent>
    </dc:creator>
   </cc:Work>
  </rdf:RDF>
 </metadata>
 <defs>
  <style type="text/css">*{stroke-linejoin: round; stroke-linecap: butt}</style>
 </defs>
 <g id="figure_1">
  <g id="patch_1">
   <path d="M 0 99.06 
L 271.8684 99.06 
L 271.8684 0 
L 0 0 
L 0 99.06 
z
" style="fill: none"/>
  </g>
  <g id="axes_1">
   <g id="line2d_1">
    <path d="M 35.1684 10.77 
L 35.1684 88.8 
" clip-path="url(#p920f385522)" style="fill: none; stroke-dasharray: 1,1.65; stroke-dashoffset: 0; stroke: #dddddd"/>
   </g>
   <g id="line2d_2">
    <path d="M 96.3684 10.77 
L 96.3684 88.8 
" clip-path="url(#p920f385522)" style="fill: none; stroke-dasharray: 1,1.65; stroke-dashoffset: 0; stroke: #dddddd"/>
   </g>
   <g id="line2d_3">
    <path d="M 157.5684 10.77 
L 157.5684 88.8 
" clip-path="url(#p920f385522)" style="fill: none; stroke-dasharray: 1,1.65; stroke-dashoffset: 0; stroke: #dddddd"/>
   </g>
   <g id="line2d_4">
    <path d="M 218.7684 10.77 
L 218.7684 88.8 
" clip-path="url(#p920f385522)" style="fill: none; stroke-dasharray: 1,1.65; stroke-dashoffset: 0; stroke: #dddddd"/>
   </g>
   <g id="line2d_5">
    <path d="M 35.1684 30.66 
L 35.1684 15.36 
L 65.7684 15.36 
L 65.7684 30.66 
L 96.3684 30.66 
L 96.3684 15.36 
L 126.9684 15.36 
L 126.9684 30.66 
L 157.5684 30.66 
L 157.5684 15.36 
L 188.1684 15.36 
L 188.1684 30.66 
L 218.7684 30.66 
" clip-path="url(#p5de4037a5f)" style="fill: none; stroke: #000000; stroke-linecap: round"/>
   </g>
   <g id="line2d_6">
    <path d="M 35.1684 26.835 
L 35.1684 26.835 
" clip-path="url(#p5de4037a5f)" style="fill: none; stroke: #000000; stroke-linecap: round"/>
   </g>
   <g id="patch_2">
    <path d="M 33.3324 26.835 
L 35.1684 19.185 
L 37.0044 26.835 
z
" clip-path="url(#p5de4037a5f)"/>
   </g>
   <g id="line2d_7">
    <path d="M 96.3684 26.835 
L 96.3684 26.835 
" clip-path="url(#p5de4037a5f)" style="fill: none; stroke: #000000; stroke-linecap: round"/>
   </g>
   <g id="patch_3">
    <path d="M 94.5324 26.835 
L 96.3684 19.185 
L 98.2044 26.835 
z
" clip-path="url(#p5de4037a5f)"/>
   </g>
   <g id="line2d_8">
    <path d="M 157.5684 26.835 
L 157.5684 26.835 
" clip-path="url(#p5de4037a5f)" style="fill: none; stroke: #000000; stroke-linecap: round"/>
   </g>
   <g id="patch_4">
    <path d="M 155.7324 26.835 
L 157.5684 19.185 
L 159.4044 26.835 
z
" clip-path="url(#p5de4037a5f)"/>
   </g>
   <g id="line2d_9">
    <path d="M 35.1684 55.14 
L 84.1284 55.14 
" clip-path="url(#p5de4037a5f)" style="fill: none; stroke: #000000; stroke-linecap: round"/>
   </g>
   <g id="line2d_10">
    <path d="M 84.1284 55.14 
L 85.6584 39.84 
L 139.2084 39.84 
" clip-path="url(#p5de4037a5f)" style="fill: none; stroke: #000000; stroke-linecap: round"/>
   </g>
   <g id="line2d_11">
    <path d="M 139.2084 39.84 
L 140.7384 55.14 
L 261.6084 55.14 
" clip-path="url(#p5de4037a5f)" style="fill: none; stroke: #000000; stroke-linecap: round"/>
   </g>
   <g id="line2d_12">
    <path d="M 35.1684 79.62 
L 96.3684 79.62 
" clip-path="url(#p5de4037a5f)" style="fill: none; stroke: #ff0000; stroke-width: 2; stroke-linecap: round"/>
   </g>
   <g id="line2d_13">
    <path d="M 96.3684 79.62 
L 97.8984 64.32 
L 157.5684 64.32 
" clip-path="url(#p5de4037a5f)" style="fill: none; stroke: #ff0000; stroke-width: 2; stroke-linecap: round"/>
   </g>
   <g id="line2d_14">
    <path d="M 157.5684 64.32 
L 159.0984 79.62 
L 218.7684 79.62 
" clip-path="url(#p5de4037a5f)" style="fill: none; stroke: #ff0000; stroke-width: 2; stroke-linecap: round"/>
   </g>
   <g id="text_1">
    <g clip-path="url(#p920f385522)">
     <!-- clk -->
     <g style="fill: #0000ff" transform="translate(14.277853 28.476328)scale(0.105 -0.105)">
      <defs>
       <path id="DejaVuSans-63" d="M 3122 3366 
L 3122 2828 
Q 2878 2963 2633 3030 
Q 2388 3097 2138 3097 
Q 1578 3097 1268 2742 
Q 959 2388 959 1747 
Q 959 1106 1268 751 
Q 1578 397 2138 397 
Q 2388 397 2633 464 
Q 2878 531 3122 666 
L 3122 134 
Q 2881 22 2623 -34 
Q 2366 -91 2075 -91 
Q 1284 -91 818 406 
Q 353 903 353 1747 
Q 353 2603 823 3093 
Q 1294 3584 2113 3584 
Q 2378 3584 2631 3529 
Q 2884 3475 3122 3366 
z
" transform="scale(0.015625)"/>
       <path id="DejaVuSans-6c" d="M 603 4863 
L 1178 4863 
L 1178 0 
L 603 0 
L 603 4863 
z
" transform="scale(0.015625)"/>
       <path id="DejaVuSans-6b" d="M 581 4863 
L 1159 4863 
L 1159 1991 
L 2875 3500 
L 3609 3500 
L 1753 1863 
L 3688 0 
L 2938 0 
L 1159 1709 
L 1159 0 
L 581 0 
L 581 4863 
z
" transform="scale(0.015625)"/>
      </defs>
      <use xlink:href="#DejaVuSans-63"/>
      <use xlink:href="#DejaVuSans-6c" x="54.980469"/>
      <use xlink:href="#DejaVuSans-6b" x="82.763672"/>
     </g>
    </g>
   </g>
   <g id="text_2">
    <g clip-path="url(#p920f385522)">
     <!-- D -->
     <g style="fill: #0000ff" transform="translate(20.9634 52.956328)scale(0.105 -0.105)">
      <defs>
       <path id="DejaVuSans-44" d="M 1259 4147 
L 1259 519 
L 2022 519 
Q 2988 519 3436 956 
Q 3884 1394 3884 2338 
Q 3884 3275 3436 3711 
Q 2988 4147 2022 4147 
L 1259 4147 
z
M 628 4666 
L 1925 4666 
Q 3281 4666 3915 4102 
Q 4550 3538 4550 2338 
Q 4550 1131 3912 565 
Q 3275 0 1925 0 
L 628 0 
L 628 4666 
z
" transform="scale(0.015625)"/>
      </defs>
      <use xlink:href="#DejaVuSans-44"/>
     </g>
    </g>
   </g>
   <g id="text_3">
    <g clip-path="url(#p920f385522)">
     <!-- Q -->
     <g style="fill: #0000ff" transform="translate(20.782931 77.436328)scale(0.105 -0.105)">
      <defs>
       <path id="DejaVuSans-51" d="M 2522 4238 
Q 1834 4238 1429 3725 
Q 1025 3213 1025 2328 
Q 1025 1447 1429 934 
Q 1834 422 2522 422 
Q 3209 422 3611 934 
Q 4013 1447 4013 2328 
Q 4013 3213 3611 3725 
Q 3209 4238 2522 4238 
z
M 3406 84 
L 4238 -825 
L 3475 -825 
L 2784 -78 
Q 2681 -84 2626 -87 
Q 2572 -91 2522 -91 
Q 1538 -91 948 567 
Q 359 1225 359 2328 
Q 359 3434 948 4092 
Q 1538 4750 2522 4750 
Q 3503 4750 4090 4092 
Q 4678 3434 4678 2328 
Q 4678 1516 4351 937 
Q 4025 359 3406 84 
z
" transform="scale(0.015625)"/>
      </defs>
      <use xlink:href="#DejaVuSans-51"/>
     </g>
    </g>
   </g>
  </g>
 </g>
 <defs>
  <clipPath id="p920f385522">
   <rect x="7.2" y="7.2" width="257.4684" height="84.66"/>
  </clipPath>
  <clipPath id="p5de4037a5f">
   <rect x="35.1684" y="15.36" width="183.6" height="88.74"/>
  </clipPath>
 </defs>
</svg>
