<?xml version="1.0" encoding="utf-8" standalone="no"?>
<!DOCTYPE svg PUBLIC "-//W3C//DTD SVG 1.1//EN"
  "http://www.w3.org/Graphics/SVG/1.1/DTD/svg11.dtd">
<svg height="138.67pt" version="1.1" viewBox="0 0 202.2928 138.67" width="202.2928pt" xmlns="http://www.w3.org/2000/svg" xmlns:xlink="http://www.w3.org/1999/xlink">
 <metadata>
  <rdf:RDF xmlns:cc="http://creativecommons.org/ns#" xmlns:dc="http://purl.org/dc/elements/1.1/" xmlns:rdf="http://www.w3.org/1999/02/22-rdf-syntax-ns#">
   <cc:Work>
    <dc:type rdf:resource="http://purl.org/dc/dcmitype/StillImage"/>
    <dc:date>2021-10-20T16:00:22.028550</dc:date>
    <dc:format>image/svg+xml</dc:format>
    <dc:creator>
     <cc:Agent>
      <dc:title>Matplotlib v3.4.3, https://matplotlib.org/</dc:title>
     </cc:Agent>
    </dc:creator>
   </cc:Work>
  </rdf:RDF>
 </metadata>
 <defs>
  <style type="text/css">*{stroke-linecap:butt;stroke-linejoin:round;}</style>
 </defs>
 <g id="figure_1">
  <g id="patch_1">
   <path d="M 0 138.67 
L 202.2928 138.67 
L 202.2928 0 
L 0 0 
z
" style="fill:none;"/>
  </g>
  <g id="axes_1">
   <g id="patch_2">
    <path clip-path="url(#p94e1f4d75b)" d="M 53.2428 97.81 
C 57.300407 97.81 61.192372 96.197895 64.061534 93.328734 
C 66.930695 90.459572 68.5428 86.567607 68.5428 82.51 
C 68.5428 78.452393 66.930695 74.560428 64.061534 71.691266 
C 61.192372 68.822105 57.300407 67.21 53.2428 67.21 
C 49.185193 67.21 45.293228 68.822105 42.424066 71.691266 
C 39.554905 74.560428 37.9428 78.452393 37.9428 82.51 
C 37.9428 86.567607 39.554905 90.459572 42.424066 93.328734 
C 45.293228 96.197895 49.185193 97.81 53.2428 97.81 
z
" style="fill:none;stroke:#000000;stroke-linejoin:miter;stroke-width:2;"/>
   </g>
   <g id="line2d_1">
    <path clip-path="url(#p94e1f4d75b)" d="M 53.2428 128.41 
L 53.2428 97.81 
L 53.2428 97.81 
M 53.2428 67.21 
L 53.2428 67.21 
L 53.2428 36.61 
" style="fill:none;stroke:#000000;stroke-linecap:round;stroke-width:2;"/>
   </g>
   <g id="line2d_2">
    <path clip-path="url(#p94e1f4d75b)" d="M 56.3028 90.16 
L 50.1828 90.16 
" style="fill:none;stroke:#000000;stroke-linecap:round;stroke-width:2;"/>
   </g>
   <g id="line2d_3">
    <path clip-path="url(#p94e1f4d75b)" d="M 53.2428 77.92 
L 53.2428 71.8 
" style="fill:none;stroke:#000000;stroke-linecap:round;stroke-width:2;"/>
   </g>
   <g id="line2d_4">
    <path clip-path="url(#p94e1f4d75b)" d="M 56.3028 74.86 
L 50.1828 74.86 
" style="fill:none;stroke:#000000;stroke-linecap:round;stroke-width:2;"/>
   </g>
   <g id="line2d_5">
    <path clip-path="url(#p94e1f4d75b)" d="M 53.2428 36.61 
L 83.8428 36.61 
L 86.3928 28.96 
L 91.4928 44.26 
L 96.5928 28.96 
L 101.6928 44.26 
L 106.7928 28.96 
L 111.8928 44.26 
L 114.4428 36.61 
L 145.0428 36.61 
" style="fill:none;stroke:#000000;stroke-linecap:round;stroke-width:2;"/>
   </g>
   <g id="line2d_6">
    <path clip-path="url(#p94e1f4d75b)" d="M 145.0428 36.61 
L 145.0428 79.756 
M 152.6928 79.756 
L 137.3928 79.756 
M 152.6928 85.264 
L 137.3928 85.264 
M 145.0428 85.264 
L 145.0428 128.41 
" style="fill:none;stroke:#000000;stroke-linecap:round;stroke-width:2;"/>
   </g>
   <g id="line2d_7">
    <path clip-path="url(#p94e1f4d75b)" d="M 145.0428 128.41 
L 99.1428 128.41 
L 53.2428 128.41 
" style="fill:none;stroke:#000000;stroke-linecap:round;stroke-width:2;"/>
   </g>
   <g id="text_1">
    <!-- 10V -->
    <g transform="translate(7.490925 86.373125)scale(0.14 -0.14)">
     <defs>
      <path d="M 794 531 
L 1825 531 
L 1825 4091 
L 703 3866 
L 703 4441 
L 1819 4666 
L 2450 4666 
L 2450 531 
L 3481 531 
L 3481 0 
L 794 0 
L 794 531 
z
" id="DejaVuSans-31" transform="scale(0.015625)"/>
      <path d="M 2034 4250 
Q 1547 4250 1301 3770 
Q 1056 3291 1056 2328 
Q 1056 1369 1301 889 
Q 1547 409 2034 409 
Q 2525 409 2770 889 
Q 3016 1369 3016 2328 
Q 3016 3291 2770 3770 
Q 2525 4250 2034 4250 
z
M 2034 4750 
Q 2819 4750 3233 4129 
Q 3647 3509 3647 2328 
Q 3647 1150 3233 529 
Q 2819 -91 2034 -91 
Q 1250 -91 836 529 
Q 422 1150 422 2328 
Q 422 3509 836 4129 
Q 1250 4750 2034 4750 
z
" id="DejaVuSans-30" transform="scale(0.015625)"/>
      <path d="M 1831 0 
L 50 4666 
L 709 4666 
L 2188 738 
L 3669 4666 
L 4325 4666 
L 2547 0 
L 1831 0 
z
" id="DejaVuSans-56" transform="scale(0.015625)"/>
     </defs>
     <use xlink:href="#DejaVuSans-31"/>
     <use x="63.623047" xlink:href="#DejaVuSans-30"/>
     <use x="127.246094" xlink:href="#DejaVuSans-56"/>
    </g>
   </g>
   <g id="text_2">
    <!-- 100.0K$\Omega$ -->
    <g transform="translate(69.1128 22.988438)scale(0.14 -0.14)">
     <defs>
      <path d="M 684 794 
L 1344 794 
L 1344 0 
L 684 0 
L 684 794 
z
" id="DejaVuSans-2e" transform="scale(0.015625)"/>
      <path d="M 628 4666 
L 1259 4666 
L 1259 2694 
L 3353 4666 
L 4166 4666 
L 1850 2491 
L 4331 0 
L 3500 0 
L 1259 2247 
L 1259 0 
L 628 0 
L 628 4666 
z
" id="DejaVuSans-4b" transform="scale(0.015625)"/>
      <path d="M 4647 556 
L 4647 0 
L 2772 0 
L 2772 556 
Q 3325 859 3634 1378 
Q 3944 1897 3944 2528 
Q 3944 3278 3531 3731 
Q 3119 4184 2444 4184 
Q 1769 4184 1355 3729 
Q 941 3275 941 2528 
Q 941 1897 1250 1378 
Q 1563 859 2119 556 
L 2119 0 
L 244 0 
L 244 556 
L 1241 556 
Q 747 991 519 1456 
Q 294 1922 294 2497 
Q 294 3491 894 4106 
Q 1491 4722 2444 4722 
Q 3391 4722 3994 4106 
Q 4594 3494 4594 2528 
Q 4594 1922 4372 1459 
Q 4150 997 3647 556 
L 4647 556 
z
" id="DejaVuSans-3a9" transform="scale(0.015625)"/>
     </defs>
     <use transform="translate(0 0.78125)" xlink:href="#DejaVuSans-31"/>
     <use transform="translate(63.623047 0.78125)" xlink:href="#DejaVuSans-30"/>
     <use transform="translate(127.246094 0.78125)" xlink:href="#DejaVuSans-30"/>
     <use transform="translate(190.869141 0.78125)" xlink:href="#DejaVuSans-2e"/>
     <use transform="translate(222.65625 0.78125)" xlink:href="#DejaVuSans-30"/>
     <use transform="translate(286.279297 0.78125)" xlink:href="#DejaVuSans-4b"/>
     <use transform="translate(351.855469 0.78125)" xlink:href="#DejaVuSans-3a9"/>
    </g>
   </g>
   <g id="text_3">
    <!-- 0.1$\mu$F -->
    <g transform="translate(155.7528 86.344688)scale(0.14 -0.14)">
     <defs>
      <path d="M -84 -1331 
L 856 3500 
L 1434 3500 
L 1009 1322 
Q 997 1256 987 1175 
Q 978 1094 978 1013 
Q 978 722 1161 565 
Q 1344 409 1684 409 
Q 2147 409 2431 671 
Q 2716 934 2816 1459 
L 3213 3500 
L 3788 3500 
L 3266 809 
Q 3253 750 3248 706 
Q 3244 663 3244 628 
Q 3244 531 3283 486 
Q 3322 441 3406 441 
Q 3438 441 3492 456 
Q 3547 472 3647 513 
L 3559 50 
Q 3422 -19 3297 -55 
Q 3172 -91 3053 -91 
Q 2847 -91 2730 40 
Q 2613 172 2613 403 
Q 2438 153 2195 31 
Q 1953 -91 1625 -91 
Q 1334 -91 1117 43 
Q 900 178 831 397 
L 494 -1331 
L -84 -1331 
z
" id="DejaVuSans-Oblique-3bc" transform="scale(0.015625)"/>
      <path d="M 628 4666 
L 3309 4666 
L 3309 4134 
L 1259 4134 
L 1259 2759 
L 3109 2759 
L 3109 2228 
L 1259 2228 
L 1259 0 
L 628 0 
L 628 4666 
z
" id="DejaVuSans-46" transform="scale(0.015625)"/>
     </defs>
     <use transform="translate(0 0.78125)" xlink:href="#DejaVuSans-30"/>
     <use transform="translate(63.623047 0.78125)" xlink:href="#DejaVuSans-2e"/>
     <use transform="translate(95.410156 0.78125)" xlink:href="#DejaVuSans-31"/>
     <use transform="translate(159.033203 0.78125)" xlink:href="#DejaVuSans-Oblique-3bc"/>
     <use transform="translate(222.65625 0.78125)" xlink:href="#DejaVuSans-46"/>
    </g>
   </g>
  </g>
 </g>
 <defs>
  <clipPath id="p94e1f4d75b">
   <rect height="124.27" width="187.7208" x="7.2" y="7.2"/>
  </clipPath>
 </defs>
</svg>
