<?xml version="1.0" encoding="utf-8" standalone="no"?>
<!DOCTYPE svg PUBLIC "-//W3C//DTD SVG 1.1//EN"
  "http://www.w3.org/Graphics/SVG/1.1/DTD/svg11.dtd">
<svg xmlns:xlink="http://www.w3.org/1999/xlink" width="248.7348pt" height="136.375pt" viewBox="0 0 248.7348 136.375" xmlns="http://www.w3.org/2000/svg" version="1.1">
 <metadata>
  <rdf:RDF xmlns:dc="http://purl.org/dc/elements/1.1/" xmlns:cc="http://creativecommons.org/ns#" xmlns:rdf="http://www.w3.org/1999/02/22-rdf-syntax-ns#">
   <cc:Work>
    <dc:type rdf:resource="http://purl.org/dc/dcmitype/StillImage"/>
    <dc:date>2022-01-17T14:00:33.507158</dc:date>
    <dc:format>image/svg+xml</dc:format>
    <dc:creator>
     <cc:Agent>
      <dc:title>Matplotlib v3.5.1, https://matplotlib.org/</dc:title>
     </cc:Agent>
    </dc:creator>
   </cc:Work>
  </rdf:RDF>
 </metadata>
 <defs>
  <style type="text/css">*{stroke-linejoin: round; stroke-linecap: butt}</style>
 </defs>
 <g id="figure_1">
  <g id="patch_1">
   <path d="M 0 136.375 
L 248.7348 136.375 
L 248.7348 0 
L 0 0 
L 0 136.375 
z
" style="fill: none"/>
  </g>
  <g id="axes_1">
   <g id="patch_2">
    <path d="M 67.9818 30.932 
C 68.955626 30.932 69.889697 30.545095 70.578296 29.856496 
C 71.266895 29.167897 71.6538 28.233826 71.6538 27.26 
C 71.6538 26.286174 71.266895 25.352103 70.578296 24.663504 
C 69.889697 23.974905 68.955626 23.588 67.9818 23.588 
C 67.007974 23.588 66.073903 23.974905 65.385304 24.663504 
C 64.696705 25.352103 64.3098 26.286174 64.3098 27.26 
C 64.3098 28.233826 64.696705 29.167897 65.385304 29.856496 
C 66.073903 30.545095 67.007974 30.932 67.9818 30.932 
L 67.9818 30.932 
z
" clip-path="url(#p5899b7f1cf)" style="fill: none; stroke: #000000; stroke-width: 2; stroke-linejoin: miter"/>
   </g>
   <g id="patch_3">
    <path d="M 142.7988 111.257 
C 143.772626 111.257 144.706697 110.870095 145.395296 110.181496 
C 146.083895 109.492897 146.4708 108.558826 146.4708 107.585 
C 146.4708 106.611174 146.083895 105.677103 145.395296 104.988504 
C 144.706697 104.299905 143.772626 103.913 142.7988 103.913 
C 141.824974 103.913 140.890903 104.299905 140.202304 104.988504 
C 139.513705 105.677103 139.1268 106.611174 139.1268 107.585 
C 139.1268 108.558826 139.513705 109.492897 140.202304 110.181496 
C 140.890903 110.870095 141.824974 111.257 142.7988 111.257 
L 142.7988 111.257 
z
" clip-path="url(#p5899b7f1cf)" style="fill: none; stroke: #000000; stroke-width: 2; stroke-linejoin: miter"/>
   </g>
   <g id="line2d_1">
    <path d="M 185.0268 94.1975 
L 186.007074 94.166065 
L 186.983321 94.071887 
L 187.951527 93.915355 
L 188.907715 93.697111 
L 189.847956 93.418053 
L 190.768385 93.079326 
L 191.665221 92.682324 
L 192.534779 92.228676 
L 193.373484 91.720248 
L 194.177891 91.159128 
L 194.944694 90.547623 
L 195.670743 89.888245 
L 196.353053 89.183704 
L 196.988822 88.436894 
L 197.575435 87.650885 
L 198.110484 86.828906 
L 198.591769 85.974336 
L 199.017313 85.090685 
L 199.385367 84.181585 
L 199.694418 83.250772 
L 199.943197 82.30207 
L 200.130681 81.339378 
L 200.2561 80.366652 
L 200.318939 79.387889 
L 200.318939 78.407111 
L 200.2561 77.428348 
L 200.130681 76.455622 
L 199.943197 75.49293 
L 199.694418 74.544228 
L 199.385367 73.613415 
L 199.017313 72.704315 
L 198.591769 71.820664 
L 198.110484 70.966094 
L 197.575435 70.144115 
L 196.988822 69.358106 
L 196.353053 68.611296 
L 195.670743 67.906755 
L 194.944694 67.247377 
L 194.177891 66.635872 
L 193.373484 66.074752 
L 192.534779 65.566324 
L 191.665221 65.112676 
L 190.768385 64.715674 
L 189.847956 64.376947 
L 188.907715 64.097889 
L 187.951527 63.879645 
L 186.983321 63.723113 
L 186.007074 63.628935 
L 185.0268 63.5975 
L 185.0268 63.5975 
L 165.1368 63.5975 
L 165.1368 78.8975 
L 165.1368 94.1975 
L 185.0268 94.1975 
" clip-path="url(#p5899b7f1cf)" style="fill: none; stroke: #000000; stroke-width: 2; stroke-linecap: round"/>
   </g>
   <g id="line2d_2">
    <path d="M 154.4268 86.5475 
L 165.1368 86.5475 
" clip-path="url(#p5899b7f1cf)" style="fill: none; stroke: #000000; stroke-width: 2; stroke-linecap: round"/>
   </g>
   <g id="line2d_3">
    <path d="M 154.4268 71.2475 
L 165.1368 71.2475 
" clip-path="url(#p5899b7f1cf)" style="fill: none; stroke: #000000; stroke-width: 2; stroke-linecap: round"/>
   </g>
   <g id="line2d_4">
    <path d="M 200.3268 78.8975 
L 211.0368 78.8975 
" clip-path="url(#p5899b7f1cf)" style="fill: none; stroke: #000000; stroke-width: 2; stroke-linecap: round"/>
   </g>
   <g id="line2d_5">
    <path d="M 123.8268 65.51 
L 124.807074 65.478565 
L 125.783321 65.384387 
L 126.751527 65.227855 
L 127.707715 65.009611 
L 128.647956 64.730553 
L 129.568385 64.391826 
L 130.465221 63.994824 
L 131.334779 63.541176 
L 132.173484 63.032748 
L 132.977891 62.471628 
L 133.744694 61.860123 
L 134.470743 61.200745 
L 135.153053 60.496204 
L 135.788822 59.749394 
L 136.375435 58.963385 
L 136.910484 58.141406 
L 137.391769 57.286836 
L 137.817313 56.403185 
L 138.185367 55.494085 
L 138.494418 54.563272 
L 138.743197 53.61457 
L 138.930681 52.651878 
L 139.0561 51.679152 
L 139.118939 50.700389 
L 139.118939 49.719611 
L 139.0561 48.740848 
L 138.930681 47.768122 
L 138.743197 46.80543 
L 138.494418 45.856728 
L 138.185367 44.925915 
L 137.817313 44.016815 
L 137.391769 43.133164 
L 136.910484 42.278594 
L 136.375435 41.456615 
L 135.788822 40.670606 
L 135.153053 39.923796 
L 134.470743 39.219255 
L 133.744694 38.559877 
L 132.977891 37.948372 
L 132.173484 37.387252 
L 131.334779 36.878824 
L 130.465221 36.425176 
L 129.568385 36.028174 
L 128.647956 35.689447 
L 127.707715 35.410389 
L 126.751527 35.192145 
L 125.783321 35.035613 
L 124.807074 34.941435 
L 123.8268 34.91 
L 123.8268 34.91 
L 103.9368 34.91 
L 103.9368 50.21 
L 103.9368 65.51 
L 123.8268 65.51 
" clip-path="url(#p5899b7f1cf)" style="fill: none; stroke: #000000; stroke-width: 2; stroke-linecap: round"/>
   </g>
   <g id="line2d_6">
    <path d="M 93.2268 60.308 
L 103.9368 60.308 
" clip-path="url(#p5899b7f1cf)" style="fill: none; stroke: #000000; stroke-width: 2; stroke-linecap: round"/>
   </g>
   <g id="line2d_7">
    <path d="M 93.2268 50.21 
L 103.9368 50.21 
" clip-path="url(#p5899b7f1cf)" style="fill: none; stroke: #000000; stroke-width: 2; stroke-linecap: round"/>
   </g>
   <g id="line2d_8">
    <path d="M 93.2268 40.112 
L 103.9368 40.112 
" clip-path="url(#p5899b7f1cf)" style="fill: none; stroke: #000000; stroke-width: 2; stroke-linecap: round"/>
   </g>
   <g id="line2d_9">
    <path d="M 139.1268 50.21 
L 149.8368 50.21 
" clip-path="url(#p5899b7f1cf)" style="fill: none; stroke: #000000; stroke-width: 2; stroke-linecap: round"/>
   </g>
   <g id="line2d_10">
    <path d="M 27.4368 27.26 
L 44.4198 27.26 
M 71.6538 27.26 
L 88.6368 27.26 
" clip-path="url(#p5899b7f1cf)" style="fill: none; stroke: #000000; stroke-width: 2; stroke-linecap: round"/>
   </g>
   <g id="line2d_11">
    <path d="M 44.4198 11.96 
L 64.3098 27.26 
L 44.4198 42.56 
L 44.4198 11.96 
" clip-path="url(#p5899b7f1cf)" style="fill: none; stroke: #000000; stroke-width: 2; stroke-linecap: round"/>
   </g>
   <g id="line2d_12">
    <path d="M 93.2268 40.112 
L 88.6368 40.112 
L 88.6368 27.26 
" clip-path="url(#p5899b7f1cf)" style="fill: none; stroke: #000000; stroke-width: 2; stroke-linecap: round"/>
   </g>
   <g id="line2d_13">
    <path d="M 154.4268 71.2475 
L 149.8368 71.2475 
L 149.8368 50.21 
" clip-path="url(#p5899b7f1cf)" style="fill: none; stroke: #000000; stroke-width: 2; stroke-linecap: round"/>
   </g>
   <g id="line2d_14">
    <path d="M 102.4068 122.579 
L 119.455371 122.479082 
L 121.203943 122.179327 
L 122.952514 121.679735 
L 124.701086 120.980306 
L 126.449657 120.081041 
L 128.635371 118.675939 
L 130.821086 116.958592 
L 133.0068 114.929 
L 135.192514 112.587163 
L 137.378229 109.933082 
L 139.1268 107.585 
L 139.1268 107.585 
L 136.503943 104.137816 
L 134.318229 101.608633 
L 132.132514 99.391694 
L 129.9468 97.487 
L 127.761086 95.894551 
L 125.575371 94.614347 
L 123.8268 93.815 
L 122.078229 93.21549 
L 120.329657 92.815816 
L 118.581086 92.61598 
L 117.7068 92.591 
L 102.4068 92.591 
L 102.4068 92.591 
L 104.61 95.039 
L 106.00536 96.875 
L 107.1804 98.711 
L 108.13512 100.547 
L 108.86952 102.383 
L 109.3836 104.219 
L 109.67736 106.055 
L 109.7508 107.891 
L 109.60392 109.727 
L 109.23672 111.563 
L 108.6492 113.399 
L 107.84136 115.235 
L 106.8132 117.071 
L 105.56472 118.907 
L 104.09592 120.743 
L 102.4068 122.579 
L 102.4068 122.579 
" clip-path="url(#p5899b7f1cf)" style="fill: none; stroke: #000000; stroke-width: 2; stroke-linecap: round"/>
   </g>
   <g id="line2d_15">
    <path d="M 91.6968 115.235 
L 107.84136 115.235 
" clip-path="url(#p5899b7f1cf)" style="fill: none; stroke: #000000; stroke-width: 2; stroke-linecap: round"/>
   </g>
   <g id="line2d_16">
    <path d="M 91.6968 99.935 
L 107.84136 99.935 
" clip-path="url(#p5899b7f1cf)" style="fill: none; stroke: #000000; stroke-width: 2; stroke-linecap: round"/>
   </g>
   <g id="line2d_17">
    <path d="M 146.4708 107.585 
L 149.8368 107.585 
" clip-path="url(#p5899b7f1cf)" style="fill: none; stroke: #000000; stroke-width: 2; stroke-linecap: round"/>
   </g>
   <g id="line2d_18">
    <path d="M 154.4268 86.5475 
L 149.8368 86.5475 
L 149.8368 107.585 
" clip-path="url(#p5899b7f1cf)" style="fill: none; stroke: #000000; stroke-width: 2; stroke-linecap: round"/>
   </g>
   <g id="text_1">
    <g clip-path="url(#p5899b7f1cf)">
     <!-- $F_1$ -->
     <g transform="translate(214.0968 82.346719)scale(0.125 -0.125)">
      <defs>
       <path id="DejaVuSans-Oblique-46" d="M 1081 4666 
L 3756 4666 
L 3653 4134 
L 1606 4134 
L 1338 2759 
L 3188 2759 
L 3084 2228 
L 1234 2228 
L 800 0 
L 172 0 
L 1081 4666 
z
" transform="scale(0.015625)"/>
       <path id="DejaVuSans-31" d="M 794 531 
L 1825 531 
L 1825 4091 
L 703 3866 
L 703 4441 
L 1819 4666 
L 2450 4666 
L 2450 531 
L 3481 531 
L 3481 0 
L 794 0 
L 794 531 
z
" transform="scale(0.015625)"/>
      </defs>
      <use xlink:href="#DejaVuSans-Oblique-46" transform="translate(0 0.09375)"/>
      <use xlink:href="#DejaVuSans-31" transform="translate(57.519531 -16.3125)scale(0.7)"/>
     </g>
    </g>
   </g>
   <g id="text_2">
    <g clip-path="url(#p5899b7f1cf)">
     <!-- B -->
     <g transform="translate(81.590628 53.659219)scale(0.125 -0.125)">
      <defs>
       <path id="DejaVuSans-42" d="M 1259 2228 
L 1259 519 
L 2272 519 
Q 2781 519 3026 730 
Q 3272 941 3272 1375 
Q 3272 1813 3026 2020 
Q 2781 2228 2272 2228 
L 1259 2228 
z
M 1259 4147 
L 1259 2741 
L 2194 2741 
Q 2656 2741 2882 2914 
Q 3109 3088 3109 3444 
Q 3109 3797 2882 3972 
Q 2656 4147 2194 4147 
L 1259 4147 
z
M 628 4666 
L 2241 4666 
Q 2963 4666 3353 4366 
Q 3744 4066 3744 3513 
Q 3744 3084 3544 2831 
Q 3344 2578 2956 2516 
Q 3422 2416 3680 2098 
Q 3938 1781 3938 1306 
Q 3938 681 3513 340 
Q 3088 0 2303 0 
L 628 0 
L 628 4666 
z
" transform="scale(0.015625)"/>
      </defs>
      <use xlink:href="#DejaVuSans-42"/>
     </g>
    </g>
   </g>
   <g id="text_3">
    <g clip-path="url(#p5899b7f1cf)">
     <!-- C -->
     <g transform="translate(81.438284 63.757219)scale(0.125 -0.125)">
      <defs>
       <path id="DejaVuSans-43" d="M 4122 4306 
L 4122 3641 
Q 3803 3938 3442 4084 
Q 3081 4231 2675 4231 
Q 1875 4231 1450 3742 
Q 1025 3253 1025 2328 
Q 1025 1406 1450 917 
Q 1875 428 2675 428 
Q 3081 428 3442 575 
Q 3803 722 4122 1019 
L 4122 359 
Q 3791 134 3420 21 
Q 3050 -91 2638 -91 
Q 1578 -91 968 557 
Q 359 1206 359 2328 
Q 359 3453 968 4101 
Q 1578 4750 2638 4750 
Q 3056 4750 3426 4639 
Q 3797 4528 4122 4306 
z
" transform="scale(0.015625)"/>
      </defs>
      <use xlink:href="#DejaVuSans-43"/>
     </g>
    </g>
   </g>
   <g id="text_4">
    <g clip-path="url(#p5899b7f1cf)">
     <!-- A -->
     <g transform="translate(15.826019 30.709219)scale(0.125 -0.125)">
      <defs>
       <path id="DejaVuSans-41" d="M 2188 4044 
L 1331 1722 
L 3047 1722 
L 2188 4044 
z
M 1831 4666 
L 2547 4666 
L 4325 0 
L 3669 0 
L 3244 1197 
L 1141 1197 
L 716 0 
L 50 0 
L 1831 4666 
z
" transform="scale(0.015625)"/>
      </defs>
      <use xlink:href="#DejaVuSans-41"/>
     </g>
    </g>
   </g>
   <g id="text_5">
    <g clip-path="url(#p5899b7f1cf)">
     <!-- A -->
     <g transform="translate(80.086019 103.384219)scale(0.125 -0.125)">
      <use xlink:href="#DejaVuSans-41"/>
     </g>
    </g>
   </g>
   <g id="text_6">
    <g clip-path="url(#p5899b7f1cf)">
     <!-- D -->
     <g transform="translate(79.0118 118.684219)scale(0.125 -0.125)">
      <defs>
       <path id="DejaVuSans-44" d="M 1259 4147 
L 1259 519 
L 2022 519 
Q 2988 519 3436 956 
Q 3884 1394 3884 2338 
Q 3884 3275 3436 3711 
Q 2988 4147 2022 4147 
L 1259 4147 
z
M 628 4666 
L 1925 4666 
Q 3281 4666 3915 4102 
Q 4550 3538 4550 2338 
Q 4550 1131 3912 565 
Q 3275 0 1925 0 
L 628 0 
L 628 4666 
z
" transform="scale(0.015625)"/>
      </defs>
      <use xlink:href="#DejaVuSans-44"/>
     </g>
    </g>
   </g>
  </g>
 </g>
 <defs>
  <clipPath id="p5899b7f1cf">
   <rect x="7.2" y="7.2" width="234.3348" height="121.975"/>
  </clipPath>
 </defs>
</svg>
