<?xml version="1.0" encoding="UTF-8" standalone="no"?>
<!-- Created with Digital by H.Neemann -->
<!-- created: Tue Jan 18 10:12:38 EST 2022 -->

<svg
   xmlns:svg="http://www.w3.org/2000/svg"
   xmlns="http://www.w3.org/2000/svg"
   width="83.85mm"
   height="56.1mm"
   viewBox="-177 -162 559 374">
<g stroke-linecap="square">
<path d="M -160,-80 L -160,0 L 20,0 L 24,0" stroke="#0000b2" stroke-width="4.0" fill="none"/>
<path d="M -140,-20 L -140,80 L 20,80 L 24,80" stroke="#0000b2" stroke-width="4.0" fill="none"/>
<path d="M -80,40 L -80,160 L 20,160 L 24,160" stroke="#0000b2" stroke-width="4.0" fill="none"/>
<path d="M -100,-80 L -100,100 L 20,100 L 27,100" stroke="#0000b2" stroke-width="4.0" fill="none"/>
<path d="M 300,100 L 320,100" stroke="#0000b2" stroke-width="4.0" fill="none"/>
<path d="M 120,100 L 180,100" stroke="#0000b2" stroke-width="4.0" fill="none"/>
<path d="M 120,180 L 140,180 L 140,120 L 180,120" stroke="#0000b2" stroke-width="4.0" fill="none"/>
<path d="M 120,20 L 140,20 L 140,80 L 180,80" stroke="#0000b2" stroke-width="4.0" fill="none"/>
<path d="M -80,-20 L -80,40 L 20,40 L 24,40" stroke="#0000b2" stroke-width="4.0" fill="none"/>
<path d="M -40,-80 L -40,120 L 20,120 L 24,120" stroke="#0000b2" stroke-width="4.0" fill="none"/>
<path d="M -20,-20 L -20,200 L 20,200 L 24,200" stroke="#0000b2" stroke-width="4.0" fill="none"/>
<path d="M -160,-100 L -160,-80 L -140,-80 L -140,-60" stroke="#0000b2" stroke-width="4.0" fill="none"/>
<path d="M -100,-100 L -100,-80 L -80,-80 L -80,-60" stroke="#0000b2" stroke-width="4.0" fill="none"/>
<path d="M -40,-100 L -40,-80 L -20,-80 L -20,-60" stroke="#0000b2" stroke-width="4.0" fill="none"/>
<g>
<circle cx="-80.0" cy="40.0" r="4.0" stroke="#0000b2" stroke-width="4.0" fill="#0000b2" />
<circle cx="-160.0" cy="-80.0" r="4.0" stroke="#0000b2" stroke-width="4.0" fill="#0000b2" />
<circle cx="-100.0" cy="-80.0" r="4.0" stroke="#0000b2" stroke-width="4.0" fill="#0000b2" />
<circle cx="-40.0" cy="-80.0" r="4.0" stroke="#0000b2" stroke-width="4.0" fill="#0000b2" />
</g>
<g>
<circle cx="336.0" cy="100.0" r="9.0" stroke="#000000" stroke-width="4.0" fill="none" />
<circle cx="336.0" cy="100.0" r="15.0" stroke="#000000" stroke-width="4.0" fill="none" />
<text text-anchor="start" x="365.0" y="109.0" fill="#000000" style="font-size:24px"><tspan style="font-style:italic;">Y</tspan></text>
<circle cx="320.0" cy="100.0" r="2.0" stroke="#0000b2" stroke-width="4.0" fill="#0000b2" />
</g>
<g>
<path d="M -145,-131 L -145,-101 L -175,-101 L -175,-131 Z" stroke="#000000" stroke-width="4.0" fill="none"/>
<circle cx="-160.0" cy="-116.0" r="9.0" stroke="#000000" stroke-width="4.0" fill="none" />
<text text-anchor="start" x="-160.0" y="-136.0" fill="#000000" style="font-size:24px" transform="rotate(-90,-160.0,-145.0)" ><tspan style="font-style:italic;">a</tspan></text>
<circle cx="-160.0" cy="-100.0" r="2.0" stroke="#b20000" stroke-width="4.0" fill="#b20000" />
</g>
<g>
<path d="M -128,-59 L -140,-41 L -152,-59 Z" stroke="#000000" stroke-width="4.0" fill="none"/>
<circle cx="-140.0" cy="-30.0" r="9.0" stroke="#000000" stroke-width="4.0" fill="none" />
<circle cx="-140.0" cy="-60.0" r="2.0" stroke="#0000b2" stroke-width="4.0" fill="#0000b2" />
<circle cx="-140.0" cy="-20.0" r="2.0" stroke="#b20000" stroke-width="4.0" fill="#b20000" />
</g>
<g>
<path d="M -85,-131 L -85,-101 L -115,-101 L -115,-131 Z" stroke="#000000" stroke-width="4.0" fill="none"/>
<circle cx="-100.0" cy="-116.0" r="9.0" stroke="#000000" stroke-width="4.0" fill="none" />
<text text-anchor="start" x="-100.0" y="-136.0" fill="#000000" style="font-size:24px" transform="rotate(-90,-100.0,-145.0)" ><tspan style="font-style:italic;">b</tspan></text>
<circle cx="-100.0" cy="-100.0" r="2.0" stroke="#b20000" stroke-width="4.0" fill="#b20000" />
</g>
<g>
<path d="M -68,-59 L -80,-41 L -92,-59 Z" stroke="#000000" stroke-width="4.0" fill="none"/>
<circle cx="-80.0" cy="-30.0" r="9.0" stroke="#000000" stroke-width="4.0" fill="none" />
<circle cx="-80.0" cy="-60.0" r="2.0" stroke="#0000b2" stroke-width="4.0" fill="#0000b2" />
<circle cx="-80.0" cy="-20.0" r="2.0" stroke="#b20000" stroke-width="4.0" fill="#b20000" />
</g>
<g>
<path d="M -25,-131 L -25,-101 L -55,-101 L -55,-131 Z" stroke="#000000" stroke-width="4.0" fill="none"/>
<circle cx="-40.0" cy="-116.0" r="9.0" stroke="#000000" stroke-width="4.0" fill="none" />
<text text-anchor="start" x="-40.0" y="-136.0" fill="#000000" style="font-size:24px" transform="rotate(-90,-40.0,-145.0)" ><tspan style="font-style:italic;">c</tspan></text>
<circle cx="-40.0" cy="-100.0" r="2.0" stroke="#b20000" stroke-width="4.0" fill="#b20000" />
</g>
<g>
<path d="M -8,-59 L -20,-41 L -32,-59 Z" stroke="#000000" stroke-width="4.0" fill="none"/>
<circle cx="-20.0" cy="-30.0" r="9.0" stroke="#000000" stroke-width="4.0" fill="none" />
<circle cx="-20.0" cy="-60.0" r="2.0" stroke="#0000b2" stroke-width="4.0" fill="#0000b2" />
<circle cx="-20.0" cy="-20.0" r="2.0" stroke="#b20000" stroke-width="4.0" fill="#b20000" />
</g>
<g>
<path d="M 250,130 L 201,130 L 201,70 L 250,70 C 260,70 280,80 279,100 C 279,120 260,130 250,130 Z" stroke="#000000" stroke-width="4.0" fill="none"/>
<circle cx="190.0" cy="80.0" r="8.0" stroke="#000000" stroke-width="4.0" fill="none" />
<circle cx="190.0" cy="100.0" r="8.0" stroke="#000000" stroke-width="4.0" fill="none" />
<circle cx="190.0" cy="120.0" r="8.0" stroke="#000000" stroke-width="4.0" fill="none" />
<circle cx="290.0" cy="100.0" r="9.0" stroke="#000000" stroke-width="4.0" fill="none" />
<circle cx="180.0" cy="80.0" r="2.0" stroke="#0000b2" stroke-width="4.0" fill="#0000b2" />
<circle cx="180.0" cy="100.0" r="2.0" stroke="#0000b2" stroke-width="4.0" fill="#0000b2" />
<circle cx="180.0" cy="120.0" r="2.0" stroke="#0000b2" stroke-width="4.0" fill="#0000b2" />
<circle cx="300.0" cy="100.0" r="2.0" stroke="#b20000" stroke-width="4.0" fill="#b20000" />
</g>
<g>
<path d="M 50,50 L 20,50 C 30,34 30,6 20,-10 L 40,-10 C 70,-10 90,0 100,20 C 90,40 70,50 50,50 Z" stroke="#000000" stroke-width="4.0" fill="none"/>
<circle cx="110.0" cy="20.0" r="9.0" stroke="#000000" stroke-width="4.0" fill="none" />
<circle cx="20.0" cy="0.0" r="2.0" stroke="#0000b2" stroke-width="4.0" fill="#0000b2" />
<circle cx="20.0" cy="40.0" r="2.0" stroke="#0000b2" stroke-width="4.0" fill="#0000b2" />
<circle cx="120.0" cy="20.0" r="2.0" stroke="#b20000" stroke-width="4.0" fill="#b20000" />
</g>
<g>
<path d="M 50,210 L 20,210 C 30,194 30,166 20,150 L 40,150 C 70,150 90,160 100,180 C 90,200 70,210 50,210 Z" stroke="#000000" stroke-width="4.0" fill="none"/>
<circle cx="110.0" cy="180.0" r="9.0" stroke="#000000" stroke-width="4.0" fill="none" />
<circle cx="20.0" cy="160.0" r="2.0" stroke="#0000b2" stroke-width="4.0" fill="#0000b2" />
<circle cx="20.0" cy="200.0" r="2.0" stroke="#0000b2" stroke-width="4.0" fill="#0000b2" />
<circle cx="120.0" cy="180.0" r="2.0" stroke="#b20000" stroke-width="4.0" fill="#b20000" />
</g>
<g>
<path d="M 50,130 L 20,130 C 30,114 30,86 20,70 L 40,70 C 70,70 90,80 100,100 C 90,120 70,130 50,130 Z" stroke="#000000" stroke-width="4.0" fill="none"/>
<circle cx="110.0" cy="100.0" r="9.0" stroke="#000000" stroke-width="4.0" fill="none" />
<circle cx="20.0" cy="80.0" r="2.0" stroke="#0000b2" stroke-width="4.0" fill="#0000b2" />
<circle cx="20.0" cy="100.0" r="2.0" stroke="#0000b2" stroke-width="4.0" fill="#0000b2" />
<circle cx="20.0" cy="120.0" r="2.0" stroke="#0000b2" stroke-width="4.0" fill="#0000b2" />
<circle cx="120.0" cy="100.0" r="2.0" stroke="#b20000" stroke-width="4.0" fill="#b20000" />
</g>
</g>
</svg>