<?xml version="1.0" encoding="utf-8" standalone="no"?>
<!DOCTYPE svg PUBLIC "-//W3C//DTD SVG 1.1//EN"
  "http://www.w3.org/Graphics/SVG/1.1/DTD/svg11.dtd">
<svg xmlns:xlink="http://www.w3.org/1999/xlink" width="154.3236pt" height="106.37pt" viewBox="0 0 154.3236 106.37" xmlns="http://www.w3.org/2000/svg" version="1.1">
 <metadata>
  <rdf:RDF xmlns:dc="http://purl.org/dc/elements/1.1/" xmlns:cc="http://creativecommons.org/ns#" xmlns:rdf="http://www.w3.org/1999/02/22-rdf-syntax-ns#">
   <cc:Work>
    <dc:type rdf:resource="http://purl.org/dc/dcmitype/StillImage"/>
    <dc:date>2022-01-24T09:46:54.729818</dc:date>
    <dc:format>image/svg+xml</dc:format>
    <dc:creator>
     <cc:Agent>
      <dc:title>Matplotlib v3.5.1, https://matplotlib.org/</dc:title>
     </cc:Agent>
    </dc:creator>
   </cc:Work>
  </rdf:RDF>
 </metadata>
 <defs>
  <style type="text/css">*{stroke-linejoin: round; stroke-linecap: butt}</style>
 </defs>
 <g id="figure_1">
  <g id="patch_1">
   <path d="M 0 106.37 
L 154.3236 106.37 
L 154.3236 0 
L 0 0 
L 0 106.37 
z
" style="fill: none"/>
  </g>
  <g id="axes_1">
   <g id="line2d_1">
    <path d="M 73.3368 49.904 
L 90.385371 49.804082 
L 92.133943 49.504327 
L 93.882514 49.004735 
L 95.631086 48.305306 
L 97.379657 47.406041 
L 99.565371 46.000939 
L 101.751086 44.283592 
L 103.9368 42.254 
L 106.122514 39.912163 
L 108.308229 37.258082 
L 110.0568 34.91 
L 110.0568 34.91 
L 107.433943 31.462816 
L 105.248229 28.933633 
L 103.062514 26.716694 
L 100.8768 24.812 
L 98.691086 23.219551 
L 96.505371 21.939347 
L 94.7568 21.14 
L 93.008229 20.54049 
L 91.259657 20.140816 
L 89.511086 19.94098 
L 88.6368 19.916 
L 73.3368 19.916 
L 73.3368 19.916 
L 75.54 22.364 
L 76.93536 24.2 
L 78.1104 26.036 
L 79.06512 27.872 
L 79.79952 29.708 
L 80.3136 31.544 
L 80.60736 33.38 
L 80.6808 35.216 
L 80.53392 37.052 
L 80.16672 38.888 
L 79.5792 40.724 
L 78.77136 42.56 
L 77.7432 44.396 
L 76.49472 46.232 
L 75.02592 48.068 
L 73.3368 49.904 
L 73.3368 49.904 
" clip-path="url(#pc78adced7f)" style="fill: none; stroke: #000000; stroke-width: 2; stroke-linecap: round"/>
   </g>
   <g id="line2d_2">
    <path d="M 68.7468 49.904 
L 69.33432 49.292 
L 69.89736 48.68 
L 70.43592 48.068 
L 70.95 47.456 
L 71.4396 46.844 
L 71.90472 46.232 
L 72.34536 45.62 
L 72.76152 45.008 
L 73.1532 44.396 
L 73.5204 43.784 
L 73.86312 43.172 
L 74.18136 42.56 
L 74.47512 41.948 
L 74.7444 41.336 
L 74.9892 40.724 
L 75.20952 40.112 
L 75.40536 39.5 
L 75.57672 38.888 
L 75.7236 38.276 
L 75.846 37.664 
L 75.94392 37.052 
L 76.01736 36.44 
L 76.06632 35.828 
L 76.0908 35.216 
L 76.0908 34.604 
L 76.06632 33.992 
L 76.01736 33.38 
L 75.94392 32.768 
L 75.846 32.156 
L 75.7236 31.544 
L 75.57672 30.932 
L 75.40536 30.32 
L 75.20952 29.708 
L 74.9892 29.096 
L 74.7444 28.484 
L 74.47512 27.872 
L 74.18136 27.26 
L 73.86312 26.648 
L 73.5204 26.036 
L 73.1532 25.424 
L 72.76152 24.812 
L 72.34536 24.2 
L 71.90472 23.588 
L 71.4396 22.976 
L 70.95 22.364 
L 70.43592 21.752 
L 69.89736 21.14 
L 69.33432 20.528 
L 68.7468 19.916 
" clip-path="url(#pc78adced7f)" style="fill: none; stroke: #000000; stroke-width: 2; stroke-linecap: round"/>
   </g>
   <g id="line2d_3">
    <path d="M 58.0368 42.56 
L 74.18136 42.56 
" clip-path="url(#pc78adced7f)" style="fill: none; stroke: #000000; stroke-width: 2; stroke-linecap: round"/>
   </g>
   <g id="line2d_4">
    <path d="M 58.0368 27.26 
L 74.18136 27.26 
" clip-path="url(#pc78adced7f)" style="fill: none; stroke: #000000; stroke-width: 2; stroke-linecap: round"/>
   </g>
   <g id="line2d_5">
    <path d="M 110.0568 34.91 
L 120.7668 34.91 
" clip-path="url(#pc78adced7f)" style="fill: none; stroke: #000000; stroke-width: 2; stroke-linecap: round"/>
   </g>
   <g id="line2d_6">
    <path d="M 58.0368 27.26 
L 42.7368 27.26 
L 27.4368 27.26 
" clip-path="url(#pc78adced7f)" style="fill: none; stroke: #000000; stroke-width: 2; stroke-linecap: round"/>
   </g>
   <g id="line2d_7">
    <path d="M 58.0368 42.56 
L 50.3868 42.56 
L 42.7368 42.56 
" clip-path="url(#pc78adced7f)" style="fill: none; stroke: #000000; stroke-width: 2; stroke-linecap: round"/>
   </g>
   <g id="line2d_8">
    <path d="M 42.7368 42.56 
L 35.0868 42.56 
L 27.4368 42.56 
" clip-path="url(#pc78adced7f)" style="fill: none; stroke: #000000; stroke-width: 2; stroke-linecap: round"/>
   </g>
   <g id="line2d_9">
    <path d="M 58.0368 27.26 
L 58.0368 50.21 
L 58.0368 73.16 
" clip-path="url(#pc78adced7f)" style="fill: none; stroke: #000000; stroke-width: 2; stroke-linecap: round"/>
   </g>
   <g id="line2d_10">
    <path d="M 88.6368 96.11 
L 89.617074 96.078565 
L 90.593321 95.984387 
L 91.561527 95.827855 
L 92.517715 95.609611 
L 93.457956 95.330553 
L 94.378385 94.991826 
L 95.275221 94.594824 
L 96.144779 94.141176 
L 96.983484 93.632748 
L 97.787891 93.071628 
L 98.554694 92.460123 
L 99.280743 91.800745 
L 99.963053 91.096204 
L 100.598822 90.349394 
L 101.185435 89.563385 
L 101.720484 88.741406 
L 102.201769 87.886836 
L 102.627313 87.003185 
L 102.995367 86.094085 
L 103.304418 85.163272 
L 103.553197 84.21457 
L 103.740681 83.251878 
L 103.8661 82.279152 
L 103.928939 81.300389 
L 103.928939 80.319611 
L 103.8661 79.340848 
L 103.740681 78.368122 
L 103.553197 77.40543 
L 103.304418 76.456728 
L 102.995367 75.525915 
L 102.627313 74.616815 
L 102.201769 73.733164 
L 101.720484 72.878594 
L 101.185435 72.056615 
L 100.598822 71.270606 
L 99.963053 70.523796 
L 99.280743 69.819255 
L 98.554694 69.159877 
L 97.787891 68.548372 
L 96.983484 67.987252 
L 96.144779 67.478824 
L 95.275221 67.025176 
L 94.378385 66.628174 
L 93.457956 66.289447 
L 92.517715 66.010389 
L 91.561527 65.792145 
L 90.593321 65.635613 
L 89.617074 65.541435 
L 88.6368 65.51 
L 88.6368 65.51 
L 68.7468 65.51 
L 68.7468 80.81 
L 68.7468 96.11 
L 88.6368 96.11 
" clip-path="url(#pc78adced7f)" style="fill: none; stroke: #000000; stroke-width: 2; stroke-linecap: round"/>
   </g>
   <g id="line2d_11">
    <path d="M 58.0368 88.46 
L 68.7468 88.46 
" clip-path="url(#pc78adced7f)" style="fill: none; stroke: #000000; stroke-width: 2; stroke-linecap: round"/>
   </g>
   <g id="line2d_12">
    <path d="M 58.0368 73.16 
L 68.7468 73.16 
" clip-path="url(#pc78adced7f)" style="fill: none; stroke: #000000; stroke-width: 2; stroke-linecap: round"/>
   </g>
   <g id="line2d_13">
    <path d="M 103.9368 80.81 
L 114.6468 80.81 
" clip-path="url(#pc78adced7f)" style="fill: none; stroke: #000000; stroke-width: 2; stroke-linecap: round"/>
   </g>
   <g id="line2d_14">
    <path d="M 42.7368 42.56 
L 42.7368 65.51 
L 42.7368 88.46 
" clip-path="url(#pc78adced7f)" style="fill: none; stroke: #000000; stroke-width: 2; stroke-linecap: round"/>
   </g>
   <g id="line2d_15">
    <path d="M 42.7368 88.46 
L 50.3868 88.46 
L 58.0368 88.46 
" clip-path="url(#pc78adced7f)" style="fill: none; stroke: #000000; stroke-width: 2; stroke-linecap: round"/>
   </g>
   <g id="text_1">
    <g clip-path="url(#pc78adced7f)">
     <!-- S -->
     <g transform="translate(123.8268 38.359219)scale(0.125 -0.125)">
      <defs>
       <path id="DejaVuSans-53" d="M 3425 4513 
L 3425 3897 
Q 3066 4069 2747 4153 
Q 2428 4238 2131 4238 
Q 1616 4238 1336 4038 
Q 1056 3838 1056 3469 
Q 1056 3159 1242 3001 
Q 1428 2844 1947 2747 
L 2328 2669 
Q 3034 2534 3370 2195 
Q 3706 1856 3706 1288 
Q 3706 609 3251 259 
Q 2797 -91 1919 -91 
Q 1588 -91 1214 -16 
Q 841 59 441 206 
L 441 856 
Q 825 641 1194 531 
Q 1563 422 1919 422 
Q 2459 422 2753 634 
Q 3047 847 3047 1241 
Q 3047 1584 2836 1778 
Q 2625 1972 2144 2069 
L 1759 2144 
Q 1053 2284 737 2584 
Q 422 2884 422 3419 
Q 422 4038 858 4394 
Q 1294 4750 2059 4750 
Q 2388 4750 2728 4690 
Q 3069 4631 3425 4513 
z
" transform="scale(0.015625)"/>
      </defs>
      <use xlink:href="#DejaVuSans-53"/>
     </g>
    </g>
   </g>
   <g id="text_2">
    <g clip-path="url(#pc78adced7f)">
     <!-- A -->
     <g transform="translate(15.826019 30.709219)scale(0.125 -0.125)">
      <defs>
       <path id="DejaVuSans-41" d="M 2188 4044 
L 1331 1722 
L 3047 1722 
L 2188 4044 
z
M 1831 4666 
L 2547 4666 
L 4325 0 
L 3669 0 
L 3244 1197 
L 1141 1197 
L 716 0 
L 50 0 
L 1831 4666 
z
" transform="scale(0.015625)"/>
      </defs>
      <use xlink:href="#DejaVuSans-41"/>
     </g>
    </g>
   </g>
   <g id="text_3">
    <g clip-path="url(#pc78adced7f)">
     <!-- B -->
     <g transform="translate(15.800628 46.009219)scale(0.125 -0.125)">
      <defs>
       <path id="DejaVuSans-42" d="M 1259 2228 
L 1259 519 
L 2272 519 
Q 2781 519 3026 730 
Q 3272 941 3272 1375 
Q 3272 1813 3026 2020 
Q 2781 2228 2272 2228 
L 1259 2228 
z
M 1259 4147 
L 1259 2741 
L 2194 2741 
Q 2656 2741 2882 2914 
Q 3109 3088 3109 3444 
Q 3109 3797 2882 3972 
Q 2656 4147 2194 4147 
L 1259 4147 
z
M 628 4666 
L 2241 4666 
Q 2963 4666 3353 4366 
Q 3744 4066 3744 3513 
Q 3744 3084 3544 2831 
Q 3344 2578 2956 2516 
Q 3422 2416 3680 2098 
Q 3938 1781 3938 1306 
Q 3938 681 3513 340 
Q 3088 0 2303 0 
L 628 0 
L 628 4666 
z
" transform="scale(0.015625)"/>
      </defs>
      <use xlink:href="#DejaVuSans-42"/>
     </g>
    </g>
   </g>
   <g id="text_4">
    <g clip-path="url(#pc78adced7f)">
     <!-- C -->
     <g transform="translate(117.7068 84.259219)scale(0.125 -0.125)">
      <defs>
       <path id="DejaVuSans-43" d="M 4122 4306 
L 4122 3641 
Q 3803 3938 3442 4084 
Q 3081 4231 2675 4231 
Q 1875 4231 1450 3742 
Q 1025 3253 1025 2328 
Q 1025 1406 1450 917 
Q 1875 428 2675 428 
Q 3081 428 3442 575 
Q 3803 722 4122 1019 
L 4122 359 
Q 3791 134 3420 21 
Q 3050 -91 2638 -91 
Q 1578 -91 968 557 
Q 359 1206 359 2328 
Q 359 3453 968 4101 
Q 1578 4750 2638 4750 
Q 3056 4750 3426 4639 
Q 3797 4528 4122 4306 
z
" transform="scale(0.015625)"/>
      </defs>
      <use xlink:href="#DejaVuSans-43"/>
     </g>
    </g>
   </g>
   <g id="patch_2">
    <path d="M 58.0368 29.555 
C 58.645441 29.555 59.229236 29.313184 59.65961 28.88281 
C 60.089984 28.452436 60.3318 27.868641 60.3318 27.26 
C 60.3318 26.651359 60.089984 26.067564 59.65961 25.63719 
C 59.229236 25.206816 58.645441 24.965 58.0368 24.965 
C 57.428159 24.965 56.844364 25.206816 56.41399 25.63719 
C 55.983616 26.067564 55.7418 26.651359 55.7418 27.26 
C 55.7418 27.868641 55.983616 28.452436 56.41399 28.88281 
C 56.844364 29.313184 57.428159 29.555 58.0368 29.555 
z
" clip-path="url(#pc78adced7f)" style="stroke: #000000; stroke-width: 2; stroke-linejoin: miter"/>
   </g>
   <g id="patch_3">
    <path d="M 42.7368 44.855 
C 43.345441 44.855 43.929236 44.613184 44.35961 44.18281 
C 44.789984 43.752436 45.0318 43.168641 45.0318 42.56 
C 45.0318 41.951359 44.789984 41.367564 44.35961 40.93719 
C 43.929236 40.506816 43.345441 40.265 42.7368 40.265 
C 42.128159 40.265 41.544364 40.506816 41.11399 40.93719 
C 40.683616 41.367564 40.4418 41.951359 40.4418 42.56 
C 40.4418 43.168641 40.683616 43.752436 41.11399 44.18281 
C 41.544364 44.613184 42.128159 44.855 42.7368 44.855 
z
" clip-path="url(#pc78adced7f)" style="stroke: #000000; stroke-width: 2; stroke-linejoin: miter"/>
   </g>
  </g>
 </g>
 <defs>
  <clipPath id="pc78adced7f">
   <rect x="7.2" y="7.2" width="139.9236" height="91.97"/>
  </clipPath>
 </defs>
</svg>
