<?xml version="1.0" encoding="UTF-8" standalone="no"?>
<!-- Created with Digital by H.Neemann -->
<!-- created: Fri Jan 21 10:02:48 EST 2022 -->

<svg
   xmlns:svg="http://www.w3.org/2000/svg"
   xmlns="http://www.w3.org/2000/svg"
   width="88.2mm"
   height="23.1mm"
   viewBox="171 163 588 154">
<g stroke-linecap="square">
<path d="M 260,180 L 260,220 L 340,260 L 380,260" stroke="#0000b2" stroke-width="4.0" fill="none"/>
<path d="M 260,300 L 260,260 L 340,220 L 380,220" stroke="#0000b2" stroke-width="4.0" fill="none"/>
<path d="M 620,240 L 660,240" stroke="#0000b2" stroke-width="4.0" fill="none"/>
<path d="M 320,180 L 380,180" stroke="#0000b2" stroke-width="4.0" fill="none"/>
<path d="M 240,180 L 260,180 L 280,180" stroke="#0000b2" stroke-width="4.0" fill="none"/>
<path d="M 460,280 L 480,280 L 480,260 L 520,260 L 524,260" stroke="#0000b2" stroke-width="4.0" fill="none"/>
<path d="M 460,200 L 480,200 L 480,180 L 660,180" stroke="#0000b2" stroke-width="4.0" fill="none"/>
<path d="M 240,300 L 260,300 L 280,300" stroke="#0000b2" stroke-width="4.0" fill="none"/>
<path d="M 320,300 L 380,300" stroke="#0000b2" stroke-width="4.0" fill="none"/>
<path d="M 480,280 L 480,300 L 660,300" stroke="#0000b2" stroke-width="4.0" fill="none"/>
<path d="M 480,200 L 480,220 L 520,220 L 524,220" stroke="#0000b2" stroke-width="4.0" fill="none"/>
<g>
<circle cx="260.0" cy="180.0" r="4.0" stroke="#0000b2" stroke-width="4.0" fill="#0000b2" />
<circle cx="480.0" cy="280.0" r="4.0" stroke="#0000b2" stroke-width="4.0" fill="#0000b2" />
<circle cx="480.0" cy="200.0" r="4.0" stroke="#0000b2" stroke-width="4.0" fill="#0000b2" />
<circle cx="260.0" cy="300.0" r="4.0" stroke="#0000b2" stroke-width="4.0" fill="#0000b2" />
</g>
<g>
<path d="M 209,165 L 239,165 L 239,195 L 209,195 Z" stroke="#000000" stroke-width="4.0" fill="none"/>
<circle cx="224.0" cy="180.0" r="9.0" stroke="#000000" stroke-width="4.0" fill="none" />
<text text-anchor="end" x="195.0" y="189.0" fill="#000000" style="font-size:24px"><tspan style="font-style:italic;">a<tspan style="font-size:80%;baseline-shift:sub;">i</tspan></tspan></text>
<circle cx="240.0" cy="180.0" r="2.0" stroke="#b20000" stroke-width="4.0" fill="#b20000" />
</g>
<g>
<path d="M 209,285 L 239,285 L 239,315 L 209,315 Z" stroke="#000000" stroke-width="4.0" fill="none"/>
<circle cx="224.0" cy="300.0" r="9.0" stroke="#000000" stroke-width="4.0" fill="none" />
<text text-anchor="end" x="195.0" y="309.0" fill="#000000" style="font-size:24px"><tspan style="font-style:italic;">b<tspan style="font-size:80%;baseline-shift:sub;">i</tspan></tspan></text>
<circle cx="240.0" cy="300.0" r="2.0" stroke="#b20000" stroke-width="4.0" fill="#b20000" />
</g>
<g>
<path d="M 281,168 L 299,180 L 281,192 Z" stroke="#000000" stroke-width="4.0" fill="none"/>
<circle cx="310.0" cy="180.0" r="9.0" stroke="#000000" stroke-width="4.0" fill="none" />
<circle cx="280.0" cy="180.0" r="2.0" stroke="#0000b2" stroke-width="4.0" fill="#0000b2" />
<circle cx="320.0" cy="180.0" r="2.0" stroke="#b20000" stroke-width="4.0" fill="#b20000" />
</g>
<g>
<path d="M 281,288 L 299,300 L 281,312 Z" stroke="#000000" stroke-width="4.0" fill="none"/>
<circle cx="310.0" cy="300.0" r="9.0" stroke="#000000" stroke-width="4.0" fill="none" />
<circle cx="280.0" cy="300.0" r="2.0" stroke="#0000b2" stroke-width="4.0" fill="#0000b2" />
<circle cx="320.0" cy="300.0" r="2.0" stroke="#b20000" stroke-width="4.0" fill="#b20000" />
</g>
<g>
<path d="M 430,230 L 381,230 L 381,170 L 430,170 C 440,170 460,180 459,200 C 459,220 440,230 430,230 Z" stroke="#000000" stroke-width="4.0" fill="none"/>
<circle cx="380.0" cy="180.0" r="2.0" stroke="#0000b2" stroke-width="4.0" fill="#0000b2" />
<circle cx="380.0" cy="220.0" r="2.0" stroke="#0000b2" stroke-width="4.0" fill="#0000b2" />
<circle cx="460.0" cy="200.0" r="2.0" stroke="#b20000" stroke-width="4.0" fill="#b20000" />
</g>
<g>
<path d="M 430,310 L 381,310 L 381,250 L 430,250 C 440,250 460,260 459,280 C 459,300 440,310 430,310 Z" stroke="#000000" stroke-width="4.0" fill="none"/>
<circle cx="380.0" cy="260.0" r="2.0" stroke="#0000b2" stroke-width="4.0" fill="#0000b2" />
<circle cx="380.0" cy="300.0" r="2.0" stroke="#0000b2" stroke-width="4.0" fill="#0000b2" />
<circle cx="460.0" cy="280.0" r="2.0" stroke="#b20000" stroke-width="4.0" fill="#b20000" />
</g>
<g>
<path d="M 550,270 L 520,270 C 530,254 530,226 520,210 L 540,210 C 570,210 590,220 600,240 C 590,260 570,270 550,270 Z" stroke="#000000" stroke-width="4.0" fill="none"/>
<circle cx="610.0" cy="240.0" r="9.0" stroke="#000000" stroke-width="4.0" fill="none" />
<circle cx="520.0" cy="220.0" r="2.0" stroke="#0000b2" stroke-width="4.0" fill="#0000b2" />
<circle cx="520.0" cy="260.0" r="2.0" stroke="#0000b2" stroke-width="4.0" fill="#0000b2" />
<circle cx="620.0" cy="240.0" r="2.0" stroke="#b20000" stroke-width="4.0" fill="#b20000" />
</g>
<g>
<circle cx="676.0" cy="180.0" r="9.0" stroke="#000000" stroke-width="4.0" fill="none" />
<circle cx="676.0" cy="180.0" r="15.0" stroke="#000000" stroke-width="4.0" fill="none" />
<text text-anchor="start" x="705.0" y="189.0" fill="#000000" style="font-size:24px"><tspan style="font-style:italic;">A&lt;B</tspan></text>
<circle cx="660.0" cy="180.0" r="2.0" stroke="#0000b2" stroke-width="4.0" fill="#0000b2" />
</g>
<g>
<circle cx="676.0" cy="240.0" r="9.0" stroke="#000000" stroke-width="4.0" fill="none" />
<circle cx="676.0" cy="240.0" r="15.0" stroke="#000000" stroke-width="4.0" fill="none" />
<text text-anchor="start" x="705.0" y="249.0" fill="#000000" style="font-size:24px"><tspan style="font-style:italic;">A=B</tspan></text>
<circle cx="660.0" cy="240.0" r="2.0" stroke="#0000b2" stroke-width="4.0" fill="#0000b2" />
</g>
<g>
<circle cx="676.0" cy="300.0" r="9.0" stroke="#000000" stroke-width="4.0" fill="none" />
<circle cx="676.0" cy="300.0" r="15.0" stroke="#000000" stroke-width="4.0" fill="none" />
<text text-anchor="start" x="705.0" y="309.0" fill="#000000" style="font-size:24px"><tspan style="font-style:italic;">A&gt;B</tspan></text>
<circle cx="660.0" cy="300.0" r="2.0" stroke="#0000b2" stroke-width="4.0" fill="#0000b2" />
</g>
</g>
</svg>