<?xml version="1.0" encoding="UTF-8" standalone="no"?>
<!-- Created with Digital by H.Neemann -->
<!-- created: Wed Nov 09 10:07:18 EST 2022 -->

<svg
   xmlns:svg="http://www.w3.org/2000/svg"
   xmlns="http://www.w3.org/2000/svg"
   width="105.3mm"
   height="62.25mm"
   viewBox="-879 -197 702 415">
<g stroke-linecap="square">
<path d="M -600,80 L -420,80" stroke="#008e00" stroke-width="4.0" fill="none"/>
<path d="M -680,140 L -680,160 L -660,160" stroke="#008e00" stroke-width="4.0" fill="none"/>
<path d="M -500,0 L -460,0 L -460,140" stroke="#008e00" stroke-width="4.0" fill="none"/>
<path d="M -680,160 L -680,180 L -660,180" stroke="#008e00" stroke-width="4.0" fill="none"/>
<path d="M -600,100 L -360,100" stroke="#008e00" stroke-width="4.0" fill="none"/>
<path d="M -800,100 L -660,100" stroke="#008e00" stroke-width="4.0" fill="none"/>
<path d="M -600,120 L -480,120 L -300,120" stroke="#008e00" stroke-width="4.0" fill="none"/>
<path d="M -740,120 L -680,120 L -660,120" stroke="#008e00" stroke-width="4.0" fill="none"/>
<path d="M -500,40 L -480,40 L -480,120" stroke="#008e00" stroke-width="4.0" fill="none"/>
<path d="M -600,140 L -460,140 L -240,140" stroke="#008e00" stroke-width="4.0" fill="none"/>
<path d="M -680,120 L -680,140 L -660,140" stroke="#008e00" stroke-width="4.0" fill="none"/>
<path d="M -740,20 L -740,60 L -720,60" stroke="#008e00" stroke-width="4.0" fill="none"/>
<path d="M -660,80 L -780,80 L -780,20 L -740,20 L -580,20" stroke="#008e00" stroke-width="4.0" fill="none"/>
<path d="M -680,60 L -660,60" stroke="#66ff66" stroke-width="4.0" fill="none"/>
<path d="M -844,-160 L -219,-160" stroke-dasharray="4.0,4.0" stroke="#000000" stroke-width="1.0" fill="none"/>
<path d="M -844,-125 L -219,-125" stroke-dasharray="4.0,4.0" stroke="#000000" stroke-width="1.0" fill="none"/>
<path d="M -844,-90 L -219,-90" stroke-dasharray="4.0,4.0" stroke="#000000" stroke-width="1.0" fill="none"/>
<path d="M -219,-195 L -844,-195 L -844,-55 L -219,-55 Z" stroke-dasharray="4.0,4.0" stroke="#000000" stroke-width="1.0" fill="none"/>
<path d="M -819,-195 L -819,-55" stroke-dasharray="4.0,4.0" stroke="#000000" stroke-width="1.0" fill="none"/>
<path d="M -794,-195 L -794,-55" stroke-dasharray="4.0,4.0" stroke="#000000" stroke-width="1.0" fill="none"/>
<path d="M -769,-195 L -769,-55" stroke-dasharray="4.0,4.0" stroke="#000000" stroke-width="1.0" fill="none"/>
<path d="M -744,-195 L -744,-55" stroke-dasharray="4.0,4.0" stroke="#000000" stroke-width="1.0" fill="none"/>
<path d="M -719,-195 L -719,-55" stroke-dasharray="4.0,4.0" stroke="#000000" stroke-width="1.0" fill="none"/>
<path d="M -694,-195 L -694,-55" stroke-dasharray="4.0,4.0" stroke="#000000" stroke-width="1.0" fill="none"/>
<path d="M -669,-195 L -669,-55" stroke-dasharray="4.0,4.0" stroke="#000000" stroke-width="1.0" fill="none"/>
<path d="M -644,-195 L -644,-55" stroke-dasharray="4.0,4.0" stroke="#000000" stroke-width="1.0" fill="none"/>
<path d="M -619,-195 L -619,-55" stroke-dasharray="4.0,4.0" stroke="#000000" stroke-width="1.0" fill="none"/>
<path d="M -594,-195 L -594,-55" stroke-dasharray="4.0,4.0" stroke="#000000" stroke-width="1.0" fill="none"/>
<path d="M -569,-195 L -569,-55" stroke-dasharray="4.0,4.0" stroke="#000000" stroke-width="1.0" fill="none"/>
<path d="M -544,-195 L -544,-55" stroke-dasharray="4.0,4.0" stroke="#000000" stroke-width="1.0" fill="none"/>
<path d="M -519,-195 L -519,-55" stroke-dasharray="4.0,4.0" stroke="#000000" stroke-width="1.0" fill="none"/>
<path d="M -494,-195 L -494,-55" stroke-dasharray="4.0,4.0" stroke="#000000" stroke-width="1.0" fill="none"/>
<path d="M -469,-195 L -469,-55" stroke-dasharray="4.0,4.0" stroke="#000000" stroke-width="1.0" fill="none"/>
<path d="M -444,-195 L -444,-55" stroke-dasharray="4.0,4.0" stroke="#000000" stroke-width="1.0" fill="none"/>
<path d="M -419,-195 L -419,-55" stroke-dasharray="4.0,4.0" stroke="#000000" stroke-width="1.0" fill="none"/>
<path d="M -394,-195 L -394,-55" stroke-dasharray="4.0,4.0" stroke="#000000" stroke-width="1.0" fill="none"/>
<path d="M -369,-195 L -369,-55" stroke-dasharray="4.0,4.0" stroke="#000000" stroke-width="1.0" fill="none"/>
<path d="M -344,-195 L -344,-55" stroke-dasharray="4.0,4.0" stroke="#000000" stroke-width="1.0" fill="none"/>
<path d="M -319,-195 L -319,-55" stroke-dasharray="4.0,4.0" stroke="#000000" stroke-width="1.0" fill="none"/>
<path d="M -294,-195 L -294,-55" stroke-dasharray="4.0,4.0" stroke="#000000" stroke-width="1.0" fill="none"/>
<path d="M -269,-195 L -269,-55" stroke-dasharray="4.0,4.0" stroke="#000000" stroke-width="1.0" fill="none"/>
<path d="M -244,-195 L -244,-55" stroke-dasharray="4.0,4.0" stroke="#000000" stroke-width="1.0" fill="none"/>
<path d="M -844,-190 L -819,-190 L -819,-165 L -794,-165 L -769,-165 L -769,-190 L -744,-190 L -719,-190 L -719,-165 L -694,-165 L -669,-165 L -669,-190 L -644,-190 L -619,-190 L -619,-165 L -594,-165 L -569,-165 L -569,-190 L -544,-190 L -519,-190 L -519,-165 L -494,-165 L -469,-165 L -469,-190 L -444,-190 L -419,-190 L -419,-165 L -394,-165 L -369,-165 L -369,-190 L -344,-190 L -319,-190 L -319,-165 L -294,-165 L -269,-165 L -244,-165 L -219,-165" stroke="#000000" stroke-width="4.0" fill="none"/>
<path d="M -844,-130 L -819,-130 L -819,-155 L -794,-155 L -769,-155 L -744,-155 L -719,-155 L -719,-130 L -694,-130 L -669,-130 L -644,-130 L -619,-130 L -619,-155 L -594,-155 L -569,-155 L -544,-155 L -519,-155 L -519,-130 L -494,-130 L -469,-130 L -444,-130 L -419,-130 L -419,-155 L -394,-155 L -369,-155 L -344,-155 L -319,-155 L -319,-130 L -294,-130 L -269,-130 L -244,-130 L -219,-130" stroke="#000000" stroke-width="4.0" fill="none"/>
<path d="M -844,-95 L -819,-95 L -794,-95 L -769,-95 L -744,-95 L -719,-95 L -719,-120 L -694,-120 L -669,-120 L -644,-120 L -619,-120 L -594,-120 L -569,-120 L -544,-120 L -519,-120 L -519,-95 L -494,-95 L -469,-95 L -444,-95 L -419,-95 L -394,-95 L -369,-95 L -344,-95 L -319,-95 L -319,-120 L -294,-120 L -269,-120 L -269,-95 L -244,-95 L -219,-95" stroke="#000000" stroke-width="4.0" fill="none"/>
<path d="M -844,-60 L -819,-60 L -794,-60 L -769,-60 L -744,-60 L -719,-60 L -694,-60 L -669,-60 L -644,-60 L -619,-60 L -594,-60 L -569,-60 L -544,-60 L -519,-60 L -519,-85 L -494,-85 L -469,-85 L -444,-85 L -419,-85 L -394,-85 L -369,-85 L -344,-85 L -319,-85 L -294,-85 L -269,-85 L -269,-60 L -244,-60 L -219,-60" stroke="#000000" stroke-width="4.0" fill="none"/>
<g>
<circle cx="-680.0" cy="160.0" r="4.0" stroke="#008e00" stroke-width="4.0" fill="#008e00" />
<circle cx="-740.0" cy="20.0" r="4.0" stroke="#008e00" stroke-width="4.0" fill="#008e00" />
<circle cx="-480.0" cy="120.0" r="4.0" stroke="#008e00" stroke-width="4.0" fill="#008e00" />
<circle cx="-680.0" cy="120.0" r="4.0" stroke="#008e00" stroke-width="4.0" fill="#008e00" />
<circle cx="-460.0" cy="140.0" r="4.0" stroke="#008e00" stroke-width="4.0" fill="#008e00" />
<circle cx="-680.0" cy="140.0" r="4.0" stroke="#008e00" stroke-width="4.0" fill="#008e00" />
</g>
<g>
<text text-anchor="end" x="-846.0" y="-169.0" fill="#000000" style="font-size:24px">A<tspan style="font-size:80%;baseline-shift:sub;">0</tspan></text>
<text text-anchor="end" x="-846.0" y="-134.0" fill="#000000" style="font-size:24px">A<tspan style="font-size:80%;baseline-shift:sub;">1</tspan></text>
<text text-anchor="end" x="-846.0" y="-99.0" fill="#000000" style="font-size:24px">A<tspan style="font-size:80%;baseline-shift:sub;">2</tspan></text>
<text text-anchor="end" x="-846.0" y="-64.0" fill="#000000" style="font-size:24px">A<tspan style="font-size:80%;baseline-shift:sub;">3</tspan></text>
</g>
<g>
<text text-anchor="end" x="-743.0" y="129.0" fill="#000000" style="font-size:24px">0</text>
<circle cx="-740.0" cy="120.0" r="2.0" stroke="#b20000" stroke-width="4.0" fill="#b20000" />
</g>
<g>
<path d="M -550,-10 L -501,-10 L -501,50 L -550,50 C -560,50 -580,40 -579,20 C -579,0 -560,-10 -550,-10 Z" stroke="#000000" stroke-width="4.0" fill="none"/>
<circle cx="-500.0" cy="40.0" r="2.0" stroke="#0000b2" stroke-width="4.0" fill="#0000b2" />
<circle cx="-500.0" cy="0.0" r="2.0" stroke="#0000b2" stroke-width="4.0" fill="#0000b2" />
<circle cx="-580.0" cy="20.0" r="2.0" stroke="#b20000" stroke-width="4.0" fill="#b20000" />
</g>
<g>
<circle cx="-409.0" cy="80.0" r="4.0" stroke="#008e00" stroke-width="4.0" fill="#008e00" />
<circle cx="-409.0" cy="80.0" r="10.0" stroke="#000000" stroke-width="4.0" fill="none" />
<text text-anchor="start" x="-390.0" y="89.0" fill="#000000" style="font-size:24px"><tspan style="font-style:italic;">A<tspan style="font-size:80%;baseline-shift:sub;">0</tspan></tspan></text>
<circle cx="-420.0" cy="80.0" r="2.0" stroke="#0000b2" stroke-width="4.0" fill="#0000b2" />
</g>
<g>
<circle cx="-349.0" cy="100.0" r="4.0" stroke="#008e00" stroke-width="4.0" fill="#008e00" />
<circle cx="-349.0" cy="100.0" r="10.0" stroke="#000000" stroke-width="4.0" fill="none" />
<text text-anchor="start" x="-330.0" y="109.0" fill="#000000" style="font-size:24px"><tspan style="font-style:italic;">A<tspan style="font-size:80%;baseline-shift:sub;">1</tspan></tspan></text>
<circle cx="-360.0" cy="100.0" r="2.0" stroke="#0000b2" stroke-width="4.0" fill="#0000b2" />
</g>
<g>
<circle cx="-289.0" cy="120.0" r="4.0" stroke="#008e00" stroke-width="4.0" fill="#008e00" />
<circle cx="-289.0" cy="120.0" r="10.0" stroke="#000000" stroke-width="4.0" fill="none" />
<text text-anchor="start" x="-270.0" y="129.0" fill="#000000" style="font-size:24px"><tspan style="font-style:italic;">A<tspan style="font-size:80%;baseline-shift:sub;">2</tspan></tspan></text>
<circle cx="-300.0" cy="120.0" r="2.0" stroke="#0000b2" stroke-width="4.0" fill="#0000b2" />
</g>
<g>
<circle cx="-229.0" cy="140.0" r="4.0" stroke="#008e00" stroke-width="4.0" fill="#008e00" />
<circle cx="-229.0" cy="140.0" r="10.0" stroke="#000000" stroke-width="4.0" fill="none" />
<text text-anchor="start" x="-210.0" y="149.0" fill="#000000" style="font-size:24px"><tspan style="font-style:italic;">A<tspan style="font-size:80%;baseline-shift:sub;">3</tspan></tspan></text>
<circle cx="-240.0" cy="140.0" r="2.0" stroke="#0000b2" stroke-width="4.0" fill="#0000b2" />
</g>
<g>
<path d="M -831,85 L -801,85 L -801,115 L -831,115 Z" stroke="#000000" stroke-width="4.0" fill="none"/>
<path d="M -825,105 L -820,105 L -820,95 L -815,95 L -815,105 L -810,105 L -810,95 L -805,95" stroke="#000000" stroke-width="2.0" fill="none"/>
<circle cx="-800.0" cy="100.0" r="2.0" stroke="#b20000" stroke-width="4.0" fill="#b20000" />
</g>
<g>
<path d="M -719,48 L -701,60 L -719,72 Z" stroke="#000000" stroke-width="4.0" fill="none"/>
<circle cx="-690.0" cy="60.0" r="9.0" stroke="#000000" stroke-width="4.0" fill="none" />
<circle cx="-720.0" cy="60.0" r="2.0" stroke="#0000b2" stroke-width="4.0" fill="#0000b2" />
<circle cx="-680.0" cy="60.0" r="2.0" stroke="#b20000" stroke-width="4.0" fill="#b20000" />
</g>
<g>
<path d="M -659,46 L -601,46 L -601,194 L -659,194 Z" stroke="#ffffb4" stroke-width="0.0" fill="#ffffb4" fill-opacity="0.7843137254901961"/>
<path d="M -659,46 L -601,46 L -601,194 L -659,194 Z" stroke="#000000" stroke-width="4.0" fill="none"/>
<text text-anchor="start" x="-656.0" y="66.75" fill="#808080" style="font-size:18px">Cpt</text>
<text text-anchor="start" x="-656.0" y="86.75" fill="#808080" style="font-size:18px">Ch</text>
<path d="M -659,107 L -652,100 L -659,93" stroke="#000000" stroke-width="2.0" fill="none"/>
<text text-anchor="start" x="-649.0" y="106.75" fill="#808080" style="font-size:18px">C</text>
<text text-anchor="start" x="-656.0" y="126.75" fill="#808080" style="font-size:18px">I<tspan style="font-size:80%;baseline-shift:sub;">0</tspan></text>
<text text-anchor="start" x="-656.0" y="146.75" fill="#808080" style="font-size:18px">I<tspan style="font-size:80%;baseline-shift:sub;">1</tspan></text>
<text text-anchor="start" x="-656.0" y="166.75" fill="#808080" style="font-size:18px">I<tspan style="font-size:80%;baseline-shift:sub;">2</tspan></text>
<text text-anchor="start" x="-656.0" y="186.75" fill="#808080" style="font-size:18px">I<tspan style="font-size:80%;baseline-shift:sub;">3</tspan></text>
<text text-anchor="end" x="-604.0" y="66.75" fill="#808080" style="font-size:18px">ov</text>
<text text-anchor="end" x="-604.0" y="86.75" fill="#808080" style="font-size:18px">A<tspan style="font-size:80%;baseline-shift:sub;">0</tspan></text>
<text text-anchor="end" x="-604.0" y="106.75" fill="#808080" style="font-size:18px">A<tspan style="font-size:80%;baseline-shift:sub;">1</tspan></text>
<text text-anchor="end" x="-604.0" y="126.75" fill="#808080" style="font-size:18px">A<tspan style="font-size:80%;baseline-shift:sub;">2</tspan></text>
<text text-anchor="end" x="-604.0" y="146.75" fill="#808080" style="font-size:18px">A<tspan style="font-size:80%;baseline-shift:sub;">3</tspan></text>
<text text-anchor="middle" x="-630.0" y="211.5" fill="#808080" style="font-size:18px">comptchargement</text>
<circle cx="-660.0" cy="60.0" r="2.0" stroke="#0000b2" stroke-width="4.0" fill="#0000b2" />
<circle cx="-660.0" cy="80.0" r="2.0" stroke="#0000b2" stroke-width="4.0" fill="#0000b2" />
<circle cx="-660.0" cy="100.0" r="2.0" stroke="#0000b2" stroke-width="4.0" fill="#0000b2" />
<circle cx="-660.0" cy="120.0" r="2.0" stroke="#0000b2" stroke-width="4.0" fill="#0000b2" />
<circle cx="-660.0" cy="140.0" r="2.0" stroke="#0000b2" stroke-width="4.0" fill="#0000b2" />
<circle cx="-660.0" cy="160.0" r="2.0" stroke="#0000b2" stroke-width="4.0" fill="#0000b2" />
<circle cx="-660.0" cy="180.0" r="2.0" stroke="#0000b2" stroke-width="4.0" fill="#0000b2" />
<circle cx="-600.0" cy="60.0" r="2.0" stroke="#b20000" stroke-width="4.0" fill="#b20000" />
<circle cx="-600.0" cy="80.0" r="2.0" stroke="#b20000" stroke-width="4.0" fill="#b20000" />
<circle cx="-600.0" cy="100.0" r="2.0" stroke="#b20000" stroke-width="4.0" fill="#b20000" />
<circle cx="-600.0" cy="120.0" r="2.0" stroke="#b20000" stroke-width="4.0" fill="#b20000" />
<circle cx="-600.0" cy="140.0" r="2.0" stroke="#b20000" stroke-width="4.0" fill="#b20000" />
</g>
</g>
</svg>