<?xml version="1.0" encoding="UTF-8" standalone="no"?>
<!-- Created with Digital by H.Neemann -->
<!-- created: Fri Jan 28 15:38:11 EST 2022 -->

<svg
   xmlns:svg="http://www.w3.org/2000/svg"
   xmlns="http://www.w3.org/2000/svg"
   width="82.65mm"
   height="140.1mm"
   viewBox="-622 -417 551 934">
<g stroke-linecap="square">
<path d="M -500,380 L -500,320 L -480,320 L -380,320 L -360,320" stroke="#0000b2" stroke-width="4.0" fill="none"/>
<path d="M -460,-80 L -460,-100 L -280,-100 L -280,-180" stroke="#0000b2" stroke-width="4.0" fill="none"/>
<path d="M -500,160 L -500,100 L -480,100 L -380,100 L -360,100" stroke="#0000b2" stroke-width="4.0" fill="none"/>
<path d="M -560,-360 L -500,-360 L -380,-360 L -360,-360" stroke="#0000b2" stroke-width="4.0" fill="none"/>
<path d="M -460,380 L -460,360 L -280,360 L -280,280" stroke="#0000b2" stroke-width="4.0" fill="none"/>
<path d="M -500,-80 L -500,-140 L -480,-140 L -380,-140 L -360,-140" stroke="#0000b2" stroke-width="4.0" fill="none"/>
<path d="M -460,160 L -460,140 L -280,140 L -280,60" stroke="#0000b2" stroke-width="4.0" fill="none"/>
<path d="M -400,80 L -400,300 L -360,300" stroke="#0000b2" stroke-width="4.0" fill="none"/>
<path d="M -380,-360 L -380,-400 L -360,-400" stroke="#0000b2" stroke-width="4.0" fill="none"/>
<path d="M -300,-400 L -280,-400 L -240,-400" stroke="#0000b2" stroke-width="4.0" fill="none"/>
<path d="M -400,-160 L -400,80 L -360,80" stroke="#0000b2" stroke-width="4.0" fill="none"/>
<path d="M -380,-140 L -380,-180 L -360,-180" stroke="#0000b2" stroke-width="4.0" fill="none"/>
<path d="M -300,-180 L -280,-180 L -240,-180" stroke="#0000b2" stroke-width="4.0" fill="none"/>
<path d="M -480,460 L -480,500 L -220,500" stroke="#0000b2" stroke-width="4.0" fill="none"/>
<path d="M -380,320 L -380,280 L -360,280" stroke="#0000b2" stroke-width="4.0" fill="none"/>
<path d="M -300,280 L -280,280 L -240,280" stroke="#0000b2" stroke-width="4.0" fill="none"/>
<path d="M -400,300 L -400,440 L -360,440" stroke="#0000b2" stroke-width="4.0" fill="none"/>
<path d="M -380,100 L -380,60 L -360,60" stroke="#0000b2" stroke-width="4.0" fill="none"/>
<path d="M -300,60 L -280,60 L -240,60" stroke="#0000b2" stroke-width="4.0" fill="none"/>
<path d="M -460,-300 L -460,-320 L -280,-320 L -280,-400" stroke="#0000b2" stroke-width="4.0" fill="none"/>
<path d="M -500,-360 L -500,-300" stroke="#0000b2" stroke-width="4.0" fill="none"/>
<path d="M -480,-220 L -480,-140" stroke="#0000b2" stroke-width="4.0" fill="none"/>
<path d="M -480,0 L -480,100" stroke="#0000b2" stroke-width="4.0" fill="none"/>
<path d="M -480,240 L -480,320" stroke="#0000b2" stroke-width="4.0" fill="none"/>
<path d="M -360,-380 L -400,-380 L -400,-160 L -360,-160" stroke="#0000b2" stroke-width="4.0" fill="none"/>
<g>
<circle cx="-480.0" cy="320.0" r="4.0" stroke="#0000b2" stroke-width="4.0" fill="#0000b2" />
<circle cx="-380.0" cy="320.0" r="4.0" stroke="#0000b2" stroke-width="4.0" fill="#0000b2" />
<circle cx="-480.0" cy="100.0" r="4.0" stroke="#0000b2" stroke-width="4.0" fill="#0000b2" />
<circle cx="-380.0" cy="100.0" r="4.0" stroke="#0000b2" stroke-width="4.0" fill="#0000b2" />
<circle cx="-500.0" cy="-360.0" r="4.0" stroke="#0000b2" stroke-width="4.0" fill="#0000b2" />
<circle cx="-380.0" cy="-360.0" r="4.0" stroke="#0000b2" stroke-width="4.0" fill="#0000b2" />
<circle cx="-480.0" cy="-140.0" r="4.0" stroke="#0000b2" stroke-width="4.0" fill="#0000b2" />
<circle cx="-380.0" cy="-140.0" r="4.0" stroke="#0000b2" stroke-width="4.0" fill="#0000b2" />
<circle cx="-400.0" cy="300.0" r="4.0" stroke="#0000b2" stroke-width="4.0" fill="#0000b2" />
<circle cx="-280.0" cy="-400.0" r="4.0" stroke="#0000b2" stroke-width="4.0" fill="#0000b2" />
<circle cx="-400.0" cy="80.0" r="4.0" stroke="#0000b2" stroke-width="4.0" fill="#0000b2" />
<circle cx="-280.0" cy="-180.0" r="4.0" stroke="#0000b2" stroke-width="4.0" fill="#0000b2" />
<circle cx="-280.0" cy="280.0" r="4.0" stroke="#0000b2" stroke-width="4.0" fill="#0000b2" />
<circle cx="-280.0" cy="60.0" r="4.0" stroke="#0000b2" stroke-width="4.0" fill="#0000b2" />
<circle cx="-400.0" cy="-160.0" r="4.0" stroke="#0000b2" stroke-width="4.0" fill="#0000b2" />
</g>
<g>
<path d="M -359,-410 L -301,-410 L -301,-350 L -359,-350 Z" stroke="#000000" stroke-width="4.0" fill="none"/>
<text text-anchor="start" x="-356.0" y="-393.25" fill="#808080" style="font-size:18px">J</text>
<path d="M -359,-373 L -352,-380 L -359,-387" stroke="#000000" stroke-width="2.0" fill="none"/>
<text text-anchor="start" x="-349.0" y="-373.25" fill="#808080" style="font-size:18px">C</text>
<text text-anchor="start" x="-356.0" y="-353.25" fill="#808080" style="font-size:18px">K</text>
<text text-anchor="end" x="-304.0" y="-393.25" fill="#808080" style="font-size:18px">Q</text>
<text text-anchor="end" x="-304.0" y="-373.25" fill="#808080" style="font-size:18px"><tspan style="text-decoration:overline;">Q</tspan></text>
<text text-anchor="middle" x="-330.0" y="-332.5" fill="#808080" style="font-size:18px">JK</text>
<circle cx="-360.0" cy="-400.0" r="2.0" stroke="#0000b2" stroke-width="4.0" fill="#0000b2" />
<circle cx="-360.0" cy="-380.0" r="2.0" stroke="#0000b2" stroke-width="4.0" fill="#0000b2" />
<circle cx="-360.0" cy="-360.0" r="2.0" stroke="#0000b2" stroke-width="4.0" fill="#0000b2" />
<circle cx="-300.0" cy="-400.0" r="2.0" stroke="#b20000" stroke-width="4.0" fill="#b20000" />
<circle cx="-300.0" cy="-380.0" r="2.0" stroke="#b20000" stroke-width="4.0" fill="#b20000" />
</g>
<g>
<path d="M -510,-250 L -510,-299 L -450,-299 L -450,-250 C -450,-240 -460,-220 -480,-221 C -500,-221 -510,-240 -510,-250 Z" stroke="#000000" stroke-width="4.0" fill="none"/>
<circle cx="-460.0" cy="-300.0" r="2.0" stroke="#0000b2" stroke-width="4.0" fill="#0000b2" />
<circle cx="-500.0" cy="-300.0" r="2.0" stroke="#0000b2" stroke-width="4.0" fill="#0000b2" />
<circle cx="-480.0" cy="-220.0" r="2.0" stroke="#b20000" stroke-width="4.0" fill="#b20000" />
</g>
<g>
<path d="M -359,-190 L -301,-190 L -301,-130 L -359,-130 Z" stroke="#000000" stroke-width="4.0" fill="none"/>
<text text-anchor="start" x="-356.0" y="-173.25" fill="#808080" style="font-size:18px">J</text>
<path d="M -359,-153 L -352,-160 L -359,-167" stroke="#000000" stroke-width="2.0" fill="none"/>
<text text-anchor="start" x="-349.0" y="-153.25" fill="#808080" style="font-size:18px">C</text>
<text text-anchor="start" x="-356.0" y="-133.25" fill="#808080" style="font-size:18px">K</text>
<text text-anchor="end" x="-304.0" y="-173.25" fill="#808080" style="font-size:18px">Q</text>
<text text-anchor="end" x="-304.0" y="-153.25" fill="#808080" style="font-size:18px"><tspan style="text-decoration:overline;">Q</tspan></text>
<text text-anchor="middle" x="-330.0" y="-112.5" fill="#808080" style="font-size:18px">JK</text>
<circle cx="-360.0" cy="-180.0" r="2.0" stroke="#0000b2" stroke-width="4.0" fill="#0000b2" />
<circle cx="-360.0" cy="-160.0" r="2.0" stroke="#0000b2" stroke-width="4.0" fill="#0000b2" />
<circle cx="-360.0" cy="-140.0" r="2.0" stroke="#0000b2" stroke-width="4.0" fill="#0000b2" />
<circle cx="-300.0" cy="-180.0" r="2.0" stroke="#b20000" stroke-width="4.0" fill="#b20000" />
<circle cx="-300.0" cy="-160.0" r="2.0" stroke="#b20000" stroke-width="4.0" fill="#b20000" />
</g>
<g>
<path d="M -510,-30 L -510,-79 L -450,-79 L -450,-30 C -450,-20 -460,0 -480,-1 C -500,-1 -510,-20 -510,-30 Z" stroke="#000000" stroke-width="4.0" fill="none"/>
<circle cx="-460.0" cy="-80.0" r="2.0" stroke="#0000b2" stroke-width="4.0" fill="#0000b2" />
<circle cx="-500.0" cy="-80.0" r="2.0" stroke="#0000b2" stroke-width="4.0" fill="#0000b2" />
<circle cx="-480.0" cy="0.0" r="2.0" stroke="#b20000" stroke-width="4.0" fill="#b20000" />
</g>
<g>
<circle cx="-224.0" cy="-400.0" r="9.0" stroke="#000000" stroke-width="4.0" fill="none" />
<circle cx="-224.0" cy="-400.0" r="15.0" stroke="#000000" stroke-width="4.0" fill="none" />
<text text-anchor="start" x="-195.0" y="-391.0" fill="#000000" style="font-size:24px"><tspan style="font-style:italic;">A<tspan style="font-size:80%;baseline-shift:sub;">0</tspan></tspan></text>
<circle cx="-240.0" cy="-400.0" r="2.0" stroke="#0000b2" stroke-width="4.0" fill="#0000b2" />
</g>
<g>
<circle cx="-224.0" cy="-180.0" r="9.0" stroke="#000000" stroke-width="4.0" fill="none" />
<circle cx="-224.0" cy="-180.0" r="15.0" stroke="#000000" stroke-width="4.0" fill="none" />
<text text-anchor="start" x="-195.0" y="-171.0" fill="#000000" style="font-size:24px"><tspan style="font-style:italic;">A<tspan style="font-size:80%;baseline-shift:sub;">1</tspan></tspan></text>
<circle cx="-240.0" cy="-180.0" r="2.0" stroke="#0000b2" stroke-width="4.0" fill="#0000b2" />
</g>
<g>
<path d="M -359,50 L -301,50 L -301,110 L -359,110 Z" stroke="#000000" stroke-width="4.0" fill="none"/>
<text text-anchor="start" x="-356.0" y="66.75" fill="#808080" style="font-size:18px">J</text>
<path d="M -359,87 L -352,80 L -359,73" stroke="#000000" stroke-width="2.0" fill="none"/>
<text text-anchor="start" x="-349.0" y="86.75" fill="#808080" style="font-size:18px">C</text>
<text text-anchor="start" x="-356.0" y="106.75" fill="#808080" style="font-size:18px">K</text>
<text text-anchor="end" x="-304.0" y="66.75" fill="#808080" style="font-size:18px">Q</text>
<text text-anchor="end" x="-304.0" y="86.75" fill="#808080" style="font-size:18px"><tspan style="text-decoration:overline;">Q</tspan></text>
<text text-anchor="middle" x="-330.0" y="127.5" fill="#808080" style="font-size:18px">JK</text>
<circle cx="-360.0" cy="60.0" r="2.0" stroke="#0000b2" stroke-width="4.0" fill="#0000b2" />
<circle cx="-360.0" cy="80.0" r="2.0" stroke="#0000b2" stroke-width="4.0" fill="#0000b2" />
<circle cx="-360.0" cy="100.0" r="2.0" stroke="#0000b2" stroke-width="4.0" fill="#0000b2" />
<circle cx="-300.0" cy="60.0" r="2.0" stroke="#b20000" stroke-width="4.0" fill="#b20000" />
<circle cx="-300.0" cy="80.0" r="2.0" stroke="#b20000" stroke-width="4.0" fill="#b20000" />
</g>
<g>
<path d="M -510,210 L -510,161 L -450,161 L -450,210 C -450,220 -460,240 -480,239 C -500,239 -510,220 -510,210 Z" stroke="#000000" stroke-width="4.0" fill="none"/>
<circle cx="-460.0" cy="160.0" r="2.0" stroke="#0000b2" stroke-width="4.0" fill="#0000b2" />
<circle cx="-500.0" cy="160.0" r="2.0" stroke="#0000b2" stroke-width="4.0" fill="#0000b2" />
<circle cx="-480.0" cy="240.0" r="2.0" stroke="#b20000" stroke-width="4.0" fill="#b20000" />
</g>
<g>
<path d="M -359,270 L -301,270 L -301,330 L -359,330 Z" stroke="#000000" stroke-width="4.0" fill="none"/>
<text text-anchor="start" x="-356.0" y="286.75" fill="#808080" style="font-size:18px">J</text>
<path d="M -359,307 L -352,300 L -359,293" stroke="#000000" stroke-width="2.0" fill="none"/>
<text text-anchor="start" x="-349.0" y="306.75" fill="#808080" style="font-size:18px">C</text>
<text text-anchor="start" x="-356.0" y="326.75" fill="#808080" style="font-size:18px">K</text>
<text text-anchor="end" x="-304.0" y="286.75" fill="#808080" style="font-size:18px">Q</text>
<text text-anchor="end" x="-304.0" y="306.75" fill="#808080" style="font-size:18px"><tspan style="text-decoration:overline;">Q</tspan></text>
<text text-anchor="middle" x="-330.0" y="347.5" fill="#808080" style="font-size:18px">JK</text>
<circle cx="-360.0" cy="280.0" r="2.0" stroke="#0000b2" stroke-width="4.0" fill="#0000b2" />
<circle cx="-360.0" cy="300.0" r="2.0" stroke="#0000b2" stroke-width="4.0" fill="#0000b2" />
<circle cx="-360.0" cy="320.0" r="2.0" stroke="#0000b2" stroke-width="4.0" fill="#0000b2" />
<circle cx="-300.0" cy="280.0" r="2.0" stroke="#b20000" stroke-width="4.0" fill="#b20000" />
<circle cx="-300.0" cy="300.0" r="2.0" stroke="#b20000" stroke-width="4.0" fill="#b20000" />
</g>
<g>
<path d="M -510,430 L -510,381 L -450,381 L -450,430 C -450,440 -460,460 -480,459 C -500,459 -510,440 -510,430 Z" stroke="#000000" stroke-width="4.0" fill="none"/>
<circle cx="-460.0" cy="380.0" r="2.0" stroke="#0000b2" stroke-width="4.0" fill="#0000b2" />
<circle cx="-500.0" cy="380.0" r="2.0" stroke="#0000b2" stroke-width="4.0" fill="#0000b2" />
<circle cx="-480.0" cy="460.0" r="2.0" stroke="#b20000" stroke-width="4.0" fill="#b20000" />
</g>
<g>
<circle cx="-224.0" cy="60.0" r="9.0" stroke="#000000" stroke-width="4.0" fill="none" />
<circle cx="-224.0" cy="60.0" r="15.0" stroke="#000000" stroke-width="4.0" fill="none" />
<text text-anchor="start" x="-195.0" y="69.0" fill="#000000" style="font-size:24px"><tspan style="font-style:italic;">A<tspan style="font-size:80%;baseline-shift:sub;">2</tspan></tspan></text>
<circle cx="-240.0" cy="60.0" r="2.0" stroke="#0000b2" stroke-width="4.0" fill="#0000b2" />
</g>
<g>
<circle cx="-224.0" cy="280.0" r="9.0" stroke="#000000" stroke-width="4.0" fill="none" />
<circle cx="-224.0" cy="280.0" r="15.0" stroke="#000000" stroke-width="4.0" fill="none" />
<text text-anchor="start" x="-195.0" y="289.0" fill="#000000" style="font-size:24px"><tspan style="font-style:italic;">A<tspan style="font-size:80%;baseline-shift:sub;">3</tspan></tspan></text>
<circle cx="-240.0" cy="280.0" r="2.0" stroke="#0000b2" stroke-width="4.0" fill="#0000b2" />
</g>
<g>
<path d="M -591,-375 L -561,-375 L -561,-345 L -591,-345 Z" stroke="#000000" stroke-width="4.0" fill="none"/>
<circle cx="-576.0" cy="-360.0" r="9.0" stroke="#000000" stroke-width="4.0" fill="none" />
<text text-anchor="end" x="-605.0" y="-351.0" fill="#000000" style="font-size:24px"><tspan style="font-style:italic;">E</tspan></text>
<circle cx="-560.0" cy="-360.0" r="2.0" stroke="#b20000" stroke-width="4.0" fill="#b20000" />
</g>
<g>
<circle cx="-204.0" cy="500.0" r="9.0" stroke="#000000" stroke-width="4.0" fill="none" />
<circle cx="-204.0" cy="500.0" r="15.0" stroke="#000000" stroke-width="4.0" fill="none" />
<text text-anchor="start" x="-175.0" y="509.0" fill="#000000" style="font-size:24px"><tspan style="font-style:italic;">Prochain</tspan></text>
<circle cx="-220.0" cy="500.0" r="2.0" stroke="#0000b2" stroke-width="4.0" fill="#0000b2" />
</g>
<g>
<path d="M -329,455 L -359,455 L -359,425 L -329,425 Z" stroke="#000000" stroke-width="4.0" fill="none"/>
<path d="M -335,435 L -340,435 L -340,445 L -345,445 L -345,435 L -350,435 L -350,445 L -355,445" stroke="#000000" stroke-width="2.0" fill="none"/>
<circle cx="-360.0" cy="440.0" r="2.0" stroke="#b20000" stroke-width="4.0" fill="#b20000" />
</g>
</g>
</svg>