<?xml version="1.0" encoding="UTF-8" standalone="no"?>
<!-- Created with Digital by H.Neemann -->
<!-- created: Fri Jan 21 09:52:47 EST 2022 -->

<svg
   xmlns:svg="http://www.w3.org/2000/svg"
   xmlns="http://www.w3.org/2000/svg"
   width="164.4mm"
   height="150.15mm"
   viewBox="23 -37 1096 1001">
<g stroke-linecap="square">
<path d="M 120,-20 L 120,20 L 200,60 L 240,60" stroke="#0000b2" stroke-width="4.0" fill="none"/>
<path d="M 120,100 L 120,60 L 200,20 L 240,20" stroke="#0000b2" stroke-width="4.0" fill="none"/>
<path d="M 120,240 L 120,280 L 200,320 L 240,320" stroke="#0000b2" stroke-width="4.0" fill="none"/>
<path d="M 120,360 L 120,320 L 200,280 L 240,280" stroke="#0000b2" stroke-width="4.0" fill="none"/>
<path d="M 120,500 L 120,540 L 200,580 L 240,580" stroke="#0000b2" stroke-width="4.0" fill="none"/>
<path d="M 120,620 L 120,580 L 200,540 L 240,540" stroke="#0000b2" stroke-width="4.0" fill="none"/>
<path d="M 120,760 L 120,800 L 200,840 L 240,840" stroke="#0000b2" stroke-width="4.0" fill="none"/>
<path d="M 120,880 L 120,840 L 200,800 L 240,800" stroke="#0000b2" stroke-width="4.0" fill="none"/>
<path d="M 320,0 L 340,0 L 340,-20 L 880,-20 L 880,440 L 900,440" stroke="#0000b2" stroke-width="4.0" fill="none"/>
<path d="M 320,260 L 340,260 L 340,160 L 680,160" stroke="#0000b2" stroke-width="4.0" fill="none"/>
<path d="M 760,260 L 800,260 L 800,720 L 900,720 L 904,720" stroke="#0000b2" stroke-width="4.0" fill="none"/>
<path d="M 640,780 L 640,900 L 680,900" stroke="#0000b2" stroke-width="4.0" fill="none"/>
<path d="M 320,520 L 340,520 L 340,420 L 680,420" stroke="#0000b2" stroke-width="4.0" fill="none"/>
<path d="M 640,400 L 640,520 L 680,520" stroke="#0000b2" stroke-width="4.0" fill="none"/>
<path d="M 760,520 L 780,520 L 780,760 L 900,760 L 904,760" stroke="#0000b2" stroke-width="4.0" fill="none"/>
<path d="M 320,780 L 340,780 L 340,700 L 680,700" stroke="#0000b2" stroke-width="4.0" fill="none"/>
<path d="M 760,140 L 860,140 L 860,460 L 900,460 L 904,460" stroke="#0000b2" stroke-width="4.0" fill="none"/>
<path d="M 320,80 L 340,80 L 340,60 L 380,60 L 384,60" stroke="#0000b2" stroke-width="4.0" fill="none"/>
<path d="M 760,400 L 840,400 L 840,500 L 900,500 L 904,500" stroke="#0000b2" stroke-width="4.0" fill="none"/>
<path d="M 180,-20 L 240,-20" stroke="#0000b2" stroke-width="4.0" fill="none"/>
<path d="M 100,-20 L 120,-20 L 140,-20" stroke="#0000b2" stroke-width="4.0" fill="none"/>
<path d="M 320,340 L 340,340 L 340,320 L 380,320 L 384,320" stroke="#0000b2" stroke-width="4.0" fill="none"/>
<path d="M 340,0 L 340,20 L 380,20 L 384,20" stroke="#0000b2" stroke-width="4.0" fill="none"/>
<path d="M 520,40 L 520,20 L 540,20" stroke="#0000b2" stroke-width="4.0" fill="none"/>
<path d="M 760,660 L 840,660 L 840,520 L 900,520" stroke="#0000b2" stroke-width="4.0" fill="none"/>
<path d="M 340,260 L 340,280 L 380,280 L 384,280" stroke="#0000b2" stroke-width="4.0" fill="none"/>
<path d="M 500,300 L 500,280 L 520,280" stroke="#0000b2" stroke-width="4.0" fill="none"/>
<path d="M 320,600 L 340,600 L 340,580 L 380,580 L 384,580" stroke="#0000b2" stroke-width="4.0" fill="none"/>
<path d="M 760,920 L 1020,920" stroke="#0000b2" stroke-width="4.0" fill="none"/>
<path d="M 340,520 L 340,540 L 380,540 L 384,540" stroke="#0000b2" stroke-width="4.0" fill="none"/>
<path d="M 500,560 L 500,540 L 520,540" stroke="#0000b2" stroke-width="4.0" fill="none"/>
<path d="M 320,860 L 340,860 L 340,840 L 380,840 L 384,840" stroke="#0000b2" stroke-width="4.0" fill="none"/>
<path d="M 340,780 L 340,800 L 380,800 L 384,800" stroke="#0000b2" stroke-width="4.0" fill="none"/>
<path d="M 500,820 L 500,800 L 520,800" stroke="#0000b2" stroke-width="4.0" fill="none"/>
<path d="M 760,800 L 780,800 L 780,780 L 900,780" stroke="#0000b2" stroke-width="4.0" fill="none"/>
<path d="M 980,480 L 1020,480" stroke="#0000b2" stroke-width="4.0" fill="none"/>
<path d="M 100,100 L 120,100 L 140,100" stroke="#0000b2" stroke-width="4.0" fill="none"/>
<path d="M 180,100 L 240,100" stroke="#0000b2" stroke-width="4.0" fill="none"/>
<path d="M 340,80 L 340,100 L 820,100 L 820,700 L 900,700" stroke="#0000b2" stroke-width="4.0" fill="none"/>
<path d="M 980,740 L 1020,740" stroke="#0000b2" stroke-width="4.0" fill="none"/>
<path d="M 100,360 L 120,360 L 140,360" stroke="#0000b2" stroke-width="4.0" fill="none"/>
<path d="M 180,360 L 240,360" stroke="#0000b2" stroke-width="4.0" fill="none"/>
<path d="M 340,340 L 340,360 L 620,360 L 620,280 L 680,280" stroke="#0000b2" stroke-width="4.0" fill="none"/>
<path d="M 480,40 L 520,40 L 660,40 L 660,120 L 680,120" stroke="#0000b2" stroke-width="4.0" fill="none"/>
<path d="M 480,300 L 500,300 L 640,300 L 640,400 L 680,400" stroke="#0000b2" stroke-width="4.0" fill="none"/>
<path d="M 100,620 L 120,620 L 140,620" stroke="#0000b2" stroke-width="4.0" fill="none"/>
<path d="M 180,620 L 240,620" stroke="#0000b2" stroke-width="4.0" fill="none"/>
<path d="M 340,600 L 340,620 L 600,620 L 600,540 L 680,540" stroke="#0000b2" stroke-width="4.0" fill="none"/>
<path d="M 660,120 L 660,240 L 680,240" stroke="#0000b2" stroke-width="4.0" fill="none"/>
<path d="M 180,240 L 240,240" stroke="#0000b2" stroke-width="4.0" fill="none"/>
<path d="M 100,240 L 120,240 L 140,240" stroke="#0000b2" stroke-width="4.0" fill="none"/>
<path d="M 480,560 L 500,560 L 620,560 L 620,680 L 680,680" stroke="#0000b2" stroke-width="4.0" fill="none"/>
<path d="M 100,880 L 120,880 L 140,880" stroke="#0000b2" stroke-width="4.0" fill="none"/>
<path d="M 180,880 L 240,880" stroke="#0000b2" stroke-width="4.0" fill="none"/>
<path d="M 340,860 L 340,880 L 580,880 L 580,840 L 680,840" stroke="#0000b2" stroke-width="4.0" fill="none"/>
<path d="M 660,760 L 660,880 L 680,880" stroke="#0000b2" stroke-width="4.0" fill="none"/>
<path d="M 660,380 L 660,500 L 680,500" stroke="#0000b2" stroke-width="4.0" fill="none"/>
<path d="M 180,500 L 240,500" stroke="#0000b2" stroke-width="4.0" fill="none"/>
<path d="M 100,500 L 120,500 L 140,500" stroke="#0000b2" stroke-width="4.0" fill="none"/>
<path d="M 480,820 L 500,820 L 600,820 L 600,960 L 680,960" stroke="#0000b2" stroke-width="4.0" fill="none"/>
<path d="M 180,760 L 240,760" stroke="#0000b2" stroke-width="4.0" fill="none"/>
<path d="M 100,760 L 120,760 L 140,760" stroke="#0000b2" stroke-width="4.0" fill="none"/>
<path d="M 660,240 L 660,380 L 680,380" stroke="#0000b2" stroke-width="4.0" fill="none"/>
<path d="M 680,640 L 640,640 L 640,780 L 680,780" stroke="#0000b2" stroke-width="4.0" fill="none"/>
<path d="M 640,520 L 640,640" stroke="#0000b2" stroke-width="4.0" fill="none"/>
<path d="M 680,940 L 620,940 L 620,820 L 680,820" stroke="#0000b2" stroke-width="4.0" fill="none"/>
<path d="M 620,680 L 620,820" stroke="#0000b2" stroke-width="4.0" fill="none"/>
<path d="M 680,620 L 660,620 L 660,760 L 680,760" stroke="#0000b2" stroke-width="4.0" fill="none"/>
<path d="M 660,500 L 660,620" stroke="#0000b2" stroke-width="4.0" fill="none"/>
<path d="M 681,880 L 681,889" stroke="#000000" stroke-width="4.0" fill="none"/>
<path d="M 681,960 L 681,951" stroke="#000000" stroke-width="4.0" fill="none"/>
<path d="M 681,760 L 681,769" stroke="#000000" stroke-width="4.0" fill="none"/>
<path d="M 681,840 L 681,831" stroke="#000000" stroke-width="4.0" fill="none"/>
<path d="M 681,620 L 681,629" stroke="#000000" stroke-width="4.0" fill="none"/>
<path d="M 681,700 L 681,691" stroke="#000000" stroke-width="4.0" fill="none"/>
<path d="M 901,440 L 901,449" stroke="#000000" stroke-width="4.0" fill="none"/>
<path d="M 901,520 L 901,511" stroke="#000000" stroke-width="4.0" fill="none"/>
<path d="M 901,700 L 901,709" stroke="#000000" stroke-width="4.0" fill="none"/>
<path d="M 901,780 L 901,771" stroke="#000000" stroke-width="4.0" fill="none"/>
<g>
<circle cx="340.0" cy="0.0" r="4.0" stroke="#0000b2" stroke-width="4.0" fill="#0000b2" />
<circle cx="640.0" cy="640.0" r="4.0" stroke="#0000b2" stroke-width="4.0" fill="#0000b2" />
<circle cx="340.0" cy="260.0" r="4.0" stroke="#0000b2" stroke-width="4.0" fill="#0000b2" />
<circle cx="340.0" cy="520.0" r="4.0" stroke="#0000b2" stroke-width="4.0" fill="#0000b2" />
<circle cx="640.0" cy="520.0" r="4.0" stroke="#0000b2" stroke-width="4.0" fill="#0000b2" />
<circle cx="340.0" cy="780.0" r="4.0" stroke="#0000b2" stroke-width="4.0" fill="#0000b2" />
<circle cx="640.0" cy="780.0" r="4.0" stroke="#0000b2" stroke-width="4.0" fill="#0000b2" />
<circle cx="340.0" cy="80.0" r="4.0" stroke="#0000b2" stroke-width="4.0" fill="#0000b2" />
<circle cx="640.0" cy="400.0" r="4.0" stroke="#0000b2" stroke-width="4.0" fill="#0000b2" />
<circle cx="120.0" cy="-20.0" r="4.0" stroke="#0000b2" stroke-width="4.0" fill="#0000b2" />
<circle cx="340.0" cy="340.0" r="4.0" stroke="#0000b2" stroke-width="4.0" fill="#0000b2" />
<circle cx="340.0" cy="600.0" r="4.0" stroke="#0000b2" stroke-width="4.0" fill="#0000b2" />
<circle cx="340.0" cy="860.0" r="4.0" stroke="#0000b2" stroke-width="4.0" fill="#0000b2" />
<circle cx="120.0" cy="100.0" r="4.0" stroke="#0000b2" stroke-width="4.0" fill="#0000b2" />
<circle cx="120.0" cy="360.0" r="4.0" stroke="#0000b2" stroke-width="4.0" fill="#0000b2" />
<circle cx="520.0" cy="40.0" r="4.0" stroke="#0000b2" stroke-width="4.0" fill="#0000b2" />
<circle cx="620.0" cy="680.0" r="4.0" stroke="#0000b2" stroke-width="4.0" fill="#0000b2" />
<circle cx="500.0" cy="300.0" r="4.0" stroke="#0000b2" stroke-width="4.0" fill="#0000b2" />
<circle cx="120.0" cy="620.0" r="4.0" stroke="#0000b2" stroke-width="4.0" fill="#0000b2" />
<circle cx="660.0" cy="620.0" r="4.0" stroke="#0000b2" stroke-width="4.0" fill="#0000b2" />
<circle cx="660.0" cy="240.0" r="4.0" stroke="#0000b2" stroke-width="4.0" fill="#0000b2" />
<circle cx="120.0" cy="240.0" r="4.0" stroke="#0000b2" stroke-width="4.0" fill="#0000b2" />
<circle cx="500.0" cy="560.0" r="4.0" stroke="#0000b2" stroke-width="4.0" fill="#0000b2" />
<circle cx="120.0" cy="880.0" r="4.0" stroke="#0000b2" stroke-width="4.0" fill="#0000b2" />
<circle cx="660.0" cy="500.0" r="4.0" stroke="#0000b2" stroke-width="4.0" fill="#0000b2" />
<circle cx="120.0" cy="500.0" r="4.0" stroke="#0000b2" stroke-width="4.0" fill="#0000b2" />
<circle cx="500.0" cy="820.0" r="4.0" stroke="#0000b2" stroke-width="4.0" fill="#0000b2" />
<circle cx="620.0" cy="820.0" r="4.0" stroke="#0000b2" stroke-width="4.0" fill="#0000b2" />
<circle cx="120.0" cy="760.0" r="4.0" stroke="#0000b2" stroke-width="4.0" fill="#0000b2" />
<circle cx="660.0" cy="760.0" r="4.0" stroke="#0000b2" stroke-width="4.0" fill="#0000b2" />
<circle cx="660.0" cy="120.0" r="4.0" stroke="#0000b2" stroke-width="4.0" fill="#0000b2" />
<circle cx="660.0" cy="380.0" r="4.0" stroke="#0000b2" stroke-width="4.0" fill="#0000b2" />
</g>
<g>
<path d="M 69,-35 L 99,-35 L 99,-5 L 69,-5 Z" stroke="#000000" stroke-width="4.0" fill="none"/>
<circle cx="84.0" cy="-20.0" r="9.0" stroke="#000000" stroke-width="4.0" fill="none" />
<text text-anchor="end" x="55.0" y="-11.0" fill="#000000" style="font-size:24px"><tspan style="font-style:italic;">a<tspan style="font-size:80%;baseline-shift:sub;">3</tspan></tspan></text>
<circle cx="100.0" cy="-20.0" r="2.0" stroke="#b20000" stroke-width="4.0" fill="#b20000" />
</g>
<g>
<path d="M 69,85 L 99,85 L 99,115 L 69,115 Z" stroke="#000000" stroke-width="4.0" fill="none"/>
<circle cx="84.0" cy="100.0" r="9.0" stroke="#000000" stroke-width="4.0" fill="none" />
<text text-anchor="end" x="55.0" y="109.0" fill="#000000" style="font-size:24px"><tspan style="font-style:italic;">b<tspan style="font-size:80%;baseline-shift:sub;">3</tspan></tspan></text>
<circle cx="100.0" cy="100.0" r="2.0" stroke="#b20000" stroke-width="4.0" fill="#b20000" />
</g>
<g>
<path d="M 141,-32 L 159,-20 L 141,-8 Z" stroke="#000000" stroke-width="4.0" fill="none"/>
<circle cx="170.0" cy="-20.0" r="9.0" stroke="#000000" stroke-width="4.0" fill="none" />
<circle cx="140.0" cy="-20.0" r="2.0" stroke="#0000b2" stroke-width="4.0" fill="#0000b2" />
<circle cx="180.0" cy="-20.0" r="2.0" stroke="#b20000" stroke-width="4.0" fill="#b20000" />
</g>
<g>
<path d="M 141,88 L 159,100 L 141,112 Z" stroke="#000000" stroke-width="4.0" fill="none"/>
<circle cx="170.0" cy="100.0" r="9.0" stroke="#000000" stroke-width="4.0" fill="none" />
<circle cx="140.0" cy="100.0" r="2.0" stroke="#0000b2" stroke-width="4.0" fill="#0000b2" />
<circle cx="180.0" cy="100.0" r="2.0" stroke="#b20000" stroke-width="4.0" fill="#b20000" />
</g>
<g>
<path d="M 290,30 L 241,30 L 241,-30 L 290,-30 C 300,-30 320,-20 319,0 C 319,20 300,30 290,30 Z" stroke="#000000" stroke-width="4.0" fill="none"/>
<circle cx="240.0" cy="-20.0" r="2.0" stroke="#0000b2" stroke-width="4.0" fill="#0000b2" />
<circle cx="240.0" cy="20.0" r="2.0" stroke="#0000b2" stroke-width="4.0" fill="#0000b2" />
<circle cx="320.0" cy="0.0" r="2.0" stroke="#b20000" stroke-width="4.0" fill="#b20000" />
</g>
<g>
<path d="M 290,110 L 241,110 L 241,50 L 290,50 C 300,50 320,60 319,80 C 319,100 300,110 290,110 Z" stroke="#000000" stroke-width="4.0" fill="none"/>
<circle cx="240.0" cy="60.0" r="2.0" stroke="#0000b2" stroke-width="4.0" fill="#0000b2" />
<circle cx="240.0" cy="100.0" r="2.0" stroke="#0000b2" stroke-width="4.0" fill="#0000b2" />
<circle cx="320.0" cy="80.0" r="2.0" stroke="#b20000" stroke-width="4.0" fill="#b20000" />
</g>
<g>
<path d="M 410,70 L 380,70 C 390,54 390,26 380,10 L 400,10 C 430,10 450,20 460,40 C 450,60 430,70 410,70 Z" stroke="#000000" stroke-width="4.0" fill="none"/>
<circle cx="470.0" cy="40.0" r="9.0" stroke="#000000" stroke-width="4.0" fill="none" />
<circle cx="380.0" cy="20.0" r="2.0" stroke="#0000b2" stroke-width="4.0" fill="#0000b2" />
<circle cx="380.0" cy="60.0" r="2.0" stroke="#0000b2" stroke-width="4.0" fill="#0000b2" />
<circle cx="480.0" cy="40.0" r="2.0" stroke="#b20000" stroke-width="4.0" fill="#b20000" />
</g>
<g>
<circle cx="551.0" cy="20.0" r="4.0" stroke="#000000" stroke-width="2.0" fill="none" />
<circle cx="551.0" cy="20.0" r="10.0" stroke="#000000" stroke-width="4.0" fill="none" />
<text text-anchor="start" x="570.0" y="29.0" fill="#000000" style="font-size:24px"><tspan style="font-style:italic;">x<tspan style="font-size:80%;baseline-shift:sub;">3</tspan></tspan></text>
<circle cx="540.0" cy="20.0" r="2.0" stroke="#0000b2" stroke-width="4.0" fill="#0000b2" />
</g>
<g>
<path d="M 69,225 L 99,225 L 99,255 L 69,255 Z" stroke="#000000" stroke-width="4.0" fill="none"/>
<circle cx="84.0" cy="240.0" r="9.0" stroke="#000000" stroke-width="4.0" fill="none" />
<text text-anchor="end" x="55.0" y="249.0" fill="#000000" style="font-size:24px"><tspan style="font-style:italic;">a<tspan style="font-size:80%;baseline-shift:sub;">2</tspan></tspan></text>
<circle cx="100.0" cy="240.0" r="2.0" stroke="#b20000" stroke-width="4.0" fill="#b20000" />
</g>
<g>
<path d="M 69,345 L 99,345 L 99,375 L 69,375 Z" stroke="#000000" stroke-width="4.0" fill="none"/>
<circle cx="84.0" cy="360.0" r="9.0" stroke="#000000" stroke-width="4.0" fill="none" />
<text text-anchor="end" x="55.0" y="369.0" fill="#000000" style="font-size:24px"><tspan style="font-style:italic;">b<tspan style="font-size:80%;baseline-shift:sub;">2</tspan></tspan></text>
<circle cx="100.0" cy="360.0" r="2.0" stroke="#b20000" stroke-width="4.0" fill="#b20000" />
</g>
<g>
<path d="M 141,228 L 159,240 L 141,252 Z" stroke="#000000" stroke-width="4.0" fill="none"/>
<circle cx="170.0" cy="240.0" r="9.0" stroke="#000000" stroke-width="4.0" fill="none" />
<circle cx="140.0" cy="240.0" r="2.0" stroke="#0000b2" stroke-width="4.0" fill="#0000b2" />
<circle cx="180.0" cy="240.0" r="2.0" stroke="#b20000" stroke-width="4.0" fill="#b20000" />
</g>
<g>
<path d="M 141,348 L 159,360 L 141,372 Z" stroke="#000000" stroke-width="4.0" fill="none"/>
<circle cx="170.0" cy="360.0" r="9.0" stroke="#000000" stroke-width="4.0" fill="none" />
<circle cx="140.0" cy="360.0" r="2.0" stroke="#0000b2" stroke-width="4.0" fill="#0000b2" />
<circle cx="180.0" cy="360.0" r="2.0" stroke="#b20000" stroke-width="4.0" fill="#b20000" />
</g>
<g>
<path d="M 290,290 L 241,290 L 241,230 L 290,230 C 300,230 320,240 319,260 C 319,280 300,290 290,290 Z" stroke="#000000" stroke-width="4.0" fill="none"/>
<circle cx="240.0" cy="240.0" r="2.0" stroke="#0000b2" stroke-width="4.0" fill="#0000b2" />
<circle cx="240.0" cy="280.0" r="2.0" stroke="#0000b2" stroke-width="4.0" fill="#0000b2" />
<circle cx="320.0" cy="260.0" r="2.0" stroke="#b20000" stroke-width="4.0" fill="#b20000" />
</g>
<g>
<path d="M 290,370 L 241,370 L 241,310 L 290,310 C 300,310 320,320 319,340 C 319,360 300,370 290,370 Z" stroke="#000000" stroke-width="4.0" fill="none"/>
<circle cx="240.0" cy="320.0" r="2.0" stroke="#0000b2" stroke-width="4.0" fill="#0000b2" />
<circle cx="240.0" cy="360.0" r="2.0" stroke="#0000b2" stroke-width="4.0" fill="#0000b2" />
<circle cx="320.0" cy="340.0" r="2.0" stroke="#b20000" stroke-width="4.0" fill="#b20000" />
</g>
<g>
<path d="M 410,330 L 380,330 C 390,314 390,286 380,270 L 400,270 C 430,270 450,280 460,300 C 450,320 430,330 410,330 Z" stroke="#000000" stroke-width="4.0" fill="none"/>
<circle cx="470.0" cy="300.0" r="9.0" stroke="#000000" stroke-width="4.0" fill="none" />
<circle cx="380.0" cy="280.0" r="2.0" stroke="#0000b2" stroke-width="4.0" fill="#0000b2" />
<circle cx="380.0" cy="320.0" r="2.0" stroke="#0000b2" stroke-width="4.0" fill="#0000b2" />
<circle cx="480.0" cy="300.0" r="2.0" stroke="#b20000" stroke-width="4.0" fill="#b20000" />
</g>
<g>
<circle cx="531.0" cy="280.0" r="4.0" stroke="#000000" stroke-width="2.0" fill="none" />
<circle cx="531.0" cy="280.0" r="10.0" stroke="#000000" stroke-width="4.0" fill="none" />
<text text-anchor="start" x="550.0" y="289.0" fill="#000000" style="font-size:24px"><tspan style="font-style:italic;">x<tspan style="font-size:80%;baseline-shift:sub;">2</tspan></tspan></text>
<circle cx="520.0" cy="280.0" r="2.0" stroke="#0000b2" stroke-width="4.0" fill="#0000b2" />
</g>
<g>
<path d="M 69,485 L 99,485 L 99,515 L 69,515 Z" stroke="#000000" stroke-width="4.0" fill="none"/>
<circle cx="84.0" cy="500.0" r="9.0" stroke="#000000" stroke-width="4.0" fill="none" />
<text text-anchor="end" x="55.0" y="509.0" fill="#000000" style="font-size:24px"><tspan style="font-style:italic;">a<tspan style="font-size:80%;baseline-shift:sub;">1</tspan></tspan></text>
<circle cx="100.0" cy="500.0" r="2.0" stroke="#b20000" stroke-width="4.0" fill="#b20000" />
</g>
<g>
<path d="M 69,605 L 99,605 L 99,635 L 69,635 Z" stroke="#000000" stroke-width="4.0" fill="none"/>
<circle cx="84.0" cy="620.0" r="9.0" stroke="#000000" stroke-width="4.0" fill="none" />
<text text-anchor="end" x="55.0" y="629.0" fill="#000000" style="font-size:24px"><tspan style="font-style:italic;">b<tspan style="font-size:80%;baseline-shift:sub;">1</tspan></tspan></text>
<circle cx="100.0" cy="620.0" r="2.0" stroke="#b20000" stroke-width="4.0" fill="#b20000" />
</g>
<g>
<path d="M 141,488 L 159,500 L 141,512 Z" stroke="#000000" stroke-width="4.0" fill="none"/>
<circle cx="170.0" cy="500.0" r="9.0" stroke="#000000" stroke-width="4.0" fill="none" />
<circle cx="140.0" cy="500.0" r="2.0" stroke="#0000b2" stroke-width="4.0" fill="#0000b2" />
<circle cx="180.0" cy="500.0" r="2.0" stroke="#b20000" stroke-width="4.0" fill="#b20000" />
</g>
<g>
<path d="M 141,608 L 159,620 L 141,632 Z" stroke="#000000" stroke-width="4.0" fill="none"/>
<circle cx="170.0" cy="620.0" r="9.0" stroke="#000000" stroke-width="4.0" fill="none" />
<circle cx="140.0" cy="620.0" r="2.0" stroke="#0000b2" stroke-width="4.0" fill="#0000b2" />
<circle cx="180.0" cy="620.0" r="2.0" stroke="#b20000" stroke-width="4.0" fill="#b20000" />
</g>
<g>
<path d="M 290,550 L 241,550 L 241,490 L 290,490 C 300,490 320,500 319,520 C 319,540 300,550 290,550 Z" stroke="#000000" stroke-width="4.0" fill="none"/>
<circle cx="240.0" cy="500.0" r="2.0" stroke="#0000b2" stroke-width="4.0" fill="#0000b2" />
<circle cx="240.0" cy="540.0" r="2.0" stroke="#0000b2" stroke-width="4.0" fill="#0000b2" />
<circle cx="320.0" cy="520.0" r="2.0" stroke="#b20000" stroke-width="4.0" fill="#b20000" />
</g>
<g>
<path d="M 290,630 L 241,630 L 241,570 L 290,570 C 300,570 320,580 319,600 C 319,620 300,630 290,630 Z" stroke="#000000" stroke-width="4.0" fill="none"/>
<circle cx="240.0" cy="580.0" r="2.0" stroke="#0000b2" stroke-width="4.0" fill="#0000b2" />
<circle cx="240.0" cy="620.0" r="2.0" stroke="#0000b2" stroke-width="4.0" fill="#0000b2" />
<circle cx="320.0" cy="600.0" r="2.0" stroke="#b20000" stroke-width="4.0" fill="#b20000" />
</g>
<g>
<path d="M 410,590 L 380,590 C 390,574 390,546 380,530 L 400,530 C 430,530 450,540 460,560 C 450,580 430,590 410,590 Z" stroke="#000000" stroke-width="4.0" fill="none"/>
<circle cx="470.0" cy="560.0" r="9.0" stroke="#000000" stroke-width="4.0" fill="none" />
<circle cx="380.0" cy="540.0" r="2.0" stroke="#0000b2" stroke-width="4.0" fill="#0000b2" />
<circle cx="380.0" cy="580.0" r="2.0" stroke="#0000b2" stroke-width="4.0" fill="#0000b2" />
<circle cx="480.0" cy="560.0" r="2.0" stroke="#b20000" stroke-width="4.0" fill="#b20000" />
</g>
<g>
<circle cx="531.0" cy="540.0" r="4.0" stroke="#000000" stroke-width="2.0" fill="none" />
<circle cx="531.0" cy="540.0" r="10.0" stroke="#000000" stroke-width="4.0" fill="none" />
<text text-anchor="start" x="550.0" y="549.0" fill="#000000" style="font-size:24px"><tspan style="font-style:italic;">x<tspan style="font-size:80%;baseline-shift:sub;">1</tspan></tspan></text>
<circle cx="520.0" cy="540.0" r="2.0" stroke="#0000b2" stroke-width="4.0" fill="#0000b2" />
</g>
<g>
<path d="M 69,745 L 99,745 L 99,775 L 69,775 Z" stroke="#000000" stroke-width="4.0" fill="none"/>
<circle cx="84.0" cy="760.0" r="9.0" stroke="#000000" stroke-width="4.0" fill="none" />
<text text-anchor="end" x="55.0" y="769.0" fill="#000000" style="font-size:24px"><tspan style="font-style:italic;">a<tspan style="font-size:80%;baseline-shift:sub;">0</tspan></tspan></text>
<circle cx="100.0" cy="760.0" r="2.0" stroke="#b20000" stroke-width="4.0" fill="#b20000" />
</g>
<g>
<path d="M 69,865 L 99,865 L 99,895 L 69,895 Z" stroke="#000000" stroke-width="4.0" fill="none"/>
<circle cx="84.0" cy="880.0" r="9.0" stroke="#000000" stroke-width="4.0" fill="none" />
<text text-anchor="end" x="55.0" y="889.0" fill="#000000" style="font-size:24px"><tspan style="font-style:italic;">b<tspan style="font-size:80%;baseline-shift:sub;">0</tspan></tspan></text>
<circle cx="100.0" cy="880.0" r="2.0" stroke="#b20000" stroke-width="4.0" fill="#b20000" />
</g>
<g>
<path d="M 141,748 L 159,760 L 141,772 Z" stroke="#000000" stroke-width="4.0" fill="none"/>
<circle cx="170.0" cy="760.0" r="9.0" stroke="#000000" stroke-width="4.0" fill="none" />
<circle cx="140.0" cy="760.0" r="2.0" stroke="#0000b2" stroke-width="4.0" fill="#0000b2" />
<circle cx="180.0" cy="760.0" r="2.0" stroke="#b20000" stroke-width="4.0" fill="#b20000" />
</g>
<g>
<path d="M 141,868 L 159,880 L 141,892 Z" stroke="#000000" stroke-width="4.0" fill="none"/>
<circle cx="170.0" cy="880.0" r="9.0" stroke="#000000" stroke-width="4.0" fill="none" />
<circle cx="140.0" cy="880.0" r="2.0" stroke="#0000b2" stroke-width="4.0" fill="#0000b2" />
<circle cx="180.0" cy="880.0" r="2.0" stroke="#b20000" stroke-width="4.0" fill="#b20000" />
</g>
<g>
<path d="M 290,810 L 241,810 L 241,750 L 290,750 C 300,750 320,760 319,780 C 319,800 300,810 290,810 Z" stroke="#000000" stroke-width="4.0" fill="none"/>
<circle cx="240.0" cy="760.0" r="2.0" stroke="#0000b2" stroke-width="4.0" fill="#0000b2" />
<circle cx="240.0" cy="800.0" r="2.0" stroke="#0000b2" stroke-width="4.0" fill="#0000b2" />
<circle cx="320.0" cy="780.0" r="2.0" stroke="#b20000" stroke-width="4.0" fill="#b20000" />
</g>
<g>
<path d="M 290,890 L 241,890 L 241,830 L 290,830 C 300,830 320,840 319,860 C 319,880 300,890 290,890 Z" stroke="#000000" stroke-width="4.0" fill="none"/>
<circle cx="240.0" cy="840.0" r="2.0" stroke="#0000b2" stroke-width="4.0" fill="#0000b2" />
<circle cx="240.0" cy="880.0" r="2.0" stroke="#0000b2" stroke-width="4.0" fill="#0000b2" />
<circle cx="320.0" cy="860.0" r="2.0" stroke="#b20000" stroke-width="4.0" fill="#b20000" />
</g>
<g>
<path d="M 410,850 L 380,850 C 390,834 390,806 380,790 L 400,790 C 430,790 450,800 460,820 C 450,840 430,850 410,850 Z" stroke="#000000" stroke-width="4.0" fill="none"/>
<circle cx="470.0" cy="820.0" r="9.0" stroke="#000000" stroke-width="4.0" fill="none" />
<circle cx="380.0" cy="800.0" r="2.0" stroke="#0000b2" stroke-width="4.0" fill="#0000b2" />
<circle cx="380.0" cy="840.0" r="2.0" stroke="#0000b2" stroke-width="4.0" fill="#0000b2" />
<circle cx="480.0" cy="820.0" r="2.0" stroke="#b20000" stroke-width="4.0" fill="#b20000" />
</g>
<g>
<circle cx="531.0" cy="800.0" r="4.0" stroke="#000000" stroke-width="2.0" fill="none" />
<circle cx="531.0" cy="800.0" r="10.0" stroke="#000000" stroke-width="4.0" fill="none" />
<text text-anchor="start" x="550.0" y="809.0" fill="#000000" style="font-size:24px"><tspan style="font-style:italic;">x<tspan style="font-size:80%;baseline-shift:sub;">0</tspan></tspan></text>
<circle cx="520.0" cy="800.0" r="2.0" stroke="#0000b2" stroke-width="4.0" fill="#0000b2" />
</g>
<g>
<path d="M 730,950 L 681,950 L 681,890 L 730,890 C 740,890 760,900 759,920 C 759,940 740,950 730,950 Z" stroke="#000000" stroke-width="4.0" fill="none"/>
<circle cx="680.0" cy="880.0" r="2.0" stroke="#0000b2" stroke-width="4.0" fill="#0000b2" />
<circle cx="680.0" cy="900.0" r="2.0" stroke="#0000b2" stroke-width="4.0" fill="#0000b2" />
<circle cx="680.0" cy="940.0" r="2.0" stroke="#0000b2" stroke-width="4.0" fill="#0000b2" />
<circle cx="680.0" cy="960.0" r="2.0" stroke="#0000b2" stroke-width="4.0" fill="#0000b2" />
<circle cx="760.0" cy="920.0" r="2.0" stroke="#b20000" stroke-width="4.0" fill="#b20000" />
</g>
<g>
<path d="M 730,830 L 681,830 L 681,770 L 730,770 C 740,770 760,780 759,800 C 759,820 740,830 730,830 Z" stroke="#000000" stroke-width="4.0" fill="none"/>
<circle cx="680.0" cy="760.0" r="2.0" stroke="#0000b2" stroke-width="4.0" fill="#0000b2" />
<circle cx="680.0" cy="780.0" r="2.0" stroke="#0000b2" stroke-width="4.0" fill="#0000b2" />
<circle cx="680.0" cy="820.0" r="2.0" stroke="#0000b2" stroke-width="4.0" fill="#0000b2" />
<circle cx="680.0" cy="840.0" r="2.0" stroke="#0000b2" stroke-width="4.0" fill="#0000b2" />
<circle cx="760.0" cy="800.0" r="2.0" stroke="#b20000" stroke-width="4.0" fill="#b20000" />
</g>
<g>
<path d="M 730,690 L 681,690 L 681,630 L 730,630 C 740,630 760,640 759,660 C 759,680 740,690 730,690 Z" stroke="#000000" stroke-width="4.0" fill="none"/>
<circle cx="680.0" cy="620.0" r="2.0" stroke="#0000b2" stroke-width="4.0" fill="#0000b2" />
<circle cx="680.0" cy="640.0" r="2.0" stroke="#0000b2" stroke-width="4.0" fill="#0000b2" />
<circle cx="680.0" cy="680.0" r="2.0" stroke="#0000b2" stroke-width="4.0" fill="#0000b2" />
<circle cx="680.0" cy="700.0" r="2.0" stroke="#0000b2" stroke-width="4.0" fill="#0000b2" />
<circle cx="760.0" cy="660.0" r="2.0" stroke="#b20000" stroke-width="4.0" fill="#b20000" />
</g>
<g>
<path d="M 730,550 L 681,550 L 681,490 L 730,490 C 740,490 760,500 759,520 C 759,540 740,550 730,550 Z" stroke="#000000" stroke-width="4.0" fill="none"/>
<circle cx="680.0" cy="500.0" r="2.0" stroke="#0000b2" stroke-width="4.0" fill="#0000b2" />
<circle cx="680.0" cy="520.0" r="2.0" stroke="#0000b2" stroke-width="4.0" fill="#0000b2" />
<circle cx="680.0" cy="540.0" r="2.0" stroke="#0000b2" stroke-width="4.0" fill="#0000b2" />
<circle cx="760.0" cy="520.0" r="2.0" stroke="#b20000" stroke-width="4.0" fill="#b20000" />
</g>
<g>
<path d="M 730,430 L 681,430 L 681,370 L 730,370 C 740,370 760,380 759,400 C 759,420 740,430 730,430 Z" stroke="#000000" stroke-width="4.0" fill="none"/>
<circle cx="680.0" cy="380.0" r="2.0" stroke="#0000b2" stroke-width="4.0" fill="#0000b2" />
<circle cx="680.0" cy="400.0" r="2.0" stroke="#0000b2" stroke-width="4.0" fill="#0000b2" />
<circle cx="680.0" cy="420.0" r="2.0" stroke="#0000b2" stroke-width="4.0" fill="#0000b2" />
<circle cx="760.0" cy="400.0" r="2.0" stroke="#b20000" stroke-width="4.0" fill="#b20000" />
</g>
<g>
<path d="M 730,290 L 681,290 L 681,230 L 730,230 C 740,230 760,240 759,260 C 759,280 740,290 730,290 Z" stroke="#000000" stroke-width="4.0" fill="none"/>
<circle cx="680.0" cy="240.0" r="2.0" stroke="#0000b2" stroke-width="4.0" fill="#0000b2" />
<circle cx="680.0" cy="280.0" r="2.0" stroke="#0000b2" stroke-width="4.0" fill="#0000b2" />
<circle cx="760.0" cy="260.0" r="2.0" stroke="#b20000" stroke-width="4.0" fill="#b20000" />
</g>
<g>
<path d="M 730,170 L 681,170 L 681,110 L 730,110 C 740,110 760,120 759,140 C 759,160 740,170 730,170 Z" stroke="#000000" stroke-width="4.0" fill="none"/>
<circle cx="680.0" cy="120.0" r="2.0" stroke="#0000b2" stroke-width="4.0" fill="#0000b2" />
<circle cx="680.0" cy="160.0" r="2.0" stroke="#0000b2" stroke-width="4.0" fill="#0000b2" />
<circle cx="760.0" cy="140.0" r="2.0" stroke="#b20000" stroke-width="4.0" fill="#b20000" />
</g>
<g>
<path d="M 930,510 L 900,510 C 910,494 910,466 900,450 L 920,450 C 950,450 970,460 980,480 C 970,500 950,510 930,510 Z" stroke="#000000" stroke-width="4.0" fill="none"/>
<circle cx="900.0" cy="440.0" r="2.0" stroke="#0000b2" stroke-width="4.0" fill="#0000b2" />
<circle cx="900.0" cy="460.0" r="2.0" stroke="#0000b2" stroke-width="4.0" fill="#0000b2" />
<circle cx="900.0" cy="500.0" r="2.0" stroke="#0000b2" stroke-width="4.0" fill="#0000b2" />
<circle cx="900.0" cy="520.0" r="2.0" stroke="#0000b2" stroke-width="4.0" fill="#0000b2" />
<circle cx="980.0" cy="480.0" r="2.0" stroke="#b20000" stroke-width="4.0" fill="#b20000" />
</g>
<g>
<path d="M 930,770 L 900,770 C 910,754 910,726 900,710 L 920,710 C 950,710 970,720 980,740 C 970,760 950,770 930,770 Z" stroke="#000000" stroke-width="4.0" fill="none"/>
<circle cx="900.0" cy="700.0" r="2.0" stroke="#0000b2" stroke-width="4.0" fill="#0000b2" />
<circle cx="900.0" cy="720.0" r="2.0" stroke="#0000b2" stroke-width="4.0" fill="#0000b2" />
<circle cx="900.0" cy="760.0" r="2.0" stroke="#0000b2" stroke-width="4.0" fill="#0000b2" />
<circle cx="900.0" cy="780.0" r="2.0" stroke="#0000b2" stroke-width="4.0" fill="#0000b2" />
<circle cx="980.0" cy="740.0" r="2.0" stroke="#b20000" stroke-width="4.0" fill="#b20000" />
</g>
<g>
<circle cx="1036.0" cy="480.0" r="9.0" stroke="#000000" stroke-width="4.0" fill="none" />
<circle cx="1036.0" cy="480.0" r="15.0" stroke="#000000" stroke-width="4.0" fill="none" />
<text text-anchor="start" x="1065.0" y="489.0" fill="#000000" style="font-size:24px"><tspan style="font-style:italic;">A&lt;B</tspan></text>
<circle cx="1020.0" cy="480.0" r="2.0" stroke="#0000b2" stroke-width="4.0" fill="#0000b2" />
</g>
<g>
<circle cx="1036.0" cy="740.0" r="9.0" stroke="#000000" stroke-width="4.0" fill="none" />
<circle cx="1036.0" cy="740.0" r="15.0" stroke="#000000" stroke-width="4.0" fill="none" />
<text text-anchor="start" x="1065.0" y="749.0" fill="#000000" style="font-size:24px"><tspan style="font-style:italic;">A&gt;B</tspan></text>
<circle cx="1020.0" cy="740.0" r="2.0" stroke="#0000b2" stroke-width="4.0" fill="#0000b2" />
</g>
<g>
<circle cx="1036.0" cy="920.0" r="9.0" stroke="#000000" stroke-width="4.0" fill="none" />
<circle cx="1036.0" cy="920.0" r="15.0" stroke="#000000" stroke-width="4.0" fill="none" />
<text text-anchor="start" x="1065.0" y="929.0" fill="#000000" style="font-size:24px"><tspan style="font-style:italic;">A=B</tspan></text>
<circle cx="1020.0" cy="920.0" r="2.0" stroke="#0000b2" stroke-width="4.0" fill="#0000b2" />
</g>
</g>
</svg>