<?xml version="1.0" encoding="UTF-8" standalone="no"?>
<!-- Created with Digital by H.Neemann -->

<!-- created: Sat Jan 29 10:22:37 EST 2022 -->

<svg
   xmlns:dc="http://purl.org/dc/elements/1.1/"
   xmlns:cc="http://creativecommons.org/ns#"
   xmlns:rdf="http://www.w3.org/1999/02/22-rdf-syntax-ns#"
   xmlns:svg="http://www.w3.org/2000/svg"
   xmlns="http://www.w3.org/2000/svg"
   xmlns:sodipodi="http://sodipodi.sourceforge.net/DTD/sodipodi-0.dtd"
   xmlns:inkscape="http://www.inkscape.org/namespaces/inkscape"
   width="82.032425mm"
   height="63.150002mm"
   viewBox="-720 -117 546.88282 421.00002"
   version="1.1"
   id="svg964"
   sodipodi:docname="compt_chargement_trace_charge.svg"
   inkscape:version="0.92.5 (2060ec1f9f, 2020-04-08)">
  <metadata
     id="metadata970">
    <rdf:RDF>
      <cc:Work
         rdf:about="">
        <dc:format>image/svg+xml</dc:format>
        <dc:type
           rdf:resource="http://purl.org/dc/dcmitype/StillImage" />
        <dc:title></dc:title>
      </cc:Work>
    </rdf:RDF>
  </metadata>
  <defs
     id="defs968" />
  <sodipodi:namedview
     pagecolor="#ffffff"
     bordercolor="#666666"
     borderopacity="1"
     objecttolerance="10"
     gridtolerance="10"
     guidetolerance="10"
     inkscape:pageopacity="0"
     inkscape:pageshadow="2"
     inkscape:window-width="1308"
     inkscape:window-height="704"
     id="namedview966"
     showgrid="false"
     fit-margin-top="0"
     fit-margin-left="0"
     fit-margin-right="0"
     fit-margin-bottom="0"
     inkscape:zoom="0.34660932"
     inkscape:cx="-268.82329"
     inkscape:cy="23.81105"
     inkscape:window-x="58"
     inkscape:window-y="27"
     inkscape:window-maximized="1"
     inkscape:current-layer="svg964" />
  <path
     style="fill:none;stroke:#000000;stroke-width:4;stroke-linecap:square"
     inkscape:connector-curvature="0"
     id="path10"
     d="m -625.11719,-86.5 h 25 25 25 25 25 25 25 25 25 25 25 25 25 25 25 25 25 25" />
  <path
     style="fill:none;stroke:#000000;stroke-width:4;stroke-linecap:square"
     inkscape:connector-curvature="0"
     id="path12"
     d="m -625.11719,-51.5 h 25 v -25 h 25 25 25 25 25 25 25 25 25 25 v 25 h 25 25 25 25 25 25 25" />
  <path
     style="fill:none;stroke:#000000;stroke-width:4;stroke-linecap:square"
     inkscape:connector-curvature="0"
     id="path14"
     d="m -625.11719,-16.5 h 25 25 25 25 25 25 25 25 25 25 25 v -25 h 25 25 25 25 25 25 25" />
  <path
     style="fill:none;stroke:#000000;stroke-width:4;stroke-linecap:square"
     inkscape:connector-curvature="0"
     id="path16"
     d="m -625.11719,18.5 h 25 v -25 h 25 v 25 h 25 v -25 h 25 v 25 h 25 v -25 h 25 v 25 h 25 v -25 h 25 v 25 h 25 v -25 h 25 v 25 h 25 v -25 h 25 v 25 h 25 v -25 h 25 v 25 h 25 v -25 h 25 v 25 h 25 v -25 h 25" />
  <path
     style="fill:none;stroke:#000000;stroke-width:4;stroke-linecap:square"
     inkscape:connector-curvature="0"
     id="path18"
     d="m -625.11719,53.5 h 25 25 25 25 25 25 25 25 25 25 25 25 25 25 25 25 25 25" />
  <path
     style="fill:none;stroke:#000000;stroke-width:4;stroke-linecap:square"
     inkscape:connector-curvature="0"
     id="path20"
     d="m -625.11719,88.5 h 25 25 25 25 25 25 25 25 25 25 25 25 25 25 25 25 25 25" />
  <path
     style="fill:none;stroke:#000000;stroke-width:4;stroke-linecap:square"
     inkscape:connector-curvature="0"
     id="path22"
     d="m -625.11719,123.5 h 25 25 25 25 25 25 25 25 25 25 25 v -25 h 25 25 25 25 25 25 25" />
  <path
     style="fill:none;stroke:#000000;stroke-width:4;stroke-linecap:square"
     inkscape:connector-curvature="0"
     id="path24"
     d="m -625.11719,158.5 h 25 25 25 25 25 25 25 25 25 25 25 v -25 h 25 25 25 25 25 25 25" />
  <path
     style="fill:none;stroke:#000000;stroke-width:4;stroke-linecap:square"
     inkscape:connector-curvature="0"
     id="path26"
     d="m -625.11719,193.5 h 25 25 25 v -25 h 25 25 v 25 h 25 25 v -25 h 25 25 v 25 h 25 25 v -25 h 25 25 v 25 h 25 25 25 25 25" />
  <path
     style="fill:none;stroke:#000000;stroke-width:4;stroke-linecap:square"
     inkscape:connector-curvature="0"
     id="path28"
     d="m -625.11719,228.5 h 25 25 25 25 25 v -25 h 25 25 25 25 v 25 h 25 25 25 25 25 25 25 25 25" />
  <path
     style="fill:none;stroke:#000000;stroke-width:4;stroke-linecap:square"
     inkscape:connector-curvature="0"
     id="path30"
     d="m -625.11719,263.5 h 25 25 25 25 25 25 25 25 25 v -25 h 25 25 25 25 25 25 25 25 25" />
  <path
     style="fill:none;stroke:#000000;stroke-width:4;stroke-linecap:square"
     inkscape:connector-curvature="0"
     id="path32"
     d="m -625.11719,298.5 h 25 25 25 25 25 25 25 25 25 25 25 25 25 v -25 h 25 25 25 25 25" />
  <path
     style="fill:none;stroke:#000000;stroke-width:1;stroke-linecap:square;stroke-dasharray:4, 4"
     inkscape:connector-curvature="0"
     id="path144"
     d="m -625.11719,-81.5 h 450" />
  <path
     style="fill:none;stroke:#000000;stroke-width:1;stroke-linecap:square;stroke-dasharray:4, 4"
     inkscape:connector-curvature="0"
     id="path146"
     d="m -625.11719,-46.5 h 450" />
  <path
     style="fill:none;stroke:#000000;stroke-width:1;stroke-linecap:square;stroke-dasharray:4, 4"
     inkscape:connector-curvature="0"
     id="path148"
     d="m -625.11719,-11.5 h 450" />
  <path
     style="fill:none;stroke:#000000;stroke-width:1;stroke-linecap:square;stroke-dasharray:4, 4"
     inkscape:connector-curvature="0"
     id="path150"
     d="m -625.11719,23.5 h 450" />
  <path
     style="fill:none;stroke:#000000;stroke-width:1;stroke-linecap:square;stroke-dasharray:4, 4"
     inkscape:connector-curvature="0"
     id="path152"
     d="m -625.11719,58.5 h 450" />
  <path
     style="fill:none;stroke:#000000;stroke-width:1;stroke-linecap:square;stroke-dasharray:4, 4"
     inkscape:connector-curvature="0"
     id="path154"
     d="m -625.11719,93.5 h 450" />
  <path
     style="fill:none;stroke:#000000;stroke-width:1;stroke-linecap:square;stroke-dasharray:4, 4"
     inkscape:connector-curvature="0"
     id="path156"
     d="m -625.11719,128.5 h 450" />
  <path
     style="fill:none;stroke:#000000;stroke-width:1;stroke-linecap:square;stroke-dasharray:4, 4"
     inkscape:connector-curvature="0"
     id="path158"
     d="m -625.11719,163.5 h 450" />
  <path
     style="fill:none;stroke:#000000;stroke-width:1;stroke-linecap:square;stroke-dasharray:4, 4"
     inkscape:connector-curvature="0"
     id="path160"
     d="m -625.11719,198.5 h 450" />
  <path
     style="fill:none;stroke:#000000;stroke-width:1;stroke-linecap:square;stroke-dasharray:4, 4"
     inkscape:connector-curvature="0"
     id="path162"
     d="m -625.11719,233.5 h 450" />
  <path
     style="fill:none;stroke:#000000;stroke-width:1;stroke-linecap:square;stroke-dasharray:4, 4"
     inkscape:connector-curvature="0"
     id="path164"
     d="m -625.11719,268.5 h 450" />
  <path
     style="fill:none;stroke:#000000;stroke-width:1;stroke-linecap:square;stroke-dasharray:4, 4"
     inkscape:connector-curvature="0"
     id="path166"
     d="m -175.11719,-116.5 h -450 v 420 h 450 z" />
  <path
     style="fill:none;stroke:#000000;stroke-width:1;stroke-linecap:square;stroke-dasharray:4, 4"
     inkscape:connector-curvature="0"
     id="path168"
     d="m -600.11719,-116.5 v 420" />
  <path
     style="fill:none;stroke:#000000;stroke-width:1;stroke-linecap:square;stroke-dasharray:4, 4"
     inkscape:connector-curvature="0"
     id="path170"
     d="m -575.11719,-116.5 v 420" />
  <path
     style="fill:none;stroke:#000000;stroke-width:1;stroke-linecap:square;stroke-dasharray:4, 4"
     inkscape:connector-curvature="0"
     id="path172"
     d="m -550.11719,-116.5 v 420" />
  <path
     style="fill:none;stroke:#000000;stroke-width:1;stroke-linecap:square;stroke-dasharray:4, 4"
     inkscape:connector-curvature="0"
     id="path174"
     d="m -525.11719,-116.5 v 420" />
  <path
     style="fill:none;stroke:#000000;stroke-width:1;stroke-linecap:square;stroke-dasharray:4, 4"
     inkscape:connector-curvature="0"
     id="path176"
     d="m -500.11719,-116.5 v 420" />
  <path
     style="fill:none;stroke:#000000;stroke-width:1;stroke-linecap:square;stroke-dasharray:4, 4"
     inkscape:connector-curvature="0"
     id="path178"
     d="m -475.11719,-116.5 v 420" />
  <path
     style="fill:none;stroke:#000000;stroke-width:1;stroke-linecap:square;stroke-dasharray:4, 4"
     inkscape:connector-curvature="0"
     id="path180"
     d="m -450.11719,-116.5 v 420" />
  <path
     style="fill:none;stroke:#000000;stroke-width:1;stroke-linecap:square;stroke-dasharray:4, 4"
     inkscape:connector-curvature="0"
     id="path182"
     d="m -425.11719,-116.5 v 420" />
  <path
     style="fill:none;stroke:#000000;stroke-width:1;stroke-linecap:square;stroke-dasharray:4, 4"
     inkscape:connector-curvature="0"
     id="path184"
     d="m -400.11719,-116.5 v 420" />
  <path
     style="fill:none;stroke:#000000;stroke-width:1;stroke-linecap:square;stroke-dasharray:4, 4"
     inkscape:connector-curvature="0"
     id="path186"
     d="m -375.11719,-116.5 v 420" />
  <path
     style="fill:none;stroke:#000000;stroke-width:1;stroke-linecap:square;stroke-dasharray:4, 4"
     inkscape:connector-curvature="0"
     id="path188"
     d="m -350.11719,-116.5 v 420" />
  <path
     style="fill:none;stroke:#000000;stroke-width:1;stroke-linecap:square;stroke-dasharray:4, 4"
     inkscape:connector-curvature="0"
     id="path190"
     d="m -325.11719,-116.5 v 420" />
  <path
     style="fill:none;stroke:#000000;stroke-width:1;stroke-linecap:square;stroke-dasharray:4, 4"
     inkscape:connector-curvature="0"
     id="path192"
     d="m -300.11719,-116.5 v 420" />
  <path
     style="fill:none;stroke:#000000;stroke-width:1;stroke-linecap:square;stroke-dasharray:4, 4"
     inkscape:connector-curvature="0"
     id="path194"
     d="m -275.11719,-116.5 v 420" />
  <path
     style="fill:none;stroke:#000000;stroke-width:1;stroke-linecap:square;stroke-dasharray:4, 4"
     inkscape:connector-curvature="0"
     id="path196"
     d="m -250.11719,-116.5 v 420" />
  <path
     style="fill:none;stroke:#000000;stroke-width:1;stroke-linecap:square;stroke-dasharray:4, 4"
     inkscape:connector-curvature="0"
     id="path198"
     d="m -225.11719,-116.5 v 420" />
  <path
     style="fill:none;stroke:#000000;stroke-width:1;stroke-linecap:square;stroke-dasharray:4, 4"
     inkscape:connector-curvature="0"
     id="path200"
     d="m -200.11719,-116.5 v 420" />
  <g
     style="stroke-linecap:square"
     id="g960"
     transform="translate(-1317.1172,-221.5)">
    <text
       id="text920"
       style="font-size:24px;text-anchor:end;fill:#000000"
       y="131"
       x="690">ov</text>
    <text
       id="text922"
       style="font-size:24px;text-anchor:end;fill:#000000"
       y="166"
       x="690">Compte</text>
    <text
       id="text924"
       style="font-size:24px;text-anchor:end;fill:#000000"
       y="201"
       x="690">Charge</text>
    <text
       id="text926"
       style="font-size:24px;text-anchor:end;fill:#000000"
       y="236"
       x="690">C</text>
    <text
       id="text930"
       style="font-size:24px;text-anchor:end;fill:#000000"
       y="271"
       x="690">I<tspan
   id="tspan928"
   style="font-size:80.00000119%;baseline-shift:sub">0</tspan>
</text>
    <text
       id="text934"
       style="font-size:24px;text-anchor:end;fill:#000000"
       y="306"
       x="690">I<tspan
   id="tspan932"
   style="font-size:80.00000119%;baseline-shift:sub">1</tspan>
</text>
    <text
       id="text938"
       style="font-size:24px;text-anchor:end;fill:#000000"
       y="341"
       x="690">I<tspan
   id="tspan936"
   style="font-size:80.00000119%;baseline-shift:sub">2</tspan>
</text>
    <text
       id="text942"
       style="font-size:24px;text-anchor:end;fill:#000000"
       y="376"
       x="690">I<tspan
   id="tspan940"
   style="font-size:80.00000119%;baseline-shift:sub">3</tspan>
</text>
    <text
       id="text946"
       style="font-size:24px;text-anchor:end;fill:#000000"
       y="411"
       x="690">A<tspan
   id="tspan944"
   style="font-size:80.00000119%;baseline-shift:sub">0</tspan>
</text>
    <text
       id="text950"
       style="font-size:24px;text-anchor:end;fill:#000000"
       y="446"
       x="690">A<tspan
   id="tspan948"
   style="font-size:80.00000119%;baseline-shift:sub">1</tspan>
</text>
    <text
       id="text954"
       style="font-size:24px;text-anchor:end;fill:#000000"
       y="481"
       x="690">A<tspan
   id="tspan952"
   style="font-size:80.00000119%;baseline-shift:sub">2</tspan>
</text>
    <text
       id="text958"
       style="font-size:24px;text-anchor:end;fill:#000000"
       y="516"
       x="690">A<tspan
   id="tspan956"
   style="font-size:80.00000119%;baseline-shift:sub">3</tspan>
</text>
  </g>
</svg>
