<?xml version="1.0" encoding="UTF-8" standalone="no"?>
<!-- Created with Digital by H.Neemann -->
<!-- created: Fri Jan 28 16:07:47 EST 2022 -->

<svg
   xmlns:svg="http://www.w3.org/2000/svg"
   xmlns="http://www.w3.org/2000/svg"
   width="139.8mm"
   height="169.65mm"
   viewBox="-1094 -577 932 1131">
<g stroke-linecap="square">
<path d="M -540,40 L -540,0 L -260,0 L -260,-100" stroke="#0000b2" stroke-width="4.0" fill="none"/>
<path d="M -620,340 L -620,260 L -280,260 L -280,200 L -300,200" stroke="#0000b2" stroke-width="4.0" fill="none"/>
<path d="M -940,-560 L -940,-520 L -900,-520" stroke="#0000b2" stroke-width="4.0" fill="none"/>
<path d="M -860,-520 L -840,-520 L -840,-480 L -760,-480" stroke="#0000b2" stroke-width="4.0" fill="none"/>
<path d="M -380,480 L -380,520 L -360,520" stroke="#0000b2" stroke-width="4.0" fill="none"/>
<path d="M -660,340 L -660,200 L -640,200 L -520,200 L -516,200" stroke="#0000b2" stroke-width="4.0" fill="none"/>
<path d="M -680,-460 L -640,-460 L -640,-380" stroke="#0000b2" stroke-width="4.0" fill="none"/>
<path d="M -560,420 L -560,460 L -520,460 L -516,460" stroke="#0000b2" stroke-width="4.0" fill="none"/>
<path d="M -400,200 L -400,-80 L -360,-80" stroke="#0000b2" stroke-width="4.0" fill="none"/>
<path d="M -660,40 L -660,-80 L -640,-80 L -520,-80 L -516,-80" stroke="#0000b2" stroke-width="4.0" fill="none"/>
<path d="M -300,-80 L -280,-80 L -280,-20 L -620,-20 L -620,40" stroke="#0000b2" stroke-width="4.0" fill="none"/>
<path d="M -440,-400 L -380,-400 L -360,-400" stroke="#0000b2" stroke-width="4.0" fill="none"/>
<path d="M -300,-400 L -260,-400 L -240,-400" stroke="#0000b2" stroke-width="4.0" fill="none"/>
<path d="M -540,340 L -540,280 L -260,280 L -260,180" stroke="#0000b2" stroke-width="4.0" fill="none"/>
<path d="M -380,180 L -380,220 L -360,220" stroke="#0000b2" stroke-width="4.0" fill="none"/>
<path d="M -580,340 L -580,160 L -560,160 L -520,160 L -516,160" stroke="#0000b2" stroke-width="4.0" fill="none"/>
<path d="M -440,480 L -380,480 L -360,480" stroke="#0000b2" stroke-width="4.0" fill="none"/>
<path d="M -300,480 L -240,480" stroke="#0000b2" stroke-width="4.0" fill="none"/>
<path d="M -440,-100 L -380,-100 L -360,-100" stroke="#0000b2" stroke-width="4.0" fill="none"/>
<path d="M -300,-100 L -260,-100 L -240,-100" stroke="#0000b2" stroke-width="4.0" fill="none"/>
<path d="M -380,-400 L -380,-360 L -360,-360" stroke="#0000b2" stroke-width="4.0" fill="none"/>
<path d="M -540,-240 L -540,-300 L -260,-300 L -260,-400" stroke="#0000b2" stroke-width="4.0" fill="none"/>
<path d="M -980,-560 L -940,-560 L -580,-560 L -580,-420 L -520,-420 L -516,-420" stroke="#0000b2" stroke-width="4.0" fill="none"/>
<path d="M -440,-560 L -400,-560 L -400,-380 L -360,-380" stroke="#0000b2" stroke-width="4.0" fill="none"/>
<path d="M -640,420 L -640,500 L -520,500 L -516,500" stroke="#0000b2" stroke-width="4.0" fill="none"/>
<path d="M -440,180 L -380,180 L -360,180" stroke="#0000b2" stroke-width="4.0" fill="none"/>
<path d="M -300,180 L -260,180 L -240,180" stroke="#0000b2" stroke-width="4.0" fill="none"/>
<path d="M -580,40 L -580,-120 L -560,-120 L -520,-120 L -516,-120" stroke="#0000b2" stroke-width="4.0" fill="none"/>
<path d="M -980,-440 L -760,-440" stroke="#0000b2" stroke-width="4.0" fill="none"/>
<path d="M -380,-100 L -380,-60 L -360,-60" stroke="#0000b2" stroke-width="4.0" fill="none"/>
<path d="M -660,-240 L -660,-380 L -640,-380 L -520,-380 L -516,-380" stroke="#0000b2" stroke-width="4.0" fill="none"/>
<path d="M -300,-380 L -280,-380 L -280,-320 L -620,-320 L -620,-240" stroke="#0000b2" stroke-width="4.0" fill="none"/>
<path d="M -580,-420 L -580,-240" stroke="#0000b2" stroke-width="4.0" fill="none"/>
<path d="M -560,-160 L -560,-120" stroke="#0000b2" stroke-width="4.0" fill="none"/>
<path d="M -560,120 L -560,160" stroke="#0000b2" stroke-width="4.0" fill="none"/>
<path d="M -640,-160 L -640,-80" stroke="#0000b2" stroke-width="4.0" fill="none"/>
<path d="M -640,120 L -640,200" stroke="#0000b2" stroke-width="4.0" fill="none"/>
<path d="M -360,200 L -400,200 L -400,500 L -360,500" stroke="#0000b2" stroke-width="4.0" fill="none"/>
<path d="M -400,-380 L -400,-80" stroke="#0000b2" stroke-width="4.0" fill="none"/>
<g>
<circle cx="-400.0" cy="200.0" r="4.0" stroke="#0000b2" stroke-width="4.0" fill="#0000b2" />
<circle cx="-640.0" cy="200.0" r="4.0" stroke="#0000b2" stroke-width="4.0" fill="#0000b2" />
<circle cx="-400.0" cy="-80.0" r="4.0" stroke="#0000b2" stroke-width="4.0" fill="#0000b2" />
<circle cx="-640.0" cy="-80.0" r="4.0" stroke="#0000b2" stroke-width="4.0" fill="#0000b2" />
<circle cx="-380.0" cy="-400.0" r="4.0" stroke="#0000b2" stroke-width="4.0" fill="#0000b2" />
<circle cx="-260.0" cy="-400.0" r="4.0" stroke="#0000b2" stroke-width="4.0" fill="#0000b2" />
<circle cx="-560.0" cy="160.0" r="4.0" stroke="#0000b2" stroke-width="4.0" fill="#0000b2" />
<circle cx="-380.0" cy="480.0" r="4.0" stroke="#0000b2" stroke-width="4.0" fill="#0000b2" />
<circle cx="-580.0" cy="-420.0" r="4.0" stroke="#0000b2" stroke-width="4.0" fill="#0000b2" />
<circle cx="-380.0" cy="-100.0" r="4.0" stroke="#0000b2" stroke-width="4.0" fill="#0000b2" />
<circle cx="-260.0" cy="-100.0" r="4.0" stroke="#0000b2" stroke-width="4.0" fill="#0000b2" />
<circle cx="-940.0" cy="-560.0" r="4.0" stroke="#0000b2" stroke-width="4.0" fill="#0000b2" />
<circle cx="-380.0" cy="180.0" r="4.0" stroke="#0000b2" stroke-width="4.0" fill="#0000b2" />
<circle cx="-260.0" cy="180.0" r="4.0" stroke="#0000b2" stroke-width="4.0" fill="#0000b2" />
<circle cx="-560.0" cy="-120.0" r="4.0" stroke="#0000b2" stroke-width="4.0" fill="#0000b2" />
<circle cx="-400.0" cy="-380.0" r="4.0" stroke="#0000b2" stroke-width="4.0" fill="#0000b2" />
<circle cx="-640.0" cy="-380.0" r="4.0" stroke="#0000b2" stroke-width="4.0" fill="#0000b2" />
</g>
<g>
<path d="M -359,-410 L -301,-410 L -301,-350 L -359,-350 Z" stroke="#000000" stroke-width="4.0" fill="none"/>
<text text-anchor="start" x="-356.0" y="-393.25" fill="#808080" style="font-size:18px">J</text>
<path d="M -359,-373 L -352,-380 L -359,-387" stroke="#000000" stroke-width="2.0" fill="none"/>
<text text-anchor="start" x="-349.0" y="-373.25" fill="#808080" style="font-size:18px">C</text>
<text text-anchor="start" x="-356.0" y="-353.25" fill="#808080" style="font-size:18px">K</text>
<text text-anchor="end" x="-304.0" y="-393.25" fill="#808080" style="font-size:18px">Q</text>
<text text-anchor="end" x="-304.0" y="-373.25" fill="#808080" style="font-size:18px"><tspan style="text-decoration:overline;">Q</tspan></text>
<text text-anchor="middle" x="-330.0" y="-332.5" fill="#808080" style="font-size:18px">JK</text>
<circle cx="-360.0" cy="-400.0" r="2.0" stroke="#0000b2" stroke-width="4.0" fill="#0000b2" />
<circle cx="-360.0" cy="-380.0" r="2.0" stroke="#0000b2" stroke-width="4.0" fill="#0000b2" />
<circle cx="-360.0" cy="-360.0" r="2.0" stroke="#0000b2" stroke-width="4.0" fill="#0000b2" />
<circle cx="-300.0" cy="-400.0" r="2.0" stroke="#b20000" stroke-width="4.0" fill="#b20000" />
<circle cx="-300.0" cy="-380.0" r="2.0" stroke="#b20000" stroke-width="4.0" fill="#b20000" />
</g>
<g>
<circle cx="-224.0" cy="-400.0" r="9.0" stroke="#000000" stroke-width="4.0" fill="none" />
<circle cx="-224.0" cy="-400.0" r="15.0" stroke="#000000" stroke-width="4.0" fill="none" />
<text text-anchor="start" x="-195.0" y="-391.0" fill="#000000" style="font-size:24px"><tspan style="font-style:italic;">A<tspan style="font-size:80%;baseline-shift:sub;">0</tspan></tspan></text>
<circle cx="-240.0" cy="-400.0" r="2.0" stroke="#0000b2" stroke-width="4.0" fill="#0000b2" />
</g>
<g>
<path d="M -1011,-575 L -981,-575 L -981,-545 L -1011,-545 Z" stroke="#000000" stroke-width="4.0" fill="none"/>
<circle cx="-996.0" cy="-560.0" r="9.0" stroke="#000000" stroke-width="4.0" fill="none" />
<text text-anchor="end" x="-1025.0" y="-551.0" fill="#000000" style="font-size:24px"><tspan style="font-style:italic;">Up</tspan></text>
<circle cx="-980.0" cy="-560.0" r="2.0" stroke="#b20000" stroke-width="4.0" fill="#b20000" />
</g>
<g>
<path d="M -490,-370 L -520,-370 C -510,-386 -510,-414 -520,-430 L -500,-430 C -470,-430 -450,-420 -440,-400 C -450,-380 -470,-370 -490,-370 Z" stroke="#000000" stroke-width="4.0" fill="none"/>
<circle cx="-520.0" cy="-420.0" r="2.0" stroke="#0000b2" stroke-width="4.0" fill="#0000b2" />
<circle cx="-520.0" cy="-380.0" r="2.0" stroke="#0000b2" stroke-width="4.0" fill="#0000b2" />
<circle cx="-440.0" cy="-400.0" r="2.0" stroke="#b20000" stroke-width="4.0" fill="#b20000" />
</g>
<g>
<path d="M -710,-430 L -759,-430 L -759,-490 L -710,-490 C -700,-490 -680,-480 -681,-460 C -681,-440 -700,-430 -710,-430 Z" stroke="#000000" stroke-width="4.0" fill="none"/>
<circle cx="-760.0" cy="-480.0" r="2.0" stroke="#0000b2" stroke-width="4.0" fill="#0000b2" />
<circle cx="-760.0" cy="-440.0" r="2.0" stroke="#0000b2" stroke-width="4.0" fill="#0000b2" />
<circle cx="-680.0" cy="-460.0" r="2.0" stroke="#b20000" stroke-width="4.0" fill="#b20000" />
</g>
<g>
<path d="M -359,-110 L -301,-110 L -301,-50 L -359,-50 Z" stroke="#000000" stroke-width="4.0" fill="none"/>
<text text-anchor="start" x="-356.0" y="-93.25" fill="#808080" style="font-size:18px">J</text>
<path d="M -359,-73 L -352,-80 L -359,-87" stroke="#000000" stroke-width="2.0" fill="none"/>
<text text-anchor="start" x="-349.0" y="-73.25" fill="#808080" style="font-size:18px">C</text>
<text text-anchor="start" x="-356.0" y="-53.25" fill="#808080" style="font-size:18px">K</text>
<text text-anchor="end" x="-304.0" y="-93.25" fill="#808080" style="font-size:18px">Q</text>
<text text-anchor="end" x="-304.0" y="-73.25" fill="#808080" style="font-size:18px"><tspan style="text-decoration:overline;">Q</tspan></text>
<text text-anchor="middle" x="-330.0" y="-32.5" fill="#808080" style="font-size:18px">JK</text>
<circle cx="-360.0" cy="-100.0" r="2.0" stroke="#0000b2" stroke-width="4.0" fill="#0000b2" />
<circle cx="-360.0" cy="-80.0" r="2.0" stroke="#0000b2" stroke-width="4.0" fill="#0000b2" />
<circle cx="-360.0" cy="-60.0" r="2.0" stroke="#0000b2" stroke-width="4.0" fill="#0000b2" />
<circle cx="-300.0" cy="-100.0" r="2.0" stroke="#b20000" stroke-width="4.0" fill="#b20000" />
<circle cx="-300.0" cy="-80.0" r="2.0" stroke="#b20000" stroke-width="4.0" fill="#b20000" />
</g>
<g>
<path d="M -590,-190 L -590,-239 L -530,-239 L -530,-190 C -530,-180 -540,-160 -560,-161 C -580,-161 -590,-180 -590,-190 Z" stroke="#000000" stroke-width="4.0" fill="none"/>
<circle cx="-540.0" cy="-240.0" r="2.0" stroke="#0000b2" stroke-width="4.0" fill="#0000b2" />
<circle cx="-580.0" cy="-240.0" r="2.0" stroke="#0000b2" stroke-width="4.0" fill="#0000b2" />
<circle cx="-560.0" cy="-160.0" r="2.0" stroke="#b20000" stroke-width="4.0" fill="#b20000" />
</g>
<g>
<circle cx="-224.0" cy="-100.0" r="9.0" stroke="#000000" stroke-width="4.0" fill="none" />
<circle cx="-224.0" cy="-100.0" r="15.0" stroke="#000000" stroke-width="4.0" fill="none" />
<text text-anchor="start" x="-195.0" y="-91.0" fill="#000000" style="font-size:24px"><tspan style="font-style:italic;">A<tspan style="font-size:80%;baseline-shift:sub;">1</tspan></tspan></text>
<circle cx="-240.0" cy="-100.0" r="2.0" stroke="#0000b2" stroke-width="4.0" fill="#0000b2" />
</g>
<g>
<path d="M -490,-70 L -520,-70 C -510,-86 -510,-114 -520,-130 L -500,-130 C -470,-130 -450,-120 -440,-100 C -450,-80 -470,-70 -490,-70 Z" stroke="#000000" stroke-width="4.0" fill="none"/>
<circle cx="-520.0" cy="-120.0" r="2.0" stroke="#0000b2" stroke-width="4.0" fill="#0000b2" />
<circle cx="-520.0" cy="-80.0" r="2.0" stroke="#0000b2" stroke-width="4.0" fill="#0000b2" />
<circle cx="-440.0" cy="-100.0" r="2.0" stroke="#b20000" stroke-width="4.0" fill="#b20000" />
</g>
<g>
<path d="M -670,-190 L -670,-239 L -610,-239 L -610,-190 C -610,-180 -620,-160 -640,-161 C -660,-161 -670,-180 -670,-190 Z" stroke="#000000" stroke-width="4.0" fill="none"/>
<circle cx="-620.0" cy="-240.0" r="2.0" stroke="#0000b2" stroke-width="4.0" fill="#0000b2" />
<circle cx="-660.0" cy="-240.0" r="2.0" stroke="#0000b2" stroke-width="4.0" fill="#0000b2" />
<circle cx="-640.0" cy="-160.0" r="2.0" stroke="#b20000" stroke-width="4.0" fill="#b20000" />
</g>
<g>
<path d="M -899,-532 L -881,-520 L -899,-508 Z" stroke="#000000" stroke-width="4.0" fill="none"/>
<circle cx="-870.0" cy="-520.0" r="9.0" stroke="#000000" stroke-width="4.0" fill="none" />
<circle cx="-900.0" cy="-520.0" r="2.0" stroke="#0000b2" stroke-width="4.0" fill="#0000b2" />
<circle cx="-860.0" cy="-520.0" r="2.0" stroke="#b20000" stroke-width="4.0" fill="#b20000" />
</g>
<g>
<path d="M -1011,-455 L -981,-455 L -981,-425 L -1011,-425 Z" stroke="#000000" stroke-width="4.0" fill="none"/>
<circle cx="-996.0" cy="-440.0" r="9.0" stroke="#000000" stroke-width="4.0" fill="none" />
<text text-anchor="end" x="-1025.0" y="-431.0" fill="#000000" style="font-size:24px"><tspan style="font-style:italic;">Down</tspan></text>
<circle cx="-980.0" cy="-440.0" r="2.0" stroke="#b20000" stroke-width="4.0" fill="#b20000" />
</g>
<g>
<path d="M -359,170 L -301,170 L -301,230 L -359,230 Z" stroke="#000000" stroke-width="4.0" fill="none"/>
<text text-anchor="start" x="-356.0" y="186.75" fill="#808080" style="font-size:18px">J</text>
<path d="M -359,207 L -352,200 L -359,193" stroke="#000000" stroke-width="2.0" fill="none"/>
<text text-anchor="start" x="-349.0" y="206.75" fill="#808080" style="font-size:18px">C</text>
<text text-anchor="start" x="-356.0" y="226.75" fill="#808080" style="font-size:18px">K</text>
<text text-anchor="end" x="-304.0" y="186.75" fill="#808080" style="font-size:18px">Q</text>
<text text-anchor="end" x="-304.0" y="206.75" fill="#808080" style="font-size:18px"><tspan style="text-decoration:overline;">Q</tspan></text>
<text text-anchor="middle" x="-330.0" y="247.5" fill="#808080" style="font-size:18px">JK</text>
<circle cx="-360.0" cy="180.0" r="2.0" stroke="#0000b2" stroke-width="4.0" fill="#0000b2" />
<circle cx="-360.0" cy="200.0" r="2.0" stroke="#0000b2" stroke-width="4.0" fill="#0000b2" />
<circle cx="-360.0" cy="220.0" r="2.0" stroke="#0000b2" stroke-width="4.0" fill="#0000b2" />
<circle cx="-300.0" cy="180.0" r="2.0" stroke="#b20000" stroke-width="4.0" fill="#b20000" />
<circle cx="-300.0" cy="200.0" r="2.0" stroke="#b20000" stroke-width="4.0" fill="#b20000" />
</g>
<g>
<path d="M -590,90 L -590,41 L -530,41 L -530,90 C -530,100 -540,120 -560,119 C -580,119 -590,100 -590,90 Z" stroke="#000000" stroke-width="4.0" fill="none"/>
<circle cx="-540.0" cy="40.0" r="2.0" stroke="#0000b2" stroke-width="4.0" fill="#0000b2" />
<circle cx="-580.0" cy="40.0" r="2.0" stroke="#0000b2" stroke-width="4.0" fill="#0000b2" />
<circle cx="-560.0" cy="120.0" r="2.0" stroke="#b20000" stroke-width="4.0" fill="#b20000" />
</g>
<g>
<circle cx="-224.0" cy="180.0" r="9.0" stroke="#000000" stroke-width="4.0" fill="none" />
<circle cx="-224.0" cy="180.0" r="15.0" stroke="#000000" stroke-width="4.0" fill="none" />
<text text-anchor="start" x="-195.0" y="189.0" fill="#000000" style="font-size:24px"><tspan style="font-style:italic;">A<tspan style="font-size:80%;baseline-shift:sub;">2</tspan></tspan></text>
<circle cx="-240.0" cy="180.0" r="2.0" stroke="#0000b2" stroke-width="4.0" fill="#0000b2" />
</g>
<g>
<path d="M -490,210 L -520,210 C -510,194 -510,166 -520,150 L -500,150 C -470,150 -450,160 -440,180 C -450,200 -470,210 -490,210 Z" stroke="#000000" stroke-width="4.0" fill="none"/>
<circle cx="-520.0" cy="160.0" r="2.0" stroke="#0000b2" stroke-width="4.0" fill="#0000b2" />
<circle cx="-520.0" cy="200.0" r="2.0" stroke="#0000b2" stroke-width="4.0" fill="#0000b2" />
<circle cx="-440.0" cy="180.0" r="2.0" stroke="#b20000" stroke-width="4.0" fill="#b20000" />
</g>
<g>
<path d="M -670,90 L -670,41 L -610,41 L -610,90 C -610,100 -620,120 -640,119 C -660,119 -670,100 -670,90 Z" stroke="#000000" stroke-width="4.0" fill="none"/>
<circle cx="-620.0" cy="40.0" r="2.0" stroke="#0000b2" stroke-width="4.0" fill="#0000b2" />
<circle cx="-660.0" cy="40.0" r="2.0" stroke="#0000b2" stroke-width="4.0" fill="#0000b2" />
<circle cx="-640.0" cy="120.0" r="2.0" stroke="#b20000" stroke-width="4.0" fill="#b20000" />
</g>
<g>
<path d="M -359,470 L -301,470 L -301,530 L -359,530 Z" stroke="#000000" stroke-width="4.0" fill="none"/>
<text text-anchor="start" x="-356.0" y="486.75" fill="#808080" style="font-size:18px">J</text>
<path d="M -359,507 L -352,500 L -359,493" stroke="#000000" stroke-width="2.0" fill="none"/>
<text text-anchor="start" x="-349.0" y="506.75" fill="#808080" style="font-size:18px">C</text>
<text text-anchor="start" x="-356.0" y="526.75" fill="#808080" style="font-size:18px">K</text>
<text text-anchor="end" x="-304.0" y="486.75" fill="#808080" style="font-size:18px">Q</text>
<text text-anchor="end" x="-304.0" y="506.75" fill="#808080" style="font-size:18px"><tspan style="text-decoration:overline;">Q</tspan></text>
<text text-anchor="middle" x="-330.0" y="547.5" fill="#808080" style="font-size:18px">JK</text>
<circle cx="-360.0" cy="480.0" r="2.0" stroke="#0000b2" stroke-width="4.0" fill="#0000b2" />
<circle cx="-360.0" cy="500.0" r="2.0" stroke="#0000b2" stroke-width="4.0" fill="#0000b2" />
<circle cx="-360.0" cy="520.0" r="2.0" stroke="#0000b2" stroke-width="4.0" fill="#0000b2" />
<circle cx="-300.0" cy="480.0" r="2.0" stroke="#b20000" stroke-width="4.0" fill="#b20000" />
<circle cx="-300.0" cy="500.0" r="2.0" stroke="#b20000" stroke-width="4.0" fill="#b20000" />
</g>
<g>
<path d="M -590,390 L -590,341 L -530,341 L -530,390 C -530,400 -540,420 -560,419 C -580,419 -590,400 -590,390 Z" stroke="#000000" stroke-width="4.0" fill="none"/>
<circle cx="-540.0" cy="340.0" r="2.0" stroke="#0000b2" stroke-width="4.0" fill="#0000b2" />
<circle cx="-580.0" cy="340.0" r="2.0" stroke="#0000b2" stroke-width="4.0" fill="#0000b2" />
<circle cx="-560.0" cy="420.0" r="2.0" stroke="#b20000" stroke-width="4.0" fill="#b20000" />
</g>
<g>
<circle cx="-224.0" cy="480.0" r="9.0" stroke="#000000" stroke-width="4.0" fill="none" />
<circle cx="-224.0" cy="480.0" r="15.0" stroke="#000000" stroke-width="4.0" fill="none" />
<text text-anchor="start" x="-195.0" y="489.0" fill="#000000" style="font-size:24px"><tspan style="font-style:italic;">A<tspan style="font-size:80%;baseline-shift:sub;">3</tspan></tspan></text>
<circle cx="-240.0" cy="480.0" r="2.0" stroke="#0000b2" stroke-width="4.0" fill="#0000b2" />
</g>
<g>
<path d="M -490,510 L -520,510 C -510,494 -510,466 -520,450 L -500,450 C -470,450 -450,460 -440,480 C -450,500 -470,510 -490,510 Z" stroke="#000000" stroke-width="4.0" fill="none"/>
<circle cx="-520.0" cy="460.0" r="2.0" stroke="#0000b2" stroke-width="4.0" fill="#0000b2" />
<circle cx="-520.0" cy="500.0" r="2.0" stroke="#0000b2" stroke-width="4.0" fill="#0000b2" />
<circle cx="-440.0" cy="480.0" r="2.0" stroke="#b20000" stroke-width="4.0" fill="#b20000" />
</g>
<g>
<path d="M -670,390 L -670,341 L -610,341 L -610,390 C -610,400 -620,420 -640,419 C -660,419 -670,400 -670,390 Z" stroke="#000000" stroke-width="4.0" fill="none"/>
<circle cx="-620.0" cy="340.0" r="2.0" stroke="#0000b2" stroke-width="4.0" fill="#0000b2" />
<circle cx="-660.0" cy="340.0" r="2.0" stroke="#0000b2" stroke-width="4.0" fill="#0000b2" />
<circle cx="-640.0" cy="420.0" r="2.0" stroke="#b20000" stroke-width="4.0" fill="#b20000" />
</g>
<g>
<path d="M -471,-575 L -441,-575 L -441,-545 L -471,-545 Z" stroke="#000000" stroke-width="4.0" fill="none"/>
<path d="M -465,-555 L -460,-555 L -460,-565 L -455,-565 L -455,-555 L -450,-555 L -450,-565 L -445,-565" stroke="#000000" stroke-width="2.0" fill="none"/>
<circle cx="-440.0" cy="-560.0" r="2.0" stroke="#b20000" stroke-width="4.0" fill="#b20000" />
</g>
</g>
</svg>