<?xml version="1.0" encoding="UTF-8" standalone="no"?>
<!-- Created with Digital by H.Neemann -->
<!-- created: Wed Feb 23 12:28:46 EST 2022 -->

<svg
   xmlns:svg="http://www.w3.org/2000/svg"
   xmlns="http://www.w3.org/2000/svg"
   width="63.15mm"
   height="15.45mm"
   viewBox="439 223 421 103">
<g stroke-linecap="square">
<path d="M 500,240 L 540,240 L 680,240" stroke="#0000b2" stroke-width="4.0" fill="none"/>
<path d="M 760,260 L 800,260" stroke="#0000b2" stroke-width="4.0" fill="none"/>
<path d="M 540,240 L 540,280 L 560,280" stroke="#0000b2" stroke-width="4.0" fill="none"/>
<path d="M 600,280 L 680,280" stroke="#0000b2" stroke-width="4.0" fill="none"/>
<g>
<circle cx="540.0" cy="240.0" r="4.0" stroke="#0000b2" stroke-width="4.0" fill="#0000b2" />
</g>
<g>
<path d="M 730,290 L 681,290 L 681,230 L 730,230 C 740,230 760,240 759,260 C 759,280 740,290 730,290 Z" stroke="#000000" stroke-width="4.0" fill="none"/>
<circle cx="680.0" cy="240.0" r="2.0" stroke="#0000b2" stroke-width="4.0" fill="#0000b2" />
<circle cx="680.0" cy="280.0" r="2.0" stroke="#0000b2" stroke-width="4.0" fill="#0000b2" />
<circle cx="760.0" cy="260.0" r="2.0" stroke="#b20000" stroke-width="4.0" fill="#b20000" />
</g>
<g>
<path d="M 561,268 L 579,280 L 561,292 Z" stroke="#000000" stroke-width="4.0" fill="none"/>
<circle cx="590.0" cy="280.0" r="9.0" stroke="#000000" stroke-width="4.0" fill="none" />
<circle cx="560.0" cy="280.0" r="2.0" stroke="#0000b2" stroke-width="4.0" fill="#0000b2" />
<circle cx="600.0" cy="280.0" r="2.0" stroke="#b20000" stroke-width="4.0" fill="#b20000" />
</g>
<g>
<circle cx="816.0" cy="260.0" r="9.0" stroke="#000000" stroke-width="4.0" fill="none" />
<circle cx="816.0" cy="260.0" r="15.0" stroke="#000000" stroke-width="4.0" fill="none" />
<text text-anchor="start" x="845.0" y="269.0" fill="#000000" style="font-size:24px"><tspan style="font-style:italic;">s</tspan></text>
<circle cx="800.0" cy="260.0" r="2.0" stroke="#0000b2" stroke-width="4.0" fill="#0000b2" />
</g>
<g>
<path d="M 469,225 L 499,225 L 499,255 L 469,255 Z" stroke="#000000" stroke-width="4.0" fill="none"/>
<circle cx="484.0" cy="240.0" r="9.0" stroke="#000000" stroke-width="4.0" fill="none" />
<text text-anchor="end" x="455.0" y="249.0" fill="#000000" style="font-size:24px"><tspan style="font-style:italic;">a</tspan></text>
<circle cx="500.0" cy="240.0" r="2.0" stroke="#b20000" stroke-width="4.0" fill="#b20000" />
</g>
<g>
<text text-anchor="start" x="640.0" y="318.0" fill="#000000" style="font-size:24px">a'</text>
</g>
</g>
</svg>