<?xml version="1.0" encoding="utf-8" standalone="no"?>
<!DOCTYPE svg PUBLIC "-//W3C//DTD SVG 1.1//EN"
  "http://www.w3.org/Graphics/SVG/1.1/DTD/svg11.dtd">
<svg xmlns:xlink="http://www.w3.org/1999/xlink" width="597.8808pt" height="144.62pt" viewBox="0 0 597.8808 144.62" xmlns="http://www.w3.org/2000/svg" version="1.1">
 <metadata>
  <rdf:RDF xmlns:dc="http://purl.org/dc/elements/1.1/" xmlns:cc="http://creativecommons.org/ns#" xmlns:rdf="http://www.w3.org/1999/02/22-rdf-syntax-ns#">
   <cc:Work>
    <dc:type rdf:resource="http://purl.org/dc/dcmitype/StillImage"/>
    <dc:date>2022-02-04T10:09:27.215103</dc:date>
    <dc:format>image/svg+xml</dc:format>
    <dc:creator>
     <cc:Agent>
      <dc:title>Matplotlib v3.5.1, https://matplotlib.org/</dc:title>
     </cc:Agent>
    </dc:creator>
   </cc:Work>
  </rdf:RDF>
 </metadata>
 <defs>
  <style type="text/css">*{stroke-linejoin: round; stroke-linecap: butt}</style>
 </defs>
 <g id="figure_1">
  <g id="patch_1">
   <path d="M -0 144.62 
L 597.8808 144.62 
L 597.8808 0 
L -0 0 
L -0 144.62 
z
" style="fill: none"/>
  </g>
  <g id="axes_1">
   <g id="patch_2">
    <path d="M 36.8208 75.03 
L 165.3408 75.03 
L 166.8708 67.38 
L 165.3408 59.73 
L 36.8208 59.73 
" clip-path="url(#pddcec9c951)" style="fill: none; stroke: #000000; stroke-linecap: round"/>
   </g>
   <g id="patch_3">
    <path d="M 168.4008 59.73 
L 166.8708 67.38 
L 168.4008 75.03 
L 275.5008 75.03 
L 277.0308 67.38 
L 275.5008 59.73 
L 168.4008 59.73 
z
" clip-path="url(#pddcec9c951)" style="fill: none; stroke: #000000; stroke-linecap: round"/>
   </g>
   <g id="patch_4">
    <path d="M 587.6208 59.73 
L 278.5608 59.73 
L 277.0308 67.38 
L 278.5608 75.03 
L 587.6208 75.03 
" clip-path="url(#pddcec9c951)" style="fill: none; stroke: #000000; stroke-linecap: round"/>
   </g>
   <g id="patch_5">
    <path d="M 36.8208 119.4 
L 257.1408 119.4 
L 258.6708 111.75 
L 257.1408 104.1 
L 36.8208 104.1 
" clip-path="url(#pddcec9c951)" style="fill: none; stroke: #000000; stroke-linecap: round"/>
   </g>
   <g id="patch_6">
    <path d="M 260.2008 104.1 
L 258.6708 111.75 
L 260.2008 119.4 
L 459.1008 119.4 
L 460.6308 111.75 
L 459.1008 104.1 
L 260.2008 104.1 
z
" clip-path="url(#pddcec9c951)" style="fill: none; stroke: #000000; stroke-linecap: round"/>
   </g>
   <g id="patch_7">
    <path d="M 587.6208 104.1 
L 462.1608 104.1 
L 460.6308 111.75 
L 462.1608 119.4 
L 587.6208 119.4 
" clip-path="url(#pddcec9c951)" style="fill: none; stroke: #000000; stroke-linecap: round"/>
   </g>
   <g id="line2d_1">
    <path d="M 36.8208 30.66 
L 36.8208 15.36 
L 128.6208 15.36 
L 128.6208 30.66 
L 220.4208 30.66 
L 220.4208 15.36 
L 312.2208 15.36 
L 312.2208 30.66 
L 404.0208 30.66 
L 404.0208 15.36 
L 495.8208 15.36 
L 495.8208 30.66 
L 587.6208 30.66 
" clip-path="url(#pddcec9c951)" style="fill: none; stroke: #000000; stroke-linecap: round"/>
   </g>
   <g id="line2d_2">
    <path d="M 36.8208 26.835 
L 36.8208 26.835 
" clip-path="url(#pddcec9c951)" style="fill: none; stroke: #000000; stroke-linecap: round"/>
   </g>
   <g id="patch_8">
    <path d="M 34.9848 26.835 
L 36.8208 19.185 
L 38.6568 26.835 
z
" clip-path="url(#pddcec9c951)"/>
   </g>
   <g id="line2d_3">
    <path d="M 220.4208 26.835 
L 220.4208 26.835 
" clip-path="url(#pddcec9c951)" style="fill: none; stroke: #000000; stroke-linecap: round"/>
   </g>
   <g id="patch_9">
    <path d="M 218.5848 26.835 
L 220.4208 19.185 
L 222.2568 26.835 
z
" clip-path="url(#pddcec9c951)"/>
   </g>
   <g id="line2d_4">
    <path d="M 404.0208 26.835 
L 404.0208 26.835 
" clip-path="url(#pddcec9c951)" style="fill: none; stroke: #000000; stroke-linecap: round"/>
   </g>
   <g id="patch_10">
    <path d="M 402.1848 26.835 
L 404.0208 19.185 
L 405.8568 26.835 
z
" clip-path="url(#pddcec9c951)"/>
   </g>
   <g id="line2d_5">
    <path d="M 221.9508 81.15 
L 277.0308 81.15 
" clip-path="url(#pa9544ec309)" style="fill: none; stroke: #0000ff; stroke-linecap: round"/>
   </g>
   <g id="line2d_6">
    <path d="M 221.9508 84.21 
L 221.9508 78.09 
" clip-path="url(#pa9544ec309)" style="fill: none; stroke: #0000ff; stroke-linecap: round"/>
   </g>
   <g id="line2d_7">
    <path d="M 277.0308 84.21 
L 277.0308 78.09 
" clip-path="url(#pa9544ec309)" style="fill: none; stroke: #0000ff; stroke-linecap: round"/>
   </g>
   <g id="line2d_8">
    <path d="M 166.8708 81.15 
L 221.9508 81.15 
" clip-path="url(#pa9544ec309)" style="fill: none; stroke: #0000ff; stroke-linecap: round"/>
   </g>
   <g id="line2d_9">
    <path d="M 166.8708 84.21 
L 166.8708 78.09 
" clip-path="url(#pa9544ec309)" style="fill: none; stroke: #0000ff; stroke-linecap: round"/>
   </g>
   <g id="line2d_10">
    <path d="M 221.9508 84.21 
L 221.9508 78.09 
" clip-path="url(#pa9544ec309)" style="fill: none; stroke: #0000ff; stroke-linecap: round"/>
   </g>
   <g id="line2d_11">
    <path d="M 221.9508 125.52 
L 258.6708 125.52 
" clip-path="url(#pa9544ec309)" style="fill: none; stroke: #0000ff; stroke-linecap: round"/>
   </g>
   <g id="line2d_12">
    <path d="M 221.9508 128.58 
L 221.9508 122.46 
" clip-path="url(#pa9544ec309)" style="fill: none; stroke: #0000ff; stroke-linecap: round"/>
   </g>
   <g id="line2d_13">
    <path d="M 258.6708 128.58 
L 258.6708 122.46 
" clip-path="url(#pa9544ec309)" style="fill: none; stroke: #0000ff; stroke-linecap: round"/>
   </g>
   <g id="text_1">
    <g clip-path="url(#pa9544ec309)">
     <!-- Clk -->
     <g style="fill: #0000ff" transform="translate(14.371659 28.476328)scale(0.105 -0.105)">
      <defs>
       <path id="DejaVuSans-43" d="M 4122 4306 
L 4122 3641 
Q 3803 3938 3442 4084 
Q 3081 4231 2675 4231 
Q 1875 4231 1450 3742 
Q 1025 3253 1025 2328 
Q 1025 1406 1450 917 
Q 1875 428 2675 428 
Q 3081 428 3442 575 
Q 3803 722 4122 1019 
L 4122 359 
Q 3791 134 3420 21 
Q 3050 -91 2638 -91 
Q 1578 -91 968 557 
Q 359 1206 359 2328 
Q 359 3453 968 4101 
Q 1578 4750 2638 4750 
Q 3056 4750 3426 4639 
Q 3797 4528 4122 4306 
z
" transform="scale(0.015625)"/>
       <path id="DejaVuSans-6c" d="M 603 4863 
L 1178 4863 
L 1178 0 
L 603 0 
L 603 4863 
z
" transform="scale(0.015625)"/>
       <path id="DejaVuSans-6b" d="M 581 4863 
L 1159 4863 
L 1159 1991 
L 2875 3500 
L 3609 3500 
L 1753 1863 
L 3688 0 
L 2938 0 
L 1159 1709 
L 1159 0 
L 581 0 
L 581 4863 
z
" transform="scale(0.015625)"/>
      </defs>
      <use xlink:href="#DejaVuSans-43"/>
      <use xlink:href="#DejaVuSans-6c" x="69.824219"/>
      <use xlink:href="#DejaVuSans-6b" x="97.607422"/>
     </g>
    </g>
   </g>
   <g id="text_2">
    <g clip-path="url(#pa9544ec309)">
     <!-- D -->
     <g style="fill: #0000ff" transform="translate(22.6158 72.846328)scale(0.105 -0.105)">
      <defs>
       <path id="DejaVuSans-44" d="M 1259 4147 
L 1259 519 
L 2022 519 
Q 2988 519 3436 956 
Q 3884 1394 3884 2338 
Q 3884 3275 3436 3711 
Q 2988 4147 2022 4147 
L 1259 4147 
z
M 628 4666 
L 1925 4666 
Q 3281 4666 3915 4102 
Q 4550 3538 4550 2338 
Q 4550 1131 3912 565 
Q 3275 0 1925 0 
L 628 0 
L 628 4666 
z
" transform="scale(0.015625)"/>
      </defs>
      <use xlink:href="#DejaVuSans-44"/>
     </g>
    </g>
   </g>
   <g id="text_3">
    <g clip-path="url(#pa9544ec309)">
     <!-- Q -->
     <g style="fill: #0000ff" transform="translate(22.435331 117.216328)scale(0.105 -0.105)">
      <defs>
       <path id="DejaVuSans-51" d="M 2522 4238 
Q 1834 4238 1429 3725 
Q 1025 3213 1025 2328 
Q 1025 1447 1429 934 
Q 1834 422 2522 422 
Q 3209 422 3611 934 
Q 4013 1447 4013 2328 
Q 4013 3213 3611 3725 
Q 3209 4238 2522 4238 
z
M 3406 84 
L 4238 -825 
L 3475 -825 
L 2784 -78 
Q 2681 -84 2626 -87 
Q 2572 -91 2522 -91 
Q 1538 -91 948 567 
Q 359 1225 359 2328 
Q 359 3434 948 4092 
Q 1538 4750 2522 4750 
Q 3503 4750 4090 4092 
Q 4678 3434 4678 2328 
Q 4678 1516 4351 937 
Q 4025 359 3406 84 
z
" transform="scale(0.015625)"/>
      </defs>
      <use xlink:href="#DejaVuSans-51"/>
     </g>
    </g>
   </g>
   <g id="line2d_14">
    <path d="M 221.9508 121.44 
L 221.9508 13.32 
" clip-path="url(#pa9544ec309)" style="fill: none; stroke-dasharray: 1,1.65; stroke-dashoffset: 0; stroke: #d3d3d3"/>
   </g>
   <g id="line2d_15">
    <path d="M 405.5508 121.44 
L 405.5508 13.32 
" clip-path="url(#pa9544ec309)" style="fill: none; stroke-dasharray: 1,1.65; stroke-dashoffset: 0; stroke: #d3d3d3"/>
   </g>
   <g id="patch_11">
    <path d="M 236.9754 85.23 
L 236.9754 77.07 
L 262.0062 77.07 
L 262.0062 85.23 
z
" clip-path="url(#pa9544ec309)" style="fill: #ffffff"/>
   </g>
   <g id="text_4">
    <g clip-path="url(#pa9544ec309)">
     <!-- $t_{hold}$ -->
     <g transform="translate(243.1858 82.943594)scale(0.065 -0.065)">
      <defs>
       <path id="DejaVuSans-Oblique-74" d="M 2706 3500 
L 2619 3053 
L 1472 3053 
L 1100 1153 
Q 1081 1047 1072 975 
Q 1063 903 1063 863 
Q 1063 663 1183 572 
Q 1303 481 1569 481 
L 2150 481 
L 2053 0 
L 1503 0 
Q 991 0 739 200 
Q 488 400 488 806 
Q 488 878 497 964 
Q 506 1050 525 1153 
L 897 3053 
L 409 3053 
L 500 3500 
L 978 3500 
L 1172 4494 
L 1747 4494 
L 1556 3500 
L 2706 3500 
z
" transform="scale(0.015625)"/>
       <path id="DejaVuSans-Oblique-68" d="M 3566 2113 
L 3156 0 
L 2578 0 
L 2988 2091 
Q 3016 2238 3031 2350 
Q 3047 2463 3047 2528 
Q 3047 2791 2881 2937 
Q 2716 3084 2419 3084 
Q 1956 3084 1617 2771 
Q 1278 2459 1178 1941 
L 800 0 
L 225 0 
L 1172 4863 
L 1747 4863 
L 1375 2950 
Q 1594 3244 1934 3414 
Q 2275 3584 2650 3584 
Q 3113 3584 3367 3334 
Q 3622 3084 3622 2631 
Q 3622 2519 3608 2391 
Q 3594 2263 3566 2113 
z
" transform="scale(0.015625)"/>
       <path id="DejaVuSans-Oblique-6f" d="M 1625 -91 
Q 1009 -91 651 289 
Q 294 669 294 1325 
Q 294 1706 417 2101 
Q 541 2497 738 2766 
Q 1047 3184 1428 3384 
Q 1809 3584 2291 3584 
Q 2888 3584 3255 3212 
Q 3622 2841 3622 2241 
Q 3622 1825 3500 1412 
Q 3378 1000 3181 728 
Q 2875 309 2494 109 
Q 2113 -91 1625 -91 
z
M 891 1344 
Q 891 869 1089 633 
Q 1288 397 1691 397 
Q 2269 397 2648 901 
Q 3028 1406 3028 2181 
Q 3028 2634 2825 2865 
Q 2622 3097 2228 3097 
Q 1903 3097 1650 2945 
Q 1397 2794 1197 2484 
Q 1050 2253 970 1956 
Q 891 1659 891 1344 
z
" transform="scale(0.015625)"/>
       <path id="DejaVuSans-Oblique-6c" d="M 1172 4863 
L 1747 4863 
L 800 0 
L 225 0 
L 1172 4863 
z
" transform="scale(0.015625)"/>
       <path id="DejaVuSans-Oblique-64" d="M 2675 525 
Q 2444 222 2128 65 
Q 1813 -91 1428 -91 
Q 903 -91 598 267 
Q 294 625 294 1247 
Q 294 1766 478 2236 
Q 663 2706 1013 3078 
Q 1244 3325 1534 3454 
Q 1825 3584 2144 3584 
Q 2481 3584 2739 3421 
Q 2997 3259 3138 2956 
L 3513 4863 
L 4091 4863 
L 3144 0 
L 2566 0 
L 2675 525 
z
M 891 1350 
Q 891 897 1095 644 
Q 1300 391 1663 391 
Q 1931 391 2161 520 
Q 2391 650 2566 903 
Q 2750 1166 2856 1509 
Q 2963 1853 2963 2188 
Q 2963 2622 2758 2865 
Q 2553 3109 2194 3109 
Q 1922 3109 1687 2981 
Q 1453 2853 1288 2613 
Q 1106 2353 998 2009 
Q 891 1666 891 1350 
z
" transform="scale(0.015625)"/>
      </defs>
      <use xlink:href="#DejaVuSans-Oblique-74" transform="translate(0 0.78125)"/>
      <use xlink:href="#DejaVuSans-Oblique-68" transform="translate(39.208984 -15.625)scale(0.7)"/>
      <use xlink:href="#DejaVuSans-Oblique-6f" transform="translate(83.574219 -15.625)scale(0.7)"/>
      <use xlink:href="#DejaVuSans-Oblique-6c" transform="translate(126.401367 -15.625)scale(0.7)"/>
      <use xlink:href="#DejaVuSans-Oblique-64" transform="translate(145.849609 -15.625)scale(0.7)"/>
     </g>
    </g>
   </g>
   <g id="patch_12">
    <path d="M 178.8966 85.23 
L 178.8966 77.07 
L 209.925 77.07 
L 209.925 85.23 
z
" clip-path="url(#pa9544ec309)" style="fill: #ffffff"/>
   </g>
   <g id="text_5">
    <g clip-path="url(#pa9544ec309)">
     <!-- $t_{setup}$ -->
     <g transform="translate(186.6758 82.45)scale(0.065 -0.065)">
      <defs>
       <path id="DejaVuSans-Oblique-73" d="M 3200 3397 
L 3091 2853 
Q 2863 2978 2609 3040 
Q 2356 3103 2088 3103 
Q 1634 3103 1373 2948 
Q 1113 2794 1113 2528 
Q 1113 2219 1719 2053 
Q 1766 2041 1788 2034 
L 1972 1978 
Q 2547 1819 2739 1644 
Q 2931 1469 2931 1166 
Q 2931 609 2489 259 
Q 2047 -91 1331 -91 
Q 1053 -91 747 -37 
Q 441 16 72 128 
L 184 722 
Q 500 559 806 475 
Q 1113 391 1394 391 
Q 1816 391 2080 572 
Q 2344 753 2344 1031 
Q 2344 1331 1650 1516 
L 1591 1531 
L 1394 1581 
Q 956 1697 753 1886 
Q 550 2075 550 2369 
Q 550 2928 970 3256 
Q 1391 3584 2113 3584 
Q 2397 3584 2667 3537 
Q 2938 3491 3200 3397 
z
" transform="scale(0.015625)"/>
       <path id="DejaVuSans-Oblique-65" d="M 3078 2063 
Q 3088 2113 3092 2166 
Q 3097 2219 3097 2272 
Q 3097 2653 2873 2875 
Q 2650 3097 2266 3097 
Q 1838 3097 1509 2826 
Q 1181 2556 1013 2059 
L 3078 2063 
z
M 3578 1613 
L 903 1613 
Q 884 1494 878 1425 
Q 872 1356 872 1306 
Q 872 872 1139 634 
Q 1406 397 1894 397 
Q 2269 397 2603 481 
Q 2938 566 3225 728 
L 3116 159 
Q 2806 34 2476 -28 
Q 2147 -91 1806 -91 
Q 1078 -91 686 257 
Q 294 606 294 1247 
Q 294 1794 489 2264 
Q 684 2734 1063 3103 
Q 1306 3334 1642 3459 
Q 1978 3584 2356 3584 
Q 2950 3584 3301 3228 
Q 3653 2872 3653 2272 
Q 3653 2128 3634 1964 
Q 3616 1800 3578 1613 
z
" transform="scale(0.015625)"/>
       <path id="DejaVuSans-Oblique-75" d="M 428 1388 
L 838 3500 
L 1416 3500 
L 1006 1409 
Q 975 1256 961 1147 
Q 947 1038 947 966 
Q 947 700 1109 554 
Q 1272 409 1569 409 
Q 2031 409 2368 721 
Q 2706 1034 2809 1563 
L 3194 3500 
L 3769 3500 
L 3091 0 
L 2516 0 
L 2631 550 
Q 2388 244 2052 76 
Q 1716 -91 1338 -91 
Q 878 -91 622 161 
Q 366 413 366 863 
Q 366 956 381 1097 
Q 397 1238 428 1388 
z
" transform="scale(0.015625)"/>
       <path id="DejaVuSans-Oblique-70" d="M 3175 2156 
Q 3175 2616 2975 2859 
Q 2775 3103 2400 3103 
Q 2144 3103 1911 2972 
Q 1678 2841 1497 2591 
Q 1319 2344 1212 1994 
Q 1106 1644 1106 1300 
Q 1106 863 1306 627 
Q 1506 391 1875 391 
Q 2147 391 2380 519 
Q 2613 647 2778 891 
Q 2956 1147 3065 1494 
Q 3175 1841 3175 2156 
z
M 1394 2969 
Q 1625 3272 1939 3428 
Q 2253 3584 2638 3584 
Q 3175 3584 3472 3232 
Q 3769 2881 3769 2247 
Q 3769 1728 3584 1258 
Q 3400 788 3053 416 
Q 2822 169 2531 39 
Q 2241 -91 1919 -91 
Q 1547 -91 1294 64 
Q 1041 219 916 525 
L 556 -1331 
L -19 -1331 
L 922 3500 
L 1497 3500 
L 1394 2969 
z
" transform="scale(0.015625)"/>
      </defs>
      <use xlink:href="#DejaVuSans-Oblique-74" transform="translate(0 0.78125)"/>
      <use xlink:href="#DejaVuSans-Oblique-73" transform="translate(39.208984 -15.625)scale(0.7)"/>
      <use xlink:href="#DejaVuSans-Oblique-65" transform="translate(75.678711 -15.625)scale(0.7)"/>
      <use xlink:href="#DejaVuSans-Oblique-74" transform="translate(118.745117 -15.625)scale(0.7)"/>
      <use xlink:href="#DejaVuSans-Oblique-75" transform="translate(146.191406 -15.625)scale(0.7)"/>
      <use xlink:href="#DejaVuSans-Oblique-70" transform="translate(190.556641 -15.625)scale(0.7)"/>
     </g>
    </g>
   </g>
   <g id="patch_13">
    <path d="M 227.0916 129.6 
L 227.0916 121.44 
L 253.53 121.44 
L 253.53 129.6 
z
" clip-path="url(#pa9544ec309)" style="fill: #ffffff"/>
   </g>
   <g id="text_6">
    <g clip-path="url(#pa9544ec309)">
     <!-- $t_{prop}$ -->
     <g transform="translate(233.7133 126.82)scale(0.065 -0.065)">
      <defs>
       <path id="DejaVuSans-Oblique-72" d="M 2853 2969 
Q 2766 3016 2653 3041 
Q 2541 3066 2413 3066 
Q 1953 3066 1609 2717 
Q 1266 2369 1153 1784 
L 800 0 
L 225 0 
L 909 3500 
L 1484 3500 
L 1375 2956 
Q 1603 3259 1920 3421 
Q 2238 3584 2597 3584 
Q 2691 3584 2781 3573 
Q 2872 3563 2963 3538 
L 2853 2969 
z
" transform="scale(0.015625)"/>
      </defs>
      <use xlink:href="#DejaVuSans-Oblique-74" transform="translate(0 0.78125)"/>
      <use xlink:href="#DejaVuSans-Oblique-70" transform="translate(39.208984 -15.625)scale(0.7)"/>
      <use xlink:href="#DejaVuSans-Oblique-72" transform="translate(83.642578 -15.625)scale(0.7)"/>
      <use xlink:href="#DejaVuSans-Oblique-6f" transform="translate(112.421875 -15.625)scale(0.7)"/>
      <use xlink:href="#DejaVuSans-Oblique-70" transform="translate(155.249023 -15.625)scale(0.7)"/>
     </g>
    </g>
   </g>
  </g>
 </g>
 <defs>
  <clipPath id="pddcec9c951">
   <rect x="36.8208" y="15.36" width="550.8" height="148.41"/>
  </clipPath>
  <clipPath id="pa9544ec309">
   <rect x="7.2" y="7.2" width="583.4808" height="130.22"/>
  </clipPath>
 </defs>
</svg>
