<?xml version="1.0" encoding="utf-8" standalone="no"?>
<!DOCTYPE svg PUBLIC "-//W3C//DTD SVG 1.1//EN"
  "http://www.w3.org/Graphics/SVG/1.1/DTD/svg11.dtd">
<svg xmlns:xlink="http://www.w3.org/1999/xlink" width="163.677pt" height="106.37pt" viewBox="0 0 163.677 106.37" xmlns="http://www.w3.org/2000/svg" version="1.1">
 <metadata>
  <rdf:RDF xmlns:dc="http://purl.org/dc/elements/1.1/" xmlns:cc="http://creativecommons.org/ns#" xmlns:rdf="http://www.w3.org/1999/02/22-rdf-syntax-ns#">
   <cc:Work>
    <dc:type rdf:resource="http://purl.org/dc/dcmitype/StillImage"/>
    <dc:date>2022-01-18T13:52:43.321065</dc:date>
    <dc:format>image/svg+xml</dc:format>
    <dc:creator>
     <cc:Agent>
      <dc:title>Matplotlib v3.5.1, https://matplotlib.org/</dc:title>
     </cc:Agent>
    </dc:creator>
   </cc:Work>
  </rdf:RDF>
 </metadata>
 <defs>
  <style type="text/css">*{stroke-linejoin: round; stroke-linecap: butt}</style>
 </defs>
 <g id="figure_1">
  <g id="patch_1">
   <path d="M 0 106.37 
L 163.677 106.37 
L 163.677 0 
L 0 0 
L 0 106.37 
z
" style="fill: none"/>
  </g>
  <g id="axes_1">
   <g id="line2d_1">
    <path d="M 77.4066 49.904 
L 94.455171 49.804082 
L 96.203743 49.504327 
L 97.952314 49.004735 
L 99.700886 48.305306 
L 101.449457 47.406041 
L 103.635171 46.000939 
L 105.820886 44.283592 
L 108.0066 42.254 
L 110.192314 39.912163 
L 112.378029 37.258082 
L 114.1266 34.91 
L 114.1266 34.91 
L 111.503743 31.462816 
L 109.318029 28.933633 
L 107.132314 26.716694 
L 104.9466 24.812 
L 102.760886 23.219551 
L 100.575171 21.939347 
L 98.8266 21.14 
L 97.078029 20.54049 
L 95.329457 20.140816 
L 93.580886 19.94098 
L 92.7066 19.916 
L 77.4066 19.916 
L 77.4066 19.916 
L 79.6098 22.364 
L 81.00516 24.2 
L 82.1802 26.036 
L 83.13492 27.872 
L 83.86932 29.708 
L 84.3834 31.544 
L 84.67716 33.38 
L 84.7506 35.216 
L 84.60372 37.052 
L 84.23652 38.888 
L 83.649 40.724 
L 82.84116 42.56 
L 81.813 44.396 
L 80.56452 46.232 
L 79.09572 48.068 
L 77.4066 49.904 
L 77.4066 49.904 
" clip-path="url(#p710e489ff9)" style="fill: none; stroke: #000000; stroke-width: 2; stroke-linecap: round"/>
   </g>
   <g id="line2d_2">
    <path d="M 72.8166 49.904 
L 73.40412 49.292 
L 73.96716 48.68 
L 74.50572 48.068 
L 75.0198 47.456 
L 75.5094 46.844 
L 75.97452 46.232 
L 76.41516 45.62 
L 76.83132 45.008 
L 77.223 44.396 
L 77.5902 43.784 
L 77.93292 43.172 
L 78.25116 42.56 
L 78.54492 41.948 
L 78.8142 41.336 
L 79.059 40.724 
L 79.27932 40.112 
L 79.47516 39.5 
L 79.64652 38.888 
L 79.7934 38.276 
L 79.9158 37.664 
L 80.01372 37.052 
L 80.08716 36.44 
L 80.13612 35.828 
L 80.1606 35.216 
L 80.1606 34.604 
L 80.13612 33.992 
L 80.08716 33.38 
L 80.01372 32.768 
L 79.9158 32.156 
L 79.7934 31.544 
L 79.64652 30.932 
L 79.47516 30.32 
L 79.27932 29.708 
L 79.059 29.096 
L 78.8142 28.484 
L 78.54492 27.872 
L 78.25116 27.26 
L 77.93292 26.648 
L 77.5902 26.036 
L 77.223 25.424 
L 76.83132 24.812 
L 76.41516 24.2 
L 75.97452 23.588 
L 75.5094 22.976 
L 75.0198 22.364 
L 74.50572 21.752 
L 73.96716 21.14 
L 73.40412 20.528 
L 72.8166 19.916 
" clip-path="url(#p710e489ff9)" style="fill: none; stroke: #000000; stroke-width: 2; stroke-linecap: round"/>
   </g>
   <g id="line2d_3">
    <path d="M 62.1066 42.56 
L 78.25116 42.56 
" clip-path="url(#p710e489ff9)" style="fill: none; stroke: #000000; stroke-width: 2; stroke-linecap: round"/>
   </g>
   <g id="line2d_4">
    <path d="M 62.1066 27.26 
L 78.25116 27.26 
" clip-path="url(#p710e489ff9)" style="fill: none; stroke: #000000; stroke-width: 2; stroke-linecap: round"/>
   </g>
   <g id="line2d_5">
    <path d="M 114.1266 34.91 
L 124.8366 34.91 
" clip-path="url(#p710e489ff9)" style="fill: none; stroke: #000000; stroke-width: 2; stroke-linecap: round"/>
   </g>
   <g id="line2d_6">
    <path d="M 62.1066 27.26 
L 46.8066 27.26 
L 31.5066 27.26 
" clip-path="url(#p710e489ff9)" style="fill: none; stroke: #000000; stroke-width: 2; stroke-linecap: round"/>
   </g>
   <g id="line2d_7">
    <path d="M 62.1066 42.56 
L 54.4566 42.56 
L 46.8066 42.56 
" clip-path="url(#p710e489ff9)" style="fill: none; stroke: #000000; stroke-width: 2; stroke-linecap: round"/>
   </g>
   <g id="line2d_8">
    <path d="M 46.8066 42.56 
L 39.1566 42.56 
L 31.5066 42.56 
" clip-path="url(#p710e489ff9)" style="fill: none; stroke: #000000; stroke-width: 2; stroke-linecap: round"/>
   </g>
   <g id="line2d_9">
    <path d="M 62.1066 27.26 
L 62.1066 50.21 
L 62.1066 73.16 
" clip-path="url(#p710e489ff9)" style="fill: none; stroke: #000000; stroke-width: 2; stroke-linecap: round"/>
   </g>
   <g id="line2d_10">
    <path d="M 92.7066 96.11 
L 93.686874 96.078565 
L 94.663121 95.984387 
L 95.631327 95.827855 
L 96.587515 95.609611 
L 97.527756 95.330553 
L 98.448185 94.991826 
L 99.345021 94.594824 
L 100.214579 94.141176 
L 101.053284 93.632748 
L 101.857691 93.071628 
L 102.624494 92.460123 
L 103.350543 91.800745 
L 104.032853 91.096204 
L 104.668622 90.349394 
L 105.255235 89.563385 
L 105.790284 88.741406 
L 106.271569 87.886836 
L 106.697113 87.003185 
L 107.065167 86.094085 
L 107.374218 85.163272 
L 107.622997 84.21457 
L 107.810481 83.251878 
L 107.9359 82.279152 
L 107.998739 81.300389 
L 107.998739 80.319611 
L 107.9359 79.340848 
L 107.810481 78.368122 
L 107.622997 77.40543 
L 107.374218 76.456728 
L 107.065167 75.525915 
L 106.697113 74.616815 
L 106.271569 73.733164 
L 105.790284 72.878594 
L 105.255235 72.056615 
L 104.668622 71.270606 
L 104.032853 70.523796 
L 103.350543 69.819255 
L 102.624494 69.159877 
L 101.857691 68.548372 
L 101.053284 67.987252 
L 100.214579 67.478824 
L 99.345021 67.025176 
L 98.448185 66.628174 
L 97.527756 66.289447 
L 96.587515 66.010389 
L 95.631327 65.792145 
L 94.663121 65.635613 
L 93.686874 65.541435 
L 92.7066 65.51 
L 92.7066 65.51 
L 72.8166 65.51 
L 72.8166 80.81 
L 72.8166 96.11 
L 92.7066 96.11 
" clip-path="url(#p710e489ff9)" style="fill: none; stroke: #000000; stroke-width: 2; stroke-linecap: round"/>
   </g>
   <g id="line2d_11">
    <path d="M 62.1066 88.46 
L 72.8166 88.46 
" clip-path="url(#p710e489ff9)" style="fill: none; stroke: #000000; stroke-width: 2; stroke-linecap: round"/>
   </g>
   <g id="line2d_12">
    <path d="M 62.1066 73.16 
L 72.8166 73.16 
" clip-path="url(#p710e489ff9)" style="fill: none; stroke: #000000; stroke-width: 2; stroke-linecap: round"/>
   </g>
   <g id="line2d_13">
    <path d="M 108.0066 80.81 
L 118.7166 80.81 
" clip-path="url(#p710e489ff9)" style="fill: none; stroke: #000000; stroke-width: 2; stroke-linecap: round"/>
   </g>
   <g id="line2d_14">
    <path d="M 46.8066 42.56 
L 46.8066 88.46 
L 62.1066 88.46 
" clip-path="url(#p710e489ff9)" style="fill: none; stroke: #000000; stroke-width: 2; stroke-linecap: round"/>
   </g>
   <g id="text_1">
    <g clip-path="url(#p710e489ff9)">
     <!-- $S_i$ -->
     <g transform="translate(127.8966 38.359219)scale(0.125 -0.125)">
      <defs>
       <path id="DejaVuSans-Oblique-53" d="M 3859 4513 
L 3738 3897 
Q 3422 4066 3111 4152 
Q 2800 4238 2509 4238 
Q 1944 4238 1609 3991 
Q 1275 3744 1275 3334 
Q 1275 3109 1398 2989 
Q 1522 2869 2034 2731 
L 2413 2638 
Q 3053 2472 3303 2217 
Q 3553 1963 3553 1503 
Q 3553 797 2998 353 
Q 2444 -91 1538 -91 
Q 1166 -91 791 -17 
Q 416 56 38 206 
L 166 856 
Q 513 641 861 531 
Q 1209 422 1556 422 
Q 2147 422 2503 684 
Q 2859 947 2859 1369 
Q 2859 1650 2717 1795 
Q 2575 1941 2106 2059 
L 1728 2156 
Q 1081 2325 845 2545 
Q 609 2766 609 3163 
Q 609 3859 1145 4304 
Q 1681 4750 2541 4750 
Q 2875 4750 3203 4690 
Q 3531 4631 3859 4513 
z
" transform="scale(0.015625)"/>
       <path id="DejaVuSans-Oblique-69" d="M 1172 4863 
L 1747 4863 
L 1606 4134 
L 1031 4134 
L 1172 4863 
z
M 909 3500 
L 1484 3500 
L 800 0 
L 225 0 
L 909 3500 
z
" transform="scale(0.015625)"/>
      </defs>
      <use xlink:href="#DejaVuSans-Oblique-53" transform="translate(0 0.78125)"/>
      <use xlink:href="#DejaVuSans-Oblique-69" transform="translate(63.476562 -15.625)scale(0.7)"/>
     </g>
    </g>
   </g>
   <g id="patch_2">
    <path d="M 62.1066 29.555 
C 62.715241 29.555 63.299036 29.313184 63.72941 28.88281 
C 64.159784 28.452436 64.4016 27.868641 64.4016 27.26 
C 64.4016 26.651359 64.159784 26.067564 63.72941 25.63719 
C 63.299036 25.206816 62.715241 24.965 62.1066 24.965 
C 61.497959 24.965 60.914164 25.206816 60.48379 25.63719 
C 60.053416 26.067564 59.8116 26.651359 59.8116 27.26 
C 59.8116 27.868641 60.053416 28.452436 60.48379 28.88281 
C 60.914164 29.313184 61.497959 29.555 62.1066 29.555 
z
" clip-path="url(#p710e489ff9)" style="stroke: #000000; stroke-width: 2; stroke-linejoin: miter"/>
   </g>
   <g id="text_2">
    <g clip-path="url(#p710e489ff9)">
     <!-- $a_i$ -->
     <g transform="translate(17.9466 30.709219)scale(0.125 -0.125)">
      <defs>
       <path id="DejaVuSans-Oblique-61" d="M 3438 1997 
L 3047 0 
L 2472 0 
L 2578 531 
Q 2325 219 2001 64 
Q 1678 -91 1281 -91 
Q 834 -91 548 182 
Q 263 456 263 884 
Q 263 1497 752 1853 
Q 1241 2209 2100 2209 
L 2900 2209 
L 2931 2363 
Q 2938 2388 2941 2417 
Q 2944 2447 2944 2509 
Q 2944 2788 2717 2942 
Q 2491 3097 2081 3097 
Q 1800 3097 1504 3025 
Q 1209 2953 897 2809 
L 997 3341 
Q 1322 3463 1633 3523 
Q 1944 3584 2234 3584 
Q 2853 3584 3176 3315 
Q 3500 3047 3500 2534 
Q 3500 2431 3484 2292 
Q 3469 2153 3438 1997 
z
M 2816 1759 
L 2241 1759 
Q 1534 1759 1195 1570 
Q 856 1381 856 984 
Q 856 709 1029 553 
Q 1203 397 1509 397 
Q 1978 397 2328 733 
Q 2678 1069 2791 1631 
L 2816 1759 
z
" transform="scale(0.015625)"/>
      </defs>
      <use xlink:href="#DejaVuSans-Oblique-61"/>
      <use xlink:href="#DejaVuSans-Oblique-69" transform="translate(61.279297 -16.40625)scale(0.7)"/>
     </g>
    </g>
   </g>
   <g id="patch_3">
    <path d="M 46.8066 44.855 
C 47.415241 44.855 47.999036 44.613184 48.42941 44.18281 
C 48.859784 43.752436 49.1016 43.168641 49.1016 42.56 
C 49.1016 41.951359 48.859784 41.367564 48.42941 40.93719 
C 47.999036 40.506816 47.415241 40.265 46.8066 40.265 
C 46.197959 40.265 45.614164 40.506816 45.18379 40.93719 
C 44.753416 41.367564 44.5116 41.951359 44.5116 42.56 
C 44.5116 43.168641 44.753416 43.752436 45.18379 44.18281 
C 45.614164 44.613184 46.197959 44.855 46.8066 44.855 
z
" clip-path="url(#p710e489ff9)" style="stroke: #000000; stroke-width: 2; stroke-linejoin: miter"/>
   </g>
   <g id="text_3">
    <g clip-path="url(#p710e489ff9)">
     <!-- $b_i$ -->
     <g transform="translate(17.6966 46.009219)scale(0.125 -0.125)">
      <defs>
       <path id="DejaVuSans-Oblique-62" d="M 3169 2138 
Q 3169 2591 2961 2847 
Q 2753 3103 2388 3103 
Q 2122 3103 1889 2973 
Q 1656 2844 1484 2597 
Q 1303 2338 1198 1995 
Q 1094 1653 1094 1313 
Q 1094 881 1298 636 
Q 1503 391 1863 391 
Q 2134 391 2365 517 
Q 2597 644 2772 891 
Q 2950 1147 3059 1487 
Q 3169 1828 3169 2138 
z
M 1381 2969 
Q 1594 3256 1914 3420 
Q 2234 3584 2584 3584 
Q 3122 3584 3439 3221 
Q 3756 2859 3756 2241 
Q 3756 1734 3570 1259 
Q 3384 784 3041 416 
Q 2816 172 2522 40 
Q 2228 -91 1906 -91 
Q 1566 -91 1316 65 
Q 1066 222 909 531 
L 806 0 
L 231 0 
L 1178 4863 
L 1753 4863 
L 1381 2969 
z
" transform="scale(0.015625)"/>
      </defs>
      <use xlink:href="#DejaVuSans-Oblique-62" transform="translate(0 0.015625)"/>
      <use xlink:href="#DejaVuSans-Oblique-69" transform="translate(63.476562 -16.390625)scale(0.7)"/>
     </g>
    </g>
   </g>
   <g id="text_4">
    <g clip-path="url(#p710e489ff9)">
     <!-- $R_i$ -->
     <g transform="translate(121.7766 84.259219)scale(0.125 -0.125)">
      <defs>
       <path id="DejaVuSans-Oblique-52" d="M 1613 4147 
L 1294 2491 
L 2106 2491 
Q 2584 2491 2879 2755 
Q 3175 3019 3175 3444 
Q 3175 3784 2976 3965 
Q 2778 4147 2406 4147 
L 1613 4147 
z
M 2772 2241 
Q 2972 2194 3105 2009 
Q 3238 1825 3413 1275 
L 3809 0 
L 3144 0 
L 2778 1197 
Q 2638 1659 2453 1815 
Q 2269 1972 1888 1972 
L 1191 1972 
L 806 0 
L 172 0 
L 1081 4666 
L 2503 4666 
Q 3150 4666 3495 4373 
Q 3841 4081 3841 3531 
Q 3841 3044 3547 2687 
Q 3253 2331 2772 2241 
z
" transform="scale(0.015625)"/>
      </defs>
      <use xlink:href="#DejaVuSans-Oblique-52" transform="translate(0 0.09375)"/>
      <use xlink:href="#DejaVuSans-Oblique-69" transform="translate(69.482422 -16.3125)scale(0.7)"/>
     </g>
    </g>
   </g>
  </g>
 </g>
 <defs>
  <clipPath id="p710e489ff9">
   <rect x="7.2" y="7.2" width="149.277" height="91.97"/>
  </clipPath>
 </defs>
</svg>
