<?xml version="1.0" encoding="UTF-8" standalone="no"?>
<!-- Created with Digital by H.Neemann -->
<!-- created: Mon Jun 27 17:54:49 EDT 2022 -->

<svg
   xmlns:svg="http://www.w3.org/2000/svg"
   xmlns="http://www.w3.org/2000/svg"
   width="89.7mm"
   height="181.35mm"
   viewBox="-797 -395 598 1209">
<g stroke-linecap="square">
<path d="M -340,320 L -280,320" stroke="#0000b2" stroke-width="4.0" fill="none"/>
<path d="M -540,460 L -540,640 L -420,640" stroke="#0000b2" stroke-width="4.0" fill="none"/>
<path d="M -500,340 L -500,580 L -420,580" stroke="#0000b2" stroke-width="4.0" fill="none"/>
<path d="M -740,-240 L -740,-200 L -420,-200" stroke="#0000b2" stroke-width="4.0" fill="none"/>
<path d="M -340,200 L -280,200" stroke="#0000b2" stroke-width="4.0" fill="none"/>
<path d="M -780,400 L -780,520 L -420,520" stroke="#0000b2" stroke-width="4.0" fill="none"/>
<path d="M -500,-240 L -500,-140 L -420,-140" stroke="#0000b2" stroke-width="4.0" fill="none"/>
<path d="M -740,-200 L -740,-80 L -420,-80" stroke="#0000b2" stroke-width="4.0" fill="none"/>
<path d="M -340,80 L -280,80" stroke="#0000b2" stroke-width="4.0" fill="none"/>
<path d="M -780,280 L -780,400 L -420,400" stroke="#0000b2" stroke-width="4.0" fill="none"/>
<path d="M -460,600 L -460,720 L -420,720" stroke="#0000b2" stroke-width="4.0" fill="none"/>
<path d="M -540,-300 L -540,-20 L -420,-20" stroke="#0000b2" stroke-width="4.0" fill="none"/>
<path d="M -660,540 L -660,660 L -420,660" stroke="#0000b2" stroke-width="4.0" fill="none"/>
<path d="M -500,100 L -500,340 L -420,340" stroke="#0000b2" stroke-width="4.0" fill="none"/>
<path d="M -780,-300 L -780,280 L -420,280" stroke="#0000b2" stroke-width="4.0" fill="none"/>
<path d="M -460,480 L -460,600 L -420,600" stroke="#0000b2" stroke-width="4.0" fill="none"/>
<path d="M -660,180 L -660,540 L -420,540" stroke="#0000b2" stroke-width="4.0" fill="none"/>
<path d="M -340,-160 L -280,-160" stroke="#0000b2" stroke-width="4.0" fill="none"/>
<path d="M -740,40 L -740,160 L -420,160" stroke="#0000b2" stroke-width="4.0" fill="none"/>
<path d="M -460,360 L -460,480 L -420,480" stroke="#0000b2" stroke-width="4.0" fill="none"/>
<path d="M -620,300 L -620,420 L -420,420" stroke="#0000b2" stroke-width="4.0" fill="none"/>
<path d="M -500,-140 L -500,100 L -420,100" stroke="#0000b2" stroke-width="4.0" fill="none"/>
<path d="M -340,-40 L -280,-40" stroke="#0000b2" stroke-width="4.0" fill="none"/>
<path d="M -340,680 L -280,680" stroke="#0000b2" stroke-width="4.0" fill="none"/>
<path d="M -740,-80 L -740,40 L -420,40" stroke="#0000b2" stroke-width="4.0" fill="none"/>
<path d="M -460,240 L -460,360 L -420,360" stroke="#0000b2" stroke-width="4.0" fill="none"/>
<path d="M -780,-320 L -780,-300 L -740,-300 L -740,-280" stroke="#0000b2" stroke-width="4.0" fill="none"/>
<path d="M -660,-320 L -660,-300 L -620,-300 L -620,-280" stroke="#0000b2" stroke-width="4.0" fill="none"/>
<path d="M -540,-320 L -540,-300 L -500,-300 L -500,-280" stroke="#0000b2" stroke-width="4.0" fill="none"/>
<path d="M -620,-60 L -620,300 L -420,300" stroke="#0000b2" stroke-width="4.0" fill="none"/>
<path d="M -340,560 L -280,560" stroke="#0000b2" stroke-width="4.0" fill="none"/>
<path d="M -460,120 L -460,240 L -420,240" stroke="#0000b2" stroke-width="4.0" fill="none"/>
<path d="M -620,-240 L -620,-180 L -420,-180" stroke="#0000b2" stroke-width="4.0" fill="none"/>
<path d="M -660,60 L -660,180 L -420,180" stroke="#0000b2" stroke-width="4.0" fill="none"/>
<path d="M -340,440 L -280,440" stroke="#0000b2" stroke-width="4.0" fill="none"/>
<path d="M -460,0 L -460,120 L -420,120" stroke="#0000b2" stroke-width="4.0" fill="none"/>
<path d="M -620,-180 L -620,-60 L -420,-60" stroke="#0000b2" stroke-width="4.0" fill="none"/>
<path d="M -660,-300 L -660,60 L -420,60" stroke="#0000b2" stroke-width="4.0" fill="none"/>
<path d="M -780,520 L -780,700 L -420,700" stroke="#0000b2" stroke-width="4.0" fill="none"/>
<path d="M -420,460 L -540,460 L -540,220 L -420,220" stroke="#0000b2" stroke-width="4.0" fill="none"/>
<path d="M -540,-20 L -540,220" stroke="#0000b2" stroke-width="4.0" fill="none"/>
<path d="M -420,0 L -460,0 L -460,-120 L -420,-120" stroke="#0000b2" stroke-width="4.0" fill="none"/>
<path d="M -460,720 L -460,760" stroke="#0000b2" stroke-width="4.0" fill="none"/>
<path d="M -419,-80 L -419,-71" stroke="#000000" stroke-width="4.0" fill="none"/>
<path d="M -419,0 L -419,-9" stroke="#000000" stroke-width="4.0" fill="none"/>
<path d="M -419,40 L -419,49" stroke="#000000" stroke-width="4.0" fill="none"/>
<path d="M -419,120 L -419,111" stroke="#000000" stroke-width="4.0" fill="none"/>
<path d="M -419,160 L -419,169" stroke="#000000" stroke-width="4.0" fill="none"/>
<path d="M -419,240 L -419,231" stroke="#000000" stroke-width="4.0" fill="none"/>
<path d="M -419,280 L -419,289" stroke="#000000" stroke-width="4.0" fill="none"/>
<path d="M -419,360 L -419,351" stroke="#000000" stroke-width="4.0" fill="none"/>
<path d="M -419,400 L -419,409" stroke="#000000" stroke-width="4.0" fill="none"/>
<path d="M -419,480 L -419,471" stroke="#000000" stroke-width="4.0" fill="none"/>
<path d="M -419,520 L -419,529" stroke="#000000" stroke-width="4.0" fill="none"/>
<path d="M -419,600 L -419,591" stroke="#000000" stroke-width="4.0" fill="none"/>
<path d="M -419,-200 L -419,-191" stroke="#000000" stroke-width="4.0" fill="none"/>
<path d="M -419,-120 L -419,-129" stroke="#000000" stroke-width="4.0" fill="none"/>
<path d="M -419,640 L -419,649" stroke="#000000" stroke-width="4.0" fill="none"/>
<path d="M -419,720 L -419,711" stroke="#000000" stroke-width="4.0" fill="none"/>
<g>
<circle cx="-460.0" cy="0.0" r="4.0" stroke="#0000b2" stroke-width="4.0" fill="#0000b2" />
<circle cx="-740.0" cy="-200.0" r="4.0" stroke="#0000b2" stroke-width="4.0" fill="#0000b2" />
<circle cx="-780.0" cy="520.0" r="4.0" stroke="#0000b2" stroke-width="4.0" fill="#0000b2" />
<circle cx="-500.0" cy="-140.0" r="4.0" stroke="#0000b2" stroke-width="4.0" fill="#0000b2" />
<circle cx="-540.0" cy="460.0" r="4.0" stroke="#0000b2" stroke-width="4.0" fill="#0000b2" />
<circle cx="-740.0" cy="-80.0" r="4.0" stroke="#0000b2" stroke-width="4.0" fill="#0000b2" />
<circle cx="-780.0" cy="400.0" r="4.0" stroke="#0000b2" stroke-width="4.0" fill="#0000b2" />
<circle cx="-460.0" cy="720.0" r="4.0" stroke="#0000b2" stroke-width="4.0" fill="#0000b2" />
<circle cx="-540.0" cy="-20.0" r="4.0" stroke="#0000b2" stroke-width="4.0" fill="#0000b2" />
<circle cx="-500.0" cy="340.0" r="4.0" stroke="#0000b2" stroke-width="4.0" fill="#0000b2" />
<circle cx="-780.0" cy="280.0" r="4.0" stroke="#0000b2" stroke-width="4.0" fill="#0000b2" />
<circle cx="-460.0" cy="600.0" r="4.0" stroke="#0000b2" stroke-width="4.0" fill="#0000b2" />
<circle cx="-660.0" cy="540.0" r="4.0" stroke="#0000b2" stroke-width="4.0" fill="#0000b2" />
<circle cx="-540.0" cy="220.0" r="4.0" stroke="#0000b2" stroke-width="4.0" fill="#0000b2" />
<circle cx="-460.0" cy="480.0" r="4.0" stroke="#0000b2" stroke-width="4.0" fill="#0000b2" />
<circle cx="-500.0" cy="100.0" r="4.0" stroke="#0000b2" stroke-width="4.0" fill="#0000b2" />
<circle cx="-740.0" cy="40.0" r="4.0" stroke="#0000b2" stroke-width="4.0" fill="#0000b2" />
<circle cx="-460.0" cy="360.0" r="4.0" stroke="#0000b2" stroke-width="4.0" fill="#0000b2" />
<circle cx="-780.0" cy="-300.0" r="4.0" stroke="#0000b2" stroke-width="4.0" fill="#0000b2" />
<circle cx="-660.0" cy="-300.0" r="4.0" stroke="#0000b2" stroke-width="4.0" fill="#0000b2" />
<circle cx="-540.0" cy="-300.0" r="4.0" stroke="#0000b2" stroke-width="4.0" fill="#0000b2" />
<circle cx="-620.0" cy="300.0" r="4.0" stroke="#0000b2" stroke-width="4.0" fill="#0000b2" />
<circle cx="-460.0" cy="240.0" r="4.0" stroke="#0000b2" stroke-width="4.0" fill="#0000b2" />
<circle cx="-620.0" cy="-180.0" r="4.0" stroke="#0000b2" stroke-width="4.0" fill="#0000b2" />
<circle cx="-660.0" cy="180.0" r="4.0" stroke="#0000b2" stroke-width="4.0" fill="#0000b2" />
<circle cx="-460.0" cy="120.0" r="4.0" stroke="#0000b2" stroke-width="4.0" fill="#0000b2" />
<circle cx="-620.0" cy="-60.0" r="4.0" stroke="#0000b2" stroke-width="4.0" fill="#0000b2" />
<circle cx="-660.0" cy="60.0" r="4.0" stroke="#0000b2" stroke-width="4.0" fill="#0000b2" />
</g>
<g>
<path d="M -525,-351 L -525,-321 L -555,-321 L -555,-351 Z" stroke="#000000" stroke-width="4.0" fill="none"/>
<circle cx="-540.0" cy="-336.0" r="9.0" stroke="#000000" stroke-width="4.0" fill="none" />
<text text-anchor="start" x="-540.0" y="-356.0" fill="#000000" style="font-size:24px" transform="rotate(-90,-540.0,-365.0)" ><tspan style="font-style:italic;">s<tspan style="font-size:80%;baseline-shift:sub;">0</tspan></tspan></text>
<circle cx="-540.0" cy="-320.0" r="2.0" stroke="#b20000" stroke-width="4.0" fill="#b20000" />
</g>
<g>
<path d="M -645,-351 L -645,-321 L -675,-321 L -675,-351 Z" stroke="#000000" stroke-width="4.0" fill="none"/>
<circle cx="-660.0" cy="-336.0" r="9.0" stroke="#000000" stroke-width="4.0" fill="none" />
<text text-anchor="start" x="-660.0" y="-356.0" fill="#000000" style="font-size:24px" transform="rotate(-90,-660.0,-365.0)" ><tspan style="font-style:italic;">s<tspan style="font-size:80%;baseline-shift:sub;">1</tspan></tspan></text>
<circle cx="-660.0" cy="-320.0" r="2.0" stroke="#b20000" stroke-width="4.0" fill="#b20000" />
</g>
<g>
<path d="M -765,-351 L -765,-321 L -795,-321 L -795,-351 Z" stroke="#000000" stroke-width="4.0" fill="none"/>
<circle cx="-780.0" cy="-336.0" r="9.0" stroke="#000000" stroke-width="4.0" fill="none" />
<text text-anchor="start" x="-780.0" y="-356.0" fill="#000000" style="font-size:24px" transform="rotate(-90,-780.0,-365.0)" ><tspan style="font-style:italic;">s<tspan style="font-size:80%;baseline-shift:sub;">2</tspan></tspan></text>
<circle cx="-780.0" cy="-320.0" r="2.0" stroke="#b20000" stroke-width="4.0" fill="#b20000" />
</g>
<g>
<path d="M -370,-10 L -419,-10 L -419,-70 L -370,-70 C -360,-70 -340,-60 -341,-40 C -341,-20 -360,-10 -370,-10 Z" stroke="#000000" stroke-width="4.0" fill="none"/>
<circle cx="-420.0" cy="-80.0" r="2.0" stroke="#0000b2" stroke-width="4.0" fill="#0000b2" />
<circle cx="-420.0" cy="-60.0" r="2.0" stroke="#0000b2" stroke-width="4.0" fill="#0000b2" />
<circle cx="-420.0" cy="-20.0" r="2.0" stroke="#0000b2" stroke-width="4.0" fill="#0000b2" />
<circle cx="-420.0" cy="0.0" r="2.0" stroke="#0000b2" stroke-width="4.0" fill="#0000b2" />
<circle cx="-340.0" cy="-40.0" r="2.0" stroke="#b20000" stroke-width="4.0" fill="#b20000" />
</g>
<g>
<path d="M -370,110 L -419,110 L -419,50 L -370,50 C -360,50 -340,60 -341,80 C -341,100 -360,110 -370,110 Z" stroke="#000000" stroke-width="4.0" fill="none"/>
<circle cx="-420.0" cy="40.0" r="2.0" stroke="#0000b2" stroke-width="4.0" fill="#0000b2" />
<circle cx="-420.0" cy="60.0" r="2.0" stroke="#0000b2" stroke-width="4.0" fill="#0000b2" />
<circle cx="-420.0" cy="100.0" r="2.0" stroke="#0000b2" stroke-width="4.0" fill="#0000b2" />
<circle cx="-420.0" cy="120.0" r="2.0" stroke="#0000b2" stroke-width="4.0" fill="#0000b2" />
<circle cx="-340.0" cy="80.0" r="2.0" stroke="#b20000" stroke-width="4.0" fill="#b20000" />
</g>
<g>
<path d="M -370,230 L -419,230 L -419,170 L -370,170 C -360,170 -340,180 -341,200 C -341,220 -360,230 -370,230 Z" stroke="#000000" stroke-width="4.0" fill="none"/>
<circle cx="-420.0" cy="160.0" r="2.0" stroke="#0000b2" stroke-width="4.0" fill="#0000b2" />
<circle cx="-420.0" cy="180.0" r="2.0" stroke="#0000b2" stroke-width="4.0" fill="#0000b2" />
<circle cx="-420.0" cy="220.0" r="2.0" stroke="#0000b2" stroke-width="4.0" fill="#0000b2" />
<circle cx="-420.0" cy="240.0" r="2.0" stroke="#0000b2" stroke-width="4.0" fill="#0000b2" />
<circle cx="-340.0" cy="200.0" r="2.0" stroke="#b20000" stroke-width="4.0" fill="#b20000" />
</g>
<g>
<path d="M -370,350 L -419,350 L -419,290 L -370,290 C -360,290 -340,300 -341,320 C -341,340 -360,350 -370,350 Z" stroke="#000000" stroke-width="4.0" fill="none"/>
<circle cx="-420.0" cy="280.0" r="2.0" stroke="#0000b2" stroke-width="4.0" fill="#0000b2" />
<circle cx="-420.0" cy="300.0" r="2.0" stroke="#0000b2" stroke-width="4.0" fill="#0000b2" />
<circle cx="-420.0" cy="340.0" r="2.0" stroke="#0000b2" stroke-width="4.0" fill="#0000b2" />
<circle cx="-420.0" cy="360.0" r="2.0" stroke="#0000b2" stroke-width="4.0" fill="#0000b2" />
<circle cx="-340.0" cy="320.0" r="2.0" stroke="#b20000" stroke-width="4.0" fill="#b20000" />
</g>
<g>
<path d="M -370,470 L -419,470 L -419,410 L -370,410 C -360,410 -340,420 -341,440 C -341,460 -360,470 -370,470 Z" stroke="#000000" stroke-width="4.0" fill="none"/>
<circle cx="-420.0" cy="400.0" r="2.0" stroke="#0000b2" stroke-width="4.0" fill="#0000b2" />
<circle cx="-420.0" cy="420.0" r="2.0" stroke="#0000b2" stroke-width="4.0" fill="#0000b2" />
<circle cx="-420.0" cy="460.0" r="2.0" stroke="#0000b2" stroke-width="4.0" fill="#0000b2" />
<circle cx="-420.0" cy="480.0" r="2.0" stroke="#0000b2" stroke-width="4.0" fill="#0000b2" />
<circle cx="-340.0" cy="440.0" r="2.0" stroke="#b20000" stroke-width="4.0" fill="#b20000" />
</g>
<g>
<path d="M -370,590 L -419,590 L -419,530 L -370,530 C -360,530 -340,540 -341,560 C -341,580 -360,590 -370,590 Z" stroke="#000000" stroke-width="4.0" fill="none"/>
<circle cx="-420.0" cy="520.0" r="2.0" stroke="#0000b2" stroke-width="4.0" fill="#0000b2" />
<circle cx="-420.0" cy="540.0" r="2.0" stroke="#0000b2" stroke-width="4.0" fill="#0000b2" />
<circle cx="-420.0" cy="580.0" r="2.0" stroke="#0000b2" stroke-width="4.0" fill="#0000b2" />
<circle cx="-420.0" cy="600.0" r="2.0" stroke="#0000b2" stroke-width="4.0" fill="#0000b2" />
<circle cx="-340.0" cy="560.0" r="2.0" stroke="#b20000" stroke-width="4.0" fill="#b20000" />
</g>
<g>
<path d="M -370,-130 L -419,-130 L -419,-190 L -370,-190 C -360,-190 -340,-180 -341,-160 C -341,-140 -360,-130 -370,-130 Z" stroke="#000000" stroke-width="4.0" fill="none"/>
<circle cx="-420.0" cy="-200.0" r="2.0" stroke="#0000b2" stroke-width="4.0" fill="#0000b2" />
<circle cx="-420.0" cy="-180.0" r="2.0" stroke="#0000b2" stroke-width="4.0" fill="#0000b2" />
<circle cx="-420.0" cy="-140.0" r="2.0" stroke="#0000b2" stroke-width="4.0" fill="#0000b2" />
<circle cx="-420.0" cy="-120.0" r="2.0" stroke="#0000b2" stroke-width="4.0" fill="#0000b2" />
<circle cx="-340.0" cy="-160.0" r="2.0" stroke="#b20000" stroke-width="4.0" fill="#b20000" />
</g>
<g>
<path d="M -370,710 L -419,710 L -419,650 L -370,650 C -360,650 -340,660 -341,680 C -341,700 -360,710 -370,710 Z" stroke="#000000" stroke-width="4.0" fill="none"/>
<circle cx="-420.0" cy="640.0" r="2.0" stroke="#0000b2" stroke-width="4.0" fill="#0000b2" />
<circle cx="-420.0" cy="660.0" r="2.0" stroke="#0000b2" stroke-width="4.0" fill="#0000b2" />
<circle cx="-420.0" cy="700.0" r="2.0" stroke="#0000b2" stroke-width="4.0" fill="#0000b2" />
<circle cx="-420.0" cy="720.0" r="2.0" stroke="#0000b2" stroke-width="4.0" fill="#0000b2" />
<circle cx="-340.0" cy="680.0" r="2.0" stroke="#b20000" stroke-width="4.0" fill="#b20000" />
</g>
<g>
<circle cx="-264.0" cy="-160.0" r="9.0" stroke="#000000" stroke-width="4.0" fill="none" />
<circle cx="-264.0" cy="-160.0" r="15.0" stroke="#000000" stroke-width="4.0" fill="none" />
<text text-anchor="start" x="-235.0" y="-151.0" fill="#000000" style="font-size:24px"><tspan style="font-style:italic;">O<tspan style="font-size:80%;baseline-shift:sub;">0</tspan></tspan></text>
<circle cx="-280.0" cy="-160.0" r="2.0" stroke="#0000b2" stroke-width="4.0" fill="#0000b2" />
</g>
<g>
<circle cx="-264.0" cy="-40.0" r="9.0" stroke="#000000" stroke-width="4.0" fill="none" />
<circle cx="-264.0" cy="-40.0" r="15.0" stroke="#000000" stroke-width="4.0" fill="none" />
<text text-anchor="start" x="-235.0" y="-31.0" fill="#000000" style="font-size:24px"><tspan style="font-style:italic;">O<tspan style="font-size:80%;baseline-shift:sub;">1</tspan></tspan></text>
<circle cx="-280.0" cy="-40.0" r="2.0" stroke="#0000b2" stroke-width="4.0" fill="#0000b2" />
</g>
<g>
<circle cx="-264.0" cy="80.0" r="9.0" stroke="#000000" stroke-width="4.0" fill="none" />
<circle cx="-264.0" cy="80.0" r="15.0" stroke="#000000" stroke-width="4.0" fill="none" />
<text text-anchor="start" x="-235.0" y="89.0" fill="#000000" style="font-size:24px"><tspan style="font-style:italic;">O<tspan style="font-size:80%;baseline-shift:sub;">2</tspan></tspan></text>
<circle cx="-280.0" cy="80.0" r="2.0" stroke="#0000b2" stroke-width="4.0" fill="#0000b2" />
</g>
<g>
<circle cx="-264.0" cy="200.0" r="9.0" stroke="#000000" stroke-width="4.0" fill="none" />
<circle cx="-264.0" cy="200.0" r="15.0" stroke="#000000" stroke-width="4.0" fill="none" />
<text text-anchor="start" x="-235.0" y="209.0" fill="#000000" style="font-size:24px"><tspan style="font-style:italic;">O<tspan style="font-size:80%;baseline-shift:sub;">3</tspan></tspan></text>
<circle cx="-280.0" cy="200.0" r="2.0" stroke="#0000b2" stroke-width="4.0" fill="#0000b2" />
</g>
<g>
<circle cx="-264.0" cy="320.0" r="9.0" stroke="#000000" stroke-width="4.0" fill="none" />
<circle cx="-264.0" cy="320.0" r="15.0" stroke="#000000" stroke-width="4.0" fill="none" />
<text text-anchor="start" x="-235.0" y="329.0" fill="#000000" style="font-size:24px"><tspan style="font-style:italic;">O<tspan style="font-size:80%;baseline-shift:sub;">4</tspan></tspan></text>
<circle cx="-280.0" cy="320.0" r="2.0" stroke="#0000b2" stroke-width="4.0" fill="#0000b2" />
</g>
<g>
<circle cx="-264.0" cy="440.0" r="9.0" stroke="#000000" stroke-width="4.0" fill="none" />
<circle cx="-264.0" cy="440.0" r="15.0" stroke="#000000" stroke-width="4.0" fill="none" />
<text text-anchor="start" x="-235.0" y="449.0" fill="#000000" style="font-size:24px"><tspan style="font-style:italic;">O<tspan style="font-size:80%;baseline-shift:sub;">5</tspan></tspan></text>
<circle cx="-280.0" cy="440.0" r="2.0" stroke="#0000b2" stroke-width="4.0" fill="#0000b2" />
</g>
<g>
<circle cx="-264.0" cy="560.0" r="9.0" stroke="#000000" stroke-width="4.0" fill="none" />
<circle cx="-264.0" cy="560.0" r="15.0" stroke="#000000" stroke-width="4.0" fill="none" />
<text text-anchor="start" x="-235.0" y="569.0" fill="#000000" style="font-size:24px"><tspan style="font-style:italic;">O<tspan style="font-size:80%;baseline-shift:sub;">6</tspan></tspan></text>
<circle cx="-280.0" cy="560.0" r="2.0" stroke="#0000b2" stroke-width="4.0" fill="#0000b2" />
</g>
<g>
<circle cx="-264.0" cy="680.0" r="9.0" stroke="#000000" stroke-width="4.0" fill="none" />
<circle cx="-264.0" cy="680.0" r="15.0" stroke="#000000" stroke-width="4.0" fill="none" />
<text text-anchor="start" x="-235.0" y="689.0" fill="#000000" style="font-size:24px"><tspan style="font-style:italic;">O<tspan style="font-size:80%;baseline-shift:sub;">7</tspan></tspan></text>
<circle cx="-280.0" cy="680.0" r="2.0" stroke="#0000b2" stroke-width="4.0" fill="#0000b2" />
</g>
<g>
<path d="M -488,-279 L -500,-261 L -512,-279 Z" stroke="#000000" stroke-width="4.0" fill="none"/>
<circle cx="-500.0" cy="-250.0" r="9.0" stroke="#000000" stroke-width="4.0" fill="none" />
<circle cx="-500.0" cy="-280.0" r="2.0" stroke="#0000b2" stroke-width="4.0" fill="#0000b2" />
<circle cx="-500.0" cy="-240.0" r="2.0" stroke="#b20000" stroke-width="4.0" fill="#b20000" />
</g>
<g>
<path d="M -608,-279 L -620,-261 L -632,-279 Z" stroke="#000000" stroke-width="4.0" fill="none"/>
<circle cx="-620.0" cy="-250.0" r="9.0" stroke="#000000" stroke-width="4.0" fill="none" />
<circle cx="-620.0" cy="-280.0" r="2.0" stroke="#0000b2" stroke-width="4.0" fill="#0000b2" />
<circle cx="-620.0" cy="-240.0" r="2.0" stroke="#b20000" stroke-width="4.0" fill="#b20000" />
</g>
<g>
<path d="M -728,-279 L -740,-261 L -752,-279 Z" stroke="#000000" stroke-width="4.0" fill="none"/>
<circle cx="-740.0" cy="-250.0" r="9.0" stroke="#000000" stroke-width="4.0" fill="none" />
<circle cx="-740.0" cy="-280.0" r="2.0" stroke="#0000b2" stroke-width="4.0" fill="#0000b2" />
<circle cx="-740.0" cy="-240.0" r="2.0" stroke="#b20000" stroke-width="4.0" fill="#b20000" />
</g>
<g>
<path d="M -475,791 L -475,761 L -445,761 L -445,791 Z" stroke="#000000" stroke-width="4.0" fill="none"/>
<circle cx="-460.0" cy="776.0" r="9.0" stroke="#000000" stroke-width="4.0" fill="none" />
<text text-anchor="end" x="-460.0" y="814.0" fill="#000000" style="font-size:24px" transform="rotate(-90,-460.0,805.0)" ><tspan style="font-style:italic;">I</tspan></text>
<circle cx="-460.0" cy="760.0" r="2.0" stroke="#b20000" stroke-width="4.0" fill="#b20000" />
</g>
</g>
</svg>