<?xml version="1.0" encoding="UTF-8" standalone="no"?>
<!-- Created with Digital by H.Neemann -->
<!-- created: Thu Jan 20 14:29:51 EST 2022 -->

<svg
   xmlns:svg="http://www.w3.org/2000/svg"
   xmlns="http://www.w3.org/2000/svg"
   width="89.7mm"
   height="75.6mm"
   viewBox="-417 -180 598 504">
<g stroke-linecap="square">
<path d="M -220,-100 L -220,0 L 20,0" stroke="#0000b2" stroke-width="4.0" fill="none"/>
<path d="M 100,160 L 120,160" stroke="#0000b2" stroke-width="4.0" fill="none"/>
<path d="M -40,200 L -40,320 L 20,320" stroke="#0000b2" stroke-width="4.0" fill="none"/>
<path d="M -280,140 L -280,260 L 20,260 L 24,260" stroke="#0000b2" stroke-width="4.0" fill="none"/>
<path d="M 100,40 L 120,40" stroke="#0000b2" stroke-width="4.0" fill="none"/>
<path d="M -40,80 L -40,200 L 20,200" stroke="#0000b2" stroke-width="4.0" fill="none"/>
<path d="M -280,-100 L -280,140 L 20,140 L 24,140" stroke="#0000b2" stroke-width="4.0" fill="none"/>
<path d="M -160,20 L -160,300 L 20,300 L 24,300" stroke="#0000b2" stroke-width="4.0" fill="none"/>
<path d="M -40,-100 L -40,80 L 20,80" stroke="#0000b2" stroke-width="4.0" fill="none"/>
<path d="M -400,-100 L -400,240 L 20,240" stroke="#0000b2" stroke-width="4.0" fill="none"/>
<path d="M -160,-100 L -160,20 L 20,20 L 24,20" stroke="#0000b2" stroke-width="4.0" fill="none"/>
<path d="M -100,60 L -100,180 L 20,180 L 24,180" stroke="#0000b2" stroke-width="4.0" fill="none"/>
<path d="M -340,-100 L -340,120 L 20,120" stroke="#0000b2" stroke-width="4.0" fill="none"/>
<path d="M 100,280 L 120,280" stroke="#0000b2" stroke-width="4.0" fill="none"/>
<path d="M -100,-100 L -100,60 L 20,60 L 24,60" stroke="#0000b2" stroke-width="4.0" fill="none"/>
<path d="M 21,0 L 21,9" stroke="#000000" stroke-width="4.0" fill="none"/>
<path d="M 21,80 L 21,71" stroke="#000000" stroke-width="4.0" fill="none"/>
<path d="M 21,120 L 21,129" stroke="#000000" stroke-width="4.0" fill="none"/>
<path d="M 21,200 L 21,191" stroke="#000000" stroke-width="4.0" fill="none"/>
<path d="M 21,240 L 21,249" stroke="#000000" stroke-width="4.0" fill="none"/>
<path d="M 21,320 L 21,311" stroke="#000000" stroke-width="4.0" fill="none"/>
<g>
<circle cx="-40.0" cy="200.0" r="4.0" stroke="#0000b2" stroke-width="4.0" fill="#0000b2" />
<circle cx="-280.0" cy="140.0" r="4.0" stroke="#0000b2" stroke-width="4.0" fill="#0000b2" />
<circle cx="-40.0" cy="80.0" r="4.0" stroke="#0000b2" stroke-width="4.0" fill="#0000b2" />
<circle cx="-160.0" cy="20.0" r="4.0" stroke="#0000b2" stroke-width="4.0" fill="#0000b2" />
<circle cx="-100.0" cy="60.0" r="4.0" stroke="#0000b2" stroke-width="4.0" fill="#0000b2" />
</g>
<g>
<circle cx="136.0" cy="40.0" r="9.0" stroke="#000000" stroke-width="4.0" fill="none" />
<circle cx="136.0" cy="40.0" r="15.0" stroke="#000000" stroke-width="4.0" fill="none" />
<text text-anchor="start" x="165.0" y="49.0" fill="#000000" style="font-size:24px"><tspan style="font-style:italic;">x</tspan></text>
<circle cx="120.0" cy="40.0" r="2.0" stroke="#0000b2" stroke-width="4.0" fill="#0000b2" />
</g>
<g>
<path d="M 50,70 L 20,70 C 30,54 30,26 20,10 L 40,10 C 70,10 90,20 100,40 C 90,60 70,70 50,70 Z" stroke="#000000" stroke-width="4.0" fill="none"/>
<circle cx="20.0" cy="0.0" r="2.0" stroke="#0000b2" stroke-width="4.0" fill="#0000b2" />
<circle cx="20.0" cy="20.0" r="2.0" stroke="#0000b2" stroke-width="4.0" fill="#0000b2" />
<circle cx="20.0" cy="60.0" r="2.0" stroke="#0000b2" stroke-width="4.0" fill="#0000b2" />
<circle cx="20.0" cy="80.0" r="2.0" stroke="#0000b2" stroke-width="4.0" fill="#0000b2" />
<circle cx="100.0" cy="40.0" r="2.0" stroke="#b20000" stroke-width="4.0" fill="#b20000" />
</g>
<g>
<circle cx="136.0" cy="160.0" r="9.0" stroke="#000000" stroke-width="4.0" fill="none" />
<circle cx="136.0" cy="160.0" r="15.0" stroke="#000000" stroke-width="4.0" fill="none" />
<text text-anchor="start" x="165.0" y="169.0" fill="#000000" style="font-size:24px"><tspan style="font-style:italic;">y</tspan></text>
<circle cx="120.0" cy="160.0" r="2.0" stroke="#0000b2" stroke-width="4.0" fill="#0000b2" />
</g>
<g>
<path d="M 50,190 L 20,190 C 30,174 30,146 20,130 L 40,130 C 70,130 90,140 100,160 C 90,180 70,190 50,190 Z" stroke="#000000" stroke-width="4.0" fill="none"/>
<circle cx="20.0" cy="120.0" r="2.0" stroke="#0000b2" stroke-width="4.0" fill="#0000b2" />
<circle cx="20.0" cy="140.0" r="2.0" stroke="#0000b2" stroke-width="4.0" fill="#0000b2" />
<circle cx="20.0" cy="180.0" r="2.0" stroke="#0000b2" stroke-width="4.0" fill="#0000b2" />
<circle cx="20.0" cy="200.0" r="2.0" stroke="#0000b2" stroke-width="4.0" fill="#0000b2" />
<circle cx="100.0" cy="160.0" r="2.0" stroke="#b20000" stroke-width="4.0" fill="#b20000" />
</g>
<g>
<circle cx="136.0" cy="280.0" r="9.0" stroke="#000000" stroke-width="4.0" fill="none" />
<circle cx="136.0" cy="280.0" r="15.0" stroke="#000000" stroke-width="4.0" fill="none" />
<text text-anchor="start" x="165.0" y="289.0" fill="#000000" style="font-size:24px"><tspan style="font-style:italic;">z</tspan></text>
<circle cx="120.0" cy="280.0" r="2.0" stroke="#0000b2" stroke-width="4.0" fill="#0000b2" />
</g>
<g>
<path d="M 50,310 L 20,310 C 30,294 30,266 20,250 L 40,250 C 70,250 90,260 100,280 C 90,300 70,310 50,310 Z" stroke="#000000" stroke-width="4.0" fill="none"/>
<circle cx="20.0" cy="240.0" r="2.0" stroke="#0000b2" stroke-width="4.0" fill="#0000b2" />
<circle cx="20.0" cy="260.0" r="2.0" stroke="#0000b2" stroke-width="4.0" fill="#0000b2" />
<circle cx="20.0" cy="300.0" r="2.0" stroke="#0000b2" stroke-width="4.0" fill="#0000b2" />
<circle cx="20.0" cy="320.0" r="2.0" stroke="#0000b2" stroke-width="4.0" fill="#0000b2" />
<circle cx="100.0" cy="280.0" r="2.0" stroke="#b20000" stroke-width="4.0" fill="#b20000" />
</g>
<g>
<path d="M -385,-131 L -385,-101 L -415,-101 L -415,-131 Z" stroke="#000000" stroke-width="4.0" fill="none"/>
<circle cx="-400.0" cy="-116.0" r="9.0" stroke="#000000" stroke-width="4.0" fill="none" />
<text text-anchor="start" x="-400.0" y="-136.0" fill="#000000" style="font-size:24px" transform="rotate(-90,-400.0,-145.0)" ><tspan style="font-style:italic;">D<tspan style="font-size:80%;baseline-shift:sub;">1</tspan></tspan></text>
<circle cx="-400.0" cy="-100.0" r="2.0" stroke="#b20000" stroke-width="4.0" fill="#b20000" />
</g>
<g>
<path d="M -325,-131 L -325,-101 L -355,-101 L -355,-131 Z" stroke="#000000" stroke-width="4.0" fill="none"/>
<circle cx="-340.0" cy="-116.0" r="9.0" stroke="#000000" stroke-width="4.0" fill="none" />
<text text-anchor="start" x="-340.0" y="-136.0" fill="#000000" style="font-size:24px" transform="rotate(-90,-340.0,-145.0)" ><tspan style="font-style:italic;">D<tspan style="font-size:80%;baseline-shift:sub;">2</tspan></tspan></text>
<circle cx="-340.0" cy="-100.0" r="2.0" stroke="#b20000" stroke-width="4.0" fill="#b20000" />
</g>
<g>
<path d="M -265,-131 L -265,-101 L -295,-101 L -295,-131 Z" stroke="#000000" stroke-width="4.0" fill="none"/>
<circle cx="-280.0" cy="-116.0" r="9.0" stroke="#000000" stroke-width="4.0" fill="none" />
<text text-anchor="start" x="-280.0" y="-136.0" fill="#000000" style="font-size:24px" transform="rotate(-90,-280.0,-145.0)" ><tspan style="font-style:italic;">D<tspan style="font-size:80%;baseline-shift:sub;">3</tspan></tspan></text>
<circle cx="-280.0" cy="-100.0" r="2.0" stroke="#b20000" stroke-width="4.0" fill="#b20000" />
</g>
<g>
<path d="M -205,-131 L -205,-101 L -235,-101 L -235,-131 Z" stroke="#000000" stroke-width="4.0" fill="none"/>
<circle cx="-220.0" cy="-116.0" r="9.0" stroke="#000000" stroke-width="4.0" fill="none" />
<text text-anchor="start" x="-220.0" y="-136.0" fill="#000000" style="font-size:24px" transform="rotate(-90,-220.0,-145.0)" ><tspan style="font-style:italic;">D<tspan style="font-size:80%;baseline-shift:sub;">4</tspan></tspan></text>
<circle cx="-220.0" cy="-100.0" r="2.0" stroke="#b20000" stroke-width="4.0" fill="#b20000" />
</g>
<g>
<path d="M -145,-131 L -145,-101 L -175,-101 L -175,-131 Z" stroke="#000000" stroke-width="4.0" fill="none"/>
<circle cx="-160.0" cy="-116.0" r="9.0" stroke="#000000" stroke-width="4.0" fill="none" />
<text text-anchor="start" x="-160.0" y="-136.0" fill="#000000" style="font-size:24px" transform="rotate(-90,-160.0,-145.0)" ><tspan style="font-style:italic;">D<tspan style="font-size:80%;baseline-shift:sub;">5</tspan></tspan></text>
<circle cx="-160.0" cy="-100.0" r="2.0" stroke="#b20000" stroke-width="4.0" fill="#b20000" />
</g>
<g>
<path d="M -85,-131 L -85,-101 L -115,-101 L -115,-131 Z" stroke="#000000" stroke-width="4.0" fill="none"/>
<circle cx="-100.0" cy="-116.0" r="9.0" stroke="#000000" stroke-width="4.0" fill="none" />
<text text-anchor="start" x="-100.0" y="-136.0" fill="#000000" style="font-size:24px" transform="rotate(-90,-100.0,-145.0)" ><tspan style="font-style:italic;">D<tspan style="font-size:80%;baseline-shift:sub;">6</tspan></tspan></text>
<circle cx="-100.0" cy="-100.0" r="2.0" stroke="#b20000" stroke-width="4.0" fill="#b20000" />
</g>
<g>
<path d="M -25,-131 L -25,-101 L -55,-101 L -55,-131 Z" stroke="#000000" stroke-width="4.0" fill="none"/>
<circle cx="-40.0" cy="-116.0" r="9.0" stroke="#000000" stroke-width="4.0" fill="none" />
<text text-anchor="start" x="-40.0" y="-136.0" fill="#000000" style="font-size:24px" transform="rotate(-90,-40.0,-145.0)" ><tspan style="font-style:italic;">D<tspan style="font-size:80%;baseline-shift:sub;">7</tspan></tspan></text>
<circle cx="-40.0" cy="-100.0" r="2.0" stroke="#b20000" stroke-width="4.0" fill="#b20000" />
</g>
</g>
</svg>