<?xml version="1.0" encoding="UTF-8" standalone="no"?>
<!-- Created with Digital by H.Neemann -->
<!-- created: Fri Mar 04 17:04:44 EST 2022 -->

<svg
   xmlns:svg="http://www.w3.org/2000/svg"
   xmlns="http://www.w3.org/2000/svg"
   width="131.25mm"
   height="109.65mm"
   viewBox="46 16 875 731">
<g stroke-linecap="square">
<circle cx="240.0" cy="120.0" r="70.0" stroke="#000000" stroke-width="4.0" fill="none" />
<circle cx="148.07611" cy="28.076118" r="10.0" stroke="#000000" stroke-width="4.0" fill="#000000" />
<path d="M 157.9756,37.975613 Q 172.82486,52.82486 187.6741,67.6741" stroke="#808080" stroke-width="2.0" fill="none"/>
<path d="M 169.28932,57.77461 L 189.08832,69.08832 L 177.77461,49.289326" stroke="#808080" stroke-width="2.0" fill="none"/>
<text text-anchor="middle" x="240.0" y="105.0" fill="#000000" style="font-size:24px">0</text>
<text text-anchor="middle" x="240.0" y="129.0" fill="#000000" style="font-size:24px">a</text>
<circle cx="660.0" cy="240.0" r="70.0" stroke="#000000" stroke-width="4.0" fill="none" />
<text text-anchor="middle" x="660.0" y="225.0" fill="#000000" style="font-size:24px">1</text>
<text text-anchor="middle" x="660.0" y="249.0" fill="#000000" style="font-size:24px">b</text>
<circle cx="360.0" cy="480.0" r="70.0" stroke="#000000" stroke-width="4.0" fill="none" />
<text text-anchor="middle" x="360.0" y="465.0" fill="#000000" style="font-size:24px">2</text>
<text text-anchor="middle" x="360.0" y="489.0" fill="#000000" style="font-size:24px">c</text>
<circle cx="780.0" cy="600.0" r="70.0" stroke="#000000" stroke-width="4.0" fill="none" />
<text text-anchor="middle" x="780.0" y="585.0" fill="#000000" style="font-size:24px">3</text>
<text text-anchor="middle" x="780.0" y="609.0" fill="#000000" style="font-size:24px">d</text>
<path d="M 179.24792,162.25145 C 100.5651,216.97325 74.40262,65.193756 167.84888,96.120804" stroke="#808080" stroke-width="2.0" fill="none"/>
<path d="M 146.97655,95.53295 L 169.74759,96.74921 L 150.74693,84.14066" stroke="#808080" stroke-width="2.0" fill="none"/>
<text text-anchor="middle" x="109.0" y="160.0" fill="#000000" style="font-size:24px"><tspan style="font-style:italic;">0</tspan></text>
<text text-anchor="middle" x="109.0" y="184.0" fill="#000000" style="font-size:24px">mettre <tspan style="font-style:italic;">00</tspan></text>
<path d="M 312.6973,106.17598 Q 476.10327,91.89026 604.1083,188.50128" stroke="#808080" stroke-width="2.0" fill="none"/>
<path d="M 584.5302,181.24194 L 605.70465,189.70612 L 591.7592,171.66379" stroke="#808080" stroke-width="2.0" fill="none"/>
<text text-anchor="middle" x="467.25302" y="92.61444" fill="#000000" style="font-size:24px"><tspan style="font-style:italic;">1</tspan></text>
<text text-anchor="middle" x="467.25302" y="116.61444" fill="#000000" style="font-size:24px">mettre <tspan style="font-style:italic;">01</tspan></text>
<path d="M 414.352,530.21814 Q 545.52124,628.9249 705.3575,614.3001" stroke="#808080" stroke-width="2.0" fill="none"/>
<path d="M 685.98737,622.09753 L 707.3492,614.11786 L 684.894,610.14746" stroke="#808080" stroke-width="2.0" fill="none"/>
<text text-anchor="middle" x="552.688" y="621.59204" fill="#000000" style="font-size:24px"><tspan style="font-style:italic;">1</tspan></text>
<text text-anchor="middle" x="552.688" y="645.59204" fill="#000000" style="font-size:24px">mettre <tspan style="font-style:italic;">00</tspan></text>
<path d="M 705.08655,298.6788 Q 768.25854,404.90985 780.88525,524.0051" stroke="#808080" stroke-width="2.0" fill="none"/>
<path d="M 772.81006,504.7492 L 781.0961,525.99396 L 784.74316,503.484" stroke="#808080" stroke-width="2.0" fill="none"/>
<text text-anchor="middle" x="755.6222" y="405.12592" fill="#000000" style="font-size:24px"><tspan style="font-style:italic;">1</tspan></text>
<text text-anchor="middle" x="755.6222" y="429.12592" fill="#000000" style="font-size:24px">mettre <tspan style="font-style:italic;">10</tspan></text>
<path d="M 602.1879,286.1927 Q 509.16486,360.5569 419.3175,432.48752" stroke="#808080" stroke-width="2.0" fill="none"/>
<path d="M 431.18057,415.30417 L 417.75623,433.73746 L 438.68027,424.6719" stroke="#808080" stroke-width="2.0" fill="none"/>
<text text-anchor="middle" x="509.9588" y="356.9485" fill="#000000" style="font-size:24px"><tspan style="font-style:italic;">0</tspan></text>
<text text-anchor="middle" x="509.9588" y="380.9485" fill="#000000" style="font-size:24px">mettre <tspan style="font-style:italic;">00</tspan></text>
<path d="M 314.51755,421.62753 Q 250.63428,315.46152 238.6007,195.98712" stroke="#808080" stroke-width="2.0" fill="none"/>
<path d="M 246.57477,215.28516 L 238.40027,193.9972 L 234.63516,216.48773" stroke="#808080" stroke-width="2.0" fill="none"/>
<text text-anchor="middle" x="263.5967" y="309.13443" fill="#000000" style="font-size:24px"><tspan style="font-style:italic;">0</tspan></text>
<text text-anchor="middle" x="263.5967" y="333.13443" fill="#000000" style="font-size:24px">mettre <tspan style="font-style:italic;">00</tspan></text>
<path d="M 847.2866,630.79785 C 922.91565,665.4141 814.3213,757.7318 796.15894,674.26227" stroke="#808080" stroke-width="2.0" fill="none"/>
<path d="M 806.27405,692.5293 L 795.7337,672.308 L 794.54846,695.0807" stroke="#808080" stroke-width="2.0" fill="none"/>
<text text-anchor="middle" x="857.95276" y="717.8122" fill="#000000" style="font-size:24px"><tspan style="font-style:italic;">X</tspan></text>
<text text-anchor="middle" x="857.95276" y="741.8122" fill="#000000" style="font-size:24px">mettre <tspan style="font-style:italic;">11</tspan></text>
</g>
</svg>