<?xml version="1.0" encoding="UTF-8" standalone="no"?>
<!-- Created with Digital by H.Neemann -->
<!-- created: Tue Sep 19 16:13:44 EDT 2023 -->

<svg
   xmlns:svg="http://www.w3.org/2000/svg"
   xmlns="http://www.w3.org/2000/svg"
   width="180.45mm"
   height="70.65mm"
   viewBox="9 8 1203 471">
<g stroke-linecap="square">
<circle cx="240.0" cy="240.0" r="70.0" stroke="#000000" stroke-width="4.0" fill="none" />
<text text-anchor="middle" x="240.0" y="225.0" fill="#000000" style="font-size:24px">1</text>
<circle cx="480.0" cy="120.0" r="70.0" stroke="#000000" stroke-width="4.0" fill="none" />
<text text-anchor="middle" x="480.0" y="105.0" fill="#000000" style="font-size:24px">4</text>
<circle cx="480.0" cy="360.0" r="70.0" stroke="#000000" stroke-width="4.0" fill="none" />
<text text-anchor="middle" x="480.0" y="345.0" fill="#000000" style="font-size:24px">3</text>
<circle cx="720.0" cy="240.0" r="70.0" stroke="#000000" stroke-width="4.0" fill="none" />
<text text-anchor="middle" x="720.0" y="225.0" fill="#000000" style="font-size:24px">2</text>
<circle cx="1140.0" cy="300.0" r="70.0" stroke="#000000" stroke-width="4.0" fill="none" />
<circle cx="1048.0762" cy="208.07611" r="10.0" stroke="#000000" stroke-width="4.0" fill="#000000" />
<path d="M 1057.9757,217.97562 Q 1072.825,232.82484 1087.6741,247.67407" stroke="#808080" stroke-width="2.0" fill="none"/>
<path d="M 1069.2893,237.77452 L 1089.0883,249.08829 L 1077.7747,229.28926" stroke="#808080" stroke-width="2.0" fill="none"/>
<text text-anchor="middle" x="1140.0" y="285.0" fill="#000000" style="font-size:24px">0</text>
<path d="M 256.72824,167.91556 Q 303.60306,65.77989 410.46564,89.32468" stroke="#808080" stroke-width="2.0" fill="none"/>
<path d="M 389.64307,90.880806 L 412.4188,89.75501 L 392.2251,79.16187" stroke="#808080" stroke-width="2.0" fill="none"/>
<text text-anchor="middle" x="318.6" y="70.200005" fill="#000000" style="font-size:24px"><tspan style="font-style:italic;">A=1</tspan></text>
<text text-anchor="middle" x="318.6" y="94.200005" fill="#000000" style="font-size:24px">mettre <tspan style="font-style:italic;">S=1</tspan></text>
<path d="M 459.6743,191.15381 Q 461.4243,240.96155 459.12494,286.9231" stroke="#808080" stroke-width="2.0" fill="none"/>
<path d="M 454.13174,266.6483 L 459.025,288.9206 L 466.11673,267.2479" stroke="#808080" stroke-width="2.0" fill="none"/>
<text text-anchor="middle" x="460.41196" y="237.0" fill="#000000" style="font-size:24px"><tspan style="font-style:italic;">A=1</tspan></text>
<text text-anchor="middle" x="460.41196" y="261.0" fill="#000000" style="font-size:24px">mettre <tspan style="font-style:italic;">S=0</tspan></text>
<path d="M 412.35455,390.00153 Q 302.17236,414.23242 257.03433,314.0664" stroke="#808080" stroke-width="2.0" fill="none"/>
<path d="M 270.72147,329.83548 L 256.21265,312.24298 L 259.78098,334.7656" stroke="#808080" stroke-width="2.0" fill="none"/>
<text text-anchor="middle" x="318.4334" y="404.13318" fill="#000000" style="font-size:24px"><tspan style="font-style:italic;">A=0</tspan></text>
<text text-anchor="middle" x="318.4334" y="428.13318" fill="#000000" style="font-size:24px">mettre <tspan style="font-style:italic;">S=0</tspan></text>
<path d="M 552.5805,105.57547 Q 633.34656,115.07361 687.1262,171.47763" stroke="#808080" stroke-width="2.0" fill="none"/>
<path d="M 668.98236,161.14317 L 688.50635,172.92511 L 677.6673,152.86235" stroke="#808080" stroke-width="2.0" fill="none"/>
<text text-anchor="middle" x="626.6" y="123.80008" fill="#000000" style="font-size:24px"><tspan style="font-style:italic;">A=0</tspan></text>
<text text-anchor="middle" x="626.6" y="147.80008" fill="#000000" style="font-size:24px">mettre <tspan style="font-style:italic;">S=0</tspan></text>
<path d="M 552.0827,376.73575 Q 636.09265,370.46335 689.332,309.53754" stroke="#808080" stroke-width="2.0" fill="none"/>
<path d="M 680.6899,328.5458 L 690.648,308.03152 L 671.65375,320.6497" stroke="#808080" stroke-width="2.0" fill="none"/>
<text text-anchor="middle" x="628.4" y="353.8" fill="#000000" style="font-size:24px"><tspan style="font-style:italic;">A=1</tspan></text>
<text text-anchor="middle" x="628.4" y="377.8" fill="#000000" style="font-size:24px">mettre <tspan style="font-style:italic;">S=1</tspan></text>
<path d="M 1077.8639,340.1883 Q 823.962,493.36084 550.2123,389.09012" stroke="#808080" stroke-width="2.0" fill="none"/>
<path d="M 571.038,390.6021 L 548.34326,388.3782 L 566.76666,401.81616" stroke="#808080" stroke-width="2.0" fill="none"/>
<text text-anchor="middle" x="819.0" y="450.0" fill="#000000" style="font-size:24px"><tspan style="font-style:italic;">A=0</tspan></text>
<text text-anchor="middle" x="819.0" y="474.0" fill="#000000" style="font-size:24px">mettre <tspan style="font-style:italic;">S=0</tspan></text>
<path d="M 792.4004,255.30293 Q 929.41156,281.17462 1064.2164,294.26785" stroke="#808080" stroke-width="2.0" fill="none"/>
<path d="M 1043.73,298.3063 L 1066.207,294.4612 L 1044.8901,286.36252" stroke="#808080" stroke-width="2.0" fill="none"/>
<text text-anchor="middle" x="928.86" y="274.98" fill="#000000" style="font-size:24px"><tspan style="font-style:italic;">A=1</tspan></text>
<text text-anchor="middle" x="928.86" y="298.98" fill="#000000" style="font-size:24px">mettre <tspan style="font-style:italic;">S=1</tspan></text>
<path d="M 173.89798,273.26443 C 54.8116,333.1921 49.31523,145.27171 171.93608,206.18724" stroke="#808080" stroke-width="2.0" fill="none"/>
<path d="M 151.35509,202.66261 L 173.72723,207.07706 L 156.69395,191.91566" stroke="#808080" stroke-width="2.0" fill="none"/>
<text text-anchor="middle" x="82.27682" y="261.40686" fill="#000000" style="font-size:24px"><tspan style="font-style:italic;">A=0</tspan></text>
<text text-anchor="middle" x="82.27682" y="285.40686" fill="#000000" style="font-size:24px">mettre <tspan style="font-style:italic;">S=0</tspan></text>
<path d="M 750.45386,172.55695 C 803.1755,55.79973 922.59705,194.83148 794.17883,223.462" stroke="#808080" stroke-width="2.0" fill="none"/>
<path d="M 812.394,213.2537 L 792.22675,223.89722 L 815.0052,224.96613" stroke="#808080" stroke-width="2.0" fill="none"/>
<text text-anchor="middle" x="840.2438" y="115.163895" fill="#000000" style="font-size:24px"><tspan style="font-style:italic;">A=0</tspan></text>
<text text-anchor="middle" x="840.2438" y="139.1639" fill="#000000" style="font-size:24px">mettre <tspan style="font-style:italic;">S=0</tspan></text>
<path d="M 1096.6135,240.05328 Q 879.7162,-48.586155 549.6465,89.580086" stroke="#808080" stroke-width="2.0" fill="none"/>
<path d="M 565.77856,76.322784 L 547.8016,90.35235 L 570.4121,87.392105" stroke="#808080" stroke-width="2.0" fill="none"/>
<text text-anchor="middle" x="851.4231" y="31.115265" fill="#000000" style="font-size:24px"><tspan style="font-style:italic;">A=1</tspan></text>
<text text-anchor="middle" x="851.4231" y="55.115265" fill="#000000" style="font-size:24px">mettre <tspan style="font-style:italic;">S=1</tspan></text>
</g>
</svg>