<?xml version="1.0" encoding="UTF-8" standalone="no"?>
<!-- Created with Digital by H.Neemann -->
<!-- created: Sat Mar 05 11:59:03 EST 2022 -->

<svg
   xmlns:svg="http://www.w3.org/2000/svg"
   xmlns="http://www.w3.org/2000/svg"
   width="105.6mm"
   height="60.6mm"
   viewBox="178 98 704 404">
<g stroke-linecap="square">
<path d="M 360,400 L 380,400" stroke="#0000b2" stroke-width="4.0" fill="none"/>
<path d="M 480,160 L 500,160" stroke="#0000b2" stroke-width="4.0" fill="none"/>
<path d="M 800,320 L 820,320" stroke="#0000b2" stroke-width="4.0" fill="none"/>
<path d="M 240,240 L 260,240" stroke="#0000b2" stroke-width="4.0" fill="none"/>
<path d="M 360,180 L 380,180" stroke="#0000b2" stroke-width="4.0" fill="none"/>
<path d="M 240,340 L 260,340" stroke="#0000b2" stroke-width="4.0" fill="none"/>
<path d="M 360,360 L 380,360" stroke="#0000b2" stroke-width="4.0" fill="none"/>
<path d="M 700,440 L 720,440" stroke="#0000b2" stroke-width="4.0" fill="none"/>
<path d="M 240,440 L 260,440" stroke="#0000b2" stroke-width="4.0" fill="none"/>
<path d="M 360,140 L 380,140" stroke="#0000b2" stroke-width="4.0" fill="none"/>
<path d="M 240,140 L 260,140" stroke="#0000b2" stroke-width="4.0" fill="none"/>
<path d="M 480,380 L 500,380" stroke="#0000b2" stroke-width="4.0" fill="none"/>
<path d="M 700,220 L 720,220" stroke="#0000b2" stroke-width="4.0" fill="none"/>
<g>
</g>
<g>
<path d="M 430,190 L 381,190 L 381,130 L 430,130 C 440,130 460,140 459,160 C 459,180 440,190 430,190 Z" stroke="#000000" stroke-width="4.0" fill="none"/>
<circle cx="470.0" cy="160.0" r="9.0" stroke="#000000" stroke-width="4.0" fill="none" />
<circle cx="380.0" cy="140.0" r="2.0" stroke="#0000b2" stroke-width="4.0" fill="#0000b2" />
<circle cx="380.0" cy="180.0" r="2.0" stroke="#0000b2" stroke-width="4.0" fill="#0000b2" />
<circle cx="480.0" cy="160.0" r="2.0" stroke="#b20000" stroke-width="4.0" fill="#b20000" />
</g>
<g>
<path d="M 650,250 L 601,250 L 601,190 L 650,190 C 660,190 680,200 679,220 C 679,240 660,250 650,250 Z" stroke="#000000" stroke-width="4.0" fill="none"/>
<circle cx="690.0" cy="220.0" r="9.0" stroke="#000000" stroke-width="4.0" fill="none" />
<circle cx="600.0" cy="200.0" r="2.0" stroke="#0000b2" stroke-width="4.0" fill="#0000b2" />
<circle cx="600.0" cy="240.0" r="2.0" stroke="#0000b2" stroke-width="4.0" fill="#0000b2" />
<circle cx="700.0" cy="220.0" r="2.0" stroke="#b20000" stroke-width="4.0" fill="#b20000" />
</g>
<g>
<path d="M 430,410 L 381,410 L 381,350 L 430,350 C 440,350 460,360 459,380 C 459,400 440,410 430,410 Z" stroke="#000000" stroke-width="4.0" fill="none"/>
<circle cx="470.0" cy="380.0" r="9.0" stroke="#000000" stroke-width="4.0" fill="none" />
<circle cx="380.0" cy="360.0" r="2.0" stroke="#0000b2" stroke-width="4.0" fill="#0000b2" />
<circle cx="380.0" cy="400.0" r="2.0" stroke="#0000b2" stroke-width="4.0" fill="#0000b2" />
<circle cx="480.0" cy="380.0" r="2.0" stroke="#b20000" stroke-width="4.0" fill="#b20000" />
</g>
<g>
<path d="M 650,470 L 601,470 L 601,410 L 650,410 C 660,410 680,420 679,440 C 679,460 660,470 650,470 Z" stroke="#000000" stroke-width="4.0" fill="none"/>
<circle cx="690.0" cy="440.0" r="9.0" stroke="#000000" stroke-width="4.0" fill="none" />
<circle cx="600.0" cy="420.0" r="2.0" stroke="#0000b2" stroke-width="4.0" fill="#0000b2" />
<circle cx="600.0" cy="460.0" r="2.0" stroke="#0000b2" stroke-width="4.0" fill="#0000b2" />
<circle cx="700.0" cy="440.0" r="2.0" stroke="#b20000" stroke-width="4.0" fill="#b20000" />
</g>
<g>
<circle cx="836.0" cy="320.0" r="9.0" stroke="#000000" stroke-width="4.0" fill="none" />
<circle cx="836.0" cy="320.0" r="15.0" stroke="#000000" stroke-width="4.0" fill="none" />
<text text-anchor="start" x="865.0" y="329.0" fill="#000000" style="font-size:24px"><tspan style="font-style:italic;">S</tspan></text>
<circle cx="820.0" cy="320.0" r="2.0" stroke="#0000b2" stroke-width="4.0" fill="#0000b2" />
</g>
<g>
<path d="M 209,125 L 239,125 L 239,155 L 209,155 Z" stroke="#000000" stroke-width="4.0" fill="none"/>
<circle cx="224.0" cy="140.0" r="9.0" stroke="#000000" stroke-width="4.0" fill="none" />
<text text-anchor="end" x="195.0" y="149.0" fill="#000000" style="font-size:24px"><tspan style="font-style:italic;">a</tspan></text>
<circle cx="240.0" cy="140.0" r="2.0" stroke="#b20000" stroke-width="4.0" fill="#b20000" />
</g>
<g>
<path d="M 209,225 L 239,225 L 239,255 L 209,255 Z" stroke="#000000" stroke-width="4.0" fill="none"/>
<circle cx="224.0" cy="240.0" r="9.0" stroke="#000000" stroke-width="4.0" fill="none" />
<text text-anchor="end" x="195.0" y="249.0" fill="#000000" style="font-size:24px"><tspan style="font-style:italic;">b</tspan></text>
<circle cx="240.0" cy="240.0" r="2.0" stroke="#b20000" stroke-width="4.0" fill="#b20000" />
</g>
<g>
<path d="M 209,325 L 239,325 L 239,355 L 209,355 Z" stroke="#000000" stroke-width="4.0" fill="none"/>
<circle cx="224.0" cy="340.0" r="9.0" stroke="#000000" stroke-width="4.0" fill="none" />
<text text-anchor="end" x="195.0" y="349.0" fill="#000000" style="font-size:24px"><tspan style="font-style:italic;">c</tspan></text>
<circle cx="240.0" cy="340.0" r="2.0" stroke="#b20000" stroke-width="4.0" fill="#b20000" />
</g>
<g>
<path d="M 209,425 L 239,425 L 239,455 L 209,455 Z" stroke="#000000" stroke-width="4.0" fill="none"/>
<circle cx="224.0" cy="440.0" r="9.0" stroke="#000000" stroke-width="4.0" fill="none" />
<text text-anchor="end" x="195.0" y="449.0" fill="#000000" style="font-size:24px"><tspan style="font-style:italic;">d</tspan></text>
<circle cx="240.0" cy="440.0" r="2.0" stroke="#b20000" stroke-width="4.0" fill="#b20000" />
</g>
<g>
<path d="M 300,100 L 780,100 L 780,500 L 300,500 Z" stroke-dasharray="4.0,4.0" stroke="#000000" stroke-width="1.0" fill="none"/>
</g>
</g>
</svg>