<?xml version="1.0" encoding="UTF-8" standalone="no"?>
<!-- Created with Digital by H.Neemann -->
<!-- created: Sat Mar 05 08:18:16 EST 2022 -->

<svg
   xmlns:svg="http://www.w3.org/2000/svg"
   xmlns="http://www.w3.org/2000/svg"
   width="69.9mm"
   height="45.45mm"
   viewBox="95 234 466 303">
<g stroke-linecap="square">
<path d="M 360,440 L 370,440 L 380,440" stroke="#000000" stroke-width="4.0" fill="none"/>
<path d="M 360,460 L 370,460" stroke="#000000" stroke-width="4.0" fill="none"/>
<path d="M 360,480 L 370,480" stroke="#000000" stroke-width="4.0" fill="none"/>
<path d="M 420,240 L 440,240" stroke="#0000b2" stroke-width="4.0" fill="none"/>
<path d="M 420,320 L 440,320" stroke="#0000b2" stroke-width="4.0" fill="none"/>
<path d="M 480,320 L 500,320" stroke="#0000b2" stroke-width="4.0" fill="none"/>
<path d="M 160,320 L 180,320" stroke="#0000b2" stroke-width="4.0" fill="none"/>
<path d="M 220,320 L 240,320" stroke="#0000b2" stroke-width="4.0" fill="none"/>
<path d="M 160,480 L 280,480 L 280,460 L 360,460" stroke="#0000b2" stroke-width="4.0" fill="none"/>
<path d="M 420,260 L 440,260" stroke="#0000b2" stroke-width="4.0" fill="none"/>
<path d="M 160,260 L 180,260" stroke="#0000b2" stroke-width="4.0" fill="none"/>
<path d="M 420,340 L 440,340" stroke="#0000b2" stroke-width="4.0" fill="none"/>
<path d="M 380,440 L 460,440 L 460,400" stroke="#0000b2" stroke-width="4.0" fill="none"/>
<path d="M 160,440 L 360,440" stroke="#0000b2" stroke-width="4.0" fill="none"/>
<path d="M 420,280 L 440,280" stroke="#0000b2" stroke-width="4.0" fill="none"/>
<path d="M 420,360 L 440,360" stroke="#0000b2" stroke-width="4.0" fill="none"/>
<path d="M 160,520 L 320,520 L 320,480 L 360,480" stroke="#0000b2" stroke-width="4.0" fill="none"/>
<path d="M 420,300 L 440,300" stroke="#0000b2" stroke-width="4.0" fill="none"/>
<path d="M 420,380 L 440,380" stroke="#0000b2" stroke-width="4.0" fill="none"/>
<path d="M 160,380 L 180,380" stroke="#0000b2" stroke-width="4.0" fill="none"/>
<g>
</g>
<g>
<path d="M 441,236 L 479,245 L 479,395 L 441,404 Z" stroke="#000000" stroke-width="4.0" fill="none"/>
<text text-anchor="start" x="443.0" y="255.5" fill="#808080" style="font-size:18px">0</text>
<circle cx="460.0" cy="400.0" r="2.0" stroke="#0000b2" stroke-width="4.0" fill="#0000b2" />
<circle cx="440.0" cy="240.0" r="2.0" stroke="#0000b2" stroke-width="4.0" fill="#0000b2" />
<circle cx="440.0" cy="260.0" r="2.0" stroke="#0000b2" stroke-width="4.0" fill="#0000b2" />
<circle cx="440.0" cy="280.0" r="2.0" stroke="#0000b2" stroke-width="4.0" fill="#0000b2" />
<circle cx="440.0" cy="300.0" r="2.0" stroke="#0000b2" stroke-width="4.0" fill="#0000b2" />
<circle cx="440.0" cy="320.0" r="2.0" stroke="#0000b2" stroke-width="4.0" fill="#0000b2" />
<circle cx="440.0" cy="340.0" r="2.0" stroke="#0000b2" stroke-width="4.0" fill="#0000b2" />
<circle cx="440.0" cy="360.0" r="2.0" stroke="#0000b2" stroke-width="4.0" fill="#0000b2" />
<circle cx="440.0" cy="380.0" r="2.0" stroke="#0000b2" stroke-width="4.0" fill="#0000b2" />
<circle cx="480.0" cy="320.0" r="2.0" stroke="#b20000" stroke-width="4.0" fill="#b20000" />
</g>
<g>
<circle cx="516.0" cy="320.0" r="9.0" stroke="#000000" stroke-width="4.0" fill="none" />
<circle cx="516.0" cy="320.0" r="15.0" stroke="#000000" stroke-width="4.0" fill="none" />
<text text-anchor="start" x="545.0" y="329.0" fill="#000000" style="font-size:24px"><tspan style="font-style:italic;">F</tspan></text>
<circle cx="500.0" cy="320.0" r="2.0" stroke="#0000b2" stroke-width="4.0" fill="#0000b2" />
</g>
<g>
<text text-anchor="end" x="157.0" y="269.0" fill="#000000" style="font-size:24px">1</text>
<circle cx="160.0" cy="260.0" r="2.0" stroke="#b20000" stroke-width="4.0" fill="#b20000" />
</g>
<g>
<text text-anchor="end" x="157.0" y="389.0" fill="#000000" style="font-size:24px">0</text>
<circle cx="160.0" cy="380.0" r="2.0" stroke="#b20000" stroke-width="4.0" fill="#b20000" />
</g>
<g>
<path d="M 129,305 L 159,305 L 159,335 L 129,335 Z" stroke="#000000" stroke-width="4.0" fill="none"/>
<circle cx="144.0" cy="320.0" r="9.0" stroke="#000000" stroke-width="4.0" fill="none" />
<text text-anchor="end" x="115.0" y="329.0" fill="#000000" style="font-size:24px"><tspan style="font-style:italic;">A</tspan></text>
<circle cx="160.0" cy="320.0" r="2.0" stroke="#b20000" stroke-width="4.0" fill="#b20000" />
</g>
<g>
<path d="M 181,308 L 199,320 L 181,332 Z" stroke="#000000" stroke-width="4.0" fill="none"/>
<circle cx="210.0" cy="320.0" r="9.0" stroke="#000000" stroke-width="4.0" fill="none" />
<circle cx="180.0" cy="320.0" r="2.0" stroke="#0000b2" stroke-width="4.0" fill="#0000b2" />
<circle cx="220.0" cy="320.0" r="2.0" stroke="#b20000" stroke-width="4.0" fill="#b20000" />
</g>
<g>
<text text-anchor="end" x="358.0" y="437.0" fill="#808080" style="font-size:12px">0</text>
<text text-anchor="end" x="358.0" y="457.0" fill="#808080" style="font-size:12px">1</text>
<text text-anchor="end" x="358.0" y="477.0" fill="#808080" style="font-size:12px">2</text>
<text text-anchor="start" x="382.0" y="437.0" fill="#808080" style="font-size:12px">0-2</text>
<path d="M 368,438 L 372,438 L 372,482 L 368,482 Z" stroke="#000000" stroke-width="4.0" fill="#000000" fill-opacity="1.0"/>
<circle cx="360.0" cy="440.0" r="2.0" stroke="#0000b2" stroke-width="4.0" fill="#0000b2" />
<circle cx="360.0" cy="460.0" r="2.0" stroke="#0000b2" stroke-width="4.0" fill="#0000b2" />
<circle cx="360.0" cy="480.0" r="2.0" stroke="#0000b2" stroke-width="4.0" fill="#0000b2" />
<circle cx="380.0" cy="440.0" r="2.0" stroke="#b20000" stroke-width="4.0" fill="#b20000" />
</g>
<g>
<path d="M 129,425 L 159,425 L 159,455 L 129,455 Z" stroke="#000000" stroke-width="4.0" fill="none"/>
<circle cx="144.0" cy="440.0" r="9.0" stroke="#000000" stroke-width="4.0" fill="none" />
<text text-anchor="end" x="115.0" y="449.0" fill="#000000" style="font-size:24px"><tspan style="font-style:italic;">B</tspan></text>
<circle cx="160.0" cy="440.0" r="2.0" stroke="#b20000" stroke-width="4.0" fill="#b20000" />
</g>
<g>
<path d="M 129,465 L 159,465 L 159,495 L 129,495 Z" stroke="#000000" stroke-width="4.0" fill="none"/>
<circle cx="144.0" cy="480.0" r="9.0" stroke="#000000" stroke-width="4.0" fill="none" />
<text text-anchor="end" x="115.0" y="489.0" fill="#000000" style="font-size:24px"><tspan style="font-style:italic;">C</tspan></text>
<circle cx="160.0" cy="480.0" r="2.0" stroke="#b20000" stroke-width="4.0" fill="#b20000" />
</g>
<g>
<path d="M 129,505 L 159,505 L 159,535 L 129,535 Z" stroke="#000000" stroke-width="4.0" fill="none"/>
<circle cx="144.0" cy="520.0" r="9.0" stroke="#000000" stroke-width="4.0" fill="none" />
<text text-anchor="end" x="115.0" y="529.0" fill="#000000" style="font-size:24px"><tspan style="font-style:italic;">D</tspan></text>
<circle cx="160.0" cy="520.0" r="2.0" stroke="#b20000" stroke-width="4.0" fill="#b20000" />
</g>
</g>
</svg>