<?xml version="1.0" encoding="UTF-8" standalone="no"?>
<!-- Created with Digital by H.Neemann -->
<!-- created: Sat Mar 05 10:44:15 EST 2022 -->

<svg
   xmlns:svg="http://www.w3.org/2000/svg"
   xmlns="http://www.w3.org/2000/svg"
   width="143.7mm"
   height="50.1mm"
   viewBox="164 123 958 334">
<g stroke-linecap="square">
<path d="M 841,260 L 841,269" stroke="#000000" stroke-width="4.0" fill="none"/>
<path d="M 841,340 L 841,331" stroke="#000000" stroke-width="4.0" fill="none"/>
<path d="M 720,160 L 740,160" stroke="#0000b2" stroke-width="4.0" fill="none"/>
<path d="M 820,320 L 840,320" stroke="#0000b2" stroke-width="4.0" fill="none"/>
<path d="M 820,260 L 840,260" stroke="#0000b2" stroke-width="4.0" fill="none"/>
<path d="M 600,360 L 620,360" stroke="#0000b2" stroke-width="4.0" fill="none"/>
<path d="M 1040,300 L 1060,300" stroke="#0000b2" stroke-width="4.0" fill="none"/>
<path d="M 940,300 L 960,300" stroke="#0000b2" stroke-width="4.0" fill="none"/>
<path d="M 600,140 L 620,140" stroke="#0000b2" stroke-width="4.0" fill="none"/>
<path d="M 240,140 L 260,140" stroke="#0000b2" stroke-width="4.0" fill="none"/>
<path d="M 420,140 L 440,140" stroke="#0000b2" stroke-width="4.0" fill="none"/>
<path d="M 360,140 L 380,140" stroke="#0000b2" stroke-width="4.0" fill="none"/>
<path d="M 600,400 L 620,400" stroke="#0000b2" stroke-width="4.0" fill="none"/>
<path d="M 240,240 L 260,240" stroke="#0000b2" stroke-width="4.0" fill="none"/>
<path d="M 420,240 L 440,240" stroke="#0000b2" stroke-width="4.0" fill="none"/>
<path d="M 360,240 L 380,240" stroke="#0000b2" stroke-width="4.0" fill="none"/>
<path d="M 600,180 L 620,180" stroke="#0000b2" stroke-width="4.0" fill="none"/>
<path d="M 240,340 L 260,340" stroke="#0000b2" stroke-width="4.0" fill="none"/>
<path d="M 820,340 L 840,340" stroke="#0000b2" stroke-width="4.0" fill="none"/>
<path d="M 420,340 L 440,340" stroke="#0000b2" stroke-width="4.0" fill="none"/>
<path d="M 360,340 L 380,340" stroke="#0000b2" stroke-width="4.0" fill="none"/>
<path d="M 240,440 L 260,440" stroke="#0000b2" stroke-width="4.0" fill="none"/>
<path d="M 420,440 L 440,440" stroke="#0000b2" stroke-width="4.0" fill="none"/>
<path d="M 360,440 L 380,440" stroke="#0000b2" stroke-width="4.0" fill="none"/>
<path d="M 820,280 L 840,280" stroke="#0000b2" stroke-width="4.0" fill="none"/>
<path d="M 720,380 L 740,380" stroke="#0000b2" stroke-width="4.0" fill="none"/>
<g>
</g>
<g>
<path d="M 670,190 L 621,190 L 621,130 L 670,130 C 680,130 700,140 699,160 C 699,180 680,190 670,190 Z" stroke="#000000" stroke-width="4.0" fill="none"/>
<circle cx="710.0" cy="160.0" r="9.0" stroke="#000000" stroke-width="4.0" fill="none" />
<circle cx="620.0" cy="140.0" r="2.0" stroke="#0000b2" stroke-width="4.0" fill="#0000b2" />
<circle cx="620.0" cy="180.0" r="2.0" stroke="#0000b2" stroke-width="4.0" fill="#0000b2" />
<circle cx="720.0" cy="160.0" r="2.0" stroke="#b20000" stroke-width="4.0" fill="#b20000" />
</g>
<g>
<path d="M 670,410 L 621,410 L 621,350 L 670,350 C 680,350 700,360 699,380 C 699,400 680,410 670,410 Z" stroke="#000000" stroke-width="4.0" fill="none"/>
<circle cx="710.0" cy="380.0" r="9.0" stroke="#000000" stroke-width="4.0" fill="none" />
<circle cx="620.0" cy="360.0" r="2.0" stroke="#0000b2" stroke-width="4.0" fill="#0000b2" />
<circle cx="620.0" cy="400.0" r="2.0" stroke="#0000b2" stroke-width="4.0" fill="#0000b2" />
<circle cx="720.0" cy="380.0" r="2.0" stroke="#b20000" stroke-width="4.0" fill="#b20000" />
</g>
<g>
<circle cx="1076.0" cy="300.0" r="9.0" stroke="#000000" stroke-width="4.0" fill="none" />
<circle cx="1076.0" cy="300.0" r="15.0" stroke="#000000" stroke-width="4.0" fill="none" />
<text text-anchor="start" x="1105.0" y="309.0" fill="#000000" style="font-size:24px"><tspan style="font-style:italic;">S</tspan></text>
<circle cx="1060.0" cy="300.0" r="2.0" stroke="#0000b2" stroke-width="4.0" fill="#0000b2" />
</g>
<g>
<path d="M 209,125 L 239,125 L 239,155 L 209,155 Z" stroke="#000000" stroke-width="4.0" fill="none"/>
<circle cx="224.0" cy="140.0" r="9.0" stroke="#000000" stroke-width="4.0" fill="none" />
<text text-anchor="end" x="195.0" y="149.0" fill="#000000" style="font-size:24px"><tspan style="font-style:italic;">a<tspan style="font-size:80%;baseline-shift:sub;">3</tspan></tspan></text>
<circle cx="240.0" cy="140.0" r="2.0" stroke="#b20000" stroke-width="4.0" fill="#b20000" />
</g>
<g>
<path d="M 209,225 L 239,225 L 239,255 L 209,255 Z" stroke="#000000" stroke-width="4.0" fill="none"/>
<circle cx="224.0" cy="240.0" r="9.0" stroke="#000000" stroke-width="4.0" fill="none" />
<text text-anchor="end" x="195.0" y="249.0" fill="#000000" style="font-size:24px"><tspan style="font-style:italic;">a<tspan style="font-size:80%;baseline-shift:sub;">2</tspan></tspan></text>
<circle cx="240.0" cy="240.0" r="2.0" stroke="#b20000" stroke-width="4.0" fill="#b20000" />
</g>
<g>
<path d="M 209,325 L 239,325 L 239,355 L 209,355 Z" stroke="#000000" stroke-width="4.0" fill="none"/>
<circle cx="224.0" cy="340.0" r="9.0" stroke="#000000" stroke-width="4.0" fill="none" />
<text text-anchor="end" x="195.0" y="349.0" fill="#000000" style="font-size:24px"><tspan style="font-style:italic;">a<tspan style="font-size:80%;baseline-shift:sub;">1</tspan></tspan></text>
<circle cx="240.0" cy="340.0" r="2.0" stroke="#b20000" stroke-width="4.0" fill="#b20000" />
</g>
<g>
<path d="M 209,425 L 239,425 L 239,455 L 209,455 Z" stroke="#000000" stroke-width="4.0" fill="none"/>
<circle cx="224.0" cy="440.0" r="9.0" stroke="#000000" stroke-width="4.0" fill="none" />
<text text-anchor="end" x="195.0" y="449.0" fill="#000000" style="font-size:24px"><tspan style="font-style:italic;">a<tspan style="font-size:80%;baseline-shift:sub;">0</tspan></tspan></text>
<circle cx="240.0" cy="440.0" r="2.0" stroke="#b20000" stroke-width="4.0" fill="#b20000" />
</g>
<g>
<path d="M 890,330 L 841,330 L 841,270 L 890,270 C 900,270 920,280 919,300 C 919,320 900,330 890,330 Z" stroke="#000000" stroke-width="4.0" fill="none"/>
<circle cx="930.0" cy="300.0" r="9.0" stroke="#000000" stroke-width="4.0" fill="none" />
<circle cx="840.0" cy="260.0" r="2.0" stroke="#0000b2" stroke-width="4.0" fill="#0000b2" />
<circle cx="840.0" cy="280.0" r="2.0" stroke="#0000b2" stroke-width="4.0" fill="#0000b2" />
<circle cx="840.0" cy="320.0" r="2.0" stroke="#0000b2" stroke-width="4.0" fill="#0000b2" />
<circle cx="840.0" cy="340.0" r="2.0" stroke="#0000b2" stroke-width="4.0" fill="#0000b2" />
<circle cx="940.0" cy="300.0" r="2.0" stroke="#b20000" stroke-width="4.0" fill="#b20000" />
</g>
<g>
<path d="M 381,128 L 399,140 L 381,152 Z" stroke="#000000" stroke-width="4.0" fill="none"/>
<circle cx="410.0" cy="140.0" r="9.0" stroke="#000000" stroke-width="4.0" fill="none" />
<circle cx="380.0" cy="140.0" r="2.0" stroke="#0000b2" stroke-width="4.0" fill="#0000b2" />
<circle cx="420.0" cy="140.0" r="2.0" stroke="#b20000" stroke-width="4.0" fill="#b20000" />
</g>
<g>
<path d="M 381,228 L 399,240 L 381,252 Z" stroke="#000000" stroke-width="4.0" fill="none"/>
<circle cx="410.0" cy="240.0" r="9.0" stroke="#000000" stroke-width="4.0" fill="none" />
<circle cx="380.0" cy="240.0" r="2.0" stroke="#0000b2" stroke-width="4.0" fill="#0000b2" />
<circle cx="420.0" cy="240.0" r="2.0" stroke="#b20000" stroke-width="4.0" fill="#b20000" />
</g>
<g>
<path d="M 381,328 L 399,340 L 381,352 Z" stroke="#000000" stroke-width="4.0" fill="none"/>
<circle cx="410.0" cy="340.0" r="9.0" stroke="#000000" stroke-width="4.0" fill="none" />
<circle cx="380.0" cy="340.0" r="2.0" stroke="#0000b2" stroke-width="4.0" fill="#0000b2" />
<circle cx="420.0" cy="340.0" r="2.0" stroke="#b20000" stroke-width="4.0" fill="#b20000" />
</g>
<g>
<path d="M 381,428 L 399,440 L 381,452 Z" stroke="#000000" stroke-width="4.0" fill="none"/>
<circle cx="410.0" cy="440.0" r="9.0" stroke="#000000" stroke-width="4.0" fill="none" />
<circle cx="380.0" cy="440.0" r="2.0" stroke="#0000b2" stroke-width="4.0" fill="#0000b2" />
<circle cx="420.0" cy="440.0" r="2.0" stroke="#b20000" stroke-width="4.0" fill="#b20000" />
</g>
</g>
</svg>