<?xml version="1.0" encoding="UTF-8" standalone="no"?>
<!-- Created with Digital by H.Neemann -->
<!-- created: Mon Mar 07 17:08:10 EST 2022 -->

<svg
   xmlns:svg="http://www.w3.org/2000/svg"
   xmlns="http://www.w3.org/2000/svg"
   width="117.75mm"
   height="52.35mm"
   viewBox="-4 63 785 349">
<g stroke-linecap="square">
<path d="M 60,320 L 100,320 L 120,320" stroke="#0000b2" stroke-width="4.0" fill="none"/>
<path d="M 160,320 L 180,320 L 380,320 L 380,300 L 420,300" stroke="#0000b2" stroke-width="4.0" fill="none"/>
<path d="M 340,260 L 360,260 L 420,260" stroke="#0000b2" stroke-width="4.0" fill="none"/>
<path d="M 60,200 L 120,200" stroke="#0000b2" stroke-width="4.0" fill="none"/>
<path d="M 160,200 L 200,200 L 220,200" stroke="#0000b2" stroke-width="4.0" fill="none"/>
<path d="M 680,200 L 720,200" stroke="#0000b2" stroke-width="4.0" fill="none"/>
<path d="M 520,280 L 520,200 L 600,200 L 607,200" stroke="#0000b2" stroke-width="4.0" fill="none"/>
<path d="M 180,320 L 180,360 L 200,360" stroke="#0000b2" stroke-width="4.0" fill="none"/>
<path d="M 400,140 L 420,140 L 440,140" stroke="#0000b2" stroke-width="4.0" fill="none"/>
<path d="M 480,140 L 500,140 L 500,180 L 560,180 L 600,180 L 604,180" stroke="#0000b2" stroke-width="4.0" fill="none"/>
<path d="M 420,140 L 420,80 L 440,80" stroke="#0000b2" stroke-width="4.0" fill="none"/>
<path d="M 100,320 L 100,400 L 420,400" stroke="#0000b2" stroke-width="4.0" fill="none"/>
<path d="M 60,120 L 80,120 L 320,120 L 324,120" stroke="#0000b2" stroke-width="4.0" fill="none"/>
<path d="M 560,180 L 560,120 L 580,120" stroke="#0000b2" stroke-width="4.0" fill="none"/>
<path d="M 80,120 L 80,280 L 260,280" stroke="#0000b2" stroke-width="4.0" fill="none"/>
<path d="M 500,280 L 520,280 L 580,280" stroke="#0000b2" stroke-width="4.0" fill="none"/>
<path d="M 560,380 L 560,220 L 600,220 L 604,220" stroke="#0000b2" stroke-width="4.0" fill="none"/>
<path d="M 500,380 L 560,380 L 580,380" stroke="#0000b2" stroke-width="4.0" fill="none"/>
<path d="M 324,160 L 320,160 L 200,160 L 200,200 L 200,240 L 260,240" stroke="#0000b2" stroke-width="4.0" fill="none"/>
<path d="M 420,360 L 360,360 L 360,260 L 360,220 L 380,220" stroke="#0000b2" stroke-width="4.0" fill="none"/>
<g>
<circle cx="100.0" cy="320.0" r="4.0" stroke="#0000b2" stroke-width="4.0" fill="#0000b2" />
<circle cx="180.0" cy="320.0" r="4.0" stroke="#0000b2" stroke-width="4.0" fill="#0000b2" />
<circle cx="360.0" cy="260.0" r="4.0" stroke="#0000b2" stroke-width="4.0" fill="#0000b2" />
<circle cx="200.0" cy="200.0" r="4.0" stroke="#0000b2" stroke-width="4.0" fill="#0000b2" />
<circle cx="420.0" cy="140.0" r="4.0" stroke="#0000b2" stroke-width="4.0" fill="#0000b2" />
<circle cx="560.0" cy="180.0" r="4.0" stroke="#0000b2" stroke-width="4.0" fill="#0000b2" />
<circle cx="80.0" cy="120.0" r="4.0" stroke="#0000b2" stroke-width="4.0" fill="#0000b2" />
<circle cx="520.0" cy="280.0" r="4.0" stroke="#0000b2" stroke-width="4.0" fill="#0000b2" />
<circle cx="560.0" cy="380.0" r="4.0" stroke="#0000b2" stroke-width="4.0" fill="#0000b2" />
</g>
<g>
<path d="M 470,310 L 421,310 L 421,250 L 470,250 C 480,250 500,260 499,280 C 499,300 480,310 470,310 Z" stroke="#000000" stroke-width="4.0" fill="none"/>
<circle cx="420.0" cy="260.0" r="2.0" stroke="#0000b2" stroke-width="4.0" fill="#0000b2" />
<circle cx="420.0" cy="300.0" r="2.0" stroke="#0000b2" stroke-width="4.0" fill="#0000b2" />
<circle cx="500.0" cy="280.0" r="2.0" stroke="#b20000" stroke-width="4.0" fill="#b20000" />
</g>
<g>
<path d="M 470,410 L 421,410 L 421,350 L 470,350 C 480,350 500,360 499,380 C 499,400 480,410 470,410 Z" stroke="#000000" stroke-width="4.0" fill="none"/>
<circle cx="420.0" cy="360.0" r="2.0" stroke="#0000b2" stroke-width="4.0" fill="#0000b2" />
<circle cx="420.0" cy="400.0" r="2.0" stroke="#0000b2" stroke-width="4.0" fill="#0000b2" />
<circle cx="500.0" cy="380.0" r="2.0" stroke="#b20000" stroke-width="4.0" fill="#b20000" />
</g>
<g>
<path d="M 310,290 L 261,290 L 261,230 L 310,230 C 320,230 340,240 339,260 C 339,280 320,290 310,290 Z" stroke="#000000" stroke-width="4.0" fill="none"/>
<circle cx="260.0" cy="240.0" r="2.0" stroke="#0000b2" stroke-width="4.0" fill="#0000b2" />
<circle cx="260.0" cy="280.0" r="2.0" stroke="#0000b2" stroke-width="4.0" fill="#0000b2" />
<circle cx="340.0" cy="260.0" r="2.0" stroke="#b20000" stroke-width="4.0" fill="#b20000" />
</g>
<g>
<path d="M 350,170 L 320,170 C 330,154 330,126 320,110 L 340,110 C 370,110 390,120 400,140 C 390,160 370,170 350,170 Z" stroke="#000000" stroke-width="4.0" fill="none"/>
<circle cx="320.0" cy="120.0" r="2.0" stroke="#0000b2" stroke-width="4.0" fill="#0000b2" />
<circle cx="320.0" cy="160.0" r="2.0" stroke="#0000b2" stroke-width="4.0" fill="#0000b2" />
<circle cx="400.0" cy="140.0" r="2.0" stroke="#b20000" stroke-width="4.0" fill="#b20000" />
</g>
<g>
<path d="M 630,230 L 600,230 C 610,214 610,186 600,170 L 620,170 C 650,170 670,180 680,200 C 670,220 650,230 630,230 Z" stroke="#000000" stroke-width="4.0" fill="none"/>
<circle cx="600.0" cy="180.0" r="2.0" stroke="#0000b2" stroke-width="4.0" fill="#0000b2" />
<circle cx="600.0" cy="200.0" r="2.0" stroke="#0000b2" stroke-width="4.0" fill="#0000b2" />
<circle cx="600.0" cy="220.0" r="2.0" stroke="#0000b2" stroke-width="4.0" fill="#0000b2" />
<circle cx="680.0" cy="200.0" r="2.0" stroke="#b20000" stroke-width="4.0" fill="#b20000" />
</g>
<g>
<path d="M 441,128 L 459,140 L 441,152 Z" stroke="#000000" stroke-width="4.0" fill="none"/>
<circle cx="470.0" cy="140.0" r="9.0" stroke="#000000" stroke-width="4.0" fill="none" />
<circle cx="440.0" cy="140.0" r="2.0" stroke="#0000b2" stroke-width="4.0" fill="#0000b2" />
<circle cx="480.0" cy="140.0" r="2.0" stroke="#b20000" stroke-width="4.0" fill="#b20000" />
</g>
<g>
<path d="M 121,188 L 139,200 L 121,212 Z" stroke="#000000" stroke-width="4.0" fill="none"/>
<circle cx="150.0" cy="200.0" r="9.0" stroke="#000000" stroke-width="4.0" fill="none" />
<circle cx="120.0" cy="200.0" r="2.0" stroke="#0000b2" stroke-width="4.0" fill="#0000b2" />
<circle cx="160.0" cy="200.0" r="2.0" stroke="#b20000" stroke-width="4.0" fill="#b20000" />
</g>
<g>
<path d="M 121,308 L 139,320 L 121,332 Z" stroke="#000000" stroke-width="4.0" fill="none"/>
<circle cx="150.0" cy="320.0" r="9.0" stroke="#000000" stroke-width="4.0" fill="none" />
<circle cx="120.0" cy="320.0" r="2.0" stroke="#0000b2" stroke-width="4.0" fill="#0000b2" />
<circle cx="160.0" cy="320.0" r="2.0" stroke="#b20000" stroke-width="4.0" fill="#b20000" />
</g>
<g>
<circle cx="736.0" cy="200.0" r="9.0" stroke="#000000" stroke-width="4.0" fill="none" />
<circle cx="736.0" cy="200.0" r="15.0" stroke="#000000" stroke-width="4.0" fill="none" />
<text text-anchor="start" x="765.0" y="209.0" fill="#000000" style="font-size:24px"><tspan style="font-style:italic;">F</tspan></text>
<circle cx="720.0" cy="200.0" r="2.0" stroke="#0000b2" stroke-width="4.0" fill="#0000b2" />
</g>
<g>
<path d="M 29,105 L 59,105 L 59,135 L 29,135 Z" stroke="#000000" stroke-width="4.0" fill="none"/>
<circle cx="44.0" cy="120.0" r="9.0" stroke="#000000" stroke-width="4.0" fill="none" />
<text text-anchor="end" x="15.0" y="129.0" fill="#000000" style="font-size:24px"><tspan style="font-style:italic;">A</tspan></text>
<circle cx="60.0" cy="120.0" r="2.0" stroke="#b20000" stroke-width="4.0" fill="#b20000" />
</g>
<g>
<path d="M 29,185 L 59,185 L 59,215 L 29,215 Z" stroke="#000000" stroke-width="4.0" fill="none"/>
<circle cx="44.0" cy="200.0" r="9.0" stroke="#000000" stroke-width="4.0" fill="none" />
<text text-anchor="end" x="15.0" y="209.0" fill="#000000" style="font-size:24px"><tspan style="font-style:italic;">B</tspan></text>
<circle cx="60.0" cy="200.0" r="2.0" stroke="#b20000" stroke-width="4.0" fill="#b20000" />
</g>
<g>
<path d="M 29,305 L 59,305 L 59,335 L 29,335 Z" stroke="#000000" stroke-width="4.0" fill="none"/>
<circle cx="44.0" cy="320.0" r="9.0" stroke="#000000" stroke-width="4.0" fill="none" />
<text text-anchor="end" x="15.0" y="329.0" fill="#000000" style="font-size:24px"><tspan style="font-style:italic;">C</tspan></text>
<circle cx="60.0" cy="320.0" r="2.0" stroke="#b20000" stroke-width="4.0" fill="#b20000" />
</g>
<g>
<circle cx="236.0" cy="200.0" r="9.0" stroke="#000000" stroke-width="4.0" fill="none" />
<circle cx="236.0" cy="200.0" r="15.0" stroke="#000000" stroke-width="4.0" fill="none" />
<text text-anchor="start" x="265.0" y="209.0" fill="#000000" style="font-size:24px"><tspan style="font-style:italic;">T</tspan></text>
<circle cx="220.0" cy="200.0" r="2.0" stroke="#0000b2" stroke-width="4.0" fill="#0000b2" />
</g>
<g>
<circle cx="216.0" cy="360.0" r="9.0" stroke="#000000" stroke-width="4.0" fill="none" />
<circle cx="216.0" cy="360.0" r="15.0" stroke="#000000" stroke-width="4.0" fill="none" />
<text text-anchor="start" x="245.0" y="369.0" fill="#000000" style="font-size:24px"><tspan style="font-style:italic;">U</tspan></text>
<circle cx="200.0" cy="360.0" r="2.0" stroke="#0000b2" stroke-width="4.0" fill="#0000b2" />
</g>
<g>
<circle cx="456.0" cy="80.0" r="9.0" stroke="#000000" stroke-width="4.0" fill="none" />
<circle cx="456.0" cy="80.0" r="15.0" stroke="#000000" stroke-width="4.0" fill="none" />
<text text-anchor="start" x="485.0" y="89.0" fill="#000000" style="font-size:24px"><tspan style="font-style:italic;">Y</tspan></text>
<circle cx="440.0" cy="80.0" r="2.0" stroke="#0000b2" stroke-width="4.0" fill="#0000b2" />
</g>
<g>
<circle cx="396.0" cy="220.0" r="9.0" stroke="#000000" stroke-width="4.0" fill="none" />
<circle cx="396.0" cy="220.0" r="15.0" stroke="#000000" stroke-width="4.0" fill="none" />
<text text-anchor="start" x="425.0" y="229.0" fill="#000000" style="font-size:24px"><tspan style="font-style:italic;">X</tspan></text>
<circle cx="380.0" cy="220.0" r="2.0" stroke="#0000b2" stroke-width="4.0" fill="#0000b2" />
</g>
<g>
<circle cx="596.0" cy="380.0" r="9.0" stroke="#000000" stroke-width="4.0" fill="none" />
<circle cx="596.0" cy="380.0" r="15.0" stroke="#000000" stroke-width="4.0" fill="none" />
<text text-anchor="start" x="625.0" y="389.0" fill="#000000" style="font-size:24px"><tspan style="font-style:italic;">Z<tspan style="font-size:80%;baseline-shift:sub;">3</tspan></tspan></text>
<circle cx="580.0" cy="380.0" r="2.0" stroke="#0000b2" stroke-width="4.0" fill="#0000b2" />
</g>
<g>
<circle cx="596.0" cy="280.0" r="9.0" stroke="#000000" stroke-width="4.0" fill="none" />
<circle cx="596.0" cy="280.0" r="15.0" stroke="#000000" stroke-width="4.0" fill="none" />
<text text-anchor="start" x="625.0" y="289.0" fill="#000000" style="font-size:24px"><tspan style="font-style:italic;">Z<tspan style="font-size:80%;baseline-shift:sub;">2</tspan></tspan></text>
<circle cx="580.0" cy="280.0" r="2.0" stroke="#0000b2" stroke-width="4.0" fill="#0000b2" />
</g>
<g>
<circle cx="596.0" cy="120.0" r="9.0" stroke="#000000" stroke-width="4.0" fill="none" />
<circle cx="596.0" cy="120.0" r="15.0" stroke="#000000" stroke-width="4.0" fill="none" />
<text text-anchor="start" x="625.0" y="129.0" fill="#000000" style="font-size:24px"><tspan style="font-style:italic;">Z<tspan style="font-size:80%;baseline-shift:sub;">1</tspan></tspan></text>
<circle cx="580.0" cy="120.0" r="2.0" stroke="#0000b2" stroke-width="4.0" fill="#0000b2" />
</g>
</g>
</svg>