<?xml version="1.0" encoding="UTF-8" standalone="no"?>
<!-- Created with Digital by H.Neemann -->
<!-- created: Fri Mar 04 16:53:35 EST 2022 -->

<svg
   xmlns:svg="http://www.w3.org/2000/svg"
   xmlns="http://www.w3.org/2000/svg"
   width="129.6mm"
   height="56.1mm"
   viewBox="339 83 864 374">
<g stroke-linecap="square">
<path d="M 520,160 L 580,160 L 740,160 L 744,160" stroke="#0000b2" stroke-width="4.0" fill="none"/>
<path d="M 1000,240 L 1000,160 L 1020,160" stroke="#0000b2" stroke-width="4.0" fill="none"/>
<path d="M 400,160 L 460,160" stroke="#0000b2" stroke-width="4.0" fill="none"/>
<path d="M 520,320 L 580,320 L 740,320 L 744,320" stroke="#0000b2" stroke-width="4.0" fill="none"/>
<path d="M 420,280 L 420,320 L 460,320" stroke="#0000b2" stroke-width="4.0" fill="none"/>
<path d="M 1100,260 L 1140,260" stroke="#0000b2" stroke-width="4.0" fill="none"/>
<path d="M 400,360 L 460,360" stroke="#0000b2" stroke-width="4.0" fill="none"/>
<path d="M 840,300 L 880,300 L 880,260 L 900,260 L 904,260" stroke="#0000b2" stroke-width="4.0" fill="none"/>
<path d="M 980,240 L 1000,240 L 1040,240" stroke="#0000b2" stroke-width="4.0" fill="none"/>
<path d="M 700,240 L 720,240 L 720,200 L 740,200 L 744,200" stroke="#0000b2" stroke-width="4.0" fill="none"/>
<path d="M 840,180 L 880,180 L 880,220 L 900,220 L 904,220" stroke="#0000b2" stroke-width="4.0" fill="none"/>
<path d="M 380,440 L 440,440 L 1020,440 L 1020,260 L 1040,260" stroke="#0000b2" stroke-width="4.0" fill="none"/>
<path d="M 720,240 L 720,280 L 740,280 L 744,280" stroke="#0000b2" stroke-width="4.0" fill="none"/>
<path d="M 600,100 L 580,100 L 580,160 L 580,220 L 600,220 L 604,220" stroke="#0000b2" stroke-width="4.0" fill="none"/>
<path d="M 604,260 L 600,260 L 580,260 L 580,320 L 580,380 L 600,380" stroke="#0000b2" stroke-width="4.0" fill="none"/>
<path d="M 460,180 L 440,180 L 440,340 L 460,340" stroke="#0000b2" stroke-width="4.0" fill="none"/>
<path d="M 440,340 L 440,440" stroke="#0000b2" stroke-width="4.0" fill="none"/>
<g>
<circle cx="580.0" cy="160.0" r="4.0" stroke="#0000b2" stroke-width="4.0" fill="#0000b2" />
<circle cx="580.0" cy="320.0" r="4.0" stroke="#0000b2" stroke-width="4.0" fill="#0000b2" />
<circle cx="1000.0" cy="240.0" r="4.0" stroke="#0000b2" stroke-width="4.0" fill="#0000b2" />
<circle cx="720.0" cy="240.0" r="4.0" stroke="#0000b2" stroke-width="4.0" fill="#0000b2" />
<circle cx="440.0" cy="340.0" r="4.0" stroke="#0000b2" stroke-width="4.0" fill="#0000b2" />
<circle cx="440.0" cy="440.0" r="4.0" stroke="#0000b2" stroke-width="4.0" fill="#0000b2" />
</g>
<g>
<path d="M 461,150 L 519,150 L 519,190 L 461,190 Z" stroke="#000000" stroke-width="4.0" fill="none"/>
<text text-anchor="start" x="464.0" y="166.75" fill="#808080" style="font-size:18px">D</text>
<path d="M 461,187 L 468,180 L 461,173" stroke="#000000" stroke-width="2.0" fill="none"/>
<text text-anchor="start" x="471.0" y="186.75" fill="#808080" style="font-size:18px">C</text>
<text text-anchor="end" x="516.0" y="166.75" fill="#808080" style="font-size:18px">Q</text>
<text text-anchor="end" x="516.0" y="186.75" fill="#808080" style="font-size:18px"><tspan style="text-decoration:overline;">Q</tspan></text>
<text text-anchor="middle" x="490.0" y="207.5" fill="#808080" style="font-size:18px">D</text>
<circle cx="460.0" cy="160.0" r="2.0" stroke="#0000b2" stroke-width="4.0" fill="#0000b2" />
<circle cx="460.0" cy="180.0" r="2.0" stroke="#0000b2" stroke-width="4.0" fill="#0000b2" />
<circle cx="520.0" cy="160.0" r="2.0" stroke="#b20000" stroke-width="4.0" fill="#b20000" />
<circle cx="520.0" cy="180.0" r="2.0" stroke="#b20000" stroke-width="4.0" fill="#b20000" />
</g>
<g>
<path d="M 461,310 L 519,310 L 519,370 L 461,370 Z" stroke="#000000" stroke-width="4.0" fill="none"/>
<text text-anchor="start" x="464.0" y="326.75" fill="#808080" style="font-size:18px">J</text>
<path d="M 461,347 L 468,340 L 461,333" stroke="#000000" stroke-width="2.0" fill="none"/>
<text text-anchor="start" x="471.0" y="346.75" fill="#808080" style="font-size:18px">C</text>
<text text-anchor="start" x="464.0" y="366.75" fill="#808080" style="font-size:18px">K</text>
<text text-anchor="end" x="516.0" y="326.75" fill="#808080" style="font-size:18px">Q</text>
<text text-anchor="end" x="516.0" y="346.75" fill="#808080" style="font-size:18px"><tspan style="text-decoration:overline;">Q</tspan></text>
<text text-anchor="middle" x="490.0" y="387.5" fill="#808080" style="font-size:18px">JK</text>
<circle cx="460.0" cy="320.0" r="2.0" stroke="#0000b2" stroke-width="4.0" fill="#0000b2" />
<circle cx="460.0" cy="340.0" r="2.0" stroke="#0000b2" stroke-width="4.0" fill="#0000b2" />
<circle cx="460.0" cy="360.0" r="2.0" stroke="#0000b2" stroke-width="4.0" fill="#0000b2" />
<circle cx="520.0" cy="320.0" r="2.0" stroke="#b20000" stroke-width="4.0" fill="#b20000" />
<circle cx="520.0" cy="340.0" r="2.0" stroke="#b20000" stroke-width="4.0" fill="#b20000" />
</g>
<g>
<path d="M 1041,230 L 1099,230 L 1099,270 L 1041,270 Z" stroke="#000000" stroke-width="4.0" fill="none"/>
<text text-anchor="start" x="1044.0" y="246.75" fill="#808080" style="font-size:18px">D</text>
<path d="M 1041,267 L 1048,260 L 1041,253" stroke="#000000" stroke-width="2.0" fill="none"/>
<text text-anchor="start" x="1051.0" y="266.75" fill="#808080" style="font-size:18px">C</text>
<text text-anchor="end" x="1096.0" y="246.75" fill="#808080" style="font-size:18px">Q</text>
<text text-anchor="end" x="1096.0" y="266.75" fill="#808080" style="font-size:18px"><tspan style="text-decoration:overline;">Q</tspan></text>
<text text-anchor="middle" x="1070.0" y="287.5" fill="#808080" style="font-size:18px">D</text>
<circle cx="1040.0" cy="240.0" r="2.0" stroke="#0000b2" stroke-width="4.0" fill="#0000b2" />
<circle cx="1040.0" cy="260.0" r="2.0" stroke="#0000b2" stroke-width="4.0" fill="#0000b2" />
<circle cx="1100.0" cy="240.0" r="2.0" stroke="#b20000" stroke-width="4.0" fill="#b20000" />
<circle cx="1100.0" cy="260.0" r="2.0" stroke="#b20000" stroke-width="4.0" fill="#b20000" />
</g>
<g>
<path d="M 630,270 L 600,270 C 610,254 610,226 600,210 L 620,210 C 650,210 670,220 680,240 C 670,260 650,270 630,270 Z" stroke="#000000" stroke-width="4.0" fill="none"/>
<circle cx="690.0" cy="240.0" r="9.0" stroke="#000000" stroke-width="4.0" fill="none" />
<circle cx="600.0" cy="220.0" r="2.0" stroke="#0000b2" stroke-width="4.0" fill="#0000b2" />
<circle cx="600.0" cy="260.0" r="2.0" stroke="#0000b2" stroke-width="4.0" fill="#0000b2" />
<circle cx="700.0" cy="240.0" r="2.0" stroke="#b20000" stroke-width="4.0" fill="#b20000" />
</g>
<g>
<path d="M 770,210 L 740,210 C 750,194 750,166 740,150 L 760,150 C 790,150 810,160 820,180 C 810,200 790,210 770,210 Z" stroke="#000000" stroke-width="4.0" fill="none"/>
<circle cx="830.0" cy="180.0" r="9.0" stroke="#000000" stroke-width="4.0" fill="none" />
<circle cx="740.0" cy="160.0" r="2.0" stroke="#0000b2" stroke-width="4.0" fill="#0000b2" />
<circle cx="740.0" cy="200.0" r="2.0" stroke="#0000b2" stroke-width="4.0" fill="#0000b2" />
<circle cx="840.0" cy="180.0" r="2.0" stroke="#b20000" stroke-width="4.0" fill="#b20000" />
</g>
<g>
<path d="M 770,330 L 740,330 C 750,314 750,286 740,270 L 760,270 C 790,270 810,280 820,300 C 810,320 790,330 770,330 Z" stroke="#000000" stroke-width="4.0" fill="none"/>
<circle cx="830.0" cy="300.0" r="9.0" stroke="#000000" stroke-width="4.0" fill="none" />
<circle cx="740.0" cy="280.0" r="2.0" stroke="#0000b2" stroke-width="4.0" fill="#0000b2" />
<circle cx="740.0" cy="320.0" r="2.0" stroke="#0000b2" stroke-width="4.0" fill="#0000b2" />
<circle cx="840.0" cy="300.0" r="2.0" stroke="#b20000" stroke-width="4.0" fill="#b20000" />
</g>
<g>
<path d="M 930,270 L 900,270 C 910,254 910,226 900,210 L 920,210 C 950,210 970,220 980,240 C 970,260 950,270 930,270 Z" stroke="#000000" stroke-width="4.0" fill="none"/>
<circle cx="900.0" cy="220.0" r="2.0" stroke="#0000b2" stroke-width="4.0" fill="#0000b2" />
<circle cx="900.0" cy="260.0" r="2.0" stroke="#0000b2" stroke-width="4.0" fill="#0000b2" />
<circle cx="980.0" cy="240.0" r="2.0" stroke="#b20000" stroke-width="4.0" fill="#b20000" />
</g>
<g>
<path d="M 369,145 L 399,145 L 399,175 L 369,175 Z" stroke="#000000" stroke-width="4.0" fill="none"/>
<circle cx="384.0" cy="160.0" r="9.0" stroke="#000000" stroke-width="4.0" fill="none" />
<text text-anchor="end" x="355.0" y="169.0" fill="#000000" style="font-size:24px"><tspan style="font-style:italic;">x</tspan></text>
<circle cx="400.0" cy="160.0" r="2.0" stroke="#b20000" stroke-width="4.0" fill="#b20000" />
</g>
<g>
<path d="M 369,345 L 399,345 L 399,375 L 369,375 Z" stroke="#000000" stroke-width="4.0" fill="none"/>
<circle cx="384.0" cy="360.0" r="9.0" stroke="#000000" stroke-width="4.0" fill="none" />
<text text-anchor="end" x="355.0" y="369.0" fill="#000000" style="font-size:24px"><tspan style="font-style:italic;">y</tspan></text>
<circle cx="400.0" cy="360.0" r="2.0" stroke="#b20000" stroke-width="4.0" fill="#b20000" />
</g>
<g>
<circle cx="616.0" cy="100.0" r="9.0" stroke="#000000" stroke-width="4.0" fill="none" />
<circle cx="616.0" cy="100.0" r="15.0" stroke="#000000" stroke-width="4.0" fill="none" />
<text text-anchor="start" x="645.0" y="109.0" fill="#000000" style="font-size:24px"><tspan style="font-style:italic;">A</tspan></text>
<circle cx="600.0" cy="100.0" r="2.0" stroke="#0000b2" stroke-width="4.0" fill="#0000b2" />
</g>
<g>
<circle cx="616.0" cy="380.0" r="9.0" stroke="#000000" stroke-width="4.0" fill="none" />
<circle cx="616.0" cy="380.0" r="15.0" stroke="#000000" stroke-width="4.0" fill="none" />
<text text-anchor="start" x="645.0" y="389.0" fill="#000000" style="font-size:24px"><tspan style="font-style:italic;">B</tspan></text>
<circle cx="600.0" cy="380.0" r="2.0" stroke="#0000b2" stroke-width="4.0" fill="#0000b2" />
</g>
<g>
<circle cx="1036.0" cy="160.0" r="9.0" stroke="#000000" stroke-width="4.0" fill="none" />
<circle cx="1036.0" cy="160.0" r="15.0" stroke="#000000" stroke-width="4.0" fill="none" />
<text text-anchor="start" x="1065.0" y="169.0" fill="#000000" style="font-size:24px"><tspan style="font-style:italic;">S</tspan></text>
<circle cx="1020.0" cy="160.0" r="2.0" stroke="#0000b2" stroke-width="4.0" fill="#0000b2" />
</g>
<g>
<circle cx="1156.0" cy="260.0" r="9.0" stroke="#000000" stroke-width="4.0" fill="none" />
<circle cx="1156.0" cy="260.0" r="15.0" stroke="#000000" stroke-width="4.0" fill="none" />
<text text-anchor="start" x="1185.0" y="269.0" fill="#000000" style="font-size:24px"><tspan style="font-style:italic;">Z</tspan></text>
<circle cx="1140.0" cy="260.0" r="2.0" stroke="#0000b2" stroke-width="4.0" fill="#0000b2" />
</g>
<g>
<text text-anchor="end" x="417.0" y="289.0" fill="#000000" style="font-size:24px">1</text>
<circle cx="420.0" cy="280.0" r="2.0" stroke="#b20000" stroke-width="4.0" fill="#b20000" />
</g>
<g>
<path d="M 349,425 L 379,425 L 379,455 L 349,455 Z" stroke="#000000" stroke-width="4.0" fill="none"/>
<path d="M 355,445 L 360,445 L 360,435 L 365,435 L 365,445 L 370,445 L 370,435 L 375,435" stroke="#000000" stroke-width="2.0" fill="none"/>
<circle cx="380.0" cy="440.0" r="2.0" stroke="#b20000" stroke-width="4.0" fill="#b20000" />
</g>
</g>
</svg>