<?xml version="1.0" encoding="UTF-8" standalone="no"?>
<!-- Created with Digital by H.Neemann -->
<!-- created: Fri Mar 04 17:29:05 EST 2022 -->

<svg
   xmlns:svg="http://www.w3.org/2000/svg"
   xmlns="http://www.w3.org/2000/svg"
   width="99.75mm"
   height="38.1mm"
   viewBox="317 23 665 254">
<g stroke-linecap="square">
<path d="M 480,160 L 500,160 L 500,220 L 740,220 L 740,200 L 780,200 L 794,200" stroke="#0000b2" stroke-width="4.0" fill="none"/>
<path d="M 580,100 L 600,100 L 600,140 L 620,140" stroke="#0000b2" stroke-width="4.0" fill="none"/>
<path d="M 720,140 L 720,100 L 740,100" stroke="#0000b2" stroke-width="4.0" fill="none"/>
<path d="M 580,180 L 620,180" stroke="#0000b2" stroke-width="4.0" fill="none"/>
<path d="M 880,180 L 920,180" stroke="#0000b2" stroke-width="4.0" fill="none"/>
<path d="M 500,220 L 500,260 L 520,260" stroke="#0000b2" stroke-width="4.0" fill="none"/>
<path d="M 500,140 L 500,40 L 520,40" stroke="#0000b2" stroke-width="4.0" fill="none"/>
<path d="M 380,220 L 400,220 L 400,160 L 420,160" stroke="#0000b2" stroke-width="4.0" fill="none"/>
<path d="M 380,140 L 420,140" stroke="#0000b2" stroke-width="4.0" fill="none"/>
<path d="M 480,140 L 500,140 L 560,140 L 560,160 L 620,160" stroke="#0000b2" stroke-width="4.0" fill="none"/>
<path d="M 680,140 L 720,140 L 760,140 L 760,160 L 780,160 L 794,160" stroke="#0000b2" stroke-width="4.0" fill="none"/>
<g>
<circle cx="500.0" cy="220.0" r="4.0" stroke="#0000b2" stroke-width="4.0" fill="#0000b2" />
<circle cx="500.0" cy="140.0" r="4.0" stroke="#0000b2" stroke-width="4.0" fill="#0000b2" />
<circle cx="720.0" cy="140.0" r="4.0" stroke="#0000b2" stroke-width="4.0" fill="#0000b2" />
</g>
<g>
<path d="M 810,210 L 790,210 C 800,194 800,166 790,150 L 810,150 C 830,150 850,160 860,180 C 850,200 830,210 810,210 Z" stroke="#000000" stroke-width="4.0" fill="none"/>
<path d="M 780,210 C 790,200 790,160 780,150" stroke="#000000" stroke-width="4.0" fill="none"/>
<circle cx="870.0" cy="180.0" r="9.0" stroke="#000000" stroke-width="4.0" fill="none" />
<circle cx="780.0" cy="160.0" r="2.0" stroke="#0000b2" stroke-width="4.0" fill="#0000b2" />
<circle cx="780.0" cy="200.0" r="2.0" stroke="#0000b2" stroke-width="4.0" fill="#0000b2" />
<circle cx="880.0" cy="180.0" r="2.0" stroke="#b20000" stroke-width="4.0" fill="#b20000" />
</g>
<g>
<path d="M 421,130 L 479,130 L 479,170 L 421,170 Z" stroke="#000000" stroke-width="4.0" fill="none"/>
<text text-anchor="start" x="424.0" y="146.75" fill="#808080" style="font-size:18px">D</text>
<path d="M 421,167 L 428,160 L 421,153" stroke="#000000" stroke-width="2.0" fill="none"/>
<text text-anchor="start" x="431.0" y="166.75" fill="#808080" style="font-size:18px">C</text>
<text text-anchor="end" x="476.0" y="146.75" fill="#808080" style="font-size:18px">Q</text>
<text text-anchor="end" x="476.0" y="166.75" fill="#808080" style="font-size:18px"><tspan style="text-decoration:overline;">Q</tspan></text>
<text text-anchor="middle" x="450.0" y="187.5" fill="#808080" style="font-size:18px">D</text>
<circle cx="420.0" cy="140.0" r="2.0" stroke="#0000b2" stroke-width="4.0" fill="#0000b2" />
<circle cx="420.0" cy="160.0" r="2.0" stroke="#0000b2" stroke-width="4.0" fill="#0000b2" />
<circle cx="480.0" cy="140.0" r="2.0" stroke="#b20000" stroke-width="4.0" fill="#b20000" />
<circle cx="480.0" cy="160.0" r="2.0" stroke="#b20000" stroke-width="4.0" fill="#b20000" />
</g>
<g>
<path d="M 621,130 L 679,130 L 679,190 L 621,190 Z" stroke="#000000" stroke-width="4.0" fill="none"/>
<text text-anchor="start" x="624.0" y="146.75" fill="#808080" style="font-size:18px">J</text>
<path d="M 621,167 L 628,160 L 621,153" stroke="#000000" stroke-width="2.0" fill="none"/>
<text text-anchor="start" x="631.0" y="166.75" fill="#808080" style="font-size:18px">C</text>
<text text-anchor="start" x="624.0" y="186.75" fill="#808080" style="font-size:18px">K</text>
<text text-anchor="end" x="676.0" y="146.75" fill="#808080" style="font-size:18px">Q</text>
<text text-anchor="end" x="676.0" y="166.75" fill="#808080" style="font-size:18px"><tspan style="text-decoration:overline;">Q</tspan></text>
<text text-anchor="middle" x="650.0" y="207.5" fill="#808080" style="font-size:18px">JK</text>
<circle cx="620.0" cy="140.0" r="2.0" stroke="#0000b2" stroke-width="4.0" fill="#0000b2" />
<circle cx="620.0" cy="160.0" r="2.0" stroke="#0000b2" stroke-width="4.0" fill="#0000b2" />
<circle cx="620.0" cy="180.0" r="2.0" stroke="#0000b2" stroke-width="4.0" fill="#0000b2" />
<circle cx="680.0" cy="140.0" r="2.0" stroke="#b20000" stroke-width="4.0" fill="#b20000" />
<circle cx="680.0" cy="160.0" r="2.0" stroke="#b20000" stroke-width="4.0" fill="#b20000" />
</g>
<g>
<circle cx="936.0" cy="180.0" r="9.0" stroke="#000000" stroke-width="4.0" fill="none" />
<circle cx="936.0" cy="180.0" r="15.0" stroke="#000000" stroke-width="4.0" fill="none" />
<text text-anchor="start" x="965.0" y="189.0" fill="#000000" style="font-size:24px"><tspan style="font-style:italic;">S</tspan></text>
<circle cx="920.0" cy="180.0" r="2.0" stroke="#0000b2" stroke-width="4.0" fill="#0000b2" />
</g>
<g>
<path d="M 349,125 L 379,125 L 379,155 L 349,155 Z" stroke="#000000" stroke-width="4.0" fill="none"/>
<circle cx="364.0" cy="140.0" r="9.0" stroke="#000000" stroke-width="4.0" fill="none" />
<text text-anchor="end" x="335.0" y="149.0" fill="#000000" style="font-size:24px"><tspan style="font-style:italic;">B</tspan></text>
<circle cx="380.0" cy="140.0" r="2.0" stroke="#b20000" stroke-width="4.0" fill="#b20000" />
</g>
<g>
<path d="M 349,205 L 379,205 L 379,235 L 349,235 Z" stroke="#000000" stroke-width="4.0" fill="none"/>
<path d="M 355,225 L 360,225 L 360,215 L 365,215 L 365,225 L 370,225 L 370,215 L 375,215" stroke="#000000" stroke-width="2.0" fill="none"/>
<circle cx="380.0" cy="220.0" r="2.0" stroke="#b20000" stroke-width="4.0" fill="#b20000" />
</g>
<g>
<path d="M 549,85 L 579,85 L 579,115 L 549,115 Z" stroke="#000000" stroke-width="4.0" fill="none"/>
<circle cx="564.0" cy="100.0" r="9.0" stroke="#000000" stroke-width="4.0" fill="none" />
<text text-anchor="end" x="535.0" y="109.0" fill="#000000" style="font-size:24px"><tspan style="font-style:italic;">A</tspan></text>
<circle cx="580.0" cy="100.0" r="2.0" stroke="#b20000" stroke-width="4.0" fill="#b20000" />
</g>
<g>
<text text-anchor="end" x="577.0" y="189.0" fill="#000000" style="font-size:24px">1</text>
<circle cx="580.0" cy="180.0" r="2.0" stroke="#b20000" stroke-width="4.0" fill="#b20000" />
</g>
<g>
<circle cx="756.0" cy="100.0" r="9.0" stroke="#000000" stroke-width="4.0" fill="none" />
<circle cx="756.0" cy="100.0" r="15.0" stroke="#000000" stroke-width="4.0" fill="none" />
<text text-anchor="start" x="785.0" y="109.0" fill="#000000" style="font-size:24px"><tspan style="font-style:italic;">Y</tspan></text>
<circle cx="740.0" cy="100.0" r="2.0" stroke="#0000b2" stroke-width="4.0" fill="#0000b2" />
</g>
<g>
<circle cx="536.0" cy="40.0" r="9.0" stroke="#000000" stroke-width="4.0" fill="none" />
<circle cx="536.0" cy="40.0" r="15.0" stroke="#000000" stroke-width="4.0" fill="none" />
<text text-anchor="start" x="565.0" y="49.0" fill="#000000" style="font-size:24px"><tspan style="font-style:italic;">X</tspan></text>
<circle cx="520.0" cy="40.0" r="2.0" stroke="#0000b2" stroke-width="4.0" fill="#0000b2" />
</g>
<g>
<circle cx="536.0" cy="260.0" r="9.0" stroke="#000000" stroke-width="4.0" fill="none" />
<circle cx="536.0" cy="260.0" r="15.0" stroke="#000000" stroke-width="4.0" fill="none" />
<text text-anchor="start" x="565.0" y="269.0" fill="#000000" style="font-size:24px"><tspan style="font-style:italic;">X'</tspan></text>
<circle cx="520.0" cy="260.0" r="2.0" stroke="#0000b2" stroke-width="4.0" fill="#0000b2" />
</g>
</g>
</svg>