<?xml version="1.0" encoding="UTF-8" standalone="no"?>
<!-- Created with Digital by H.Neemann -->
<!-- created: Sat Mar 05 07:41:30 EST 2022 -->

<svg
   xmlns:svg="http://www.w3.org/2000/svg"
   xmlns="http://www.w3.org/2000/svg"
   width="124.8mm"
   height="91.35mm"
   viewBox="184 83 832 609">
<g stroke-linecap="square">
<path d="M 880,320 L 940,320" stroke="#0000b2" stroke-width="4.0" fill="none"/>
<path d="M 260,320 L 280,320" stroke="#0000b2" stroke-width="4.0" fill="none"/>
<path d="M 800,320 L 820,320" stroke="#0000b2" stroke-width="4.0" fill="none"/>
<path d="M 780,640 L 820,640" stroke="#0000b2" stroke-width="4.0" fill="none"/>
<path d="M 460,640 L 480,640" stroke="#0000b2" stroke-width="4.0" fill="none"/>
<path d="M 460,580 L 480,580" stroke="#0000b2" stroke-width="4.0" fill="none"/>
<path d="M 560,260 L 580,260" stroke="#0000b2" stroke-width="4.0" fill="none"/>
<path d="M 880,200 L 900,200 L 900,100 L 940,100" stroke="#0000b2" stroke-width="4.0" fill="none"/>
<path d="M 800,200 L 820,200" stroke="#0000b2" stroke-width="4.0" fill="none"/>
<path d="M 260,520 L 280,520" stroke="#0000b2" stroke-width="4.0" fill="none"/>
<path d="M 880,460 L 940,460" stroke="#0000b2" stroke-width="4.0" fill="none"/>
<path d="M 560,460 L 580,460" stroke="#0000b2" stroke-width="4.0" fill="none"/>
<path d="M 800,460 L 820,460" stroke="#0000b2" stroke-width="4.0" fill="none"/>
<path d="M 460,140 L 480,140" stroke="#0000b2" stroke-width="4.0" fill="none"/>
<path d="M 880,340 L 900,340 L 900,280 L 800,280 L 800,220 L 820,220" stroke="#0000b2" stroke-width="4.0" fill="none"/>
<path d="M 460,340 L 480,340" stroke="#0000b2" stroke-width="4.0" fill="none"/>
<path d="M 800,340 L 820,340" stroke="#0000b2" stroke-width="4.0" fill="none"/>
<path d="M 560,660 L 580,660" stroke="#0000b2" stroke-width="4.0" fill="none"/>
<path d="M 880,600 L 940,600" stroke="#0000b2" stroke-width="4.0" fill="none"/>
<path d="M 800,600 L 820,600" stroke="#0000b2" stroke-width="4.0" fill="none"/>
<path d="M 460,280 L 480,280" stroke="#0000b2" stroke-width="4.0" fill="none"/>
<path d="M 260,220 L 280,220" stroke="#0000b2" stroke-width="4.0" fill="none"/>
<path d="M 460,540 L 480,540" stroke="#0000b2" stroke-width="4.0" fill="none"/>
<path d="M 880,480 L 900,480 L 900,420 L 800,420 L 800,360 L 820,360" stroke="#0000b2" stroke-width="4.0" fill="none"/>
<path d="M 460,480 L 480,480" stroke="#0000b2" stroke-width="4.0" fill="none"/>
<path d="M 800,480 L 820,480" stroke="#0000b2" stroke-width="4.0" fill="none"/>
<path d="M 560,160 L 580,160" stroke="#0000b2" stroke-width="4.0" fill="none"/>
<path d="M 260,420 L 280,420" stroke="#0000b2" stroke-width="4.0" fill="none"/>
<path d="M 560,360 L 580,360" stroke="#0000b2" stroke-width="4.0" fill="none"/>
<path d="M 460,680 L 480,680" stroke="#0000b2" stroke-width="4.0" fill="none"/>
<path d="M 880,620 L 900,620 L 900,560 L 800,560 L 800,500 L 820,500" stroke="#0000b2" stroke-width="4.0" fill="none"/>
<path d="M 260,620 L 280,620" stroke="#0000b2" stroke-width="4.0" fill="none"/>
<path d="M 800,620 L 820,620" stroke="#0000b2" stroke-width="4.0" fill="none"/>
<path d="M 560,560 L 580,560" stroke="#0000b2" stroke-width="4.0" fill="none"/>
<path d="M 460,240 L 480,240" stroke="#0000b2" stroke-width="4.0" fill="none"/>
<path d="M 880,180 L 940,180" stroke="#0000b2" stroke-width="4.0" fill="none"/>
<path d="M 460,180 L 480,180" stroke="#0000b2" stroke-width="4.0" fill="none"/>
<path d="M 800,180 L 820,180" stroke="#0000b2" stroke-width="4.0" fill="none"/>
<path d="M 460,440 L 480,440" stroke="#0000b2" stroke-width="4.0" fill="none"/>
<path d="M 460,380 L 480,380" stroke="#0000b2" stroke-width="4.0" fill="none"/>
<g>
</g>
<g>
<path d="M 530,190 L 481,190 L 481,130 L 530,130 C 540,130 560,140 559,160 C 559,180 540,190 530,190 Z" stroke="#000000" stroke-width="4.0" fill="none"/>
<circle cx="480.0" cy="140.0" r="2.0" stroke="#0000b2" stroke-width="4.0" fill="#0000b2" />
<circle cx="480.0" cy="180.0" r="2.0" stroke="#0000b2" stroke-width="4.0" fill="#0000b2" />
<circle cx="560.0" cy="160.0" r="2.0" stroke="#b20000" stroke-width="4.0" fill="#b20000" />
</g>
<g>
<path d="M 530,290 L 481,290 L 481,230 L 530,230 C 540,230 560,240 559,260 C 559,280 540,290 530,290 Z" stroke="#000000" stroke-width="4.0" fill="none"/>
<circle cx="480.0" cy="240.0" r="2.0" stroke="#0000b2" stroke-width="4.0" fill="#0000b2" />
<circle cx="480.0" cy="280.0" r="2.0" stroke="#0000b2" stroke-width="4.0" fill="#0000b2" />
<circle cx="560.0" cy="260.0" r="2.0" stroke="#b20000" stroke-width="4.0" fill="#b20000" />
</g>
<g>
<path d="M 530,390 L 481,390 L 481,330 L 530,330 C 540,330 560,340 559,360 C 559,380 540,390 530,390 Z" stroke="#000000" stroke-width="4.0" fill="none"/>
<circle cx="480.0" cy="340.0" r="2.0" stroke="#0000b2" stroke-width="4.0" fill="#0000b2" />
<circle cx="480.0" cy="380.0" r="2.0" stroke="#0000b2" stroke-width="4.0" fill="#0000b2" />
<circle cx="560.0" cy="360.0" r="2.0" stroke="#b20000" stroke-width="4.0" fill="#b20000" />
</g>
<g>
<path d="M 530,490 L 481,490 L 481,430 L 530,430 C 540,430 560,440 559,460 C 559,480 540,490 530,490 Z" stroke="#000000" stroke-width="4.0" fill="none"/>
<circle cx="480.0" cy="440.0" r="2.0" stroke="#0000b2" stroke-width="4.0" fill="#0000b2" />
<circle cx="480.0" cy="480.0" r="2.0" stroke="#0000b2" stroke-width="4.0" fill="#0000b2" />
<circle cx="560.0" cy="460.0" r="2.0" stroke="#b20000" stroke-width="4.0" fill="#b20000" />
</g>
<g>
<path d="M 530,590 L 481,590 L 481,530 L 530,530 C 540,530 560,540 559,560 C 559,580 540,590 530,590 Z" stroke="#000000" stroke-width="4.0" fill="none"/>
<circle cx="480.0" cy="540.0" r="2.0" stroke="#0000b2" stroke-width="4.0" fill="#0000b2" />
<circle cx="480.0" cy="580.0" r="2.0" stroke="#0000b2" stroke-width="4.0" fill="#0000b2" />
<circle cx="560.0" cy="560.0" r="2.0" stroke="#b20000" stroke-width="4.0" fill="#b20000" />
</g>
<g>
<path d="M 530,690 L 481,690 L 481,630 L 530,630 C 540,630 560,640 559,660 C 559,680 540,690 530,690 Z" stroke="#000000" stroke-width="4.0" fill="none"/>
<circle cx="480.0" cy="640.0" r="2.0" stroke="#0000b2" stroke-width="4.0" fill="#0000b2" />
<circle cx="480.0" cy="680.0" r="2.0" stroke="#0000b2" stroke-width="4.0" fill="#0000b2" />
<circle cx="560.0" cy="660.0" r="2.0" stroke="#b20000" stroke-width="4.0" fill="#b20000" />
</g>
<g>
<path d="M 821,170 L 879,170 L 879,230 L 821,230 Z" stroke="#000000" stroke-width="4.0" fill="none"/>
<text text-anchor="start" x="824.0" y="186.75" fill="#808080" style="font-size:18px">a</text>
<text text-anchor="start" x="824.0" y="206.75" fill="#808080" style="font-size:18px">b</text>
<text text-anchor="start" x="824.0" y="226.75" fill="#808080" style="font-size:18px">c<tspan style="font-size:80%;baseline-shift:sub;">i</tspan></text>
<text text-anchor="end" x="876.0" y="186.75" fill="#808080" style="font-size:18px">s</text>
<text text-anchor="end" x="876.0" y="206.75" fill="#808080" style="font-size:18px">c<tspan style="font-size:80%;baseline-shift:sub;">o</tspan></text>
<text text-anchor="middle" x="850.0" y="247.5" fill="#808080" style="font-size:18px">Add</text>
<circle cx="820.0" cy="180.0" r="2.0" stroke="#0000b2" stroke-width="4.0" fill="#0000b2" />
<circle cx="820.0" cy="200.0" r="2.0" stroke="#0000b2" stroke-width="4.0" fill="#0000b2" />
<circle cx="820.0" cy="220.0" r="2.0" stroke="#0000b2" stroke-width="4.0" fill="#0000b2" />
<circle cx="880.0" cy="180.0" r="2.0" stroke="#b20000" stroke-width="4.0" fill="#b20000" />
<circle cx="880.0" cy="200.0" r="2.0" stroke="#b20000" stroke-width="4.0" fill="#b20000" />
</g>
<g>
<path d="M 821,310 L 879,310 L 879,370 L 821,370 Z" stroke="#000000" stroke-width="4.0" fill="none"/>
<text text-anchor="start" x="824.0" y="326.75" fill="#808080" style="font-size:18px">a</text>
<text text-anchor="start" x="824.0" y="346.75" fill="#808080" style="font-size:18px">b</text>
<text text-anchor="start" x="824.0" y="366.75" fill="#808080" style="font-size:18px">c<tspan style="font-size:80%;baseline-shift:sub;">i</tspan></text>
<text text-anchor="end" x="876.0" y="326.75" fill="#808080" style="font-size:18px">s</text>
<text text-anchor="end" x="876.0" y="346.75" fill="#808080" style="font-size:18px">c<tspan style="font-size:80%;baseline-shift:sub;">o</tspan></text>
<text text-anchor="middle" x="850.0" y="387.5" fill="#808080" style="font-size:18px">Add</text>
<circle cx="820.0" cy="320.0" r="2.0" stroke="#0000b2" stroke-width="4.0" fill="#0000b2" />
<circle cx="820.0" cy="340.0" r="2.0" stroke="#0000b2" stroke-width="4.0" fill="#0000b2" />
<circle cx="820.0" cy="360.0" r="2.0" stroke="#0000b2" stroke-width="4.0" fill="#0000b2" />
<circle cx="880.0" cy="320.0" r="2.0" stroke="#b20000" stroke-width="4.0" fill="#b20000" />
<circle cx="880.0" cy="340.0" r="2.0" stroke="#b20000" stroke-width="4.0" fill="#b20000" />
</g>
<g>
<path d="M 821,450 L 879,450 L 879,510 L 821,510 Z" stroke="#000000" stroke-width="4.0" fill="none"/>
<text text-anchor="start" x="824.0" y="466.75" fill="#808080" style="font-size:18px">a</text>
<text text-anchor="start" x="824.0" y="486.75" fill="#808080" style="font-size:18px">b</text>
<text text-anchor="start" x="824.0" y="506.75" fill="#808080" style="font-size:18px">c<tspan style="font-size:80%;baseline-shift:sub;">i</tspan></text>
<text text-anchor="end" x="876.0" y="466.75" fill="#808080" style="font-size:18px">s</text>
<text text-anchor="end" x="876.0" y="486.75" fill="#808080" style="font-size:18px">c<tspan style="font-size:80%;baseline-shift:sub;">o</tspan></text>
<text text-anchor="middle" x="850.0" y="527.5" fill="#808080" style="font-size:18px">Add</text>
<circle cx="820.0" cy="460.0" r="2.0" stroke="#0000b2" stroke-width="4.0" fill="#0000b2" />
<circle cx="820.0" cy="480.0" r="2.0" stroke="#0000b2" stroke-width="4.0" fill="#0000b2" />
<circle cx="820.0" cy="500.0" r="2.0" stroke="#0000b2" stroke-width="4.0" fill="#0000b2" />
<circle cx="880.0" cy="460.0" r="2.0" stroke="#b20000" stroke-width="4.0" fill="#b20000" />
<circle cx="880.0" cy="480.0" r="2.0" stroke="#b20000" stroke-width="4.0" fill="#b20000" />
</g>
<g>
<path d="M 821,590 L 879,590 L 879,650 L 821,650 Z" stroke="#000000" stroke-width="4.0" fill="none"/>
<text text-anchor="start" x="824.0" y="606.75" fill="#808080" style="font-size:18px">a</text>
<text text-anchor="start" x="824.0" y="626.75" fill="#808080" style="font-size:18px">b</text>
<text text-anchor="start" x="824.0" y="646.75" fill="#808080" style="font-size:18px">c<tspan style="font-size:80%;baseline-shift:sub;">i</tspan></text>
<text text-anchor="end" x="876.0" y="606.75" fill="#808080" style="font-size:18px">s</text>
<text text-anchor="end" x="876.0" y="626.75" fill="#808080" style="font-size:18px">c<tspan style="font-size:80%;baseline-shift:sub;">o</tspan></text>
<text text-anchor="middle" x="850.0" y="667.5" fill="#808080" style="font-size:18px">Add</text>
<circle cx="820.0" cy="600.0" r="2.0" stroke="#0000b2" stroke-width="4.0" fill="#0000b2" />
<circle cx="820.0" cy="620.0" r="2.0" stroke="#0000b2" stroke-width="4.0" fill="#0000b2" />
<circle cx="820.0" cy="640.0" r="2.0" stroke="#0000b2" stroke-width="4.0" fill="#0000b2" />
<circle cx="880.0" cy="600.0" r="2.0" stroke="#b20000" stroke-width="4.0" fill="#b20000" />
<circle cx="880.0" cy="620.0" r="2.0" stroke="#b20000" stroke-width="4.0" fill="#b20000" />
</g>
<g>
<circle cx="956.0" cy="600.0" r="9.0" stroke="#000000" stroke-width="4.0" fill="none" />
<circle cx="956.0" cy="600.0" r="15.0" stroke="#000000" stroke-width="4.0" fill="none" />
<text text-anchor="start" x="985.0" y="609.0" fill="#000000" style="font-size:24px"><tspan style="font-style:italic;">P<tspan style="font-size:80%;baseline-shift:sub;">0</tspan></tspan></text>
<circle cx="940.0" cy="600.0" r="2.0" stroke="#0000b2" stroke-width="4.0" fill="#0000b2" />
</g>
<g>
<circle cx="956.0" cy="460.0" r="9.0" stroke="#000000" stroke-width="4.0" fill="none" />
<circle cx="956.0" cy="460.0" r="15.0" stroke="#000000" stroke-width="4.0" fill="none" />
<text text-anchor="start" x="985.0" y="469.0" fill="#000000" style="font-size:24px"><tspan style="font-style:italic;">P<tspan style="font-size:80%;baseline-shift:sub;">1</tspan></tspan></text>
<circle cx="940.0" cy="460.0" r="2.0" stroke="#0000b2" stroke-width="4.0" fill="#0000b2" />
</g>
<g>
<circle cx="956.0" cy="320.0" r="9.0" stroke="#000000" stroke-width="4.0" fill="none" />
<circle cx="956.0" cy="320.0" r="15.0" stroke="#000000" stroke-width="4.0" fill="none" />
<text text-anchor="start" x="985.0" y="329.0" fill="#000000" style="font-size:24px"><tspan style="font-style:italic;">P<tspan style="font-size:80%;baseline-shift:sub;">2</tspan></tspan></text>
<circle cx="940.0" cy="320.0" r="2.0" stroke="#0000b2" stroke-width="4.0" fill="#0000b2" />
</g>
<g>
<circle cx="956.0" cy="180.0" r="9.0" stroke="#000000" stroke-width="4.0" fill="none" />
<circle cx="956.0" cy="180.0" r="15.0" stroke="#000000" stroke-width="4.0" fill="none" />
<text text-anchor="start" x="985.0" y="189.0" fill="#000000" style="font-size:24px"><tspan style="font-style:italic;">P<tspan style="font-size:80%;baseline-shift:sub;">3</tspan></tspan></text>
<circle cx="940.0" cy="180.0" r="2.0" stroke="#0000b2" stroke-width="4.0" fill="#0000b2" />
</g>
<g>
<circle cx="956.0" cy="100.0" r="9.0" stroke="#000000" stroke-width="4.0" fill="none" />
<circle cx="956.0" cy="100.0" r="15.0" stroke="#000000" stroke-width="4.0" fill="none" />
<text text-anchor="start" x="985.0" y="109.0" fill="#000000" style="font-size:24px"><tspan style="font-style:italic;">P<tspan style="font-size:80%;baseline-shift:sub;">4</tspan></tspan></text>
<circle cx="940.0" cy="100.0" r="2.0" stroke="#0000b2" stroke-width="4.0" fill="#0000b2" />
</g>
<g>
<text text-anchor="end" x="777.0" y="649.0" fill="#000000" style="font-size:24px">0</text>
<circle cx="780.0" cy="640.0" r="2.0" stroke="#b20000" stroke-width="4.0" fill="#b20000" />
</g>
<g>
<path d="M 229,605 L 259,605 L 259,635 L 229,635 Z" stroke="#000000" stroke-width="4.0" fill="none"/>
<circle cx="244.0" cy="620.0" r="9.0" stroke="#000000" stroke-width="4.0" fill="none" />
<text text-anchor="end" x="215.0" y="629.0" fill="#000000" style="font-size:24px"><tspan style="font-style:italic;">z<tspan style="font-size:80%;baseline-shift:sub;">0</tspan></tspan></text>
<circle cx="260.0" cy="620.0" r="2.0" stroke="#b20000" stroke-width="4.0" fill="#b20000" />
</g>
<g>
<path d="M 229,505 L 259,505 L 259,535 L 229,535 Z" stroke="#000000" stroke-width="4.0" fill="none"/>
<circle cx="244.0" cy="520.0" r="9.0" stroke="#000000" stroke-width="4.0" fill="none" />
<text text-anchor="end" x="215.0" y="529.0" fill="#000000" style="font-size:24px"><tspan style="font-style:italic;">z<tspan style="font-size:80%;baseline-shift:sub;">1</tspan></tspan></text>
<circle cx="260.0" cy="520.0" r="2.0" stroke="#b20000" stroke-width="4.0" fill="#b20000" />
</g>
<g>
<path d="M 229,405 L 259,405 L 259,435 L 229,435 Z" stroke="#000000" stroke-width="4.0" fill="none"/>
<circle cx="244.0" cy="420.0" r="9.0" stroke="#000000" stroke-width="4.0" fill="none" />
<text text-anchor="end" x="215.0" y="429.0" fill="#000000" style="font-size:24px"><tspan style="font-style:italic;">y<tspan style="font-size:80%;baseline-shift:sub;">0</tspan></tspan></text>
<circle cx="260.0" cy="420.0" r="2.0" stroke="#b20000" stroke-width="4.0" fill="#b20000" />
</g>
<g>
<path d="M 229,305 L 259,305 L 259,335 L 229,335 Z" stroke="#000000" stroke-width="4.0" fill="none"/>
<circle cx="244.0" cy="320.0" r="9.0" stroke="#000000" stroke-width="4.0" fill="none" />
<text text-anchor="end" x="215.0" y="329.0" fill="#000000" style="font-size:24px"><tspan style="font-style:italic;">y<tspan style="font-size:80%;baseline-shift:sub;">1</tspan></tspan></text>
<circle cx="260.0" cy="320.0" r="2.0" stroke="#b20000" stroke-width="4.0" fill="#b20000" />
</g>
<g>
<path d="M 229,205 L 259,205 L 259,235 L 229,235 Z" stroke="#000000" stroke-width="4.0" fill="none"/>
<circle cx="244.0" cy="220.0" r="9.0" stroke="#000000" stroke-width="4.0" fill="none" />
<text text-anchor="end" x="215.0" y="229.0" fill="#000000" style="font-size:24px"><tspan style="font-style:italic;">y<tspan style="font-size:80%;baseline-shift:sub;">2</tspan></tspan></text>
<circle cx="260.0" cy="220.0" r="2.0" stroke="#b20000" stroke-width="4.0" fill="#b20000" />
</g>
</g>
</svg>