<?xml version="1.0" encoding="UTF-8" standalone="no"?>
<!-- Created with Digital by H.Neemann -->
<!-- created: Sat Mar 05 09:58:22 EST 2022 -->

<svg
   xmlns:svg="http://www.w3.org/2000/svg"
   xmlns="http://www.w3.org/2000/svg"
   width="54.0mm"
   height="63.3mm"
   viewBox="297 163 360 422">
<g stroke-linecap="square">
<path d="M 560,460 L 560,450 L 560,440" stroke="#000000" stroke-width="4.0" fill="none"/>
<path d="M 580,460 L 580,450" stroke="#000000" stroke-width="4.0" fill="none"/>
<path d="M 600,460 L 600,450" stroke="#000000" stroke-width="4.0" fill="none"/>
<path d="M 600,460 L 600,480 L 640,480 L 640,520" stroke="#0000b2" stroke-width="4.0" fill="none"/>
<path d="M 340,240 L 520,240 L 540,240" stroke="#0000b2" stroke-width="4.0" fill="none"/>
<path d="M 500,300 L 500,320 L 540,320" stroke="#0000b2" stroke-width="4.0" fill="none"/>
<path d="M 360,180 L 400,180 L 420,180" stroke="#0000b2" stroke-width="4.0" fill="none"/>
<path d="M 460,180 L 480,180 L 480,280 L 540,280" stroke="#0000b2" stroke-width="4.0" fill="none"/>
<path d="M 580,460 L 580,500 L 600,500 L 600,520" stroke="#0000b2" stroke-width="4.0" fill="none"/>
<path d="M 400,180 L 400,260 L 540,260" stroke="#0000b2" stroke-width="4.0" fill="none"/>
<path d="M 480,280 L 480,340 L 540,340" stroke="#0000b2" stroke-width="4.0" fill="none"/>
<path d="M 400,260 L 400,360 L 540,360" stroke="#0000b2" stroke-width="4.0" fill="none"/>
<path d="M 520,240 L 520,380 L 540,380" stroke="#0000b2" stroke-width="4.0" fill="none"/>
<path d="M 340,300 L 500,300 L 540,300" stroke="#0000b2" stroke-width="4.0" fill="none"/>
<path d="M 560,400 L 560,440" stroke="#0000b2" stroke-width="4.0" fill="none"/>
<path d="M 560,460 L 560,520" stroke="#0000b2" stroke-width="4.0" fill="none"/>
<g>
<circle cx="520.0" cy="240.0" r="4.0" stroke="#0000b2" stroke-width="4.0" fill="#0000b2" />
<circle cx="400.0" cy="180.0" r="4.0" stroke="#0000b2" stroke-width="4.0" fill="#0000b2" />
<circle cx="400.0" cy="260.0" r="4.0" stroke="#0000b2" stroke-width="4.0" fill="#0000b2" />
<circle cx="480.0" cy="280.0" r="4.0" stroke="#0000b2" stroke-width="4.0" fill="#0000b2" />
<circle cx="500.0" cy="300.0" r="4.0" stroke="#0000b2" stroke-width="4.0" fill="#0000b2" />
</g>
<g>
<path d="M 541,236 L 579,245 L 579,395 L 541,404 Z" stroke="#000000" stroke-width="4.0" fill="none"/>
<text text-anchor="start" x="543.0" y="255.5" fill="#808080" style="font-size:18px">0</text>
<circle cx="560.0" cy="400.0" r="2.0" stroke="#0000b2" stroke-width="4.0" fill="#0000b2" />
<circle cx="540.0" cy="240.0" r="2.0" stroke="#0000b2" stroke-width="4.0" fill="#0000b2" />
<circle cx="540.0" cy="260.0" r="2.0" stroke="#0000b2" stroke-width="4.0" fill="#0000b2" />
<circle cx="540.0" cy="280.0" r="2.0" stroke="#0000b2" stroke-width="4.0" fill="#0000b2" />
<circle cx="540.0" cy="300.0" r="2.0" stroke="#0000b2" stroke-width="4.0" fill="#0000b2" />
<circle cx="540.0" cy="320.0" r="2.0" stroke="#0000b2" stroke-width="4.0" fill="#0000b2" />
<circle cx="540.0" cy="340.0" r="2.0" stroke="#0000b2" stroke-width="4.0" fill="#0000b2" />
<circle cx="540.0" cy="360.0" r="2.0" stroke="#0000b2" stroke-width="4.0" fill="#0000b2" />
<circle cx="540.0" cy="380.0" r="2.0" stroke="#0000b2" stroke-width="4.0" fill="#0000b2" />
<circle cx="580.0" cy="320.0" r="2.0" stroke="#b20000" stroke-width="4.0" fill="#b20000" />
</g>
<g>
<text text-anchor="end" x="337.0" y="249.0" fill="#000000" style="font-size:24px">1</text>
<circle cx="340.0" cy="240.0" r="2.0" stroke="#b20000" stroke-width="4.0" fill="#b20000" />
</g>
<g>
<text text-anchor="end" x="557.0" y="462.0" fill="#808080" style="font-size:12px" transform="rotate(-90,557.0,462.0)" >0</text>
<text text-anchor="end" x="577.0" y="462.0" fill="#808080" style="font-size:12px" transform="rotate(-90,577.0,462.0)" >1</text>
<text text-anchor="end" x="597.0" y="462.0" fill="#808080" style="font-size:12px" transform="rotate(-90,597.0,462.0)" >2</text>
<text text-anchor="start" x="557.0" y="438.0" fill="#808080" style="font-size:12px" transform="rotate(-90,557.0,438.0)" >0-2</text>
<path d="M 558,452 L 558,448 L 602,448 L 602,452 Z" stroke="#000000" stroke-width="4.0" fill="#000000" fill-opacity="1.0"/>
<circle cx="560.0" cy="460.0" r="2.0" stroke="#0000b2" stroke-width="4.0" fill="#0000b2" />
<circle cx="580.0" cy="460.0" r="2.0" stroke="#0000b2" stroke-width="4.0" fill="#0000b2" />
<circle cx="600.0" cy="460.0" r="2.0" stroke="#0000b2" stroke-width="4.0" fill="#0000b2" />
<circle cx="560.0" cy="440.0" r="2.0" stroke="#b20000" stroke-width="4.0" fill="#b20000" />
</g>
<g>
<path d="M 421,168 L 439,180 L 421,192 Z" stroke="#000000" stroke-width="4.0" fill="none"/>
<circle cx="450.0" cy="180.0" r="9.0" stroke="#000000" stroke-width="4.0" fill="none" />
<circle cx="420.0" cy="180.0" r="2.0" stroke="#0000b2" stroke-width="4.0" fill="#0000b2" />
<circle cx="460.0" cy="180.0" r="2.0" stroke="#b20000" stroke-width="4.0" fill="#b20000" />
</g>
<g>
<path d="M 329,165 L 359,165 L 359,195 L 329,195 Z" stroke="#000000" stroke-width="4.0" fill="none"/>
<circle cx="344.0" cy="180.0" r="9.0" stroke="#000000" stroke-width="4.0" fill="none" />
<text text-anchor="end" x="315.0" y="189.0" fill="#000000" style="font-size:24px"><tspan style="font-style:italic;">A</tspan></text>
<circle cx="360.0" cy="180.0" r="2.0" stroke="#b20000" stroke-width="4.0" fill="#b20000" />
</g>
<g>
<path d="M 545,551 L 545,521 L 575,521 L 575,551 Z" stroke="#000000" stroke-width="4.0" fill="none"/>
<circle cx="560.0" cy="536.0" r="9.0" stroke="#000000" stroke-width="4.0" fill="none" />
<text text-anchor="end" x="560.0" y="574.0" fill="#000000" style="font-size:24px" transform="rotate(-90,560.0,565.0)" ><tspan style="font-style:italic;">B</tspan></text>
<circle cx="560.0" cy="520.0" r="2.0" stroke="#b20000" stroke-width="4.0" fill="#b20000" />
</g>
<g>
<path d="M 585,551 L 585,521 L 615,521 L 615,551 Z" stroke="#000000" stroke-width="4.0" fill="none"/>
<circle cx="600.0" cy="536.0" r="9.0" stroke="#000000" stroke-width="4.0" fill="none" />
<text text-anchor="end" x="600.0" y="574.0" fill="#000000" style="font-size:24px" transform="rotate(-90,600.0,565.0)" ><tspan style="font-style:italic;">C</tspan></text>
<circle cx="600.0" cy="520.0" r="2.0" stroke="#b20000" stroke-width="4.0" fill="#b20000" />
</g>
<g>
<path d="M 625,551 L 625,521 L 655,521 L 655,551 Z" stroke="#000000" stroke-width="4.0" fill="none"/>
<circle cx="640.0" cy="536.0" r="9.0" stroke="#000000" stroke-width="4.0" fill="none" />
<text text-anchor="end" x="640.0" y="574.0" fill="#000000" style="font-size:24px" transform="rotate(-90,640.0,565.0)" ><tspan style="font-style:italic;">D</tspan></text>
<circle cx="640.0" cy="520.0" r="2.0" stroke="#b20000" stroke-width="4.0" fill="#b20000" />
</g>
<g>
<text text-anchor="end" x="337.0" y="309.0" fill="#000000" style="font-size:24px">0</text>
<circle cx="340.0" cy="300.0" r="2.0" stroke="#b20000" stroke-width="4.0" fill="#b20000" />
</g>
</g>
</svg>