<?xml version="1.0" encoding="UTF-8" standalone="no"?>
<!-- Created with Digital by H.Neemann -->
<!-- created: Tue Jan 25 08:21:11 EST 2022 -->

<svg
   xmlns:svg="http://www.w3.org/2000/svg"
   xmlns="http://www.w3.org/2000/svg"
   width="92.85mm"
   height="87.9mm"
   viewBox="-177 -154 619 586">
<g stroke-linecap="square">
<path d="M -160,-100 L -160,0 L 20,0" stroke="#0000b2" stroke-width="4.0" fill="none"/>
<path d="M 100,160 L 120,160 L 120,180 L 140,180 L 144,180" stroke="#0000b2" stroke-width="4.0" fill="none"/>
<path d="M 100,320 L 360,320" stroke="#0000b2" stroke-width="4.0" fill="none"/>
<path d="M -40,80 L -40,260 L 20,260" stroke="#0000b2" stroke-width="4.0" fill="none"/>
<path d="M -100,40 L -100,420 L 20,420" stroke="#0000b2" stroke-width="4.0" fill="none"/>
<path d="M -100,-80 L -100,40 L 20,40" stroke="#0000b2" stroke-width="4.0" fill="none"/>
<path d="M 220,200 L 280,200" stroke="#0000b2" stroke-width="4.0" fill="none"/>
<path d="M 340,200 L 440,200 L 440,-80 L -40,-80 L -40,80 L 140,80 L 144,80" stroke="#0000b2" stroke-width="4.0" fill="none"/>
<path d="M 260,0 L 260,80 L 280,80" stroke="#0000b2" stroke-width="4.0" fill="none"/>
<path d="M 100,240 L 120,240 L 120,220 L 140,220 L 144,220" stroke="#0000b2" stroke-width="4.0" fill="none"/>
<path d="M 100,400 L 360,400" stroke="#0000b2" stroke-width="4.0" fill="none"/>
<path d="M 100,20 L 120,20 L 120,40 L 140,40 L 144,40" stroke="#0000b2" stroke-width="4.0" fill="none"/>
<path d="M -80,-20 L -80,180 L 20,180" stroke="#0000b2" stroke-width="4.0" fill="none"/>
<path d="M -80,180 L -80,340 L 20,340" stroke="#0000b2" stroke-width="4.0" fill="none"/>
<path d="M 220,60 L 280,60" stroke="#0000b2" stroke-width="4.0" fill="none"/>
<path d="M 340,60 L 420,60 L 420,-140 L -100,-140 L -100,-80 L -80,-80 L -80,-60" stroke="#0000b2" stroke-width="4.0" fill="none"/>
<path d="M 260,80 L 260,220 L 280,220" stroke="#0000b2" stroke-width="4.0" fill="none"/>
<path d="M 20,300 L -40,300 L -40,380 L 20,380" stroke="#0000b2" stroke-width="4.0" fill="none"/>
<path d="M -40,260 L -40,300" stroke="#0000b2" stroke-width="4.0" fill="none"/>
<path d="M 20,140 L -160,140 L -160,220 L 20,220" stroke="#0000b2" stroke-width="4.0" fill="none"/>
<path d="M -160,0 L -160,140" stroke="#0000b2" stroke-width="4.0" fill="none"/>
<g>
<circle cx="-160.0" cy="0.0" r="4.0" stroke="#0000b2" stroke-width="4.0" fill="#0000b2" />
<circle cx="-40.0" cy="260.0" r="4.0" stroke="#0000b2" stroke-width="4.0" fill="#0000b2" />
<circle cx="-100.0" cy="40.0" r="4.0" stroke="#0000b2" stroke-width="4.0" fill="#0000b2" />
<circle cx="-160.0" cy="140.0" r="4.0" stroke="#0000b2" stroke-width="4.0" fill="#0000b2" />
<circle cx="-40.0" cy="300.0" r="4.0" stroke="#0000b2" stroke-width="4.0" fill="#0000b2" />
<circle cx="-100.0" cy="-80.0" r="4.0" stroke="#0000b2" stroke-width="4.0" fill="#0000b2" />
<circle cx="-40.0" cy="80.0" r="4.0" stroke="#0000b2" stroke-width="4.0" fill="#0000b2" />
<circle cx="260.0" cy="80.0" r="4.0" stroke="#0000b2" stroke-width="4.0" fill="#0000b2" />
<circle cx="-80.0" cy="180.0" r="4.0" stroke="#0000b2" stroke-width="4.0" fill="#0000b2" />
</g>
<g>
<path d="M 281,50 L 339,50 L 339,90 L 281,90 Z" stroke="#000000" stroke-width="4.0" fill="none"/>
<text text-anchor="middle" x="310.0" y="42.0" fill="#000000" style="font-size:24px">Z<tspan style="font-size:80%;baseline-shift:sub;">1</tspan><tspan style="font-size:80%;baseline-shift:super;">n</tspan></text>
<text text-anchor="start" x="284.0" y="66.75" fill="#808080" style="font-size:18px">D</text>
<path d="M 281,87 L 288,80 L 281,73" stroke="#000000" stroke-width="2.0" fill="none"/>
<text text-anchor="start" x="291.0" y="86.75" fill="#808080" style="font-size:18px">C</text>
<text text-anchor="end" x="336.0" y="66.75" fill="#808080" style="font-size:18px">Q</text>
<text text-anchor="end" x="336.0" y="86.75" fill="#808080" style="font-size:18px"><tspan style="text-decoration:overline;">Q</tspan></text>
<text text-anchor="middle" x="310.0" y="107.5" fill="#808080" style="font-size:18px">D</text>
<circle cx="280.0" cy="60.0" r="2.0" stroke="#0000b2" stroke-width="4.0" fill="#0000b2" />
<circle cx="280.0" cy="80.0" r="2.0" stroke="#0000b2" stroke-width="4.0" fill="#0000b2" />
<circle cx="340.0" cy="60.0" r="2.0" stroke="#b20000" stroke-width="4.0" fill="#b20000" />
<circle cx="340.0" cy="80.0" r="2.0" stroke="#b20000" stroke-width="4.0" fill="#b20000" />
</g>
<g>
<path d="M 170,90 L 140,90 C 150,74 150,46 140,30 L 160,30 C 190,30 210,40 220,60 C 210,80 190,90 170,90 Z" stroke="#000000" stroke-width="4.0" fill="none"/>
<circle cx="140.0" cy="40.0" r="2.0" stroke="#0000b2" stroke-width="4.0" fill="#0000b2" />
<circle cx="140.0" cy="80.0" r="2.0" stroke="#0000b2" stroke-width="4.0" fill="#0000b2" />
<circle cx="220.0" cy="60.0" r="2.0" stroke="#b20000" stroke-width="4.0" fill="#b20000" />
</g>
<g>
<path d="M 70,50 L 21,50 L 21,-10 L 70,-10 C 80,-10 100,0 99,20 C 99,40 80,50 70,50 Z" stroke="#000000" stroke-width="4.0" fill="none"/>
<circle cx="20.0" cy="0.0" r="2.0" stroke="#0000b2" stroke-width="4.0" fill="#0000b2" />
<circle cx="20.0" cy="40.0" r="2.0" stroke="#0000b2" stroke-width="4.0" fill="#0000b2" />
<circle cx="100.0" cy="20.0" r="2.0" stroke="#b20000" stroke-width="4.0" fill="#b20000" />
</g>
<g>
<path d="M 281,190 L 339,190 L 339,230 L 281,230 Z" stroke="#000000" stroke-width="4.0" fill="none"/>
<text text-anchor="middle" x="310.0" y="182.0" fill="#000000" style="font-size:24px">Z<tspan style="font-size:80%;baseline-shift:sub;">0</tspan><tspan style="font-size:80%;baseline-shift:super;">n</tspan></text>
<text text-anchor="start" x="284.0" y="206.75" fill="#808080" style="font-size:18px">D</text>
<path d="M 281,227 L 288,220 L 281,213" stroke="#000000" stroke-width="2.0" fill="none"/>
<text text-anchor="start" x="291.0" y="226.75" fill="#808080" style="font-size:18px">C</text>
<text text-anchor="end" x="336.0" y="206.75" fill="#808080" style="font-size:18px">Q</text>
<text text-anchor="end" x="336.0" y="226.75" fill="#808080" style="font-size:18px"><tspan style="text-decoration:overline;">Q</tspan></text>
<text text-anchor="middle" x="310.0" y="247.5" fill="#808080" style="font-size:18px">D</text>
<circle cx="280.0" cy="200.0" r="2.0" stroke="#0000b2" stroke-width="4.0" fill="#0000b2" />
<circle cx="280.0" cy="220.0" r="2.0" stroke="#0000b2" stroke-width="4.0" fill="#0000b2" />
<circle cx="340.0" cy="200.0" r="2.0" stroke="#b20000" stroke-width="4.0" fill="#b20000" />
<circle cx="340.0" cy="220.0" r="2.0" stroke="#b20000" stroke-width="4.0" fill="#b20000" />
</g>
<g>
<path d="M 170,230 L 140,230 C 150,214 150,186 140,170 L 160,170 C 190,170 210,180 220,200 C 210,220 190,230 170,230 Z" stroke="#000000" stroke-width="4.0" fill="none"/>
<circle cx="140.0" cy="180.0" r="2.0" stroke="#0000b2" stroke-width="4.0" fill="#0000b2" />
<circle cx="140.0" cy="220.0" r="2.0" stroke="#0000b2" stroke-width="4.0" fill="#0000b2" />
<circle cx="220.0" cy="200.0" r="2.0" stroke="#b20000" stroke-width="4.0" fill="#b20000" />
</g>
<g>
<path d="M 70,190 L 21,190 L 21,130 L 70,130 C 80,130 100,140 99,160 C 99,180 80,190 70,190 Z" stroke="#000000" stroke-width="4.0" fill="none"/>
<circle cx="20.0" cy="140.0" r="2.0" stroke="#0000b2" stroke-width="4.0" fill="#0000b2" />
<circle cx="20.0" cy="180.0" r="2.0" stroke="#0000b2" stroke-width="4.0" fill="#0000b2" />
<circle cx="100.0" cy="160.0" r="2.0" stroke="#b20000" stroke-width="4.0" fill="#b20000" />
</g>
<g>
<path d="M 70,270 L 21,270 L 21,210 L 70,210 C 80,210 100,220 99,240 C 99,260 80,270 70,270 Z" stroke="#000000" stroke-width="4.0" fill="none"/>
<circle cx="20.0" cy="220.0" r="2.0" stroke="#0000b2" stroke-width="4.0" fill="#0000b2" />
<circle cx="20.0" cy="260.0" r="2.0" stroke="#0000b2" stroke-width="4.0" fill="#0000b2" />
<circle cx="100.0" cy="240.0" r="2.0" stroke="#b20000" stroke-width="4.0" fill="#b20000" />
</g>
<g>
<circle cx="376.0" cy="320.0" r="9.0" stroke="#000000" stroke-width="4.0" fill="none" />
<circle cx="376.0" cy="320.0" r="15.0" stroke="#000000" stroke-width="4.0" fill="none" />
<text text-anchor="start" x="405.0" y="329.0" fill="#000000" style="font-size:24px"><tspan style="font-style:italic;">S</tspan></text>
<circle cx="360.0" cy="320.0" r="2.0" stroke="#0000b2" stroke-width="4.0" fill="#0000b2" />
</g>
<g>
<path d="M 70,350 L 21,350 L 21,290 L 70,290 C 80,290 100,300 99,320 C 99,340 80,350 70,350 Z" stroke="#000000" stroke-width="4.0" fill="none"/>
<circle cx="20.0" cy="300.0" r="2.0" stroke="#0000b2" stroke-width="4.0" fill="#0000b2" />
<circle cx="20.0" cy="340.0" r="2.0" stroke="#0000b2" stroke-width="4.0" fill="#0000b2" />
<circle cx="100.0" cy="320.0" r="2.0" stroke="#b20000" stroke-width="4.0" fill="#b20000" />
</g>
<g>
<circle cx="376.0" cy="400.0" r="9.0" stroke="#000000" stroke-width="4.0" fill="none" />
<circle cx="376.0" cy="400.0" r="15.0" stroke="#000000" stroke-width="4.0" fill="none" />
<text text-anchor="start" x="405.0" y="409.0" fill="#000000" style="font-size:24px"><tspan style="font-style:italic;">U</tspan></text>
<circle cx="360.0" cy="400.0" r="2.0" stroke="#0000b2" stroke-width="4.0" fill="#0000b2" />
</g>
<g>
<path d="M 70,430 L 21,430 L 21,370 L 70,370 C 80,370 100,380 99,400 C 99,420 80,430 70,430 Z" stroke="#000000" stroke-width="4.0" fill="none"/>
<circle cx="20.0" cy="380.0" r="2.0" stroke="#0000b2" stroke-width="4.0" fill="#0000b2" />
<circle cx="20.0" cy="420.0" r="2.0" stroke="#0000b2" stroke-width="4.0" fill="#0000b2" />
<circle cx="100.0" cy="400.0" r="2.0" stroke="#b20000" stroke-width="4.0" fill="#b20000" />
</g>
<g>
<path d="M -145,-131 L -145,-101 L -175,-101 L -175,-131 Z" stroke="#000000" stroke-width="4.0" fill="none"/>
<circle cx="-160.0" cy="-116.0" r="9.0" stroke="#000000" stroke-width="4.0" fill="none" />
<text text-anchor="start" x="-160.0" y="-136.0" fill="#000000" style="font-size:24px" transform="rotate(-90,-160.0,-145.0)" ><tspan style="font-style:italic;">I</tspan></text>
<circle cx="-160.0" cy="-100.0" r="2.0" stroke="#b20000" stroke-width="4.0" fill="#b20000" />
</g>
<g>
<path d="M -68,-59 L -80,-41 L -92,-59 Z" stroke="#000000" stroke-width="4.0" fill="none"/>
<circle cx="-80.0" cy="-30.0" r="9.0" stroke="#000000" stroke-width="4.0" fill="none" />
<circle cx="-80.0" cy="-60.0" r="2.0" stroke="#0000b2" stroke-width="4.0" fill="#0000b2" />
<circle cx="-80.0" cy="-20.0" r="2.0" stroke="#b20000" stroke-width="4.0" fill="#b20000" />
</g>
<g>
<path d="M 275,-31 L 275,-1 L 245,-1 L 245,-31 Z" stroke="#000000" stroke-width="4.0" fill="none"/>
<text text-anchor="start" x="260.0" y="-36.0" fill="#000000" style="font-size:24px" transform="rotate(-90,260.0,-45.0)" ><tspan style="font-style:italic;">C</tspan></text>
<path d="M 255,-25 L 255,-20 L 265,-20 L 265,-15 L 255,-15 L 255,-10 L 265,-10 L 265,-5" stroke="#000000" stroke-width="2.0" fill="none"/>
<circle cx="260.0" cy="0.0" r="2.0" stroke="#b20000" stroke-width="4.0" fill="#b20000" />
</g>
</g>
</svg>