<?xml version="1.0" encoding="utf-8" standalone="no"?>
<!DOCTYPE svg PUBLIC "-//W3C//DTD SVG 1.1//EN"
  "http://www.w3.org/Graphics/SVG/1.1/DTD/svg11.dtd">
<svg xmlns:xlink="http://www.w3.org/1999/xlink" width="123.7236pt" height="63.7pt" viewBox="0 0 123.7236 63.7" xmlns="http://www.w3.org/2000/svg" version="1.1">
 <metadata>
  <rdf:RDF xmlns:dc="http://purl.org/dc/elements/1.1/" xmlns:cc="http://creativecommons.org/ns#" xmlns:rdf="http://www.w3.org/1999/02/22-rdf-syntax-ns#">
   <cc:Work>
    <dc:type rdf:resource="http://purl.org/dc/dcmitype/StillImage"/>
    <dc:date>2022-01-12T16:08:34.372630</dc:date>
    <dc:format>image/svg+xml</dc:format>
    <dc:creator>
     <cc:Agent>
      <dc:title>Matplotlib v3.5.1, https://matplotlib.org/</dc:title>
     </cc:Agent>
    </dc:creator>
   </cc:Work>
  </rdf:RDF>
 </metadata>
 <defs>
  <style type="text/css">*{stroke-linejoin: round; stroke-linecap: butt}</style>
 </defs>
 <g id="figure_1">
  <g id="patch_1">
   <path d="M 0 63.7 
L 123.7236 63.7 
L 123.7236 0 
L 0 0 
L 0 63.7 
z
" style="fill: none"/>
  </g>
  <g id="axes_1">
   <g id="line2d_1">
    <path d="M 42.7368 49.904 
L 59.785371 49.804082 
L 61.533943 49.504327 
L 63.282514 49.004735 
L 65.031086 48.305306 
L 66.779657 47.406041 
L 68.965371 46.000939 
L 71.151086 44.283592 
L 73.3368 42.254 
L 75.522514 39.912163 
L 77.708229 37.258082 
L 79.4568 34.91 
L 79.4568 34.91 
L 76.833943 31.462816 
L 74.648229 28.933633 
L 72.462514 26.716694 
L 70.2768 24.812 
L 68.091086 23.219551 
L 65.905371 21.939347 
L 64.1568 21.14 
L 62.408229 20.54049 
L 60.659657 20.140816 
L 58.911086 19.94098 
L 58.0368 19.916 
L 42.7368 19.916 
L 42.7368 19.916 
L 44.94 22.364 
L 46.33536 24.2 
L 47.5104 26.036 
L 48.46512 27.872 
L 49.19952 29.708 
L 49.7136 31.544 
L 50.00736 33.38 
L 50.0808 35.216 
L 49.93392 37.052 
L 49.56672 38.888 
L 48.9792 40.724 
L 48.17136 42.56 
L 47.1432 44.396 
L 45.89472 46.232 
L 44.42592 48.068 
L 42.7368 49.904 
L 42.7368 49.904 
" clip-path="url(#pbc677bc50f)" style="fill: none; stroke: #000000; stroke-width: 2; stroke-linecap: round"/>
   </g>
   <g id="line2d_2">
    <path d="M 38.1468 49.904 
L 38.73432 49.292 
L 39.29736 48.68 
L 39.83592 48.068 
L 40.35 47.456 
L 40.8396 46.844 
L 41.30472 46.232 
L 41.74536 45.62 
L 42.16152 45.008 
L 42.5532 44.396 
L 42.9204 43.784 
L 43.26312 43.172 
L 43.58136 42.56 
L 43.87512 41.948 
L 44.1444 41.336 
L 44.3892 40.724 
L 44.60952 40.112 
L 44.80536 39.5 
L 44.97672 38.888 
L 45.1236 38.276 
L 45.246 37.664 
L 45.34392 37.052 
L 45.41736 36.44 
L 45.46632 35.828 
L 45.4908 35.216 
L 45.4908 34.604 
L 45.46632 33.992 
L 45.41736 33.38 
L 45.34392 32.768 
L 45.246 32.156 
L 45.1236 31.544 
L 44.97672 30.932 
L 44.80536 30.32 
L 44.60952 29.708 
L 44.3892 29.096 
L 44.1444 28.484 
L 43.87512 27.872 
L 43.58136 27.26 
L 43.26312 26.648 
L 42.9204 26.036 
L 42.5532 25.424 
L 42.16152 24.812 
L 41.74536 24.2 
L 41.30472 23.588 
L 40.8396 22.976 
L 40.35 22.364 
L 39.83592 21.752 
L 39.29736 21.14 
L 38.73432 20.528 
L 38.1468 19.916 
" clip-path="url(#pbc677bc50f)" style="fill: none; stroke: #000000; stroke-width: 2; stroke-linecap: round"/>
   </g>
   <g id="line2d_3">
    <path d="M 27.4368 42.56 
L 43.58136 42.56 
" clip-path="url(#pbc677bc50f)" style="fill: none; stroke: #000000; stroke-width: 2; stroke-linecap: round"/>
   </g>
   <g id="line2d_4">
    <path d="M 27.4368 27.26 
L 43.58136 27.26 
" clip-path="url(#pbc677bc50f)" style="fill: none; stroke: #000000; stroke-width: 2; stroke-linecap: round"/>
   </g>
   <g id="line2d_5">
    <path d="M 27.4368 34.91 
M 79.4568 34.91 
L 90.1668 34.91 
" clip-path="url(#pbc677bc50f)" style="fill: none; stroke: #000000; stroke-width: 2; stroke-linecap: round"/>
   </g>
   <g id="text_1">
    <g clip-path="url(#pbc677bc50f)">
     <!-- S -->
     <g transform="translate(93.2268 38.359219)scale(0.125 -0.125)">
      <defs>
       <path id="DejaVuSans-53" d="M 3425 4513 
L 3425 3897 
Q 3066 4069 2747 4153 
Q 2428 4238 2131 4238 
Q 1616 4238 1336 4038 
Q 1056 3838 1056 3469 
Q 1056 3159 1242 3001 
Q 1428 2844 1947 2747 
L 2328 2669 
Q 3034 2534 3370 2195 
Q 3706 1856 3706 1288 
Q 3706 609 3251 259 
Q 2797 -91 1919 -91 
Q 1588 -91 1214 -16 
Q 841 59 441 206 
L 441 856 
Q 825 641 1194 531 
Q 1563 422 1919 422 
Q 2459 422 2753 634 
Q 3047 847 3047 1241 
Q 3047 1584 2836 1778 
Q 2625 1972 2144 2069 
L 1759 2144 
Q 1053 2284 737 2584 
Q 422 2884 422 3419 
Q 422 4038 858 4394 
Q 1294 4750 2059 4750 
Q 2388 4750 2728 4690 
Q 3069 4631 3425 4513 
z
" transform="scale(0.015625)"/>
      </defs>
      <use xlink:href="#DejaVuSans-53"/>
     </g>
    </g>
   </g>
   <g id="text_2">
    <g clip-path="url(#pbc677bc50f)">
     <!-- A -->
     <g transform="translate(15.826019 30.709219)scale(0.125 -0.125)">
      <defs>
       <path id="DejaVuSans-41" d="M 2188 4044 
L 1331 1722 
L 3047 1722 
L 2188 4044 
z
M 1831 4666 
L 2547 4666 
L 4325 0 
L 3669 0 
L 3244 1197 
L 1141 1197 
L 716 0 
L 50 0 
L 1831 4666 
z
" transform="scale(0.015625)"/>
      </defs>
      <use xlink:href="#DejaVuSans-41"/>
     </g>
    </g>
   </g>
   <g id="text_3">
    <g clip-path="url(#pbc677bc50f)">
     <!-- B -->
     <g transform="translate(15.800628 46.009219)scale(0.125 -0.125)">
      <defs>
       <path id="DejaVuSans-42" d="M 1259 2228 
L 1259 519 
L 2272 519 
Q 2781 519 3026 730 
Q 3272 941 3272 1375 
Q 3272 1813 3026 2020 
Q 2781 2228 2272 2228 
L 1259 2228 
z
M 1259 4147 
L 1259 2741 
L 2194 2741 
Q 2656 2741 2882 2914 
Q 3109 3088 3109 3444 
Q 3109 3797 2882 3972 
Q 2656 4147 2194 4147 
L 1259 4147 
z
M 628 4666 
L 2241 4666 
Q 2963 4666 3353 4366 
Q 3744 4066 3744 3513 
Q 3744 3084 3544 2831 
Q 3344 2578 2956 2516 
Q 3422 2416 3680 2098 
Q 3938 1781 3938 1306 
Q 3938 681 3513 340 
Q 3088 0 2303 0 
L 628 0 
L 628 4666 
z
" transform="scale(0.015625)"/>
      </defs>
      <use xlink:href="#DejaVuSans-42"/>
     </g>
    </g>
   </g>
  </g>
 </g>
 <defs>
  <clipPath id="pbc677bc50f">
   <rect x="7.2" y="7.2" width="109.3236" height="49.3"/>
  </clipPath>
 </defs>
</svg>
