<?xml version="1.0" encoding="utf-8" standalone="no"?>
<!DOCTYPE svg PUBLIC "-//W3C//DTD SVG 1.1//EN"
  "http://www.w3.org/Graphics/SVG/1.1/DTD/svg11.dtd">
<svg xmlns:xlink="http://www.w3.org/1999/xlink" width="258.0882pt" height="287.998pt" viewBox="0 0 258.0882 287.998" xmlns="http://www.w3.org/2000/svg" version="1.1">
 <metadata>
  <rdf:RDF xmlns:dc="http://purl.org/dc/elements/1.1/" xmlns:cc="http://creativecommons.org/ns#" xmlns:rdf="http://www.w3.org/1999/02/22-rdf-syntax-ns#">
   <cc:Work>
    <dc:type rdf:resource="http://purl.org/dc/dcmitype/StillImage"/>
    <dc:date>2022-01-18T14:37:25.620289</dc:date>
    <dc:format>image/svg+xml</dc:format>
    <dc:creator>
     <cc:Agent>
      <dc:title>Matplotlib v3.5.1, https://matplotlib.org/</dc:title>
     </cc:Agent>
    </dc:creator>
   </cc:Work>
  </rdf:RDF>
 </metadata>
 <defs>
  <style type="text/css">*{stroke-linejoin: round; stroke-linecap: butt}</style>
 </defs>
 <g id="figure_1">
  <g id="patch_1">
   <path d="M 0 287.998 
L 258.0882 287.998 
L 258.0882 0 
L 0 0 
L 0 287.998 
z
" style="fill: none"/>
  </g>
  <g id="axes_1">
   <g id="patch_2">
    <path d="M 76.1928 30.932 
C 77.166626 30.932 78.100697 30.545095 78.789296 29.856496 
C 79.477895 29.167897 79.8648 28.233826 79.8648 27.26 
C 79.8648 26.286174 79.477895 25.352103 78.789296 24.663504 
C 78.100697 23.974905 77.166626 23.588 76.1928 23.588 
C 75.218974 23.588 74.284903 23.974905 73.596304 24.663504 
C 72.907705 25.352103 72.5208 26.286174 72.5208 27.26 
C 72.5208 28.233826 72.907705 29.167897 73.596304 29.856496 
C 74.284903 30.545095 75.218974 30.932 76.1928 30.932 
L 76.1928 30.932 
z
" clip-path="url(#p19f89ecdff)" style="fill: none; stroke: #000000; stroke-width: 2; stroke-linejoin: miter"/>
   </g>
   <g id="patch_3">
    <path d="M 76.1928 53.882 
C 77.166626 53.882 78.100697 53.495095 78.789296 52.806496 
C 79.477895 52.117897 79.8648 51.183826 79.8648 50.21 
C 79.8648 49.236174 79.477895 48.302103 78.789296 47.613504 
C 78.100697 46.924905 77.166626 46.538 76.1928 46.538 
C 75.218974 46.538 74.284903 46.924905 73.596304 47.613504 
C 72.907705 48.302103 72.5208 49.236174 72.5208 50.21 
C 72.5208 51.183826 72.907705 52.117897 73.596304 52.806496 
C 74.284903 53.495095 75.218974 53.882 76.1928 53.882 
L 76.1928 53.882 
z
" clip-path="url(#p19f89ecdff)" style="fill: none; stroke: #000000; stroke-width: 2; stroke-linejoin: miter"/>
   </g>
   <g id="patch_4">
    <path d="M 76.1928 99.782 
C 77.166626 99.782 78.100697 99.395095 78.789296 98.706496 
C 79.477895 98.017897 79.8648 97.083826 79.8648 96.11 
C 79.8648 95.136174 79.477895 94.202103 78.789296 93.513504 
C 78.100697 92.824905 77.166626 92.438 76.1928 92.438 
C 75.218974 92.438 74.284903 92.824905 73.596304 93.513504 
C 72.907705 94.202103 72.5208 95.136174 72.5208 96.11 
C 72.5208 97.083826 72.907705 98.017897 73.596304 98.706496 
C 74.284903 99.395095 75.218974 99.782 76.1928 99.782 
L 76.1928 99.782 
z
" clip-path="url(#p19f89ecdff)" style="fill: none; stroke: #000000; stroke-width: 2; stroke-linejoin: miter"/>
   </g>
   <g id="patch_5">
    <path d="M 76.1928 145.682 
C 77.166626 145.682 78.100697 145.295095 78.789296 144.606496 
C 79.477895 143.917897 79.8648 142.983826 79.8648 142.01 
C 79.8648 141.036174 79.477895 140.102103 78.789296 139.413504 
C 78.100697 138.724905 77.166626 138.338 76.1928 138.338 
C 75.218974 138.338 74.284903 138.724905 73.596304 139.413504 
C 72.907705 140.102103 72.5208 141.036174 72.5208 142.01 
C 72.5208 142.983826 72.907705 143.917897 73.596304 144.606496 
C 74.284903 145.295095 75.218974 145.682 76.1928 145.682 
L 76.1928 145.682 
z
" clip-path="url(#p19f89ecdff)" style="fill: none; stroke: #000000; stroke-width: 2; stroke-linejoin: miter"/>
   </g>
   <g id="patch_6">
    <path d="M 76.1928 191.582 
C 77.166626 191.582 78.100697 191.195095 78.789296 190.506496 
C 79.477895 189.817897 79.8648 188.883826 79.8648 187.91 
C 79.8648 186.936174 79.477895 186.002103 78.789296 185.313504 
C 78.100697 184.624905 77.166626 184.238 76.1928 184.238 
C 75.218974 184.238 74.284903 184.624905 73.596304 185.313504 
C 72.907705 186.002103 72.5208 186.936174 72.5208 187.91 
C 72.5208 188.883826 72.907705 189.817897 73.596304 190.506496 
C 74.284903 191.195095 75.218974 191.582 76.1928 191.582 
L 76.1928 191.582 
z
" clip-path="url(#p19f89ecdff)" style="fill: none; stroke: #000000; stroke-width: 2; stroke-linejoin: miter"/>
   </g>
   <g id="patch_7">
    <path d="M 76.1928 214.532 
C 77.166626 214.532 78.100697 214.145095 78.789296 213.456496 
C 79.477895 212.767897 79.8648 211.833826 79.8648 210.86 
C 79.8648 209.886174 79.477895 208.952103 78.789296 208.263504 
C 78.100697 207.574905 77.166626 207.188 76.1928 207.188 
C 75.218974 207.188 74.284903 207.574905 73.596304 208.263504 
C 72.907705 208.952103 72.5208 209.886174 72.5208 210.86 
C 72.5208 211.833826 72.907705 212.767897 73.596304 213.456496 
C 74.284903 214.145095 75.218974 214.532 76.1928 214.532 
L 76.1928 214.532 
z
" clip-path="url(#p19f89ecdff)" style="fill: none; stroke: #000000; stroke-width: 2; stroke-linejoin: miter"/>
   </g>
   <g id="patch_8">
    <path d="M 76.1928 237.482 
C 77.166626 237.482 78.100697 237.095095 78.789296 236.406496 
C 79.477895 235.717897 79.8648 234.783826 79.8648 233.81 
C 79.8648 232.836174 79.477895 231.902103 78.789296 231.213504 
C 78.100697 230.524905 77.166626 230.138 76.1928 230.138 
C 75.218974 230.138 74.284903 230.524905 73.596304 231.213504 
C 72.907705 231.902103 72.5208 232.836174 72.5208 233.81 
C 72.5208 234.783826 72.907705 235.717897 73.596304 236.406496 
C 74.284903 237.095095 75.218974 237.482 76.1928 237.482 
L 76.1928 237.482 
z
" clip-path="url(#p19f89ecdff)" style="fill: none; stroke: #000000; stroke-width: 2; stroke-linejoin: miter"/>
   </g>
   <g id="line2d_1">
    <path d="M 171.8178 168.479 
L 188.866371 168.379082 
L 190.614943 168.079327 
L 192.363514 167.579735 
L 194.112086 166.880306 
L 195.860657 165.981041 
L 198.046371 164.575939 
L 200.232086 162.858592 
L 202.4178 160.829 
L 204.603514 158.487163 
L 206.789229 155.833082 
L 208.5378 153.485 
L 208.5378 153.485 
L 205.914943 150.037816 
L 203.729229 147.508633 
L 201.543514 145.291694 
L 199.3578 143.387 
L 197.172086 141.794551 
L 194.986371 140.514347 
L 193.2378 139.715 
L 191.489229 139.11549 
L 189.740657 138.715816 
L 187.992086 138.51598 
L 187.1178 138.491 
L 171.8178 138.491 
L 171.8178 138.491 
L 174.021 140.939 
L 175.41636 142.775 
L 176.5914 144.611 
L 177.54612 146.447 
L 178.28052 148.283 
L 178.7946 150.119 
L 179.08836 151.955 
L 179.1618 153.791 
L 179.01492 155.627 
L 178.64772 157.463 
L 178.0602 159.299 
L 177.25236 161.135 
L 176.2242 162.971 
L 174.97572 164.807 
L 173.50692 166.643 
L 171.8178 168.479 
L 171.8178 168.479 
" clip-path="url(#p19f89ecdff)" style="fill: none; stroke: #000000; stroke-width: 2; stroke-linecap: round"/>
   </g>
   <g id="line2d_2">
    <path d="M 161.1078 171.845 
L 171.8178 171.845 
" clip-path="url(#p19f89ecdff)" style="fill: none; stroke: #000000; stroke-width: 2; stroke-linecap: round"/>
   </g>
   <g id="line2d_3">
    <path d="M 161.1078 159.605 
L 177.94086 159.605 
" clip-path="url(#p19f89ecdff)" style="fill: none; stroke: #000000; stroke-width: 2; stroke-linecap: round"/>
   </g>
   <g id="line2d_4">
    <path d="M 161.1078 147.365 
L 177.94086 147.365 
" clip-path="url(#p19f89ecdff)" style="fill: none; stroke: #000000; stroke-width: 2; stroke-linecap: round"/>
   </g>
   <g id="line2d_5">
    <path d="M 161.1078 135.125 
L 171.8178 135.125 
" clip-path="url(#p19f89ecdff)" style="fill: none; stroke: #000000; stroke-width: 2; stroke-linecap: round"/>
   </g>
   <g id="line2d_6">
    <path d="M 171.8178 129.005 
L 171.8178 138.491 
" clip-path="url(#p19f89ecdff)" style="fill: none; stroke: #000000; stroke-width: 2; stroke-linecap: round"/>
   </g>
   <g id="line2d_7">
    <path d="M 171.8178 177.965 
L 171.8178 168.479 
" clip-path="url(#p19f89ecdff)" style="fill: none; stroke: #000000; stroke-width: 2; stroke-linecap: round"/>
   </g>
   <g id="line2d_8">
    <path d="M 208.5378 153.485 
L 219.2478 153.485 
" clip-path="url(#p19f89ecdff)" style="fill: none; stroke: #000000; stroke-width: 2; stroke-linecap: round"/>
   </g>
   <g id="line2d_9">
    <path d="M 132.0378 65.51 
L 133.018074 65.478565 
L 133.994321 65.384387 
L 134.962527 65.227855 
L 135.918715 65.009611 
L 136.858956 64.730553 
L 137.779385 64.391826 
L 138.676221 63.994824 
L 139.545779 63.541176 
L 140.384484 63.032748 
L 141.188891 62.471628 
L 141.955694 61.860123 
L 142.681743 61.200745 
L 143.364053 60.496204 
L 143.999822 59.749394 
L 144.586435 58.963385 
L 145.121484 58.141406 
L 145.602769 57.286836 
L 146.028313 56.403185 
L 146.396367 55.494085 
L 146.705418 54.563272 
L 146.954197 53.61457 
L 147.141681 52.651878 
L 147.2671 51.679152 
L 147.329939 50.700389 
L 147.329939 49.719611 
L 147.2671 48.740848 
L 147.141681 47.768122 
L 146.954197 46.80543 
L 146.705418 45.856728 
L 146.396367 44.925915 
L 146.028313 44.016815 
L 145.602769 43.133164 
L 145.121484 42.278594 
L 144.586435 41.456615 
L 143.999822 40.670606 
L 143.364053 39.923796 
L 142.681743 39.219255 
L 141.955694 38.559877 
L 141.188891 37.948372 
L 140.384484 37.387252 
L 139.545779 36.878824 
L 138.676221 36.425176 
L 137.779385 36.028174 
L 136.858956 35.689447 
L 135.918715 35.410389 
L 134.962527 35.192145 
L 133.994321 35.035613 
L 133.018074 34.941435 
L 132.0378 34.91 
L 132.0378 34.91 
L 112.1478 34.91 
L 112.1478 50.21 
L 112.1478 65.51 
L 132.0378 65.51 
" clip-path="url(#p19f89ecdff)" style="fill: none; stroke: #000000; stroke-width: 2; stroke-linecap: round"/>
   </g>
   <g id="line2d_10">
    <path d="M 101.4378 60.308 
L 112.1478 60.308 
" clip-path="url(#p19f89ecdff)" style="fill: none; stroke: #000000; stroke-width: 2; stroke-linecap: round"/>
   </g>
   <g id="line2d_11">
    <path d="M 101.4378 50.21 
L 112.1478 50.21 
" clip-path="url(#p19f89ecdff)" style="fill: none; stroke: #000000; stroke-width: 2; stroke-linecap: round"/>
   </g>
   <g id="line2d_12">
    <path d="M 101.4378 40.112 
L 112.1478 40.112 
" clip-path="url(#p19f89ecdff)" style="fill: none; stroke: #000000; stroke-width: 2; stroke-linecap: round"/>
   </g>
   <g id="line2d_13">
    <path d="M 147.3378 50.21 
L 158.0478 50.21 
" clip-path="url(#p19f89ecdff)" style="fill: none; stroke: #000000; stroke-width: 2; stroke-linecap: round"/>
   </g>
   <g id="line2d_14">
    <path d="M 35.6478 27.26 
L 52.6308 27.26 
M 79.8648 27.26 
L 96.8478 27.26 
" clip-path="url(#p19f89ecdff)" style="fill: none; stroke: #000000; stroke-width: 2; stroke-linecap: round"/>
   </g>
   <g id="line2d_15">
    <path d="M 52.6308 11.96 
L 72.5208 27.26 
L 52.6308 42.56 
L 52.6308 11.96 
" clip-path="url(#p19f89ecdff)" style="fill: none; stroke: #000000; stroke-width: 2; stroke-linecap: round"/>
   </g>
   <g id="line2d_16">
    <path d="M 101.4378 40.112 
L 96.8478 40.112 
L 96.8478 27.26 
" clip-path="url(#p19f89ecdff)" style="fill: none; stroke: #000000; stroke-width: 2; stroke-linecap: round"/>
   </g>
   <g id="line2d_17">
    <path d="M 35.6478 50.21 
L 52.6308 50.21 
M 79.8648 50.21 
L 96.8478 50.21 
" clip-path="url(#p19f89ecdff)" style="fill: none; stroke: #000000; stroke-width: 2; stroke-linecap: round"/>
   </g>
   <g id="line2d_18">
    <path d="M 52.6308 34.91 
L 72.5208 50.21 
L 52.6308 65.51 
L 52.6308 34.91 
" clip-path="url(#p19f89ecdff)" style="fill: none; stroke: #000000; stroke-width: 2; stroke-linecap: round"/>
   </g>
   <g id="line2d_19">
    <path d="M 101.4378 50.21 
L 96.8478 50.21 
L 96.8478 50.21 
" clip-path="url(#p19f89ecdff)" style="fill: none; stroke: #000000; stroke-width: 2; stroke-linecap: round"/>
   </g>
   <g id="line2d_20">
    <path d="M 161.1078 135.125 
L 158.0478 135.125 
L 158.0478 50.21 
" clip-path="url(#p19f89ecdff)" style="fill: none; stroke: #000000; stroke-width: 2; stroke-linecap: round"/>
   </g>
   <g id="line2d_21">
    <path d="M 132.0378 134.36 
L 133.018074 134.328565 
L 133.994321 134.234387 
L 134.962527 134.077855 
L 135.918715 133.859611 
L 136.858956 133.580553 
L 137.779385 133.241826 
L 138.676221 132.844824 
L 139.545779 132.391176 
L 140.384484 131.882748 
L 141.188891 131.321628 
L 141.955694 130.710123 
L 142.681743 130.050745 
L 143.364053 129.346204 
L 143.999822 128.599394 
L 144.586435 127.813385 
L 145.121484 126.991406 
L 145.602769 126.136836 
L 146.028313 125.253185 
L 146.396367 124.344085 
L 146.705418 123.413272 
L 146.954197 122.46457 
L 147.141681 121.501878 
L 147.2671 120.529152 
L 147.329939 119.550389 
L 147.329939 118.569611 
L 147.2671 117.590848 
L 147.141681 116.618122 
L 146.954197 115.65543 
L 146.705418 114.706728 
L 146.396367 113.775915 
L 146.028313 112.866815 
L 145.602769 111.983164 
L 145.121484 111.128594 
L 144.586435 110.306615 
L 143.999822 109.520606 
L 143.364053 108.773796 
L 142.681743 108.069255 
L 141.955694 107.409877 
L 141.188891 106.798372 
L 140.384484 106.237252 
L 139.545779 105.728824 
L 138.676221 105.275176 
L 137.779385 104.878174 
L 136.858956 104.539447 
L 135.918715 104.260389 
L 134.962527 104.042145 
L 133.994321 103.885613 
L 133.018074 103.791435 
L 132.0378 103.76 
L 132.0378 103.76 
L 112.1478 103.76 
L 112.1478 119.06 
L 112.1478 134.36 
L 132.0378 134.36 
" clip-path="url(#p19f89ecdff)" style="fill: none; stroke: #000000; stroke-width: 2; stroke-linecap: round"/>
   </g>
   <g id="line2d_22">
    <path d="M 101.4378 129.158 
L 112.1478 129.158 
" clip-path="url(#p19f89ecdff)" style="fill: none; stroke: #000000; stroke-width: 2; stroke-linecap: round"/>
   </g>
   <g id="line2d_23">
    <path d="M 101.4378 119.06 
L 112.1478 119.06 
" clip-path="url(#p19f89ecdff)" style="fill: none; stroke: #000000; stroke-width: 2; stroke-linecap: round"/>
   </g>
   <g id="line2d_24">
    <path d="M 101.4378 108.962 
L 112.1478 108.962 
" clip-path="url(#p19f89ecdff)" style="fill: none; stroke: #000000; stroke-width: 2; stroke-linecap: round"/>
   </g>
   <g id="line2d_25">
    <path d="M 147.3378 119.06 
L 158.0478 119.06 
" clip-path="url(#p19f89ecdff)" style="fill: none; stroke: #000000; stroke-width: 2; stroke-linecap: round"/>
   </g>
   <g id="line2d_26">
    <path d="M 35.6478 96.11 
L 52.6308 96.11 
M 79.8648 96.11 
L 96.8478 96.11 
" clip-path="url(#p19f89ecdff)" style="fill: none; stroke: #000000; stroke-width: 2; stroke-linecap: round"/>
   </g>
   <g id="line2d_27">
    <path d="M 52.6308 80.81 
L 72.5208 96.11 
L 52.6308 111.41 
L 52.6308 80.81 
" clip-path="url(#p19f89ecdff)" style="fill: none; stroke: #000000; stroke-width: 2; stroke-linecap: round"/>
   </g>
   <g id="line2d_28">
    <path d="M 101.4378 108.962 
L 96.8478 108.962 
L 96.8478 96.11 
" clip-path="url(#p19f89ecdff)" style="fill: none; stroke: #000000; stroke-width: 2; stroke-linecap: round"/>
   </g>
   <g id="line2d_29">
    <path d="M 35.6478 142.01 
L 52.6308 142.01 
M 79.8648 142.01 
L 96.8478 142.01 
" clip-path="url(#p19f89ecdff)" style="fill: none; stroke: #000000; stroke-width: 2; stroke-linecap: round"/>
   </g>
   <g id="line2d_30">
    <path d="M 52.6308 126.71 
L 72.5208 142.01 
L 52.6308 157.31 
L 52.6308 126.71 
" clip-path="url(#p19f89ecdff)" style="fill: none; stroke: #000000; stroke-width: 2; stroke-linecap: round"/>
   </g>
   <g id="line2d_31">
    <path d="M 101.4378 129.158 
L 96.8478 129.158 
L 96.8478 142.01 
" clip-path="url(#p19f89ecdff)" style="fill: none; stroke: #000000; stroke-width: 2; stroke-linecap: round"/>
   </g>
   <g id="line2d_32">
    <path d="M 161.1078 147.365 
L 158.0478 147.365 
L 158.0478 119.06 
" clip-path="url(#p19f89ecdff)" style="fill: none; stroke: #000000; stroke-width: 2; stroke-linecap: round"/>
   </g>
   <g id="line2d_33">
    <path d="M 132.0378 203.21 
L 133.018074 203.178565 
L 133.994321 203.084387 
L 134.962527 202.927855 
L 135.918715 202.709611 
L 136.858956 202.430553 
L 137.779385 202.091826 
L 138.676221 201.694824 
L 139.545779 201.241176 
L 140.384484 200.732748 
L 141.188891 200.171628 
L 141.955694 199.560123 
L 142.681743 198.900745 
L 143.364053 198.196204 
L 143.999822 197.449394 
L 144.586435 196.663385 
L 145.121484 195.841406 
L 145.602769 194.986836 
L 146.028313 194.103185 
L 146.396367 193.194085 
L 146.705418 192.263272 
L 146.954197 191.31457 
L 147.141681 190.351878 
L 147.2671 189.379152 
L 147.329939 188.400389 
L 147.329939 187.419611 
L 147.2671 186.440848 
L 147.141681 185.468122 
L 146.954197 184.50543 
L 146.705418 183.556728 
L 146.396367 182.625915 
L 146.028313 181.716815 
L 145.602769 180.833164 
L 145.121484 179.978594 
L 144.586435 179.156615 
L 143.999822 178.370606 
L 143.364053 177.623796 
L 142.681743 176.919255 
L 141.955694 176.259877 
L 141.188891 175.648372 
L 140.384484 175.087252 
L 139.545779 174.578824 
L 138.676221 174.125176 
L 137.779385 173.728174 
L 136.858956 173.389447 
L 135.918715 173.110389 
L 134.962527 172.892145 
L 133.994321 172.735613 
L 133.018074 172.641435 
L 132.0378 172.61 
L 132.0378 172.61 
L 112.1478 172.61 
L 112.1478 187.91 
L 112.1478 203.21 
L 132.0378 203.21 
" clip-path="url(#p19f89ecdff)" style="fill: none; stroke: #000000; stroke-width: 2; stroke-linecap: round"/>
   </g>
   <g id="line2d_34">
    <path d="M 101.4378 198.008 
L 112.1478 198.008 
" clip-path="url(#p19f89ecdff)" style="fill: none; stroke: #000000; stroke-width: 2; stroke-linecap: round"/>
   </g>
   <g id="line2d_35">
    <path d="M 101.4378 187.91 
L 112.1478 187.91 
" clip-path="url(#p19f89ecdff)" style="fill: none; stroke: #000000; stroke-width: 2; stroke-linecap: round"/>
   </g>
   <g id="line2d_36">
    <path d="M 101.4378 177.812 
L 112.1478 177.812 
" clip-path="url(#p19f89ecdff)" style="fill: none; stroke: #000000; stroke-width: 2; stroke-linecap: round"/>
   </g>
   <g id="line2d_37">
    <path d="M 147.3378 187.91 
L 158.0478 187.91 
" clip-path="url(#p19f89ecdff)" style="fill: none; stroke: #000000; stroke-width: 2; stroke-linecap: round"/>
   </g>
   <g id="line2d_38">
    <path d="M 35.6478 187.91 
L 52.6308 187.91 
M 79.8648 187.91 
L 96.8478 187.91 
" clip-path="url(#p19f89ecdff)" style="fill: none; stroke: #000000; stroke-width: 2; stroke-linecap: round"/>
   </g>
   <g id="line2d_39">
    <path d="M 52.6308 172.61 
L 72.5208 187.91 
L 52.6308 203.21 
L 52.6308 172.61 
" clip-path="url(#p19f89ecdff)" style="fill: none; stroke: #000000; stroke-width: 2; stroke-linecap: round"/>
   </g>
   <g id="line2d_40">
    <path d="M 101.4378 187.91 
L 96.8478 187.91 
L 96.8478 187.91 
" clip-path="url(#p19f89ecdff)" style="fill: none; stroke: #000000; stroke-width: 2; stroke-linecap: round"/>
   </g>
   <g id="line2d_41">
    <path d="M 35.6478 210.86 
L 52.6308 210.86 
M 79.8648 210.86 
L 96.8478 210.86 
" clip-path="url(#p19f89ecdff)" style="fill: none; stroke: #000000; stroke-width: 2; stroke-linecap: round"/>
   </g>
   <g id="line2d_42">
    <path d="M 52.6308 195.56 
L 72.5208 210.86 
L 52.6308 226.16 
L 52.6308 195.56 
" clip-path="url(#p19f89ecdff)" style="fill: none; stroke: #000000; stroke-width: 2; stroke-linecap: round"/>
   </g>
   <g id="line2d_43">
    <path d="M 101.4378 198.008 
L 96.8478 198.008 
L 96.8478 210.86 
" clip-path="url(#p19f89ecdff)" style="fill: none; stroke: #000000; stroke-width: 2; stroke-linecap: round"/>
   </g>
   <g id="line2d_44">
    <path d="M 161.1078 159.605 
L 158.0478 159.605 
L 158.0478 187.91 
" clip-path="url(#p19f89ecdff)" style="fill: none; stroke: #000000; stroke-width: 2; stroke-linecap: round"/>
   </g>
   <g id="line2d_45">
    <path d="M 132.0378 272.06 
L 133.018074 272.028565 
L 133.994321 271.934387 
L 134.962527 271.777855 
L 135.918715 271.559611 
L 136.858956 271.280553 
L 137.779385 270.941826 
L 138.676221 270.544824 
L 139.545779 270.091176 
L 140.384484 269.582748 
L 141.188891 269.021628 
L 141.955694 268.410123 
L 142.681743 267.750745 
L 143.364053 267.046204 
L 143.999822 266.299394 
L 144.586435 265.513385 
L 145.121484 264.691406 
L 145.602769 263.836836 
L 146.028313 262.953185 
L 146.396367 262.044085 
L 146.705418 261.113272 
L 146.954197 260.16457 
L 147.141681 259.201878 
L 147.2671 258.229152 
L 147.329939 257.250389 
L 147.329939 256.269611 
L 147.2671 255.290848 
L 147.141681 254.318122 
L 146.954197 253.35543 
L 146.705418 252.406728 
L 146.396367 251.475915 
L 146.028313 250.566815 
L 145.602769 249.683164 
L 145.121484 248.828594 
L 144.586435 248.006615 
L 143.999822 247.220606 
L 143.364053 246.473796 
L 142.681743 245.769255 
L 141.955694 245.109877 
L 141.188891 244.498372 
L 140.384484 243.937252 
L 139.545779 243.428824 
L 138.676221 242.975176 
L 137.779385 242.578174 
L 136.858956 242.239447 
L 135.918715 241.960389 
L 134.962527 241.742145 
L 133.994321 241.585613 
L 133.018074 241.491435 
L 132.0378 241.46 
L 132.0378 241.46 
L 112.1478 241.46 
L 112.1478 256.76 
L 112.1478 272.06 
L 132.0378 272.06 
" clip-path="url(#p19f89ecdff)" style="fill: none; stroke: #000000; stroke-width: 2; stroke-linecap: round"/>
   </g>
   <g id="line2d_46">
    <path d="M 101.4378 266.858 
L 112.1478 266.858 
" clip-path="url(#p19f89ecdff)" style="fill: none; stroke: #000000; stroke-width: 2; stroke-linecap: round"/>
   </g>
   <g id="line2d_47">
    <path d="M 101.4378 256.76 
L 112.1478 256.76 
" clip-path="url(#p19f89ecdff)" style="fill: none; stroke: #000000; stroke-width: 2; stroke-linecap: round"/>
   </g>
   <g id="line2d_48">
    <path d="M 101.4378 246.662 
L 112.1478 246.662 
" clip-path="url(#p19f89ecdff)" style="fill: none; stroke: #000000; stroke-width: 2; stroke-linecap: round"/>
   </g>
   <g id="line2d_49">
    <path d="M 147.3378 256.76 
L 158.0478 256.76 
" clip-path="url(#p19f89ecdff)" style="fill: none; stroke: #000000; stroke-width: 2; stroke-linecap: round"/>
   </g>
   <g id="line2d_50">
    <path d="M 35.6478 233.81 
L 52.6308 233.81 
M 79.8648 233.81 
L 96.8478 233.81 
" clip-path="url(#p19f89ecdff)" style="fill: none; stroke: #000000; stroke-width: 2; stroke-linecap: round"/>
   </g>
   <g id="line2d_51">
    <path d="M 52.6308 218.51 
L 72.5208 233.81 
L 52.6308 249.11 
L 52.6308 218.51 
" clip-path="url(#p19f89ecdff)" style="fill: none; stroke: #000000; stroke-width: 2; stroke-linecap: round"/>
   </g>
   <g id="line2d_52">
    <path d="M 101.4378 246.662 
L 96.8478 246.662 
L 96.8478 233.81 
" clip-path="url(#p19f89ecdff)" style="fill: none; stroke: #000000; stroke-width: 2; stroke-linecap: round"/>
   </g>
   <g id="line2d_53">
    <path d="M 161.1078 171.845 
L 158.0478 171.845 
L 158.0478 256.76 
" clip-path="url(#p19f89ecdff)" style="fill: none; stroke: #000000; stroke-width: 2; stroke-linecap: round"/>
   </g>
   <g id="text_1">
    <g clip-path="url(#p19f89ecdff)">
     <!-- $S_i$ -->
     <g transform="translate(222.3078 156.934219)scale(0.125 -0.125)">
      <defs>
       <path id="DejaVuSans-Oblique-53" d="M 3859 4513 
L 3738 3897 
Q 3422 4066 3111 4152 
Q 2800 4238 2509 4238 
Q 1944 4238 1609 3991 
Q 1275 3744 1275 3334 
Q 1275 3109 1398 2989 
Q 1522 2869 2034 2731 
L 2413 2638 
Q 3053 2472 3303 2217 
Q 3553 1963 3553 1503 
Q 3553 797 2998 353 
Q 2444 -91 1538 -91 
Q 1166 -91 791 -17 
Q 416 56 38 206 
L 166 856 
Q 513 641 861 531 
Q 1209 422 1556 422 
Q 2147 422 2503 684 
Q 2859 947 2859 1369 
Q 2859 1650 2717 1795 
Q 2575 1941 2106 2059 
L 1728 2156 
Q 1081 2325 845 2545 
Q 609 2766 609 3163 
Q 609 3859 1145 4304 
Q 1681 4750 2541 4750 
Q 2875 4750 3203 4690 
Q 3531 4631 3859 4513 
z
" transform="scale(0.015625)"/>
       <path id="DejaVuSans-Oblique-69" d="M 1172 4863 
L 1747 4863 
L 1606 4134 
L 1031 4134 
L 1172 4863 
z
M 909 3500 
L 1484 3500 
L 800 0 
L 225 0 
L 909 3500 
z
" transform="scale(0.015625)"/>
      </defs>
      <use xlink:href="#DejaVuSans-Oblique-53" transform="translate(0 0.78125)"/>
      <use xlink:href="#DejaVuSans-Oblique-69" transform="translate(63.476562 -15.625)scale(0.7)"/>
     </g>
    </g>
   </g>
   <g id="text_2">
    <g clip-path="url(#p19f89ecdff)">
     <!-- c_i -->
     <g transform="translate(81.782097 63.583391)scale(0.125 -0.125)">
      <defs>
       <path id="DejaVuSans-63" d="M 3122 3366 
L 3122 2828 
Q 2878 2963 2633 3030 
Q 2388 3097 2138 3097 
Q 1578 3097 1268 2742 
Q 959 2388 959 1747 
Q 959 1106 1268 751 
Q 1578 397 2138 397 
Q 2388 397 2633 464 
Q 2878 531 3122 666 
L 3122 134 
Q 2881 22 2623 -34 
Q 2366 -91 2075 -91 
Q 1284 -91 818 406 
Q 353 903 353 1747 
Q 353 2603 823 3093 
Q 1294 3584 2113 3584 
Q 2378 3584 2631 3529 
Q 2884 3475 3122 3366 
z
" transform="scale(0.015625)"/>
       <path id="DejaVuSans-5f" d="M 3263 -1063 
L 3263 -1509 
L -63 -1509 
L -63 -1063 
L 3263 -1063 
z
" transform="scale(0.015625)"/>
       <path id="DejaVuSans-69" d="M 603 3500 
L 1178 3500 
L 1178 0 
L 603 0 
L 603 3500 
z
M 603 4863 
L 1178 4863 
L 1178 4134 
L 603 4134 
L 603 4863 
z
" transform="scale(0.015625)"/>
      </defs>
      <use xlink:href="#DejaVuSans-63"/>
      <use xlink:href="#DejaVuSans-5f" x="54.980469"/>
      <use xlink:href="#DejaVuSans-69" x="104.980469"/>
     </g>
    </g>
   </g>
   <g id="text_3">
    <g clip-path="url(#p19f89ecdff)">
     <!-- a_i -->
     <g transform="translate(15.204987 30.535391)scale(0.125 -0.125)">
      <defs>
       <path id="DejaVuSans-61" d="M 2194 1759 
Q 1497 1759 1228 1600 
Q 959 1441 959 1056 
Q 959 750 1161 570 
Q 1363 391 1709 391 
Q 2188 391 2477 730 
Q 2766 1069 2766 1631 
L 2766 1759 
L 2194 1759 
z
M 3341 1997 
L 3341 0 
L 2766 0 
L 2766 531 
Q 2569 213 2275 61 
Q 1981 -91 1556 -91 
Q 1019 -91 701 211 
Q 384 513 384 1019 
Q 384 1609 779 1909 
Q 1175 2209 1959 2209 
L 2766 2209 
L 2766 2266 
Q 2766 2663 2505 2880 
Q 2244 3097 1772 3097 
Q 1472 3097 1187 3025 
Q 903 2953 641 2809 
L 641 3341 
Q 956 3463 1253 3523 
Q 1550 3584 1831 3584 
Q 2591 3584 2966 3190 
Q 3341 2797 3341 1997 
z
" transform="scale(0.015625)"/>
      </defs>
      <use xlink:href="#DejaVuSans-61"/>
      <use xlink:href="#DejaVuSans-5f" x="61.279297"/>
      <use xlink:href="#DejaVuSans-69" x="111.279297"/>
     </g>
    </g>
   </g>
   <g id="text_4">
    <g clip-path="url(#p19f89ecdff)">
     <!-- b_i -->
     <g transform="translate(14.929597 53.485391)scale(0.125 -0.125)">
      <defs>
       <path id="DejaVuSans-62" d="M 3116 1747 
Q 3116 2381 2855 2742 
Q 2594 3103 2138 3103 
Q 1681 3103 1420 2742 
Q 1159 2381 1159 1747 
Q 1159 1113 1420 752 
Q 1681 391 2138 391 
Q 2594 391 2855 752 
Q 3116 1113 3116 1747 
z
M 1159 2969 
Q 1341 3281 1617 3432 
Q 1894 3584 2278 3584 
Q 2916 3584 3314 3078 
Q 3713 2572 3713 1747 
Q 3713 922 3314 415 
Q 2916 -91 2278 -91 
Q 1894 -91 1617 61 
Q 1341 213 1159 525 
L 1159 0 
L 581 0 
L 581 4863 
L 1159 4863 
L 1159 2969 
z
" transform="scale(0.015625)"/>
      </defs>
      <use xlink:href="#DejaVuSans-62"/>
      <use xlink:href="#DejaVuSans-5f" x="63.476562"/>
      <use xlink:href="#DejaVuSans-69" x="113.476562"/>
     </g>
    </g>
   </g>
   <g id="text_5">
    <g clip-path="url(#p19f89ecdff)">
     <!-- b_i -->
     <g transform="translate(80.719597 122.335391)scale(0.125 -0.125)">
      <use xlink:href="#DejaVuSans-62"/>
      <use xlink:href="#DejaVuSans-5f" x="63.476562"/>
      <use xlink:href="#DejaVuSans-69" x="113.476562"/>
     </g>
    </g>
   </g>
   <g id="text_6">
    <g clip-path="url(#p19f89ecdff)">
     <!-- a_i -->
     <g transform="translate(15.204987 99.385391)scale(0.125 -0.125)">
      <use xlink:href="#DejaVuSans-61"/>
      <use xlink:href="#DejaVuSans-5f" x="61.279297"/>
      <use xlink:href="#DejaVuSans-69" x="111.279297"/>
     </g>
    </g>
   </g>
   <g id="text_7">
    <g clip-path="url(#p19f89ecdff)">
     <!-- c_i -->
     <g transform="translate(15.992097 145.285391)scale(0.125 -0.125)">
      <use xlink:href="#DejaVuSans-63"/>
      <use xlink:href="#DejaVuSans-5f" x="54.980469"/>
      <use xlink:href="#DejaVuSans-69" x="104.980469"/>
     </g>
    </g>
   </g>
   <g id="text_8">
    <g clip-path="url(#p19f89ecdff)">
     <!-- a_i -->
     <g transform="translate(80.994988 181.087391)scale(0.125 -0.125)">
      <use xlink:href="#DejaVuSans-61"/>
      <use xlink:href="#DejaVuSans-5f" x="61.279297"/>
      <use xlink:href="#DejaVuSans-69" x="111.279297"/>
     </g>
    </g>
   </g>
   <g id="text_9">
    <g clip-path="url(#p19f89ecdff)">
     <!-- b_i -->
     <g transform="translate(14.929597 191.185391)scale(0.125 -0.125)">
      <use xlink:href="#DejaVuSans-62"/>
      <use xlink:href="#DejaVuSans-5f" x="63.476562"/>
      <use xlink:href="#DejaVuSans-69" x="113.476562"/>
     </g>
    </g>
   </g>
   <g id="text_10">
    <g clip-path="url(#p19f89ecdff)">
     <!-- c_i -->
     <g transform="translate(15.992097 214.135391)scale(0.125 -0.125)">
      <use xlink:href="#DejaVuSans-63"/>
      <use xlink:href="#DejaVuSans-5f" x="54.980469"/>
      <use xlink:href="#DejaVuSans-69" x="104.980469"/>
     </g>
    </g>
   </g>
   <g id="text_11">
    <g clip-path="url(#p19f89ecdff)">
     <!-- b_i -->
     <g transform="translate(80.719597 260.035391)scale(0.125 -0.125)">
      <use xlink:href="#DejaVuSans-62"/>
      <use xlink:href="#DejaVuSans-5f" x="63.476562"/>
      <use xlink:href="#DejaVuSans-69" x="113.476562"/>
     </g>
    </g>
   </g>
   <g id="text_12">
    <g clip-path="url(#p19f89ecdff)">
     <!-- c_i -->
     <g transform="translate(81.782097 270.133391)scale(0.125 -0.125)">
      <use xlink:href="#DejaVuSans-63"/>
      <use xlink:href="#DejaVuSans-5f" x="54.980469"/>
      <use xlink:href="#DejaVuSans-69" x="104.980469"/>
     </g>
    </g>
   </g>
   <g id="text_13">
    <g clip-path="url(#p19f89ecdff)">
     <!-- a_i -->
     <g transform="translate(15.204987 237.085391)scale(0.125 -0.125)">
      <use xlink:href="#DejaVuSans-61"/>
      <use xlink:href="#DejaVuSans-5f" x="61.279297"/>
      <use xlink:href="#DejaVuSans-69" x="111.279297"/>
     </g>
    </g>
   </g>
  </g>
 </g>
 <defs>
  <clipPath id="p19f89ecdff">
   <rect x="7.2" y="7.2" width="243.6882" height="273.598"/>
  </clipPath>
 </defs>
</svg>
