<?xml version="1.0" encoding="utf-8" standalone="no"?>
<!DOCTYPE svg PUBLIC "-//W3C//DTD SVG 1.1//EN"
  "http://www.w3.org/Graphics/SVG/1.1/DTD/svg11.dtd">
<svg xmlns:xlink="http://www.w3.org/1999/xlink" width="192.2982pt" height="155.5pt" viewBox="0 0 192.2982 155.5" xmlns="http://www.w3.org/2000/svg" version="1.1">
 <metadata>
  <rdf:RDF xmlns:dc="http://purl.org/dc/elements/1.1/" xmlns:cc="http://creativecommons.org/ns#" xmlns:rdf="http://www.w3.org/1999/02/22-rdf-syntax-ns#">
   <cc:Work>
    <dc:type rdf:resource="http://purl.org/dc/dcmitype/StillImage"/>
    <dc:date>2022-01-18T14:40:56.852777</dc:date>
    <dc:format>image/svg+xml</dc:format>
    <dc:creator>
     <cc:Agent>
      <dc:title>Matplotlib v3.5.1, https://matplotlib.org/</dc:title>
     </cc:Agent>
    </dc:creator>
   </cc:Work>
  </rdf:RDF>
 </metadata>
 <defs>
  <style type="text/css">*{stroke-linejoin: round; stroke-linecap: butt}</style>
 </defs>
 <g id="figure_1">
  <g id="patch_1">
   <path d="M 0 155.5 
L 192.2982 155.5 
L 192.2982 0 
L 0 0 
L 0 155.5 
z
" style="fill: none"/>
  </g>
  <g id="axes_1">
   <g id="line2d_1">
    <path d="M 106.0278 95.804 
L 123.076371 95.704082 
L 124.824943 95.404327 
L 126.573514 94.904735 
L 128.322086 94.205306 
L 130.070657 93.306041 
L 132.256371 91.900939 
L 134.442086 90.183592 
L 136.6278 88.154 
L 138.813514 85.812163 
L 140.999229 83.158082 
L 142.7478 80.81 
L 142.7478 80.81 
L 140.124943 77.362816 
L 137.939229 74.833633 
L 135.753514 72.616694 
L 133.5678 70.712 
L 131.382086 69.119551 
L 129.196371 67.839347 
L 127.4478 67.04 
L 125.699229 66.44049 
L 123.950657 66.040816 
L 122.202086 65.84098 
L 121.3278 65.816 
L 106.0278 65.816 
L 106.0278 65.816 
L 108.231 68.264 
L 109.62636 70.1 
L 110.8014 71.936 
L 111.75612 73.772 
L 112.49052 75.608 
L 113.0046 77.444 
L 113.29836 79.28 
L 113.3718 81.116 
L 113.22492 82.952 
L 112.85772 84.788 
L 112.2702 86.624 
L 111.46236 88.46 
L 110.4342 90.296 
L 109.18572 92.132 
L 107.71692 93.968 
L 106.0278 95.804 
L 106.0278 95.804 
" clip-path="url(#p0454cde56b)" style="fill: none; stroke: #000000; stroke-width: 2; stroke-linecap: round"/>
   </g>
   <g id="line2d_2">
    <path d="M 95.3178 90.908 
L 110.04252 90.908 
" clip-path="url(#p0454cde56b)" style="fill: none; stroke: #000000; stroke-width: 2; stroke-linecap: round"/>
   </g>
   <g id="line2d_3">
    <path d="M 95.3178 80.81 
L 113.37486 80.81 
" clip-path="url(#p0454cde56b)" style="fill: none; stroke: #000000; stroke-width: 2; stroke-linecap: round"/>
   </g>
   <g id="line2d_4">
    <path d="M 95.3178 70.712 
L 110.04252 70.712 
" clip-path="url(#p0454cde56b)" style="fill: none; stroke: #000000; stroke-width: 2; stroke-linecap: round"/>
   </g>
   <g id="line2d_5">
    <path d="M 142.7478 80.81 
L 153.4578 80.81 
" clip-path="url(#p0454cde56b)" style="fill: none; stroke: #000000; stroke-width: 2; stroke-linecap: round"/>
   </g>
   <g id="line2d_6">
    <path d="M 66.2478 50.21 
L 67.228074 50.178565 
L 68.204321 50.084387 
L 69.172527 49.927855 
L 70.128715 49.709611 
L 71.068956 49.430553 
L 71.989385 49.091826 
L 72.886221 48.694824 
L 73.755779 48.241176 
L 74.594484 47.732748 
L 75.398891 47.171628 
L 76.165694 46.560123 
L 76.891743 45.900745 
L 77.574053 45.196204 
L 78.209822 44.449394 
L 78.796435 43.663385 
L 79.331484 42.841406 
L 79.812769 41.986836 
L 80.238313 41.103185 
L 80.606367 40.194085 
L 80.915418 39.263272 
L 81.164197 38.31457 
L 81.351681 37.351878 
L 81.4771 36.379152 
L 81.539939 35.400389 
L 81.539939 34.419611 
L 81.4771 33.440848 
L 81.351681 32.468122 
L 81.164197 31.50543 
L 80.915418 30.556728 
L 80.606367 29.625915 
L 80.238313 28.716815 
L 79.812769 27.833164 
L 79.331484 26.978594 
L 78.796435 26.156615 
L 78.209822 25.370606 
L 77.574053 24.623796 
L 76.891743 23.919255 
L 76.165694 23.259877 
L 75.398891 22.648372 
L 74.594484 22.087252 
L 73.755779 21.578824 
L 72.886221 21.125176 
L 71.989385 20.728174 
L 71.068956 20.389447 
L 70.128715 20.110389 
L 69.172527 19.892145 
L 68.204321 19.735613 
L 67.228074 19.641435 
L 66.2478 19.61 
L 66.2478 19.61 
L 46.3578 19.61 
L 46.3578 34.91 
L 46.3578 50.21 
L 66.2478 50.21 
" clip-path="url(#p0454cde56b)" style="fill: none; stroke: #000000; stroke-width: 2; stroke-linecap: round"/>
   </g>
   <g id="line2d_7">
    <path d="M 35.6478 42.56 
L 46.3578 42.56 
" clip-path="url(#p0454cde56b)" style="fill: none; stroke: #000000; stroke-width: 2; stroke-linecap: round"/>
   </g>
   <g id="line2d_8">
    <path d="M 35.6478 27.26 
L 46.3578 27.26 
" clip-path="url(#p0454cde56b)" style="fill: none; stroke: #000000; stroke-width: 2; stroke-linecap: round"/>
   </g>
   <g id="line2d_9">
    <path d="M 81.5478 34.91 
L 92.2578 34.91 
" clip-path="url(#p0454cde56b)" style="fill: none; stroke: #000000; stroke-width: 2; stroke-linecap: round"/>
   </g>
   <g id="line2d_10">
    <path d="M 95.3178 70.712 
L 92.2578 70.712 
L 92.2578 34.91 
" clip-path="url(#p0454cde56b)" style="fill: none; stroke: #000000; stroke-width: 2; stroke-linecap: round"/>
   </g>
   <g id="line2d_11">
    <path d="M 66.2478 96.11 
L 67.228074 96.078565 
L 68.204321 95.984387 
L 69.172527 95.827855 
L 70.128715 95.609611 
L 71.068956 95.330553 
L 71.989385 94.991826 
L 72.886221 94.594824 
L 73.755779 94.141176 
L 74.594484 93.632748 
L 75.398891 93.071628 
L 76.165694 92.460123 
L 76.891743 91.800745 
L 77.574053 91.096204 
L 78.209822 90.349394 
L 78.796435 89.563385 
L 79.331484 88.741406 
L 79.812769 87.886836 
L 80.238313 87.003185 
L 80.606367 86.094085 
L 80.915418 85.163272 
L 81.164197 84.21457 
L 81.351681 83.251878 
L 81.4771 82.279152 
L 81.539939 81.300389 
L 81.539939 80.319611 
L 81.4771 79.340848 
L 81.351681 78.368122 
L 81.164197 77.40543 
L 80.915418 76.456728 
L 80.606367 75.525915 
L 80.238313 74.616815 
L 79.812769 73.733164 
L 79.331484 72.878594 
L 78.796435 72.056615 
L 78.209822 71.270606 
L 77.574053 70.523796 
L 76.891743 69.819255 
L 76.165694 69.159877 
L 75.398891 68.548372 
L 74.594484 67.987252 
L 73.755779 67.478824 
L 72.886221 67.025176 
L 71.989385 66.628174 
L 71.068956 66.289447 
L 70.128715 66.010389 
L 69.172527 65.792145 
L 68.204321 65.635613 
L 67.228074 65.541435 
L 66.2478 65.51 
L 66.2478 65.51 
L 46.3578 65.51 
L 46.3578 80.81 
L 46.3578 96.11 
L 66.2478 96.11 
" clip-path="url(#p0454cde56b)" style="fill: none; stroke: #000000; stroke-width: 2; stroke-linecap: round"/>
   </g>
   <g id="line2d_12">
    <path d="M 35.6478 88.46 
L 46.3578 88.46 
" clip-path="url(#p0454cde56b)" style="fill: none; stroke: #000000; stroke-width: 2; stroke-linecap: round"/>
   </g>
   <g id="line2d_13">
    <path d="M 35.6478 73.16 
L 46.3578 73.16 
" clip-path="url(#p0454cde56b)" style="fill: none; stroke: #000000; stroke-width: 2; stroke-linecap: round"/>
   </g>
   <g id="line2d_14">
    <path d="M 81.5478 80.81 
L 92.2578 80.81 
" clip-path="url(#p0454cde56b)" style="fill: none; stroke: #000000; stroke-width: 2; stroke-linecap: round"/>
   </g>
   <g id="line2d_15">
    <path d="M 95.3178 80.81 
L 92.2578 80.81 
L 92.2578 80.81 
" clip-path="url(#p0454cde56b)" style="fill: none; stroke: #000000; stroke-width: 2; stroke-linecap: round"/>
   </g>
   <g id="line2d_16">
    <path d="M 66.2478 142.01 
L 67.228074 141.978565 
L 68.204321 141.884387 
L 69.172527 141.727855 
L 70.128715 141.509611 
L 71.068956 141.230553 
L 71.989385 140.891826 
L 72.886221 140.494824 
L 73.755779 140.041176 
L 74.594484 139.532748 
L 75.398891 138.971628 
L 76.165694 138.360123 
L 76.891743 137.700745 
L 77.574053 136.996204 
L 78.209822 136.249394 
L 78.796435 135.463385 
L 79.331484 134.641406 
L 79.812769 133.786836 
L 80.238313 132.903185 
L 80.606367 131.994085 
L 80.915418 131.063272 
L 81.164197 130.11457 
L 81.351681 129.151878 
L 81.4771 128.179152 
L 81.539939 127.200389 
L 81.539939 126.219611 
L 81.4771 125.240848 
L 81.351681 124.268122 
L 81.164197 123.30543 
L 80.915418 122.356728 
L 80.606367 121.425915 
L 80.238313 120.516815 
L 79.812769 119.633164 
L 79.331484 118.778594 
L 78.796435 117.956615 
L 78.209822 117.170606 
L 77.574053 116.423796 
L 76.891743 115.719255 
L 76.165694 115.059877 
L 75.398891 114.448372 
L 74.594484 113.887252 
L 73.755779 113.378824 
L 72.886221 112.925176 
L 71.989385 112.528174 
L 71.068956 112.189447 
L 70.128715 111.910389 
L 69.172527 111.692145 
L 68.204321 111.535613 
L 67.228074 111.441435 
L 66.2478 111.41 
L 66.2478 111.41 
L 46.3578 111.41 
L 46.3578 126.71 
L 46.3578 142.01 
L 66.2478 142.01 
" clip-path="url(#p0454cde56b)" style="fill: none; stroke: #000000; stroke-width: 2; stroke-linecap: round"/>
   </g>
   <g id="line2d_17">
    <path d="M 35.6478 134.36 
L 46.3578 134.36 
" clip-path="url(#p0454cde56b)" style="fill: none; stroke: #000000; stroke-width: 2; stroke-linecap: round"/>
   </g>
   <g id="line2d_18">
    <path d="M 35.6478 119.06 
L 46.3578 119.06 
" clip-path="url(#p0454cde56b)" style="fill: none; stroke: #000000; stroke-width: 2; stroke-linecap: round"/>
   </g>
   <g id="line2d_19">
    <path d="M 81.5478 126.71 
L 92.2578 126.71 
" clip-path="url(#p0454cde56b)" style="fill: none; stroke: #000000; stroke-width: 2; stroke-linecap: round"/>
   </g>
   <g id="line2d_20">
    <path d="M 95.3178 90.908 
L 92.2578 90.908 
L 92.2578 126.71 
" clip-path="url(#p0454cde56b)" style="fill: none; stroke: #000000; stroke-width: 2; stroke-linecap: round"/>
   </g>
   <g id="text_1">
    <g clip-path="url(#p0454cde56b)">
     <!-- $S_i$ -->
     <g transform="translate(156.5178 84.259219)scale(0.125 -0.125)">
      <defs>
       <path id="DejaVuSans-Oblique-53" d="M 3859 4513 
L 3738 3897 
Q 3422 4066 3111 4152 
Q 2800 4238 2509 4238 
Q 1944 4238 1609 3991 
Q 1275 3744 1275 3334 
Q 1275 3109 1398 2989 
Q 1522 2869 2034 2731 
L 2413 2638 
Q 3053 2472 3303 2217 
Q 3553 1963 3553 1503 
Q 3553 797 2998 353 
Q 2444 -91 1538 -91 
Q 1166 -91 791 -17 
Q 416 56 38 206 
L 166 856 
Q 513 641 861 531 
Q 1209 422 1556 422 
Q 2147 422 2503 684 
Q 2859 947 2859 1369 
Q 2859 1650 2717 1795 
Q 2575 1941 2106 2059 
L 1728 2156 
Q 1081 2325 845 2545 
Q 609 2766 609 3163 
Q 609 3859 1145 4304 
Q 1681 4750 2541 4750 
Q 2875 4750 3203 4690 
Q 3531 4631 3859 4513 
z
" transform="scale(0.015625)"/>
       <path id="DejaVuSans-Oblique-69" d="M 1172 4863 
L 1747 4863 
L 1606 4134 
L 1031 4134 
L 1172 4863 
z
M 909 3500 
L 1484 3500 
L 800 0 
L 225 0 
L 909 3500 
z
" transform="scale(0.015625)"/>
      </defs>
      <use xlink:href="#DejaVuSans-Oblique-53" transform="translate(0 0.78125)"/>
      <use xlink:href="#DejaVuSans-Oblique-69" transform="translate(63.476562 -15.625)scale(0.7)"/>
     </g>
    </g>
   </g>
   <g id="text_2">
    <g clip-path="url(#p0454cde56b)">
     <!-- a_i -->
     <g transform="translate(15.204988 30.535391)scale(0.125 -0.125)">
      <defs>
       <path id="DejaVuSans-61" d="M 2194 1759 
Q 1497 1759 1228 1600 
Q 959 1441 959 1056 
Q 959 750 1161 570 
Q 1363 391 1709 391 
Q 2188 391 2477 730 
Q 2766 1069 2766 1631 
L 2766 1759 
L 2194 1759 
z
M 3341 1997 
L 3341 0 
L 2766 0 
L 2766 531 
Q 2569 213 2275 61 
Q 1981 -91 1556 -91 
Q 1019 -91 701 211 
Q 384 513 384 1019 
Q 384 1609 779 1909 
Q 1175 2209 1959 2209 
L 2766 2209 
L 2766 2266 
Q 2766 2663 2505 2880 
Q 2244 3097 1772 3097 
Q 1472 3097 1187 3025 
Q 903 2953 641 2809 
L 641 3341 
Q 956 3463 1253 3523 
Q 1550 3584 1831 3584 
Q 2591 3584 2966 3190 
Q 3341 2797 3341 1997 
z
" transform="scale(0.015625)"/>
       <path id="DejaVuSans-5f" d="M 3263 -1063 
L 3263 -1509 
L -63 -1509 
L -63 -1063 
L 3263 -1063 
z
" transform="scale(0.015625)"/>
       <path id="DejaVuSans-69" d="M 603 3500 
L 1178 3500 
L 1178 0 
L 603 0 
L 603 3500 
z
M 603 4863 
L 1178 4863 
L 1178 4134 
L 603 4134 
L 603 4863 
z
" transform="scale(0.015625)"/>
      </defs>
      <use xlink:href="#DejaVuSans-61"/>
      <use xlink:href="#DejaVuSans-5f" x="61.279297"/>
      <use xlink:href="#DejaVuSans-69" x="111.279297"/>
     </g>
    </g>
   </g>
   <g id="text_3">
    <g clip-path="url(#p0454cde56b)">
     <!-- b_i -->
     <g transform="translate(14.929597 45.835391)scale(0.125 -0.125)">
      <defs>
       <path id="DejaVuSans-62" d="M 3116 1747 
Q 3116 2381 2855 2742 
Q 2594 3103 2138 3103 
Q 1681 3103 1420 2742 
Q 1159 2381 1159 1747 
Q 1159 1113 1420 752 
Q 1681 391 2138 391 
Q 2594 391 2855 752 
Q 3116 1113 3116 1747 
z
M 1159 2969 
Q 1341 3281 1617 3432 
Q 1894 3584 2278 3584 
Q 2916 3584 3314 3078 
Q 3713 2572 3713 1747 
Q 3713 922 3314 415 
Q 2916 -91 2278 -91 
Q 1894 -91 1617 61 
Q 1341 213 1159 525 
L 1159 0 
L 581 0 
L 581 4863 
L 1159 4863 
L 1159 2969 
z
" transform="scale(0.015625)"/>
      </defs>
      <use xlink:href="#DejaVuSans-62"/>
      <use xlink:href="#DejaVuSans-5f" x="63.476562"/>
      <use xlink:href="#DejaVuSans-69" x="113.476562"/>
     </g>
    </g>
   </g>
   <g id="text_4">
    <g clip-path="url(#p0454cde56b)">
     <!-- a_i -->
     <g transform="translate(15.204988 76.435391)scale(0.125 -0.125)">
      <use xlink:href="#DejaVuSans-61"/>
      <use xlink:href="#DejaVuSans-5f" x="61.279297"/>
      <use xlink:href="#DejaVuSans-69" x="111.279297"/>
     </g>
    </g>
   </g>
   <g id="text_5">
    <g clip-path="url(#p0454cde56b)">
     <!-- c_i -->
     <g transform="translate(15.992097 91.735391)scale(0.125 -0.125)">
      <defs>
       <path id="DejaVuSans-63" d="M 3122 3366 
L 3122 2828 
Q 2878 2963 2633 3030 
Q 2388 3097 2138 3097 
Q 1578 3097 1268 2742 
Q 959 2388 959 1747 
Q 959 1106 1268 751 
Q 1578 397 2138 397 
Q 2388 397 2633 464 
Q 2878 531 3122 666 
L 3122 134 
Q 2881 22 2623 -34 
Q 2366 -91 2075 -91 
Q 1284 -91 818 406 
Q 353 903 353 1747 
Q 353 2603 823 3093 
Q 1294 3584 2113 3584 
Q 2378 3584 2631 3529 
Q 2884 3475 3122 3366 
z
" transform="scale(0.015625)"/>
      </defs>
      <use xlink:href="#DejaVuSans-63"/>
      <use xlink:href="#DejaVuSans-5f" x="54.980469"/>
      <use xlink:href="#DejaVuSans-69" x="104.980469"/>
     </g>
    </g>
   </g>
   <g id="text_6">
    <g clip-path="url(#p0454cde56b)">
     <!-- b_i -->
     <g transform="translate(14.929597 122.335391)scale(0.125 -0.125)">
      <use xlink:href="#DejaVuSans-62"/>
      <use xlink:href="#DejaVuSans-5f" x="63.476562"/>
      <use xlink:href="#DejaVuSans-69" x="113.476562"/>
     </g>
    </g>
   </g>
   <g id="text_7">
    <g clip-path="url(#p0454cde56b)">
     <!-- c_i -->
     <g transform="translate(15.992097 137.635391)scale(0.125 -0.125)">
      <use xlink:href="#DejaVuSans-63"/>
      <use xlink:href="#DejaVuSans-5f" x="54.980469"/>
      <use xlink:href="#DejaVuSans-69" x="104.980469"/>
     </g>
    </g>
   </g>
  </g>
 </g>
 <defs>
  <clipPath id="p0454cde56b">
   <rect x="7.2" y="7.2" width="177.8982" height="141.1"/>
  </clipPath>
 </defs>
</svg>
