<?xml version="1.0" encoding="utf-8" standalone="no"?>
<!DOCTYPE svg PUBLIC "-//W3C//DTD SVG 1.1//EN"
  "http://www.w3.org/Graphics/SVG/1.1/DTD/svg11.dtd">
<svg xmlns:xlink="http://www.w3.org/1999/xlink" width="389.0664pt" height="50.1pt" viewBox="0 0 389.0664 50.1" xmlns="http://www.w3.org/2000/svg" version="1.1">
 <metadata>
  <rdf:RDF xmlns:dc="http://purl.org/dc/elements/1.1/" xmlns:cc="http://creativecommons.org/ns#" xmlns:rdf="http://www.w3.org/1999/02/22-rdf-syntax-ns#">
   <cc:Work>
    <dc:type rdf:resource="http://purl.org/dc/dcmitype/StillImage"/>
    <dc:date>2022-01-24T09:50:39.744099</dc:date>
    <dc:format>image/svg+xml</dc:format>
    <dc:creator>
     <cc:Agent>
      <dc:title>Matplotlib v3.5.1, https://matplotlib.org/</dc:title>
     </cc:Agent>
    </dc:creator>
   </cc:Work>
  </rdf:RDF>
 </metadata>
 <defs>
  <style type="text/css">*{stroke-linejoin: round; stroke-linecap: butt}</style>
 </defs>
 <g id="figure_1">
  <g id="patch_1">
   <path d="M 0 50.1 
L 389.0664 50.1 
L 389.0664 0 
L 0 0 
L 0 50.1 
z
" style="fill: none"/>
  </g>
  <g id="axes_1">
   <g id="line2d_1">
    <path d="M 57.5064 10.77 
L 57.5064 39.84 
" clip-path="url(#pcaf18c2e43)" style="fill: none; stroke-dasharray: 1,1.65; stroke-dashoffset: 0; stroke: #dddddd"/>
   </g>
   <g id="line2d_2">
    <path d="M 103.4064 10.77 
L 103.4064 39.84 
" clip-path="url(#pcaf18c2e43)" style="fill: none; stroke-dasharray: 1,1.65; stroke-dashoffset: 0; stroke: #dddddd"/>
   </g>
   <g id="line2d_3">
    <path d="M 149.3064 10.77 
L 149.3064 39.84 
" clip-path="url(#pcaf18c2e43)" style="fill: none; stroke-dasharray: 1,1.65; stroke-dashoffset: 0; stroke: #dddddd"/>
   </g>
   <g id="line2d_4">
    <path d="M 195.2064 10.77 
L 195.2064 39.84 
" clip-path="url(#pcaf18c2e43)" style="fill: none; stroke-dasharray: 1,1.65; stroke-dashoffset: 0; stroke: #dddddd"/>
   </g>
   <g id="line2d_5">
    <path d="M 241.1064 10.77 
L 241.1064 39.84 
" clip-path="url(#pcaf18c2e43)" style="fill: none; stroke-dasharray: 1,1.65; stroke-dashoffset: 0; stroke: #dddddd"/>
   </g>
   <g id="line2d_6">
    <path d="M 287.0064 10.77 
L 287.0064 39.84 
" clip-path="url(#pcaf18c2e43)" style="fill: none; stroke-dasharray: 1,1.65; stroke-dashoffset: 0; stroke: #dddddd"/>
   </g>
   <g id="line2d_7">
    <path d="M 332.9064 10.77 
L 332.9064 39.84 
" clip-path="url(#pcaf18c2e43)" style="fill: none; stroke-dasharray: 1,1.65; stroke-dashoffset: 0; stroke: #dddddd"/>
   </g>
   <g id="line2d_8">
    <path d="M 378.8064 10.77 
L 378.8064 39.84 
" clip-path="url(#pcaf18c2e43)" style="fill: none; stroke-dasharray: 1,1.65; stroke-dashoffset: 0; stroke: #dddddd"/>
   </g>
   <g id="line2d_9">
    <path d="M 57.5064 30.66 
L 57.5064 15.36 
L 80.4564 15.36 
L 80.4564 30.66 
L 103.4064 30.66 
L 103.4064 15.36 
L 126.3564 15.36 
L 126.3564 30.66 
L 149.3064 30.66 
L 149.3064 15.36 
L 172.2564 15.36 
L 172.2564 30.66 
L 195.2064 30.66 
L 195.2064 15.36 
L 218.1564 15.36 
L 218.1564 30.66 
L 241.1064 30.66 
L 241.1064 15.36 
L 264.0564 15.36 
L 264.0564 30.66 
L 287.0064 30.66 
L 287.0064 15.36 
L 309.9564 15.36 
L 309.9564 30.66 
L 332.9064 30.66 
L 332.9064 15.36 
L 355.8564 15.36 
L 355.8564 30.66 
L 378.8064 30.66 
" clip-path="url(#p62900ba0fb)" style="fill: none; stroke: #000000; stroke-linecap: round"/>
   </g>
   <g id="text_1">
    <g clip-path="url(#pcaf18c2e43)">
     <!-- horloge -->
     <g style="fill: #0000ff" transform="translate(11.522494 28.476328)scale(0.105 -0.105)">
      <defs>
       <path id="DejaVuSans-68" d="M 3513 2113 
L 3513 0 
L 2938 0 
L 2938 2094 
Q 2938 2591 2744 2837 
Q 2550 3084 2163 3084 
Q 1697 3084 1428 2787 
Q 1159 2491 1159 1978 
L 1159 0 
L 581 0 
L 581 4863 
L 1159 4863 
L 1159 2956 
Q 1366 3272 1645 3428 
Q 1925 3584 2291 3584 
Q 2894 3584 3203 3211 
Q 3513 2838 3513 2113 
z
" transform="scale(0.015625)"/>
       <path id="DejaVuSans-6f" d="M 1959 3097 
Q 1497 3097 1228 2736 
Q 959 2375 959 1747 
Q 959 1119 1226 758 
Q 1494 397 1959 397 
Q 2419 397 2687 759 
Q 2956 1122 2956 1747 
Q 2956 2369 2687 2733 
Q 2419 3097 1959 3097 
z
M 1959 3584 
Q 2709 3584 3137 3096 
Q 3566 2609 3566 1747 
Q 3566 888 3137 398 
Q 2709 -91 1959 -91 
Q 1206 -91 779 398 
Q 353 888 353 1747 
Q 353 2609 779 3096 
Q 1206 3584 1959 3584 
z
" transform="scale(0.015625)"/>
       <path id="DejaVuSans-72" d="M 2631 2963 
Q 2534 3019 2420 3045 
Q 2306 3072 2169 3072 
Q 1681 3072 1420 2755 
Q 1159 2438 1159 1844 
L 1159 0 
L 581 0 
L 581 3500 
L 1159 3500 
L 1159 2956 
Q 1341 3275 1631 3429 
Q 1922 3584 2338 3584 
Q 2397 3584 2469 3576 
Q 2541 3569 2628 3553 
L 2631 2963 
z
" transform="scale(0.015625)"/>
       <path id="DejaVuSans-6c" d="M 603 4863 
L 1178 4863 
L 1178 0 
L 603 0 
L 603 4863 
z
" transform="scale(0.015625)"/>
       <path id="DejaVuSans-67" d="M 2906 1791 
Q 2906 2416 2648 2759 
Q 2391 3103 1925 3103 
Q 1463 3103 1205 2759 
Q 947 2416 947 1791 
Q 947 1169 1205 825 
Q 1463 481 1925 481 
Q 2391 481 2648 825 
Q 2906 1169 2906 1791 
z
M 3481 434 
Q 3481 -459 3084 -895 
Q 2688 -1331 1869 -1331 
Q 1566 -1331 1297 -1286 
Q 1028 -1241 775 -1147 
L 775 -588 
Q 1028 -725 1275 -790 
Q 1522 -856 1778 -856 
Q 2344 -856 2625 -561 
Q 2906 -266 2906 331 
L 2906 616 
Q 2728 306 2450 153 
Q 2172 0 1784 0 
Q 1141 0 747 490 
Q 353 981 353 1791 
Q 353 2603 747 3093 
Q 1141 3584 1784 3584 
Q 2172 3584 2450 3431 
Q 2728 3278 2906 2969 
L 2906 3500 
L 3481 3500 
L 3481 434 
z
" transform="scale(0.015625)"/>
       <path id="DejaVuSans-65" d="M 3597 1894 
L 3597 1613 
L 953 1613 
Q 991 1019 1311 708 
Q 1631 397 2203 397 
Q 2534 397 2845 478 
Q 3156 559 3463 722 
L 3463 178 
Q 3153 47 2828 -22 
Q 2503 -91 2169 -91 
Q 1331 -91 842 396 
Q 353 884 353 1716 
Q 353 2575 817 3079 
Q 1281 3584 2069 3584 
Q 2775 3584 3186 3129 
Q 3597 2675 3597 1894 
z
M 3022 2063 
Q 3016 2534 2758 2815 
Q 2500 3097 2075 3097 
Q 1594 3097 1305 2825 
Q 1016 2553 972 2059 
L 3022 2063 
z
" transform="scale(0.015625)"/>
      </defs>
      <use xlink:href="#DejaVuSans-68"/>
      <use xlink:href="#DejaVuSans-6f" x="63.378906"/>
      <use xlink:href="#DejaVuSans-72" x="124.560547"/>
      <use xlink:href="#DejaVuSans-6c" x="165.673828"/>
      <use xlink:href="#DejaVuSans-6f" x="193.457031"/>
      <use xlink:href="#DejaVuSans-67" x="254.638672"/>
      <use xlink:href="#DejaVuSans-65" x="318.115234"/>
     </g>
    </g>
   </g>
  </g>
 </g>
 <defs>
  <clipPath id="pcaf18c2e43">
   <rect x="7.2" y="7.2" width="374.6664" height="35.7"/>
  </clipPath>
  <clipPath id="p62900ba0fb">
   <rect x="57.5064" y="15.36" width="321.3" height="39.78"/>
  </clipPath>
 </defs>
</svg>
