<?xml version="1.0" encoding="utf-8" standalone="no"?>
<!DOCTYPE svg PUBLIC "-//W3C//DTD SVG 1.1//EN"
  "http://www.w3.org/Graphics/SVG/1.1/DTD/svg11.dtd">
<svg xmlns:xlink="http://www.w3.org/1999/xlink" width="434.6604pt" height="74.58pt" viewBox="0 0 434.6604 74.58" xmlns="http://www.w3.org/2000/svg" version="1.1">
 <metadata>
  <rdf:RDF xmlns:dc="http://purl.org/dc/elements/1.1/" xmlns:cc="http://creativecommons.org/ns#" xmlns:rdf="http://www.w3.org/1999/02/22-rdf-syntax-ns#">
   <cc:Work>
    <dc:type rdf:resource="http://purl.org/dc/dcmitype/StillImage"/>
    <dc:date>2022-01-24T10:07:16.458235</dc:date>
    <dc:format>image/svg+xml</dc:format>
    <dc:creator>
     <cc:Agent>
      <dc:title>Matplotlib v3.5.1, https://matplotlib.org/</dc:title>
     </cc:Agent>
    </dc:creator>
   </cc:Work>
  </rdf:RDF>
 </metadata>
 <defs>
  <style type="text/css">*{stroke-linejoin: round; stroke-linecap: butt}</style>
 </defs>
 <g id="figure_1">
  <g id="patch_1">
   <path d="M 0 74.58 
L 434.6604 74.58 
L 434.6604 0 
L 0 0 
L 0 74.58 
z
" style="fill: none"/>
  </g>
  <g id="axes_1">
   <g id="line2d_1">
    <path d="M 103.1004 10.77 
L 103.1004 64.32 
" clip-path="url(#paf22a8813f)" style="fill: none; stroke-dasharray: 1,1.65; stroke-dashoffset: 0; stroke: #dddddd"/>
   </g>
   <g id="line2d_2">
    <path d="M 149.0004 10.77 
L 149.0004 64.32 
" clip-path="url(#paf22a8813f)" style="fill: none; stroke-dasharray: 1,1.65; stroke-dashoffset: 0; stroke: #dddddd"/>
   </g>
   <g id="line2d_3">
    <path d="M 194.9004 10.77 
L 194.9004 64.32 
" clip-path="url(#paf22a8813f)" style="fill: none; stroke-dasharray: 1,1.65; stroke-dashoffset: 0; stroke: #dddddd"/>
   </g>
   <g id="line2d_4">
    <path d="M 240.8004 10.77 
L 240.8004 64.32 
" clip-path="url(#paf22a8813f)" style="fill: none; stroke-dasharray: 1,1.65; stroke-dashoffset: 0; stroke: #dddddd"/>
   </g>
   <g id="line2d_5">
    <path d="M 286.7004 10.77 
L 286.7004 64.32 
" clip-path="url(#paf22a8813f)" style="fill: none; stroke-dasharray: 1,1.65; stroke-dashoffset: 0; stroke: #dddddd"/>
   </g>
   <g id="line2d_6">
    <path d="M 332.6004 10.77 
L 332.6004 64.32 
" clip-path="url(#paf22a8813f)" style="fill: none; stroke-dasharray: 1,1.65; stroke-dashoffset: 0; stroke: #dddddd"/>
   </g>
   <g id="line2d_7">
    <path d="M 378.5004 10.77 
L 378.5004 64.32 
" clip-path="url(#paf22a8813f)" style="fill: none; stroke-dasharray: 1,1.65; stroke-dashoffset: 0; stroke: #dddddd"/>
   </g>
   <g id="line2d_8">
    <path d="M 424.4004 10.77 
L 424.4004 64.32 
" clip-path="url(#paf22a8813f)" style="fill: none; stroke-dasharray: 1,1.65; stroke-dashoffset: 0; stroke: #dddddd"/>
   </g>
   <g id="line2d_9">
    <path d="M 103.1004 30.66 
L 103.1004 15.36 
L 126.0504 15.36 
L 126.0504 30.66 
L 149.0004 30.66 
L 149.0004 15.36 
L 171.9504 15.36 
L 171.9504 30.66 
L 194.9004 30.66 
L 194.9004 15.36 
L 217.8504 15.36 
L 217.8504 30.66 
L 240.8004 30.66 
L 240.8004 15.36 
L 263.7504 15.36 
L 263.7504 30.66 
L 286.7004 30.66 
L 286.7004 15.36 
L 309.6504 15.36 
L 309.6504 30.66 
L 332.6004 30.66 
L 332.6004 15.36 
L 355.5504 15.36 
L 355.5504 30.66 
L 378.5004 30.66 
L 378.5004 15.36 
L 401.4504 15.36 
L 401.4504 30.66 
L 424.4004 30.66 
" clip-path="url(#pac0ec42b32)" style="fill: none; stroke: #000000; stroke-linecap: round"/>
   </g>
   <g id="line2d_10">
    <path d="M 103.1004 26.835 
L 103.1004 26.835 
" clip-path="url(#pac0ec42b32)" style="fill: none; stroke: #000000; stroke-linecap: round"/>
   </g>
   <g id="patch_2">
    <path d="M 101.2644 26.835 
L 103.1004 19.185 
L 104.9364 26.835 
z
" clip-path="url(#pac0ec42b32)"/>
   </g>
   <g id="line2d_11">
    <path d="M 149.0004 26.835 
L 149.0004 26.835 
" clip-path="url(#pac0ec42b32)" style="fill: none; stroke: #000000; stroke-linecap: round"/>
   </g>
   <g id="patch_3">
    <path d="M 147.1644 26.835 
L 149.0004 19.185 
L 150.8364 26.835 
z
" clip-path="url(#pac0ec42b32)"/>
   </g>
   <g id="line2d_12">
    <path d="M 194.9004 26.835 
L 194.9004 26.835 
" clip-path="url(#pac0ec42b32)" style="fill: none; stroke: #000000; stroke-linecap: round"/>
   </g>
   <g id="patch_4">
    <path d="M 193.0644 26.835 
L 194.9004 19.185 
L 196.7364 26.835 
z
" clip-path="url(#pac0ec42b32)"/>
   </g>
   <g id="line2d_13">
    <path d="M 240.8004 26.835 
L 240.8004 26.835 
" clip-path="url(#pac0ec42b32)" style="fill: none; stroke: #000000; stroke-linecap: round"/>
   </g>
   <g id="patch_5">
    <path d="M 238.9644 26.835 
L 240.8004 19.185 
L 242.6364 26.835 
z
" clip-path="url(#pac0ec42b32)"/>
   </g>
   <g id="line2d_14">
    <path d="M 286.7004 26.835 
L 286.7004 26.835 
" clip-path="url(#pac0ec42b32)" style="fill: none; stroke: #000000; stroke-linecap: round"/>
   </g>
   <g id="patch_6">
    <path d="M 284.8644 26.835 
L 286.7004 19.185 
L 288.5364 26.835 
z
" clip-path="url(#pac0ec42b32)"/>
   </g>
   <g id="line2d_15">
    <path d="M 332.6004 26.835 
L 332.6004 26.835 
" clip-path="url(#pac0ec42b32)" style="fill: none; stroke: #000000; stroke-linecap: round"/>
   </g>
   <g id="patch_7">
    <path d="M 330.7644 26.835 
L 332.6004 19.185 
L 334.4364 26.835 
z
" clip-path="url(#pac0ec42b32)"/>
   </g>
   <g id="line2d_16">
    <path d="M 378.5004 26.835 
L 378.5004 26.835 
" clip-path="url(#pac0ec42b32)" style="fill: none; stroke: #000000; stroke-linecap: round"/>
   </g>
   <g id="patch_8">
    <path d="M 376.6644 26.835 
L 378.5004 19.185 
L 380.3364 26.835 
z
" clip-path="url(#pac0ec42b32)"/>
   </g>
   <g id="line2d_17">
    <path d="M 103.1004 39.84 
L 103.1004 55.14 
L 126.0504 55.14 
L 126.0504 39.84 
L 149.0004 39.84 
L 149.0004 55.14 
L 171.9504 55.14 
L 171.9504 39.84 
L 194.9004 39.84 
L 194.9004 55.14 
L 217.8504 55.14 
L 217.8504 39.84 
L 240.8004 39.84 
L 240.8004 55.14 
L 263.7504 55.14 
L 263.7504 39.84 
L 286.7004 39.84 
L 286.7004 55.14 
L 309.6504 55.14 
L 309.6504 39.84 
L 332.6004 39.84 
L 332.6004 55.14 
L 355.5504 55.14 
L 355.5504 39.84 
L 378.5004 39.84 
L 378.5004 55.14 
L 401.4504 55.14 
L 401.4504 39.84 
L 424.4004 39.84 
" clip-path="url(#pac0ec42b32)" style="fill: none; stroke: #000000; stroke-linecap: round"/>
   </g>
   <g id="line2d_18">
    <path d="M 103.1004 43.665 
L 103.1004 43.665 
" clip-path="url(#pac0ec42b32)" style="fill: none; stroke: #000000; stroke-linecap: round"/>
   </g>
   <g id="patch_9">
    <path d="M 104.9364 43.665 
L 103.1004 51.315 
L 101.2644 43.665 
z
" clip-path="url(#pac0ec42b32)"/>
   </g>
   <g id="line2d_19">
    <path d="M 149.0004 43.665 
L 149.0004 43.665 
" clip-path="url(#pac0ec42b32)" style="fill: none; stroke: #000000; stroke-linecap: round"/>
   </g>
   <g id="patch_10">
    <path d="M 150.8364 43.665 
L 149.0004 51.315 
L 147.1644 43.665 
z
" clip-path="url(#pac0ec42b32)"/>
   </g>
   <g id="line2d_20">
    <path d="M 194.9004 43.665 
L 194.9004 43.665 
" clip-path="url(#pac0ec42b32)" style="fill: none; stroke: #000000; stroke-linecap: round"/>
   </g>
   <g id="patch_11">
    <path d="M 196.7364 43.665 
L 194.9004 51.315 
L 193.0644 43.665 
z
" clip-path="url(#pac0ec42b32)"/>
   </g>
   <g id="line2d_21">
    <path d="M 240.8004 43.665 
L 240.8004 43.665 
" clip-path="url(#pac0ec42b32)" style="fill: none; stroke: #000000; stroke-linecap: round"/>
   </g>
   <g id="patch_12">
    <path d="M 242.6364 43.665 
L 240.8004 51.315 
L 238.9644 43.665 
z
" clip-path="url(#pac0ec42b32)"/>
   </g>
   <g id="line2d_22">
    <path d="M 286.7004 43.665 
L 286.7004 43.665 
" clip-path="url(#pac0ec42b32)" style="fill: none; stroke: #000000; stroke-linecap: round"/>
   </g>
   <g id="patch_13">
    <path d="M 288.5364 43.665 
L 286.7004 51.315 
L 284.8644 43.665 
z
" clip-path="url(#pac0ec42b32)"/>
   </g>
   <g id="line2d_23">
    <path d="M 332.6004 43.665 
L 332.6004 43.665 
" clip-path="url(#pac0ec42b32)" style="fill: none; stroke: #000000; stroke-linecap: round"/>
   </g>
   <g id="patch_14">
    <path d="M 334.4364 43.665 
L 332.6004 51.315 
L 330.7644 43.665 
z
" clip-path="url(#pac0ec42b32)"/>
   </g>
   <g id="line2d_24">
    <path d="M 378.5004 43.665 
L 378.5004 43.665 
" clip-path="url(#pac0ec42b32)" style="fill: none; stroke: #000000; stroke-linecap: round"/>
   </g>
   <g id="patch_15">
    <path d="M 380.3364 43.665 
L 378.5004 51.315 
L 376.6644 43.665 
z
" clip-path="url(#pac0ec42b32)"/>
   </g>
   <g id="text_1">
    <g clip-path="url(#paf22a8813f)">
     <!-- Front montant -->
     <g style="fill: #0000ff" transform="translate(22.461572 28.476328)scale(0.105 -0.105)">
      <defs>
       <path id="DejaVuSans-46" d="M 628 4666 
L 3309 4666 
L 3309 4134 
L 1259 4134 
L 1259 2759 
L 3109 2759 
L 3109 2228 
L 1259 2228 
L 1259 0 
L 628 0 
L 628 4666 
z
" transform="scale(0.015625)"/>
       <path id="DejaVuSans-72" d="M 2631 2963 
Q 2534 3019 2420 3045 
Q 2306 3072 2169 3072 
Q 1681 3072 1420 2755 
Q 1159 2438 1159 1844 
L 1159 0 
L 581 0 
L 581 3500 
L 1159 3500 
L 1159 2956 
Q 1341 3275 1631 3429 
Q 1922 3584 2338 3584 
Q 2397 3584 2469 3576 
Q 2541 3569 2628 3553 
L 2631 2963 
z
" transform="scale(0.015625)"/>
       <path id="DejaVuSans-6f" d="M 1959 3097 
Q 1497 3097 1228 2736 
Q 959 2375 959 1747 
Q 959 1119 1226 758 
Q 1494 397 1959 397 
Q 2419 397 2687 759 
Q 2956 1122 2956 1747 
Q 2956 2369 2687 2733 
Q 2419 3097 1959 3097 
z
M 1959 3584 
Q 2709 3584 3137 3096 
Q 3566 2609 3566 1747 
Q 3566 888 3137 398 
Q 2709 -91 1959 -91 
Q 1206 -91 779 398 
Q 353 888 353 1747 
Q 353 2609 779 3096 
Q 1206 3584 1959 3584 
z
" transform="scale(0.015625)"/>
       <path id="DejaVuSans-6e" d="M 3513 2113 
L 3513 0 
L 2938 0 
L 2938 2094 
Q 2938 2591 2744 2837 
Q 2550 3084 2163 3084 
Q 1697 3084 1428 2787 
Q 1159 2491 1159 1978 
L 1159 0 
L 581 0 
L 581 3500 
L 1159 3500 
L 1159 2956 
Q 1366 3272 1645 3428 
Q 1925 3584 2291 3584 
Q 2894 3584 3203 3211 
Q 3513 2838 3513 2113 
z
" transform="scale(0.015625)"/>
       <path id="DejaVuSans-74" d="M 1172 4494 
L 1172 3500 
L 2356 3500 
L 2356 3053 
L 1172 3053 
L 1172 1153 
Q 1172 725 1289 603 
Q 1406 481 1766 481 
L 2356 481 
L 2356 0 
L 1766 0 
Q 1100 0 847 248 
Q 594 497 594 1153 
L 594 3053 
L 172 3053 
L 172 3500 
L 594 3500 
L 594 4494 
L 1172 4494 
z
" transform="scale(0.015625)"/>
       <path id="DejaVuSans-20" transform="scale(0.015625)"/>
       <path id="DejaVuSans-6d" d="M 3328 2828 
Q 3544 3216 3844 3400 
Q 4144 3584 4550 3584 
Q 5097 3584 5394 3201 
Q 5691 2819 5691 2113 
L 5691 0 
L 5113 0 
L 5113 2094 
Q 5113 2597 4934 2840 
Q 4756 3084 4391 3084 
Q 3944 3084 3684 2787 
Q 3425 2491 3425 1978 
L 3425 0 
L 2847 0 
L 2847 2094 
Q 2847 2600 2669 2842 
Q 2491 3084 2119 3084 
Q 1678 3084 1418 2786 
Q 1159 2488 1159 1978 
L 1159 0 
L 581 0 
L 581 3500 
L 1159 3500 
L 1159 2956 
Q 1356 3278 1631 3431 
Q 1906 3584 2284 3584 
Q 2666 3584 2933 3390 
Q 3200 3197 3328 2828 
z
" transform="scale(0.015625)"/>
       <path id="DejaVuSans-61" d="M 2194 1759 
Q 1497 1759 1228 1600 
Q 959 1441 959 1056 
Q 959 750 1161 570 
Q 1363 391 1709 391 
Q 2188 391 2477 730 
Q 2766 1069 2766 1631 
L 2766 1759 
L 2194 1759 
z
M 3341 1997 
L 3341 0 
L 2766 0 
L 2766 531 
Q 2569 213 2275 61 
Q 1981 -91 1556 -91 
Q 1019 -91 701 211 
Q 384 513 384 1019 
Q 384 1609 779 1909 
Q 1175 2209 1959 2209 
L 2766 2209 
L 2766 2266 
Q 2766 2663 2505 2880 
Q 2244 3097 1772 3097 
Q 1472 3097 1187 3025 
Q 903 2953 641 2809 
L 641 3341 
Q 956 3463 1253 3523 
Q 1550 3584 1831 3584 
Q 2591 3584 2966 3190 
Q 3341 2797 3341 1997 
z
" transform="scale(0.015625)"/>
      </defs>
      <use xlink:href="#DejaVuSans-46"/>
      <use xlink:href="#DejaVuSans-72" x="50.269531"/>
      <use xlink:href="#DejaVuSans-6f" x="89.132812"/>
      <use xlink:href="#DejaVuSans-6e" x="150.314453"/>
      <use xlink:href="#DejaVuSans-74" x="213.693359"/>
      <use xlink:href="#DejaVuSans-20" x="252.902344"/>
      <use xlink:href="#DejaVuSans-6d" x="284.689453"/>
      <use xlink:href="#DejaVuSans-6f" x="382.101562"/>
      <use xlink:href="#DejaVuSans-6e" x="443.283203"/>
      <use xlink:href="#DejaVuSans-74" x="506.662109"/>
      <use xlink:href="#DejaVuSans-61" x="545.871094"/>
      <use xlink:href="#DejaVuSans-6e" x="607.150391"/>
      <use xlink:href="#DejaVuSans-74" x="670.529297"/>
     </g>
    </g>
   </g>
   <g id="text_2">
    <g clip-path="url(#paf22a8813f)">
     <!-- Front descendant -->
     <g style="fill: #0000ff" transform="translate(5.733759 52.956328)scale(0.105 -0.105)">
      <defs>
       <path id="DejaVuSans-64" d="M 2906 2969 
L 2906 4863 
L 3481 4863 
L 3481 0 
L 2906 0 
L 2906 525 
Q 2725 213 2448 61 
Q 2172 -91 1784 -91 
Q 1150 -91 751 415 
Q 353 922 353 1747 
Q 353 2572 751 3078 
Q 1150 3584 1784 3584 
Q 2172 3584 2448 3432 
Q 2725 3281 2906 2969 
z
M 947 1747 
Q 947 1113 1208 752 
Q 1469 391 1925 391 
Q 2381 391 2643 752 
Q 2906 1113 2906 1747 
Q 2906 2381 2643 2742 
Q 2381 3103 1925 3103 
Q 1469 3103 1208 2742 
Q 947 2381 947 1747 
z
" transform="scale(0.015625)"/>
       <path id="DejaVuSans-65" d="M 3597 1894 
L 3597 1613 
L 953 1613 
Q 991 1019 1311 708 
Q 1631 397 2203 397 
Q 2534 397 2845 478 
Q 3156 559 3463 722 
L 3463 178 
Q 3153 47 2828 -22 
Q 2503 -91 2169 -91 
Q 1331 -91 842 396 
Q 353 884 353 1716 
Q 353 2575 817 3079 
Q 1281 3584 2069 3584 
Q 2775 3584 3186 3129 
Q 3597 2675 3597 1894 
z
M 3022 2063 
Q 3016 2534 2758 2815 
Q 2500 3097 2075 3097 
Q 1594 3097 1305 2825 
Q 1016 2553 972 2059 
L 3022 2063 
z
" transform="scale(0.015625)"/>
       <path id="DejaVuSans-73" d="M 2834 3397 
L 2834 2853 
Q 2591 2978 2328 3040 
Q 2066 3103 1784 3103 
Q 1356 3103 1142 2972 
Q 928 2841 928 2578 
Q 928 2378 1081 2264 
Q 1234 2150 1697 2047 
L 1894 2003 
Q 2506 1872 2764 1633 
Q 3022 1394 3022 966 
Q 3022 478 2636 193 
Q 2250 -91 1575 -91 
Q 1294 -91 989 -36 
Q 684 19 347 128 
L 347 722 
Q 666 556 975 473 
Q 1284 391 1588 391 
Q 1994 391 2212 530 
Q 2431 669 2431 922 
Q 2431 1156 2273 1281 
Q 2116 1406 1581 1522 
L 1381 1569 
Q 847 1681 609 1914 
Q 372 2147 372 2553 
Q 372 3047 722 3315 
Q 1072 3584 1716 3584 
Q 2034 3584 2315 3537 
Q 2597 3491 2834 3397 
z
" transform="scale(0.015625)"/>
       <path id="DejaVuSans-63" d="M 3122 3366 
L 3122 2828 
Q 2878 2963 2633 3030 
Q 2388 3097 2138 3097 
Q 1578 3097 1268 2742 
Q 959 2388 959 1747 
Q 959 1106 1268 751 
Q 1578 397 2138 397 
Q 2388 397 2633 464 
Q 2878 531 3122 666 
L 3122 134 
Q 2881 22 2623 -34 
Q 2366 -91 2075 -91 
Q 1284 -91 818 406 
Q 353 903 353 1747 
Q 353 2603 823 3093 
Q 1294 3584 2113 3584 
Q 2378 3584 2631 3529 
Q 2884 3475 3122 3366 
z
" transform="scale(0.015625)"/>
      </defs>
      <use xlink:href="#DejaVuSans-46"/>
      <use xlink:href="#DejaVuSans-72" x="50.269531"/>
      <use xlink:href="#DejaVuSans-6f" x="89.132812"/>
      <use xlink:href="#DejaVuSans-6e" x="150.314453"/>
      <use xlink:href="#DejaVuSans-74" x="213.693359"/>
      <use xlink:href="#DejaVuSans-20" x="252.902344"/>
      <use xlink:href="#DejaVuSans-64" x="284.689453"/>
      <use xlink:href="#DejaVuSans-65" x="348.166016"/>
      <use xlink:href="#DejaVuSans-73" x="409.689453"/>
      <use xlink:href="#DejaVuSans-63" x="461.789062"/>
      <use xlink:href="#DejaVuSans-65" x="516.769531"/>
      <use xlink:href="#DejaVuSans-6e" x="578.292969"/>
      <use xlink:href="#DejaVuSans-64" x="641.671875"/>
      <use xlink:href="#DejaVuSans-61" x="705.148438"/>
      <use xlink:href="#DejaVuSans-6e" x="766.427734"/>
      <use xlink:href="#DejaVuSans-74" x="829.806641"/>
     </g>
    </g>
   </g>
  </g>
 </g>
 <defs>
  <clipPath id="paf22a8813f">
   <rect x="7.2" y="7.2" width="420.2604" height="60.18"/>
  </clipPath>
  <clipPath id="pac0ec42b32">
   <rect x="103.1004" y="15.36" width="321.3" height="64.26"/>
  </clipPath>
 </defs>
</svg>
