<?xml version="1.0" encoding="UTF-8" standalone="no"?>
<!-- Created with Digital by H.Neemann -->
<!-- created: Sat Jan 29 07:42:04 EST 2022 -->

<svg
   xmlns:svg="http://www.w3.org/2000/svg"
   xmlns="http://www.w3.org/2000/svg"
   width="80.25mm"
   height="77.1mm"
   viewBox="227 -317 535 514">
<g stroke-linecap="square">
<path d="M 272,-285 L 297,-285 L 297,-310 L 322,-310 L 347,-310 L 347,-285 L 372,-285 L 397,-285 L 422,-285 L 447,-285 L 472,-285 L 497,-285 L 497,-310 L 522,-310 L 547,-310 L 547,-285 L 572,-285 L 597,-285 L 622,-285 L 647,-285 L 672,-285 L 697,-285 L 697,-310 L 722,-310 L 747,-310" stroke="#000000" stroke-width="4.0" fill="none"/>
<path d="M 272,-250 L 297,-250 L 322,-250 L 347,-250 L 347,-275 L 372,-275 L 397,-275 L 397,-250 L 422,-250 L 447,-250 L 472,-250 L 497,-250 L 522,-250 L 547,-250 L 547,-275 L 572,-275 L 597,-275 L 597,-250 L 622,-250 L 647,-250 L 672,-250 L 697,-250 L 722,-250 L 747,-250" stroke="#000000" stroke-width="4.0" fill="none"/>
<path d="M 272,-215 L 297,-215 L 322,-215 L 347,-215 L 372,-215 L 397,-215 L 397,-240 L 422,-240 L 447,-240 L 447,-215 L 472,-215 L 497,-215 L 522,-215 L 547,-215 L 572,-215 L 597,-215 L 597,-240 L 622,-240 L 647,-240 L 647,-215 L 672,-215 L 697,-215 L 722,-215 L 747,-215" stroke="#000000" stroke-width="4.0" fill="none"/>
<path d="M 272,-205 L 297,-205 L 297,-180 L 322,-180 L 347,-180 L 372,-180 L 397,-180 L 422,-180 L 447,-180 L 447,-205 L 472,-205 L 497,-205 L 497,-180 L 522,-180 L 547,-180 L 572,-180 L 597,-180 L 622,-180 L 647,-180 L 647,-205 L 672,-205 L 697,-205 L 697,-180 L 722,-180 L 747,-180" stroke="#000000" stroke-width="4.0" fill="none"/>
<path d="M 272,-145 L 297,-145 L 297,-170 L 322,-170 L 322,-145 L 347,-145 L 347,-170 L 372,-170 L 372,-145 L 397,-145 L 397,-170 L 422,-170 L 422,-145 L 447,-145 L 447,-170 L 472,-170 L 472,-145 L 497,-145 L 497,-170 L 522,-170 L 522,-145 L 547,-145 L 547,-170 L 572,-170 L 572,-145 L 597,-145 L 597,-170 L 622,-170 L 622,-145 L 647,-145 L 647,-170 L 672,-170 L 672,-145 L 697,-145 L 697,-170 L 722,-170 L 722,-145 L 747,-145" stroke="#000000" stroke-width="4.0" fill="none"/>
<path d="M 680,0 L 700,0" stroke="#008e00" stroke-width="4.0" fill="none"/>
<path d="M 680,160 L 700,160" stroke="#008e00" stroke-width="4.0" fill="none"/>
<path d="M 260,140 L 300,140 L 300,120" stroke="#008e00" stroke-width="4.0" fill="none"/>
<path d="M 380,80 L 400,80 L 400,180 L 580,180 L 620,180" stroke="#008e00" stroke-width="4.0" fill="none"/>
<path d="M 680,80 L 700,80" stroke="#008e00" stroke-width="4.0" fill="none"/>
<path d="M 580,180 L 580,-20 L 620,-20" stroke="#008e00" stroke-width="4.0" fill="none"/>
<path d="M 600,60 L 600,20 L 620,20" stroke="#008e00" stroke-width="4.0" fill="none"/>
<path d="M 300,140 L 300,180 L 320,180" stroke="#008e00" stroke-width="4.0" fill="none"/>
<path d="M 500,60 L 600,60 L 620,60" stroke="#008e00" stroke-width="4.0" fill="none"/>
<path d="M 320,80 L 300,80 L 300,120 L 420,120 L 420,80 L 440,80" stroke="#008e00" stroke-width="4.0" fill="none"/>
<path d="M 272,-280 L 747,-280" stroke-dasharray="4.0,4.0" stroke="#000000" stroke-width="1.0" fill="none"/>
<path d="M 272,-245 L 747,-245" stroke-dasharray="4.0,4.0" stroke="#000000" stroke-width="1.0" fill="none"/>
<path d="M 272,-210 L 747,-210" stroke-dasharray="4.0,4.0" stroke="#000000" stroke-width="1.0" fill="none"/>
<path d="M 272,-175 L 747,-175" stroke-dasharray="4.0,4.0" stroke="#000000" stroke-width="1.0" fill="none"/>
<path d="M 747,-315 L 272,-315 L 272,-140 L 747,-140 Z" stroke-dasharray="4.0,4.0" stroke="#000000" stroke-width="1.0" fill="none"/>
<path d="M 297,-315 L 297,-140" stroke-dasharray="4.0,4.0" stroke="#000000" stroke-width="1.0" fill="none"/>
<path d="M 322,-315 L 322,-140" stroke-dasharray="4.0,4.0" stroke="#000000" stroke-width="1.0" fill="none"/>
<path d="M 347,-315 L 347,-140" stroke-dasharray="4.0,4.0" stroke="#000000" stroke-width="1.0" fill="none"/>
<path d="M 372,-315 L 372,-140" stroke-dasharray="4.0,4.0" stroke="#000000" stroke-width="1.0" fill="none"/>
<path d="M 397,-315 L 397,-140" stroke-dasharray="4.0,4.0" stroke="#000000" stroke-width="1.0" fill="none"/>
<path d="M 422,-315 L 422,-140" stroke-dasharray="4.0,4.0" stroke="#000000" stroke-width="1.0" fill="none"/>
<path d="M 447,-315 L 447,-140" stroke-dasharray="4.0,4.0" stroke="#000000" stroke-width="1.0" fill="none"/>
<path d="M 472,-315 L 472,-140" stroke-dasharray="4.0,4.0" stroke="#000000" stroke-width="1.0" fill="none"/>
<path d="M 497,-315 L 497,-140" stroke-dasharray="4.0,4.0" stroke="#000000" stroke-width="1.0" fill="none"/>
<path d="M 522,-315 L 522,-140" stroke-dasharray="4.0,4.0" stroke="#000000" stroke-width="1.0" fill="none"/>
<path d="M 547,-315 L 547,-140" stroke-dasharray="4.0,4.0" stroke="#000000" stroke-width="1.0" fill="none"/>
<path d="M 572,-315 L 572,-140" stroke-dasharray="4.0,4.0" stroke="#000000" stroke-width="1.0" fill="none"/>
<path d="M 597,-315 L 597,-140" stroke-dasharray="4.0,4.0" stroke="#000000" stroke-width="1.0" fill="none"/>
<path d="M 622,-315 L 622,-140" stroke-dasharray="4.0,4.0" stroke="#000000" stroke-width="1.0" fill="none"/>
<path d="M 647,-315 L 647,-140" stroke-dasharray="4.0,4.0" stroke="#000000" stroke-width="1.0" fill="none"/>
<path d="M 672,-315 L 672,-140" stroke-dasharray="4.0,4.0" stroke="#000000" stroke-width="1.0" fill="none"/>
<path d="M 697,-315 L 697,-140" stroke-dasharray="4.0,4.0" stroke="#000000" stroke-width="1.0" fill="none"/>
<path d="M 722,-315 L 722,-140" stroke-dasharray="4.0,4.0" stroke="#000000" stroke-width="1.0" fill="none"/>
<path d="M 560,-60 L 560,100 L 620,100" stroke="#66ff66" stroke-width="4.0" fill="none"/>
<path d="M 520,80 L 520,140 L 620,140" stroke="#66ff66" stroke-width="4.0" fill="none"/>
<path d="M 680,-80 L 700,-80" stroke="#66ff66" stroke-width="4.0" fill="none"/>
<path d="M 500,80 L 520,80 L 520,20 L 280,20 L 280,-100 L 620,-100" stroke="#66ff66" stroke-width="4.0" fill="none"/>
<path d="M 420,60 L 420,-60 L 560,-60 L 620,-60" stroke="#66ff66" stroke-width="4.0" fill="none"/>
<path d="M 380,60 L 420,60 L 440,60" stroke="#66ff66" stroke-width="4.0" fill="none"/>
<path d="M 280,20 L 280,60 L 320,60" stroke="#66ff66" stroke-width="4.0" fill="none"/>
<g>
<circle cx="300.0" cy="140.0" r="4.0" stroke="#008e00" stroke-width="4.0" fill="#008e00" />
<circle cx="520.0" cy="80.0" r="4.0" stroke="#66ff66" stroke-width="4.0" fill="#66ff66" />
<circle cx="280.0" cy="20.0" r="4.0" stroke="#66ff66" stroke-width="4.0" fill="#66ff66" />
<circle cx="580.0" cy="180.0" r="4.0" stroke="#008e00" stroke-width="4.0" fill="#008e00" />
<circle cx="300.0" cy="120.0" r="4.0" stroke="#008e00" stroke-width="4.0" fill="#008e00" />
<circle cx="560.0" cy="-60.0" r="4.0" stroke="#66ff66" stroke-width="4.0" fill="#66ff66" />
<circle cx="420.0" cy="60.0" r="4.0" stroke="#66ff66" stroke-width="4.0" fill="#66ff66" />
<circle cx="600.0" cy="60.0" r="4.0" stroke="#008e00" stroke-width="4.0" fill="#008e00" />
</g>
<g>
<path d="M 321,50 L 379,50 L 379,90 L 321,90 Z" stroke="#000000" stroke-width="4.0" fill="none"/>
<text text-anchor="start" x="324.0" y="66.75" fill="#808080" style="font-size:18px">D</text>
<path d="M 321,87 L 328,80 L 321,73" stroke="#000000" stroke-width="2.0" fill="none"/>
<text text-anchor="start" x="331.0" y="86.75" fill="#808080" style="font-size:18px">C</text>
<text text-anchor="end" x="376.0" y="66.75" fill="#808080" style="font-size:18px">Q</text>
<text text-anchor="end" x="376.0" y="86.75" fill="#808080" style="font-size:18px"><tspan style="text-decoration:overline;">Q</tspan></text>
<text text-anchor="middle" x="350.0" y="107.5" fill="#808080" style="font-size:18px">D</text>
<circle cx="320.0" cy="60.0" r="2.0" stroke="#0000b2" stroke-width="4.0" fill="#0000b2" />
<circle cx="320.0" cy="80.0" r="2.0" stroke="#0000b2" stroke-width="4.0" fill="#0000b2" />
<circle cx="380.0" cy="60.0" r="2.0" stroke="#b20000" stroke-width="4.0" fill="#b20000" />
<circle cx="380.0" cy="80.0" r="2.0" stroke="#b20000" stroke-width="4.0" fill="#b20000" />
</g>
<g>
<path d="M 441,50 L 499,50 L 499,90 L 441,90 Z" stroke="#000000" stroke-width="4.0" fill="none"/>
<text text-anchor="start" x="444.0" y="66.75" fill="#808080" style="font-size:18px">D</text>
<path d="M 441,87 L 448,80 L 441,73" stroke="#000000" stroke-width="2.0" fill="none"/>
<text text-anchor="start" x="451.0" y="86.75" fill="#808080" style="font-size:18px">C</text>
<text text-anchor="end" x="496.0" y="66.75" fill="#808080" style="font-size:18px">Q</text>
<text text-anchor="end" x="496.0" y="86.75" fill="#808080" style="font-size:18px"><tspan style="text-decoration:overline;">Q</tspan></text>
<text text-anchor="middle" x="470.0" y="107.5" fill="#808080" style="font-size:18px">D</text>
<circle cx="440.0" cy="60.0" r="2.0" stroke="#0000b2" stroke-width="4.0" fill="#0000b2" />
<circle cx="440.0" cy="80.0" r="2.0" stroke="#0000b2" stroke-width="4.0" fill="#0000b2" />
<circle cx="500.0" cy="60.0" r="2.0" stroke="#b20000" stroke-width="4.0" fill="#b20000" />
<circle cx="500.0" cy="80.0" r="2.0" stroke="#b20000" stroke-width="4.0" fill="#b20000" />
</g>
<g>
<circle cx="716.0" cy="-80.0" r="9.0" stroke="#66ff66" stroke-width="4.0" fill="#66ff66" />
<circle cx="716.0" cy="-80.0" r="15.0" stroke="#000000" stroke-width="4.0" fill="none" />
<text text-anchor="start" x="745.0" y="-71.0" fill="#000000" style="font-size:24px"><tspan style="font-style:italic;">a</tspan></text>
<circle cx="700.0" cy="-80.0" r="2.0" stroke="#0000b2" stroke-width="4.0" fill="#0000b2" />
</g>
<g>
<path d="M 229,125 L 259,125 L 259,155 L 229,155 Z" stroke="#000000" stroke-width="4.0" fill="none"/>
<path d="M 235,145 L 240,145 L 240,135 L 245,135 L 245,145 L 250,145 L 250,135 L 255,135" stroke="#000000" stroke-width="2.0" fill="none"/>
<circle cx="260.0" cy="140.0" r="2.0" stroke="#b20000" stroke-width="4.0" fill="#b20000" />
</g>
<g>
<text text-anchor="end" x="270.0" y="-289.0" fill="#000000" style="font-size:24px">a</text>
<text text-anchor="end" x="270.0" y="-254.0" fill="#000000" style="font-size:24px">b</text>
<text text-anchor="end" x="270.0" y="-219.0" fill="#000000" style="font-size:24px">c</text>
<text text-anchor="end" x="270.0" y="-184.0" fill="#000000" style="font-size:24px">d</text>
<text text-anchor="end" x="270.0" y="-149.0" fill="#000000" style="font-size:24px">H</text>
</g>
<g>
<path d="M 650,-50 L 621,-50 L 621,-110 L 650,-110 C 660,-110 680,-100 679,-80 C 679,-60 660,-50 650,-50 Z" stroke="#000000" stroke-width="4.0" fill="none"/>
<circle cx="620.0" cy="-100.0" r="2.0" stroke="#0000b2" stroke-width="4.0" fill="#0000b2" />
<circle cx="620.0" cy="-60.0" r="2.0" stroke="#0000b2" stroke-width="4.0" fill="#0000b2" />
<circle cx="680.0" cy="-80.0" r="2.0" stroke="#b20000" stroke-width="4.0" fill="#b20000" />
</g>
<g>
<path d="M 650,30 L 621,30 L 621,-30 L 650,-30 C 660,-30 680,-20 679,0 C 679,20 660,30 650,30 Z" stroke="#000000" stroke-width="4.0" fill="none"/>
<circle cx="620.0" cy="-20.0" r="2.0" stroke="#0000b2" stroke-width="4.0" fill="#0000b2" />
<circle cx="620.0" cy="20.0" r="2.0" stroke="#0000b2" stroke-width="4.0" fill="#0000b2" />
<circle cx="680.0" cy="0.0" r="2.0" stroke="#b20000" stroke-width="4.0" fill="#b20000" />
</g>
<g>
<path d="M 650,190 L 621,190 L 621,130 L 650,130 C 660,130 680,140 679,160 C 679,180 660,190 650,190 Z" stroke="#000000" stroke-width="4.0" fill="none"/>
<circle cx="620.0" cy="140.0" r="2.0" stroke="#0000b2" stroke-width="4.0" fill="#0000b2" />
<circle cx="620.0" cy="180.0" r="2.0" stroke="#0000b2" stroke-width="4.0" fill="#0000b2" />
<circle cx="680.0" cy="160.0" r="2.0" stroke="#b20000" stroke-width="4.0" fill="#b20000" />
</g>
<g>
<path d="M 650,110 L 621,110 L 621,50 L 650,50 C 660,50 680,60 679,80 C 679,100 660,110 650,110 Z" stroke="#000000" stroke-width="4.0" fill="none"/>
<circle cx="620.0" cy="60.0" r="2.0" stroke="#0000b2" stroke-width="4.0" fill="#0000b2" />
<circle cx="620.0" cy="100.0" r="2.0" stroke="#0000b2" stroke-width="4.0" fill="#0000b2" />
<circle cx="680.0" cy="80.0" r="2.0" stroke="#b20000" stroke-width="4.0" fill="#b20000" />
</g>
<g>
<circle cx="716.0" cy="80.0" r="9.0" stroke="#008e00" stroke-width="4.0" fill="#008e00" />
<circle cx="716.0" cy="80.0" r="15.0" stroke="#000000" stroke-width="4.0" fill="none" />
<text text-anchor="start" x="745.0" y="89.0" fill="#000000" style="font-size:24px"><tspan style="font-style:italic;">b</tspan></text>
<circle cx="700.0" cy="80.0" r="2.0" stroke="#0000b2" stroke-width="4.0" fill="#0000b2" />
</g>
<g>
<circle cx="716.0" cy="0.0" r="9.0" stroke="#008e00" stroke-width="4.0" fill="#008e00" />
<circle cx="716.0" cy="0.0" r="15.0" stroke="#000000" stroke-width="4.0" fill="none" />
<text text-anchor="start" x="745.0" y="9.0" fill="#000000" style="font-size:24px"><tspan style="font-style:italic;">c</tspan></text>
<circle cx="700.0" cy="0.0" r="2.0" stroke="#0000b2" stroke-width="4.0" fill="#0000b2" />
</g>
<g>
<circle cx="716.0" cy="160.0" r="9.0" stroke="#008e00" stroke-width="4.0" fill="#008e00" />
<circle cx="716.0" cy="160.0" r="15.0" stroke="#000000" stroke-width="4.0" fill="none" />
<text text-anchor="start" x="745.0" y="169.0" fill="#000000" style="font-size:24px"><tspan style="font-style:italic;">d</tspan></text>
<circle cx="700.0" cy="160.0" r="2.0" stroke="#0000b2" stroke-width="4.0" fill="#0000b2" />
</g>
<g>
<circle cx="336.0" cy="180.0" r="9.0" stroke="#008e00" stroke-width="4.0" fill="#008e00" />
<circle cx="336.0" cy="180.0" r="15.0" stroke="#000000" stroke-width="4.0" fill="none" />
<text text-anchor="start" x="365.0" y="189.0" fill="#000000" style="font-size:24px"><tspan style="font-style:italic;">H</tspan></text>
<circle cx="320.0" cy="180.0" r="2.0" stroke="#0000b2" stroke-width="4.0" fill="#0000b2" />
</g>
</g>
</svg>