<?xml version="1.0" encoding="UTF-8" standalone="no"?>
<!-- Created with Digital by H.Neemann -->
<!-- created: Sat Jan 29 07:59:10 EST 2022 -->

<svg
   xmlns:svg="http://www.w3.org/2000/svg"
   xmlns="http://www.w3.org/2000/svg"
   width="67.05mm"
   height="75.75mm"
   viewBox="183 -277 447 505">
<g stroke-linecap="square">
<path d="M 228,-245 L 253,-245 L 253,-270 L 278,-270 L 278,-245 L 303,-245 L 303,-270 L 328,-270 L 328,-245 L 353,-245 L 353,-270 L 378,-270 L 378,-245 L 403,-245 L 403,-270 L 428,-270 L 428,-245 L 453,-245 L 453,-270 L 478,-270 L 478,-245 L 503,-245 L 503,-270 L 528,-270 L 528,-245 L 553,-245 L 553,-270 L 578,-270 L 578,-245 L 603,-245 L 603,-270 L 628,-270" stroke="#000000" stroke-width="4.0" fill="none"/>
<path d="M 228,-210 L 253,-210 L 253,-235 L 278,-235 L 303,-235 L 328,-235 L 353,-235 L 353,-210 L 378,-210 L 403,-210 L 428,-210 L 453,-210 L 453,-235 L 478,-235 L 503,-235 L 528,-235 L 553,-235 L 553,-210 L 578,-210 L 603,-210 L 628,-210" stroke="#000000" stroke-width="4.0" fill="none"/>
<path d="M 228,-200 L 253,-200 L 253,-175 L 278,-175 L 303,-175 L 328,-175 L 353,-175 L 353,-200 L 378,-200 L 403,-200 L 428,-200 L 453,-200 L 453,-175 L 478,-175 L 503,-175 L 528,-175 L 553,-175 L 553,-200 L 578,-200 L 603,-200 L 628,-200" stroke="#000000" stroke-width="4.0" fill="none"/>
<path d="M 228,-140 L 253,-140 L 278,-140 L 303,-140 L 303,-165 L 328,-165 L 353,-165 L 378,-165 L 403,-165 L 403,-140 L 428,-140 L 453,-140 L 478,-140 L 503,-140 L 503,-165 L 528,-165 L 553,-165 L 578,-165 L 603,-165 L 603,-140 L 628,-140" stroke="#000000" stroke-width="4.0" fill="none"/>
<path d="M 228,-130 L 253,-130 L 278,-130 L 303,-130 L 303,-105 L 328,-105 L 353,-105 L 378,-105 L 403,-105 L 403,-130 L 428,-130 L 453,-130 L 478,-130 L 503,-130 L 503,-105 L 528,-105 L 553,-105 L 578,-105 L 603,-105 L 603,-130 L 628,-130" stroke="#000000" stroke-width="4.0" fill="none"/>
<path d="M 380,60 L 400,60 L 440,60" stroke="#008e00" stroke-width="4.0" fill="none"/>
<path d="M 500,60 L 540,60 L 540,0" stroke="#008e00" stroke-width="4.0" fill="none"/>
<path d="M 400,0 L 400,60" stroke="#008e00" stroke-width="4.0" fill="none"/>
<path d="M 228,-240 L 628,-240" stroke-dasharray="4.0,4.0" stroke="#000000" stroke-width="1.0" fill="none"/>
<path d="M 228,-205 L 628,-205" stroke-dasharray="4.0,4.0" stroke="#000000" stroke-width="1.0" fill="none"/>
<path d="M 228,-170 L 628,-170" stroke-dasharray="4.0,4.0" stroke="#000000" stroke-width="1.0" fill="none"/>
<path d="M 228,-135 L 628,-135" stroke-dasharray="4.0,4.0" stroke="#000000" stroke-width="1.0" fill="none"/>
<path d="M 628,-275 L 228,-275 L 228,-100 L 628,-100 Z" stroke-dasharray="4.0,4.0" stroke="#000000" stroke-width="1.0" fill="none"/>
<path d="M 253,-275 L 253,-100" stroke-dasharray="4.0,4.0" stroke="#000000" stroke-width="1.0" fill="none"/>
<path d="M 278,-275 L 278,-100" stroke-dasharray="4.0,4.0" stroke="#000000" stroke-width="1.0" fill="none"/>
<path d="M 303,-275 L 303,-100" stroke-dasharray="4.0,4.0" stroke="#000000" stroke-width="1.0" fill="none"/>
<path d="M 328,-275 L 328,-100" stroke-dasharray="4.0,4.0" stroke="#000000" stroke-width="1.0" fill="none"/>
<path d="M 353,-275 L 353,-100" stroke-dasharray="4.0,4.0" stroke="#000000" stroke-width="1.0" fill="none"/>
<path d="M 378,-275 L 378,-100" stroke-dasharray="4.0,4.0" stroke="#000000" stroke-width="1.0" fill="none"/>
<path d="M 403,-275 L 403,-100" stroke-dasharray="4.0,4.0" stroke="#000000" stroke-width="1.0" fill="none"/>
<path d="M 428,-275 L 428,-100" stroke-dasharray="4.0,4.0" stroke="#000000" stroke-width="1.0" fill="none"/>
<path d="M 453,-275 L 453,-100" stroke-dasharray="4.0,4.0" stroke="#000000" stroke-width="1.0" fill="none"/>
<path d="M 478,-275 L 478,-100" stroke-dasharray="4.0,4.0" stroke="#000000" stroke-width="1.0" fill="none"/>
<path d="M 503,-275 L 503,-100" stroke-dasharray="4.0,4.0" stroke="#000000" stroke-width="1.0" fill="none"/>
<path d="M 528,-275 L 528,-100" stroke-dasharray="4.0,4.0" stroke="#000000" stroke-width="1.0" fill="none"/>
<path d="M 553,-275 L 553,-100" stroke-dasharray="4.0,4.0" stroke="#000000" stroke-width="1.0" fill="none"/>
<path d="M 578,-275 L 578,-100" stroke-dasharray="4.0,4.0" stroke="#000000" stroke-width="1.0" fill="none"/>
<path d="M 603,-275 L 603,-100" stroke-dasharray="4.0,4.0" stroke="#000000" stroke-width="1.0" fill="none"/>
<path d="M 500,80 L 520,80 L 520,20 L 280,20 L 280,60 L 320,60" stroke="#66ff66" stroke-width="4.0" fill="none"/>
<path d="M 380,80 L 400,80 L 400,140" stroke="#66ff66" stroke-width="4.0" fill="none"/>
<path d="M 260,140 L 300,140 L 300,180 L 320,180" stroke="#66ff66" stroke-width="4.0" fill="none"/>
<path d="M 520,80 L 520,140" stroke="#66ff66" stroke-width="4.0" fill="none"/>
<path d="M 320,80 L 300,80 L 300,120 L 420,120 L 420,80 L 440,80" stroke="#66ff66" stroke-width="4.0" fill="none"/>
<path d="M 300,120 L 300,140" stroke="#66ff66" stroke-width="4.0" fill="none"/>
<g>
<circle cx="520.0" cy="80.0" r="4.0" stroke="#66ff66" stroke-width="4.0" fill="#66ff66" />
<circle cx="300.0" cy="120.0" r="4.0" stroke="#66ff66" stroke-width="4.0" fill="#66ff66" />
<circle cx="300.0" cy="140.0" r="4.0" stroke="#66ff66" stroke-width="4.0" fill="#66ff66" />
<circle cx="400.0" cy="60.0" r="4.0" stroke="#008e00" stroke-width="4.0" fill="#008e00" />
</g>
<g>
<path d="M 321,50 L 379,50 L 379,90 L 321,90 Z" stroke="#000000" stroke-width="4.0" fill="none"/>
<text text-anchor="start" x="324.0" y="66.75" fill="#808080" style="font-size:18px">D</text>
<path d="M 321,87 L 328,80 L 321,73" stroke="#000000" stroke-width="2.0" fill="none"/>
<text text-anchor="start" x="331.0" y="86.75" fill="#808080" style="font-size:18px">C</text>
<text text-anchor="end" x="376.0" y="66.75" fill="#808080" style="font-size:18px">Q</text>
<text text-anchor="end" x="376.0" y="86.75" fill="#808080" style="font-size:18px"><tspan style="text-decoration:overline;">Q</tspan></text>
<text text-anchor="middle" x="350.0" y="107.5" fill="#808080" style="font-size:18px">D</text>
<circle cx="320.0" cy="60.0" r="2.0" stroke="#0000b2" stroke-width="4.0" fill="#0000b2" />
<circle cx="320.0" cy="80.0" r="2.0" stroke="#0000b2" stroke-width="4.0" fill="#0000b2" />
<circle cx="380.0" cy="60.0" r="2.0" stroke="#b20000" stroke-width="4.0" fill="#b20000" />
<circle cx="380.0" cy="80.0" r="2.0" stroke="#b20000" stroke-width="4.0" fill="#b20000" />
</g>
<g>
<path d="M 441,50 L 499,50 L 499,90 L 441,90 Z" stroke="#000000" stroke-width="4.0" fill="none"/>
<text text-anchor="start" x="444.0" y="66.75" fill="#808080" style="font-size:18px">D</text>
<path d="M 441,87 L 448,80 L 441,73" stroke="#000000" stroke-width="2.0" fill="none"/>
<text text-anchor="start" x="451.0" y="86.75" fill="#808080" style="font-size:18px">C</text>
<text text-anchor="end" x="496.0" y="66.75" fill="#808080" style="font-size:18px">Q</text>
<text text-anchor="end" x="496.0" y="86.75" fill="#808080" style="font-size:18px"><tspan style="text-decoration:overline;">Q</tspan></text>
<text text-anchor="middle" x="470.0" y="107.5" fill="#808080" style="font-size:18px">D</text>
<circle cx="440.0" cy="60.0" r="2.0" stroke="#0000b2" stroke-width="4.0" fill="#0000b2" />
<circle cx="440.0" cy="80.0" r="2.0" stroke="#0000b2" stroke-width="4.0" fill="#0000b2" />
<circle cx="500.0" cy="60.0" r="2.0" stroke="#b20000" stroke-width="4.0" fill="#b20000" />
<circle cx="500.0" cy="80.0" r="2.0" stroke="#b20000" stroke-width="4.0" fill="#b20000" />
</g>
<g>
<path d="M 229,125 L 259,125 L 259,155 L 229,155 Z" stroke="#000000" stroke-width="4.0" fill="none"/>
<path d="M 235,145 L 240,145 L 240,135 L 245,135 L 245,145 L 250,145 L 250,135 L 255,135" stroke="#000000" stroke-width="2.0" fill="none"/>
<circle cx="260.0" cy="140.0" r="2.0" stroke="#b20000" stroke-width="4.0" fill="#b20000" />
</g>
<g>
<text text-anchor="end" x="226.0" y="-249.0" fill="#000000" style="font-size:24px">H</text>
<text text-anchor="end" x="226.0" y="-214.0" fill="#000000" style="font-size:24px">Q<tspan style="font-size:80%;baseline-shift:sub;">a</tspan></text>
<text text-anchor="end" x="226.0" y="-179.0" fill="#000000" style="font-size:24px">Q'<tspan style="font-size:80%;baseline-shift:sub;">a</tspan></text>
<text text-anchor="end" x="226.0" y="-144.0" fill="#000000" style="font-size:24px">Q<tspan style="font-size:80%;baseline-shift:sub;">b</tspan></text>
<text text-anchor="end" x="226.0" y="-109.0" fill="#000000" style="font-size:24px">Q'<tspan style="font-size:80%;baseline-shift:sub;">b</tspan></text>
</g>
<g>
<circle cx="336.0" cy="180.0" r="9.0" stroke="#66ff66" stroke-width="4.0" fill="#66ff66" />
<circle cx="336.0" cy="180.0" r="15.0" stroke="#000000" stroke-width="4.0" fill="none" />
<text text-anchor="start" x="365.0" y="189.0" fill="#000000" style="font-size:24px"><tspan style="font-style:italic;">H</tspan></text>
<circle cx="320.0" cy="180.0" r="2.0" stroke="#0000b2" stroke-width="4.0" fill="#0000b2" />
</g>
<g>
<circle cx="400.0" cy="-16.0" r="9.0" stroke="#008e00" stroke-width="4.0" fill="#008e00" />
<circle cx="400.0" cy="-16.0" r="15.0" stroke="#000000" stroke-width="4.0" fill="none" />
<text text-anchor="start" x="400.0" y="-36.0" fill="#000000" style="font-size:24px" transform="rotate(-90,400.0,-45.0)" ><tspan style="font-style:italic;">Q<tspan style="font-size:80%;baseline-shift:sub;">a</tspan></tspan></text>
<circle cx="400.0" cy="0.0" r="2.0" stroke="#0000b2" stroke-width="4.0" fill="#0000b2" />
</g>
<g>
<circle cx="400.0" cy="156.0" r="9.0" stroke="#66ff66" stroke-width="4.0" fill="#66ff66" />
<circle cx="400.0" cy="156.0" r="15.0" stroke="#000000" stroke-width="4.0" fill="none" />
<text text-anchor="end" x="400.0" y="194.0" fill="#000000" style="font-size:24px" transform="rotate(-90,400.0,185.0)" ><tspan style="font-style:italic;">Q'<tspan style="font-size:80%;baseline-shift:sub;">a</tspan></tspan></text>
<circle cx="400.0" cy="140.0" r="2.0" stroke="#0000b2" stroke-width="4.0" fill="#0000b2" />
</g>
<g>
<circle cx="540.0" cy="-16.0" r="9.0" stroke="#008e00" stroke-width="4.0" fill="#008e00" />
<circle cx="540.0" cy="-16.0" r="15.0" stroke="#000000" stroke-width="4.0" fill="none" />
<text text-anchor="start" x="540.0" y="-36.0" fill="#000000" style="font-size:24px" transform="rotate(-90,540.0,-45.0)" ><tspan style="font-style:italic;">Q<tspan style="font-size:80%;baseline-shift:sub;">b</tspan></tspan></text>
<circle cx="540.0" cy="0.0" r="2.0" stroke="#0000b2" stroke-width="4.0" fill="#0000b2" />
</g>
<g>
<circle cx="520.0" cy="156.0" r="9.0" stroke="#66ff66" stroke-width="4.0" fill="#66ff66" />
<circle cx="520.0" cy="156.0" r="15.0" stroke="#000000" stroke-width="4.0" fill="none" />
<text text-anchor="end" x="520.0" y="194.0" fill="#000000" style="font-size:24px" transform="rotate(-90,520.0,185.0)" ><tspan style="font-style:italic;">Q'<tspan style="font-size:80%;baseline-shift:sub;">b</tspan></tspan></text>
<circle cx="520.0" cy="140.0" r="2.0" stroke="#0000b2" stroke-width="4.0" fill="#0000b2" />
</g>
</g>
</svg>