<svg xmlns="http://www.w3.org/2000/svg" xml:lang="en" height="182.10269478283308pt" width="181.49789478283307pt" viewBox="-43.4178947828331 -173.6226947828331 181.49789478283307 182.10269478283308"><polygon points="118.25999999999999,3.2400000000000055 118.38851430706193,3.2389804341583934 118.51699626133434,3.235921993303805 118.6454135181723,3.230825447382369 118.77373374921817,3.2236920794222685 118.90192465053998,3.214523685210737 119.02995395076387,3.20332257284199 119.15778941919818,3.190091562136162 119.28539887394736,3.174833983929446 119.4127501900136,3.1575536792355585 119.53981130738413,3.1382549982787973 119.66655023910212,3.1169427993988887 119.7929350793193,3.093622447827927 119.91893401132803,3.0682998143397104 120.04451531557096,3.0409812737718 120.16964737762635,3.01167370342069 120.29429869616673,2.9803844813104874 120.41843789088928,2.9471214843355322 120.54203371041557,2.9118930862774306 120.66505504015902,2.8747081556970002 120.78747091015774,2.8355760537016588 120.9092505028711,2.7945066315888165 121.03036316093791,2.7515102283658583 121.15077839489415,2.706597668147365 121.27046589084864,2.6597802574301888 121.38939551811434,2.611069782247109 121.50753733679356,2.5604785051997636 121.62486160531526,2.5080191623715993 121.74133878792229,2.4537049601216316 121.85693956210676,2.3975495717598205 121.97163482599201,2.3395671341048803 122.08539570565871,2.279772243925414 122.19819356241379,2.218179954265257 122.30999999999999,2.1548057706539527 122.42078687174458,2.0896656472033124 122.53052628764506,2.0227759825910656 122.63919062139033,1.954153615932566 122.74675251731549,1.8838158225416466 122.85318489728843,1.811780309581644 122.95846096752669,1.7380652116077178 123.06255422534258,1.6626890860015733 123.16543846581509,1.5856709082997382 123.26708778838689,1.507030067416577 123.36747660338463,1.4267863607632285 123.46657963846094,1.3449599892637203 123.56437194495679,1.2615715522694904 123.66082890418195,1.1766420423736113 123.75592623361275,1.0901928401260164 123.8496399930051,1.002245708651066 123.94194659042118,0.9128227881687871 124.03282278816877,0.8219465904212007 124.12224570865105,0.729639993005105 124.21019284012601,0.6359262336127681 124.29664204237359,0.5408289041819605 124.38157155226948,0.44437194495680676 124.4649599892637,0.3465796384609663 124.54678636076322,0.2474766033846307 124.62703006741657,0.14708778838690023 124.70567090829972,0.0454384658150979 124.78268908600157,-0.05744577465741435 124.85806521160771,-0.16153903247329746 124.93178030958163,-0.2668151027115595 125.00381582254163,-0.3732474826845094 125.07415361593254,-0.4808093786096623 125.14277598259105,-0.5894737123549333 125.2096656472033,-0.6992131282554105 125.27480577065394,-0.8100000000000016 125.33817995426524,-0.9218064375862068 125.39977224392538,-1.0346042943412725 125.45956713410486,-1.148365174007978 125.5175495717598,-1.2630604378932315 125.57370496012162,-1.378661212077713 125.62801916237159,-1.4951383946847228 125.68047850519974,-1.6124626632064318 125.73106978224709,-1.73060448188566 125.77978025743018,-1.8495341091513486 125.82659766814734,-1.969221605105841 125.87151022836584,-2.0896368390620856 125.9145066315888,-2.210749497128887 125.95557605370163,-2.3325290898422564 125.99470815569698,-2.4549449598409763 126.03189308627742,-2.577966289584422 126.0671214843355,-2.7015621091107187 126.10038448131046,-2.8257013038332603 126.13167370342066,-2.9503526223736407 126.16098127377177,-3.0754846844290236 126.18829981433969,-3.2010659886719575 126.2136224478279,-3.327064920680679 126.23694279939888,-3.453449760897865 126.25825499827877,-3.5801886926158666 126.27755367923554,-3.7072498099863926 126.29483398392942,-3.8346011260526325 126.31009156213614,-3.9622105808018118 126.32332257284196,-4.090046049236121 126.33452368521071,-4.218075349460015 126.34369207942224,-4.346266250781829 126.35082544738233,-4.474586481827688 126.35592199330377,-4.603003738665652 126.35898043415837,-4.7314856929380555 126.35999999999997,-4.860000000000001 126.35999999999999,-21.059999999999995 126.35898043415838,-21.18851430706194 126.35592199330378,-21.316996261334346 126.35082544738235,-21.44541351817231 126.34369207942225,-21.573733749218167 126.33452368521073,-21.701924650539983 126.32332257284197,-21.829953950763873 126.31009156213615,-21.957789419198185 126.29483398392944,-22.085398873947366 126.27755367923555,-22.212750190013608 126.25825499827879,-22.339811307384128 126.23694279939888,-22.466550239102133 126.21362244782792,-22.592935079319318 126.1882998143397,-22.71893401132804 126.16098127377178,-22.844515315570977 126.13167370342067,-22.96964737762636 126.10038448131047,-23.09429869616674 126.06712148433552,-23.218437890889277 126.03189308627742,-23.342033710415578 125.994708155697,-23.465055040159022 125.95557605370165,-23.58747091015774 125.91450663158881,-23.709250502871114 125.87151022836585,-23.830363160937914 125.82659766814736,-23.950778394894158 125.77978025743019,-24.07046589084865 125.7310697822471,-24.18939551811434 125.68047850519976,-24.30753733679357 125.62801916237159,-24.42486160531528 125.57370496012163,-24.541338787922285 125.51754957175982,-24.656939562106764 125.45956713410487,-24.77163482599202 125.3997722439254,-24.885395705658727 125.33817995426526,-24.998193562413793 125.27480577065396,-25.109999999999996 125.20966564720331,-25.220786871744586 125.14277598259105,-25.330526287645064 125.07415361593256,-25.43919062139034 125.00381582254164,-25.54675251731549 124.93178030958164,-25.653184897288437 124.85806521160771,-25.758460967526702 124.78268908600157,-25.862554225342585 124.70567090829972,-25.965438465815094 124.62703006741657,-26.067087788386896 124.54678636076324,-26.167476603384628 124.46495998926372,-26.266579638460964 124.38157155226948,-26.364371944956805 124.2966420423736,-26.460828904181955 124.21019284012601,-26.55592623361277 124.12224570865105,-26.649639993005103 124.03282278816877,-26.741946590421197 123.9419465904212,-26.832822788168787 123.8496399930051,-26.922245708651065 123.75592623361275,-27.010192840126017 123.66082890418195,-27.09664204237361 123.56437194495679,-27.18157155226949 123.46657963846096,-27.264959989263716 123.36747660338463,-27.346786360763225 123.26708778838689,-27.427030067416574 123.1654384658151,-27.505670908299738 123.06255422534258,-27.58268908600157 122.95846096752669,-27.658065211607717 122.85318489728843,-27.73178030958164 122.74675251731549,-27.803815822541644 122.63919062139034,-27.874153615932563 122.53052628764506,-27.942775982591062 122.42078687174458,-28.00966564720331 122.30999999999999,-28.07480577065395 122.19819356241379,-28.138179954265254 122.08539570565873,-28.19977224392541 121.97163482599203,-28.259567134104874 121.85693956210676,-28.317549571759816 121.74133878792229,-28.37370496012163 121.62486160531527,-28.428019162371594 121.50753733679356,-28.48047850519976 121.38939551811434,-28.531069782247105 121.27046589084864,-28.579780257430183 121.15077839489415,-28.626597668147358 121.03036316093791,-28.671510228365854 120.9092505028711,-28.71450663158881 120.78747091015774,-28.755576053701652 120.66505504015902,-28.794708155696995 120.54203371041557,-28.831893086277425 120.41843789088928,-28.867121484335527 120.29429869616673,-28.900384481310482 120.16964737762635,-28.931673703420685 120.04451531557096,-28.960981273771793 119.91893401132803,-28.988299814339705 119.7929350793193,-29.01362244782792 119.66655023910212,-29.036942799398883 119.53981130738413,-29.05825499827879 119.4127501900136,-29.077553679235553 119.28539887394736,-29.094833983929437 119.15778941919818,-29.110091562136155 119.02995395076387,-29.123322572841982 118.90192465053998,-29.13452368521073 118.77373374921817,-29.14369207942226 118.64541351817229,-29.15082544738236 118.51699626133434,-29.155921993303796 118.38851430706193,-29.158980434158384 118.25999999999999,-29.159999999999997 11.340000000000002,-29.16 11.211485692938059,-29.158980434158387 11.083003738665653,-29.1559219933038 10.95458648182769,-29.150825447382363 10.82626625078183,-29.143692079422262 10.698075349460014,-29.13452368521073 10.570046049236122,-29.123322572841982 10.442210580801813,-29.11009156213616 10.314601126052633,-29.09483398392944 10.187249809986392,-29.077553679235557 10.060188692615867,-29.058254998278795 9.933449760897867,-29.036942799398886 9.807064920680679,-29.013622447827924 9.681065988671957,-28.988299814339708 9.555484684429024,-28.960981273771797 9.430352622373642,-28.93167370342069 9.30570130383326,-28.900384481310486 9.181562109110718,-28.86712148433553 9.05796628958442,-28.83189308627743 8.934944959840974,-28.794708155697 8.812529089842256,-28.755576053701656 8.690749497128886,-28.71450663158881 8.569636839062087,-28.671510228365857 8.449221605105839,-28.626597668147365 8.329534109151348,-28.579780257430187 8.210604481885659,-28.53106978224711 8.09246266320643,-28.480478505199766 7.975138394684722,-28.428019162371598 7.8586612120777115,-28.373704960121632 7.743060437893232,-28.317549571759823 7.628365174007975,-28.25956713410488 7.51460429434127,-28.199772243925416 7.401806437586204,-28.138179954265258 7.290000000000001,-28.074805770653953 7.17921312825541,-28.009665647203317 7.069473712354933,-27.942775982591066 6.960809378609661,-27.87415361593257 6.853247482684506,-27.803815822541647 6.746815102711557,-27.731780309581644 6.641539032473295,-27.65806521160772 6.537445774657413,-27.582689086001576 6.434561534184901,-27.50567090829974 6.332912211613099,-27.42703006741658 6.2325233966153695,-27.346786360763232 6.133420361539031,-27.264959989263723 6.03562805504319,-27.181571552269496 5.939171095818038,-27.096642042373613 5.844073766387229,-27.01019284012602 5.750360006994893,-26.92224570865107 5.658053409578798,-26.83282278816879 5.567177211831212,-26.741946590421204 5.477754291348931,-26.649639993005106 5.389807159873979,-26.55592623361277 5.303357957626386,-26.460828904181962 5.218428447730508,-26.364371944956808 5.135040010736278,-26.266579638460968 5.053213639236771,-26.167476603384635 4.972969932583422,-26.067087788386903 4.894329091700258,-25.965438465815097 4.8173109139984245,-25.862554225342585 4.74193478839228,-25.758460967526705 4.668219690418354,-25.65318489728844 4.596184177458352,-25.546752517315493 4.525846384067433,-25.439190621390342 4.457224017408933,-25.33052628764507 4.3903343527966845,-25.220786871744593 4.325194229346046,-25.11 4.2618200457347415,-24.998193562413796 4.200227756074585,-24.88539570565873 4.14043286589512,-24.771634825992024 4.082450428240178,-24.656939562106768 4.0262950398783675,-24.541338787922292 3.9719808376284,-24.42486160531528 3.9195214948002346,-24.30753733679357 3.86893021775289,-24.189395518114342 3.8202197425698112,-24.070465890848652 3.773402331852635,-23.95077839489416 3.7284897716341407,-23.830363160937914 3.685493368411185,-23.709250502871118 3.644423946298341,-23.587470910157744 3.6052918443030006,-23.465055040159026 3.5681069137225703,-23.34203371041558 3.5328785156644686,-23.218437890889284 3.4996155186895135,-23.094298696166742 3.4683262965793107,-22.96964737762636 3.439018726228202,-22.84451531557098 3.4117001856602913,-22.71893401132804 3.3863775521720747,-22.59293507931932 3.3630572006011135,-22.466550239102133 3.3417450017212054,-22.33981130738413 3.3224463207644446,-22.21275019001361 3.3051660160705567,-22.085398873947366 3.289908437863841,-21.95778941919819 3.276677427158014,-21.829953950763876 3.265476314789266,-21.701924650539986 3.256307920577735,-21.57373374921817 3.2491745526176348,-21.445413518172312 3.2440780066962,-21.31699626133435 3.241019565841611,-21.188514307061943 3.2399999999999993,-21.06 3.2399999999999993,-4.859999999999995 3.241019565841611,-4.731485692938051 3.2440780066962,-4.603003738665648 3.2491745526176348,-4.474586481827684 3.256307920577736,-4.346266250781825 3.2654763147892667,-4.218075349460007 3.276677427158014,-4.090046049236115 3.289908437863841,-3.9622105808018055 3.3051660160705576,-3.8346011260526263 3.3224463207644446,-3.707249809986386 3.3417450017212054,-3.5801886926158626 3.3630572006011143,-3.453449760897861 3.3863775521720756,-3.3270649206806744 3.411700185660292,-3.20106598867195 3.439018726228203,-3.0754846844290156 3.4683262965793125,-2.9503526223736345 3.4996155186895144,-2.8257013038332546 3.5328785156644695,-2.701562109110713 3.568106913722571,-2.5779662895844164 3.6052918443030015,-2.4549449598409705 3.644423946298342,-2.3325290898422524 3.685493368411185,-2.210749497128883 3.7284897716341425,-2.0896368390620785 3.773402331852636,-1.9692216051058338 3.820219742569812,-1.8495341091513433 3.868930217752891,-1.7306044818856547 3.9195214948002364,-1.6124626632064263 3.9719808376284016,-1.4951383946847174 4.0262950398783675,-1.3786612120777082 4.08245042824018,-1.263060437893228 4.14043286589512,-1.1483651740079746 4.200227756074587,-1.0346042943412663 4.261820045734743,-0.9218064375862001 4.325194229346048,-0.8099999999999971 4.390334352796686,-0.699213128255406 4.457224017408933,-0.5894737123549278 4.525846384067433,-0.4808093786096578 4.596184177458352,-0.3732474826845058 4.668219690418356,-0.26681510271155323 4.74193478839228,-0.16153903247329388 4.817310913998426,-0.05744577465740895 4.894329091700261,0.0454384658151024 4.972969932583422,0.1470877883869038 5.053213639236771,0.2474766033846343 5.135040010736278,0.3465796384609699 5.218428447730508,0.44437194495681037 5.303357957626386,0.5408289041819623 5.389807159873982,0.6359262336127736 5.477754291348931,0.7296399930051067 5.567177211831212,0.8219465904212042 5.658053409578798,0.9128227881687917 5.750360006994893,1.0022457086510697 5.844073766387229,1.0901928401260208 5.939171095818038,1.176642042373614 6.03562805504319,1.261571552269493 6.133420361539031,1.344959989263723 6.2325233966153695,1.426786360763232 6.332912211613099,1.5070300674165806 6.434561534184901,1.585670908299742 6.537445774657413,1.662689086001576 6.641539032473295,1.7380652116077204 6.746815102711557,1.8117803095816458 6.853247482684506,1.8838158225416484 6.960809378609661,1.9541536159325696 7.069473712354929,2.0227759825910665 7.17921312825541,2.089665647203315 7.289999999999998,2.1548057706539527 7.401806437586204,2.218179954265259 7.51460429434127,2.279772243925415 7.628365174007975,2.3395671341048803 7.743060437893228,2.3975495717598205 7.858661212077708,2.4537049601216316 7.97513839468472,2.5080191623715993 8.092462663206428,2.5604785051997636 8.210604481885657,2.611069782247109 8.329534109151346,2.6597802574301888 8.449221605105837,2.706597668147365 8.569636839062083,2.7515102283658583 8.690749497128884,2.7945066315888147 8.812529089842254,2.835576053701658 8.934944959840973,2.8747081556969984 9.057966289584417,2.911893086277429 9.181562109110715,2.9471214843355305 9.305701303833256,2.9803844813104856 9.430352622373638,3.0116737034206875 9.55548468442902,3.040981273771797 9.681065988671953,3.0682998143397078 9.807064920680675,3.0936224478279244 9.933449760897863,3.116942799398885 10.060188692615863,3.1382549982787937 10.187249809986389,3.157553679235555 10.314601126052628,3.1748339839294415 10.44221058080181,3.1900915621361583 10.570046049236119,3.2033225728419854 10.69807534946001,3.2145236852107333 10.826266250781824,3.223692079422264 10.954586481827684,3.2308254473823643 11.08300373866565,3.235921993303799 11.211485692938053,3.238980434158388 11.339999999999996,3.24 118.25999999999999,3.2400000000000055 " style="stroke:red;fill:none;stroke-width:1;stroke-linecap:round;stroke-linejoin:round;" /><polygon points="118.25999999999999,-100.44 118.38851430706193,-100.44101956584161 118.51699626133434,-100.4440780066962 118.6454135181723,-100.44917455261763 118.77373374921817,-100.45630792057774 118.90192465053998,-100.46547631478927 119.02995395076387,-100.47667742715801 119.15778941919818,-100.48990843786385 119.28539887394736,-100.50516601607056 119.4127501900136,-100.52244632076444 119.53981130738413,-100.54174500172121 119.66655023910212,-100.56305720060112 119.7929350793193,-100.58637755217208 119.91893401132803,-100.6117001856603 120.04451531557096,-100.6390187262282 120.16964737762635,-100.66832629657931 120.29429869616673,-100.69961551868951 120.41843789088927,-100.73287851566447 120.54203371041557,-100.76810691372258 120.66505504015902,-100.805291844303 120.78747091015774,-100.84442394629833 120.9092505028711,-100.88549336841119 121.0303631609379,-100.92848977163415 121.15077839489415,-100.97340233185264 121.27046589084863,-101.02021974256982 121.38939551811433,-101.0689302177529 121.50753733679356,-101.11952149480024 121.62486160531526,-101.1719808376284 121.74133878792229,-101.22629503987837 121.85693956210676,-101.28245042824018 121.97163482599201,-101.34043286589512 122.08539570565871,-101.40022775607459 122.19819356241378,-101.46182004573474 122.30999999999999,-101.52519422934606 122.42078687174458,-101.59033435279669 122.53052628764505,-101.65722401740894 122.63919062139033,-101.72584638406744 122.74675251731549,-101.79618417745836 122.85318489728843,-101.86821969041837 122.95846096752669,-101.94193478839229 123.06255422534258,-102.01731091399843 123.16543846581509,-102.09432909170026 123.26708778838689,-102.17296993258343 123.3674766033846,-102.25321363923678 123.46657963846094,-102.33504001073628 123.56437194495679,-102.4184284477305 123.66082890418195,-102.50335795762639 123.75592623361275,-102.58980715987398 123.84963999300508,-102.67775429134893 123.94194659042118,-102.76717721183121 124.03282278816877,-102.8580534095788 124.12224570865105,-102.95036000699488 124.21019284012601,-103.04407376638723 124.29664204237359,-103.13917109581804 124.38157155226946,-103.2356280550432 124.4649599892637,-103.33342036153904 124.54678636076322,-103.43252339661537 124.62703006741657,-103.5329122116131 124.70567090829972,-103.63456153418491 124.78268908600157,-103.73744577465742 124.85806521160771,-103.84153903247329 124.93178030958163,-103.94681510271155 125.00381582254163,-104.0532474826845 125.07415361593254,-104.16080937860967 125.14277598259105,-104.26947371235494 125.2096656472033,-104.37921312825542 125.27480577065394,-104.49 125.33817995426524,-104.60180643758622 125.39977224392538,-104.71460429434129 125.45956713410486,-104.82836517400798 125.5175495717598,-104.94306043789324 125.57370496012162,-105.05866121207771 125.62801916237157,-105.17513839468472 125.68047850519974,-105.29246266320642 125.73106978224709,-105.41060448188567 125.77978025743018,-105.52953410915134 125.82659766814734,-105.64922160510584 125.87151022836584,-105.76963683906209 125.9145066315888,-105.89074949712888 125.95557605370163,-106.01252908984225 125.99470815569698,-106.13494495984096 126.03189308627742,-106.25796628958442 126.0671214843355,-106.38156210911072 126.10038448131046,-106.50570130383325 126.13167370342066,-106.63035262237364 126.16098127377177,-106.75548468442902 126.18829981433969,-106.88106598867196 126.2136224478279,-107.00706492068068 126.23694279939888,-107.13344976089786 126.25825499827877,-107.26018869261587 126.27755367923554,-107.3872498099864 126.29483398392941,-107.51460112605263 126.31009156213614,-107.64221058080182 126.32332257284196,-107.77004604923611 126.33452368521071,-107.89807534946002 126.34369207942224,-108.02626625078183 126.35082544738233,-108.15458648182769 126.35592199330377,-108.28300373866564 126.35898043415837,-108.41148569293806 126.35999999999997,-108.53999999999999 126.35999999999999,-124.73999999999998 126.35898043415838,-124.86851430706193 126.35592199330378,-124.99699626133433 126.35082544738235,-125.12541351817231 126.34369207942225,-125.25373374921816 126.33452368521073,-125.38192465053997 126.32332257284197,-125.50995395076386 126.31009156213615,-125.63778941919817 126.29483398392944,-125.76539887394736 126.27755367923555,-125.89275019001359 126.25825499827879,-126.01981130738412 126.23694279939888,-126.14655023910211 126.21362244782792,-126.2729350793193 126.1882998143397,-126.39893401132802 126.16098127377178,-126.52451531557095 126.13167370342067,-126.64964737762634 126.10038448131047,-126.77429869616672 126.06712148433552,-126.89843789088927 126.03189308627742,-127.02203371041557 125.994708155697,-127.14505504015901 125.95557605370165,-127.26747091015773 125.91450663158881,-127.38925050287109 125.87151022836585,-127.5103631609379 125.82659766814736,-127.63077839489414 125.77978025743019,-127.75046589084864 125.7310697822471,-127.86939551811433 125.68047850519976,-127.98753733679355 125.62801916237159,-128.10486160531528 125.57370496012163,-128.22133878792226 125.51754957175982,-128.33693956210675 125.45956713410487,-128.45163482599202 125.3997722439254,-128.56539570565872 125.33817995426526,-128.67819356241378 125.27480577065396,-128.79 125.20966564720331,-128.90078687174457 125.14277598259105,-129.01052628764506 125.07415361593256,-129.11919062139032 125.00381582254164,-129.22675251731548 124.93178030958164,-129.33318489728842 124.85806521160771,-129.43846096752668 124.78268908600157,-129.54255422534257 124.70567090829972,-129.64543846581506 124.62703006741657,-129.7470877883869 124.54678636076324,-129.84747660338462 124.46495998926372,-129.94657963846095 124.38157155226948,-130.0443719449568 124.2966420423736,-130.14082890418194 124.21019284012601,-130.23592623361276 124.12224570865105,-130.3296399930051 124.03282278816877,-130.4219465904212 123.9419465904212,-130.5128227881688 123.8496399930051,-130.60224570865105 123.75592623361275,-130.690192840126 123.66082890418195,-130.7766420423736 123.56437194495679,-130.86157155226948 123.46657963846096,-130.9449599892637 123.36747660338463,-131.0267863607632 123.26708778838689,-131.10703006741656 123.1654384658151,-131.18567090829973 123.06255422534258,-131.26268908600156 122.95846096752669,-131.3380652116077 122.85318489728843,-131.41178030958164 122.74675251731549,-131.48381582254163 122.63919062139034,-131.55415361593256 122.53052628764506,-131.62277598259107 122.42078687174458,-131.6896656472033 122.30999999999999,-131.75480577065392 122.19819356241379,-131.81817995426525 122.08539570565873,-131.8797722439254 121.97163482599203,-131.93956713410486 121.85693956210676,-131.9975495717598 121.74133878792229,-132.05370496012162 121.62486160531527,-132.1080191623716 121.50753733679356,-132.16047850519976 121.38939551811434,-132.2110697822471 121.27046589084864,-132.25978025743018 121.15077839489415,-132.30659766814733 121.03036316093791,-132.35151022836584 120.9092505028711,-132.3945066315888 120.78747091015774,-132.43557605370165 120.66505504015902,-132.474708155697 120.54203371041557,-132.5118930862774 120.41843789088928,-132.54712148433552 120.29429869616673,-132.58038448131046 120.16964737762635,-132.61167370342068 120.04451531557096,-132.64098127377179 119.91893401132803,-132.6682998143397 119.7929350793193,-132.6936224478279 119.66655023910212,-132.71694279939888 119.53981130738413,-132.73825499827876 119.4127501900136,-132.7575536792355 119.28539887394736,-132.77483398392943 119.15778941919818,-132.79009156213615 119.02995395076387,-132.80332257284198 118.90192465053998,-132.8145236852107 118.77373374921817,-132.82369207942224 118.64541351817229,-132.83082544738235 118.51699626133434,-132.83592199330377 118.38851430706193,-132.83898043415834 118.25999999999999,-132.83999999999997 11.340000000000002,-132.83999999999997 11.211485692938059,-132.83898043415834 11.083003738665653,-132.83592199330377 10.95458648182769,-132.83082544738235 10.82626625078183,-132.82369207942224 10.698075349460016,-132.8145236852107 10.570046049236122,-132.80332257284198 10.442210580801813,-132.79009156213615 10.314601126052633,-132.77483398392943 10.187249809986394,-132.75755367923554 10.060188692615867,-132.73825499827876 9.933449760897867,-132.71694279939888 9.80706492068068,-132.6936224478279 9.681065988671957,-132.6682998143397 9.555484684429024,-132.64098127377179 9.430352622373642,-132.61167370342068 9.305701303833262,-132.58038448131046 9.18156210911072,-132.54712148433552 9.05796628958442,-132.5118930862774 8.934944959840976,-132.474708155697 8.812529089842258,-132.43557605370165 8.690749497128888,-132.3945066315888 8.569636839062087,-132.35151022836584 8.44922160510584,-132.30659766814733 8.32953410915135,-132.25978025743018 8.21060448188566,-132.2110697822471 8.092462663206431,-132.16047850519976 7.975138394684723,-132.1080191623716 7.8586612120777115,-132.05370496012162 7.743060437893232,-131.9975495717598 7.628365174007978,-131.93956713410486 7.514604294341273,-131.8797722439254 7.401806437586209,-131.81817995426525 7.290000000000002,-131.75480577065392 7.179213128255413,-131.6896656472033 7.069473712354933,-131.62277598259107 6.960809378609662,-131.55415361593256 6.85324748268451,-131.48381582254166 6.746815102711561,-131.41178030958164 6.641539032473299,-131.3380652116077 6.537445774657416,-131.26268908600156 6.434561534184905,-131.18567090829973 6.3329122116131,-131.10703006741656 6.23252339661537,-131.0267863607632 6.133420361539034,-130.9449599892637 6.035628055043194,-130.86157155226948 5.9391710958180415,-130.7766420423736 5.844073766387233,-130.690192840126 5.750360006994897,-130.60224570865105 5.658053409578799,-130.5128227881688 5.567177211831213,-130.4219465904212 5.477754291348934,-130.3296399930051 5.389807159873983,-130.23592623361276 5.30335795762639,-130.14082890418194 5.218428447730512,-130.0443719449568 5.135040010736281,-129.94657963846095 5.0532136392367715,-129.84747660338462 4.972969932583426,-129.7470877883869 4.8943290917002615,-129.64543846581506 4.817310913998428,-129.54255422534257 4.7419347883922836,-129.43846096752668 4.668219690418358,-129.33318489728842 4.596184177458356,-129.22675251731548 4.525846384067436,-129.11919062139032 4.4572240174089375,-129.01052628764506 4.390334352796688,-128.90078687174457 4.3251942293460495,-128.79 4.261820045734745,-128.67819356241378 4.200227756074589,-128.56539570565872 4.140432865895123,-128.45163482599202 4.082450428240182,-128.33693956210675 4.026295039878371,-128.22133878792226 3.9719808376284034,-128.10486160531528 3.91952149480024,-127.98753733679355 3.8689302177528937,-127.86939551811433 3.820219742569815,-127.75046589084864 3.7734023318526386,-127.63077839489414 3.728489771634145,-127.5103631609379 3.6854933684111884,-127.38925050287109 3.6444239462983448,-127.26747091015773 3.605291844303005,-127.14505504015901 3.568106913722574,-127.02203371041557 3.532878515664472,-126.89843789088927 3.499615518689517,-126.77429869616672 3.468326296579315,-126.64964737762634 3.4390187262282055,-126.52451531557097 3.411700185660295,-126.39893401132802 3.386377552172079,-126.2729350793193 3.363057200601117,-126.14655023910211 3.341745001721209,-126.01981130738412 3.322446320764448,-125.89275019001359 3.3051660160705603,-125.76539887394736 3.2899084378638443,-125.63778941919817 3.2766774271580177,-125.50995395076386 3.2654763147892703,-125.38192465053997 3.256307920577739,-125.25373374921816 3.2491745526176383,-125.1254135181723 3.2440780066962036,-124.99699626133433 3.2410195658416145,-124.86851430706193 3.240000000000003,-124.73999999999998 3.2399999999999975,-108.53999999999999 3.241019565841609,-108.41148569293806 3.2440780066961974,-108.28300373866564 3.249174552617633,-108.15458648182769 3.256307920577733,-108.02626625078183 3.265476314789264,-107.89807534946002 3.2766774271580124,-107.77004604923611 3.289908437863839,-107.64221058080182 3.305166016070555,-107.51460112605263 3.322446320764442,-107.3872498099864 3.3417450017212027,-107.26018869261587 3.3630572006011117,-107.13344976089786 3.386377552172073,-107.00706492068068 3.4117001856602895,-106.88106598867196 3.4390187262282,-106.75548468442902 3.468326296579309,-106.63035262237364 3.499615518689511,-106.50570130383325 3.532878515664466,-106.38156210911072 3.5681069137225676,-106.25796628958442 3.605291844302999,-106.13494495984096 3.6444239462983403,-106.01252908984225 3.685493368411183,-105.89074949712888 3.728489771634139,-105.76963683906207 3.7734023318526324,-105.64922160510584 3.8202197425698086,-105.52953410915134 3.8689302177528875,-105.41060448188566 3.9195214948002337,-105.29246266320642 3.971980837628399,-105.17513839468471 4.026295039878366,-105.05866121207771 4.082450428240177,-104.94306043789324 4.140432865895117,-104.82836517400798 4.200227756074582,-104.71460429434127 4.261820045734739,-104.6018064375862 4.325194229346045,-104.49 4.390334352796682,-104.37921312825542 4.45722401740893,-104.26947371235492 4.52584638406743,-104.16080937860966 4.5961841774583485,-104.0532474826845 4.6682196904183515,-103.94681510271155 4.741934788392277,-103.84153903247329 4.817310913998422,-103.73744577465742 4.894329091700255,-103.6345615341849 4.972969932583419,-103.5329122116131 5.053213639236767,-103.43252339661537 5.135040010736274,-103.33342036153903 5.2184284477305045,-103.2356280550432 5.303357957626384,-103.13917109581804 5.3898071598739765,-103.04407376638723 5.477754291348928,-102.95036000699488 5.567177211831209,-102.85805340957879 5.658053409578795,-102.76717721183121 5.75036000699489,-102.67775429134893 5.8440737663872255,-102.58980715987398 5.939171095818034,-102.50335795762638 6.035628055043187,-102.4184284477305 6.133420361539026,-102.33504001073628 6.232523396615366,-102.25321363923676 6.332912211613093,-102.17296993258343 6.434561534184897,-102.09432909170026 6.537445774657407,-102.01731091399843 6.6415390324732915,-101.94193478839229 6.746815102711549,-101.86821969041836 6.853247482684503,-101.79618417745836 6.960809378609658,-101.72584638406742 7.069473712354926,-101.65722401740894 7.179213128255406,-101.59033435279667 7.29,-101.52519422934604 7.4018064375862,-101.46182004573474 7.514604294341263,-101.40022775607459 7.628365174007971,-101.34043286589512 7.743060437893228,-101.28245042824018 7.858661212077705,-101.22629503987837 7.975138394684718,-101.1719808376284 8.092462663206422,-101.11952149480024 8.210604481885655,-101.0689302177529 8.32953410915134,-101.02021974256981 8.449221605105834,-100.97340233185264 8.569636839062083,-100.92848977163413 8.69074949712888,-100.88549336841119 8.812529089842252,-100.84442394629833 8.934944959840967,-100.805291844303 9.057966289584416,-100.76810691372258 9.18156210911071,-100.73287851566447 9.305701303833255,-100.69961551868951 9.430352622373638,-100.66832629657931 9.555484684429016,-100.6390187262282 9.681065988671953,-100.6117001856603 9.807064920680672,-100.58637755217208 9.933449760897862,-100.56305720060112 10.060188692615858,-100.54174500172121 10.187249809986387,-100.52244632076444 10.31460112605263,-100.50516601607055 10.442210580801806,-100.48990843786385 10.570046049236119,-100.47667742715801 10.698075349460007,-100.46547631478927 10.826266250781824,-100.45630792057774 10.95458648182768,-100.44917455261763 11.083003738665647,-100.4440780066962 11.211485692938055,-100.44101956584161 11.339999999999995,-100.44 118.25999999999999,-100.44 " style="stroke:red;fill:none;stroke-width:1;stroke-linecap:round;stroke-linejoin:round;" /><polygon points="124.73999999999998,-68.04 124.86851430706193,-68.04101956584161 124.99699626133433,-68.04407800669621 125.12541351817231,-68.04917455261764 125.25373374921816,-68.05630792057774 125.38192465053997,-68.06547631478927 125.50995395076386,-68.07667742715802 125.63778941919817,-68.08990843786384 125.76539887394736,-68.10516601607056 125.89275019001359,-68.12244632076444 126.01981130738412,-68.1417450017212 126.14655023910211,-68.16305720060112 126.2729350793193,-68.18637755217208 126.39893401132802,-68.21170018566029 126.52451531557097,-68.23901872622821 126.64964737762634,-68.26832629657932 126.77429869616672,-68.29961551868952 126.89843789088927,-68.33287851566448 127.02203371041557,-68.36810691372257 127.14505504015901,-68.405291844303 127.26747091015773,-68.44442394629834 127.38925050287109,-68.48549336841118 127.5103631609379,-68.52848977163414 127.63077839489414,-68.57340233185263 127.75046589084864,-68.6202197425698 127.86939551811433,-68.66893021775289 127.98753733679355,-68.71952149480023 128.10486160531528,-68.7719808376284 128.22133878792226,-68.82629503987836 128.33693956210675,-68.88245042824018 128.45163482599202,-68.94043286589512 128.56539570565872,-69.0002277560746 128.67819356241378,-69.06182004573473 128.79,-69.12519422934604 128.90078687174457,-69.19033435279668 129.01052628764506,-69.25722401740894 129.11919062139032,-69.32584638406743 129.22675251731548,-69.39618417745835 129.33318489728842,-69.46821969041835 129.43846096752668,-69.54193478839228 129.54255422534257,-69.61731091399842 129.64543846581506,-69.69432909170027 129.7470877883869,-69.77296993258342 129.84747660338462,-69.85321363923677 129.94657963846095,-69.93504001073627 130.0443719449568,-70.01842844773051 130.14082890418194,-70.10335795762639 130.23592623361276,-70.18980715987398 130.3296399930051,-70.27775429134894 130.4219465904212,-70.36717721183122 130.5128227881688,-70.4580534095788 130.60224570865105,-70.5503600069949 130.690192840126,-70.64407376638724 130.7766420423736,-70.73917109581804 130.86157155226948,-70.8356280550432 130.9449599892637,-70.93342036153904 131.0267863607632,-71.03252339661536 131.10703006741656,-71.1329122116131 131.18567090829973,-71.23456153418489 131.26268908600156,-71.33744577465741 131.3380652116077,-71.4415390324733 131.41178030958164,-71.54681510271156 131.48381582254166,-71.6532474826845 131.55415361593256,-71.76080937860965 131.62277598259107,-71.86947371235493 131.6896656472033,-71.97921312825541 131.75480577065392,-72.09 131.81817995426525,-72.2018064375862 131.8797722439254,-72.31460429434127 131.93956713410486,-72.42836517400798 131.9975495717598,-72.54306043789323 132.05370496012162,-72.6586612120777 132.1080191623716,-72.77513839468472 132.16047850519976,-72.89246266320643 132.2110697822471,-73.01060448188565 132.25978025743018,-73.12953410915135 132.30659766814733,-73.24922160510584 132.35151022836584,-73.36963683906208 132.3945066315888,-73.49074949712889 132.43557605370165,-73.61252908984225 132.474708155697,-73.73494495984097 132.5118930862774,-73.85796628958443 132.54712148433552,-73.98156210911071 132.58038448131046,-74.10570130383326 132.61167370342068,-74.23035262237364 132.64098127377179,-74.35548468442903 132.6682998143397,-74.48106598867196 132.6936224478279,-74.60706492068068 132.71694279939888,-74.73344976089787 132.73825499827876,-74.86018869261586 132.75755367923554,-74.9872498099864 132.77483398392943,-75.11460112605263 132.79009156213615,-75.24221058080181 132.80332257284198,-75.37004604923612 132.8145236852107,-75.49807534946001 132.82369207942224,-75.62626625078182 132.83082544738235,-75.7545864818277 132.83592199330377,-75.88300373866565 132.83898043415834,-76.01148569293807 132.83999999999997,-76.14 132.83999999999997,-118.25999999999999 132.83898043415834,-118.38851430706193 132.83592199330377,-118.51699626133434 132.83082544738235,-118.64541351817229 132.82369207942224,-118.77373374921817 132.8145236852107,-118.90192465053998 132.80332257284198,-119.02995395076387 132.79009156213615,-119.15778941919818 132.77483398392943,-119.28539887394736 132.7575536792355,-119.4127501900136 132.73825499827876,-119.53981130738411 132.71694279939888,-119.66655023910212 132.6936224478279,-119.7929350793193 132.6682998143397,-119.91893401132803 132.64098127377179,-120.04451531557096 132.61167370342068,-120.16964737762635 132.58038448131046,-120.29429869616673 132.54712148433552,-120.41843789088927 132.5118930862774,-120.54203371041557 132.474708155697,-120.66505504015902 132.43557605370162,-120.78747091015774 132.3945066315888,-120.9092505028711 132.35151022836584,-121.0303631609379 132.30659766814733,-121.15077839489415 132.25978025743018,-121.27046589084864 132.21106978224708,-121.38939551811433 132.16047850519976,-121.50753733679356 132.10801916237156,-121.62486160531526 132.05370496012162,-121.74133878792229 131.99754957175978,-121.85693956210676 131.93956713410486,-121.97163482599201 131.87977224392537,-122.08539570565871 131.81817995426525,-122.19819356241378 131.75480577065392,-122.30999999999999 131.6896656472033,-122.42078687174458 131.62277598259107,-122.53052628764505 131.55415361593256,-122.63919062139033 131.48381582254163,-122.74675251731549 131.41178030958164,-122.85318489728843 131.33806521160767,-122.95846096752669 131.26268908600153,-123.06255422534258 131.18567090829973,-123.16543846581509 131.10703006741656,-123.26708778838689 131.0267863607632,-123.3674766033846 130.9449599892637,-123.46657963846094 130.86157155226948,-123.56437194495679 130.7766420423736,-123.66082890418195 130.690192840126,-123.75592623361275 130.60224570865103,-123.84963999300508 130.5128227881688,-123.94194659042118 130.4219465904212,-124.03282278816877 130.3296399930051,-124.12224570865105 130.23592623361273,-124.21019284012601 130.14082890418192,-124.29664204237359 130.0443719449568,-124.38157155226946 129.94657963846095,-124.4649599892637 129.84747660338462,-124.54678636076322 129.74708778838686,-124.62703006741657 129.64543846581506,-124.70567090829972 129.54255422534257,-124.78268908600157 129.43846096752668,-124.85806521160771 129.33318489728842,-124.93178030958163 129.22675251731548,-125.00381582254163 129.11919062139032,-125.07415361593254 129.01052628764506,-125.14277598259105 128.90078687174457,-125.2096656472033 128.79,-125.27480577065394 128.67819356241378,-125.33817995426524 128.56539570565872,-125.39977224392538 128.451634825992,-125.45956713410486 128.33693956210675,-125.5175495717598 128.22133878792226,-125.57370496012162 128.10486160531525,-125.62801916237157 127.98753733679355,-125.68047850519974 127.86939551811432,-125.73106978224709 127.75046589084864,-125.77978025743018 127.63077839489414,-125.82659766814734 127.51036316093789,-125.87151022836584 127.38925050287109,-125.9145066315888 127.26747091015773,-125.95557605370163 127.14505504015901,-125.99470815569698 127.02203371041557,-126.03189308627742 126.89843789088926,-126.0671214843355 126.77429869616672,-126.10038448131046 126.64964737762634,-126.13167370342066 126.52451531557095,-126.16098127377177 126.39893401132802,-126.18829981433969 126.2729350793193,-126.2136224478279 126.14655023910211,-126.23694279939888 126.0198113073841,-126.25825499827877 125.89275019001359,-126.27755367923554 125.76539887394736,-126.29483398392941 125.63778941919817,-126.31009156213614 125.50995395076386,-126.32332257284196 125.38192465053997,-126.33452368521071 125.25373374921816,-126.34369207942224 125.1254135181723,-126.35082544738233 124.99699626133433,-126.35592199330377 124.86851430706193,-126.35898043415837 124.73999999999998,-126.35999999999997 108.53999999999999,-126.35999999999999 108.41148569293806,-126.35898043415838 108.28300373866564,-126.35592199330378 108.15458648182768,-126.35082544738235 108.02626625078183,-126.34369207942225 107.89807534946002,-126.33452368521073 107.77004604923611,-126.32332257284197 107.64221058080182,-126.31009156213615 107.51460112605263,-126.29483398392944 107.3872498099864,-126.27755367923555 107.26018869261586,-126.25825499827879 107.13344976089786,-126.23694279939888 107.00706492068068,-126.21362244782792 106.88106598867196,-126.1882998143397 106.75548468442902,-126.16098127377178 106.63035262237364,-126.13167370342067 106.50570130383325,-126.10038448131047 106.38156210911072,-126.06712148433552 106.25796628958442,-126.03189308627742 106.13494495984096,-125.994708155697 106.01252908984225,-125.95557605370165 105.89074949712888,-125.91450663158881 105.76963683906207,-125.87151022836585 105.64922160510584,-125.82659766814736 105.52953410915134,-125.77978025743019 105.41060448188566,-125.7310697822471 105.29246266320642,-125.68047850519976 105.17513839468471,-125.62801916237159 105.05866121207771,-125.57370496012163 104.94306043789324,-125.51754957175982 104.82836517400798,-125.45956713410487 104.71460429434127,-125.3997722439254 104.6018064375862,-125.33817995426526 104.49,-125.27480577065396 104.37921312825542,-125.20966564720331 104.26947371235492,-125.14277598259105 104.16080937860966,-125.07415361593256 104.0532474826845,-125.00381582254164 103.94681510271155,-124.93178030958164 103.84153903247329,-124.85806521160771 103.73744577465742,-124.78268908600157 103.6345615341849,-124.70567090829974 103.5329122116131,-124.62703006741657 103.43252339661537,-124.54678636076324 103.33342036153903,-124.46495998926372 103.2356280550432,-124.38157155226948 103.13917109581804,-124.2966420423736 103.04407376638723,-124.21019284012601 102.95036000699488,-124.12224570865105 102.85805340957879,-124.03282278816877 102.76717721183121,-123.9419465904212 102.67775429134893,-123.8496399930051 102.58980715987398,-123.75592623361275 102.50335795762638,-123.66082890418195 102.4184284477305,-123.5643719449568 102.33504001073628,-123.46657963846096 102.25321363923676,-123.36747660338463 102.17296993258343,-123.26708778838689 102.09432909170026,-123.1654384658151 102.01731091399843,-123.06255422534258 101.94193478839229,-122.95846096752669 101.86821969041836,-122.85318489728843 101.79618417745836,-122.74675251731549 101.72584638406742,-122.63919062139034 101.65722401740894,-122.53052628764506 101.59033435279667,-122.42078687174458 101.52519422934604,-122.30999999999999 101.46182004573474,-122.19819356241379 101.40022775607459,-122.08539570565873 101.34043286589512,-121.97163482599203 101.28245042824018,-121.85693956210676 101.22629503987837,-121.74133878792229 101.1719808376284,-121.62486160531527 101.11952149480024,-121.50753733679356 101.0689302177529,-121.38939551811434 101.02021974256981,-121.27046589084864 100.97340233185264,-121.15077839489415 100.92848977163413,-121.03036316093791 100.88549336841119,-120.9092505028711 100.84442394629833,-120.78747091015774 100.805291844303,-120.66505504015902 100.76810691372258,-120.54203371041557 100.73287851566447,-120.41843789088928 100.69961551868951,-120.29429869616673 100.66832629657931,-120.16964737762635 100.6390187262282,-120.04451531557098 100.6117001856603,-119.91893401132803 100.58637755217208,-119.7929350793193 100.56305720060112,-119.66655023910212 100.54174500172121,-119.53981130738413 100.52244632076444,-119.4127501900136 100.50516601607055,-119.28539887394736 100.48990843786385,-119.15778941919818 100.47667742715801,-119.02995395076387 100.46547631478927,-118.90192465053998 100.45630792057774,-118.77373374921817 100.44917455261763,-118.64541351817229 100.4440780066962,-118.51699626133434 100.44101956584161,-118.38851430706193 100.44,-118.25999999999999 100.44,-76.14 100.44101956584161,-76.01148569293807 100.44407800669619,-75.88300373866565 100.44917455261763,-75.7545864818277 100.45630792057774,-75.62626625078182 100.46547631478927,-75.49807534946001 100.47667742715801,-75.37004604923612 100.48990843786385,-75.24221058080181 100.50516601607055,-75.11460112605263 100.52244632076444,-74.9872498099864 100.54174500172121,-74.86018869261588 100.56305720060112,-74.73344976089787 100.58637755217208,-74.60706492068068 100.6117001856603,-74.48106598867196 100.6390187262282,-74.35548468442903 100.66832629657931,-74.23035262237364 100.69961551868951,-74.10570130383326 100.73287851566447,-73.98156210911073 100.76810691372258,-73.85796628958443 100.805291844303,-73.73494495984097 100.84442394629833,-73.61252908984225 100.88549336841119,-73.49074949712889 100.92848977163413,-73.36963683906208 100.97340233185264,-73.24922160510584 101.02021974256981,-73.12953410915135 101.0689302177529,-73.01060448188565 101.11952149480022,-72.89246266320643 101.1719808376284,-72.77513839468472 101.22629503987837,-72.6586612120777 101.28245042824018,-72.54306043789323 101.34043286589512,-72.42836517400798 101.40022775607459,-72.31460429434127 101.46182004573474,-72.2018064375862 101.52519422934604,-72.09 101.59033435279667,-71.97921312825541 101.65722401740894,-71.86947371235493 101.72584638406742,-71.76080937860965 101.79618417745836,-71.6532474826845 101.86821969041836,-71.54681510271156 101.94193478839229,-71.4415390324733 102.01731091399843,-71.33744577465741 102.09432909170025,-71.23456153418489 102.17296993258343,-71.1329122116131 102.25321363923676,-71.03252339661536 102.33504001073626,-70.93342036153904 102.4184284477305,-70.8356280550432 102.50335795762638,-70.73917109581804 102.58980715987398,-70.64407376638724 102.67775429134893,-70.5503600069949 102.76717721183121,-70.4580534095788 102.85805340957879,-70.36717721183122 102.95036000699488,-70.27775429134894 103.04407376638723,-70.18980715987398 103.13917109581804,-70.10335795762639 103.23562805504318,-70.01842844773051 103.33342036153903,-69.93504001073629 103.43252339661537,-69.85321363923676 103.5329122116131,-69.77296993258342 103.6345615341849,-69.69432909170027 103.7374457746574,-69.61731091399842 103.84153903247329,-69.54193478839228 103.94681510271154,-69.46821969041835 104.0532474826845,-69.39618417745835 104.16080937860966,-69.32584638406743 104.26947371235492,-69.25722401740894 104.37921312825542,-69.19033435279668 104.49,-69.12519422934604 104.6018064375862,-69.06182004573473 104.71460429434127,-69.0002277560746 104.82836517400797,-68.94043286589512 104.94306043789324,-68.88245042824018 105.05866121207771,-68.82629503987836 105.17513839468471,-68.7719808376284 105.29246266320642,-68.71952149480025 105.41060448188566,-68.66893021775289 105.52953410915134,-68.6202197425698 105.64922160510584,-68.57340233185263 105.76963683906207,-68.52848977163414 105.89074949712888,-68.48549336841118 106.01252908984225,-68.44442394629834 106.13494495984096,-68.405291844303 106.25796628958442,-68.36810691372257 106.3815621091107,-68.33287851566448 106.50570130383325,-68.29961551868952 106.63035262237364,-68.26832629657932 106.755484684429,-68.23901872622821 106.88106598867196,-68.21170018566029 107.00706492068068,-68.18637755217208 107.13344976089786,-68.16305720060112 107.26018869261586,-68.1417450017212 107.3872498099864,-68.12244632076444 107.51460112605263,-68.10516601607056 107.64221058080182,-68.08990843786384 107.77004604923611,-68.07667742715802 107.89807534946002,-68.06547631478927 108.02626625078183,-68.05630792057774 108.15458648182768,-68.04917455261764 108.28300373866564,-68.04407800669621 108.41148569293806,-68.04101956584161 108.53999999999999,-68.04 124.73999999999998,-68.04 " style="stroke:blue;fill:none;stroke-width:1;stroke-linecap:round;stroke-linejoin:round;" /><polygon points="21.059999999999995,-68.04 21.18851430706194,-68.04101956584161 21.316996261334346,-68.04407800669621 21.44541351817231,-68.04917455261764 21.573733749218167,-68.05630792057774 21.701924650539983,-68.06547631478927 21.829953950763876,-68.07667742715802 21.957789419198185,-68.08990843786384 22.085398873947366,-68.10516601607056 22.212750190013608,-68.12244632076444 22.33981130738413,-68.1417450017212 22.466550239102133,-68.16305720060112 22.592935079319318,-68.18637755217208 22.71893401132804,-68.21170018566029 22.844515315570977,-68.23901872622821 22.96964737762636,-68.26832629657932 23.09429869616674,-68.29961551868952 23.218437890889277,-68.33287851566448 23.342033710415578,-68.36810691372257 23.465055040159022,-68.405291844303 23.58747091015774,-68.44442394629834 23.709250502871114,-68.48549336841118 23.830363160937914,-68.52848977163414 23.950778394894158,-68.57340233185263 24.07046589084865,-68.6202197425698 24.18939551811434,-68.66893021775289 24.30753733679357,-68.71952149480023 24.42486160531528,-68.7719808376284 24.541338787922285,-68.82629503987836 24.656939562106768,-68.88245042824018 24.77163482599202,-68.94043286589512 24.885395705658727,-69.0002277560746 24.998193562413793,-69.06182004573473 25.109999999999996,-69.12519422934604 25.22078687174459,-69.19033435279668 25.330526287645068,-69.25722401740894 25.43919062139034,-69.32584638406743 25.54675251731549,-69.39618417745835 25.65318489728844,-69.46821969041835 25.758460967526702,-69.54193478839228 25.862554225342585,-69.61731091399842 25.965438465815097,-69.69432909170027 26.0670877883869,-69.77296993258342 26.167476603384628,-69.85321363923677 26.266579638460964,-69.93504001073627 26.364371944956805,-70.01842844773051 26.460828904181955,-70.10335795762639 26.55592623361277,-70.18980715987398 26.649639993005103,-70.27775429134894 26.7419465904212,-70.36717721183122 26.832822788168787,-70.4580534095788 26.922245708651065,-70.5503600069949 27.010192840126017,-70.64407376638724 27.096642042373613,-70.73917109581804 27.18157155226949,-70.8356280550432 27.264959989263716,-70.93342036153904 27.346786360763225,-71.03252339661536 27.427030067416577,-71.1329122116131 27.505670908299738,-71.23456153418489 27.582689086001572,-71.33744577465741 27.658065211607717,-71.4415390324733 27.731780309581644,-71.54681510271156 27.803815822541644,-71.6532474826845 27.874153615932563,-71.76080937860965 27.942775982591062,-71.86947371235493 28.00966564720331,-71.97921312825541 28.07480577065395,-72.09 28.138179954265254,-72.2018064375862 28.19977224392541,-72.31460429434127 28.259567134104874,-72.42836517400798 28.317549571759816,-72.54306043789323 28.37370496012163,-72.6586612120777 28.428019162371594,-72.77513839468472 28.48047850519976,-72.89246266320643 28.531069782247105,-73.01060448188565 28.579780257430183,-73.12953410915135 28.626597668147358,-73.24922160510584 28.671510228365854,-73.36963683906208 28.71450663158881,-73.49074949712889 28.755576053701652,-73.61252908984225 28.794708155696995,-73.73494495984097 28.831893086277425,-73.85796628958443 28.867121484335527,-73.98156210911071 28.900384481310482,-74.10570130383326 28.931673703420685,-74.23035262237364 28.960981273771793,-74.35548468442903 28.988299814339705,-74.48106598867196 29.01362244782792,-74.60706492068068 29.036942799398883,-74.73344976089787 29.05825499827879,-74.86018869261586 29.077553679235553,-74.9872498099864 29.094833983929437,-75.11460112605263 29.110091562136155,-75.24221058080181 29.123322572841982,-75.37004604923612 29.13452368521073,-75.49807534946001 29.14369207942226,-75.62626625078182 29.15082544738236,-75.7545864818277 29.155921993303796,-75.88300373866565 29.158980434158384,-76.01148569293807 29.159999999999997,-76.14 29.160000000000004,-118.25999999999999 29.15898043415839,-118.38851430706193 29.155921993303803,-118.51699626133434 29.150825447382367,-118.6454135181723 29.143692079422266,-118.77373374921817 29.134523685210738,-118.90192465053998 29.12332257284199,-119.02995395076387 29.110091562136162,-119.15778941919818 29.094833983929444,-119.28539887394736 29.07755367923556,-119.4127501900136 29.058254998278798,-119.53981130738413 29.03694279939889,-119.66655023910212 29.013622447827927,-119.7929350793193 28.98829981433971,-119.91893401132803 28.9609812737718,-120.04451531557098 28.931673703420692,-120.16964737762635 28.90038448131049,-120.29429869616673 28.867121484335534,-120.41843789088928 28.831893086277432,-120.54203371041557 28.794708155697002,-120.66505504015902 28.75557605370166,-120.78747091015774 28.714506631588815,-120.9092505028711 28.67151022836586,-121.03036316093791 28.626597668147365,-121.15077839489415 28.57978025743019,-121.27046589084864 28.531069782247112,-121.38939551811434 28.480478505199766,-121.50753733679356 28.4280191623716,-121.62486160531527 28.373704960121636,-121.74133878792229 28.317549571759823,-121.85693956210676 28.25956713410488,-121.97163482599203 28.199772243925416,-122.08539570565873 28.13817995426526,-122.19819356241379 28.074805770653953,-122.30999999999999 28.009665647203317,-122.42078687174458 27.94277598259107,-122.53052628764506 27.87415361593257,-122.63919062139034 27.80381582254165,-122.74675251731549 27.731780309581648,-122.85318489728843 27.65806521160772,-122.95846096752669 27.582689086001576,-123.0625542253426 27.505670908299745,-123.1654384658151 27.42703006741658,-123.26708778838689 27.346786360763232,-123.36747660338463 27.264959989263723,-123.46657963846096 27.181571552269496,-123.5643719449568 27.096642042373617,-123.66082890418195 27.01019284012602,-123.75592623361275 26.92224570865107,-123.8496399930051 26.83282278816879,-123.9419465904212 26.741946590421204,-124.03282278816879 26.64963999300511,-124.12224570865105 26.555926233612773,-124.21019284012603 26.460828904181962,-124.2966420423736 26.364371944956808,-124.38157155226948 26.266579638460968,-124.46495998926372 26.167476603384635,-124.54678636076324 26.067087788386903,-124.62703006741658 25.965438465815097,-124.70567090829974 25.86255422534259,-124.78268908600157 25.758460967526705,-124.85806521160771 25.65318489728844,-124.93178030958164 25.546752517315493,-125.00381582254164 25.439190621390342,-125.07415361593256 25.330526287645068,-125.14277598259106 25.220786871744593,-125.20966564720331 25.11,-125.27480577065396 24.998193562413796,-125.33817995426526 24.88539570565873,-125.3997722439254 24.771634825992024,-125.45956713410487 24.656939562106768,-125.51754957175982 24.54133878792229,-125.57370496012163 24.424861605315282,-125.62801916237159 24.30753733679357,-125.68047850519976 24.189395518114342,-125.7310697822471 24.070465890848652,-125.77978025743019 23.95077839489416,-125.82659766814736 23.830363160937917,-125.87151022836585 23.709250502871114,-125.91450663158881 23.587470910157744,-125.95557605370165 23.465055040159026,-125.994708155697 23.34203371041558,-126.03189308627744 23.218437890889284,-126.06712148433552 23.094298696166742,-126.10038448131047 22.96964737762636,-126.13167370342067 22.84451531557098,-126.16098127377178 22.71893401132804,-126.1882998143397 22.59293507931932,-126.21362244782792 22.466550239102133,-126.23694279939888 22.33981130738413,-126.25825499827879 22.212750190013608,-126.27755367923555 22.08539887394737,-126.29483398392944 21.95778941919819,-126.31009156213615 21.829953950763876,-126.32332257284197 21.701924650539986,-126.33452368521073 21.57373374921817,-126.34369207942225 21.445413518172312,-126.35082544738235 21.316996261334346,-126.3559219933038 21.188514307061943,-126.35898043415838 21.06,-126.35999999999999 4.860000000000002,-126.35999999999999 4.731485692938058,-126.35898043415838 4.603003738665653,-126.35592199330378 4.474586481827689,-126.35082544738235 4.346266250781829,-126.34369207942225 4.218075349460015,-126.33452368521073 4.090046049236121,-126.32332257284197 3.9622105808018127,-126.31009156213615 3.8346011260526334,-126.29483398392944 3.707249809986393,-126.27755367923555 3.580188692615867,-126.25825499827879 3.453449760897866,-126.23694279939888 3.3270649206806797,-126.21362244782792 3.201065988671956,-126.1882998143397 3.0754846844290222,-126.16098127377178 2.9503526223736416,-126.13167370342067 2.825701303833261,-126.10038448131047 2.7015621091107196,-126.06712148433552 2.5779662895844213,-126.03189308627742 2.4549449598409754,-125.994708155697 2.332529089842257,-125.95557605370165 2.210749497128886,-125.91450663158881 2.0896368390620847,-125.87151022836585 1.9692216051058402,-125.82659766814736 1.8495341091513495,-125.77978025743019 1.7306044818856592,-125.7310697822471 1.612462663206431,-125.68047850519976 1.4951383946847223,-125.62801916237159 1.3786612120777109,-125.57370496012163 1.263060437893231,-125.51754957175982 1.1483651740079777,-125.45956713410487 1.0346042943412725,-125.3997722439254 0.9218064375862068,-125.33817995426526 0.8100000000000007,-125.27480577065396 0.6992131282554123,-125.20966564720331 0.5894737123549315,-125.14277598259105 0.4808093786096614,-125.07415361593256 0.3732474826845085,-125.00381582254164 0.2668151027115595,-124.93178030958164 0.16153903247329746,-124.85806521160771 0.057445774657415245,-124.78268908600157 -0.045438465815096106,-124.70567090829974 -0.14708778838690112,-124.62703006741657 -0.2474766033846307,-124.54678636076324 -0.3465796384609663,-124.46495998926372 -0.44437194495680676,-124.38157155226948 -0.5408289041819596,-124.2966420423736 -0.6359262336127681,-124.21019284012601 -0.7296399930051041,-124.12224570865105 -0.8219465904212016,-124.03282278816877 -0.912822788168788,-123.9419465904212 -1.002245708651067,-123.8496399930051 -1.0901928401260181,-123.75592623361275 -1.1766420423736113,-123.66082890418195 -1.2615715522694895,-123.5643719449568 -1.3449599892637194,-123.46657963846096 -1.4267863607632294,-123.36747660338463 -1.5070300674165753,-123.26708778838689 -1.5856709082997391,-123.1654384658151 -1.6626890860015733,-123.06255422534258 -1.7380652116077178,-122.95846096752669 -1.8117803095816432,-122.85318489728843 -1.8838158225416457,-122.74675251731549 -1.9541536159325652,-122.63919062139034 -2.022775982591064,-122.53052628764506 -2.0896656472033124,-122.42078687174458 -2.154805770653952,-122.30999999999999 -2.2181799542652563,-122.19819356241379 -2.2797722439254122,-122.08539570565873 -2.3395671341048776,-121.97163482599203 -2.3975495717598196,-121.85693956210676 -2.45370496012163,-121.74133878792229 -2.5080191623715975,-121.62486160531527 -2.560478505199761,-121.50753733679356 -2.611069782247107,-121.38939551811434 -2.659780257430186,-121.27046589084864 -2.7065976681473622,-121.15077839489415 -2.7515102283658557,-121.03036316093791 -2.794506631588813,-120.9092505028711 -2.835576053701656,-120.78747091015774 -2.874708155696996,-120.66505504015902 -2.911893086277427,-120.54203371041557 -2.9471214843355287,-120.41843789088928 -2.980384481310484,-120.29429869616673 -3.0116737034206857,-120.16964737762635 -3.0409812737717954,-120.04451531557098 -3.068299814339706,-119.91893401132803 -3.0936224478279217,-119.7929350793193 -3.1169427993988843,-119.66655023910212 -3.138254998278792,-119.53981130738413 -3.157553679235553,-119.4127501900136 -3.1748339839294406,-119.28539887394736 -3.1900915621361565,-119.15778941919818 -3.2033225728419836,-119.02995395076387 -3.2145236852107306,-118.90192465053998 -3.2236920794222623,-118.77373374921817 -3.2308254473823625,-118.64541351817229 -3.2359219933037973,-118.51699626133434 -3.2389804341583863,-118.38851430706193 -3.2399999999999984,-118.25999999999999 -3.240000000000002,-76.14 -3.23898043415839,-76.01148569293807 -3.2359219933038017,-75.88300373866565 -3.2308254473823665,-75.7545864818277 -3.223692079422266,-75.62626625078182 -3.214523685210735,-75.49807534946001 -3.203322572841987,-75.37004604923612 -3.19009156213616,-75.24221058080181 -3.174833983929444,-75.11460112605263 -3.1575536792355576,-74.9872498099864 -3.1382549982787964,-74.86018869261588 -3.116942799398888,-74.73344976089787 -3.093622447827926,-74.60706492068068 -3.0682998143397096,-74.48106598867196 -3.040981273771799,-74.35548468442903 -3.01167370342069,-74.23035262237364 -2.9803844813104883,-74.10570130383326 -2.947121484335533,-73.98156210911073 -2.9118930862774315,-73.85796628958443 -2.8747081556970002,-73.73494495984097 -2.8355760537016588,-73.61252908984225 -2.7945066315888165,-73.49074949712889 -2.75151022836586,-73.36963683906208 -2.7065976681473667,-73.24922160510584 -2.6597802574301905,-73.12953410915135 -2.6110697822471116,-73.01060448188565 -2.5604785051997654,-72.89246266320643 -2.5080191623716,-72.77513839468472 -2.4537049601216334,-72.6586612120777 -2.3975495717598223,-72.54306043789323 -2.339567134104882,-72.42836517400798 -2.2797722439254167,-72.31460429434127 -2.2181799542652607,-72.2018064375862 -2.1548057706539545,-72.09 -2.089665647203317,-71.97921312825541 -2.0227759825910683,-71.86947371235493 -1.9541536159325696,-71.76080937860965 -1.8838158225416501,-71.6532474826845 -1.8117803095816476,-71.54681510271156 -1.7380652116077222,-71.4415390324733 -1.6626890860015777,-71.33744577465741 -1.5856709082997438,-71.23456153418489 -1.5070300674165797,-71.1329122116131 -1.426786360763232,-71.03252339661536 -1.3449599892637247,-70.93342036153904 -1.2615715522694948,-70.8356280550432 -1.1766420423736157,-70.73917109581804 -1.0901928401260226,-70.64407376638724 -1.0022457086510714,-70.5503600069949 -0.9128227881687908,-70.4580534095788 -0.8219465904212042,-70.36717721183122 -0.7296399930051094,-70.27775429134894 -0.6359262336127736,-70.18980715987398 -0.5408289041819649,-70.10335795762639 -0.44437194495681215,-70.01842844773051 -0.3465796384609726,-69.93504001073629 -0.2474766033846334,-69.85321363923676 -0.14708778838690653,-69.77296993258342 -0.0454384658151024,-69.69432909170027 0.057445774657407155,-69.61731091399842 0.16153903247329207,-69.54193478839228 0.2668151027115505,-69.46821969041835 0.37324748268450314,-69.39618417745835 0.4808093786096587,-69.32584638406743 0.5894737123549261,-69.25722401740894 0.6992131282554069,-69.19033435279668 0.8100000000000007,-69.12519422934604 0.921806437586201,-69.06182004573473 1.0346042943412639,-69.0002277560746 1.1483651740079723,-68.94043286589512 1.2630604378932289,-68.88245042824018 1.3786612120777058,-68.82629503987836 1.4951383946847188,-68.7719808376284 1.612462663206424,-68.71952149480025 1.7306044818856556,-68.66893021775289 1.849534109151341,-68.6202197425698 1.9692216051058347,-68.57340233185263 2.089636839062083,-68.52848977163414 2.2107494971288806,-68.48549336841118 2.3325290898422533,-68.44442394629834 2.4549449598409683,-68.405291844303 2.5779662895844178,-68.36810691372257 2.7015621091107107,-68.33287851566448 2.825701303833256,-68.29961551868952 2.9503526223736394,-68.26832629657932 3.0754846844290165,-68.23901872622821 3.2010659886719544,-68.21170018566029 3.327064920680672,-68.18637755217208 3.4534497608978625,-68.16305720060112 3.58018869261586,-68.1417450017212 3.707249809986387,-68.12244632076444 3.834601126052631,-68.10516601607056 3.962210580801807,-68.08990843786384 4.090046049236119,-68.07667742715802 4.218075349460008,-68.06547631478927 4.3462662507818255,-68.05630792057774 4.474586481827682,-68.04917455261764 4.60300373866565,-68.04407800669621 4.7314856929380555,-68.04101956584161 4.859999999999996,-68.04 21.059999999999995,-68.04 " style="stroke:blue;fill:none;stroke-width:1;stroke-linecap:round;stroke-linejoin:round;" /><polygon points="85.86,-3.240000000000003 85.98851430706193,-3.2410195658416145 86.11699626133435,-3.2440780066962036 86.24541351817231,-3.2491745526176383 86.37373374921816,-3.256307920577739 86.50192465053998,-3.2654763147892694 86.62995395076388,-3.2766774271580177 86.75778941919818,-3.2899084378638443 86.88539887394737,-3.3051660160705603 87.01275019001359,-3.322446320764448 87.13981130738414,-3.341745001721209 87.26655023910213,-3.363057200601118 87.39293507931932,-3.3863775521720783 87.51893401132803,-3.411700185660295 87.64451531557098,-3.4390187262282055 87.76964737762636,-3.468326296579315 87.89429869616674,-3.499615518689517 88.01843789088929,-3.532878515664472 88.14203371041557,-3.568106913722574 88.26505504015903,-3.605291844303004 88.38747091015775,-3.6444239462983457 88.50925050287111,-3.6854933684111884 88.63036316093792,-3.728489771634145 88.75077839489416,-3.7734023318526377 88.87046589084865,-3.820219742569815 88.98939551811434,-3.8689302177528937 89.10753733679357,-3.919521494800239 89.22486160531528,-3.9719808376284043 89.34133878792228,-4.026295039878371 89.45693956210675,-4.0824504282401834 89.57163482599202,-4.140432865895122 89.68539570565872,-4.200227756074588 89.79819356241379,-4.261820045734745 89.91,-4.32519422934605 90.02078687174458,-4.390334352796689 90.13052628764507,-4.4572240174089375 90.23919062139034,-4.525846384067436 90.3467525173155,-4.596184177458356 90.45318489728844,-4.668219690418358 90.5584609675267,-4.741934788392284 90.66255422534257,-4.817310913998429 90.7654384658151,-4.894329091700263 90.8670877883869,-4.972969932583425 90.96747660338463,-5.053213639236773 91.06657963846096,-5.13504001073628 91.16437194495681,-5.218428447730512 91.26082890418195,-5.30335795762639 91.35592623361276,-5.3898071598739845 91.4496399930051,-5.477754291348935 91.5419465904212,-5.567177211831214 91.63282278816878,-5.658053409578801 91.72224570865106,-5.750360006994896 91.810192840126,-5.844073766387233 91.89664204237361,-5.939171095818041 91.98157155226949,-6.035628055043194 92.06495998926373,-6.133420361539034 92.14678636076323,-6.232523396615371 92.22703006741656,-6.332912211613101 92.30567090829973,-6.434561534184903 92.38268908600156,-6.5374457746574155 92.4580652116077,-6.641539032473298 92.53178030958163,-6.74681510271156 92.60381582254163,-6.85324748268451 92.67415361593257,-6.960809378609662 92.74277598259106,-7.069473712354934 92.80966564720332,-7.1792131282554115 92.87480577065395,-7.2900000000000045 92.93817995426525,-7.401806437586206 92.9997722439254,-7.514604294341273 93.05956713410487,-7.628365174007978 93.11754957175981,-7.7430604378932335 93.17370496012163,-7.858661212077713 93.2280191623716,-7.975138394684723 93.28047850519977,-8.092462663206431 93.3310697822471,-8.210604481885662 93.37978025743018,-8.32953410915135 93.42659766814735,-8.44922160510584 93.47151022836586,-8.569636839062085 93.5145066315888,-8.69074949712889 93.55557605370166,-8.812529089842258 93.59470815569699,-8.934944959840976 93.63189308627742,-9.057966289584423 93.66712148433552,-9.18156210911072 93.70038448131048,-9.305701303833262 93.73167370342068,-9.430352622373642 93.76098127377179,-9.555484684429025 93.7882998143397,-9.681065988671959 93.81362244782791,-9.80706492068068 93.83694279939887,-9.933449760897867 93.85825499827878,-10.06018869261587 93.87755367923555,-10.187249809986394 93.89483398392944,-10.314601126052633 93.91009156213615,-10.442210580801813 93.92332257284198,-10.570046049236124 93.93452368521072,-10.698075349460016 93.94369207942225,-10.82626625078183 93.95082544738236,-10.954586481827691 93.95592199330379,-11.083003738665655 93.95898043415838,-11.211485692938059 93.96,-11.340000000000002 93.96,-53.459999999999994 93.95898043415838,-53.58851430706194 93.95592199330379,-53.71699626133434 93.95082544738236,-53.84541351817231 93.94369207942225,-53.97373374921817 93.93452368521072,-54.10192465053998 93.92332257284198,-54.22995395076388 93.91009156213615,-54.357789419198184 93.89483398392944,-54.48539887394737 93.87755367923555,-54.61275019001361 93.85825499827878,-54.73981130738413 93.83694279939887,-54.866550239102125 93.81362244782791,-54.992935079319324 93.7882998143397,-55.11893401132804 93.76098127377179,-55.24451531557097 93.73167370342068,-55.36964737762635 93.70038448131048,-55.49429869616674 93.66712148433552,-55.618437890889275 93.63189308627742,-55.742033710415576 93.59470815569699,-55.86505504015902 93.55557605370166,-55.98747091015775 93.5145066315888,-56.10925050287111 93.47151022836586,-56.23036316093791 93.42659766814735,-56.35077839489416 93.37978025743018,-56.47046589084865 93.3310697822471,-56.58939551811434 93.28047850519977,-56.707537336793564 93.2280191623716,-56.82486160531527 93.17370496012163,-56.941338787922284 93.11754957175981,-57.05693956210677 93.05956713410487,-57.17163482599202 92.9997722439254,-57.28539570565872 92.93817995426525,-57.398193562413795 92.87480577065395,-57.51 92.80966564720332,-57.620786871744585 92.74277598259106,-57.73052628764507 92.67415361593257,-57.83919062139033 92.60381582254163,-57.94675251731549 92.53178030958163,-58.05318489728844 92.4580652116077,-58.1584609675267 92.38268908600156,-58.26255422534258 92.30567090829973,-58.365438465815096 92.22703006741656,-58.46708778838689 92.14678636076323,-58.56747660338463 92.06495998926373,-58.666579638460966 91.98157155226949,-58.76437194495681 91.89664204237361,-58.86082890418196 91.810192840126,-58.955926233612765 91.72224570865106,-59.0496399930051 91.63282278816878,-59.14194659042119 91.5419465904212,-59.23282278816878 91.4496399930051,-59.32224570865106 91.35592623361276,-59.410192840126015 91.26082890418195,-59.49664204237361 91.1643719449568,-59.58157155226949 91.06657963846096,-59.664959989263714 90.96747660338463,-59.746786360763224 90.8670877883869,-59.82703006741657 90.7654384658151,-59.90567090829973 90.66255422534257,-59.98268908600157 90.5584609675267,-60.05806521160772 90.45318489728844,-60.13178030958164 90.3467525173155,-60.20381582254164 90.23919062139034,-60.27415361593256 90.13052628764507,-60.342775982591064 90.02078687174458,-60.409665647203305 89.91,-60.474805770653944 89.79819356241379,-60.53817995426525 89.68539570565872,-60.59977224392541 89.57163482599202,-60.659567134104876 89.45693956210675,-60.71754957175981 89.34133878792228,-60.77370496012163 89.22486160531528,-60.82801916237159 89.10753733679357,-60.880478505199754 88.98939551811434,-60.9310697822471 88.87046589084865,-60.979780257430185 88.75077839489416,-61.02659766814736 88.63036316093792,-61.07151022836585 88.50925050287111,-61.11450663158881 88.38747091015775,-61.15557605370165 88.26505504015903,-61.19470815569699 88.14203371041557,-61.231893086277424 88.01843789088929,-61.26712148433552 87.89429869616674,-61.30038448131048 87.76964737762636,-61.331673703420684 87.64451531557097,-61.36098127377179 87.51893401132803,-61.3882998143397 87.39293507931932,-61.41362244782792 87.26655023910213,-61.43694279939888 87.13981130738414,-61.45825499827879 87.01275019001359,-61.47755367923555 86.88539887394737,-61.49483398392944 86.75778941919818,-61.51009156213615 86.62995395076388,-61.523322572841984 86.50192465053998,-61.53452368521073 86.37373374921816,-61.543692079422264 86.2454135181723,-61.55082544738236 86.11699626133435,-61.5559219933038 85.98851430706193,-61.558980434158386 85.86,-61.559999999999995 76.14,-61.559999999999995 76.01148569293807,-61.558980434158386 75.88300373866565,-61.5559219933038 75.75458648182769,-61.55082544738236 75.62626625078182,-61.543692079422264 75.49807534946001,-61.53452368521073 75.37004604923612,-61.523322572841984 75.24221058080181,-61.51009156213615 75.11460112605263,-61.49483398392944 74.9872498099864,-61.47755367923555 74.86018869261586,-61.45825499827878 74.73344976089787,-61.43694279939888 74.60706492068068,-61.41362244782792 74.48106598867196,-61.3882998143397 74.35548468442903,-61.36098127377179 74.23035262237364,-61.331673703420684 74.10570130383326,-61.30038448131048 73.98156210911073,-61.26712148433552 73.85796628958443,-61.231893086277424 73.73494495984097,-61.19470815569699 73.61252908984225,-61.15557605370165 73.49074949712889,-61.11450663158881 73.36963683906208,-61.07151022836586 73.24922160510584,-61.02659766814736 73.12953410915135,-60.979780257430185 73.01060448188565,-60.9310697822471 72.89246266320643,-60.880478505199754 72.77513839468472,-60.82801916237159 72.6586612120777,-60.77370496012163 72.54306043789323,-60.71754957175981 72.42836517400798,-60.659567134104876 72.31460429434127,-60.59977224392541 72.2018064375862,-60.53817995426525 72.09,-60.474805770653944 71.97921312825541,-60.409665647203305 71.86947371235493,-60.342775982591064 71.76080937860965,-60.27415361593256 71.6532474826845,-60.20381582254164 71.54681510271156,-60.13178030958164 71.4415390324733,-60.05806521160772 71.33744577465741,-59.98268908600157 71.23456153418489,-59.90567090829973 71.1329122116131,-59.82703006741657 71.03252339661536,-59.746786360763224 70.93342036153904,-59.664959989263714 70.8356280550432,-59.58157155226949 70.73917109581804,-59.49664204237361 70.64407376638724,-59.410192840126015 70.5503600069949,-59.32224570865107 70.4580534095788,-59.23282278816878 70.36717721183122,-59.14194659042119 70.27775429134894,-59.0496399930051 70.18980715987398,-58.955926233612765 70.10335795762639,-58.86082890418196 70.01842844773051,-58.76437194495681 69.93504001073629,-58.666579638460966 69.85321363923676,-58.56747660338463 69.77296993258342,-58.46708778838689 69.69432909170027,-58.365438465815096 69.61731091399842,-58.26255422534258 69.54193478839228,-58.1584609675267 69.46821969041835,-58.05318489728844 69.39618417745835,-57.94675251731549 69.32584638406743,-57.83919062139034 69.25722401740894,-57.73052628764507 69.19033435279668,-57.620786871744585 69.12519422934604,-57.51 69.06182004573473,-57.398193562413795 69.0002277560746,-57.28539570565872 68.94043286589512,-57.17163482599202 68.88245042824018,-57.05693956210676 68.82629503987836,-56.941338787922284 68.7719808376284,-56.82486160531527 68.71952149480025,-56.707537336793564 68.66893021775289,-56.58939551811434 68.6202197425698,-56.47046589084865 68.57340233185263,-56.35077839489416 68.52848977163414,-56.23036316093792 68.48549336841118,-56.10925050287111 68.44442394629834,-55.98747091015773 68.405291844303,-55.86505504015902 68.36810691372257,-55.742033710415576 68.33287851566448,-55.618437890889275 68.29961551868952,-55.49429869616674 68.26832629657932,-55.36964737762635 68.23901872622821,-55.24451531557097 68.21170018566029,-55.11893401132804 68.18637755217208,-54.992935079319324 68.16305720060112,-54.866550239102125 68.1417450017212,-54.73981130738413 68.12244632076444,-54.61275019001361 68.10516601607056,-54.48539887394737 68.08990843786384,-54.35778941919819 68.07667742715802,-54.22995395076387 68.06547631478927,-54.10192465053998 68.05630792057774,-53.97373374921817 68.04917455261764,-53.84541351817231 68.04407800669621,-53.71699626133434 68.04101956584161,-53.58851430706194 68.04,-53.459999999999994 68.04,-11.34 68.04101956584161,-11.211485692938055 68.0440780066962,-11.083003738665653 68.04917455261764,-10.954586481827688 68.05630792057774,-10.826266250781824 68.06547631478927,-10.698075349460012 68.07667742715802,-10.570046049236119 68.08990843786384,-10.442210580801811 68.10516601607056,-10.314601126052631 68.12244632076444,-10.187249809986392 68.1417450017212,-10.060188692615865 68.16305720060112,-9.933449760897865 68.18637755217208,-9.807064920680677 68.21170018566029,-9.681065988671953 68.23901872622821,-9.55548468442902 68.26832629657932,-9.430352622373638 68.29961551868952,-9.305701303833258 68.33287851566448,-9.181562109110716 68.36810691372257,-9.057966289584419 68.405291844303,-8.934944959840971 68.44442394629834,-8.812529089842254 68.48549336841118,-8.690749497128884 68.52848977163414,-8.569636839062083 68.57340233185263,-8.449221605105837 68.6202197425698,-8.329534109151346 68.66893021775289,-8.21060448188566 68.71952149480023,-8.092462663206426 68.7719808376284,-7.975138394684718 68.82629503987836,-7.858661212077709 68.88245042824018,-7.743060437893229 68.94043286589512,-7.628365174007976 69.0002277560746,-7.51460429434127 69.06182004573473,-7.401806437586204 69.12519422934604,-7.289999999999998 69.19033435279668,-7.17921312825541 69.25722401740894,-7.069473712354929 69.32584638406743,-6.9608093786096585 69.39618417745835,-6.853247482684506 69.46821969041835,-6.746815102711557 69.54193478839228,-6.641539032473295 69.61731091399842,-6.537445774657413 69.69432909170025,-6.434561534184901 69.77296993258342,-6.332912211613096 69.85321363923676,-6.232523396615367 69.93504001073627,-6.133420361539031 70.01842844773051,-6.03562805504319 70.10335795762639,-5.939171095818038 70.18980715987398,-5.844073766387229 70.27775429134894,-5.750360006994893 70.36717721183122,-5.6580534095787955 70.4580534095788,-5.56717721183121 70.5503600069949,-5.477754291348932 70.64407376638724,-5.389807159873981 70.73917109581804,-5.303357957626387 70.83562805504319,-5.218428447730508 70.93342036153904,-5.135040010736278 71.03252339661536,-5.053213639236769 71.1329122116131,-4.972969932583423 71.23456153418489,-4.894329091700259 71.3374457746574,-4.817310913998427 71.4415390324733,-4.741934788392281 71.54681510271155,-4.668219690418357 71.6532474826845,-4.596184177458352 71.76080937860965,-4.525846384067432 71.86947371235493,-4.457224017408934 71.97921312825541,-4.3903343527966845 72.09,-4.325194229346045 72.2018064375862,-4.261820045734742 72.31460429434127,-4.200227756074587 72.42836517400796,-4.14043286589512 72.54306043789323,-4.082450428240178 72.6586612120777,-4.026295039878368 72.77513839468472,-3.9719808376284 72.89246266320643,-3.9195214948002364 73.01060448188565,-3.86893021775289 73.12953410915135,-3.820219742569812 73.24922160510584,-3.773402331852635 73.36963683906208,-3.7284897716341407 73.49074949712889,-3.6854933684111857 73.61252908984225,-3.644423946298341 73.73494495984097,-3.6052918443030015 73.85796628958443,-3.5681069137225703 73.98156210911071,-3.5328785156644695 74.10570130383326,-3.4996155186895135 74.23035262237364,-3.4683262965793107 74.35548468442902,-3.439018726228203 74.48106598867196,-3.4117001856602913 74.60706492068068,-3.3863775521720756 74.73344976089787,-3.3630572006011143 74.86018869261586,-3.3417450017212054 74.9872498099864,-3.3224463207644446 75.11460112605263,-3.3051660160705567 75.24221058080181,-3.289908437863841 75.37004604923612,-3.276677427158014 75.49807534946001,-3.2654763147892667 75.62626625078182,-3.256307920577735 75.75458648182769,-3.2491745526176348 75.88300373866565,-3.2440780066962 76.01148569293807,-3.241019565841611 76.14,-3.2399999999999993 85.86,-3.240000000000003 " style="stroke:purple;fill:none;stroke-width:1;stroke-linecap:round;stroke-linejoin:round;" /><path d="M 0.0,-0.0 L 129.6,-0.0 L 129.6,-129.6 L 0.0,-129.6 L 0.0,-0.0" style="stroke:black;fill:none;stroke-width:1.25;stroke-linecap:round;stroke-linejoin:round;" /><path d="M 0.0,-0.0 L 129.6,-0.0" style="stroke:black;fill:none;stroke-width:1.25;stroke-linecap:round;stroke-linejoin:round;" /><path d="M 0.0,-32.4 L 129.6,-32.4" style="stroke:black;fill:none;stroke-width:1.25;stroke-linecap:round;stroke-linejoin:round;" /><path d="M 0.0,-64.8 L 129.6,-64.8" style="stroke:black;fill:none;stroke-width:1.25;stroke-linecap:round;stroke-linejoin:round;" /><path d="M 0.0,-97.19999999999999 L 129.6,-97.19999999999999" style="stroke:black;fill:none;stroke-width:1.25;stroke-linecap:round;stroke-linejoin:round;" /><path d="M 0.0,-0.0 L 0.0,-129.6" style="stroke:black;fill:none;stroke-width:1.25;stroke-linecap:round;stroke-linejoin:round;" /><path d="M 32.4,-0.0 L 32.4,-129.6" style="stroke:black;fill:none;stroke-width:1.25;stroke-linecap:round;stroke-linejoin:round;" /><path d="M 64.8,-0.0 L 64.8,-129.6" style="stroke:black;fill:none;stroke-width:1.25;stroke-linecap:round;stroke-linejoin:round;" /><path d="M 97.19999999999999,-0.0 L 97.19999999999999,-129.6" style="stroke:black;fill:none;stroke-width:1.25;stroke-linecap:round;stroke-linejoin:round;" /><path d="M 0.0,-129.6 L -22.910259710444137,-152.51025971044413" style="stroke:black;fill:none;stroke-width:1.25;stroke-linecap:round;stroke-linejoin:round;" /><text x="0.0" y="-158.18269478283307" fill="black" font-size="12" font-family="sans" text-anchor="end" transform="rotate(0 0.0 -148.58269478283307)"><tspan x="0.0" dy="9.600000000000001">AB</tspan></text><text x="-17.182694782833103" y="-140.99999999999997" fill="black" font-size="12" font-family="sans" text-anchor="end" transform="rotate(0 -17.182694782833103 -131.39999999999998)"><tspan x="-17.182694782833103" dy="9.600000000000001">CD</tspan></text><text x="16.2" y="-140.72" fill="black" font-size="10" font-family="sans" text-anchor="middle" transform="rotate(0 16.2 -132.72)"><tspan x="16.2" dy="8.0">00</tspan></text><text x="48.599999999999994" y="-140.72" fill="black" font-size="10" font-family="sans" text-anchor="middle" transform="rotate(0 48.599999999999994 -132.72)"><tspan x="48.599999999999994" dy="8.0">01</tspan></text><text x="113.39999999999999" y="-140.72" fill="black" font-size="10" font-family="sans" text-anchor="middle" transform="rotate(0 113.39999999999999 -132.72)"><tspan x="113.39999999999999" dy="8.0">10</tspan></text><text x="81.0" y="-140.72" fill="black" font-size="10" font-family="sans" text-anchor="middle" transform="rotate(0 81.0 -132.72)"><tspan x="81.0" dy="8.0">11</tspan></text><text x="-3.24" y="-118.89999999999999" fill="black" font-size="10" font-family="sans" text-anchor="end" transform="rotate(0 -3.24 -114.89999999999999)"><tspan x="-3.24" dy="8.0">00</tspan></text><text x="-3.24" y="-86.5" fill="black" font-size="10" font-family="sans" text-anchor="end" transform="rotate(0 -3.24 -82.5)"><tspan x="-3.24" dy="8.0">01</tspan></text><text x="-3.24" y="-21.7" fill="black" font-size="10" font-family="sans" text-anchor="end" transform="rotate(0 -3.24 -17.7)"><tspan x="-3.24" dy="8.0">10</tspan></text><text x="-3.24" y="-54.099999999999994" fill="black" font-size="10" font-family="sans" text-anchor="end" transform="rotate(0 -3.24 -50.099999999999994)"><tspan x="-3.24" dy="8.0">11</tspan></text><text x="16.2" y="-120.0" fill="black" font-size="12" font-family="sans" text-anchor="middle" transform="rotate(0 16.2 -115.19999999999999)"><tspan x="16.2" dy="9.600000000000001">x</tspan></text><text x="16.2" y="-87.6" fill="black" font-size="12" font-family="sans" text-anchor="middle" transform="rotate(0 16.2 -82.79999999999998)"><tspan x="16.2" dy="9.600000000000001">x</tspan></text><text x="16.2" y="-22.8" fill="black" font-size="12" font-family="sans" text-anchor="middle" transform="rotate(0 16.2 -18.0)"><tspan x="16.2" dy="9.600000000000001">1</tspan></text><text x="16.2" y="-55.199999999999996" fill="black" font-size="12" font-family="sans" text-anchor="middle" transform="rotate(0 16.2 -50.4)"><tspan x="16.2" dy="9.600000000000001">0</tspan></text><text x="48.599999999999994" y="-120.0" fill="black" font-size="12" font-family="sans" text-anchor="middle" transform="rotate(0 48.599999999999994 -115.19999999999999)"><tspan x="48.599999999999994" dy="9.600000000000001">1</tspan></text><text x="48.599999999999994" y="-87.6" fill="black" font-size="12" font-family="sans" text-anchor="middle" transform="rotate(0 48.599999999999994 -82.79999999999998)"><tspan x="48.599999999999994" dy="9.600000000000001">0</tspan></text><text x="48.599999999999994" y="-22.8" fill="black" font-size="12" font-family="sans" text-anchor="middle" transform="rotate(0 48.599999999999994 -18.0)"><tspan x="48.599999999999994" dy="9.600000000000001">1</tspan></text><text x="48.599999999999994" y="-55.199999999999996" fill="black" font-size="12" font-family="sans" text-anchor="middle" transform="rotate(0 48.599999999999994 -50.4)"><tspan x="48.599999999999994" dy="9.600000000000001">0</tspan></text><text x="113.39999999999999" y="-120.0" fill="black" font-size="12" font-family="sans" text-anchor="middle" transform="rotate(0 113.39999999999999 -115.19999999999999)"><tspan x="113.39999999999999" dy="9.600000000000001">1</tspan></text><text x="113.39999999999999" y="-87.6" fill="black" font-size="12" font-family="sans" text-anchor="middle" transform="rotate(0 113.39999999999999 -82.79999999999998)"><tspan x="113.39999999999999" dy="9.600000000000001">1</tspan></text><text x="113.39999999999999" y="-22.8" fill="black" font-size="12" font-family="sans" text-anchor="middle" transform="rotate(0 113.39999999999999 -18.0)"><tspan x="113.39999999999999" dy="9.600000000000001">1</tspan></text><text x="113.39999999999999" y="-55.199999999999996" fill="black" font-size="12" font-family="sans" text-anchor="middle" transform="rotate(0 113.39999999999999 -50.4)"><tspan x="113.39999999999999" dy="9.600000000000001">0</tspan></text><text x="81.0" y="-120.0" fill="black" font-size="12" font-family="sans" text-anchor="middle" transform="rotate(0 81.0 -115.19999999999999)"><tspan x="81.0" dy="9.600000000000001">1</tspan></text><text x="81.0" y="-87.6" fill="black" font-size="12" font-family="sans" text-anchor="middle" transform="rotate(0 81.0 -82.79999999999998)"><tspan x="81.0" dy="9.600000000000001">0</tspan></text><text x="81.0" y="-22.8" fill="black" font-size="12" font-family="sans" text-anchor="middle" transform="rotate(0 81.0 -18.0)"><tspan x="81.0" dy="9.600000000000001">1</tspan></text><text x="81.0" y="-55.199999999999996" fill="black" font-size="12" font-family="sans" text-anchor="middle" transform="rotate(0 81.0 -50.4)"><tspan x="81.0" dy="9.600000000000001">1</tspan></text></svg>