<?xml version="1.0" encoding="utf-8" standalone="no"?>
<!DOCTYPE svg PUBLIC "-//W3C//DTD SVG 1.1//EN"
  "http://www.w3.org/Graphics/SVG/1.1/DTD/svg11.dtd">
<svg xmlns:xlink="http://www.w3.org/1999/xlink" width="178.681101pt" height="179.548101pt" viewBox="0 0 178.681101 179.548101" xmlns="http://www.w3.org/2000/svg" version="1.1">
 <metadata>
  <rdf:RDF xmlns:dc="http://purl.org/dc/elements/1.1/" xmlns:cc="http://creativecommons.org/ns#" xmlns:rdf="http://www.w3.org/1999/02/22-rdf-syntax-ns#">
   <cc:Work>
    <dc:type rdf:resource="http://purl.org/dc/dcmitype/StillImage"/>
    <dc:date>2022-01-20T15:58:15.167021</dc:date>
    <dc:format>image/svg+xml</dc:format>
    <dc:creator>
     <cc:Agent>
      <dc:title>Matplotlib v3.5.1, https://matplotlib.org/</dc:title>
     </cc:Agent>
    </dc:creator>
   </cc:Work>
  </rdf:RDF>
 </metadata>
 <defs>
  <style type="text/css">*{stroke-linejoin: round; stroke-linecap: butt}</style>
 </defs>
 <g id="figure_1">
  <g id="patch_1">
   <path d="M 0 179.548101 
L 178.681101 179.548101 
L 178.681101 0 
L 0 0 
L 0 179.548101 
z
" style="fill: none"/>
  </g>
  <g id="axes_1">
   <g id="patch_2">
    <path d="M 94.726101 135.628101 
L 94.847475 135.627138 
L 94.968819 135.624249 
L 95.090102 135.619436 
L 95.211294 135.612699 
L 95.332363 135.60404 
L 95.453279 135.593461 
L 95.574013 135.580965 
L 95.694533 135.566555 
L 95.814809 135.550235 
L 95.934811 135.532008 
L 96.054509 135.51188 
L 96.173873 135.489855 
L 96.292872 135.465939 
L 96.411476 135.440138 
L 96.529656 135.412459 
L 96.647383 135.382908 
L 96.764625 135.351493 
L 96.881355 135.318222 
L 96.997541 135.283103 
L 97.113156 135.246145 
L 97.228171 135.207357 
L 97.342555 135.166749 
L 97.45628 135.124332 
L 97.569318 135.080115 
L 97.681641 135.034111 
L 97.793219 134.98633 
L 97.904025 134.936785 
L 98.014032 134.885489 
L 98.12321 134.832453 
L 98.231534 134.777692 
L 98.338974 134.721219 
L 98.445506 134.663048 
L 98.551101 134.603195 
L 98.655733 134.541674 
L 98.759375 134.4785 
L 98.862003 134.41369 
L 98.963589 134.34726 
L 99.064109 134.279226 
L 99.163536 134.209607 
L 99.261846 134.138418 
L 99.359015 134.065679 
L 99.455017 133.991407 
L 99.549829 133.915621 
L 99.643426 133.838341 
L 99.735785 133.759585 
L 99.826883 133.679374 
L 99.916698 133.597727 
L 100.005205 133.514666 
L 100.092384 133.430211 
L 100.178211 133.344384 
L 100.262666 133.257205 
L 100.345727 133.168698 
L 100.427374 133.078883 
L 100.507585 132.987785 
L 100.586341 132.895426 
L 100.663621 132.801829 
L 100.739407 132.707017 
L 100.813679 132.611015 
L 100.886418 132.513846 
L 100.957607 132.415536 
L 101.027226 132.316109 
L 101.09526 132.215589 
L 101.16169 132.114003 
L 101.2265 132.011375 
L 101.289674 131.907733 
L 101.351195 131.803101 
L 101.411048 131.697506 
L 101.469219 131.590974 
L 101.525692 131.483534 
L 101.580453 131.37521 
L 101.633489 131.266032 
L 101.684785 131.156025 
L 101.73433 131.045219 
L 101.782111 130.933641 
L 101.828115 130.821318 
L 101.872332 130.70828 
L 101.914749 130.594555 
L 101.955357 130.480171 
L 101.994145 130.365156 
L 102.031103 130.249541 
L 102.066222 130.133355 
L 102.099493 130.016625 
L 102.130908 129.899383 
L 102.160459 129.781656 
L 102.188138 129.663476 
L 102.213939 129.544872 
L 102.237855 129.425873 
L 102.25988 129.306509 
L 102.280008 129.186811 
L 102.298235 129.066809 
L 102.314555 128.946533 
L 102.328965 128.826013 
L 102.341461 128.705279 
L 102.35204 128.584363 
L 102.360699 128.463294 
L 102.367436 128.342102 
L 102.372249 128.220819 
L 102.375138 128.099475 
L 102.376101 127.978101 
L 102.376101 88.198101 
L 102.375138 88.076726 
L 102.372249 87.955382 
L 102.367436 87.834099 
L 102.360699 87.712908 
L 102.35204 87.591838 
L 102.341461 87.470922 
L 102.328965 87.350188 
L 102.314555 87.229668 
L 102.298235 87.109392 
L 102.280008 86.98939 
L 102.25988 86.869692 
L 102.237855 86.750329 
L 102.213939 86.63133 
L 102.188138 86.512725 
L 102.160459 86.394545 
L 102.130908 86.276819 
L 102.099493 86.159576 
L 102.066222 86.042847 
L 102.031103 85.92666 
L 101.994145 85.811045 
L 101.955357 85.696031 
L 101.914749 85.581647 
L 101.872332 85.467921 
L 101.828115 85.354883 
L 101.782111 85.24256 
L 101.73433 85.130982 
L 101.684785 85.020176 
L 101.633489 84.91017 
L 101.580453 84.800991 
L 101.525692 84.692668 
L 101.469219 84.585227 
L 101.411048 84.478696 
L 101.351195 84.373101 
L 101.289674 84.268469 
L 101.2265 84.164826 
L 101.16169 84.062198 
L 101.09526 83.960612 
L 101.027226 83.860093 
L 100.957607 83.760665 
L 100.886418 83.662355 
L 100.813679 83.565187 
L 100.739407 83.469184 
L 100.663621 83.374373 
L 100.586341 83.280775 
L 100.507585 83.188416 
L 100.427374 83.097318 
L 100.345727 83.007504 
L 100.262666 82.918996 
L 100.178211 82.831818 
L 100.092384 82.74599 
L 100.005205 82.661535 
L 99.916698 82.578474 
L 99.826883 82.496828 
L 99.735785 82.416616 
L 99.643426 82.337861 
L 99.549829 82.26058 
L 99.455017 82.184794 
L 99.359015 82.110523 
L 99.261846 82.037783 
L 99.163536 81.966595 
L 99.064109 81.896975 
L 98.963589 81.828941 
L 98.862003 81.762511 
L 98.759375 81.697701 
L 98.655733 81.634528 
L 98.551101 81.573006 
L 98.445506 81.513153 
L 98.338974 81.454982 
L 98.231534 81.398509 
L 98.12321 81.343748 
L 98.014032 81.290713 
L 97.904025 81.239416 
L 97.793219 81.189871 
L 97.681641 81.14209 
L 97.569318 81.096086 
L 97.45628 81.051869 
L 97.342555 81.009452 
L 97.228171 80.968844 
L 97.113156 80.930057 
L 96.997541 80.893098 
L 96.881355 80.857979 
L 96.764625 80.824708 
L 96.647383 80.793293 
L 96.529656 80.763742 
L 96.411476 80.736063 
L 96.292872 80.710262 
L 96.173873 80.686346 
L 96.054509 80.664321 
L 95.934811 80.644193 
L 95.814809 80.625967 
L 95.694533 80.609646 
L 95.574013 80.595236 
L 95.453279 80.58274 
L 95.332363 80.572162 
L 95.211294 80.563503 
L 95.090102 80.556765 
L 94.968819 80.551952 
L 94.847475 80.549064 
L 94.726101 80.548101 
L 54.946101 80.548101 
L 54.824726 80.549064 
L 54.703382 80.551952 
L 54.582099 80.556765 
L 54.460908 80.563503 
L 54.339838 80.572162 
L 54.218922 80.58274 
L 54.098188 80.595236 
L 53.977668 80.609646 
L 53.857392 80.625967 
L 53.73739 80.644193 
L 53.617692 80.664321 
L 53.498329 80.686346 
L 53.37933 80.710262 
L 53.260725 80.736063 
L 53.142545 80.763742 
L 53.024819 80.793293 
L 52.907576 80.824708 
L 52.790847 80.857979 
L 52.67466 80.893098 
L 52.559045 80.930057 
L 52.444031 80.968844 
L 52.329647 81.009452 
L 52.215921 81.051869 
L 52.102883 81.096086 
L 51.99056 81.14209 
L 51.878982 81.189871 
L 51.768176 81.239416 
L 51.65817 81.290713 
L 51.548991 81.343748 
L 51.440668 81.398509 
L 51.333227 81.454982 
L 51.226696 81.513153 
L 51.121101 81.573006 
L 51.016469 81.634528 
L 50.912826 81.697701 
L 50.810198 81.762511 
L 50.708612 81.828941 
L 50.608093 81.896975 
L 50.508665 81.966595 
L 50.410355 82.037783 
L 50.313187 82.110523 
L 50.217184 82.184794 
L 50.122373 82.26058 
L 50.028775 82.337861 
L 49.936416 82.416616 
L 49.845318 82.496828 
L 49.755504 82.578474 
L 49.666996 82.661535 
L 49.579818 82.74599 
L 49.49399 82.831818 
L 49.409535 82.918996 
L 49.326474 83.007504 
L 49.244828 83.097318 
L 49.164616 83.188416 
L 49.085861 83.280775 
L 49.00858 83.374373 
L 48.932794 83.469184 
L 48.858523 83.565187 
L 48.785783 83.662355 
L 48.714595 83.760665 
L 48.644975 83.860093 
L 48.576941 83.960612 
L 48.510511 84.062198 
L 48.445701 84.164826 
L 48.382528 84.268469 
L 48.321006 84.373101 
L 48.261153 84.478696 
L 48.202982 84.585227 
L 48.146509 84.692668 
L 48.091748 84.800991 
L 48.038713 84.91017 
L 47.987416 85.020176 
L 47.937871 85.130982 
L 47.89009 85.24256 
L 47.844086 85.354883 
L 47.799869 85.467921 
L 47.757452 85.581647 
L 47.716844 85.696031 
L 47.678057 85.811045 
L 47.641098 85.92666 
L 47.605979 86.042847 
L 47.572708 86.159576 
L 47.541293 86.276819 
L 47.511742 86.394545 
L 47.484063 86.512725 
L 47.458262 86.63133 
L 47.434346 86.750329 
L 47.412321 86.869692 
L 47.392193 86.98939 
L 47.373967 87.109392 
L 47.357646 87.229668 
L 47.343236 87.350188 
L 47.33074 87.470922 
L 47.320162 87.591838 
L 47.311503 87.712908 
L 47.304765 87.834099 
L 47.299952 87.955382 
L 47.297064 88.076726 
L 47.296101 88.198101 
L 47.296101 127.978101 
L 47.297064 128.099475 
L 47.299952 128.220819 
L 47.304765 128.342102 
L 47.311503 128.463294 
L 47.320162 128.584363 
L 47.33074 128.705279 
L 47.343236 128.826013 
L 47.357646 128.946533 
L 47.373967 129.066809 
L 47.392193 129.186811 
L 47.412321 129.306509 
L 47.434346 129.425873 
L 47.458262 129.544872 
L 47.484063 129.663476 
L 47.511742 129.781656 
L 47.541293 129.899383 
L 47.572708 130.016625 
L 47.605979 130.133355 
L 47.641098 130.249541 
L 47.678057 130.365156 
L 47.716844 130.480171 
L 47.757452 130.594555 
L 47.799869 130.70828 
L 47.844086 130.821318 
L 47.89009 130.933641 
L 47.937871 131.045219 
L 47.987416 131.156025 
L 48.038713 131.266032 
L 48.091748 131.37521 
L 48.146509 131.483534 
L 48.202982 131.590974 
L 48.261153 131.697506 
L 48.321006 131.803101 
L 48.382528 131.907733 
L 48.445701 132.011375 
L 48.510511 132.114003 
L 48.576941 132.215589 
L 48.644975 132.316109 
L 48.714595 132.415536 
L 48.785783 132.513846 
L 48.858523 132.611015 
L 48.932794 132.707017 
L 49.00858 132.801829 
L 49.085861 132.895426 
L 49.164616 132.987785 
L 49.244828 133.078883 
L 49.326474 133.168698 
L 49.409535 133.257205 
L 49.49399 133.344384 
L 49.579818 133.430211 
L 49.666996 133.514666 
L 49.755504 133.597727 
L 49.845318 133.679374 
L 49.936416 133.759585 
L 50.028775 133.838341 
L 50.122373 133.915621 
L 50.217184 133.991407 
L 50.313187 134.065679 
L 50.410355 134.138418 
L 50.508665 134.209607 
L 50.608093 134.279226 
L 50.708612 134.34726 
L 50.810198 134.41369 
L 50.912826 134.4785 
L 51.016469 134.541674 
L 51.121101 134.603195 
L 51.226696 134.663048 
L 51.333227 134.721219 
L 51.440668 134.777692 
L 51.548991 134.832453 
L 51.65817 134.885489 
L 51.768176 134.936785 
L 51.878982 134.98633 
L 51.99056 135.034111 
L 52.102883 135.080115 
L 52.215921 135.124332 
L 52.329647 135.166749 
L 52.444031 135.207357 
L 52.559045 135.246145 
L 52.67466 135.283103 
L 52.790847 135.318222 
L 52.907576 135.351493 
L 53.024819 135.382908 
L 53.142545 135.412459 
L 53.260725 135.440138 
L 53.37933 135.465939 
L 53.498329 135.489855 
L 53.617692 135.51188 
L 53.73739 135.532008 
L 53.857392 135.550235 
L 53.977668 135.566555 
L 54.098188 135.580965 
L 54.218922 135.593461 
L 54.339838 135.60404 
L 54.460908 135.612699 
L 54.582099 135.619436 
L 54.703382 135.624249 
L 54.824726 135.627138 
L 54.946101 135.628101 
z
" clip-path="url(#p80ba7c2955)" style="fill: #ff0000; fill-opacity: 0.2; stroke: #ff0000; stroke-linecap: round"/>
   </g>
   <g id="patch_3">
    <path d="M 125.326101 166.228101 
L 125.447475 166.227138 
L 125.568819 166.224249 
L 125.690102 166.219436 
L 125.811294 166.212699 
L 125.932363 166.20404 
L 126.053279 166.193461 
L 126.174013 166.180965 
L 126.294533 166.166555 
L 126.414809 166.150235 
L 126.534811 166.132008 
L 126.654509 166.11188 
L 126.773873 166.089855 
L 126.892872 166.065939 
L 127.011476 166.040138 
L 127.129656 166.012459 
L 127.247383 165.982908 
L 127.364625 165.951493 
L 127.481355 165.918222 
L 127.597541 165.883103 
L 127.713156 165.846145 
L 127.828171 165.807357 
L 127.942555 165.766749 
L 128.05628 165.724332 
L 128.169318 165.680115 
L 128.281641 165.634111 
L 128.393219 165.58633 
L 128.504025 165.536785 
L 128.614032 165.485489 
L 128.72321 165.432453 
L 128.831534 165.377692 
L 128.938974 165.321219 
L 129.045506 165.263048 
L 129.151101 165.203195 
L 129.255733 165.141674 
L 129.359375 165.0785 
L 129.462003 165.01369 
L 129.563589 164.94726 
L 129.664109 164.879226 
L 129.763536 164.809607 
L 129.861846 164.738418 
L 129.959015 164.665679 
L 130.055017 164.591407 
L 130.149829 164.515621 
L 130.243426 164.438341 
L 130.335785 164.359585 
L 130.426883 164.279374 
L 130.516698 164.197727 
L 130.605205 164.114666 
L 130.692384 164.030211 
L 130.778211 163.944384 
L 130.862666 163.857205 
L 130.945727 163.768698 
L 131.027374 163.678883 
L 131.107585 163.587785 
L 131.186341 163.495426 
L 131.263621 163.401829 
L 131.339407 163.307017 
L 131.413679 163.211015 
L 131.486418 163.113846 
L 131.557607 163.015536 
L 131.627226 162.916109 
L 131.69526 162.815589 
L 131.76169 162.714003 
L 131.8265 162.611375 
L 131.889674 162.507733 
L 131.951195 162.403101 
L 132.011048 162.297506 
L 132.069219 162.190974 
L 132.125692 162.083534 
L 132.180453 161.97521 
L 132.233489 161.866032 
L 132.284785 161.756025 
L 132.33433 161.645219 
L 132.382111 161.533641 
L 132.428115 161.421318 
L 132.472332 161.30828 
L 132.514749 161.194555 
L 132.555357 161.080171 
L 132.594145 160.965156 
L 132.631103 160.849541 
L 132.666222 160.733355 
L 132.699493 160.616625 
L 132.730908 160.499383 
L 132.760459 160.381656 
L 132.788138 160.263476 
L 132.813939 160.144872 
L 132.837855 160.025873 
L 132.85988 159.906509 
L 132.880008 159.786811 
L 132.898235 159.666809 
L 132.914555 159.546533 
L 132.928965 159.426013 
L 132.941461 159.305279 
L 132.95204 159.184363 
L 132.960699 159.063294 
L 132.967436 158.942102 
L 132.972249 158.820819 
L 132.975138 158.699475 
L 132.976101 158.578101 
L 132.976101 57.598101 
L 132.975138 57.476726 
L 132.972249 57.355382 
L 132.967436 57.234099 
L 132.960699 57.112908 
L 132.95204 56.991838 
L 132.941461 56.870922 
L 132.928965 56.750188 
L 132.914555 56.629668 
L 132.898235 56.509392 
L 132.880008 56.38939 
L 132.85988 56.269692 
L 132.837855 56.150329 
L 132.813939 56.03133 
L 132.788138 55.912725 
L 132.760459 55.794545 
L 132.730908 55.676819 
L 132.699493 55.559576 
L 132.666222 55.442847 
L 132.631103 55.32666 
L 132.594145 55.211045 
L 132.555357 55.096031 
L 132.514749 54.981647 
L 132.472332 54.867921 
L 132.428115 54.754883 
L 132.382111 54.64256 
L 132.33433 54.530982 
L 132.284785 54.420176 
L 132.233489 54.31017 
L 132.180453 54.200991 
L 132.125692 54.092668 
L 132.069219 53.985227 
L 132.011048 53.878696 
L 131.951195 53.773101 
L 131.889674 53.668469 
L 131.8265 53.564826 
L 131.76169 53.462198 
L 131.69526 53.360612 
L 131.627226 53.260093 
L 131.557607 53.160665 
L 131.486418 53.062355 
L 131.413679 52.965187 
L 131.339407 52.869184 
L 131.263621 52.774373 
L 131.186341 52.680775 
L 131.107585 52.588416 
L 131.027374 52.497318 
L 130.945727 52.407504 
L 130.862666 52.318996 
L 130.778211 52.231818 
L 130.692384 52.14599 
L 130.605205 52.061535 
L 130.516698 51.978474 
L 130.426883 51.896828 
L 130.335785 51.816616 
L 130.243426 51.737861 
L 130.149829 51.66058 
L 130.055017 51.584794 
L 129.959015 51.510523 
L 129.861846 51.437783 
L 129.763536 51.366595 
L 129.664109 51.296975 
L 129.563589 51.228941 
L 129.462003 51.162511 
L 129.359375 51.097701 
L 129.255733 51.034528 
L 129.151101 50.973006 
L 129.045506 50.913153 
L 128.938974 50.854982 
L 128.831534 50.798509 
L 128.72321 50.743748 
L 128.614032 50.690713 
L 128.504025 50.639416 
L 128.393219 50.589871 
L 128.281641 50.54209 
L 128.169318 50.496086 
L 128.05628 50.451869 
L 127.942555 50.409452 
L 127.828171 50.368844 
L 127.713156 50.330057 
L 127.597541 50.293098 
L 127.481355 50.257979 
L 127.364625 50.224708 
L 127.247383 50.193293 
L 127.129656 50.163742 
L 127.011476 50.136063 
L 126.892872 50.110262 
L 126.773873 50.086346 
L 126.654509 50.064321 
L 126.534811 50.044193 
L 126.414809 50.025967 
L 126.294533 50.009646 
L 126.174013 49.995236 
L 126.053279 49.98274 
L 125.932363 49.972162 
L 125.811294 49.963503 
L 125.690102 49.956765 
L 125.568819 49.951952 
L 125.447475 49.949064 
L 125.326101 49.948101 
L 85.546101 49.948101 
L 85.424726 49.949064 
L 85.303382 49.951952 
L 85.182099 49.956765 
L 85.060908 49.963503 
L 84.939838 49.972162 
L 84.818922 49.98274 
L 84.698188 49.995236 
L 84.577668 50.009646 
L 84.457392 50.025967 
L 84.33739 50.044193 
L 84.217692 50.064321 
L 84.098329 50.086346 
L 83.97933 50.110262 
L 83.860725 50.136063 
L 83.742545 50.163742 
L 83.624819 50.193293 
L 83.507576 50.224708 
L 83.390847 50.257979 
L 83.27466 50.293098 
L 83.159045 50.330057 
L 83.044031 50.368844 
L 82.929647 50.409452 
L 82.815921 50.451869 
L 82.702883 50.496086 
L 82.59056 50.54209 
L 82.478982 50.589871 
L 82.368176 50.639416 
L 82.25817 50.690713 
L 82.148991 50.743748 
L 82.040668 50.798509 
L 81.933227 50.854982 
L 81.826696 50.913153 
L 81.721101 50.973006 
L 81.616469 51.034528 
L 81.512826 51.097701 
L 81.410198 51.162511 
L 81.308612 51.228941 
L 81.208093 51.296975 
L 81.108665 51.366595 
L 81.010355 51.437783 
L 80.913187 51.510523 
L 80.817184 51.584794 
L 80.722373 51.66058 
L 80.628775 51.737861 
L 80.536416 51.816616 
L 80.445318 51.896828 
L 80.355504 51.978474 
L 80.266996 52.061535 
L 80.179818 52.14599 
L 80.09399 52.231818 
L 80.009535 52.318996 
L 79.926474 52.407504 
L 79.844828 52.497318 
L 79.764616 52.588416 
L 79.685861 52.680775 
L 79.60858 52.774373 
L 79.532794 52.869184 
L 79.458523 52.965187 
L 79.385783 53.062355 
L 79.314595 53.160665 
L 79.244975 53.260093 
L 79.176941 53.360612 
L 79.110511 53.462198 
L 79.045701 53.564826 
L 78.982528 53.668469 
L 78.921006 53.773101 
L 78.861153 53.878696 
L 78.802982 53.985227 
L 78.746509 54.092668 
L 78.691748 54.200991 
L 78.638713 54.31017 
L 78.587416 54.420176 
L 78.537871 54.530982 
L 78.49009 54.64256 
L 78.444086 54.754883 
L 78.399869 54.867921 
L 78.357452 54.981647 
L 78.316844 55.096031 
L 78.278057 55.211045 
L 78.241098 55.32666 
L 78.205979 55.442847 
L 78.172708 55.559576 
L 78.141293 55.676819 
L 78.111742 55.794545 
L 78.084063 55.912725 
L 78.058262 56.03133 
L 78.034346 56.150329 
L 78.012321 56.269692 
L 77.992193 56.38939 
L 77.973967 56.509392 
L 77.957646 56.629668 
L 77.943236 56.750188 
L 77.93074 56.870922 
L 77.920162 56.991838 
L 77.911503 57.112908 
L 77.904765 57.234099 
L 77.899952 57.355382 
L 77.897064 57.476726 
L 77.896101 57.598101 
L 77.896101 158.578101 
L 77.897064 158.699475 
L 77.899952 158.820819 
L 77.904765 158.942102 
L 77.911503 159.063294 
L 77.920162 159.184363 
L 77.93074 159.305279 
L 77.943236 159.426013 
L 77.957646 159.546533 
L 77.973967 159.666809 
L 77.992193 159.786811 
L 78.012321 159.906509 
L 78.034346 160.025873 
L 78.058262 160.144872 
L 78.084063 160.263476 
L 78.111742 160.381656 
L 78.141293 160.499383 
L 78.172708 160.616625 
L 78.205979 160.733355 
L 78.241098 160.849541 
L 78.278057 160.965156 
L 78.316844 161.080171 
L 78.357452 161.194555 
L 78.399869 161.30828 
L 78.444086 161.421318 
L 78.49009 161.533641 
L 78.537871 161.645219 
L 78.587416 161.756025 
L 78.638713 161.866032 
L 78.691748 161.97521 
L 78.746509 162.083534 
L 78.802982 162.190974 
L 78.861153 162.297506 
L 78.921006 162.403101 
L 78.982528 162.507733 
L 79.045701 162.611375 
L 79.110511 162.714003 
L 79.176941 162.815589 
L 79.244975 162.916109 
L 79.314595 163.015536 
L 79.385783 163.113846 
L 79.458523 163.211015 
L 79.532794 163.307017 
L 79.60858 163.401829 
L 79.685861 163.495426 
L 79.764616 163.587785 
L 79.844828 163.678883 
L 79.926474 163.768698 
L 80.009535 163.857205 
L 80.09399 163.944384 
L 80.179818 164.030211 
L 80.266996 164.114666 
L 80.355504 164.197727 
L 80.445318 164.279374 
L 80.536416 164.359585 
L 80.628775 164.438341 
L 80.722373 164.515621 
L 80.817184 164.591407 
L 80.913187 164.665679 
L 81.010355 164.738418 
L 81.108665 164.809607 
L 81.208093 164.879226 
L 81.308612 164.94726 
L 81.410198 165.01369 
L 81.512826 165.0785 
L 81.616469 165.141674 
L 81.721101 165.203195 
L 81.826696 165.263048 
L 81.933227 165.321219 
L 82.040668 165.377692 
L 82.148991 165.432453 
L 82.25817 165.485489 
L 82.368176 165.536785 
L 82.478982 165.58633 
L 82.59056 165.634111 
L 82.702883 165.680115 
L 82.815921 165.724332 
L 82.929647 165.766749 
L 83.044031 165.807357 
L 83.159045 165.846145 
L 83.27466 165.883103 
L 83.390847 165.918222 
L 83.507576 165.951493 
L 83.624819 165.982908 
L 83.742545 166.012459 
L 83.860725 166.040138 
L 83.97933 166.065939 
L 84.098329 166.089855 
L 84.217692 166.11188 
L 84.33739 166.132008 
L 84.457392 166.150235 
L 84.577668 166.166555 
L 84.698188 166.180965 
L 84.818922 166.193461 
L 84.939838 166.20404 
L 85.060908 166.212699 
L 85.182099 166.219436 
L 85.303382 166.224249 
L 85.424726 166.227138 
L 85.546101 166.228101 
z
" clip-path="url(#p80ba7c2955)" style="fill: #0000ff; fill-opacity: 0.2; stroke: #0000ff; stroke-linecap: round"/>
   </g>
   <g id="line2d_1">
    <path d="M 44.236101 169.288101 
L 166.636101 169.288101 
L 166.636101 46.888101 
L 44.236101 46.888101 
L 44.236101 169.288101 
" clip-path="url(#p80ba7c2955)" style="fill: none; stroke: #000000; stroke-width: 1.25; stroke-linecap: round"/>
   </g>
   <g id="line2d_2">
    <path d="M 44.236101 169.288101 
L 166.636101 169.288101 
" clip-path="url(#p80ba7c2955)" style="fill: none; stroke: #000000; stroke-width: 1.25; stroke-linecap: round"/>
   </g>
   <g id="line2d_3">
    <path d="M 44.236101 138.688101 
L 166.636101 138.688101 
" clip-path="url(#p80ba7c2955)" style="fill: none; stroke: #000000; stroke-width: 1.25; stroke-linecap: round"/>
   </g>
   <g id="line2d_4">
    <path d="M 44.236101 108.088101 
L 166.636101 108.088101 
" clip-path="url(#p80ba7c2955)" style="fill: none; stroke: #000000; stroke-width: 1.25; stroke-linecap: round"/>
   </g>
   <g id="line2d_5">
    <path d="M 44.236101 77.488101 
L 166.636101 77.488101 
" clip-path="url(#p80ba7c2955)" style="fill: none; stroke: #000000; stroke-width: 1.25; stroke-linecap: round"/>
   </g>
   <g id="line2d_6">
    <path d="M 44.236101 169.288101 
L 44.236101 46.888101 
" clip-path="url(#p80ba7c2955)" style="fill: none; stroke: #000000; stroke-width: 1.25; stroke-linecap: round"/>
   </g>
   <g id="line2d_7">
    <path d="M 74.836101 169.288101 
L 74.836101 46.888101 
" clip-path="url(#p80ba7c2955)" style="fill: none; stroke: #000000; stroke-width: 1.25; stroke-linecap: round"/>
   </g>
   <g id="line2d_8">
    <path d="M 105.436101 169.288101 
L 105.436101 46.888101 
" clip-path="url(#p80ba7c2955)" style="fill: none; stroke: #000000; stroke-width: 1.25; stroke-linecap: round"/>
   </g>
   <g id="line2d_9">
    <path d="M 136.036101 169.288101 
L 136.036101 46.888101 
" clip-path="url(#p80ba7c2955)" style="fill: none; stroke: #000000; stroke-width: 1.25; stroke-linecap: round"/>
   </g>
   <g id="line2d_10">
    <path d="M 44.236101 46.888101 
L 22.598633 25.250633 
" clip-path="url(#p80ba7c2955)" style="fill: none; stroke: #000000; stroke-width: 1.25; stroke-linecap: round"/>
   </g>
   <g id="text_1">
    <g clip-path="url(#p80ba7c2955)">
     <!-- 23 -->
     <g transform="translate(30.874851 28.476328)scale(0.105 -0.105)">
      <defs>
       <path id="DejaVuSans-32" d="M 1228 531 
L 3431 531 
L 3431 0 
L 469 0 
L 469 531 
Q 828 903 1448 1529 
Q 2069 2156 2228 2338 
Q 2531 2678 2651 2914 
Q 2772 3150 2772 3378 
Q 2772 3750 2511 3984 
Q 2250 4219 1831 4219 
Q 1534 4219 1204 4116 
Q 875 4013 500 3803 
L 500 4441 
Q 881 4594 1212 4672 
Q 1544 4750 1819 4750 
Q 2544 4750 2975 4387 
Q 3406 4025 3406 3419 
Q 3406 3131 3298 2873 
Q 3191 2616 2906 2266 
Q 2828 2175 2409 1742 
Q 1991 1309 1228 531 
z
" transform="scale(0.015625)"/>
       <path id="DejaVuSans-33" d="M 2597 2516 
Q 3050 2419 3304 2112 
Q 3559 1806 3559 1356 
Q 3559 666 3084 287 
Q 2609 -91 1734 -91 
Q 1441 -91 1130 -33 
Q 819 25 488 141 
L 488 750 
Q 750 597 1062 519 
Q 1375 441 1716 441 
Q 2309 441 2620 675 
Q 2931 909 2931 1356 
Q 2931 1769 2642 2001 
Q 2353 2234 1838 2234 
L 1294 2234 
L 1294 2753 
L 1863 2753 
Q 2328 2753 2575 2939 
Q 2822 3125 2822 3475 
Q 2822 3834 2567 4026 
Q 2313 4219 1838 4219 
Q 1578 4219 1281 4162 
Q 984 4106 628 3988 
L 628 4550 
Q 988 4650 1302 4700 
Q 1616 4750 1894 4750 
Q 2613 4750 3031 4423 
Q 3450 4097 3450 3541 
Q 3450 3153 3228 2886 
Q 3006 2619 2597 2516 
z
" transform="scale(0.015625)"/>
      </defs>
      <use xlink:href="#DejaVuSans-32"/>
      <use xlink:href="#DejaVuSans-33" x="63.623047"/>
     </g>
    </g>
   </g>
   <g id="text_2">
    <g clip-path="url(#p80ba7c2955)">
     <!-- 01 -->
     <g transform="translate(14.64675 44.704429)scale(0.105 -0.105)">
      <defs>
       <path id="DejaVuSans-30" d="M 2034 4250 
Q 1547 4250 1301 3770 
Q 1056 3291 1056 2328 
Q 1056 1369 1301 889 
Q 1547 409 2034 409 
Q 2525 409 2770 889 
Q 3016 1369 3016 2328 
Q 3016 3291 2770 3770 
Q 2525 4250 2034 4250 
z
M 2034 4750 
Q 2819 4750 3233 4129 
Q 3647 3509 3647 2328 
Q 3647 1150 3233 529 
Q 2819 -91 2034 -91 
Q 1250 -91 836 529 
Q 422 1150 422 2328 
Q 422 3509 836 4129 
Q 1250 4750 2034 4750 
z
" transform="scale(0.015625)"/>
       <path id="DejaVuSans-31" d="M 794 531 
L 1825 531 
L 1825 4091 
L 703 3866 
L 703 4441 
L 1819 4666 
L 2450 4666 
L 2450 531 
L 3481 531 
L 3481 0 
L 794 0 
L 794 531 
z
" transform="scale(0.015625)"/>
      </defs>
      <use xlink:href="#DejaVuSans-30"/>
      <use xlink:href="#DejaVuSans-31" x="63.623047"/>
     </g>
    </g>
   </g>
   <g id="text_3">
    <g clip-path="url(#p80ba7c2955)">
     <!-- 00 -->
     <g transform="translate(54.127976 43.590366)scale(0.085 -0.085)">
      <use xlink:href="#DejaVuSans-30"/>
      <use xlink:href="#DejaVuSans-30" x="63.623047"/>
     </g>
    </g>
   </g>
   <g id="text_4">
    <g clip-path="url(#p80ba7c2955)">
     <!-- 01 -->
     <g transform="translate(84.727976 43.590366)scale(0.085 -0.085)">
      <use xlink:href="#DejaVuSans-30"/>
      <use xlink:href="#DejaVuSans-31" x="63.623047"/>
     </g>
    </g>
   </g>
   <g id="text_5">
    <g clip-path="url(#p80ba7c2955)">
     <!-- 10 -->
     <g transform="translate(145.927976 43.590366)scale(0.085 -0.085)">
      <use xlink:href="#DejaVuSans-31"/>
      <use xlink:href="#DejaVuSans-30" x="63.623047"/>
     </g>
    </g>
   </g>
   <g id="text_6">
    <g clip-path="url(#p80ba7c2955)">
     <!-- 11 -->
     <g transform="translate(115.327976 43.590366)scale(0.085 -0.085)">
      <use xlink:href="#DejaVuSans-31"/>
      <use xlink:href="#DejaVuSans-31" x="63.623047"/>
     </g>
    </g>
   </g>
   <g id="text_7">
    <g clip-path="url(#p80ba7c2955)">
     <!-- 00 -->
     <g transform="translate(30.359851 64.533569)scale(0.085 -0.085)">
      <use xlink:href="#DejaVuSans-30"/>
      <use xlink:href="#DejaVuSans-30" x="63.623047"/>
     </g>
    </g>
   </g>
   <g id="text_8">
    <g clip-path="url(#p80ba7c2955)">
     <!-- 01 -->
     <g transform="translate(30.359851 95.133569)scale(0.085 -0.085)">
      <use xlink:href="#DejaVuSans-30"/>
      <use xlink:href="#DejaVuSans-31" x="63.623047"/>
     </g>
    </g>
   </g>
   <g id="text_9">
    <g clip-path="url(#p80ba7c2955)">
     <!-- 10 -->
     <g transform="translate(30.359851 156.333569)scale(0.085 -0.085)">
      <use xlink:href="#DejaVuSans-31"/>
      <use xlink:href="#DejaVuSans-30" x="63.623047"/>
     </g>
    </g>
   </g>
   <g id="text_10">
    <g clip-path="url(#p80ba7c2955)">
     <!-- 11 -->
     <g transform="translate(30.359851 125.733569)scale(0.085 -0.085)">
      <use xlink:href="#DejaVuSans-31"/>
      <use xlink:href="#DejaVuSans-31" x="63.623047"/>
     </g>
    </g>
   </g>
   <g id="text_11">
    <g clip-path="url(#p80ba7c2955)">
     <!-- X -->
     <g transform="translate(55.939851 65.085444)scale(0.105 -0.105)">
      <defs>
       <path id="DejaVuSans-58" d="M 403 4666 
L 1081 4666 
L 2241 2931 
L 3406 4666 
L 4084 4666 
L 2584 2425 
L 4184 0 
L 3506 0 
L 2194 1984 
L 872 0 
L 191 0 
L 1856 2491 
L 403 4666 
z
" transform="scale(0.015625)"/>
      </defs>
      <use xlink:href="#DejaVuSans-58"/>
     </g>
    </g>
   </g>
   <g id="text_12">
    <g clip-path="url(#p80ba7c2955)">
     <!-- 1 -->
     <g transform="translate(56.195788 95.685444)scale(0.105 -0.105)">
      <use xlink:href="#DejaVuSans-31"/>
     </g>
    </g>
   </g>
   <g id="text_13">
    <g clip-path="url(#p80ba7c2955)">
     <!-- 0 -->
     <g transform="translate(56.195788 156.885444)scale(0.105 -0.105)">
      <use xlink:href="#DejaVuSans-30"/>
     </g>
    </g>
   </g>
   <g id="text_14">
    <g clip-path="url(#p80ba7c2955)">
     <!-- 1 -->
     <g transform="translate(56.195788 126.285444)scale(0.105 -0.105)">
      <use xlink:href="#DejaVuSans-31"/>
     </g>
    </g>
   </g>
   <g id="text_15">
    <g clip-path="url(#p80ba7c2955)">
     <!-- 1 -->
     <g transform="translate(86.795788 65.085444)scale(0.105 -0.105)">
      <use xlink:href="#DejaVuSans-31"/>
     </g>
    </g>
   </g>
   <g id="text_16">
    <g clip-path="url(#p80ba7c2955)">
     <!-- 1 -->
     <g transform="translate(86.795788 95.685444)scale(0.105 -0.105)">
      <use xlink:href="#DejaVuSans-31"/>
     </g>
    </g>
   </g>
   <g id="text_17">
    <g clip-path="url(#p80ba7c2955)">
     <!-- 0 -->
     <g transform="translate(86.795788 156.885444)scale(0.105 -0.105)">
      <use xlink:href="#DejaVuSans-30"/>
     </g>
    </g>
   </g>
   <g id="text_18">
    <g clip-path="url(#p80ba7c2955)">
     <!-- 1 -->
     <g transform="translate(86.795788 126.285444)scale(0.105 -0.105)">
      <use xlink:href="#DejaVuSans-31"/>
     </g>
    </g>
   </g>
   <g id="text_19">
    <g clip-path="url(#p80ba7c2955)">
     <!-- 0 -->
     <g transform="translate(147.995788 65.085444)scale(0.105 -0.105)">
      <use xlink:href="#DejaVuSans-30"/>
     </g>
    </g>
   </g>
   <g id="text_20">
    <g clip-path="url(#p80ba7c2955)">
     <!-- 1 -->
     <g transform="translate(147.995788 95.685444)scale(0.105 -0.105)">
      <use xlink:href="#DejaVuSans-31"/>
     </g>
    </g>
   </g>
   <g id="text_21">
    <g clip-path="url(#p80ba7c2955)">
     <!-- 0 -->
     <g transform="translate(147.995788 156.885444)scale(0.105 -0.105)">
      <use xlink:href="#DejaVuSans-30"/>
     </g>
    </g>
   </g>
   <g id="text_22">
    <g clip-path="url(#p80ba7c2955)">
     <!-- 1 -->
     <g transform="translate(147.995788 126.285444)scale(0.105 -0.105)">
      <use xlink:href="#DejaVuSans-31"/>
     </g>
    </g>
   </g>
   <g id="text_23">
    <g clip-path="url(#p80ba7c2955)">
     <!-- 1 -->
     <g transform="translate(117.395788 65.085444)scale(0.105 -0.105)">
      <use xlink:href="#DejaVuSans-31"/>
     </g>
    </g>
   </g>
   <g id="text_24">
    <g clip-path="url(#p80ba7c2955)">
     <!-- 1 -->
     <g transform="translate(117.395788 95.685444)scale(0.105 -0.105)">
      <use xlink:href="#DejaVuSans-31"/>
     </g>
    </g>
   </g>
   <g id="text_25">
    <g clip-path="url(#p80ba7c2955)">
     <!-- 0 -->
     <g transform="translate(117.395788 156.885444)scale(0.105 -0.105)">
      <use xlink:href="#DejaVuSans-30"/>
     </g>
    </g>
   </g>
   <g id="text_26">
    <g clip-path="url(#p80ba7c2955)">
     <!-- 1 -->
     <g transform="translate(117.395788 126.285444)scale(0.105 -0.105)">
      <use xlink:href="#DejaVuSans-31"/>
     </g>
    </g>
   </g>
  </g>
 </g>
 <defs>
  <clipPath id="p80ba7c2955">
   <rect x="7.2" y="7.2" width="164.281101" height="165.148101"/>
  </clipPath>
 </defs>
</svg>
