<?xml version="1.0" encoding="utf-8" standalone="no"?>
<!DOCTYPE svg PUBLIC "-//W3C//DTD SVG 1.1//EN"
  "http://www.w3.org/Graphics/SVG/1.1/DTD/svg11.dtd">
<svg xmlns:xlink="http://www.w3.org/1999/xlink" width="178.681101pt" height="179.548101pt" viewBox="0 0 178.681101 179.548101" xmlns="http://www.w3.org/2000/svg" version="1.1">
 <metadata>
  <rdf:RDF xmlns:dc="http://purl.org/dc/elements/1.1/" xmlns:cc="http://creativecommons.org/ns#" xmlns:rdf="http://www.w3.org/1999/02/22-rdf-syntax-ns#">
   <cc:Work>
    <dc:type rdf:resource="http://purl.org/dc/dcmitype/StillImage"/>
    <dc:date>2022-01-20T15:51:44.718349</dc:date>
    <dc:format>image/svg+xml</dc:format>
    <dc:creator>
     <cc:Agent>
      <dc:title>Matplotlib v3.5.1, https://matplotlib.org/</dc:title>
     </cc:Agent>
    </dc:creator>
   </cc:Work>
  </rdf:RDF>
 </metadata>
 <defs>
  <style type="text/css">*{stroke-linejoin: round; stroke-linecap: butt}</style>
 </defs>
 <g id="figure_1">
  <g id="patch_1">
   <path d="M 0 179.548101 
L 178.681101 179.548101 
L 178.681101 0 
L 0 0 
L 0 179.548101 
z
" style="fill: none"/>
  </g>
  <g id="axes_1">
   <g id="patch_2">
    <path d="M 125.326101 166.228101 
L 125.447475 166.227138 
L 125.568819 166.224249 
L 125.690102 166.219436 
L 125.811294 166.212699 
L 125.932363 166.20404 
L 126.053279 166.193461 
L 126.174013 166.180965 
L 126.294533 166.166555 
L 126.414809 166.150235 
L 126.534811 166.132008 
L 126.654509 166.11188 
L 126.773873 166.089855 
L 126.892872 166.065939 
L 127.011476 166.040138 
L 127.129656 166.012459 
L 127.247383 165.982908 
L 127.364625 165.951493 
L 127.481355 165.918222 
L 127.597541 165.883103 
L 127.713156 165.846145 
L 127.828171 165.807357 
L 127.942555 165.766749 
L 128.05628 165.724332 
L 128.169318 165.680115 
L 128.281641 165.634111 
L 128.393219 165.58633 
L 128.504025 165.536785 
L 128.614032 165.485489 
L 128.72321 165.432453 
L 128.831534 165.377692 
L 128.938974 165.321219 
L 129.045506 165.263048 
L 129.151101 165.203195 
L 129.255733 165.141674 
L 129.359375 165.0785 
L 129.462003 165.01369 
L 129.563589 164.94726 
L 129.664109 164.879226 
L 129.763536 164.809607 
L 129.861846 164.738418 
L 129.959015 164.665679 
L 130.055017 164.591407 
L 130.149829 164.515621 
L 130.243426 164.438341 
L 130.335785 164.359585 
L 130.426883 164.279374 
L 130.516698 164.197727 
L 130.605205 164.114666 
L 130.692384 164.030211 
L 130.778211 163.944384 
L 130.862666 163.857205 
L 130.945727 163.768698 
L 131.027374 163.678883 
L 131.107585 163.587785 
L 131.186341 163.495426 
L 131.263621 163.401829 
L 131.339407 163.307017 
L 131.413679 163.211015 
L 131.486418 163.113846 
L 131.557607 163.015536 
L 131.627226 162.916109 
L 131.69526 162.815589 
L 131.76169 162.714003 
L 131.8265 162.611375 
L 131.889674 162.507733 
L 131.951195 162.403101 
L 132.011048 162.297506 
L 132.069219 162.190974 
L 132.125692 162.083534 
L 132.180453 161.97521 
L 132.233489 161.866032 
L 132.284785 161.756025 
L 132.33433 161.645219 
L 132.382111 161.533641 
L 132.428115 161.421318 
L 132.472332 161.30828 
L 132.514749 161.194555 
L 132.555357 161.080171 
L 132.594145 160.965156 
L 132.631103 160.849541 
L 132.666222 160.733355 
L 132.699493 160.616625 
L 132.730908 160.499383 
L 132.760459 160.381656 
L 132.788138 160.263476 
L 132.813939 160.144872 
L 132.837855 160.025873 
L 132.85988 159.906509 
L 132.880008 159.786811 
L 132.898235 159.666809 
L 132.914555 159.546533 
L 132.928965 159.426013 
L 132.941461 159.305279 
L 132.95204 159.184363 
L 132.960699 159.063294 
L 132.967436 158.942102 
L 132.972249 158.820819 
L 132.975138 158.699475 
L 132.976101 158.578101 
L 132.976101 57.598101 
L 132.975138 57.476726 
L 132.972249 57.355382 
L 132.967436 57.234099 
L 132.960699 57.112908 
L 132.95204 56.991838 
L 132.941461 56.870922 
L 132.928965 56.750188 
L 132.914555 56.629668 
L 132.898235 56.509392 
L 132.880008 56.38939 
L 132.85988 56.269692 
L 132.837855 56.150329 
L 132.813939 56.03133 
L 132.788138 55.912725 
L 132.760459 55.794545 
L 132.730908 55.676819 
L 132.699493 55.559576 
L 132.666222 55.442847 
L 132.631103 55.32666 
L 132.594145 55.211045 
L 132.555357 55.096031 
L 132.514749 54.981647 
L 132.472332 54.867921 
L 132.428115 54.754883 
L 132.382111 54.64256 
L 132.33433 54.530982 
L 132.284785 54.420176 
L 132.233489 54.31017 
L 132.180453 54.200991 
L 132.125692 54.092668 
L 132.069219 53.985227 
L 132.011048 53.878696 
L 131.951195 53.773101 
L 131.889674 53.668469 
L 131.8265 53.564826 
L 131.76169 53.462198 
L 131.69526 53.360612 
L 131.627226 53.260093 
L 131.557607 53.160665 
L 131.486418 53.062355 
L 131.413679 52.965187 
L 131.339407 52.869184 
L 131.263621 52.774373 
L 131.186341 52.680775 
L 131.107585 52.588416 
L 131.027374 52.497318 
L 130.945727 52.407504 
L 130.862666 52.318996 
L 130.778211 52.231818 
L 130.692384 52.14599 
L 130.605205 52.061535 
L 130.516698 51.978474 
L 130.426883 51.896828 
L 130.335785 51.816616 
L 130.243426 51.737861 
L 130.149829 51.66058 
L 130.055017 51.584794 
L 129.959015 51.510523 
L 129.861846 51.437783 
L 129.763536 51.366595 
L 129.664109 51.296975 
L 129.563589 51.228941 
L 129.462003 51.162511 
L 129.359375 51.097701 
L 129.255733 51.034528 
L 129.151101 50.973006 
L 129.045506 50.913153 
L 128.938974 50.854982 
L 128.831534 50.798509 
L 128.72321 50.743748 
L 128.614032 50.690713 
L 128.504025 50.639416 
L 128.393219 50.589871 
L 128.281641 50.54209 
L 128.169318 50.496086 
L 128.05628 50.451869 
L 127.942555 50.409452 
L 127.828171 50.368844 
L 127.713156 50.330057 
L 127.597541 50.293098 
L 127.481355 50.257979 
L 127.364625 50.224708 
L 127.247383 50.193293 
L 127.129656 50.163742 
L 127.011476 50.136063 
L 126.892872 50.110262 
L 126.773873 50.086346 
L 126.654509 50.064321 
L 126.534811 50.044193 
L 126.414809 50.025967 
L 126.294533 50.009646 
L 126.174013 49.995236 
L 126.053279 49.98274 
L 125.932363 49.972162 
L 125.811294 49.963503 
L 125.690102 49.956765 
L 125.568819 49.951952 
L 125.447475 49.949064 
L 125.326101 49.948101 
L 85.546101 49.948101 
L 85.424726 49.949064 
L 85.303382 49.951952 
L 85.182099 49.956765 
L 85.060908 49.963503 
L 84.939838 49.972162 
L 84.818922 49.98274 
L 84.698188 49.995236 
L 84.577668 50.009646 
L 84.457392 50.025967 
L 84.33739 50.044193 
L 84.217692 50.064321 
L 84.098329 50.086346 
L 83.97933 50.110262 
L 83.860725 50.136063 
L 83.742545 50.163742 
L 83.624819 50.193293 
L 83.507576 50.224708 
L 83.390847 50.257979 
L 83.27466 50.293098 
L 83.159045 50.330057 
L 83.044031 50.368844 
L 82.929647 50.409452 
L 82.815921 50.451869 
L 82.702883 50.496086 
L 82.59056 50.54209 
L 82.478982 50.589871 
L 82.368176 50.639416 
L 82.25817 50.690713 
L 82.148991 50.743748 
L 82.040668 50.798509 
L 81.933227 50.854982 
L 81.826696 50.913153 
L 81.721101 50.973006 
L 81.616469 51.034528 
L 81.512826 51.097701 
L 81.410198 51.162511 
L 81.308612 51.228941 
L 81.208093 51.296975 
L 81.108665 51.366595 
L 81.010355 51.437783 
L 80.913187 51.510523 
L 80.817184 51.584794 
L 80.722373 51.66058 
L 80.628775 51.737861 
L 80.536416 51.816616 
L 80.445318 51.896828 
L 80.355504 51.978474 
L 80.266996 52.061535 
L 80.179818 52.14599 
L 80.09399 52.231818 
L 80.009535 52.318996 
L 79.926474 52.407504 
L 79.844828 52.497318 
L 79.764616 52.588416 
L 79.685861 52.680775 
L 79.60858 52.774373 
L 79.532794 52.869184 
L 79.458523 52.965187 
L 79.385783 53.062355 
L 79.314595 53.160665 
L 79.244975 53.260093 
L 79.176941 53.360612 
L 79.110511 53.462198 
L 79.045701 53.564826 
L 78.982528 53.668469 
L 78.921006 53.773101 
L 78.861153 53.878696 
L 78.802982 53.985227 
L 78.746509 54.092668 
L 78.691748 54.200991 
L 78.638713 54.31017 
L 78.587416 54.420176 
L 78.537871 54.530982 
L 78.49009 54.64256 
L 78.444086 54.754883 
L 78.399869 54.867921 
L 78.357452 54.981647 
L 78.316844 55.096031 
L 78.278057 55.211045 
L 78.241098 55.32666 
L 78.205979 55.442847 
L 78.172708 55.559576 
L 78.141293 55.676819 
L 78.111742 55.794545 
L 78.084063 55.912725 
L 78.058262 56.03133 
L 78.034346 56.150329 
L 78.012321 56.269692 
L 77.992193 56.38939 
L 77.973967 56.509392 
L 77.957646 56.629668 
L 77.943236 56.750188 
L 77.93074 56.870922 
L 77.920162 56.991838 
L 77.911503 57.112908 
L 77.904765 57.234099 
L 77.899952 57.355382 
L 77.897064 57.476726 
L 77.896101 57.598101 
L 77.896101 158.578101 
L 77.897064 158.699475 
L 77.899952 158.820819 
L 77.904765 158.942102 
L 77.911503 159.063294 
L 77.920162 159.184363 
L 77.93074 159.305279 
L 77.943236 159.426013 
L 77.957646 159.546533 
L 77.973967 159.666809 
L 77.992193 159.786811 
L 78.012321 159.906509 
L 78.034346 160.025873 
L 78.058262 160.144872 
L 78.084063 160.263476 
L 78.111742 160.381656 
L 78.141293 160.499383 
L 78.172708 160.616625 
L 78.205979 160.733355 
L 78.241098 160.849541 
L 78.278057 160.965156 
L 78.316844 161.080171 
L 78.357452 161.194555 
L 78.399869 161.30828 
L 78.444086 161.421318 
L 78.49009 161.533641 
L 78.537871 161.645219 
L 78.587416 161.756025 
L 78.638713 161.866032 
L 78.691748 161.97521 
L 78.746509 162.083534 
L 78.802982 162.190974 
L 78.861153 162.297506 
L 78.921006 162.403101 
L 78.982528 162.507733 
L 79.045701 162.611375 
L 79.110511 162.714003 
L 79.176941 162.815589 
L 79.244975 162.916109 
L 79.314595 163.015536 
L 79.385783 163.113846 
L 79.458523 163.211015 
L 79.532794 163.307017 
L 79.60858 163.401829 
L 79.685861 163.495426 
L 79.764616 163.587785 
L 79.844828 163.678883 
L 79.926474 163.768698 
L 80.009535 163.857205 
L 80.09399 163.944384 
L 80.179818 164.030211 
L 80.266996 164.114666 
L 80.355504 164.197727 
L 80.445318 164.279374 
L 80.536416 164.359585 
L 80.628775 164.438341 
L 80.722373 164.515621 
L 80.817184 164.591407 
L 80.913187 164.665679 
L 81.010355 164.738418 
L 81.108665 164.809607 
L 81.208093 164.879226 
L 81.308612 164.94726 
L 81.410198 165.01369 
L 81.512826 165.0785 
L 81.616469 165.141674 
L 81.721101 165.203195 
L 81.826696 165.263048 
L 81.933227 165.321219 
L 82.040668 165.377692 
L 82.148991 165.432453 
L 82.25817 165.485489 
L 82.368176 165.536785 
L 82.478982 165.58633 
L 82.59056 165.634111 
L 82.702883 165.680115 
L 82.815921 165.724332 
L 82.929647 165.766749 
L 83.044031 165.807357 
L 83.159045 165.846145 
L 83.27466 165.883103 
L 83.390847 165.918222 
L 83.507576 165.951493 
L 83.624819 165.982908 
L 83.742545 166.012459 
L 83.860725 166.040138 
L 83.97933 166.065939 
L 84.098329 166.089855 
L 84.217692 166.11188 
L 84.33739 166.132008 
L 84.457392 166.150235 
L 84.577668 166.166555 
L 84.698188 166.180965 
L 84.818922 166.193461 
L 84.939838 166.20404 
L 85.060908 166.212699 
L 85.182099 166.219436 
L 85.303382 166.224249 
L 85.424726 166.227138 
L 85.546101 166.228101 
z
" clip-path="url(#p825c88e237)" style="fill: #ff0000; fill-opacity: 0.2; stroke: #ff0000; stroke-linecap: round"/>
   </g>
   <g id="patch_3">
    <path d="M 155.926101 166.228101 
L 156.047475 166.227138 
L 156.168819 166.224249 
L 156.290102 166.219436 
L 156.411294 166.212699 
L 156.532363 166.20404 
L 156.653279 166.193461 
L 156.774013 166.180965 
L 156.894533 166.166555 
L 157.014809 166.150235 
L 157.134811 166.132008 
L 157.254509 166.11188 
L 157.373873 166.089855 
L 157.492872 166.065939 
L 157.611476 166.040138 
L 157.729656 166.012459 
L 157.847383 165.982908 
L 157.964625 165.951493 
L 158.081355 165.918222 
L 158.197541 165.883103 
L 158.313156 165.846145 
L 158.428171 165.807357 
L 158.542555 165.766749 
L 158.65628 165.724332 
L 158.769318 165.680115 
L 158.881641 165.634111 
L 158.993219 165.58633 
L 159.104025 165.536785 
L 159.214032 165.485489 
L 159.32321 165.432453 
L 159.431534 165.377692 
L 159.538974 165.321219 
L 159.645506 165.263048 
L 159.751101 165.203195 
L 159.855733 165.141674 
L 159.959375 165.0785 
L 160.062003 165.01369 
L 160.163589 164.94726 
L 160.264109 164.879226 
L 160.363536 164.809607 
L 160.461846 164.738418 
L 160.559015 164.665679 
L 160.655017 164.591407 
L 160.749829 164.515621 
L 160.843426 164.438341 
L 160.935785 164.359585 
L 161.026883 164.279374 
L 161.116698 164.197727 
L 161.205205 164.114666 
L 161.292384 164.030211 
L 161.378211 163.944384 
L 161.462666 163.857205 
L 161.545727 163.768698 
L 161.627374 163.678883 
L 161.707585 163.587785 
L 161.786341 163.495426 
L 161.863621 163.401829 
L 161.939407 163.307017 
L 162.013679 163.211015 
L 162.086418 163.113846 
L 162.157607 163.015536 
L 162.227226 162.916109 
L 162.29526 162.815589 
L 162.36169 162.714003 
L 162.4265 162.611375 
L 162.489674 162.507733 
L 162.551195 162.403101 
L 162.611048 162.297506 
L 162.669219 162.190974 
L 162.725692 162.083534 
L 162.780453 161.97521 
L 162.833489 161.866032 
L 162.884785 161.756025 
L 162.93433 161.645219 
L 162.982111 161.533641 
L 163.028115 161.421318 
L 163.072332 161.30828 
L 163.114749 161.194555 
L 163.155357 161.080171 
L 163.194145 160.965156 
L 163.231103 160.849541 
L 163.266222 160.733355 
L 163.299493 160.616625 
L 163.330908 160.499383 
L 163.360459 160.381656 
L 163.388138 160.263476 
L 163.413939 160.144872 
L 163.437855 160.025873 
L 163.45988 159.906509 
L 163.480008 159.786811 
L 163.498235 159.666809 
L 163.514555 159.546533 
L 163.528965 159.426013 
L 163.541461 159.305279 
L 163.55204 159.184363 
L 163.560699 159.063294 
L 163.567436 158.942102 
L 163.572249 158.820819 
L 163.575138 158.699475 
L 163.576101 158.578101 
L 163.576101 57.598101 
L 163.575138 57.476726 
L 163.572249 57.355382 
L 163.567436 57.234099 
L 163.560699 57.112908 
L 163.55204 56.991838 
L 163.541461 56.870922 
L 163.528965 56.750188 
L 163.514555 56.629668 
L 163.498235 56.509392 
L 163.480008 56.38939 
L 163.45988 56.269692 
L 163.437855 56.150329 
L 163.413939 56.03133 
L 163.388138 55.912725 
L 163.360459 55.794545 
L 163.330908 55.676819 
L 163.299493 55.559576 
L 163.266222 55.442847 
L 163.231103 55.32666 
L 163.194145 55.211045 
L 163.155357 55.096031 
L 163.114749 54.981647 
L 163.072332 54.867921 
L 163.028115 54.754883 
L 162.982111 54.64256 
L 162.93433 54.530982 
L 162.884785 54.420176 
L 162.833489 54.31017 
L 162.780453 54.200991 
L 162.725692 54.092668 
L 162.669219 53.985227 
L 162.611048 53.878696 
L 162.551195 53.773101 
L 162.489674 53.668469 
L 162.4265 53.564826 
L 162.36169 53.462198 
L 162.29526 53.360612 
L 162.227226 53.260093 
L 162.157607 53.160665 
L 162.086418 53.062355 
L 162.013679 52.965187 
L 161.939407 52.869184 
L 161.863621 52.774373 
L 161.786341 52.680775 
L 161.707585 52.588416 
L 161.627374 52.497318 
L 161.545727 52.407504 
L 161.462666 52.318996 
L 161.378211 52.231818 
L 161.292384 52.14599 
L 161.205205 52.061535 
L 161.116698 51.978474 
L 161.026883 51.896828 
L 160.935785 51.816616 
L 160.843426 51.737861 
L 160.749829 51.66058 
L 160.655017 51.584794 
L 160.559015 51.510523 
L 160.461846 51.437783 
L 160.363536 51.366595 
L 160.264109 51.296975 
L 160.163589 51.228941 
L 160.062003 51.162511 
L 159.959375 51.097701 
L 159.855733 51.034528 
L 159.751101 50.973006 
L 159.645506 50.913153 
L 159.538974 50.854982 
L 159.431534 50.798509 
L 159.32321 50.743748 
L 159.214032 50.690713 
L 159.104025 50.639416 
L 158.993219 50.589871 
L 158.881641 50.54209 
L 158.769318 50.496086 
L 158.65628 50.451869 
L 158.542555 50.409452 
L 158.428171 50.368844 
L 158.313156 50.330057 
L 158.197541 50.293098 
L 158.081355 50.257979 
L 157.964625 50.224708 
L 157.847383 50.193293 
L 157.729656 50.163742 
L 157.611476 50.136063 
L 157.492872 50.110262 
L 157.373873 50.086346 
L 157.254509 50.064321 
L 157.134811 50.044193 
L 157.014809 50.025967 
L 156.894533 50.009646 
L 156.774013 49.995236 
L 156.653279 49.98274 
L 156.532363 49.972162 
L 156.411294 49.963503 
L 156.290102 49.956765 
L 156.168819 49.951952 
L 156.047475 49.949064 
L 155.926101 49.948101 
L 116.146101 49.948101 
L 116.024726 49.949064 
L 115.903382 49.951952 
L 115.782099 49.956765 
L 115.660908 49.963503 
L 115.539838 49.972162 
L 115.418922 49.98274 
L 115.298188 49.995236 
L 115.177668 50.009646 
L 115.057392 50.025967 
L 114.93739 50.044193 
L 114.817692 50.064321 
L 114.698329 50.086346 
L 114.57933 50.110262 
L 114.460725 50.136063 
L 114.342545 50.163742 
L 114.224819 50.193293 
L 114.107576 50.224708 
L 113.990847 50.257979 
L 113.87466 50.293098 
L 113.759045 50.330057 
L 113.644031 50.368844 
L 113.529647 50.409452 
L 113.415921 50.451869 
L 113.302883 50.496086 
L 113.19056 50.54209 
L 113.078982 50.589871 
L 112.968176 50.639416 
L 112.85817 50.690713 
L 112.748991 50.743748 
L 112.640668 50.798509 
L 112.533227 50.854982 
L 112.426696 50.913153 
L 112.321101 50.973006 
L 112.216469 51.034528 
L 112.112826 51.097701 
L 112.010198 51.162511 
L 111.908612 51.228941 
L 111.808093 51.296975 
L 111.708665 51.366595 
L 111.610355 51.437783 
L 111.513187 51.510523 
L 111.417184 51.584794 
L 111.322373 51.66058 
L 111.228775 51.737861 
L 111.136416 51.816616 
L 111.045318 51.896828 
L 110.955504 51.978474 
L 110.866996 52.061535 
L 110.779818 52.14599 
L 110.69399 52.231818 
L 110.609535 52.318996 
L 110.526474 52.407504 
L 110.444828 52.497318 
L 110.364616 52.588416 
L 110.285861 52.680775 
L 110.20858 52.774373 
L 110.132794 52.869184 
L 110.058523 52.965187 
L 109.985783 53.062355 
L 109.914595 53.160665 
L 109.844975 53.260093 
L 109.776941 53.360612 
L 109.710511 53.462198 
L 109.645701 53.564826 
L 109.582528 53.668469 
L 109.521006 53.773101 
L 109.461153 53.878696 
L 109.402982 53.985227 
L 109.346509 54.092668 
L 109.291748 54.200991 
L 109.238713 54.31017 
L 109.187416 54.420176 
L 109.137871 54.530982 
L 109.09009 54.64256 
L 109.044086 54.754883 
L 108.999869 54.867921 
L 108.957452 54.981647 
L 108.916844 55.096031 
L 108.878057 55.211045 
L 108.841098 55.32666 
L 108.805979 55.442847 
L 108.772708 55.559576 
L 108.741293 55.676819 
L 108.711742 55.794545 
L 108.684063 55.912725 
L 108.658262 56.03133 
L 108.634346 56.150329 
L 108.612321 56.269692 
L 108.592193 56.38939 
L 108.573967 56.509392 
L 108.557646 56.629668 
L 108.543236 56.750188 
L 108.53074 56.870922 
L 108.520162 56.991838 
L 108.511503 57.112908 
L 108.504765 57.234099 
L 108.499952 57.355382 
L 108.497064 57.476726 
L 108.496101 57.598101 
L 108.496101 158.578101 
L 108.497064 158.699475 
L 108.499952 158.820819 
L 108.504765 158.942102 
L 108.511503 159.063294 
L 108.520162 159.184363 
L 108.53074 159.305279 
L 108.543236 159.426013 
L 108.557646 159.546533 
L 108.573967 159.666809 
L 108.592193 159.786811 
L 108.612321 159.906509 
L 108.634346 160.025873 
L 108.658262 160.144872 
L 108.684063 160.263476 
L 108.711742 160.381656 
L 108.741293 160.499383 
L 108.772708 160.616625 
L 108.805979 160.733355 
L 108.841098 160.849541 
L 108.878057 160.965156 
L 108.916844 161.080171 
L 108.957452 161.194555 
L 108.999869 161.30828 
L 109.044086 161.421318 
L 109.09009 161.533641 
L 109.137871 161.645219 
L 109.187416 161.756025 
L 109.238713 161.866032 
L 109.291748 161.97521 
L 109.346509 162.083534 
L 109.402982 162.190974 
L 109.461153 162.297506 
L 109.521006 162.403101 
L 109.582528 162.507733 
L 109.645701 162.611375 
L 109.710511 162.714003 
L 109.776941 162.815589 
L 109.844975 162.916109 
L 109.914595 163.015536 
L 109.985783 163.113846 
L 110.058523 163.211015 
L 110.132794 163.307017 
L 110.20858 163.401829 
L 110.285861 163.495426 
L 110.364616 163.587785 
L 110.444828 163.678883 
L 110.526474 163.768698 
L 110.609535 163.857205 
L 110.69399 163.944384 
L 110.779818 164.030211 
L 110.866996 164.114666 
L 110.955504 164.197727 
L 111.045318 164.279374 
L 111.136416 164.359585 
L 111.228775 164.438341 
L 111.322373 164.515621 
L 111.417184 164.591407 
L 111.513187 164.665679 
L 111.610355 164.738418 
L 111.708665 164.809607 
L 111.808093 164.879226 
L 111.908612 164.94726 
L 112.010198 165.01369 
L 112.112826 165.0785 
L 112.216469 165.141674 
L 112.321101 165.203195 
L 112.426696 165.263048 
L 112.533227 165.321219 
L 112.640668 165.377692 
L 112.748991 165.432453 
L 112.85817 165.485489 
L 112.968176 165.536785 
L 113.078982 165.58633 
L 113.19056 165.634111 
L 113.302883 165.680115 
L 113.415921 165.724332 
L 113.529647 165.766749 
L 113.644031 165.807357 
L 113.759045 165.846145 
L 113.87466 165.883103 
L 113.990847 165.918222 
L 114.107576 165.951493 
L 114.224819 165.982908 
L 114.342545 166.012459 
L 114.460725 166.040138 
L 114.57933 166.065939 
L 114.698329 166.089855 
L 114.817692 166.11188 
L 114.93739 166.132008 
L 115.057392 166.150235 
L 115.177668 166.166555 
L 115.298188 166.180965 
L 115.418922 166.193461 
L 115.539838 166.20404 
L 115.660908 166.212699 
L 115.782099 166.219436 
L 115.903382 166.224249 
L 116.024726 166.227138 
L 116.146101 166.228101 
z
" clip-path="url(#p825c88e237)" style="fill: #0000ff; fill-opacity: 0.2; stroke: #0000ff; stroke-linecap: round"/>
   </g>
   <g id="line2d_1">
    <path d="M 44.236101 169.288101 
L 166.636101 169.288101 
L 166.636101 46.888101 
L 44.236101 46.888101 
L 44.236101 169.288101 
" clip-path="url(#p825c88e237)" style="fill: none; stroke: #000000; stroke-width: 1.25; stroke-linecap: round"/>
   </g>
   <g id="line2d_2">
    <path d="M 44.236101 169.288101 
L 166.636101 169.288101 
" clip-path="url(#p825c88e237)" style="fill: none; stroke: #000000; stroke-width: 1.25; stroke-linecap: round"/>
   </g>
   <g id="line2d_3">
    <path d="M 44.236101 138.688101 
L 166.636101 138.688101 
" clip-path="url(#p825c88e237)" style="fill: none; stroke: #000000; stroke-width: 1.25; stroke-linecap: round"/>
   </g>
   <g id="line2d_4">
    <path d="M 44.236101 108.088101 
L 166.636101 108.088101 
" clip-path="url(#p825c88e237)" style="fill: none; stroke: #000000; stroke-width: 1.25; stroke-linecap: round"/>
   </g>
   <g id="line2d_5">
    <path d="M 44.236101 77.488101 
L 166.636101 77.488101 
" clip-path="url(#p825c88e237)" style="fill: none; stroke: #000000; stroke-width: 1.25; stroke-linecap: round"/>
   </g>
   <g id="line2d_6">
    <path d="M 44.236101 169.288101 
L 44.236101 46.888101 
" clip-path="url(#p825c88e237)" style="fill: none; stroke: #000000; stroke-width: 1.25; stroke-linecap: round"/>
   </g>
   <g id="line2d_7">
    <path d="M 74.836101 169.288101 
L 74.836101 46.888101 
" clip-path="url(#p825c88e237)" style="fill: none; stroke: #000000; stroke-width: 1.25; stroke-linecap: round"/>
   </g>
   <g id="line2d_8">
    <path d="M 105.436101 169.288101 
L 105.436101 46.888101 
" clip-path="url(#p825c88e237)" style="fill: none; stroke: #000000; stroke-width: 1.25; stroke-linecap: round"/>
   </g>
   <g id="line2d_9">
    <path d="M 136.036101 169.288101 
L 136.036101 46.888101 
" clip-path="url(#p825c88e237)" style="fill: none; stroke: #000000; stroke-width: 1.25; stroke-linecap: round"/>
   </g>
   <g id="line2d_10">
    <path d="M 44.236101 46.888101 
L 22.598633 25.250633 
" clip-path="url(#p825c88e237)" style="fill: none; stroke: #000000; stroke-width: 1.25; stroke-linecap: round"/>
   </g>
   <g id="text_1">
    <g clip-path="url(#p825c88e237)">
     <!-- 23 -->
     <g transform="translate(30.874851 28.476328)scale(0.105 -0.105)">
      <defs>
       <path id="DejaVuSans-32" d="M 1228 531 
L 3431 531 
L 3431 0 
L 469 0 
L 469 531 
Q 828 903 1448 1529 
Q 2069 2156 2228 2338 
Q 2531 2678 2651 2914 
Q 2772 3150 2772 3378 
Q 2772 3750 2511 3984 
Q 2250 4219 1831 4219 
Q 1534 4219 1204 4116 
Q 875 4013 500 3803 
L 500 4441 
Q 881 4594 1212 4672 
Q 1544 4750 1819 4750 
Q 2544 4750 2975 4387 
Q 3406 4025 3406 3419 
Q 3406 3131 3298 2873 
Q 3191 2616 2906 2266 
Q 2828 2175 2409 1742 
Q 1991 1309 1228 531 
z
" transform="scale(0.015625)"/>
       <path id="DejaVuSans-33" d="M 2597 2516 
Q 3050 2419 3304 2112 
Q 3559 1806 3559 1356 
Q 3559 666 3084 287 
Q 2609 -91 1734 -91 
Q 1441 -91 1130 -33 
Q 819 25 488 141 
L 488 750 
Q 750 597 1062 519 
Q 1375 441 1716 441 
Q 2309 441 2620 675 
Q 2931 909 2931 1356 
Q 2931 1769 2642 2001 
Q 2353 2234 1838 2234 
L 1294 2234 
L 1294 2753 
L 1863 2753 
Q 2328 2753 2575 2939 
Q 2822 3125 2822 3475 
Q 2822 3834 2567 4026 
Q 2313 4219 1838 4219 
Q 1578 4219 1281 4162 
Q 984 4106 628 3988 
L 628 4550 
Q 988 4650 1302 4700 
Q 1616 4750 1894 4750 
Q 2613 4750 3031 4423 
Q 3450 4097 3450 3541 
Q 3450 3153 3228 2886 
Q 3006 2619 2597 2516 
z
" transform="scale(0.015625)"/>
      </defs>
      <use xlink:href="#DejaVuSans-32"/>
      <use xlink:href="#DejaVuSans-33" x="63.623047"/>
     </g>
    </g>
   </g>
   <g id="text_2">
    <g clip-path="url(#p825c88e237)">
     <!-- 01 -->
     <g transform="translate(14.64675 44.704429)scale(0.105 -0.105)">
      <defs>
       <path id="DejaVuSans-30" d="M 2034 4250 
Q 1547 4250 1301 3770 
Q 1056 3291 1056 2328 
Q 1056 1369 1301 889 
Q 1547 409 2034 409 
Q 2525 409 2770 889 
Q 3016 1369 3016 2328 
Q 3016 3291 2770 3770 
Q 2525 4250 2034 4250 
z
M 2034 4750 
Q 2819 4750 3233 4129 
Q 3647 3509 3647 2328 
Q 3647 1150 3233 529 
Q 2819 -91 2034 -91 
Q 1250 -91 836 529 
Q 422 1150 422 2328 
Q 422 3509 836 4129 
Q 1250 4750 2034 4750 
z
" transform="scale(0.015625)"/>
       <path id="DejaVuSans-31" d="M 794 531 
L 1825 531 
L 1825 4091 
L 703 3866 
L 703 4441 
L 1819 4666 
L 2450 4666 
L 2450 531 
L 3481 531 
L 3481 0 
L 794 0 
L 794 531 
z
" transform="scale(0.015625)"/>
      </defs>
      <use xlink:href="#DejaVuSans-30"/>
      <use xlink:href="#DejaVuSans-31" x="63.623047"/>
     </g>
    </g>
   </g>
   <g id="text_3">
    <g clip-path="url(#p825c88e237)">
     <!-- 00 -->
     <g transform="translate(54.127976 43.590366)scale(0.085 -0.085)">
      <use xlink:href="#DejaVuSans-30"/>
      <use xlink:href="#DejaVuSans-30" x="63.623047"/>
     </g>
    </g>
   </g>
   <g id="text_4">
    <g clip-path="url(#p825c88e237)">
     <!-- 01 -->
     <g transform="translate(84.727976 43.590366)scale(0.085 -0.085)">
      <use xlink:href="#DejaVuSans-30"/>
      <use xlink:href="#DejaVuSans-31" x="63.623047"/>
     </g>
    </g>
   </g>
   <g id="text_5">
    <g clip-path="url(#p825c88e237)">
     <!-- 10 -->
     <g transform="translate(145.927976 43.590366)scale(0.085 -0.085)">
      <use xlink:href="#DejaVuSans-31"/>
      <use xlink:href="#DejaVuSans-30" x="63.623047"/>
     </g>
    </g>
   </g>
   <g id="text_6">
    <g clip-path="url(#p825c88e237)">
     <!-- 11 -->
     <g transform="translate(115.327976 43.590366)scale(0.085 -0.085)">
      <use xlink:href="#DejaVuSans-31"/>
      <use xlink:href="#DejaVuSans-31" x="63.623047"/>
     </g>
    </g>
   </g>
   <g id="text_7">
    <g clip-path="url(#p825c88e237)">
     <!-- 00 -->
     <g transform="translate(30.359851 64.533569)scale(0.085 -0.085)">
      <use xlink:href="#DejaVuSans-30"/>
      <use xlink:href="#DejaVuSans-30" x="63.623047"/>
     </g>
    </g>
   </g>
   <g id="text_8">
    <g clip-path="url(#p825c88e237)">
     <!-- 01 -->
     <g transform="translate(30.359851 95.133569)scale(0.085 -0.085)">
      <use xlink:href="#DejaVuSans-30"/>
      <use xlink:href="#DejaVuSans-31" x="63.623047"/>
     </g>
    </g>
   </g>
   <g id="text_9">
    <g clip-path="url(#p825c88e237)">
     <!-- 10 -->
     <g transform="translate(30.359851 156.333569)scale(0.085 -0.085)">
      <use xlink:href="#DejaVuSans-31"/>
      <use xlink:href="#DejaVuSans-30" x="63.623047"/>
     </g>
    </g>
   </g>
   <g id="text_10">
    <g clip-path="url(#p825c88e237)">
     <!-- 11 -->
     <g transform="translate(30.359851 125.733569)scale(0.085 -0.085)">
      <use xlink:href="#DejaVuSans-31"/>
      <use xlink:href="#DejaVuSans-31" x="63.623047"/>
     </g>
    </g>
   </g>
   <g id="text_11">
    <g clip-path="url(#p825c88e237)">
     <!-- X -->
     <g transform="translate(55.939851 65.085444)scale(0.105 -0.105)">
      <defs>
       <path id="DejaVuSans-58" d="M 403 4666 
L 1081 4666 
L 2241 2931 
L 3406 4666 
L 4084 4666 
L 2584 2425 
L 4184 0 
L 3506 0 
L 2194 1984 
L 872 0 
L 191 0 
L 1856 2491 
L 403 4666 
z
" transform="scale(0.015625)"/>
      </defs>
      <use xlink:href="#DejaVuSans-58"/>
     </g>
    </g>
   </g>
   <g id="text_12">
    <g clip-path="url(#p825c88e237)">
     <!-- 1 -->
     <g transform="translate(56.195788 95.685444)scale(0.105 -0.105)">
      <use xlink:href="#DejaVuSans-31"/>
     </g>
    </g>
   </g>
   <g id="text_13">
    <g clip-path="url(#p825c88e237)">
     <!-- 1 -->
     <g transform="translate(56.195788 156.885444)scale(0.105 -0.105)">
      <use xlink:href="#DejaVuSans-31"/>
     </g>
    </g>
   </g>
   <g id="text_14">
    <g clip-path="url(#p825c88e237)">
     <!-- 1 -->
     <g transform="translate(56.195788 126.285444)scale(0.105 -0.105)">
      <use xlink:href="#DejaVuSans-31"/>
     </g>
    </g>
   </g>
   <g id="text_15">
    <g clip-path="url(#p825c88e237)">
     <!-- 0 -->
     <g transform="translate(86.795788 65.085444)scale(0.105 -0.105)">
      <use xlink:href="#DejaVuSans-30"/>
     </g>
    </g>
   </g>
   <g id="text_16">
    <g clip-path="url(#p825c88e237)">
     <!-- 1 -->
     <g transform="translate(86.795788 95.685444)scale(0.105 -0.105)">
      <use xlink:href="#DejaVuSans-31"/>
     </g>
    </g>
   </g>
   <g id="text_17">
    <g clip-path="url(#p825c88e237)">
     <!-- X -->
     <g transform="translate(86.539851 156.885444)scale(0.105 -0.105)">
      <use xlink:href="#DejaVuSans-58"/>
     </g>
    </g>
   </g>
   <g id="text_18">
    <g clip-path="url(#p825c88e237)">
     <!-- 1 -->
     <g transform="translate(86.795788 126.285444)scale(0.105 -0.105)">
      <use xlink:href="#DejaVuSans-31"/>
     </g>
    </g>
   </g>
   <g id="text_19">
    <g clip-path="url(#p825c88e237)">
     <!-- 0 -->
     <g transform="translate(147.995788 65.085444)scale(0.105 -0.105)">
      <use xlink:href="#DejaVuSans-30"/>
     </g>
    </g>
   </g>
   <g id="text_20">
    <g clip-path="url(#p825c88e237)">
     <!-- 1 -->
     <g transform="translate(147.995788 95.685444)scale(0.105 -0.105)">
      <use xlink:href="#DejaVuSans-31"/>
     </g>
    </g>
   </g>
   <g id="text_21">
    <g clip-path="url(#p825c88e237)">
     <!-- X -->
     <g transform="translate(147.739851 156.885444)scale(0.105 -0.105)">
      <use xlink:href="#DejaVuSans-58"/>
     </g>
    </g>
   </g>
   <g id="text_22">
    <g clip-path="url(#p825c88e237)">
     <!-- 1 -->
     <g transform="translate(147.995788 126.285444)scale(0.105 -0.105)">
      <use xlink:href="#DejaVuSans-31"/>
     </g>
    </g>
   </g>
   <g id="text_23">
    <g clip-path="url(#p825c88e237)">
     <!-- 0 -->
     <g transform="translate(117.395788 65.085444)scale(0.105 -0.105)">
      <use xlink:href="#DejaVuSans-30"/>
     </g>
    </g>
   </g>
   <g id="text_24">
    <g clip-path="url(#p825c88e237)">
     <!-- 1 -->
     <g transform="translate(117.395788 95.685444)scale(0.105 -0.105)">
      <use xlink:href="#DejaVuSans-31"/>
     </g>
    </g>
   </g>
   <g id="text_25">
    <g clip-path="url(#p825c88e237)">
     <!-- 1 -->
     <g transform="translate(117.395788 156.885444)scale(0.105 -0.105)">
      <use xlink:href="#DejaVuSans-31"/>
     </g>
    </g>
   </g>
   <g id="text_26">
    <g clip-path="url(#p825c88e237)">
     <!-- 1 -->
     <g transform="translate(117.395788 126.285444)scale(0.105 -0.105)">
      <use xlink:href="#DejaVuSans-31"/>
     </g>
    </g>
   </g>
  </g>
 </g>
 <defs>
  <clipPath id="p825c88e237">
   <rect x="7.2" y="7.2" width="164.281101" height="165.148101"/>
  </clipPath>
 </defs>
</svg>
