<?xml version="1.0" encoding="UTF-8" standalone="no"?>
<svg
   xmlns:dc="http://purl.org/dc/elements/1.1/"
   xmlns:cc="http://creativecommons.org/ns#"
   xmlns:rdf="http://www.w3.org/1999/02/22-rdf-syntax-ns#"
   xmlns:svg="http://www.w3.org/2000/svg"
   xmlns="http://www.w3.org/2000/svg"
   xmlns:xlink="http://www.w3.org/1999/xlink"
   xmlns:sodipodi="http://sodipodi.sourceforge.net/DTD/sodipodi-0.dtd"
   xmlns:inkscape="http://www.inkscape.org/namespaces/inkscape"
   width="173.907501pt"
   height="118.348101pt"
   viewBox="0 0 173.907501 118.348101"
   version="1.1"
   id="svg399"
   sodipodi:docname="kmap3_repli.svg"
   inkscape:version="0.92.5 (2060ec1f9f, 2020-04-08)">
  <sodipodi:namedview
     pagecolor="#ffffff"
     bordercolor="#666666"
     borderopacity="1"
     objecttolerance="10"
     gridtolerance="10"
     guidetolerance="10"
     inkscape:pageopacity="0"
     inkscape:pageshadow="2"
     inkscape:window-width="1308"
     inkscape:window-height="704"
     id="namedview401"
     showgrid="false"
     inkscape:zoom="3.3333869"
     inkscape:cx="110.68842"
     inkscape:cy="78.898733"
     inkscape:window-x="58"
     inkscape:window-y="27"
     inkscape:window-maximized="1"
     inkscape:current-layer="svg399" />
  <metadata
     id="metadata224">
    <rdf:RDF>
      <cc:Work>
        <dc:type
           rdf:resource="http://purl.org/dc/dcmitype/StillImage" />
        <dc:date>2022-01-14T11:38:54.611361</dc:date>
        <dc:format>image/svg+xml</dc:format>
        <dc:creator>
          <cc:Agent>
            <dc:title>Matplotlib v3.5.1, https://matplotlib.org/</dc:title>
          </cc:Agent>
        </dc:creator>
        <dc:title></dc:title>
      </cc:Work>
    </rdf:RDF>
  </metadata>
  <defs
     id="defs228">
    <inkscape:path-effect
       effect="bspline"
       id="path-effect424"
       is_visible="true"
       weight="33.333333"
       steps="2"
       helper_size="0"
       apply_no_weight="true"
       apply_with_weight="true"
       only_selected="false" />
    <style
       type="text/css"
       id="style226">*{stroke-linejoin: round; stroke-linecap: butt}</style>
    <inkscape:path-effect
       effect="bspline"
       id="path-effect424-3"
       is_visible="true"
       weight="33.333333"
       steps="2"
       helper_size="0"
       apply_no_weight="true"
       apply_with_weight="true"
       only_selected="false" />
  </defs>
  <g
     id="figure_1">
    <g
       id="patch_1">
      <path
         d="M 0 118.348101  L 173.907501 118.348101  L 173.907501 0  L 0 0  L 0 118.348101  z "
         style="fill: none"
         id="path230" />
    </g>
    <g
       id="axes_1">
      <g
         id="line2d_1">
        <path
           d="M 39.462501 108.088101  L 161.862501 108.088101  L 161.862501 46.888101  L 39.462501 46.888101  L 39.462501 108.088101  "
           clip-path="url(#p5687a7f3f5)"
           style="fill: none; stroke: #000000; stroke-width: 1.25; stroke-linecap: round"
           id="path233" />
      </g>
      <g
         id="line2d_2">
        <path
           d="M 39.462501 108.088101  L 161.862501 108.088101  "
           clip-path="url(#p5687a7f3f5)"
           style="fill: none; stroke: #000000; stroke-width: 1.25; stroke-linecap: round"
           id="path236" />
      </g>
      <g
         id="line2d_3">
        <path
           d="M 39.462501 77.488101  L 161.862501 77.488101  "
           clip-path="url(#p5687a7f3f5)"
           style="fill: none; stroke: #000000; stroke-width: 1.25; stroke-linecap: round"
           id="path239" />
      </g>
      <g
         id="line2d_4">
        <path
           d="M 39.462501 108.088101  L 39.462501 46.888101  "
           clip-path="url(#p5687a7f3f5)"
           style="fill: none; stroke: #000000; stroke-width: 1.25; stroke-linecap: round"
           id="path242" />
      </g>
      <g
         id="line2d_5">
        <path
           d="M 70.062501 108.088101  L 70.062501 46.888101  "
           clip-path="url(#p5687a7f3f5)"
           style="fill: none; stroke: #000000; stroke-width: 1.25; stroke-linecap: round"
           id="path245" />
      </g>
      <g
         id="line2d_6">
        <path
           d="M 100.662501 108.088101  L 100.662501 46.888101  "
           clip-path="url(#p5687a7f3f5)"
           style="fill: none; stroke: #000000; stroke-width: 1.25; stroke-linecap: round"
           id="path248" />
      </g>
      <g
         id="line2d_7">
        <path
           d="M 131.262501 108.088101  L 131.262501 46.888101  "
           clip-path="url(#p5687a7f3f5)"
           style="fill: none; stroke: #000000; stroke-width: 1.25; stroke-linecap: round"
           id="path251" />
      </g>
      <g
         id="line2d_8">
        <path
           d="M 39.462501 46.888101  L 17.825033 25.250633  "
           clip-path="url(#p5687a7f3f5)"
           style="fill: none; stroke: #000000; stroke-width: 1.25; stroke-linecap: round"
           id="path254" />
      </g>
      <g
         id="text_1">
        <g
           clip-path="url(#p5687a7f3f5)"
           id="g267">
          <!-- AB -->
          <g
             transform="translate(25.07586 28.476328)scale(0.105 -0.105)"
             id="g265">
            <defs
               id="defs259">
              <path
                 id="DejaVuSans-41"
                 d="M 2188 4044  L 1331 1722  L 3047 1722  L 2188 4044  z M 1831 4666  L 2547 4666  L 4325 0  L 3669 0  L 3244 1197  L 1141 1197  L 716 0  L 50 0  L 1831 4666  z "
                 transform="scale(0.015625)" />
              <path
                 id="DejaVuSans-42"
                 d="M 1259 2228  L 1259 519  L 2272 519  Q 2781 519 3026 730  Q 3272 941 3272 1375  Q 3272 1813 3026 2020  Q 2781 2228 2272 2228  L 1259 2228  z M 1259 4147  L 1259 2741  L 2194 2741  Q 2656 2741 2882 2914  Q 3109 3088 3109 3444  Q 3109 3797 2882 3972  Q 2656 4147 2194 4147  L 1259 4147  z M 628 4666  L 2241 4666  Q 2963 4666 3353 4366  Q 3744 4066 3744 3513  Q 3744 3084 3544 2831  Q 3344 2578 2956 2516  Q 3422 2416 3680 2098  Q 3938 1781 3938 1306  Q 3938 681 3513 340  Q 3088 0 2303 0  L 628 0  L 628 4666  z "
                 transform="scale(0.015625)" />
            </defs>
            <use
               xlink:href="#DejaVuSans-41"
               id="use261" />
            <use
               xlink:href="#DejaVuSans-42"
               x="68.408203"
               id="use263" />
          </g>
        </g>
      </g>
      <g
         id="text_2">
        <g
           clip-path="url(#p5687a7f3f5)"
           id="g277">
          <!-- C -->
          <g
             transform="translate(15.902447 44.704429)scale(0.105 -0.105)"
             id="g275">
            <defs
               id="defs271">
              <path
                 id="DejaVuSans-43"
                 d="M 4122 4306  L 4122 3641  Q 3803 3938 3442 4084  Q 3081 4231 2675 4231  Q 1875 4231 1450 3742  Q 1025 3253 1025 2328  Q 1025 1406 1450 917  Q 1875 428 2675 428  Q 3081 428 3442 575  Q 3803 722 4122 1019  L 4122 359  Q 3791 134 3420 21  Q 3050 -91 2638 -91  Q 1578 -91 968 557  Q 359 1206 359 2328  Q 359 3453 968 4101  Q 1578 4750 2638 4750  Q 3056 4750 3426 4639  Q 3797 4528 4122 4306  z "
                 transform="scale(0.015625)" />
            </defs>
            <use
               xlink:href="#DejaVuSans-43"
               id="use273" />
          </g>
        </g>
      </g>
      <g
         id="text_3">
        <g
           clip-path="url(#p5687a7f3f5)"
           id="g289">
          <!-- 00 -->
          <g
             transform="translate(49.354376 43.590366)scale(0.085 -0.085)"
             id="g287">
            <defs
               id="defs281">
              <path
                 id="DejaVuSans-30"
                 d="M 2034 4250  Q 1547 4250 1301 3770  Q 1056 3291 1056 2328  Q 1056 1369 1301 889  Q 1547 409 2034 409  Q 2525 409 2770 889  Q 3016 1369 3016 2328  Q 3016 3291 2770 3770  Q 2525 4250 2034 4250  z M 2034 4750  Q 2819 4750 3233 4129  Q 3647 3509 3647 2328  Q 3647 1150 3233 529  Q 2819 -91 2034 -91  Q 1250 -91 836 529  Q 422 1150 422 2328  Q 422 3509 836 4129  Q 1250 4750 2034 4750  z "
                 transform="scale(0.015625)" />
            </defs>
            <use
               xlink:href="#DejaVuSans-30"
               id="use283" />
            <use
               xlink:href="#DejaVuSans-30"
               x="63.623047"
               id="use285" />
          </g>
        </g>
      </g>
      <g
         id="text_4">
        <g
           clip-path="url(#p5687a7f3f5)"
           id="g301">
          <!-- 01 -->
          <g
             transform="translate(79.954376 43.590366)scale(0.085 -0.085)"
             id="g299">
            <defs
               id="defs293">
              <path
                 id="DejaVuSans-31"
                 d="M 794 531  L 1825 531  L 1825 4091  L 703 3866  L 703 4441  L 1819 4666  L 2450 4666  L 2450 531  L 3481 531  L 3481 0  L 794 0  L 794 531  z "
                 transform="scale(0.015625)" />
            </defs>
            <use
               xlink:href="#DejaVuSans-30"
               id="use295" />
            <use
               xlink:href="#DejaVuSans-31"
               x="63.623047"
               id="use297" />
          </g>
        </g>
      </g>
      <g
         id="text_5">
        <g
           clip-path="url(#p5687a7f3f5)"
           id="g310">
          <!-- 10 -->
          <g
             transform="translate(141.154376 43.590366)scale(0.085 -0.085)"
             id="g308">
            <use
               xlink:href="#DejaVuSans-31"
               id="use304" />
            <use
               xlink:href="#DejaVuSans-30"
               x="63.623047"
               id="use306" />
          </g>
        </g>
      </g>
      <g
         id="text_6">
        <g
           clip-path="url(#p5687a7f3f5)"
           id="g319">
          <!-- 11 -->
          <g
             transform="translate(110.554376 43.590366)scale(0.085 -0.085)"
             id="g317">
            <use
               xlink:href="#DejaVuSans-31"
               id="use313" />
            <use
               xlink:href="#DejaVuSans-31"
               x="63.623047"
               id="use315" />
          </g>
        </g>
      </g>
      <g
         id="text_7">
        <g
           clip-path="url(#p5687a7f3f5)"
           id="g326">
          <!-- 0 -->
          <g
             transform="translate(30.994376 64.533569)scale(0.085 -0.085)"
             id="g324">
            <use
               xlink:href="#DejaVuSans-30"
               id="use322" />
          </g>
        </g>
      </g>
      <g
         id="text_8">
        <g
           clip-path="url(#p5687a7f3f5)"
           id="g333">
          <!-- 1 -->
          <g
             transform="translate(30.994376 95.133569)scale(0.085 -0.085)"
             id="g331">
            <use
               xlink:href="#DejaVuSans-31"
               id="use329" />
          </g>
        </g>
      </g>
      <g
         id="text_9">
        <g
           clip-path="url(#p5687a7f3f5)"
           id="g340">
          <!-- 0 -->
          <g
             transform="translate(51.422188 65.085444)scale(0.105 -0.105)"
             id="g338">
            <use
               xlink:href="#DejaVuSans-30"
               id="use336" />
          </g>
        </g>
      </g>
      <g
         id="text_10">
        <g
           clip-path="url(#p5687a7f3f5)"
           id="g347">
          <!-- 0 -->
          <g
             transform="translate(51.422188 95.685444)scale(0.105 -0.105)"
             id="g345">
            <use
               xlink:href="#DejaVuSans-30"
               id="use343" />
          </g>
        </g>
      </g>
      <g
         id="text_11">
        <g
           clip-path="url(#p5687a7f3f5)"
           id="g354">
          <!-- 0 -->
          <g
             transform="translate(82.022188 65.085444)scale(0.105 -0.105)"
             id="g352">
            <use
               xlink:href="#DejaVuSans-30"
               id="use350" />
          </g>
        </g>
      </g>
      <g
         id="text_12">
        <g
           clip-path="url(#p5687a7f3f5)"
           id="g361">
          <!-- 0 -->
          <g
             transform="translate(82.022188 95.685444)scale(0.105 -0.105)"
             id="g359">
            <use
               xlink:href="#DejaVuSans-30"
               id="use357" />
          </g>
        </g>
      </g>
      <g
         id="text_13">
        <g
           clip-path="url(#p5687a7f3f5)"
           id="g368">
          <!-- 0 -->
          <g
             transform="translate(143.222188 65.085444)scale(0.105 -0.105)"
             id="g366">
            <use
               xlink:href="#DejaVuSans-30"
               id="use364" />
          </g>
        </g>
      </g>
      <g
         id="text_14">
        <g
           clip-path="url(#p5687a7f3f5)"
           id="g375">
          <!-- 0 -->
          <g
             transform="translate(143.222188 95.685444)scale(0.105 -0.105)"
             id="g373">
            <use
               xlink:href="#DejaVuSans-30"
               id="use371" />
          </g>
        </g>
      </g>
      <g
         id="text_15">
        <g
           clip-path="url(#p5687a7f3f5)"
           id="g382">
          <!-- 0 -->
          <g
             transform="translate(112.622188 65.085444)scale(0.105 -0.105)"
             id="g380">
            <use
               xlink:href="#DejaVuSans-30"
               id="use378" />
          </g>
        </g>
      </g>
      <g
         id="text_16">
        <g
           clip-path="url(#p5687a7f3f5)"
           id="g389">
          <!-- 0 -->
          <g
             transform="translate(112.622188 95.685444)scale(0.105 -0.105)"
             id="g387">
            <use
               xlink:href="#DejaVuSans-30"
               id="use385" />
          </g>
        </g>
      </g>
    </g>
  </g>
  <defs
     id="defs397">
    <clipPath
       id="p5687a7f3f5">
      <rect
         x="7.2"
         y="7.2"
         width="159.507501"
         height="103.948101"
         id="rect394" />
    </clipPath>
  </defs>
  <path
     style="fill:none;fill-rule:evenodd;stroke:#c3061c;stroke-width:0.75px;stroke-linecap:butt;stroke-linejoin:miter;stroke-opacity:1;fill-opacity:1"
     d="m 162.89738,101.24837 c 8.02507,5.17505 16.04993,10.34996 -8.1744,12.52487 -24.22433,2.17491 -80.69843,1.34992 -107.098088,-1.83797 -26.399658,-3.18789 -22.724717,-8.7378 -19.301057,-11.63652 3.42366,-2.898718 6.596844,-3.147137 9.768704,-3.395452"
     id="path422"
     inkscape:connector-curvature="0"
     inkscape:path-effect="#path-effect424"
     inkscape:original-d="m 162.89738,101.24837 c 8.02563,5.17418 16.05049,10.34909 24.07462,15.52476 -56.47334,-0.82574 -112.947439,-1.65073 -169.422281,-2.47497 3.67569,-5.55066 7.350632,-11.10057 11.024822,-16.649727 3.1729,-0.249088 6.346084,-0.497507 9.517998,-0.745135"
     sodipodi:nodetypes="ccccc" />
  <path
     transform="translate(-0.32733127,-43.623395)"
     style="fill:none;fill-opacity:1;fill-rule:evenodd;stroke:#c3061c;stroke-width:0.75px;stroke-linecap:butt;stroke-linejoin:miter;stroke-opacity:1"
     d="m 162.89738,101.24837 c 8.02507,5.17505 16.04993,10.34996 -8.1744,12.52487 -24.22433,2.17491 -80.69843,1.34992 -107.098088,-1.83797 -26.399658,-3.18789 -22.724717,-8.7378 -19.301057,-11.63652 3.42366,-2.898718 6.596844,-3.147137 9.768704,-3.395452"
     id="path422-6"
     inkscape:connector-curvature="0"
     inkscape:path-effect="#path-effect424-3"
     inkscape:original-d="m 162.89738,101.24837 c 8.02563,5.17418 16.05049,10.34909 24.07462,15.52476 -56.47334,-0.82574 -112.947439,-1.65073 -169.422281,-2.47497 3.67569,-5.55066 7.350632,-11.10057 11.024822,-16.649727 3.1729,-0.249088 6.346084,-0.497507 9.517998,-0.745135"
     sodipodi:nodetypes="ccccc" />
</svg>
