<svg xmlns="http://www.w3.org/2000/svg" xml:lang="en" height="182.10269478283308pt" width="180.1478947828331pt" viewBox="-43.4178947828331 -173.6226947828331 180.1478947828331 182.10269478283308"><polygon points="85.86,-3.240000000000003 85.98851430706193,-3.2410195658416145 86.11699626133435,-3.2440780066962036 86.24541351817231,-3.2491745526176383 86.37373374921816,-3.256307920577739 86.50192465053998,-3.2654763147892694 86.62995395076388,-3.2766774271580177 86.75778941919818,-3.2899084378638443 86.88539887394737,-3.3051660160705603 87.01275019001359,-3.322446320764448 87.13981130738414,-3.341745001721209 87.26655023910213,-3.363057200601118 87.39293507931932,-3.3863775521720783 87.51893401132803,-3.411700185660295 87.64451531557098,-3.4390187262282055 87.76964737762636,-3.468326296579315 87.89429869616674,-3.499615518689517 88.01843789088929,-3.532878515664472 88.14203371041557,-3.568106913722574 88.26505504015903,-3.605291844303004 88.38747091015775,-3.6444239462983457 88.50925050287111,-3.6854933684111884 88.63036316093792,-3.728489771634145 88.75077839489416,-3.7734023318526377 88.87046589084865,-3.820219742569815 88.98939551811434,-3.8689302177528937 89.10753733679357,-3.919521494800239 89.22486160531528,-3.9719808376284043 89.34133878792228,-4.026295039878371 89.45693956210675,-4.0824504282401834 89.57163482599202,-4.140432865895122 89.68539570565872,-4.200227756074588 89.79819356241379,-4.261820045734745 89.91,-4.32519422934605 90.02078687174458,-4.390334352796689 90.13052628764507,-4.4572240174089375 90.23919062139034,-4.525846384067436 90.3467525173155,-4.596184177458356 90.45318489728844,-4.668219690418358 90.5584609675267,-4.741934788392284 90.66255422534257,-4.817310913998429 90.7654384658151,-4.894329091700263 90.8670877883869,-4.972969932583425 90.96747660338463,-5.053213639236773 91.06657963846096,-5.13504001073628 91.16437194495681,-5.218428447730512 91.26082890418195,-5.30335795762639 91.35592623361276,-5.3898071598739845 91.4496399930051,-5.477754291348935 91.5419465904212,-5.567177211831214 91.63282278816878,-5.658053409578801 91.72224570865106,-5.750360006994896 91.810192840126,-5.844073766387233 91.89664204237361,-5.939171095818041 91.98157155226949,-6.035628055043194 92.06495998926373,-6.133420361539034 92.14678636076323,-6.232523396615371 92.22703006741656,-6.332912211613101 92.30567090829973,-6.434561534184903 92.38268908600156,-6.5374457746574155 92.4580652116077,-6.641539032473298 92.53178030958163,-6.74681510271156 92.60381582254163,-6.85324748268451 92.67415361593257,-6.960809378609662 92.74277598259106,-7.069473712354934 92.80966564720332,-7.1792131282554115 92.87480577065395,-7.2900000000000045 92.93817995426525,-7.401806437586206 92.9997722439254,-7.514604294341273 93.05956713410487,-7.628365174007978 93.11754957175981,-7.7430604378932335 93.17370496012163,-7.858661212077713 93.2280191623716,-7.975138394684723 93.28047850519977,-8.092462663206431 93.3310697822471,-8.210604481885662 93.37978025743018,-8.32953410915135 93.42659766814735,-8.44922160510584 93.47151022836586,-8.569636839062085 93.5145066315888,-8.69074949712889 93.55557605370166,-8.812529089842258 93.59470815569699,-8.934944959840976 93.63189308627742,-9.057966289584423 93.66712148433552,-9.18156210911072 93.70038448131048,-9.305701303833262 93.73167370342068,-9.430352622373642 93.76098127377179,-9.555484684429025 93.7882998143397,-9.681065988671959 93.81362244782791,-9.80706492068068 93.83694279939887,-9.933449760897867 93.85825499827878,-10.06018869261587 93.87755367923555,-10.187249809986394 93.89483398392944,-10.314601126052633 93.91009156213615,-10.442210580801813 93.92332257284198,-10.570046049236124 93.93452368521072,-10.698075349460016 93.94369207942225,-10.82626625078183 93.95082544738236,-10.954586481827691 93.95592199330379,-11.083003738665655 93.95898043415838,-11.211485692938059 93.96,-11.340000000000002 93.96,-118.25999999999999 93.95898043415838,-118.38851430706193 93.95592199330379,-118.51699626133434 93.95082544738236,-118.64541351817229 93.94369207942225,-118.77373374921817 93.93452368521072,-118.90192465053998 93.92332257284198,-119.02995395076387 93.91009156213615,-119.15778941919818 93.89483398392943,-119.28539887394736 93.87755367923555,-119.4127501900136 93.85825499827878,-119.53981130738411 93.83694279939887,-119.66655023910212 93.81362244782791,-119.7929350793193 93.7882998143397,-119.91893401132803 93.76098127377179,-120.04451531557096 93.73167370342068,-120.16964737762635 93.70038448131048,-120.29429869616673 93.66712148433552,-120.41843789088927 93.63189308627742,-120.54203371041557 93.59470815569699,-120.66505504015902 93.55557605370166,-120.78747091015774 93.5145066315888,-120.9092505028711 93.47151022836584,-121.0303631609379 93.42659766814735,-121.15077839489415 93.37978025743017,-121.27046589084864 93.3310697822471,-121.38939551811433 93.28047850519975,-121.50753733679356 93.2280191623716,-121.62486160531526 93.17370496012163,-121.74133878792229 93.11754957175981,-121.85693956210676 93.05956713410487,-121.97163482599201 92.9997722439254,-122.08539570565871 92.93817995426525,-122.19819356241378 92.87480577065394,-122.30999999999999 92.8096656472033,-122.42078687174458 92.74277598259106,-122.53052628764505 92.67415361593255,-122.63919062139033 92.60381582254163,-122.74675251731549 92.53178030958162,-122.85318489728843 92.4580652116077,-122.95846096752669 92.38268908600156,-123.06255422534258 92.30567090829973,-123.16543846581509 92.22703006741656,-123.26708778838689 92.14678636076322,-123.3674766033846 92.06495998926371,-123.46657963846094 91.98157155226949,-123.56437194495679 91.8966420423736,-123.66082890418195 91.810192840126,-123.75592623361275 91.72224570865106,-123.84963999300508 91.63282278816878,-123.94194659042118 91.54194659042119,-124.03282278816877 91.4496399930051,-124.12224570865105 91.35592623361276,-124.21019284012601 91.26082890418195,-124.29664204237359 91.1643719449568,-124.38157155226946 91.06657963846095,-124.4649599892637 90.96747660338463,-124.54678636076322 90.8670877883869,-124.62703006741657 90.76543846581508,-124.70567090829972 90.66255422534257,-124.78268908600157 90.5584609675267,-124.85806521160771 90.45318489728844,-124.93178030958163 90.3467525173155,-125.00381582254163 90.23919062139032,-125.07415361593254 90.13052628764505,-125.14277598259105 90.02078687174458,-125.2096656472033 89.91,-125.27480577065394 89.79819356241377,-125.33817995426524 89.6853957056587,-125.39977224392538 89.571634825992,-125.45956713410486 89.45693956210675,-125.5175495717598 89.34133878792228,-125.57370496012162 89.22486160531527,-125.62801916237157 89.10753733679357,-125.68047850519974 88.98939551811432,-125.73106978224709 88.87046589084865,-125.77978025743018 88.75077839489416,-125.82659766814734 88.6303631609379,-125.87151022836584 88.50925050287111,-125.9145066315888 88.38747091015775,-125.95557605370163 88.26505504015903,-125.99470815569698 88.14203371041557,-126.03189308627742 88.01843789088927,-126.0671214843355 87.89429869616674,-126.10038448131046 87.76964737762636,-126.13167370342066 87.64451531557097,-126.16098127377177 87.51893401132803,-126.18829981433969 87.39293507931932,-126.2136224478279 87.26655023910213,-126.23694279939888 87.13981130738412,-126.25825499827877 87.01275019001359,-126.27755367923554 86.88539887394737,-126.29483398392941 86.75778941919818,-126.31009156213614 86.62995395076388,-126.32332257284196 86.50192465053998,-126.33452368521071 86.37373374921816,-126.34369207942224 86.2454135181723,-126.35082544738233 86.11699626133435,-126.35592199330377 85.98851430706193,-126.35898043415837 85.86,-126.35999999999997 76.14,-126.35999999999999 76.01148569293807,-126.35898043415838 75.88300373866565,-126.35592199330378 75.75458648182769,-126.35082544738235 75.62626625078182,-126.34369207942225 75.49807534946001,-126.33452368521073 75.37004604923612,-126.32332257284197 75.24221058080181,-126.31009156213615 75.11460112605263,-126.29483398392944 74.9872498099864,-126.27755367923555 74.86018869261586,-126.25825499827879 74.73344976089787,-126.23694279939888 74.60706492068068,-126.21362244782792 74.48106598867196,-126.1882998143397 74.35548468442903,-126.16098127377178 74.23035262237364,-126.13167370342067 74.10570130383326,-126.10038448131047 73.98156210911073,-126.06712148433552 73.85796628958443,-126.03189308627742 73.73494495984097,-125.994708155697 73.61252908984225,-125.95557605370165 73.49074949712889,-125.91450663158881 73.36963683906208,-125.87151022836585 73.24922160510584,-125.82659766814736 73.12953410915135,-125.77978025743019 73.01060448188565,-125.7310697822471 72.89246266320643,-125.68047850519976 72.77513839468472,-125.62801916237159 72.6586612120777,-125.57370496012163 72.54306043789323,-125.51754957175982 72.42836517400798,-125.45956713410487 72.31460429434127,-125.3997722439254 72.2018064375862,-125.33817995426526 72.09,-125.27480577065396 71.97921312825541,-125.20966564720331 71.86947371235493,-125.14277598259105 71.76080937860965,-125.07415361593256 71.6532474826845,-125.00381582254164 71.54681510271156,-124.93178030958164 71.4415390324733,-124.85806521160771 71.33744577465741,-124.78268908600157 71.23456153418489,-124.70567090829974 71.1329122116131,-124.62703006741657 71.03252339661536,-124.54678636076324 70.93342036153904,-124.46495998926372 70.8356280550432,-124.38157155226948 70.73917109581804,-124.2966420423736 70.64407376638724,-124.21019284012601 70.5503600069949,-124.12224570865105 70.4580534095788,-124.03282278816877 70.36717721183122,-123.9419465904212 70.27775429134894,-123.8496399930051 70.18980715987398,-123.75592623361275 70.10335795762639,-123.66082890418195 70.01842844773051,-123.5643719449568 69.93504001073629,-123.46657963846096 69.85321363923676,-123.36747660338463 69.77296993258342,-123.26708778838689 69.69432909170027,-123.1654384658151 69.61731091399842,-123.06255422534258 69.54193478839228,-122.95846096752669 69.46821969041835,-122.85318489728843 69.39618417745835,-122.74675251731549 69.32584638406743,-122.63919062139034 69.25722401740894,-122.53052628764506 69.19033435279668,-122.42078687174458 69.12519422934604,-122.30999999999999 69.06182004573473,-122.19819356241379 69.0002277560746,-122.08539570565873 68.94043286589512,-121.97163482599203 68.88245042824018,-121.85693956210676 68.82629503987836,-121.74133878792229 68.7719808376284,-121.62486160531527 68.71952149480025,-121.50753733679356 68.66893021775289,-121.38939551811434 68.6202197425698,-121.27046589084864 68.57340233185263,-121.15077839489415 68.52848977163414,-121.03036316093791 68.48549336841118,-120.9092505028711 68.44442394629834,-120.78747091015774 68.405291844303,-120.66505504015902 68.36810691372257,-120.54203371041557 68.33287851566448,-120.41843789088928 68.29961551868952,-120.29429869616673 68.26832629657932,-120.16964737762635 68.23901872622821,-120.04451531557098 68.21170018566029,-119.91893401132803 68.18637755217208,-119.7929350793193 68.16305720060112,-119.66655023910212 68.1417450017212,-119.53981130738413 68.12244632076444,-119.4127501900136 68.10516601607056,-119.28539887394736 68.08990843786384,-119.15778941919818 68.07667742715802,-119.02995395076387 68.06547631478927,-118.90192465053998 68.05630792057774,-118.77373374921817 68.04917455261764,-118.64541351817229 68.04407800669621,-118.51699626133434 68.04101956584161,-118.38851430706193 68.04,-118.25999999999999 68.04,-11.339999999999998 68.04101956584161,-11.211485692938053 68.0440780066962,-11.083003738665651 68.04917455261764,-10.954586481827686 68.05630792057774,-10.826266250781822 68.06547631478927,-10.698075349460009 68.07667742715802,-10.570046049236117 68.08990843786384,-10.44221058080181 68.10516601607056,-10.31460112605263 68.12244632076444,-10.187249809986389 68.1417450017212,-10.060188692615863 68.16305720060112,-9.933449760897863 68.18637755217208,-9.807064920680675 68.21170018566029,-9.681065988671952 68.23901872622821,-9.555484684429018 68.26832629657932,-9.430352622373636 68.29961551868952,-9.305701303833256 68.33287851566448,-9.181562109110715 68.36810691372257,-9.057966289584417 68.405291844303,-8.93494495984097 68.44442394629834,-8.81252908984225 68.48549336841118,-8.690749497128882 68.52848977163414,-8.569636839062081 68.57340233185263,-8.449221605105835 68.6202197425698,-8.329534109151345 68.66893021775289,-8.210604481885657 68.71952149480023,-8.092462663206424 68.7719808376284,-7.975138394684716 68.82629503987836,-7.858661212077707 68.88245042824018,-7.743060437893227 68.94043286589512,-7.628365174007974 69.0002277560746,-7.514604294341268 69.06182004573473,-7.4018064375862025 69.12519422934604,-7.2899999999999965 69.19033435279668,-7.179213128255408 69.25722401740894,-7.069473712354927 69.32584638406743,-6.960809378609657 69.39618417745835,-6.8532474826845045 69.46821969041835,-6.7468151027115555 69.54193478839228,-6.641539032473293 69.61731091399842,-6.537445774657411 69.69432909170025,-6.434561534184899 69.77296993258342,-6.3329122116130945 69.85321363923676,-6.232523396615365 69.93504001073627,-6.133420361539029 70.01842844773051,-6.035628055043189 70.10335795762639,-5.939171095818036 70.18980715987398,-5.844073766387227 70.27775429134894,-5.7503600069948915 70.36717721183122,-5.658053409578794 70.4580534095788,-5.567177211831209 70.5503600069949,-5.47775429134893 70.64407376638724,-5.389807159873979 70.73917109581804,-5.303357957626385 70.83562805504319,-5.218428447730506 70.93342036153904,-5.135040010736276 71.03252339661536,-5.053213639236767 71.1329122116131,-4.972969932583421 71.23456153418489,-4.894329091700257 71.3374457746574,-4.817310913998425 71.4415390324733,-4.741934788392279 71.54681510271155,-4.668219690418355 71.6532474826845,-4.596184177458349 71.76080937860965,-4.52584638406743 71.86947371235493,-4.457224017408932 71.97921312825541,-4.390334352796683 72.09,-4.325194229346043 72.2018064375862,-4.261820045734741 72.31460429434127,-4.200227756074585 72.42836517400796,-4.140432865895118 72.54306043789323,-4.0824504282401755 72.6586612120777,-4.026295039878367 72.77513839468472,-3.971980837628398 72.89246266320643,-3.9195214948002346 73.01060448188565,-3.8689302177528884 73.12953410915135,-3.8202197425698103 73.24922160510584,-3.7734023318526333 73.36963683906208,-3.728489771634139 73.49074949712889,-3.685493368411184 73.61252908984225,-3.6444239462983394 73.73494495984097,-3.6052918443029998 73.85796628958443,-3.5681069137225685 73.98156210911071,-3.5328785156644678 74.10570130383326,-3.4996155186895117 74.23035262237364,-3.468326296579309 74.35548468442902,-3.439018726228201 74.48106598867196,-3.4117001856602895 74.60706492068068,-3.386377552172074 74.73344976089787,-3.3630572006011126 74.86018869261586,-3.3417450017212036 74.9872498099864,-3.322446320764443 75.11460112605263,-3.305166016070555 75.24221058080181,-3.289908437863839 75.37004604923612,-3.2766774271580124 75.49807534946001,-3.265476314789265 75.62626625078182,-3.256307920577733 75.75458648182769,-3.249174552617633 75.88300373866565,-3.2440780066961983 76.01148569293807,-3.241019565841609 76.14,-3.2399999999999975 85.86,-3.240000000000003 " style="stroke:red;fill:none;stroke-width:1;stroke-linecap:round;stroke-linejoin:round;" /><polygon points="21.059999999999995,3.240000000000001 21.18851430706194,3.238980434158389 21.316996261334346,3.235921993303801 21.44541351817231,3.2308254473823657 21.573733749218167,3.223692079422265 21.701924650539986,3.214523685210734 21.829953950763876,3.2033225728419863 21.957789419198185,3.19009156213616 22.085398873947366,3.1748339839294433 22.212750190013608,3.1575536792355567 22.33981130738413,3.1382549982787955 22.466550239102133,3.116942799398887 22.59293507931932,3.0936224478279253 22.71893401132804,3.0682998143397087 22.844515315570977,3.040981273771799 22.96964737762636,3.0116737034206893 23.094298696166742,2.9803844813104874 23.218437890889284,2.9471214843355322 23.342033710415578,2.9118930862774306 23.465055040159026,2.8747081556970002 23.587470910157744,2.8355760537016588 23.709250502871114,2.7945066315888165 23.830363160937914,2.75151022836586 23.95077839489416,2.706597668147366 24.070465890848652,2.6597802574301896 24.189395518114342,2.6110697822471107 24.30753733679357,2.5604785051997654 24.42486160531528,2.5080191623716 24.54133878792229,2.4537049601216343 24.656939562106768,2.3975495717598223 24.771634825992024,2.339567134104882 24.885395705658727,2.2797722439254158 24.998193562413796,2.218179954265259 25.11,2.1548057706539545 25.220786871744593,2.089665647203315 25.330526287645068,2.0227759825910683 25.439190621390342,1.9541536159325688 25.546752517315493,1.8838158225416493 25.65318489728844,1.8117803095816467 25.758460967526705,1.7380652116077204 25.862554225342585,1.662689086001576 25.965438465815097,1.585670908299742 26.067087788386903,1.5070300674165797 26.16747660338463,1.4267863607632312 26.266579638460968,1.3449599892637238 26.364371944956808,1.261571552269493 26.460828904181962,1.1766420423736148 26.55592623361277,1.0901928401260208 26.649639993005106,1.0022457086510697 26.741946590421204,0.9128227881687898 26.832822788168787,0.8219465904212033 26.92224570865107,0.7296399930051085 27.010192840126017,0.6359262336127717 27.096642042373613,0.5408289041819632 27.181571552269492,0.44437194495681037 27.264959989263723,0.346579638460969 27.34678636076323,0.2474766033846334 27.427030067416577,0.14708778838690292 27.50567090829974,0.045438465815101504 27.582689086001572,-0.05744577465741165 27.658065211607717,-0.16153903247329388 27.731780309581644,-0.2668151027115559 27.803815822541647,-0.3732474826845058 27.87415361593257,-0.4808093786096587 27.942775982591066,-0.5894737123549296 28.009665647203317,-0.6992131282554078 28.074805770653953,-0.8100000000000003 28.138179954265258,-0.9218064375862033 28.199772243925416,-1.0346042943412694 28.25956713410488,-1.1483651740079746 28.317549571759823,-1.2630604378932297 28.373704960121632,-1.3786612120777095 28.428019162371598,-1.4951383946847192 28.480478505199766,-1.6124626632064296 28.53106978224711,-1.7306044818856579 28.579780257430187,-1.8495341091513464 28.626597668147365,-1.9692216051058389 28.671510228365857,-2.0896368390620834 28.71450663158881,-2.2107494971288846 28.755576053701656,-2.3325290898422537 28.794708155697,-2.454944959840974 28.83189308627743,-2.57796628958442 28.86712148433553,-2.7015621091107165 28.900384481310486,-2.8257013038332595 28.93167370342069,-2.9503526223736403 28.960981273771797,-3.0754846844290213 28.988299814339708,-3.2010659886719566 29.013622447827924,-3.327064920680678 29.036942799398886,-3.4534497608978647 29.058254998278795,-3.580188692615866 29.077553679235557,-3.7072498099863918 29.09483398392944,-3.8346011260526316 29.11009156213616,-3.962210580801811 29.123322572841982,-4.090046049236122 29.13452368521073,-4.2180753494600145 29.143692079422262,-4.346266250781828 29.150825447382363,-4.4745864818276875 29.1559219933038,-4.603003738665653 29.158980434158387,-4.731485692938056 29.16,-4.86 29.16,-21.059999999999995 29.158980434158387,-21.18851430706194 29.1559219933038,-21.316996261334346 29.150825447382363,-21.44541351817231 29.143692079422262,-21.573733749218167 29.13452368521073,-21.701924650539983 29.123322572841982,-21.829953950763873 29.11009156213616,-21.957789419198185 29.09483398392944,-22.085398873947366 29.077553679235557,-22.212750190013608 29.058254998278795,-22.33981130738413 29.036942799398886,-22.466550239102133 29.013622447827924,-22.592935079319318 28.988299814339708,-22.71893401132804 28.960981273771797,-22.844515315570977 28.93167370342069,-22.96964737762636 28.900384481310486,-23.094298696166742 28.86712148433553,-23.218437890889284 28.83189308627743,-23.342033710415578 28.794708155697,-23.465055040159026 28.755576053701656,-23.587470910157744 28.71450663158881,-23.709250502871114 28.671510228365857,-23.830363160937914 28.626597668147365,-23.95077839489416 28.579780257430187,-24.070465890848652 28.53106978224711,-24.18939551811434 28.480478505199766,-24.30753733679357 28.428019162371598,-24.42486160531528 28.373704960121632,-24.54133878792229 28.317549571759823,-24.656939562106768 28.25956713410488,-24.77163482599202 28.199772243925416,-24.885395705658727 28.138179954265258,-24.998193562413796 28.074805770653953,-25.11 28.009665647203317,-25.22078687174459 27.942775982591066,-25.330526287645068 27.87415361593257,-25.43919062139034 27.80381582254165,-25.54675251731549 27.731780309581644,-25.65318489728844 27.65806521160772,-25.758460967526705 27.582689086001572,-25.862554225342585 27.50567090829974,-25.965438465815097 27.427030067416577,-26.0670877883869 27.34678636076323,-26.16747660338463 27.264959989263723,-26.266579638460968 27.181571552269496,-26.364371944956805 27.096642042373613,-26.46082890418196 27.010192840126017,-26.55592623361277 26.92224570865107,-26.649639993005103 26.83282278816879,-26.7419465904212 26.741946590421204,-26.832822788168787 26.649639993005106,-26.92224570865107 26.555926233612773,-27.010192840126017 26.460828904181962,-27.096642042373613 26.364371944956808,-27.181571552269492 26.266579638460968,-27.26495998926372 26.16747660338463,-27.34678636076323 26.067087788386903,-27.427030067416577 25.965438465815097,-27.505670908299738 25.86255422534259,-27.582689086001572 25.758460967526705,-27.658065211607717 25.65318489728844,-27.731780309581644 25.546752517315493,-27.803815822541647 25.439190621390342,-27.874153615932567 25.330526287645068,-27.942775982591066 25.220786871744593,-28.009665647203313 25.11,-28.074805770653953 24.998193562413796,-28.138179954265258 24.88539570565873,-28.199772243925416 24.771634825992024,-28.25956713410488 24.656939562106768,-28.317549571759823 24.54133878792229,-28.373704960121632 24.424861605315282,-28.428019162371598 24.30753733679357,-28.480478505199766 24.189395518114342,-28.53106978224711 24.070465890848652,-28.579780257430187 23.95077839489416,-28.626597668147365 23.830363160937914,-28.671510228365857 23.709250502871114,-28.71450663158881 23.587470910157744,-28.755576053701656 23.465055040159026,-28.794708155697 23.34203371041558,-28.83189308627743 23.218437890889284,-28.86712148433553 23.094298696166742,-28.900384481310486 22.96964737762636,-28.93167370342069 22.84451531557098,-28.960981273771797 22.71893401132804,-28.988299814339708 22.59293507931932,-29.013622447827924 22.466550239102133,-29.036942799398886 22.33981130738413,-29.058254998278795 22.212750190013608,-29.077553679235557 22.08539887394737,-29.09483398392944 21.95778941919819,-29.11009156213616 21.829953950763876,-29.123322572841982 21.701924650539986,-29.13452368521073 21.57373374921817,-29.143692079422262 21.445413518172312,-29.150825447382363 21.316996261334346,-29.1559219933038 21.188514307061943,-29.158980434158387 21.06,-29.16 11.340000000000002,-29.16 11.211485692938059,-29.158980434158387 11.083003738665653,-29.1559219933038 10.95458648182769,-29.150825447382363 10.82626625078183,-29.143692079422262 10.698075349460014,-29.13452368521073 10.570046049236122,-29.123322572841982 10.442210580801813,-29.11009156213616 10.314601126052633,-29.09483398392944 10.187249809986392,-29.077553679235557 10.060188692615867,-29.058254998278795 9.933449760897867,-29.036942799398886 9.807064920680679,-29.013622447827924 9.681065988671957,-28.988299814339708 9.555484684429024,-28.960981273771797 9.430352622373642,-28.93167370342069 9.30570130383326,-28.900384481310486 9.181562109110718,-28.86712148433553 9.05796628958442,-28.83189308627743 8.934944959840974,-28.794708155697 8.812529089842256,-28.755576053701656 8.690749497128886,-28.71450663158881 8.569636839062087,-28.671510228365857 8.449221605105839,-28.626597668147365 8.329534109151348,-28.579780257430187 8.210604481885659,-28.53106978224711 8.09246266320643,-28.480478505199766 7.975138394684722,-28.428019162371598 7.8586612120777115,-28.373704960121632 7.743060437893232,-28.317549571759823 7.628365174007975,-28.25956713410488 7.51460429434127,-28.199772243925416 7.401806437586204,-28.138179954265258 7.290000000000001,-28.074805770653953 7.17921312825541,-28.009665647203317 7.069473712354933,-27.942775982591066 6.960809378609661,-27.87415361593257 6.853247482684506,-27.803815822541647 6.746815102711557,-27.731780309581644 6.641539032473295,-27.65806521160772 6.537445774657413,-27.582689086001576 6.434561534184901,-27.50567090829974 6.332912211613099,-27.42703006741658 6.2325233966153695,-27.346786360763232 6.133420361539031,-27.264959989263723 6.03562805504319,-27.181571552269496 5.939171095818038,-27.096642042373613 5.844073766387229,-27.01019284012602 5.750360006994893,-26.92224570865107 5.658053409578798,-26.83282278816879 5.567177211831212,-26.741946590421204 5.477754291348931,-26.649639993005106 5.389807159873979,-26.55592623361277 5.303357957626386,-26.460828904181962 5.218428447730508,-26.364371944956808 5.135040010736278,-26.266579638460968 5.053213639236771,-26.167476603384635 4.972969932583422,-26.067087788386903 4.894329091700258,-25.965438465815097 4.8173109139984245,-25.862554225342585 4.74193478839228,-25.758460967526705 4.668219690418354,-25.65318489728844 4.596184177458352,-25.546752517315493 4.525846384067433,-25.439190621390342 4.457224017408933,-25.33052628764507 4.3903343527966845,-25.220786871744593 4.325194229346046,-25.11 4.2618200457347415,-24.998193562413796 4.200227756074585,-24.88539570565873 4.14043286589512,-24.771634825992024 4.082450428240178,-24.656939562106768 4.0262950398783675,-24.541338787922292 3.9719808376284,-24.42486160531528 3.9195214948002346,-24.30753733679357 3.86893021775289,-24.189395518114342 3.8202197425698112,-24.070465890848652 3.773402331852635,-23.95077839489416 3.7284897716341407,-23.830363160937914 3.685493368411185,-23.709250502871118 3.644423946298341,-23.587470910157744 3.6052918443030006,-23.465055040159026 3.5681069137225703,-23.34203371041558 3.5328785156644686,-23.218437890889284 3.4996155186895135,-23.094298696166742 3.4683262965793107,-22.96964737762636 3.439018726228202,-22.84451531557098 3.4117001856602913,-22.71893401132804 3.3863775521720747,-22.59293507931932 3.3630572006011135,-22.466550239102133 3.3417450017212054,-22.33981130738413 3.3224463207644446,-22.21275019001361 3.3051660160705567,-22.085398873947366 3.289908437863841,-21.95778941919819 3.276677427158014,-21.829953950763876 3.265476314789266,-21.701924650539986 3.256307920577735,-21.57373374921817 3.2491745526176348,-21.445413518172312 3.2440780066962,-21.31699626133435 3.241019565841611,-21.188514307061943 3.2399999999999993,-21.06 3.2399999999999993,-4.859999999999995 3.241019565841611,-4.731485692938051 3.2440780066962,-4.603003738665648 3.2491745526176348,-4.474586481827684 3.256307920577736,-4.346266250781825 3.2654763147892667,-4.218075349460007 3.276677427158014,-4.090046049236115 3.289908437863841,-3.9622105808018055 3.3051660160705576,-3.8346011260526263 3.3224463207644446,-3.707249809986386 3.3417450017212054,-3.5801886926158626 3.3630572006011143,-3.453449760897861 3.3863775521720756,-3.3270649206806744 3.411700185660292,-3.20106598867195 3.439018726228203,-3.0754846844290156 3.4683262965793125,-2.9503526223736345 3.4996155186895144,-2.8257013038332546 3.5328785156644695,-2.701562109110713 3.568106913722571,-2.5779662895844164 3.6052918443030015,-2.4549449598409705 3.644423946298342,-2.3325290898422524 3.685493368411185,-2.210749497128883 3.7284897716341425,-2.0896368390620785 3.773402331852636,-1.9692216051058338 3.820219742569812,-1.8495341091513433 3.868930217752891,-1.7306044818856547 3.9195214948002364,-1.6124626632064263 3.9719808376284016,-1.4951383946847174 4.0262950398783675,-1.3786612120777082 4.08245042824018,-1.263060437893228 4.14043286589512,-1.1483651740079746 4.200227756074587,-1.0346042943412663 4.261820045734743,-0.9218064375862001 4.325194229346048,-0.8099999999999971 4.390334352796686,-0.699213128255406 4.457224017408933,-0.5894737123549278 4.525846384067433,-0.4808093786096578 4.596184177458352,-0.3732474826845058 4.668219690418356,-0.26681510271155323 4.74193478839228,-0.16153903247329388 4.817310913998426,-0.05744577465740895 4.894329091700261,0.0454384658151024 4.972969932583422,0.1470877883869038 5.053213639236771,0.2474766033846343 5.135040010736278,0.3465796384609699 5.218428447730508,0.44437194495681037 5.303357957626386,0.5408289041819623 5.389807159873982,0.6359262336127736 5.477754291348931,0.7296399930051067 5.567177211831212,0.8219465904212042 5.658053409578798,0.9128227881687917 5.750360006994893,1.0022457086510697 5.844073766387229,1.0901928401260208 5.939171095818038,1.176642042373614 6.03562805504319,1.261571552269493 6.133420361539031,1.344959989263723 6.2325233966153695,1.426786360763232 6.332912211613099,1.5070300674165806 6.434561534184901,1.585670908299742 6.537445774657413,1.662689086001576 6.641539032473295,1.7380652116077204 6.746815102711557,1.8117803095816458 6.853247482684506,1.8838158225416484 6.960809378609661,1.9541536159325696 7.069473712354929,2.0227759825910665 7.17921312825541,2.089665647203315 7.289999999999998,2.1548057706539527 7.401806437586204,2.218179954265259 7.51460429434127,2.279772243925415 7.628365174007975,2.3395671341048803 7.743060437893228,2.3975495717598205 7.858661212077708,2.4537049601216316 7.97513839468472,2.5080191623715993 8.092462663206428,2.5604785051997636 8.210604481885657,2.611069782247109 8.329534109151346,2.6597802574301888 8.449221605105837,2.706597668147365 8.569636839062083,2.7515102283658583 8.690749497128884,2.7945066315888147 8.812529089842254,2.835576053701658 8.934944959840973,2.8747081556969984 9.057966289584417,2.911893086277429 9.181562109110715,2.9471214843355305 9.305701303833256,2.9803844813104856 9.430352622373638,3.0116737034206875 9.55548468442902,3.040981273771797 9.681065988671953,3.0682998143397078 9.807064920680675,3.0936224478279244 9.933449760897863,3.116942799398885 10.060188692615863,3.1382549982787937 10.187249809986389,3.157553679235555 10.314601126052628,3.1748339839294415 10.44221058080181,3.1900915621361583 10.570046049236119,3.2033225728419854 10.69807534946001,3.2145236852107333 10.826266250781824,3.223692079422264 10.954586481827684,3.2308254473823643 11.08300373866565,3.235921993303799 11.211485692938053,3.238980434158388 11.339999999999996,3.24 21.059999999999995,3.240000000000001 " style="stroke:purple;fill:none;stroke-width:1;stroke-linecap:round;stroke-linejoin:round;" /><polygon points="21.059999999999995,-100.44 21.18851430706194,-100.44101956584161 21.316996261334346,-100.4440780066962 21.44541351817231,-100.44917455261763 21.573733749218167,-100.45630792057774 21.701924650539983,-100.46547631478927 21.829953950763876,-100.47667742715801 21.957789419198185,-100.48990843786385 22.085398873947366,-100.50516601607055 22.212750190013608,-100.52244632076444 22.33981130738413,-100.54174500172121 22.466550239102133,-100.56305720060112 22.592935079319318,-100.58637755217208 22.71893401132804,-100.6117001856603 22.844515315570977,-100.6390187262282 22.96964737762636,-100.66832629657931 23.09429869616674,-100.69961551868951 23.218437890889277,-100.73287851566447 23.342033710415578,-100.76810691372258 23.465055040159022,-100.805291844303 23.58747091015774,-100.84442394629833 23.709250502871114,-100.88549336841119 23.830363160937914,-100.92848977163413 23.950778394894158,-100.97340233185264 24.07046589084865,-101.02021974256981 24.18939551811434,-101.0689302177529 24.30753733679357,-101.11952149480022 24.42486160531528,-101.1719808376284 24.541338787922285,-101.22629503987837 24.656939562106768,-101.28245042824018 24.77163482599202,-101.34043286589512 24.885395705658727,-101.40022775607459 24.998193562413793,-101.46182004573474 25.109999999999996,-101.52519422934604 25.22078687174459,-101.59033435279667 25.330526287645068,-101.65722401740894 25.43919062139034,-101.72584638406742 25.54675251731549,-101.79618417745836 25.65318489728844,-101.86821969041836 25.758460967526702,-101.94193478839229 25.862554225342585,-102.01731091399843 25.965438465815097,-102.09432909170026 26.0670877883869,-102.17296993258343 26.167476603384628,-102.25321363923678 26.266579638460964,-102.33504001073626 26.364371944956805,-102.4184284477305 26.460828904181955,-102.50335795762638 26.55592623361277,-102.58980715987398 26.649639993005103,-102.67775429134893 26.7419465904212,-102.76717721183121 26.832822788168787,-102.85805340957879 26.922245708651065,-102.95036000699488 27.010192840126017,-103.04407376638723 27.096642042373613,-103.13917109581804 27.18157155226949,-103.2356280550432 27.264959989263716,-103.33342036153903 27.346786360763225,-103.43252339661537 27.427030067416577,-103.5329122116131 27.505670908299738,-103.6345615341849 27.582689086001572,-103.73744577465742 27.658065211607717,-103.84153903247329 27.731780309581644,-103.94681510271155 27.803815822541644,-104.0532474826845 27.874153615932563,-104.16080937860966 27.942775982591062,-104.26947371235492 28.00966564720331,-104.37921312825542 28.07480577065395,-104.49 28.138179954265254,-104.6018064375862 28.19977224392541,-104.71460429434127 28.259567134104874,-104.82836517400798 28.317549571759816,-104.94306043789324 28.37370496012163,-105.05866121207771 28.428019162371594,-105.17513839468471 28.48047850519976,-105.29246266320642 28.531069782247105,-105.41060448188566 28.579780257430183,-105.52953410915134 28.626597668147358,-105.64922160510584 28.671510228365854,-105.76963683906207 28.71450663158881,-105.89074949712888 28.755576053701652,-106.01252908984225 28.794708155696995,-106.13494495984096 28.831893086277425,-106.25796628958442 28.867121484335527,-106.3815621091107 28.900384481310482,-106.50570130383325 28.931673703420685,-106.63035262237364 28.960981273771793,-106.75548468442902 28.988299814339705,-106.88106598867196 29.01362244782792,-107.00706492068068 29.036942799398883,-107.13344976089786 29.05825499827879,-107.26018869261586 29.077553679235553,-107.3872498099864 29.094833983929437,-107.51460112605263 29.110091562136155,-107.64221058080182 29.123322572841982,-107.77004604923611 29.13452368521073,-107.89807534946002 29.14369207942226,-108.02626625078183 29.15082544738236,-108.15458648182769 29.155921993303796,-108.28300373866564 29.158980434158384,-108.41148569293806 29.159999999999997,-108.53999999999999 29.159999999999997,-124.73999999999998 29.158980434158384,-124.86851430706193 29.155921993303796,-124.99699626133433 29.15082544738236,-125.12541351817231 29.14369207942226,-125.25373374921816 29.13452368521073,-125.38192465053997 29.123322572841982,-125.50995395076386 29.110091562136155,-125.63778941919817 29.094833983929437,-125.76539887394736 29.077553679235553,-125.89275019001359 29.05825499827879,-126.01981130738412 29.036942799398883,-126.14655023910211 29.01362244782792,-126.2729350793193 28.988299814339705,-126.39893401132802 28.960981273771793,-126.52451531557095 28.931673703420685,-126.64964737762634 28.900384481310482,-126.77429869616672 28.867121484335527,-126.89843789088927 28.831893086277425,-127.02203371041557 28.794708155696995,-127.14505504015901 28.755576053701652,-127.26747091015773 28.714506631588808,-127.38925050287109 28.671510228365854,-127.5103631609379 28.626597668147358,-127.63077839489414 28.579780257430183,-127.75046589084864 28.531069782247105,-127.86939551811433 28.48047850519976,-127.98753733679355 28.428019162371594,-128.10486160531528 28.37370496012163,-128.22133878792226 28.317549571759816,-128.33693956210675 28.259567134104874,-128.45163482599202 28.19977224392541,-128.56539570565872 28.138179954265254,-128.67819356241378 28.074805770653946,-128.79 28.00966564720331,-128.90078687174457 27.942775982591062,-129.01052628764506 27.874153615932563,-129.11919062139032 27.803815822541644,-129.22675251731548 27.731780309581644,-129.33318489728842 27.658065211607717,-129.43846096752668 27.582689086001572,-129.54255422534257 27.505670908299738,-129.64543846581506 27.427030067416577,-129.7470877883869 27.346786360763225,-129.84747660338462 27.264959989263716,-129.94657963846095 27.18157155226949,-130.0443719449568 27.096642042373613,-130.14082890418194 27.010192840126017,-130.23592623361276 26.922245708651065,-130.3296399930051 26.832822788168787,-130.4219465904212 26.741946590421197,-130.5128227881688 26.649639993005103,-130.60224570865105 26.55592623361277,-130.690192840126 26.460828904181955,-130.7766420423736 26.364371944956805,-130.86157155226948 26.266579638460964,-130.9449599892637 26.167476603384628,-131.0267863607632 26.0670877883869,-131.10703006741656 25.965438465815094,-131.18567090829973 25.862554225342585,-131.26268908600156 25.758460967526702,-131.3380652116077 25.65318489728844,-131.41178030958164 25.54675251731549,-131.48381582254163 25.43919062139034,-131.55415361593256 25.330526287645064,-131.62277598259107 25.22078687174459,-131.6896656472033 25.109999999999996,-131.75480577065392 24.998193562413793,-131.81817995426525 24.885395705658727,-131.8797722439254 24.77163482599202,-131.93956713410486 24.656939562106764,-131.9975495717598 24.541338787922285,-132.05370496012162 24.42486160531528,-132.1080191623716 24.30753733679357,-132.16047850519976 24.18939551811434,-132.2110697822471 24.07046589084865,-132.25978025743018 23.950778394894158,-132.30659766814733 23.830363160937914,-132.35151022836584 23.70925050287111,-132.3945066315888 23.58747091015774,-132.43557605370165 23.465055040159022,-132.474708155697 23.342033710415578,-132.5118930862774 23.218437890889277,-132.54712148433552 23.09429869616674,-132.58038448131046 22.96964737762636,-132.61167370342068 22.844515315570977,-132.64098127377179 22.71893401132804,-132.6682998143397 22.592935079319318,-132.6936224478279 22.466550239102133,-132.71694279939888 22.339811307384128,-132.73825499827876 22.212750190013608,-132.7575536792355 22.085398873947366,-132.77483398392943 21.957789419198185,-132.79009156213615 21.829953950763873,-132.80332257284198 21.701924650539983,-132.8145236852107 21.573733749218167,-132.82369207942224 21.44541351817231,-132.83082544738235 21.316996261334346,-132.83592199330377 21.18851430706194,-132.83898043415834 21.059999999999995,-132.83999999999997 11.340000000000002,-132.83999999999997 11.211485692938059,-132.83898043415834 11.083003738665653,-132.83592199330377 10.95458648182769,-132.83082544738235 10.82626625078183,-132.82369207942224 10.698075349460016,-132.8145236852107 10.570046049236122,-132.80332257284198 10.442210580801813,-132.79009156213615 10.314601126052633,-132.77483398392943 10.187249809986394,-132.75755367923554 10.060188692615867,-132.73825499827876 9.933449760897867,-132.71694279939888 9.80706492068068,-132.6936224478279 9.681065988671957,-132.6682998143397 9.555484684429024,-132.64098127377179 9.430352622373642,-132.61167370342068 9.305701303833262,-132.58038448131046 9.18156210911072,-132.54712148433552 9.05796628958442,-132.5118930862774 8.934944959840976,-132.474708155697 8.812529089842258,-132.43557605370165 8.690749497128888,-132.3945066315888 8.569636839062087,-132.35151022836584 8.44922160510584,-132.30659766814733 8.32953410915135,-132.25978025743018 8.21060448188566,-132.2110697822471 8.092462663206431,-132.16047850519976 7.975138394684723,-132.1080191623716 7.8586612120777115,-132.05370496012162 7.743060437893232,-131.9975495717598 7.628365174007978,-131.93956713410486 7.514604294341273,-131.8797722439254 7.401806437586209,-131.81817995426525 7.290000000000002,-131.75480577065392 7.179213128255413,-131.6896656472033 7.069473712354933,-131.62277598259107 6.960809378609662,-131.55415361593256 6.85324748268451,-131.48381582254166 6.746815102711561,-131.41178030958164 6.641539032473299,-131.3380652116077 6.537445774657416,-131.26268908600156 6.434561534184905,-131.18567090829973 6.3329122116131,-131.10703006741656 6.23252339661537,-131.0267863607632 6.133420361539034,-130.9449599892637 6.035628055043194,-130.86157155226948 5.9391710958180415,-130.7766420423736 5.844073766387233,-130.690192840126 5.750360006994897,-130.60224570865105 5.658053409578799,-130.5128227881688 5.567177211831213,-130.4219465904212 5.477754291348934,-130.3296399930051 5.389807159873983,-130.23592623361276 5.30335795762639,-130.14082890418194 5.218428447730512,-130.0443719449568 5.135040010736281,-129.94657963846095 5.0532136392367715,-129.84747660338462 4.972969932583426,-129.7470877883869 4.8943290917002615,-129.64543846581506 4.817310913998428,-129.54255422534257 4.7419347883922836,-129.43846096752668 4.668219690418358,-129.33318489728842 4.596184177458356,-129.22675251731548 4.525846384067436,-129.11919062139032 4.4572240174089375,-129.01052628764506 4.390334352796688,-128.90078687174457 4.3251942293460495,-128.79 4.261820045734745,-128.67819356241378 4.200227756074589,-128.56539570565872 4.140432865895123,-128.45163482599202 4.082450428240182,-128.33693956210675 4.026295039878371,-128.22133878792226 3.9719808376284034,-128.10486160531528 3.91952149480024,-127.98753733679355 3.8689302177528937,-127.86939551811433 3.820219742569815,-127.75046589084864 3.7734023318526386,-127.63077839489414 3.728489771634145,-127.5103631609379 3.6854933684111884,-127.38925050287109 3.6444239462983448,-127.26747091015773 3.605291844303005,-127.14505504015901 3.568106913722574,-127.02203371041557 3.532878515664472,-126.89843789088927 3.499615518689517,-126.77429869616672 3.468326296579315,-126.64964737762634 3.4390187262282055,-126.52451531557097 3.411700185660295,-126.39893401132802 3.386377552172079,-126.2729350793193 3.363057200601117,-126.14655023910211 3.341745001721209,-126.01981130738412 3.322446320764448,-125.89275019001359 3.3051660160705603,-125.76539887394736 3.2899084378638443,-125.63778941919817 3.2766774271580177,-125.50995395076386 3.2654763147892703,-125.38192465053997 3.256307920577739,-125.25373374921816 3.2491745526176383,-125.1254135181723 3.2440780066962036,-124.99699626133433 3.2410195658416145,-124.86851430706193 3.240000000000003,-124.73999999999998 3.2399999999999975,-108.53999999999999 3.241019565841609,-108.41148569293806 3.2440780066961974,-108.28300373866564 3.249174552617633,-108.15458648182769 3.256307920577733,-108.02626625078183 3.265476314789264,-107.89807534946002 3.2766774271580124,-107.77004604923611 3.289908437863839,-107.64221058080182 3.305166016070555,-107.51460112605263 3.322446320764442,-107.3872498099864 3.3417450017212027,-107.26018869261587 3.3630572006011117,-107.13344976089786 3.386377552172073,-107.00706492068068 3.4117001856602895,-106.88106598867196 3.4390187262282,-106.75548468442902 3.468326296579309,-106.63035262237364 3.499615518689511,-106.50570130383325 3.532878515664466,-106.38156210911072 3.5681069137225676,-106.25796628958442 3.605291844302999,-106.13494495984096 3.6444239462983403,-106.01252908984225 3.685493368411183,-105.89074949712888 3.728489771634139,-105.76963683906207 3.7734023318526324,-105.64922160510584 3.8202197425698086,-105.52953410915134 3.8689302177528875,-105.41060448188566 3.9195214948002337,-105.29246266320642 3.971980837628399,-105.17513839468471 4.026295039878366,-105.05866121207771 4.082450428240177,-104.94306043789324 4.140432865895117,-104.82836517400798 4.200227756074582,-104.71460429434127 4.261820045734739,-104.6018064375862 4.325194229346045,-104.49 4.390334352796682,-104.37921312825542 4.45722401740893,-104.26947371235492 4.52584638406743,-104.16080937860966 4.5961841774583485,-104.0532474826845 4.6682196904183515,-103.94681510271155 4.741934788392277,-103.84153903247329 4.817310913998422,-103.73744577465742 4.894329091700255,-103.6345615341849 4.972969932583419,-103.5329122116131 5.053213639236767,-103.43252339661537 5.135040010736274,-103.33342036153903 5.2184284477305045,-103.2356280550432 5.303357957626384,-103.13917109581804 5.3898071598739765,-103.04407376638723 5.477754291348928,-102.95036000699488 5.567177211831209,-102.85805340957879 5.658053409578795,-102.76717721183121 5.75036000699489,-102.67775429134893 5.8440737663872255,-102.58980715987398 5.939171095818034,-102.50335795762638 6.035628055043187,-102.4184284477305 6.133420361539026,-102.33504001073628 6.232523396615366,-102.25321363923676 6.332912211613093,-102.17296993258343 6.434561534184897,-102.09432909170026 6.537445774657407,-102.01731091399843 6.6415390324732915,-101.94193478839229 6.746815102711549,-101.86821969041836 6.853247482684503,-101.79618417745836 6.960809378609658,-101.72584638406742 7.069473712354926,-101.65722401740894 7.179213128255406,-101.59033435279667 7.29,-101.52519422934604 7.4018064375862,-101.46182004573474 7.514604294341263,-101.40022775607459 7.628365174007971,-101.34043286589512 7.743060437893228,-101.28245042824018 7.858661212077705,-101.22629503987837 7.975138394684718,-101.1719808376284 8.092462663206422,-101.11952149480024 8.210604481885655,-101.0689302177529 8.32953410915134,-101.02021974256981 8.449221605105834,-100.97340233185264 8.569636839062083,-100.92848977163413 8.69074949712888,-100.88549336841119 8.812529089842252,-100.84442394629833 8.934944959840967,-100.805291844303 9.057966289584416,-100.76810691372258 9.18156210911071,-100.73287851566447 9.305701303833255,-100.69961551868951 9.430352622373638,-100.66832629657931 9.555484684429016,-100.6390187262282 9.681065988671953,-100.6117001856603 9.807064920680672,-100.58637755217208 9.933449760897862,-100.56305720060112 10.060188692615858,-100.54174500172121 10.187249809986387,-100.52244632076444 10.31460112605263,-100.50516601607055 10.442210580801806,-100.48990843786385 10.570046049236119,-100.47667742715801 10.698075349460007,-100.46547631478927 10.826266250781824,-100.45630792057774 10.95458648182768,-100.44917455261763 11.083003738665647,-100.4440780066962 11.211485692938055,-100.44101956584161 11.339999999999995,-100.44 21.059999999999995,-100.44 " style="stroke:purple;fill:none;stroke-width:1;stroke-linecap:round;stroke-linejoin:round;" /><path d="M 0.0,-0.0 L 129.6,-0.0 L 129.6,-129.6 L 0.0,-129.6 L 0.0,-0.0" style="stroke:black;fill:none;stroke-width:1.25;stroke-linecap:round;stroke-linejoin:round;" /><path d="M 0.0,-0.0 L 129.6,-0.0" style="stroke:black;fill:none;stroke-width:1.25;stroke-linecap:round;stroke-linejoin:round;" /><path d="M 0.0,-32.4 L 129.6,-32.4" style="stroke:black;fill:none;stroke-width:1.25;stroke-linecap:round;stroke-linejoin:round;" /><path d="M 0.0,-64.8 L 129.6,-64.8" style="stroke:black;fill:none;stroke-width:1.25;stroke-linecap:round;stroke-linejoin:round;" /><path d="M 0.0,-97.19999999999999 L 129.6,-97.19999999999999" style="stroke:black;fill:none;stroke-width:1.25;stroke-linecap:round;stroke-linejoin:round;" /><path d="M 0.0,-0.0 L 0.0,-129.6" style="stroke:black;fill:none;stroke-width:1.25;stroke-linecap:round;stroke-linejoin:round;" /><path d="M 32.4,-0.0 L 32.4,-129.6" style="stroke:black;fill:none;stroke-width:1.25;stroke-linecap:round;stroke-linejoin:round;" /><path d="M 64.8,-0.0 L 64.8,-129.6" style="stroke:black;fill:none;stroke-width:1.25;stroke-linecap:round;stroke-linejoin:round;" /><path d="M 97.19999999999999,-0.0 L 97.19999999999999,-129.6" style="stroke:black;fill:none;stroke-width:1.25;stroke-linecap:round;stroke-linejoin:round;" /><path d="M 0.0,-129.6 L -22.910259710444137,-152.51025971044413" style="stroke:black;fill:none;stroke-width:1.25;stroke-linecap:round;stroke-linejoin:round;" /><text x="0.0" y="-158.18269478283307" fill="black" font-size="12" font-family="sans" text-anchor="end" transform="rotate(0 0.0 -148.58269478283307)"><tspan x="0.0" dy="9.600000000000001">AB</tspan></text><text x="-17.182694782833103" y="-140.99999999999997" fill="black" font-size="12" font-family="sans" text-anchor="end" transform="rotate(0 -17.182694782833103 -131.39999999999998)"><tspan x="-17.182694782833103" dy="9.600000000000001">CD</tspan></text><text x="16.2" y="-140.72" fill="black" font-size="10" font-family="sans" text-anchor="middle" transform="rotate(0 16.2 -132.72)"><tspan x="16.2" dy="8.0">00</tspan></text><text x="48.599999999999994" y="-140.72" fill="black" font-size="10" font-family="sans" text-anchor="middle" transform="rotate(0 48.599999999999994 -132.72)"><tspan x="48.599999999999994" dy="8.0">01</tspan></text><text x="113.39999999999999" y="-140.72" fill="black" font-size="10" font-family="sans" text-anchor="middle" transform="rotate(0 113.39999999999999 -132.72)"><tspan x="113.39999999999999" dy="8.0">10</tspan></text><text x="81.0" y="-140.72" fill="black" font-size="10" font-family="sans" text-anchor="middle" transform="rotate(0 81.0 -132.72)"><tspan x="81.0" dy="8.0">11</tspan></text><text x="-3.24" y="-118.89999999999999" fill="black" font-size="10" font-family="sans" text-anchor="end" transform="rotate(0 -3.24 -114.89999999999999)"><tspan x="-3.24" dy="8.0">00</tspan></text><text x="-3.24" y="-86.5" fill="black" font-size="10" font-family="sans" text-anchor="end" transform="rotate(0 -3.24 -82.5)"><tspan x="-3.24" dy="8.0">01</tspan></text><text x="-3.24" y="-21.7" fill="black" font-size="10" font-family="sans" text-anchor="end" transform="rotate(0 -3.24 -17.7)"><tspan x="-3.24" dy="8.0">10</tspan></text><text x="-3.24" y="-54.099999999999994" fill="black" font-size="10" font-family="sans" text-anchor="end" transform="rotate(0 -3.24 -50.099999999999994)"><tspan x="-3.24" dy="8.0">11</tspan></text><text x="16.2" y="-120.0" fill="black" font-size="12" font-family="sans" text-anchor="middle" transform="rotate(0 16.2 -115.19999999999999)"><tspan x="16.2" dy="9.600000000000001">0</tspan></text><text x="16.2" y="-87.6" fill="black" font-size="12" font-family="sans" text-anchor="middle" transform="rotate(0 16.2 -82.79999999999998)"><tspan x="16.2" dy="9.600000000000001">1</tspan></text><text x="16.2" y="-22.8" fill="black" font-size="12" font-family="sans" text-anchor="middle" transform="rotate(0 16.2 -18.0)"><tspan x="16.2" dy="9.600000000000001">0</tspan></text><text x="16.2" y="-55.199999999999996" fill="black" font-size="12" font-family="sans" text-anchor="middle" transform="rotate(0 16.2 -50.4)"><tspan x="16.2" dy="9.600000000000001">1</tspan></text><text x="48.599999999999994" y="-120.0" fill="black" font-size="12" font-family="sans" text-anchor="middle" transform="rotate(0 48.599999999999994 -115.19999999999999)"><tspan x="48.599999999999994" dy="9.600000000000001">1</tspan></text><text x="48.599999999999994" y="-87.6" fill="black" font-size="12" font-family="sans" text-anchor="middle" transform="rotate(0 48.599999999999994 -82.79999999999998)"><tspan x="48.599999999999994" dy="9.600000000000001">1</tspan></text><text x="48.599999999999994" y="-22.8" fill="black" font-size="12" font-family="sans" text-anchor="middle" transform="rotate(0 48.599999999999994 -18.0)"><tspan x="48.599999999999994" dy="9.600000000000001">1</tspan></text><text x="48.599999999999994" y="-55.199999999999996" fill="black" font-size="12" font-family="sans" text-anchor="middle" transform="rotate(0 48.599999999999994 -50.4)"><tspan x="48.599999999999994" dy="9.600000000000001">1</tspan></text><text x="113.39999999999999" y="-120.0" fill="black" font-size="12" font-family="sans" text-anchor="middle" transform="rotate(0 113.39999999999999 -115.19999999999999)"><tspan x="113.39999999999999" dy="9.600000000000001">1</tspan></text><text x="113.39999999999999" y="-87.6" fill="black" font-size="12" font-family="sans" text-anchor="middle" transform="rotate(0 113.39999999999999 -82.79999999999998)"><tspan x="113.39999999999999" dy="9.600000000000001">1</tspan></text><text x="113.39999999999999" y="-22.8" fill="black" font-size="12" font-family="sans" text-anchor="middle" transform="rotate(0 113.39999999999999 -18.0)"><tspan x="113.39999999999999" dy="9.600000000000001">1</tspan></text><text x="113.39999999999999" y="-55.199999999999996" fill="black" font-size="12" font-family="sans" text-anchor="middle" transform="rotate(0 113.39999999999999 -50.4)"><tspan x="113.39999999999999" dy="9.600000000000001">1</tspan></text><text x="81.0" y="-120.0" fill="black" font-size="12" font-family="sans" text-anchor="middle" transform="rotate(0 81.0 -115.19999999999999)"><tspan x="81.0" dy="9.600000000000001">0</tspan></text><text x="81.0" y="-87.6" fill="black" font-size="12" font-family="sans" text-anchor="middle" transform="rotate(0 81.0 -82.79999999999998)"><tspan x="81.0" dy="9.600000000000001">0</tspan></text><text x="81.0" y="-22.8" fill="black" font-size="12" font-family="sans" text-anchor="middle" transform="rotate(0 81.0 -18.0)"><tspan x="81.0" dy="9.600000000000001">0</tspan></text><text x="81.0" y="-55.199999999999996" fill="black" font-size="12" font-family="sans" text-anchor="middle" transform="rotate(0 81.0 -50.4)"><tspan x="81.0" dy="9.600000000000001">0</tspan></text></svg>