<?xml version="1.0" encoding="utf-8" standalone="no"?>
<!DOCTYPE svg PUBLIC "-//W3C//DTD SVG 1.1//EN"
  "http://www.w3.org/Graphics/SVG/1.1/DTD/svg11.dtd">
<svg xmlns:xlink="http://www.w3.org/1999/xlink" width="180.761901pt" height="179.548101pt" viewBox="0 0 180.761901 179.548101" xmlns="http://www.w3.org/2000/svg" version="1.1">
 <metadata>
  <rdf:RDF xmlns:dc="http://purl.org/dc/elements/1.1/" xmlns:cc="http://creativecommons.org/ns#" xmlns:rdf="http://www.w3.org/1999/02/22-rdf-syntax-ns#">
   <cc:Work>
    <dc:type rdf:resource="http://purl.org/dc/dcmitype/StillImage"/>
    <dc:date>2022-01-14T13:06:24.540362</dc:date>
    <dc:format>image/svg+xml</dc:format>
    <dc:creator>
     <cc:Agent>
      <dc:title>Matplotlib v3.5.1, https://matplotlib.org/</dc:title>
     </cc:Agent>
    </dc:creator>
   </cc:Work>
  </rdf:RDF>
 </metadata>
 <defs>
  <style type="text/css">*{stroke-linejoin: round; stroke-linecap: butt}</style>
 </defs>
 <g id="figure_1">
  <g id="patch_1">
   <path d="M -0 179.548101 
L 180.761901 179.548101 
L 180.761901 0 
L -0 0 
L -0 179.548101 
z
" style="fill: none"/>
  </g>
  <g id="axes_1">
   <g id="patch_2">
    <path d="M 127.406901 166.228101 
L 127.528275 166.227138 
L 127.649619 166.224249 
L 127.770902 166.219436 
L 127.892094 166.212699 
L 128.013163 166.20404 
L 128.134079 166.193461 
L 128.254813 166.180965 
L 128.375333 166.166555 
L 128.495609 166.150235 
L 128.615611 166.132008 
L 128.735309 166.11188 
L 128.854673 166.089855 
L 128.973672 166.065939 
L 129.092276 166.040138 
L 129.210456 166.012459 
L 129.328183 165.982908 
L 129.445425 165.951493 
L 129.562155 165.918222 
L 129.678341 165.883103 
L 129.793956 165.846145 
L 129.908971 165.807357 
L 130.023355 165.766749 
L 130.13708 165.724332 
L 130.250118 165.680115 
L 130.362441 165.634111 
L 130.474019 165.58633 
L 130.584825 165.536785 
L 130.694832 165.485489 
L 130.80401 165.432453 
L 130.912334 165.377692 
L 131.019774 165.321219 
L 131.126306 165.263048 
L 131.231901 165.203195 
L 131.336533 165.141674 
L 131.440175 165.0785 
L 131.542803 165.01369 
L 131.644389 164.94726 
L 131.744909 164.879226 
L 131.844336 164.809607 
L 131.942646 164.738418 
L 132.039815 164.665679 
L 132.135817 164.591407 
L 132.230629 164.515621 
L 132.324226 164.438341 
L 132.416585 164.359585 
L 132.507683 164.279374 
L 132.597498 164.197727 
L 132.686005 164.114666 
L 132.773184 164.030211 
L 132.859011 163.944384 
L 132.943466 163.857205 
L 133.026527 163.768698 
L 133.108174 163.678883 
L 133.188385 163.587785 
L 133.267141 163.495426 
L 133.344421 163.401829 
L 133.420207 163.307017 
L 133.494479 163.211015 
L 133.567218 163.113846 
L 133.638407 163.015536 
L 133.708026 162.916109 
L 133.77606 162.815589 
L 133.84249 162.714003 
L 133.9073 162.611375 
L 133.970474 162.507733 
L 134.031995 162.403101 
L 134.091848 162.297506 
L 134.150019 162.190974 
L 134.206492 162.083534 
L 134.261253 161.97521 
L 134.314289 161.866032 
L 134.365585 161.756025 
L 134.41513 161.645219 
L 134.462911 161.533641 
L 134.508915 161.421318 
L 134.553132 161.30828 
L 134.595549 161.194555 
L 134.636157 161.080171 
L 134.674945 160.965156 
L 134.711903 160.849541 
L 134.747022 160.733355 
L 134.780293 160.616625 
L 134.811708 160.499383 
L 134.841259 160.381656 
L 134.868938 160.263476 
L 134.894739 160.144872 
L 134.918655 160.025873 
L 134.94068 159.906509 
L 134.960808 159.786811 
L 134.979035 159.666809 
L 134.995355 159.546533 
L 135.009765 159.426013 
L 135.022261 159.305279 
L 135.03284 159.184363 
L 135.041499 159.063294 
L 135.048236 158.942102 
L 135.053049 158.820819 
L 135.055938 158.699475 
L 135.056901 158.578101 
L 135.056901 57.598101 
L 135.055938 57.476726 
L 135.053049 57.355382 
L 135.048236 57.234099 
L 135.041499 57.112908 
L 135.03284 56.991838 
L 135.022261 56.870922 
L 135.009765 56.750188 
L 134.995355 56.629668 
L 134.979035 56.509392 
L 134.960808 56.38939 
L 134.94068 56.269692 
L 134.918655 56.150329 
L 134.894739 56.03133 
L 134.868938 55.912725 
L 134.841259 55.794545 
L 134.811708 55.676819 
L 134.780293 55.559576 
L 134.747022 55.442847 
L 134.711903 55.32666 
L 134.674945 55.211045 
L 134.636157 55.096031 
L 134.595549 54.981647 
L 134.553132 54.867921 
L 134.508915 54.754883 
L 134.462911 54.64256 
L 134.41513 54.530982 
L 134.365585 54.420176 
L 134.314289 54.31017 
L 134.261253 54.200991 
L 134.206492 54.092668 
L 134.150019 53.985227 
L 134.091848 53.878696 
L 134.031995 53.773101 
L 133.970474 53.668469 
L 133.9073 53.564826 
L 133.84249 53.462198 
L 133.77606 53.360612 
L 133.708026 53.260093 
L 133.638407 53.160665 
L 133.567218 53.062355 
L 133.494479 52.965187 
L 133.420207 52.869184 
L 133.344421 52.774373 
L 133.267141 52.680775 
L 133.188385 52.588416 
L 133.108174 52.497318 
L 133.026527 52.407504 
L 132.943466 52.318996 
L 132.859011 52.231818 
L 132.773184 52.14599 
L 132.686005 52.061535 
L 132.597498 51.978474 
L 132.507683 51.896828 
L 132.416585 51.816616 
L 132.324226 51.737861 
L 132.230629 51.66058 
L 132.135817 51.584794 
L 132.039815 51.510523 
L 131.942646 51.437783 
L 131.844336 51.366595 
L 131.744909 51.296975 
L 131.644389 51.228941 
L 131.542803 51.162511 
L 131.440175 51.097701 
L 131.336533 51.034528 
L 131.231901 50.973006 
L 131.126306 50.913153 
L 131.019774 50.854982 
L 130.912334 50.798509 
L 130.80401 50.743748 
L 130.694832 50.690713 
L 130.584825 50.639416 
L 130.474019 50.589871 
L 130.362441 50.54209 
L 130.250118 50.496086 
L 130.13708 50.451869 
L 130.023355 50.409452 
L 129.908971 50.368844 
L 129.793956 50.330057 
L 129.678341 50.293098 
L 129.562155 50.257979 
L 129.445425 50.224708 
L 129.328183 50.193293 
L 129.210456 50.163742 
L 129.092276 50.136063 
L 128.973672 50.110262 
L 128.854673 50.086346 
L 128.735309 50.064321 
L 128.615611 50.044193 
L 128.495609 50.025967 
L 128.375333 50.009646 
L 128.254813 49.995236 
L 128.134079 49.98274 
L 128.013163 49.972162 
L 127.892094 49.963503 
L 127.770902 49.956765 
L 127.649619 49.951952 
L 127.528275 49.949064 
L 127.406901 49.948101 
L 118.226901 49.948101 
L 118.105526 49.949064 
L 117.984182 49.951952 
L 117.862899 49.956765 
L 117.741708 49.963503 
L 117.620638 49.972162 
L 117.499722 49.98274 
L 117.378988 49.995236 
L 117.258468 50.009646 
L 117.138192 50.025967 
L 117.01819 50.044193 
L 116.898492 50.064321 
L 116.779129 50.086346 
L 116.66013 50.110262 
L 116.541525 50.136063 
L 116.423345 50.163742 
L 116.305619 50.193293 
L 116.188376 50.224708 
L 116.071647 50.257979 
L 115.95546 50.293098 
L 115.839845 50.330057 
L 115.724831 50.368844 
L 115.610447 50.409452 
L 115.496721 50.451869 
L 115.383683 50.496086 
L 115.27136 50.54209 
L 115.159782 50.589871 
L 115.048976 50.639416 
L 114.93897 50.690713 
L 114.829791 50.743748 
L 114.721468 50.798509 
L 114.614027 50.854982 
L 114.507496 50.913153 
L 114.401901 50.973006 
L 114.297269 51.034528 
L 114.193626 51.097701 
L 114.090998 51.162511 
L 113.989412 51.228941 
L 113.888893 51.296975 
L 113.789465 51.366595 
L 113.691155 51.437783 
L 113.593987 51.510523 
L 113.497984 51.584794 
L 113.403173 51.66058 
L 113.309575 51.737861 
L 113.217216 51.816616 
L 113.126118 51.896828 
L 113.036304 51.978474 
L 112.947796 52.061535 
L 112.860618 52.14599 
L 112.77479 52.231818 
L 112.690335 52.318996 
L 112.607274 52.407504 
L 112.525628 52.497318 
L 112.445416 52.588416 
L 112.366661 52.680775 
L 112.28938 52.774373 
L 112.213594 52.869184 
L 112.139323 52.965187 
L 112.066583 53.062355 
L 111.995395 53.160665 
L 111.925775 53.260093 
L 111.857741 53.360612 
L 111.791311 53.462198 
L 111.726501 53.564826 
L 111.663328 53.668469 
L 111.601806 53.773101 
L 111.541953 53.878696 
L 111.483782 53.985227 
L 111.427309 54.092668 
L 111.372548 54.200991 
L 111.319513 54.31017 
L 111.268216 54.420176 
L 111.218671 54.530982 
L 111.17089 54.64256 
L 111.124886 54.754883 
L 111.080669 54.867921 
L 111.038252 54.981647 
L 110.997644 55.096031 
L 110.958857 55.211045 
L 110.921898 55.32666 
L 110.886779 55.442847 
L 110.853508 55.559576 
L 110.822093 55.676819 
L 110.792542 55.794545 
L 110.764863 55.912725 
L 110.739062 56.03133 
L 110.715146 56.150329 
L 110.693121 56.269692 
L 110.672993 56.38939 
L 110.654767 56.509392 
L 110.638446 56.629668 
L 110.624036 56.750188 
L 110.61154 56.870922 
L 110.600962 56.991838 
L 110.592303 57.112908 
L 110.585565 57.234099 
L 110.580752 57.355382 
L 110.577864 57.476726 
L 110.576901 57.598101 
L 110.576901 158.578101 
L 110.577864 158.699475 
L 110.580752 158.820819 
L 110.585565 158.942102 
L 110.592303 159.063294 
L 110.600962 159.184363 
L 110.61154 159.305279 
L 110.624036 159.426013 
L 110.638446 159.546533 
L 110.654767 159.666809 
L 110.672993 159.786811 
L 110.693121 159.906509 
L 110.715146 160.025873 
L 110.739062 160.144872 
L 110.764863 160.263476 
L 110.792542 160.381656 
L 110.822093 160.499383 
L 110.853508 160.616625 
L 110.886779 160.733355 
L 110.921898 160.849541 
L 110.958857 160.965156 
L 110.997644 161.080171 
L 111.038252 161.194555 
L 111.080669 161.30828 
L 111.124886 161.421318 
L 111.17089 161.533641 
L 111.218671 161.645219 
L 111.268216 161.756025 
L 111.319513 161.866032 
L 111.372548 161.97521 
L 111.427309 162.083534 
L 111.483782 162.190974 
L 111.541953 162.297506 
L 111.601806 162.403101 
L 111.663328 162.507733 
L 111.726501 162.611375 
L 111.791311 162.714003 
L 111.857741 162.815589 
L 111.925775 162.916109 
L 111.995395 163.015536 
L 112.066583 163.113846 
L 112.139323 163.211015 
L 112.213594 163.307017 
L 112.28938 163.401829 
L 112.366661 163.495426 
L 112.445416 163.587785 
L 112.525628 163.678883 
L 112.607274 163.768698 
L 112.690335 163.857205 
L 112.77479 163.944384 
L 112.860618 164.030211 
L 112.947796 164.114666 
L 113.036304 164.197727 
L 113.126118 164.279374 
L 113.217216 164.359585 
L 113.309575 164.438341 
L 113.403173 164.515621 
L 113.497984 164.591407 
L 113.593987 164.665679 
L 113.691155 164.738418 
L 113.789465 164.809607 
L 113.888893 164.879226 
L 113.989412 164.94726 
L 114.090998 165.01369 
L 114.193626 165.0785 
L 114.297269 165.141674 
L 114.401901 165.203195 
L 114.507496 165.263048 
L 114.614027 165.321219 
L 114.721468 165.377692 
L 114.829791 165.432453 
L 114.93897 165.485489 
L 115.048976 165.536785 
L 115.159782 165.58633 
L 115.27136 165.634111 
L 115.383683 165.680115 
L 115.496721 165.724332 
L 115.610447 165.766749 
L 115.724831 165.807357 
L 115.839845 165.846145 
L 115.95546 165.883103 
L 116.071647 165.918222 
L 116.188376 165.951493 
L 116.305619 165.982908 
L 116.423345 166.012459 
L 116.541525 166.040138 
L 116.66013 166.065939 
L 116.779129 166.089855 
L 116.898492 166.11188 
L 117.01819 166.132008 
L 117.138192 166.150235 
L 117.258468 166.166555 
L 117.378988 166.180965 
L 117.499722 166.193461 
L 117.620638 166.20404 
L 117.741708 166.212699 
L 117.862899 166.219436 
L 117.984182 166.224249 
L 118.105526 166.227138 
L 118.226901 166.228101 
z
" clip-path="url(#pf12a24fb88)" style="fill: #ff0000; fill-opacity: 0.2; stroke: #ff0000; stroke-linecap: round"/>
   </g>
   <g id="patch_3">
    <path d="M 127.406901 135.628101 
L 127.528275 135.627138 
L 127.649619 135.624249 
L 127.770902 135.619436 
L 127.892094 135.612699 
L 128.013163 135.60404 
L 128.134079 135.593461 
L 128.254813 135.580965 
L 128.375333 135.566555 
L 128.495609 135.550235 
L 128.615611 135.532008 
L 128.735309 135.51188 
L 128.854673 135.489855 
L 128.973672 135.465939 
L 129.092276 135.440138 
L 129.210456 135.412459 
L 129.328183 135.382908 
L 129.445425 135.351493 
L 129.562155 135.318222 
L 129.678341 135.283103 
L 129.793956 135.246145 
L 129.908971 135.207357 
L 130.023355 135.166749 
L 130.13708 135.124332 
L 130.250118 135.080115 
L 130.362441 135.034111 
L 130.474019 134.98633 
L 130.584825 134.936785 
L 130.694832 134.885489 
L 130.80401 134.832453 
L 130.912334 134.777692 
L 131.019774 134.721219 
L 131.126306 134.663048 
L 131.231901 134.603195 
L 131.336533 134.541674 
L 131.440175 134.4785 
L 131.542803 134.41369 
L 131.644389 134.34726 
L 131.744909 134.279226 
L 131.844336 134.209607 
L 131.942646 134.138418 
L 132.039815 134.065679 
L 132.135817 133.991407 
L 132.230629 133.915621 
L 132.324226 133.838341 
L 132.416585 133.759585 
L 132.507683 133.679374 
L 132.597498 133.597727 
L 132.686005 133.514666 
L 132.773184 133.430211 
L 132.859011 133.344384 
L 132.943466 133.257205 
L 133.026527 133.168698 
L 133.108174 133.078883 
L 133.188385 132.987785 
L 133.267141 132.895426 
L 133.344421 132.801829 
L 133.420207 132.707017 
L 133.494479 132.611015 
L 133.567218 132.513846 
L 133.638407 132.415536 
L 133.708026 132.316109 
L 133.77606 132.215589 
L 133.84249 132.114003 
L 133.9073 132.011375 
L 133.970474 131.907733 
L 134.031995 131.803101 
L 134.091848 131.697506 
L 134.150019 131.590974 
L 134.206492 131.483534 
L 134.261253 131.37521 
L 134.314289 131.266032 
L 134.365585 131.156025 
L 134.41513 131.045219 
L 134.462911 130.933641 
L 134.508915 130.821318 
L 134.553132 130.70828 
L 134.595549 130.594555 
L 134.636157 130.480171 
L 134.674945 130.365156 
L 134.711903 130.249541 
L 134.747022 130.133355 
L 134.780293 130.016625 
L 134.811708 129.899383 
L 134.841259 129.781656 
L 134.868938 129.663476 
L 134.894739 129.544872 
L 134.918655 129.425873 
L 134.94068 129.306509 
L 134.960808 129.186811 
L 134.979035 129.066809 
L 134.995355 128.946533 
L 135.009765 128.826013 
L 135.022261 128.705279 
L 135.03284 128.584363 
L 135.041499 128.463294 
L 135.048236 128.342102 
L 135.053049 128.220819 
L 135.055938 128.099475 
L 135.056901 127.978101 
L 135.056901 88.198101 
L 135.055938 88.076726 
L 135.053049 87.955382 
L 135.048236 87.834099 
L 135.041499 87.712908 
L 135.03284 87.591838 
L 135.022261 87.470922 
L 135.009765 87.350188 
L 134.995355 87.229668 
L 134.979035 87.109392 
L 134.960808 86.98939 
L 134.94068 86.869692 
L 134.918655 86.750329 
L 134.894739 86.63133 
L 134.868938 86.512725 
L 134.841259 86.394545 
L 134.811708 86.276819 
L 134.780293 86.159576 
L 134.747022 86.042847 
L 134.711903 85.92666 
L 134.674945 85.811045 
L 134.636157 85.696031 
L 134.595549 85.581647 
L 134.553132 85.467921 
L 134.508915 85.354883 
L 134.462911 85.24256 
L 134.41513 85.130982 
L 134.365585 85.020176 
L 134.314289 84.91017 
L 134.261253 84.800991 
L 134.206492 84.692668 
L 134.150019 84.585227 
L 134.091848 84.478696 
L 134.031995 84.373101 
L 133.970474 84.268469 
L 133.9073 84.164826 
L 133.84249 84.062198 
L 133.77606 83.960612 
L 133.708026 83.860093 
L 133.638407 83.760665 
L 133.567218 83.662355 
L 133.494479 83.565187 
L 133.420207 83.469184 
L 133.344421 83.374373 
L 133.267141 83.280775 
L 133.188385 83.188416 
L 133.108174 83.097318 
L 133.026527 83.007504 
L 132.943466 82.918996 
L 132.859011 82.831818 
L 132.773184 82.74599 
L 132.686005 82.661535 
L 132.597498 82.578474 
L 132.507683 82.496828 
L 132.416585 82.416616 
L 132.324226 82.337861 
L 132.230629 82.26058 
L 132.135817 82.184794 
L 132.039815 82.110523 
L 131.942646 82.037783 
L 131.844336 81.966595 
L 131.744909 81.896975 
L 131.644389 81.828941 
L 131.542803 81.762511 
L 131.440175 81.697701 
L 131.336533 81.634528 
L 131.231901 81.573006 
L 131.126306 81.513153 
L 131.019774 81.454982 
L 130.912334 81.398509 
L 130.80401 81.343748 
L 130.694832 81.290713 
L 130.584825 81.239416 
L 130.474019 81.189871 
L 130.362441 81.14209 
L 130.250118 81.096086 
L 130.13708 81.051869 
L 130.023355 81.009452 
L 129.908971 80.968844 
L 129.793956 80.930057 
L 129.678341 80.893098 
L 129.562155 80.857979 
L 129.445425 80.824708 
L 129.328183 80.793293 
L 129.210456 80.763742 
L 129.092276 80.736063 
L 128.973672 80.710262 
L 128.854673 80.686346 
L 128.735309 80.664321 
L 128.615611 80.644193 
L 128.495609 80.625967 
L 128.375333 80.609646 
L 128.254813 80.595236 
L 128.134079 80.58274 
L 128.013163 80.572162 
L 127.892094 80.563503 
L 127.770902 80.556765 
L 127.649619 80.551952 
L 127.528275 80.549064 
L 127.406901 80.548101 
L 87.626901 80.548101 
L 87.505526 80.549064 
L 87.384182 80.551952 
L 87.262899 80.556765 
L 87.141708 80.563503 
L 87.020638 80.572162 
L 86.899722 80.58274 
L 86.778988 80.595236 
L 86.658468 80.609646 
L 86.538192 80.625967 
L 86.41819 80.644193 
L 86.298492 80.664321 
L 86.179129 80.686346 
L 86.06013 80.710262 
L 85.941525 80.736063 
L 85.823345 80.763742 
L 85.705619 80.793293 
L 85.588376 80.824708 
L 85.471647 80.857979 
L 85.35546 80.893098 
L 85.239845 80.930057 
L 85.124831 80.968844 
L 85.010447 81.009452 
L 84.896721 81.051869 
L 84.783683 81.096086 
L 84.67136 81.14209 
L 84.559782 81.189871 
L 84.448976 81.239416 
L 84.33897 81.290713 
L 84.229791 81.343748 
L 84.121468 81.398509 
L 84.014027 81.454982 
L 83.907496 81.513153 
L 83.801901 81.573006 
L 83.697269 81.634528 
L 83.593626 81.697701 
L 83.490998 81.762511 
L 83.389412 81.828941 
L 83.288893 81.896975 
L 83.189465 81.966595 
L 83.091155 82.037783 
L 82.993987 82.110523 
L 82.897984 82.184794 
L 82.803173 82.26058 
L 82.709575 82.337861 
L 82.617216 82.416616 
L 82.526118 82.496828 
L 82.436304 82.578474 
L 82.347796 82.661535 
L 82.260618 82.74599 
L 82.17479 82.831818 
L 82.090335 82.918996 
L 82.007274 83.007504 
L 81.925628 83.097318 
L 81.845416 83.188416 
L 81.766661 83.280775 
L 81.68938 83.374373 
L 81.613594 83.469184 
L 81.539323 83.565187 
L 81.466583 83.662355 
L 81.395395 83.760665 
L 81.325775 83.860093 
L 81.257741 83.960612 
L 81.191311 84.062198 
L 81.126501 84.164826 
L 81.063328 84.268469 
L 81.001806 84.373101 
L 80.941953 84.478696 
L 80.883782 84.585227 
L 80.827309 84.692668 
L 80.772548 84.800991 
L 80.719513 84.91017 
L 80.668216 85.020176 
L 80.618671 85.130982 
L 80.57089 85.24256 
L 80.524886 85.354883 
L 80.480669 85.467921 
L 80.438252 85.581647 
L 80.397644 85.696031 
L 80.358857 85.811045 
L 80.321898 85.92666 
L 80.286779 86.042847 
L 80.253508 86.159576 
L 80.222093 86.276819 
L 80.192542 86.394545 
L 80.164863 86.512725 
L 80.139062 86.63133 
L 80.115146 86.750329 
L 80.093121 86.869692 
L 80.072993 86.98939 
L 80.054767 87.109392 
L 80.038446 87.229668 
L 80.024036 87.350188 
L 80.01154 87.470922 
L 80.000962 87.591838 
L 79.992303 87.712908 
L 79.985565 87.834099 
L 79.980752 87.955382 
L 79.977864 88.076726 
L 79.976901 88.198101 
L 79.976901 127.978101 
L 79.977864 128.099475 
L 79.980752 128.220819 
L 79.985565 128.342102 
L 79.992303 128.463294 
L 80.000962 128.584363 
L 80.01154 128.705279 
L 80.024036 128.826013 
L 80.038446 128.946533 
L 80.054767 129.066809 
L 80.072993 129.186811 
L 80.093121 129.306509 
L 80.115146 129.425873 
L 80.139062 129.544872 
L 80.164863 129.663476 
L 80.192542 129.781656 
L 80.222093 129.899383 
L 80.253508 130.016625 
L 80.286779 130.133355 
L 80.321898 130.249541 
L 80.358857 130.365156 
L 80.397644 130.480171 
L 80.438252 130.594555 
L 80.480669 130.70828 
L 80.524886 130.821318 
L 80.57089 130.933641 
L 80.618671 131.045219 
L 80.668216 131.156025 
L 80.719513 131.266032 
L 80.772548 131.37521 
L 80.827309 131.483534 
L 80.883782 131.590974 
L 80.941953 131.697506 
L 81.001806 131.803101 
L 81.063328 131.907733 
L 81.126501 132.011375 
L 81.191311 132.114003 
L 81.257741 132.215589 
L 81.325775 132.316109 
L 81.395395 132.415536 
L 81.466583 132.513846 
L 81.539323 132.611015 
L 81.613594 132.707017 
L 81.68938 132.801829 
L 81.766661 132.895426 
L 81.845416 132.987785 
L 81.925628 133.078883 
L 82.007274 133.168698 
L 82.090335 133.257205 
L 82.17479 133.344384 
L 82.260618 133.430211 
L 82.347796 133.514666 
L 82.436304 133.597727 
L 82.526118 133.679374 
L 82.617216 133.759585 
L 82.709575 133.838341 
L 82.803173 133.915621 
L 82.897984 133.991407 
L 82.993987 134.065679 
L 83.091155 134.138418 
L 83.189465 134.209607 
L 83.288893 134.279226 
L 83.389412 134.34726 
L 83.490998 134.41369 
L 83.593626 134.4785 
L 83.697269 134.541674 
L 83.801901 134.603195 
L 83.907496 134.663048 
L 84.014027 134.721219 
L 84.121468 134.777692 
L 84.229791 134.832453 
L 84.33897 134.885489 
L 84.448976 134.936785 
L 84.559782 134.98633 
L 84.67136 135.034111 
L 84.783683 135.080115 
L 84.896721 135.124332 
L 85.010447 135.166749 
L 85.124831 135.207357 
L 85.239845 135.246145 
L 85.35546 135.283103 
L 85.471647 135.318222 
L 85.588376 135.351493 
L 85.705619 135.382908 
L 85.823345 135.412459 
L 85.941525 135.440138 
L 86.06013 135.465939 
L 86.179129 135.489855 
L 86.298492 135.51188 
L 86.41819 135.532008 
L 86.538192 135.550235 
L 86.658468 135.566555 
L 86.778988 135.580965 
L 86.899722 135.593461 
L 87.020638 135.60404 
L 87.141708 135.612699 
L 87.262899 135.619436 
L 87.384182 135.624249 
L 87.505526 135.627138 
L 87.626901 135.628101 
z
" clip-path="url(#pf12a24fb88)" style="fill: #0000ff; fill-opacity: 0.2; stroke: #0000ff; stroke-linecap: round"/>
   </g>
   <g id="patch_4">
    <path d="M 158.006901 74.428101 
L 158.128275 74.427138 
L 158.249619 74.424249 
L 158.370902 74.419436 
L 158.492094 74.412699 
L 158.613163 74.40404 
L 158.734079 74.393461 
L 158.854813 74.380965 
L 158.975333 74.366555 
L 159.095609 74.350235 
L 159.215611 74.332008 
L 159.335309 74.31188 
L 159.454673 74.289855 
L 159.573672 74.265939 
L 159.692276 74.240138 
L 159.810456 74.212459 
L 159.928183 74.182908 
L 160.045425 74.151493 
L 160.162155 74.118222 
L 160.278341 74.083103 
L 160.393956 74.046145 
L 160.508971 74.007357 
L 160.623355 73.966749 
L 160.73708 73.924332 
L 160.850118 73.880115 
L 160.962441 73.834111 
L 161.074019 73.78633 
L 161.184825 73.736785 
L 161.294832 73.685489 
L 161.40401 73.632453 
L 161.512334 73.577692 
L 161.619774 73.521219 
L 161.726306 73.463048 
L 161.831901 73.403195 
L 161.936533 73.341674 
L 162.040175 73.2785 
L 162.142803 73.21369 
L 162.244389 73.14726 
L 162.344909 73.079226 
L 162.444336 73.009607 
L 162.542646 72.938418 
L 162.639815 72.865679 
L 162.735817 72.791407 
L 162.830629 72.715621 
L 162.924226 72.638341 
L 163.016585 72.559585 
L 163.107683 72.479374 
L 163.197498 72.397727 
L 163.286005 72.314666 
L 163.373184 72.230211 
L 163.459011 72.144384 
L 163.543466 72.057205 
L 163.626527 71.968698 
L 163.708174 71.878883 
L 163.788385 71.787785 
L 163.867141 71.695426 
L 163.944421 71.601829 
L 164.020207 71.507017 
L 164.094479 71.411015 
L 164.167218 71.313846 
L 164.238407 71.215536 
L 164.308026 71.116109 
L 164.37606 71.015589 
L 164.44249 70.914003 
L 164.5073 70.811375 
L 164.570474 70.707733 
L 164.631995 70.603101 
L 164.691848 70.497506 
L 164.750019 70.390974 
L 164.806492 70.283534 
L 164.861253 70.17521 
L 164.914289 70.066032 
L 164.965585 69.956025 
L 165.01513 69.845219 
L 165.062911 69.733641 
L 165.108915 69.621318 
L 165.153132 69.50828 
L 165.195549 69.394555 
L 165.236157 69.280171 
L 165.274945 69.165156 
L 165.311903 69.049541 
L 165.347022 68.933355 
L 165.380293 68.816625 
L 165.411708 68.699383 
L 165.441259 68.581656 
L 165.468938 68.463476 
L 165.494739 68.344872 
L 165.518655 68.225873 
L 165.54068 68.106509 
L 165.560808 67.986811 
L 165.579035 67.866809 
L 165.595355 67.746533 
L 165.609765 67.626013 
L 165.622261 67.505279 
L 165.63284 67.384363 
L 165.641499 67.263294 
L 165.648236 67.142102 
L 165.653049 67.020819 
L 165.655938 66.899475 
L 165.656901 66.778101 
L 165.656901 57.598101 
L 165.655938 57.476726 
L 165.653049 57.355382 
L 165.648236 57.234099 
L 165.641499 57.112908 
L 165.63284 56.991838 
L 165.622261 56.870922 
L 165.609765 56.750188 
L 165.595355 56.629668 
L 165.579035 56.509392 
L 165.560808 56.38939 
L 165.54068 56.269692 
L 165.518655 56.150329 
L 165.494739 56.03133 
L 165.468938 55.912725 
L 165.441259 55.794545 
L 165.411708 55.676819 
L 165.380293 55.559576 
L 165.347022 55.442847 
L 165.311903 55.32666 
L 165.274945 55.211045 
L 165.236157 55.096031 
L 165.195549 54.981647 
L 165.153132 54.867921 
L 165.108915 54.754883 
L 165.062911 54.64256 
L 165.01513 54.530982 
L 164.965585 54.420176 
L 164.914289 54.31017 
L 164.861253 54.200991 
L 164.806492 54.092668 
L 164.750019 53.985227 
L 164.691848 53.878696 
L 164.631995 53.773101 
L 164.570474 53.668469 
L 164.5073 53.564826 
L 164.44249 53.462198 
L 164.37606 53.360612 
L 164.308026 53.260093 
L 164.238407 53.160665 
L 164.167218 53.062355 
L 164.094479 52.965187 
L 164.020207 52.869184 
L 163.944421 52.774373 
L 163.867141 52.680775 
L 163.788385 52.588416 
L 163.708174 52.497318 
L 163.626527 52.407504 
L 163.543466 52.318996 
L 163.459011 52.231818 
L 163.373184 52.14599 
L 163.286005 52.061535 
L 163.197498 51.978474 
L 163.107683 51.896828 
L 163.016585 51.816616 
L 162.924226 51.737861 
L 162.830629 51.66058 
L 162.735817 51.584794 
L 162.639815 51.510523 
L 162.542646 51.437783 
L 162.444336 51.366595 
L 162.344909 51.296975 
L 162.244389 51.228941 
L 162.142803 51.162511 
L 162.040175 51.097701 
L 161.936533 51.034528 
L 161.831901 50.973006 
L 161.726306 50.913153 
L 161.619774 50.854982 
L 161.512334 50.798509 
L 161.40401 50.743748 
L 161.294832 50.690713 
L 161.184825 50.639416 
L 161.074019 50.589871 
L 160.962441 50.54209 
L 160.850118 50.496086 
L 160.73708 50.451869 
L 160.623355 50.409452 
L 160.508971 50.368844 
L 160.393956 50.330057 
L 160.278341 50.293098 
L 160.162155 50.257979 
L 160.045425 50.224708 
L 159.928183 50.193293 
L 159.810456 50.163742 
L 159.692276 50.136063 
L 159.573672 50.110262 
L 159.454673 50.086346 
L 159.335309 50.064321 
L 159.215611 50.044193 
L 159.095609 50.025967 
L 158.975333 50.009646 
L 158.854813 49.995236 
L 158.734079 49.98274 
L 158.613163 49.972162 
L 158.492094 49.963503 
L 158.370902 49.956765 
L 158.249619 49.951952 
L 158.128275 49.949064 
L 158.006901 49.948101 
L 118.226901 49.948101 
L 118.105526 49.949064 
L 117.984182 49.951952 
L 117.862899 49.956765 
L 117.741708 49.963503 
L 117.620638 49.972162 
L 117.499722 49.98274 
L 117.378988 49.995236 
L 117.258468 50.009646 
L 117.138192 50.025967 
L 117.01819 50.044193 
L 116.898492 50.064321 
L 116.779129 50.086346 
L 116.66013 50.110262 
L 116.541525 50.136063 
L 116.423345 50.163742 
L 116.305619 50.193293 
L 116.188376 50.224708 
L 116.071647 50.257979 
L 115.95546 50.293098 
L 115.839845 50.330057 
L 115.724831 50.368844 
L 115.610447 50.409452 
L 115.496721 50.451869 
L 115.383683 50.496086 
L 115.27136 50.54209 
L 115.159782 50.589871 
L 115.048976 50.639416 
L 114.93897 50.690713 
L 114.829791 50.743748 
L 114.721468 50.798509 
L 114.614027 50.854982 
L 114.507496 50.913153 
L 114.401901 50.973006 
L 114.297269 51.034528 
L 114.193626 51.097701 
L 114.090998 51.162511 
L 113.989412 51.228941 
L 113.888893 51.296975 
L 113.789465 51.366595 
L 113.691155 51.437783 
L 113.593987 51.510523 
L 113.497984 51.584794 
L 113.403173 51.66058 
L 113.309575 51.737861 
L 113.217216 51.816616 
L 113.126118 51.896828 
L 113.036304 51.978474 
L 112.947796 52.061535 
L 112.860618 52.14599 
L 112.77479 52.231818 
L 112.690335 52.318996 
L 112.607274 52.407504 
L 112.525628 52.497318 
L 112.445416 52.588416 
L 112.366661 52.680775 
L 112.28938 52.774373 
L 112.213594 52.869184 
L 112.139323 52.965187 
L 112.066583 53.062355 
L 111.995395 53.160665 
L 111.925775 53.260093 
L 111.857741 53.360612 
L 111.791311 53.462198 
L 111.726501 53.564826 
L 111.663328 53.668469 
L 111.601806 53.773101 
L 111.541953 53.878696 
L 111.483782 53.985227 
L 111.427309 54.092668 
L 111.372548 54.200991 
L 111.319513 54.31017 
L 111.268216 54.420176 
L 111.218671 54.530982 
L 111.17089 54.64256 
L 111.124886 54.754883 
L 111.080669 54.867921 
L 111.038252 54.981647 
L 110.997644 55.096031 
L 110.958857 55.211045 
L 110.921898 55.32666 
L 110.886779 55.442847 
L 110.853508 55.559576 
L 110.822093 55.676819 
L 110.792542 55.794545 
L 110.764863 55.912725 
L 110.739062 56.03133 
L 110.715146 56.150329 
L 110.693121 56.269692 
L 110.672993 56.38939 
L 110.654767 56.509392 
L 110.638446 56.629668 
L 110.624036 56.750188 
L 110.61154 56.870922 
L 110.600962 56.991838 
L 110.592303 57.112908 
L 110.585565 57.234099 
L 110.580752 57.355382 
L 110.577864 57.476726 
L 110.576901 57.598101 
L 110.576901 66.778101 
L 110.577864 66.899475 
L 110.580752 67.020819 
L 110.585565 67.142102 
L 110.592303 67.263294 
L 110.600962 67.384363 
L 110.61154 67.505279 
L 110.624036 67.626013 
L 110.638446 67.746533 
L 110.654767 67.866809 
L 110.672993 67.986811 
L 110.693121 68.106509 
L 110.715146 68.225873 
L 110.739062 68.344872 
L 110.764863 68.463476 
L 110.792542 68.581656 
L 110.822093 68.699383 
L 110.853508 68.816625 
L 110.886779 68.933355 
L 110.921898 69.049541 
L 110.958857 69.165156 
L 110.997644 69.280171 
L 111.038252 69.394555 
L 111.080669 69.50828 
L 111.124886 69.621318 
L 111.17089 69.733641 
L 111.218671 69.845219 
L 111.268216 69.956025 
L 111.319513 70.066032 
L 111.372548 70.17521 
L 111.427309 70.283534 
L 111.483782 70.390974 
L 111.541953 70.497506 
L 111.601806 70.603101 
L 111.663328 70.707733 
L 111.726501 70.811375 
L 111.791311 70.914003 
L 111.857741 71.015589 
L 111.925775 71.116109 
L 111.995395 71.215536 
L 112.066583 71.313846 
L 112.139323 71.411015 
L 112.213594 71.507017 
L 112.28938 71.601829 
L 112.366661 71.695426 
L 112.445416 71.787785 
L 112.525628 71.878883 
L 112.607274 71.968698 
L 112.690335 72.057205 
L 112.77479 72.144384 
L 112.860618 72.230211 
L 112.947796 72.314666 
L 113.036304 72.397727 
L 113.126118 72.479374 
L 113.217216 72.559585 
L 113.309575 72.638341 
L 113.403173 72.715621 
L 113.497984 72.791407 
L 113.593987 72.865679 
L 113.691155 72.938418 
L 113.789465 73.009607 
L 113.888893 73.079226 
L 113.989412 73.14726 
L 114.090998 73.21369 
L 114.193626 73.2785 
L 114.297269 73.341674 
L 114.401901 73.403195 
L 114.507496 73.463048 
L 114.614027 73.521219 
L 114.721468 73.577692 
L 114.829791 73.632453 
L 114.93897 73.685489 
L 115.048976 73.736785 
L 115.159782 73.78633 
L 115.27136 73.834111 
L 115.383683 73.880115 
L 115.496721 73.924332 
L 115.610447 73.966749 
L 115.724831 74.007357 
L 115.839845 74.046145 
L 115.95546 74.083103 
L 116.071647 74.118222 
L 116.188376 74.151493 
L 116.305619 74.182908 
L 116.423345 74.212459 
L 116.541525 74.240138 
L 116.66013 74.265939 
L 116.779129 74.289855 
L 116.898492 74.31188 
L 117.01819 74.332008 
L 117.138192 74.350235 
L 117.258468 74.366555 
L 117.378988 74.380965 
L 117.499722 74.393461 
L 117.620638 74.40404 
L 117.741708 74.412699 
L 117.862899 74.419436 
L 117.984182 74.424249 
L 118.105526 74.427138 
L 118.226901 74.428101 
z
" clip-path="url(#pf12a24fb88)" style="fill: #00ff00; fill-opacity: 0.2; stroke: #008000; stroke-linecap: round"/>
   </g>
   <g id="line2d_1">
    <path d="M 46.316901 169.288101 
L 168.716901 169.288101 
L 168.716901 46.888101 
L 46.316901 46.888101 
L 46.316901 169.288101 
" clip-path="url(#pf12a24fb88)" style="fill: none; stroke: #000000; stroke-width: 1.25; stroke-linecap: round"/>
   </g>
   <g id="line2d_2">
    <path d="M 46.316901 169.288101 
L 168.716901 169.288101 
" clip-path="url(#pf12a24fb88)" style="fill: none; stroke: #000000; stroke-width: 1.25; stroke-linecap: round"/>
   </g>
   <g id="line2d_3">
    <path d="M 46.316901 138.688101 
L 168.716901 138.688101 
" clip-path="url(#pf12a24fb88)" style="fill: none; stroke: #000000; stroke-width: 1.25; stroke-linecap: round"/>
   </g>
   <g id="line2d_4">
    <path d="M 46.316901 108.088101 
L 168.716901 108.088101 
" clip-path="url(#pf12a24fb88)" style="fill: none; stroke: #000000; stroke-width: 1.25; stroke-linecap: round"/>
   </g>
   <g id="line2d_5">
    <path d="M 46.316901 77.488101 
L 168.716901 77.488101 
" clip-path="url(#pf12a24fb88)" style="fill: none; stroke: #000000; stroke-width: 1.25; stroke-linecap: round"/>
   </g>
   <g id="line2d_6">
    <path d="M 46.316901 169.288101 
L 46.316901 46.888101 
" clip-path="url(#pf12a24fb88)" style="fill: none; stroke: #000000; stroke-width: 1.25; stroke-linecap: round"/>
   </g>
   <g id="line2d_7">
    <path d="M 76.916901 169.288101 
L 76.916901 46.888101 
" clip-path="url(#pf12a24fb88)" style="fill: none; stroke: #000000; stroke-width: 1.25; stroke-linecap: round"/>
   </g>
   <g id="line2d_8">
    <path d="M 107.516901 169.288101 
L 107.516901 46.888101 
" clip-path="url(#pf12a24fb88)" style="fill: none; stroke: #000000; stroke-width: 1.25; stroke-linecap: round"/>
   </g>
   <g id="line2d_9">
    <path d="M 138.116901 169.288101 
L 138.116901 46.888101 
" clip-path="url(#pf12a24fb88)" style="fill: none; stroke: #000000; stroke-width: 1.25; stroke-linecap: round"/>
   </g>
   <g id="line2d_10">
    <path d="M 46.316901 46.888101 
L 24.679433 25.250633 
" clip-path="url(#pf12a24fb88)" style="fill: none; stroke: #000000; stroke-width: 1.25; stroke-linecap: round"/>
   </g>
   <g id="text_1">
    <g clip-path="url(#pf12a24fb88)">
     <!-- AB -->
     <g transform="translate(31.93026 28.476328)scale(0.105 -0.105)">
      <defs>
       <path id="DejaVuSans-41" d="M 2188 4044 
L 1331 1722 
L 3047 1722 
L 2188 4044 
z
M 1831 4666 
L 2547 4666 
L 4325 0 
L 3669 0 
L 3244 1197 
L 1141 1197 
L 716 0 
L 50 0 
L 1831 4666 
z
" transform="scale(0.015625)"/>
       <path id="DejaVuSans-42" d="M 1259 2228 
L 1259 519 
L 2272 519 
Q 2781 519 3026 730 
Q 3272 941 3272 1375 
Q 3272 1813 3026 2020 
Q 2781 2228 2272 2228 
L 1259 2228 
z
M 1259 4147 
L 1259 2741 
L 2194 2741 
Q 2656 2741 2882 2914 
Q 3109 3088 3109 3444 
Q 3109 3797 2882 3972 
Q 2656 4147 2194 4147 
L 1259 4147 
z
M 628 4666 
L 2241 4666 
Q 2963 4666 3353 4366 
Q 3744 4066 3744 3513 
Q 3744 3084 3544 2831 
Q 3344 2578 2956 2516 
Q 3422 2416 3680 2098 
Q 3938 1781 3938 1306 
Q 3938 681 3513 340 
Q 3088 0 2303 0 
L 628 0 
L 628 4666 
z
" transform="scale(0.015625)"/>
      </defs>
      <use xlink:href="#DejaVuSans-41"/>
      <use xlink:href="#DejaVuSans-42" x="68.408203"/>
     </g>
    </g>
   </g>
   <g id="text_2">
    <g clip-path="url(#pf12a24fb88)">
     <!-- CD -->
     <g transform="translate(14.671847 44.704429)scale(0.105 -0.105)">
      <defs>
       <path id="DejaVuSans-43" d="M 4122 4306 
L 4122 3641 
Q 3803 3938 3442 4084 
Q 3081 4231 2675 4231 
Q 1875 4231 1450 3742 
Q 1025 3253 1025 2328 
Q 1025 1406 1450 917 
Q 1875 428 2675 428 
Q 3081 428 3442 575 
Q 3803 722 4122 1019 
L 4122 359 
Q 3791 134 3420 21 
Q 3050 -91 2638 -91 
Q 1578 -91 968 557 
Q 359 1206 359 2328 
Q 359 3453 968 4101 
Q 1578 4750 2638 4750 
Q 3056 4750 3426 4639 
Q 3797 4528 4122 4306 
z
" transform="scale(0.015625)"/>
       <path id="DejaVuSans-44" d="M 1259 4147 
L 1259 519 
L 2022 519 
Q 2988 519 3436 956 
Q 3884 1394 3884 2338 
Q 3884 3275 3436 3711 
Q 2988 4147 2022 4147 
L 1259 4147 
z
M 628 4666 
L 1925 4666 
Q 3281 4666 3915 4102 
Q 4550 3538 4550 2338 
Q 4550 1131 3912 565 
Q 3275 0 1925 0 
L 628 0 
L 628 4666 
z
" transform="scale(0.015625)"/>
      </defs>
      <use xlink:href="#DejaVuSans-43"/>
      <use xlink:href="#DejaVuSans-44" x="69.824219"/>
     </g>
    </g>
   </g>
   <g id="text_3">
    <g clip-path="url(#pf12a24fb88)">
     <!-- 00 -->
     <g transform="translate(56.208776 43.590366)scale(0.085 -0.085)">
      <defs>
       <path id="DejaVuSans-30" d="M 2034 4250 
Q 1547 4250 1301 3770 
Q 1056 3291 1056 2328 
Q 1056 1369 1301 889 
Q 1547 409 2034 409 
Q 2525 409 2770 889 
Q 3016 1369 3016 2328 
Q 3016 3291 2770 3770 
Q 2525 4250 2034 4250 
z
M 2034 4750 
Q 2819 4750 3233 4129 
Q 3647 3509 3647 2328 
Q 3647 1150 3233 529 
Q 2819 -91 2034 -91 
Q 1250 -91 836 529 
Q 422 1150 422 2328 
Q 422 3509 836 4129 
Q 1250 4750 2034 4750 
z
" transform="scale(0.015625)"/>
      </defs>
      <use xlink:href="#DejaVuSans-30"/>
      <use xlink:href="#DejaVuSans-30" x="63.623047"/>
     </g>
    </g>
   </g>
   <g id="text_4">
    <g clip-path="url(#pf12a24fb88)">
     <!-- 01 -->
     <g transform="translate(86.808776 43.590366)scale(0.085 -0.085)">
      <defs>
       <path id="DejaVuSans-31" d="M 794 531 
L 1825 531 
L 1825 4091 
L 703 3866 
L 703 4441 
L 1819 4666 
L 2450 4666 
L 2450 531 
L 3481 531 
L 3481 0 
L 794 0 
L 794 531 
z
" transform="scale(0.015625)"/>
      </defs>
      <use xlink:href="#DejaVuSans-30"/>
      <use xlink:href="#DejaVuSans-31" x="63.623047"/>
     </g>
    </g>
   </g>
   <g id="text_5">
    <g clip-path="url(#pf12a24fb88)">
     <!-- 10 -->
     <g transform="translate(148.008776 43.590366)scale(0.085 -0.085)">
      <use xlink:href="#DejaVuSans-31"/>
      <use xlink:href="#DejaVuSans-30" x="63.623047"/>
     </g>
    </g>
   </g>
   <g id="text_6">
    <g clip-path="url(#pf12a24fb88)">
     <!-- 11 -->
     <g transform="translate(117.408776 43.590366)scale(0.085 -0.085)">
      <use xlink:href="#DejaVuSans-31"/>
      <use xlink:href="#DejaVuSans-31" x="63.623047"/>
     </g>
    </g>
   </g>
   <g id="text_7">
    <g clip-path="url(#pf12a24fb88)">
     <!-- 00 -->
     <g transform="translate(32.440651 64.533569)scale(0.085 -0.085)">
      <use xlink:href="#DejaVuSans-30"/>
      <use xlink:href="#DejaVuSans-30" x="63.623047"/>
     </g>
    </g>
   </g>
   <g id="text_8">
    <g clip-path="url(#pf12a24fb88)">
     <!-- 01 -->
     <g transform="translate(32.440651 95.133569)scale(0.085 -0.085)">
      <use xlink:href="#DejaVuSans-30"/>
      <use xlink:href="#DejaVuSans-31" x="63.623047"/>
     </g>
    </g>
   </g>
   <g id="text_9">
    <g clip-path="url(#pf12a24fb88)">
     <!-- 10 -->
     <g transform="translate(32.440651 156.333569)scale(0.085 -0.085)">
      <use xlink:href="#DejaVuSans-31"/>
      <use xlink:href="#DejaVuSans-30" x="63.623047"/>
     </g>
    </g>
   </g>
   <g id="text_10">
    <g clip-path="url(#pf12a24fb88)">
     <!-- 11 -->
     <g transform="translate(32.440651 125.733569)scale(0.085 -0.085)">
      <use xlink:href="#DejaVuSans-31"/>
      <use xlink:href="#DejaVuSans-31" x="63.623047"/>
     </g>
    </g>
   </g>
   <g id="text_11">
    <g clip-path="url(#pf12a24fb88)">
     <!-- 0 -->
     <g transform="translate(58.276588 65.085444)scale(0.105 -0.105)">
      <use xlink:href="#DejaVuSans-30"/>
     </g>
    </g>
   </g>
   <g id="text_12">
    <g clip-path="url(#pf12a24fb88)">
     <!-- 0 -->
     <g transform="translate(58.276588 95.685444)scale(0.105 -0.105)">
      <use xlink:href="#DejaVuSans-30"/>
     </g>
    </g>
   </g>
   <g id="text_13">
    <g clip-path="url(#pf12a24fb88)">
     <!-- X -->
     <g transform="translate(58.020651 156.885444)scale(0.105 -0.105)">
      <defs>
       <path id="DejaVuSans-58" d="M 403 4666 
L 1081 4666 
L 2241 2931 
L 3406 4666 
L 4084 4666 
L 2584 2425 
L 4184 0 
L 3506 0 
L 2194 1984 
L 872 0 
L 191 0 
L 1856 2491 
L 403 4666 
z
" transform="scale(0.015625)"/>
      </defs>
      <use xlink:href="#DejaVuSans-58"/>
     </g>
    </g>
   </g>
   <g id="text_14">
    <g clip-path="url(#pf12a24fb88)">
     <!-- 0 -->
     <g transform="translate(58.276588 126.285444)scale(0.105 -0.105)">
      <use xlink:href="#DejaVuSans-30"/>
     </g>
    </g>
   </g>
   <g id="text_15">
    <g clip-path="url(#pf12a24fb88)">
     <!-- 0 -->
     <g transform="translate(88.876588 65.085444)scale(0.105 -0.105)">
      <use xlink:href="#DejaVuSans-30"/>
     </g>
    </g>
   </g>
   <g id="text_16">
    <g clip-path="url(#pf12a24fb88)">
     <!-- 1 -->
     <g transform="translate(88.876588 95.685444)scale(0.105 -0.105)">
      <use xlink:href="#DejaVuSans-31"/>
     </g>
    </g>
   </g>
   <g id="text_17">
    <g clip-path="url(#pf12a24fb88)">
     <!-- 0 -->
     <g transform="translate(88.876588 156.885444)scale(0.105 -0.105)">
      <use xlink:href="#DejaVuSans-30"/>
     </g>
    </g>
   </g>
   <g id="text_18">
    <g clip-path="url(#pf12a24fb88)">
     <!-- X -->
     <g transform="translate(88.620651 126.285444)scale(0.105 -0.105)">
      <use xlink:href="#DejaVuSans-58"/>
     </g>
    </g>
   </g>
   <g id="text_19">
    <g clip-path="url(#pf12a24fb88)">
     <!-- 1 -->
     <g transform="translate(150.076588 65.085444)scale(0.105 -0.105)">
      <use xlink:href="#DejaVuSans-31"/>
     </g>
    </g>
   </g>
   <g id="text_20">
    <g clip-path="url(#pf12a24fb88)">
     <!-- 0 -->
     <g transform="translate(150.076588 95.685444)scale(0.105 -0.105)">
      <use xlink:href="#DejaVuSans-30"/>
     </g>
    </g>
   </g>
   <g id="text_21">
    <g clip-path="url(#pf12a24fb88)">
     <!-- 0 -->
     <g transform="translate(150.076588 156.885444)scale(0.105 -0.105)">
      <use xlink:href="#DejaVuSans-30"/>
     </g>
    </g>
   </g>
   <g id="text_22">
    <g clip-path="url(#pf12a24fb88)">
     <!-- 0 -->
     <g transform="translate(150.076588 126.285444)scale(0.105 -0.105)">
      <use xlink:href="#DejaVuSans-30"/>
     </g>
    </g>
   </g>
   <g id="text_23">
    <g clip-path="url(#pf12a24fb88)">
     <!-- 1 -->
     <g transform="translate(119.476588 65.085444)scale(0.105 -0.105)">
      <use xlink:href="#DejaVuSans-31"/>
     </g>
    </g>
   </g>
   <g id="text_24">
    <g clip-path="url(#pf12a24fb88)">
     <!-- 1 -->
     <g transform="translate(119.476588 95.685444)scale(0.105 -0.105)">
      <use xlink:href="#DejaVuSans-31"/>
     </g>
    </g>
   </g>
   <g id="text_25">
    <g clip-path="url(#pf12a24fb88)">
     <!-- 1 -->
     <g transform="translate(119.476588 156.885444)scale(0.105 -0.105)">
      <use xlink:href="#DejaVuSans-31"/>
     </g>
    </g>
   </g>
   <g id="text_26">
    <g clip-path="url(#pf12a24fb88)">
     <!-- 1 -->
     <g transform="translate(119.476588 126.285444)scale(0.105 -0.105)">
      <use xlink:href="#DejaVuSans-31"/>
     </g>
    </g>
   </g>
  </g>
 </g>
 <defs>
  <clipPath id="pf12a24fb88">
   <rect x="7.2" y="7.2" width="166.361901" height="165.148101"/>
  </clipPath>
 </defs>
</svg>
