<?xml version="1.0" encoding="utf-8" standalone="no"?>
<!DOCTYPE svg PUBLIC "-//W3C//DTD SVG 1.1//EN"
  "http://www.w3.org/Graphics/SVG/1.1/DTD/svg11.dtd">
<svg xmlns:xlink="http://www.w3.org/1999/xlink" width="170.725101pt" height="118.348101pt" viewBox="0 0 170.725101 118.348101" xmlns="http://www.w3.org/2000/svg" version="1.1">
 <metadata>
  <rdf:RDF xmlns:dc="http://purl.org/dc/elements/1.1/" xmlns:cc="http://creativecommons.org/ns#" xmlns:rdf="http://www.w3.org/1999/02/22-rdf-syntax-ns#">
   <cc:Work>
    <dc:type rdf:resource="http://purl.org/dc/dcmitype/StillImage"/>
    <dc:date>2022-01-18T15:05:24.142760</dc:date>
    <dc:format>image/svg+xml</dc:format>
    <dc:creator>
     <cc:Agent>
      <dc:title>Matplotlib v3.5.1, https://matplotlib.org/</dc:title>
     </cc:Agent>
    </dc:creator>
   </cc:Work>
  </rdf:RDF>
 </metadata>
 <defs>
  <style type="text/css">*{stroke-linejoin: round; stroke-linecap: butt}</style>
 </defs>
 <g id="figure_1">
  <g id="patch_1">
   <path d="M 0 118.348101 
L 170.725101 118.348101 
L 170.725101 0 
L 0 0 
L 0 118.348101 
z
" style="fill: none"/>
  </g>
  <g id="axes_1">
   <g id="patch_2">
    <path d="M 117.370101 105.028101 
L 117.491475 105.027138 
L 117.612819 105.024249 
L 117.734102 105.019436 
L 117.855294 105.012699 
L 117.976363 105.00404 
L 118.097279 104.993461 
L 118.218013 104.980965 
L 118.338533 104.966555 
L 118.458809 104.950235 
L 118.578811 104.932008 
L 118.698509 104.91188 
L 118.817873 104.889855 
L 118.936872 104.865939 
L 119.055476 104.840138 
L 119.173656 104.812459 
L 119.291383 104.782908 
L 119.408625 104.751493 
L 119.525355 104.718222 
L 119.641541 104.683103 
L 119.757156 104.646145 
L 119.872171 104.607357 
L 119.986555 104.566749 
L 120.10028 104.524332 
L 120.213318 104.480115 
L 120.325641 104.434111 
L 120.437219 104.38633 
L 120.548025 104.336785 
L 120.658032 104.285489 
L 120.76721 104.232453 
L 120.875534 104.177692 
L 120.982974 104.121219 
L 121.089506 104.063048 
L 121.195101 104.003195 
L 121.299733 103.941674 
L 121.403375 103.8785 
L 121.506003 103.81369 
L 121.607589 103.74726 
L 121.708109 103.679226 
L 121.807536 103.609607 
L 121.905846 103.538418 
L 122.003015 103.465679 
L 122.099017 103.391407 
L 122.193829 103.315621 
L 122.287426 103.238341 
L 122.379785 103.159585 
L 122.470883 103.079374 
L 122.560698 102.997727 
L 122.649205 102.914666 
L 122.736384 102.830211 
L 122.822211 102.744384 
L 122.906666 102.657205 
L 122.989727 102.568698 
L 123.071374 102.478883 
L 123.151585 102.387785 
L 123.230341 102.295426 
L 123.307621 102.201829 
L 123.383407 102.107017 
L 123.457679 102.011015 
L 123.530418 101.913846 
L 123.601607 101.815536 
L 123.671226 101.716109 
L 123.73926 101.615589 
L 123.80569 101.514003 
L 123.8705 101.411375 
L 123.933674 101.307733 
L 123.995195 101.203101 
L 124.055048 101.097506 
L 124.113219 100.990974 
L 124.169692 100.883534 
L 124.224453 100.77521 
L 124.277489 100.666032 
L 124.328785 100.556025 
L 124.37833 100.445219 
L 124.426111 100.333641 
L 124.472115 100.221318 
L 124.516332 100.10828 
L 124.558749 99.994555 
L 124.599357 99.880171 
L 124.638145 99.765156 
L 124.675103 99.649541 
L 124.710222 99.533355 
L 124.743493 99.416625 
L 124.774908 99.299383 
L 124.804459 99.181656 
L 124.832138 99.063476 
L 124.857939 98.944872 
L 124.881855 98.825873 
L 124.90388 98.706509 
L 124.924008 98.586811 
L 124.942235 98.466809 
L 124.958555 98.346533 
L 124.972965 98.226013 
L 124.985461 98.105279 
L 124.99604 97.984363 
L 125.004699 97.863294 
L 125.011436 97.742102 
L 125.016249 97.620819 
L 125.019138 97.499475 
L 125.020101 97.378101 
L 125.020101 57.598101 
L 125.019138 57.476726 
L 125.016249 57.355382 
L 125.011436 57.234099 
L 125.004699 57.112908 
L 124.99604 56.991838 
L 124.985461 56.870922 
L 124.972965 56.750188 
L 124.958555 56.629668 
L 124.942235 56.509392 
L 124.924008 56.38939 
L 124.90388 56.269692 
L 124.881855 56.150329 
L 124.857939 56.03133 
L 124.832138 55.912725 
L 124.804459 55.794545 
L 124.774908 55.676819 
L 124.743493 55.559576 
L 124.710222 55.442847 
L 124.675103 55.32666 
L 124.638145 55.211045 
L 124.599357 55.096031 
L 124.558749 54.981647 
L 124.516332 54.867921 
L 124.472115 54.754883 
L 124.426111 54.64256 
L 124.37833 54.530982 
L 124.328785 54.420176 
L 124.277489 54.31017 
L 124.224453 54.200991 
L 124.169692 54.092668 
L 124.113219 53.985227 
L 124.055048 53.878696 
L 123.995195 53.773101 
L 123.933674 53.668469 
L 123.8705 53.564826 
L 123.80569 53.462198 
L 123.73926 53.360612 
L 123.671226 53.260093 
L 123.601607 53.160665 
L 123.530418 53.062355 
L 123.457679 52.965187 
L 123.383407 52.869184 
L 123.307621 52.774373 
L 123.230341 52.680775 
L 123.151585 52.588416 
L 123.071374 52.497318 
L 122.989727 52.407504 
L 122.906666 52.318996 
L 122.822211 52.231818 
L 122.736384 52.14599 
L 122.649205 52.061535 
L 122.560698 51.978474 
L 122.470883 51.896828 
L 122.379785 51.816616 
L 122.287426 51.737861 
L 122.193829 51.66058 
L 122.099017 51.584794 
L 122.003015 51.510523 
L 121.905846 51.437783 
L 121.807536 51.366595 
L 121.708109 51.296975 
L 121.607589 51.228941 
L 121.506003 51.162511 
L 121.403375 51.097701 
L 121.299733 51.034528 
L 121.195101 50.973006 
L 121.089506 50.913153 
L 120.982974 50.854982 
L 120.875534 50.798509 
L 120.76721 50.743748 
L 120.658032 50.690713 
L 120.548025 50.639416 
L 120.437219 50.589871 
L 120.325641 50.54209 
L 120.213318 50.496086 
L 120.10028 50.451869 
L 119.986555 50.409452 
L 119.872171 50.368844 
L 119.757156 50.330057 
L 119.641541 50.293098 
L 119.525355 50.257979 
L 119.408625 50.224708 
L 119.291383 50.193293 
L 119.173656 50.163742 
L 119.055476 50.136063 
L 118.936872 50.110262 
L 118.817873 50.086346 
L 118.698509 50.064321 
L 118.578811 50.044193 
L 118.458809 50.025967 
L 118.338533 50.009646 
L 118.218013 49.995236 
L 118.097279 49.98274 
L 117.976363 49.972162 
L 117.855294 49.963503 
L 117.734102 49.956765 
L 117.612819 49.951952 
L 117.491475 49.949064 
L 117.370101 49.948101 
L 108.190101 49.948101 
L 108.068726 49.949064 
L 107.947382 49.951952 
L 107.826099 49.956765 
L 107.704908 49.963503 
L 107.583838 49.972162 
L 107.462922 49.98274 
L 107.342188 49.995236 
L 107.221668 50.009646 
L 107.101392 50.025967 
L 106.98139 50.044193 
L 106.861692 50.064321 
L 106.742329 50.086346 
L 106.62333 50.110262 
L 106.504725 50.136063 
L 106.386545 50.163742 
L 106.268819 50.193293 
L 106.151576 50.224708 
L 106.034847 50.257979 
L 105.91866 50.293098 
L 105.803045 50.330057 
L 105.688031 50.368844 
L 105.573647 50.409452 
L 105.459921 50.451869 
L 105.346883 50.496086 
L 105.23456 50.54209 
L 105.122982 50.589871 
L 105.012176 50.639416 
L 104.90217 50.690713 
L 104.792991 50.743748 
L 104.684668 50.798509 
L 104.577227 50.854982 
L 104.470696 50.913153 
L 104.365101 50.973006 
L 104.260469 51.034528 
L 104.156826 51.097701 
L 104.054198 51.162511 
L 103.952612 51.228941 
L 103.852093 51.296975 
L 103.752665 51.366595 
L 103.654355 51.437783 
L 103.557187 51.510523 
L 103.461184 51.584794 
L 103.366373 51.66058 
L 103.272775 51.737861 
L 103.180416 51.816616 
L 103.089318 51.896828 
L 102.999504 51.978474 
L 102.910996 52.061535 
L 102.823818 52.14599 
L 102.73799 52.231818 
L 102.653535 52.318996 
L 102.570474 52.407504 
L 102.488828 52.497318 
L 102.408616 52.588416 
L 102.329861 52.680775 
L 102.25258 52.774373 
L 102.176794 52.869184 
L 102.102523 52.965187 
L 102.029783 53.062355 
L 101.958595 53.160665 
L 101.888975 53.260093 
L 101.820941 53.360612 
L 101.754511 53.462198 
L 101.689701 53.564826 
L 101.626528 53.668469 
L 101.565006 53.773101 
L 101.505153 53.878696 
L 101.446982 53.985227 
L 101.390509 54.092668 
L 101.335748 54.200991 
L 101.282713 54.31017 
L 101.231416 54.420176 
L 101.181871 54.530982 
L 101.13409 54.64256 
L 101.088086 54.754883 
L 101.043869 54.867921 
L 101.001452 54.981647 
L 100.960844 55.096031 
L 100.922057 55.211045 
L 100.885098 55.32666 
L 100.849979 55.442847 
L 100.816708 55.559576 
L 100.785293 55.676819 
L 100.755742 55.794545 
L 100.728063 55.912725 
L 100.702262 56.03133 
L 100.678346 56.150329 
L 100.656321 56.269692 
L 100.636193 56.38939 
L 100.617967 56.509392 
L 100.601646 56.629668 
L 100.587236 56.750188 
L 100.57474 56.870922 
L 100.564162 56.991838 
L 100.555503 57.112908 
L 100.548765 57.234099 
L 100.543952 57.355382 
L 100.541064 57.476726 
L 100.540101 57.598101 
L 100.540101 97.378101 
L 100.541064 97.499475 
L 100.543952 97.620819 
L 100.548765 97.742102 
L 100.555503 97.863294 
L 100.564162 97.984363 
L 100.57474 98.105279 
L 100.587236 98.226013 
L 100.601646 98.346533 
L 100.617967 98.466809 
L 100.636193 98.586811 
L 100.656321 98.706509 
L 100.678346 98.825873 
L 100.702262 98.944872 
L 100.728063 99.063476 
L 100.755742 99.181656 
L 100.785293 99.299383 
L 100.816708 99.416625 
L 100.849979 99.533355 
L 100.885098 99.649541 
L 100.922057 99.765156 
L 100.960844 99.880171 
L 101.001452 99.994555 
L 101.043869 100.10828 
L 101.088086 100.221318 
L 101.13409 100.333641 
L 101.181871 100.445219 
L 101.231416 100.556025 
L 101.282713 100.666032 
L 101.335748 100.77521 
L 101.390509 100.883534 
L 101.446982 100.990974 
L 101.505153 101.097506 
L 101.565006 101.203101 
L 101.626528 101.307733 
L 101.689701 101.411375 
L 101.754511 101.514003 
L 101.820941 101.615589 
L 101.888975 101.716109 
L 101.958595 101.815536 
L 102.029783 101.913846 
L 102.102523 102.011015 
L 102.176794 102.107017 
L 102.25258 102.201829 
L 102.329861 102.295426 
L 102.408616 102.387785 
L 102.488828 102.478883 
L 102.570474 102.568698 
L 102.653535 102.657205 
L 102.73799 102.744384 
L 102.823818 102.830211 
L 102.910996 102.914666 
L 102.999504 102.997727 
L 103.089318 103.079374 
L 103.180416 103.159585 
L 103.272775 103.238341 
L 103.366373 103.315621 
L 103.461184 103.391407 
L 103.557187 103.465679 
L 103.654355 103.538418 
L 103.752665 103.609607 
L 103.852093 103.679226 
L 103.952612 103.74726 
L 104.054198 103.81369 
L 104.156826 103.8785 
L 104.260469 103.941674 
L 104.365101 104.003195 
L 104.470696 104.063048 
L 104.577227 104.121219 
L 104.684668 104.177692 
L 104.792991 104.232453 
L 104.90217 104.285489 
L 105.012176 104.336785 
L 105.122982 104.38633 
L 105.23456 104.434111 
L 105.346883 104.480115 
L 105.459921 104.524332 
L 105.573647 104.566749 
L 105.688031 104.607357 
L 105.803045 104.646145 
L 105.91866 104.683103 
L 106.034847 104.718222 
L 106.151576 104.751493 
L 106.268819 104.782908 
L 106.386545 104.812459 
L 106.504725 104.840138 
L 106.62333 104.865939 
L 106.742329 104.889855 
L 106.861692 104.91188 
L 106.98139 104.932008 
L 107.101392 104.950235 
L 107.221668 104.966555 
L 107.342188 104.980965 
L 107.462922 104.993461 
L 107.583838 105.00404 
L 107.704908 105.012699 
L 107.826099 105.019436 
L 107.947382 105.024249 
L 108.068726 105.027138 
L 108.190101 105.028101 
z
" clip-path="url(#p8de0a66c1c)" style="fill: #ff0000; fill-opacity: 0.2; stroke: #ff0000; stroke-linecap: round"/>
   </g>
   <g id="patch_3">
    <path d="M 147.970101 105.028101 
L 148.091475 105.027138 
L 148.212819 105.024249 
L 148.334102 105.019436 
L 148.455294 105.012699 
L 148.576363 105.00404 
L 148.697279 104.993461 
L 148.818013 104.980965 
L 148.938533 104.966555 
L 149.058809 104.950235 
L 149.178811 104.932008 
L 149.298509 104.91188 
L 149.417873 104.889855 
L 149.536872 104.865939 
L 149.655476 104.840138 
L 149.773656 104.812459 
L 149.891383 104.782908 
L 150.008625 104.751493 
L 150.125355 104.718222 
L 150.241541 104.683103 
L 150.357156 104.646145 
L 150.472171 104.607357 
L 150.586555 104.566749 
L 150.70028 104.524332 
L 150.813318 104.480115 
L 150.925641 104.434111 
L 151.037219 104.38633 
L 151.148025 104.336785 
L 151.258032 104.285489 
L 151.36721 104.232453 
L 151.475534 104.177692 
L 151.582974 104.121219 
L 151.689506 104.063048 
L 151.795101 104.003195 
L 151.899733 103.941674 
L 152.003375 103.8785 
L 152.106003 103.81369 
L 152.207589 103.74726 
L 152.308109 103.679226 
L 152.407536 103.609607 
L 152.505846 103.538418 
L 152.603015 103.465679 
L 152.699017 103.391407 
L 152.793829 103.315621 
L 152.887426 103.238341 
L 152.979785 103.159585 
L 153.070883 103.079374 
L 153.160698 102.997727 
L 153.249205 102.914666 
L 153.336384 102.830211 
L 153.422211 102.744384 
L 153.506666 102.657205 
L 153.589727 102.568698 
L 153.671374 102.478883 
L 153.751585 102.387785 
L 153.830341 102.295426 
L 153.907621 102.201829 
L 153.983407 102.107017 
L 154.057679 102.011015 
L 154.130418 101.913846 
L 154.201607 101.815536 
L 154.271226 101.716109 
L 154.33926 101.615589 
L 154.40569 101.514003 
L 154.4705 101.411375 
L 154.533674 101.307733 
L 154.595195 101.203101 
L 154.655048 101.097506 
L 154.713219 100.990974 
L 154.769692 100.883534 
L 154.824453 100.77521 
L 154.877489 100.666032 
L 154.928785 100.556025 
L 154.97833 100.445219 
L 155.026111 100.333641 
L 155.072115 100.221318 
L 155.116332 100.10828 
L 155.158749 99.994555 
L 155.199357 99.880171 
L 155.238145 99.765156 
L 155.275103 99.649541 
L 155.310222 99.533355 
L 155.343493 99.416625 
L 155.374908 99.299383 
L 155.404459 99.181656 
L 155.432138 99.063476 
L 155.457939 98.944872 
L 155.481855 98.825873 
L 155.50388 98.706509 
L 155.524008 98.586811 
L 155.542235 98.466809 
L 155.558555 98.346533 
L 155.572965 98.226013 
L 155.585461 98.105279 
L 155.59604 97.984363 
L 155.604699 97.863294 
L 155.611436 97.742102 
L 155.616249 97.620819 
L 155.619138 97.499475 
L 155.620101 97.378101 
L 155.620101 88.198101 
L 155.619138 88.076726 
L 155.616249 87.955382 
L 155.611436 87.834099 
L 155.604699 87.712908 
L 155.59604 87.591838 
L 155.585461 87.470922 
L 155.572965 87.350188 
L 155.558555 87.229668 
L 155.542235 87.109392 
L 155.524008 86.98939 
L 155.50388 86.869692 
L 155.481855 86.750329 
L 155.457939 86.63133 
L 155.432138 86.512725 
L 155.404459 86.394545 
L 155.374908 86.276819 
L 155.343493 86.159576 
L 155.310222 86.042847 
L 155.275103 85.92666 
L 155.238145 85.811045 
L 155.199357 85.696031 
L 155.158749 85.581647 
L 155.116332 85.467921 
L 155.072115 85.354883 
L 155.026111 85.24256 
L 154.97833 85.130982 
L 154.928785 85.020176 
L 154.877489 84.91017 
L 154.824453 84.800991 
L 154.769692 84.692668 
L 154.713219 84.585227 
L 154.655048 84.478696 
L 154.595195 84.373101 
L 154.533674 84.268469 
L 154.4705 84.164826 
L 154.40569 84.062198 
L 154.33926 83.960612 
L 154.271226 83.860093 
L 154.201607 83.760665 
L 154.130418 83.662355 
L 154.057679 83.565187 
L 153.983407 83.469184 
L 153.907621 83.374373 
L 153.830341 83.280775 
L 153.751585 83.188416 
L 153.671374 83.097318 
L 153.589727 83.007504 
L 153.506666 82.918996 
L 153.422211 82.831818 
L 153.336384 82.74599 
L 153.249205 82.661535 
L 153.160698 82.578474 
L 153.070883 82.496828 
L 152.979785 82.416616 
L 152.887426 82.337861 
L 152.793829 82.26058 
L 152.699017 82.184794 
L 152.603015 82.110523 
L 152.505846 82.037783 
L 152.407536 81.966595 
L 152.308109 81.896975 
L 152.207589 81.828941 
L 152.106003 81.762511 
L 152.003375 81.697701 
L 151.899733 81.634528 
L 151.795101 81.573006 
L 151.689506 81.513153 
L 151.582974 81.454982 
L 151.475534 81.398509 
L 151.36721 81.343748 
L 151.258032 81.290713 
L 151.148025 81.239416 
L 151.037219 81.189871 
L 150.925641 81.14209 
L 150.813318 81.096086 
L 150.70028 81.051869 
L 150.586555 81.009452 
L 150.472171 80.968844 
L 150.357156 80.930057 
L 150.241541 80.893098 
L 150.125355 80.857979 
L 150.008625 80.824708 
L 149.891383 80.793293 
L 149.773656 80.763742 
L 149.655476 80.736063 
L 149.536872 80.710262 
L 149.417873 80.686346 
L 149.298509 80.664321 
L 149.178811 80.644193 
L 149.058809 80.625967 
L 148.938533 80.609646 
L 148.818013 80.595236 
L 148.697279 80.58274 
L 148.576363 80.572162 
L 148.455294 80.563503 
L 148.334102 80.556765 
L 148.212819 80.551952 
L 148.091475 80.549064 
L 147.970101 80.548101 
L 108.190101 80.548101 
L 108.068726 80.549064 
L 107.947382 80.551952 
L 107.826099 80.556765 
L 107.704908 80.563503 
L 107.583838 80.572162 
L 107.462922 80.58274 
L 107.342188 80.595236 
L 107.221668 80.609646 
L 107.101392 80.625967 
L 106.98139 80.644193 
L 106.861692 80.664321 
L 106.742329 80.686346 
L 106.62333 80.710262 
L 106.504725 80.736063 
L 106.386545 80.763742 
L 106.268819 80.793293 
L 106.151576 80.824708 
L 106.034847 80.857979 
L 105.91866 80.893098 
L 105.803045 80.930057 
L 105.688031 80.968844 
L 105.573647 81.009452 
L 105.459921 81.051869 
L 105.346883 81.096086 
L 105.23456 81.14209 
L 105.122982 81.189871 
L 105.012176 81.239416 
L 104.90217 81.290713 
L 104.792991 81.343748 
L 104.684668 81.398509 
L 104.577227 81.454982 
L 104.470696 81.513153 
L 104.365101 81.573006 
L 104.260469 81.634528 
L 104.156826 81.697701 
L 104.054198 81.762511 
L 103.952612 81.828941 
L 103.852093 81.896975 
L 103.752665 81.966595 
L 103.654355 82.037783 
L 103.557187 82.110523 
L 103.461184 82.184794 
L 103.366373 82.26058 
L 103.272775 82.337861 
L 103.180416 82.416616 
L 103.089318 82.496828 
L 102.999504 82.578474 
L 102.910996 82.661535 
L 102.823818 82.74599 
L 102.73799 82.831818 
L 102.653535 82.918996 
L 102.570474 83.007504 
L 102.488828 83.097318 
L 102.408616 83.188416 
L 102.329861 83.280775 
L 102.25258 83.374373 
L 102.176794 83.469184 
L 102.102523 83.565187 
L 102.029783 83.662355 
L 101.958595 83.760665 
L 101.888975 83.860093 
L 101.820941 83.960612 
L 101.754511 84.062198 
L 101.689701 84.164826 
L 101.626528 84.268469 
L 101.565006 84.373101 
L 101.505153 84.478696 
L 101.446982 84.585227 
L 101.390509 84.692668 
L 101.335748 84.800991 
L 101.282713 84.91017 
L 101.231416 85.020176 
L 101.181871 85.130982 
L 101.13409 85.24256 
L 101.088086 85.354883 
L 101.043869 85.467921 
L 101.001452 85.581647 
L 100.960844 85.696031 
L 100.922057 85.811045 
L 100.885098 85.92666 
L 100.849979 86.042847 
L 100.816708 86.159576 
L 100.785293 86.276819 
L 100.755742 86.394545 
L 100.728063 86.512725 
L 100.702262 86.63133 
L 100.678346 86.750329 
L 100.656321 86.869692 
L 100.636193 86.98939 
L 100.617967 87.109392 
L 100.601646 87.229668 
L 100.587236 87.350188 
L 100.57474 87.470922 
L 100.564162 87.591838 
L 100.555503 87.712908 
L 100.548765 87.834099 
L 100.543952 87.955382 
L 100.541064 88.076726 
L 100.540101 88.198101 
L 100.540101 97.378101 
L 100.541064 97.499475 
L 100.543952 97.620819 
L 100.548765 97.742102 
L 100.555503 97.863294 
L 100.564162 97.984363 
L 100.57474 98.105279 
L 100.587236 98.226013 
L 100.601646 98.346533 
L 100.617967 98.466809 
L 100.636193 98.586811 
L 100.656321 98.706509 
L 100.678346 98.825873 
L 100.702262 98.944872 
L 100.728063 99.063476 
L 100.755742 99.181656 
L 100.785293 99.299383 
L 100.816708 99.416625 
L 100.849979 99.533355 
L 100.885098 99.649541 
L 100.922057 99.765156 
L 100.960844 99.880171 
L 101.001452 99.994555 
L 101.043869 100.10828 
L 101.088086 100.221318 
L 101.13409 100.333641 
L 101.181871 100.445219 
L 101.231416 100.556025 
L 101.282713 100.666032 
L 101.335748 100.77521 
L 101.390509 100.883534 
L 101.446982 100.990974 
L 101.505153 101.097506 
L 101.565006 101.203101 
L 101.626528 101.307733 
L 101.689701 101.411375 
L 101.754511 101.514003 
L 101.820941 101.615589 
L 101.888975 101.716109 
L 101.958595 101.815536 
L 102.029783 101.913846 
L 102.102523 102.011015 
L 102.176794 102.107017 
L 102.25258 102.201829 
L 102.329861 102.295426 
L 102.408616 102.387785 
L 102.488828 102.478883 
L 102.570474 102.568698 
L 102.653535 102.657205 
L 102.73799 102.744384 
L 102.823818 102.830211 
L 102.910996 102.914666 
L 102.999504 102.997727 
L 103.089318 103.079374 
L 103.180416 103.159585 
L 103.272775 103.238341 
L 103.366373 103.315621 
L 103.461184 103.391407 
L 103.557187 103.465679 
L 103.654355 103.538418 
L 103.752665 103.609607 
L 103.852093 103.679226 
L 103.952612 103.74726 
L 104.054198 103.81369 
L 104.156826 103.8785 
L 104.260469 103.941674 
L 104.365101 104.003195 
L 104.470696 104.063048 
L 104.577227 104.121219 
L 104.684668 104.177692 
L 104.792991 104.232453 
L 104.90217 104.285489 
L 105.012176 104.336785 
L 105.122982 104.38633 
L 105.23456 104.434111 
L 105.346883 104.480115 
L 105.459921 104.524332 
L 105.573647 104.566749 
L 105.688031 104.607357 
L 105.803045 104.646145 
L 105.91866 104.683103 
L 106.034847 104.718222 
L 106.151576 104.751493 
L 106.268819 104.782908 
L 106.386545 104.812459 
L 106.504725 104.840138 
L 106.62333 104.865939 
L 106.742329 104.889855 
L 106.861692 104.91188 
L 106.98139 104.932008 
L 107.101392 104.950235 
L 107.221668 104.966555 
L 107.342188 104.980965 
L 107.462922 104.993461 
L 107.583838 105.00404 
L 107.704908 105.012699 
L 107.826099 105.019436 
L 107.947382 105.024249 
L 108.068726 105.027138 
L 108.190101 105.028101 
z
" clip-path="url(#p8de0a66c1c)" style="fill: #0000ff; fill-opacity: 0.2; stroke: #0000ff; stroke-linecap: round"/>
   </g>
   <g id="patch_4">
    <path d="M 117.370101 105.028101 
L 117.491475 105.027138 
L 117.612819 105.024249 
L 117.734102 105.019436 
L 117.855294 105.012699 
L 117.976363 105.00404 
L 118.097279 104.993461 
L 118.218013 104.980965 
L 118.338533 104.966555 
L 118.458809 104.950235 
L 118.578811 104.932008 
L 118.698509 104.91188 
L 118.817873 104.889855 
L 118.936872 104.865939 
L 119.055476 104.840138 
L 119.173656 104.812459 
L 119.291383 104.782908 
L 119.408625 104.751493 
L 119.525355 104.718222 
L 119.641541 104.683103 
L 119.757156 104.646145 
L 119.872171 104.607357 
L 119.986555 104.566749 
L 120.10028 104.524332 
L 120.213318 104.480115 
L 120.325641 104.434111 
L 120.437219 104.38633 
L 120.548025 104.336785 
L 120.658032 104.285489 
L 120.76721 104.232453 
L 120.875534 104.177692 
L 120.982974 104.121219 
L 121.089506 104.063048 
L 121.195101 104.003195 
L 121.299733 103.941674 
L 121.403375 103.8785 
L 121.506003 103.81369 
L 121.607589 103.74726 
L 121.708109 103.679226 
L 121.807536 103.609607 
L 121.905846 103.538418 
L 122.003015 103.465679 
L 122.099017 103.391407 
L 122.193829 103.315621 
L 122.287426 103.238341 
L 122.379785 103.159585 
L 122.470883 103.079374 
L 122.560698 102.997727 
L 122.649205 102.914666 
L 122.736384 102.830211 
L 122.822211 102.744384 
L 122.906666 102.657205 
L 122.989727 102.568698 
L 123.071374 102.478883 
L 123.151585 102.387785 
L 123.230341 102.295426 
L 123.307621 102.201829 
L 123.383407 102.107017 
L 123.457679 102.011015 
L 123.530418 101.913846 
L 123.601607 101.815536 
L 123.671226 101.716109 
L 123.73926 101.615589 
L 123.80569 101.514003 
L 123.8705 101.411375 
L 123.933674 101.307733 
L 123.995195 101.203101 
L 124.055048 101.097506 
L 124.113219 100.990974 
L 124.169692 100.883534 
L 124.224453 100.77521 
L 124.277489 100.666032 
L 124.328785 100.556025 
L 124.37833 100.445219 
L 124.426111 100.333641 
L 124.472115 100.221318 
L 124.516332 100.10828 
L 124.558749 99.994555 
L 124.599357 99.880171 
L 124.638145 99.765156 
L 124.675103 99.649541 
L 124.710222 99.533355 
L 124.743493 99.416625 
L 124.774908 99.299383 
L 124.804459 99.181656 
L 124.832138 99.063476 
L 124.857939 98.944872 
L 124.881855 98.825873 
L 124.90388 98.706509 
L 124.924008 98.586811 
L 124.942235 98.466809 
L 124.958555 98.346533 
L 124.972965 98.226013 
L 124.985461 98.105279 
L 124.99604 97.984363 
L 125.004699 97.863294 
L 125.011436 97.742102 
L 125.016249 97.620819 
L 125.019138 97.499475 
L 125.020101 97.378101 
L 125.020101 88.198101 
L 125.019138 88.076726 
L 125.016249 87.955382 
L 125.011436 87.834099 
L 125.004699 87.712908 
L 124.99604 87.591838 
L 124.985461 87.470922 
L 124.972965 87.350188 
L 124.958555 87.229668 
L 124.942235 87.109392 
L 124.924008 86.98939 
L 124.90388 86.869692 
L 124.881855 86.750329 
L 124.857939 86.63133 
L 124.832138 86.512725 
L 124.804459 86.394545 
L 124.774908 86.276819 
L 124.743493 86.159576 
L 124.710222 86.042847 
L 124.675103 85.92666 
L 124.638145 85.811045 
L 124.599357 85.696031 
L 124.558749 85.581647 
L 124.516332 85.467921 
L 124.472115 85.354883 
L 124.426111 85.24256 
L 124.37833 85.130982 
L 124.328785 85.020176 
L 124.277489 84.91017 
L 124.224453 84.800991 
L 124.169692 84.692668 
L 124.113219 84.585227 
L 124.055048 84.478696 
L 123.995195 84.373101 
L 123.933674 84.268469 
L 123.8705 84.164826 
L 123.80569 84.062198 
L 123.73926 83.960612 
L 123.671226 83.860093 
L 123.601607 83.760665 
L 123.530418 83.662355 
L 123.457679 83.565187 
L 123.383407 83.469184 
L 123.307621 83.374373 
L 123.230341 83.280775 
L 123.151585 83.188416 
L 123.071374 83.097318 
L 122.989727 83.007504 
L 122.906666 82.918996 
L 122.822211 82.831818 
L 122.736384 82.74599 
L 122.649205 82.661535 
L 122.560698 82.578474 
L 122.470883 82.496828 
L 122.379785 82.416616 
L 122.287426 82.337861 
L 122.193829 82.26058 
L 122.099017 82.184794 
L 122.003015 82.110523 
L 121.905846 82.037783 
L 121.807536 81.966595 
L 121.708109 81.896975 
L 121.607589 81.828941 
L 121.506003 81.762511 
L 121.403375 81.697701 
L 121.299733 81.634528 
L 121.195101 81.573006 
L 121.089506 81.513153 
L 120.982974 81.454982 
L 120.875534 81.398509 
L 120.76721 81.343748 
L 120.658032 81.290713 
L 120.548025 81.239416 
L 120.437219 81.189871 
L 120.325641 81.14209 
L 120.213318 81.096086 
L 120.10028 81.051869 
L 119.986555 81.009452 
L 119.872171 80.968844 
L 119.757156 80.930057 
L 119.641541 80.893098 
L 119.525355 80.857979 
L 119.408625 80.824708 
L 119.291383 80.793293 
L 119.173656 80.763742 
L 119.055476 80.736063 
L 118.936872 80.710262 
L 118.817873 80.686346 
L 118.698509 80.664321 
L 118.578811 80.644193 
L 118.458809 80.625967 
L 118.338533 80.609646 
L 118.218013 80.595236 
L 118.097279 80.58274 
L 117.976363 80.572162 
L 117.855294 80.563503 
L 117.734102 80.556765 
L 117.612819 80.551952 
L 117.491475 80.549064 
L 117.370101 80.548101 
L 77.590101 80.548101 
L 77.468726 80.549064 
L 77.347382 80.551952 
L 77.226099 80.556765 
L 77.104908 80.563503 
L 76.983838 80.572162 
L 76.862922 80.58274 
L 76.742188 80.595236 
L 76.621668 80.609646 
L 76.501392 80.625967 
L 76.38139 80.644193 
L 76.261692 80.664321 
L 76.142329 80.686346 
L 76.02333 80.710262 
L 75.904725 80.736063 
L 75.786545 80.763742 
L 75.668819 80.793293 
L 75.551576 80.824708 
L 75.434847 80.857979 
L 75.31866 80.893098 
L 75.203045 80.930057 
L 75.088031 80.968844 
L 74.973647 81.009452 
L 74.859921 81.051869 
L 74.746883 81.096086 
L 74.63456 81.14209 
L 74.522982 81.189871 
L 74.412176 81.239416 
L 74.30217 81.290713 
L 74.192991 81.343748 
L 74.084668 81.398509 
L 73.977227 81.454982 
L 73.870696 81.513153 
L 73.765101 81.573006 
L 73.660469 81.634528 
L 73.556826 81.697701 
L 73.454198 81.762511 
L 73.352612 81.828941 
L 73.252093 81.896975 
L 73.152665 81.966595 
L 73.054355 82.037783 
L 72.957187 82.110523 
L 72.861184 82.184794 
L 72.766373 82.26058 
L 72.672775 82.337861 
L 72.580416 82.416616 
L 72.489318 82.496828 
L 72.399504 82.578474 
L 72.310996 82.661535 
L 72.223818 82.74599 
L 72.13799 82.831818 
L 72.053535 82.918996 
L 71.970474 83.007504 
L 71.888828 83.097318 
L 71.808616 83.188416 
L 71.729861 83.280775 
L 71.65258 83.374373 
L 71.576794 83.469184 
L 71.502523 83.565187 
L 71.429783 83.662355 
L 71.358595 83.760665 
L 71.288975 83.860093 
L 71.220941 83.960612 
L 71.154511 84.062198 
L 71.089701 84.164826 
L 71.026528 84.268469 
L 70.965006 84.373101 
L 70.905153 84.478696 
L 70.846982 84.585227 
L 70.790509 84.692668 
L 70.735748 84.800991 
L 70.682713 84.91017 
L 70.631416 85.020176 
L 70.581871 85.130982 
L 70.53409 85.24256 
L 70.488086 85.354883 
L 70.443869 85.467921 
L 70.401452 85.581647 
L 70.360844 85.696031 
L 70.322057 85.811045 
L 70.285098 85.92666 
L 70.249979 86.042847 
L 70.216708 86.159576 
L 70.185293 86.276819 
L 70.155742 86.394545 
L 70.128063 86.512725 
L 70.102262 86.63133 
L 70.078346 86.750329 
L 70.056321 86.869692 
L 70.036193 86.98939 
L 70.017967 87.109392 
L 70.001646 87.229668 
L 69.987236 87.350188 
L 69.97474 87.470922 
L 69.964162 87.591838 
L 69.955503 87.712908 
L 69.948765 87.834099 
L 69.943952 87.955382 
L 69.941064 88.076726 
L 69.940101 88.198101 
L 69.940101 97.378101 
L 69.941064 97.499475 
L 69.943952 97.620819 
L 69.948765 97.742102 
L 69.955503 97.863294 
L 69.964162 97.984363 
L 69.97474 98.105279 
L 69.987236 98.226013 
L 70.001646 98.346533 
L 70.017967 98.466809 
L 70.036193 98.586811 
L 70.056321 98.706509 
L 70.078346 98.825873 
L 70.102262 98.944872 
L 70.128063 99.063476 
L 70.155742 99.181656 
L 70.185293 99.299383 
L 70.216708 99.416625 
L 70.249979 99.533355 
L 70.285098 99.649541 
L 70.322057 99.765156 
L 70.360844 99.880171 
L 70.401452 99.994555 
L 70.443869 100.10828 
L 70.488086 100.221318 
L 70.53409 100.333641 
L 70.581871 100.445219 
L 70.631416 100.556025 
L 70.682713 100.666032 
L 70.735748 100.77521 
L 70.790509 100.883534 
L 70.846982 100.990974 
L 70.905153 101.097506 
L 70.965006 101.203101 
L 71.026528 101.307733 
L 71.089701 101.411375 
L 71.154511 101.514003 
L 71.220941 101.615589 
L 71.288975 101.716109 
L 71.358595 101.815536 
L 71.429783 101.913846 
L 71.502523 102.011015 
L 71.576794 102.107017 
L 71.65258 102.201829 
L 71.729861 102.295426 
L 71.808616 102.387785 
L 71.888828 102.478883 
L 71.970474 102.568698 
L 72.053535 102.657205 
L 72.13799 102.744384 
L 72.223818 102.830211 
L 72.310996 102.914666 
L 72.399504 102.997727 
L 72.489318 103.079374 
L 72.580416 103.159585 
L 72.672775 103.238341 
L 72.766373 103.315621 
L 72.861184 103.391407 
L 72.957187 103.465679 
L 73.054355 103.538418 
L 73.152665 103.609607 
L 73.252093 103.679226 
L 73.352612 103.74726 
L 73.454198 103.81369 
L 73.556826 103.8785 
L 73.660469 103.941674 
L 73.765101 104.003195 
L 73.870696 104.063048 
L 73.977227 104.121219 
L 74.084668 104.177692 
L 74.192991 104.232453 
L 74.30217 104.285489 
L 74.412176 104.336785 
L 74.522982 104.38633 
L 74.63456 104.434111 
L 74.746883 104.480115 
L 74.859921 104.524332 
L 74.973647 104.566749 
L 75.088031 104.607357 
L 75.203045 104.646145 
L 75.31866 104.683103 
L 75.434847 104.718222 
L 75.551576 104.751493 
L 75.668819 104.782908 
L 75.786545 104.812459 
L 75.904725 104.840138 
L 76.02333 104.865939 
L 76.142329 104.889855 
L 76.261692 104.91188 
L 76.38139 104.932008 
L 76.501392 104.950235 
L 76.621668 104.966555 
L 76.742188 104.980965 
L 76.862922 104.993461 
L 76.983838 105.00404 
L 77.104908 105.012699 
L 77.226099 105.019436 
L 77.347382 105.024249 
L 77.468726 105.027138 
L 77.590101 105.028101 
z
" clip-path="url(#p8de0a66c1c)" style="fill: #00ff00; fill-opacity: 0.2; stroke: #008000; stroke-linecap: round"/>
   </g>
   <g id="line2d_1">
    <path d="M 36.280101 108.088101 
L 158.680101 108.088101 
L 158.680101 46.888101 
L 36.280101 46.888101 
L 36.280101 108.088101 
" clip-path="url(#p8de0a66c1c)" style="fill: none; stroke: #000000; stroke-width: 1.25; stroke-linecap: round"/>
   </g>
   <g id="line2d_2">
    <path d="M 36.280101 108.088101 
L 158.680101 108.088101 
" clip-path="url(#p8de0a66c1c)" style="fill: none; stroke: #000000; stroke-width: 1.25; stroke-linecap: round"/>
   </g>
   <g id="line2d_3">
    <path d="M 36.280101 77.488101 
L 158.680101 77.488101 
" clip-path="url(#p8de0a66c1c)" style="fill: none; stroke: #000000; stroke-width: 1.25; stroke-linecap: round"/>
   </g>
   <g id="line2d_4">
    <path d="M 36.280101 108.088101 
L 36.280101 46.888101 
" clip-path="url(#p8de0a66c1c)" style="fill: none; stroke: #000000; stroke-width: 1.25; stroke-linecap: round"/>
   </g>
   <g id="line2d_5">
    <path d="M 66.880101 108.088101 
L 66.880101 46.888101 
" clip-path="url(#p8de0a66c1c)" style="fill: none; stroke: #000000; stroke-width: 1.25; stroke-linecap: round"/>
   </g>
   <g id="line2d_6">
    <path d="M 97.480101 108.088101 
L 97.480101 46.888101 
" clip-path="url(#p8de0a66c1c)" style="fill: none; stroke: #000000; stroke-width: 1.25; stroke-linecap: round"/>
   </g>
   <g id="line2d_7">
    <path d="M 128.080101 108.088101 
L 128.080101 46.888101 
" clip-path="url(#p8de0a66c1c)" style="fill: none; stroke: #000000; stroke-width: 1.25; stroke-linecap: round"/>
   </g>
   <g id="line2d_8">
    <path d="M 36.280101 46.888101 
L 14.642633 25.250633 
" clip-path="url(#p8de0a66c1c)" style="fill: none; stroke: #000000; stroke-width: 1.25; stroke-linecap: round"/>
   </g>
   <g id="text_1">
    <g clip-path="url(#p8de0a66c1c)">
     <!-- ab -->
     <g transform="translate(23.17971 28.476328)scale(0.105 -0.105)">
      <defs>
       <path id="DejaVuSans-61" d="M 2194 1759 
Q 1497 1759 1228 1600 
Q 959 1441 959 1056 
Q 959 750 1161 570 
Q 1363 391 1709 391 
Q 2188 391 2477 730 
Q 2766 1069 2766 1631 
L 2766 1759 
L 2194 1759 
z
M 3341 1997 
L 3341 0 
L 2766 0 
L 2766 531 
Q 2569 213 2275 61 
Q 1981 -91 1556 -91 
Q 1019 -91 701 211 
Q 384 513 384 1019 
Q 384 1609 779 1909 
Q 1175 2209 1959 2209 
L 2766 2209 
L 2766 2266 
Q 2766 2663 2505 2880 
Q 2244 3097 1772 3097 
Q 1472 3097 1187 3025 
Q 903 2953 641 2809 
L 641 3341 
Q 956 3463 1253 3523 
Q 1550 3584 1831 3584 
Q 2591 3584 2966 3190 
Q 3341 2797 3341 1997 
z
" transform="scale(0.015625)"/>
       <path id="DejaVuSans-62" d="M 3116 1747 
Q 3116 2381 2855 2742 
Q 2594 3103 2138 3103 
Q 1681 3103 1420 2742 
Q 1159 2381 1159 1747 
Q 1159 1113 1420 752 
Q 1681 391 2138 391 
Q 2594 391 2855 752 
Q 3116 1113 3116 1747 
z
M 1159 2969 
Q 1341 3281 1617 3432 
Q 1894 3584 2278 3584 
Q 2916 3584 3314 3078 
Q 3713 2572 3713 1747 
Q 3713 922 3314 415 
Q 2916 -91 2278 -91 
Q 1894 -91 1617 61 
Q 1341 213 1159 525 
L 1159 0 
L 581 0 
L 581 4863 
L 1159 4863 
L 1159 2969 
z
" transform="scale(0.015625)"/>
      </defs>
      <use xlink:href="#DejaVuSans-61"/>
      <use xlink:href="#DejaVuSans-62" x="61.279297"/>
     </g>
    </g>
   </g>
   <g id="text_2">
    <g clip-path="url(#p8de0a66c1c)">
     <!-- r -->
     <g transform="translate(15.735516 44.704429)scale(0.105 -0.105)">
      <defs>
       <path id="DejaVuSans-72" d="M 2631 2963 
Q 2534 3019 2420 3045 
Q 2306 3072 2169 3072 
Q 1681 3072 1420 2755 
Q 1159 2438 1159 1844 
L 1159 0 
L 581 0 
L 581 3500 
L 1159 3500 
L 1159 2956 
Q 1341 3275 1631 3429 
Q 1922 3584 2338 3584 
Q 2397 3584 2469 3576 
Q 2541 3569 2628 3553 
L 2631 2963 
z
" transform="scale(0.015625)"/>
      </defs>
      <use xlink:href="#DejaVuSans-72"/>
     </g>
    </g>
   </g>
   <g id="text_3">
    <g clip-path="url(#p8de0a66c1c)">
     <!-- 00 -->
     <g transform="translate(46.171976 43.590366)scale(0.085 -0.085)">
      <defs>
       <path id="DejaVuSans-30" d="M 2034 4250 
Q 1547 4250 1301 3770 
Q 1056 3291 1056 2328 
Q 1056 1369 1301 889 
Q 1547 409 2034 409 
Q 2525 409 2770 889 
Q 3016 1369 3016 2328 
Q 3016 3291 2770 3770 
Q 2525 4250 2034 4250 
z
M 2034 4750 
Q 2819 4750 3233 4129 
Q 3647 3509 3647 2328 
Q 3647 1150 3233 529 
Q 2819 -91 2034 -91 
Q 1250 -91 836 529 
Q 422 1150 422 2328 
Q 422 3509 836 4129 
Q 1250 4750 2034 4750 
z
" transform="scale(0.015625)"/>
      </defs>
      <use xlink:href="#DejaVuSans-30"/>
      <use xlink:href="#DejaVuSans-30" x="63.623047"/>
     </g>
    </g>
   </g>
   <g id="text_4">
    <g clip-path="url(#p8de0a66c1c)">
     <!-- 01 -->
     <g transform="translate(76.771976 43.590366)scale(0.085 -0.085)">
      <defs>
       <path id="DejaVuSans-31" d="M 794 531 
L 1825 531 
L 1825 4091 
L 703 3866 
L 703 4441 
L 1819 4666 
L 2450 4666 
L 2450 531 
L 3481 531 
L 3481 0 
L 794 0 
L 794 531 
z
" transform="scale(0.015625)"/>
      </defs>
      <use xlink:href="#DejaVuSans-30"/>
      <use xlink:href="#DejaVuSans-31" x="63.623047"/>
     </g>
    </g>
   </g>
   <g id="text_5">
    <g clip-path="url(#p8de0a66c1c)">
     <!-- 10 -->
     <g transform="translate(137.971976 43.590366)scale(0.085 -0.085)">
      <use xlink:href="#DejaVuSans-31"/>
      <use xlink:href="#DejaVuSans-30" x="63.623047"/>
     </g>
    </g>
   </g>
   <g id="text_6">
    <g clip-path="url(#p8de0a66c1c)">
     <!-- 11 -->
     <g transform="translate(107.371976 43.590366)scale(0.085 -0.085)">
      <use xlink:href="#DejaVuSans-31"/>
      <use xlink:href="#DejaVuSans-31" x="63.623047"/>
     </g>
    </g>
   </g>
   <g id="text_7">
    <g clip-path="url(#p8de0a66c1c)">
     <!-- 0 -->
     <g transform="translate(27.811976 64.533569)scale(0.085 -0.085)">
      <use xlink:href="#DejaVuSans-30"/>
     </g>
    </g>
   </g>
   <g id="text_8">
    <g clip-path="url(#p8de0a66c1c)">
     <!-- 1 -->
     <g transform="translate(27.811976 95.133569)scale(0.085 -0.085)">
      <use xlink:href="#DejaVuSans-31"/>
     </g>
    </g>
   </g>
   <g id="text_9">
    <g clip-path="url(#p8de0a66c1c)">
     <!-- 0 -->
     <g transform="translate(48.239788 65.085444)scale(0.105 -0.105)">
      <use xlink:href="#DejaVuSans-30"/>
     </g>
    </g>
   </g>
   <g id="text_10">
    <g clip-path="url(#p8de0a66c1c)">
     <!-- 0 -->
     <g transform="translate(48.239788 95.685444)scale(0.105 -0.105)">
      <use xlink:href="#DejaVuSans-30"/>
     </g>
    </g>
   </g>
   <g id="text_11">
    <g clip-path="url(#p8de0a66c1c)">
     <!-- 0 -->
     <g transform="translate(78.839788 65.085444)scale(0.105 -0.105)">
      <use xlink:href="#DejaVuSans-30"/>
     </g>
    </g>
   </g>
   <g id="text_12">
    <g clip-path="url(#p8de0a66c1c)">
     <!-- 1 -->
     <g transform="translate(78.839788 95.685444)scale(0.105 -0.105)">
      <use xlink:href="#DejaVuSans-31"/>
     </g>
    </g>
   </g>
   <g id="text_13">
    <g clip-path="url(#p8de0a66c1c)">
     <!-- 0 -->
     <g transform="translate(140.039788 65.085444)scale(0.105 -0.105)">
      <use xlink:href="#DejaVuSans-30"/>
     </g>
    </g>
   </g>
   <g id="text_14">
    <g clip-path="url(#p8de0a66c1c)">
     <!-- 1 -->
     <g transform="translate(140.039788 95.685444)scale(0.105 -0.105)">
      <use xlink:href="#DejaVuSans-31"/>
     </g>
    </g>
   </g>
   <g id="text_15">
    <g clip-path="url(#p8de0a66c1c)">
     <!-- 1 -->
     <g transform="translate(109.439788 65.085444)scale(0.105 -0.105)">
      <use xlink:href="#DejaVuSans-31"/>
     </g>
    </g>
   </g>
   <g id="text_16">
    <g clip-path="url(#p8de0a66c1c)">
     <!-- 1 -->
     <g transform="translate(109.439788 95.685444)scale(0.105 -0.105)">
      <use xlink:href="#DejaVuSans-31"/>
     </g>
    </g>
   </g>
  </g>
 </g>
 <defs>
  <clipPath id="p8de0a66c1c">
   <rect x="7.2" y="7.2" width="156.325101" height="103.948101"/>
  </clipPath>
 </defs>
</svg>
