<svg xmlns="http://www.w3.org/2000/svg" xml:lang="en" height="178.86269478283307pt" width="181.49789478283307pt" viewBox="-43.4178947828331 -173.6226947828331 181.49789478283307 178.86269478283307"><polygon points="53.459999999999994,-68.04 53.58851430706194,-68.04101956584161 53.716996261334344,-68.04407800669621 53.84541351817231,-68.04917455261764 53.97373374921817,-68.05630792057774 54.10192465053998,-68.06547631478927 54.22995395076388,-68.07667742715802 54.35778941919819,-68.08990843786384 54.48539887394737,-68.10516601607056 54.61275019001361,-68.12244632076444 54.73981130738413,-68.1417450017212 54.866550239102125,-68.16305720060112 54.992935079319324,-68.18637755217208 55.118934011328044,-68.21170018566029 55.24451531557097,-68.23901872622821 55.36964737762635,-68.26832629657932 55.49429869616674,-68.29961551868952 55.618437890889275,-68.33287851566448 55.742033710415576,-68.36810691372257 55.86505504015902,-68.405291844303 55.98747091015775,-68.44442394629834 56.10925050287111,-68.48549336841118 56.23036316093791,-68.52848977163414 56.35077839489416,-68.57340233185263 56.47046589084865,-68.6202197425698 56.589395518114344,-68.66893021775289 56.707537336793564,-68.71952149480023 56.82486160531527,-68.7719808376284 56.941338787922284,-68.82629503987836 57.05693956210677,-68.88245042824018 57.17163482599202,-68.94043286589512 57.28539570565872,-69.0002277560746 57.398193562413795,-69.06182004573473 57.51,-69.12519422934604 57.620786871744585,-69.19033435279668 57.73052628764507,-69.25722401740894 57.83919062139034,-69.32584638406743 57.94675251731549,-69.39618417745835 58.05318489728844,-69.46821969041835 58.1584609675267,-69.54193478839228 58.26255422534258,-69.61731091399842 58.365438465815096,-69.69432909170027 58.46708778838689,-69.77296993258342 58.56747660338463,-69.85321363923677 58.666579638460966,-69.93504001073627 58.76437194495681,-70.01842844773051 58.86082890418196,-70.10335795762639 58.955926233612765,-70.18980715987398 59.0496399930051,-70.27775429134894 59.14194659042119,-70.36717721183122 59.23282278816878,-70.4580534095788 59.32224570865107,-70.5503600069949 59.410192840126015,-70.64407376638724 59.49664204237361,-70.73917109581804 59.58157155226949,-70.8356280550432 59.664959989263714,-70.93342036153904 59.746786360763224,-71.03252339661536 59.82703006741657,-71.1329122116131 59.90567090829973,-71.23456153418489 59.98268908600157,-71.33744577465741 60.05806521160772,-71.4415390324733 60.13178030958164,-71.54681510271156 60.20381582254164,-71.6532474826845 60.27415361593256,-71.76080937860965 60.342775982591064,-71.86947371235493 60.409665647203305,-71.97921312825541 60.474805770653944,-72.09 60.53817995426525,-72.2018064375862 60.59977224392541,-72.31460429434127 60.659567134104876,-72.42836517400798 60.71754957175981,-72.54306043789323 60.77370496012163,-72.6586612120777 60.82801916237159,-72.77513839468472 60.880478505199754,-72.89246266320643 60.9310697822471,-73.01060448188565 60.979780257430185,-73.12953410915135 61.02659766814736,-73.24922160510584 61.07151022836586,-73.36963683906208 61.11450663158881,-73.49074949712889 61.15557605370165,-73.61252908984225 61.19470815569699,-73.73494495984097 61.231893086277424,-73.85796628958443 61.26712148433552,-73.98156210911071 61.30038448131048,-74.10570130383326 61.331673703420684,-74.23035262237364 61.36098127377179,-74.35548468442903 61.3882998143397,-74.48106598867196 61.41362244782792,-74.60706492068068 61.43694279939888,-74.73344976089787 61.45825499827879,-74.86018869261586 61.47755367923555,-74.9872498099864 61.49483398392944,-75.11460112605263 61.51009156213615,-75.24221058080181 61.523322572841984,-75.37004604923612 61.53452368521073,-75.49807534946001 61.543692079422264,-75.62626625078182 61.55082544738236,-75.7545864818277 61.5559219933038,-75.88300373866565 61.558980434158386,-76.01148569293807 61.559999999999995,-76.14 61.56,-118.25999999999999 61.55898043415839,-118.38851430706193 61.555921993303805,-118.51699626133434 61.550825447382365,-118.64541351817229 61.54369207942227,-118.77373374921817 61.534523685210736,-118.90192465053998 61.52332257284199,-119.02995395076387 61.510091562136154,-119.15778941919818 61.494833983929446,-119.28539887394736 61.477553679235555,-119.4127501900136 61.45825499827879,-119.53981130738413 61.436942799398885,-119.66655023910212 61.41362244782792,-119.7929350793193 61.3882998143397,-119.91893401132803 61.3609812737718,-120.04451531557096 61.331673703420684,-120.16964737762635 61.30038448131049,-120.29429869616673 61.26712148433553,-120.41843789088927 61.231893086277424,-120.54203371041557 61.19470815569699,-120.66505504015902 61.15557605370165,-120.78747091015774 61.11450663158881,-120.9092505028711 61.07151022836586,-121.0303631609379 61.02659766814737,-121.15077839489415 60.979780257430185,-121.27046589084864 60.93106978224711,-121.38939551811433 60.88047850519976,-121.50753733679356 60.8280191623716,-121.62486160531526 60.77370496012163,-121.74133878792229 60.71754957175981,-121.85693956210676 60.659567134104876,-121.97163482599201 60.59977224392541,-122.08539570565871 60.53817995426525,-122.19819356241378 60.47480577065395,-122.30999999999999 60.409665647203305,-122.42078687174458 60.342775982591064,-122.53052628764505 60.27415361593256,-122.63919062139033 60.20381582254164,-122.74675251731549 60.13178030958164,-122.85318489728843 60.05806521160772,-122.95846096752669 59.98268908600157,-123.06255422534258 59.90567090829973,-123.16543846581509 59.82703006741657,-123.26708778838689 59.746786360763224,-123.36747660338463 59.664959989263714,-123.46657963846094 59.58157155226949,-123.56437194495679 59.49664204237361,-123.66082890418195 59.410192840126015,-123.75592623361275 59.32224570865107,-123.84963999300508 59.23282278816878,-123.94194659042118 59.14194659042119,-124.03282278816877 59.0496399930051,-124.12224570865105 58.955926233612765,-124.21019284012601 58.86082890418196,-124.29664204237359 58.76437194495681,-124.38157155226946 58.666579638460966,-124.4649599892637 58.56747660338463,-124.54678636076322 58.46708778838689,-124.62703006741657 58.365438465815096,-124.70567090829972 58.26255422534258,-124.78268908600157 58.1584609675267,-124.85806521160771 58.05318489728844,-124.93178030958163 57.94675251731549,-125.00381582254163 57.83919062139033,-125.07415361593254 57.73052628764507,-125.14277598259105 57.620786871744585,-125.2096656472033 57.51,-125.27480577065394 57.39819356241379,-125.33817995426524 57.28539570565872,-125.39977224392538 57.17163482599202,-125.45956713410486 57.05693956210677,-125.5175495717598 56.941338787922284,-125.57370496012162 56.82486160531527,-125.62801916237159 56.707537336793564,-125.68047850519974 56.58939551811434,-125.73106978224709 56.47046589084865,-125.77978025743018 56.35077839489415,-125.82659766814734 56.23036316093791,-125.87151022836584 56.10925050287111,-125.9145066315888 55.98747091015775,-125.95557605370163 55.86505504015902,-125.99470815569698 55.742033710415576,-126.03189308627742 55.618437890889275,-126.0671214843355 55.49429869616674,-126.10038448131046 55.36964737762635,-126.13167370342066 55.24451531557097,-126.16098127377177 55.11893401132804,-126.18829981433969 54.992935079319324,-126.2136224478279 54.866550239102125,-126.23694279939888 54.73981130738413,-126.25825499827877 54.61275019001361,-126.27755367923554 54.48539887394737,-126.29483398392942 54.35778941919819,-126.31009156213614 54.22995395076388,-126.32332257284196 54.10192465053998,-126.33452368521071 53.97373374921817,-126.34369207942224 53.84541351817231,-126.35082544738233 53.716996261334344,-126.35592199330377 53.58851430706194,-126.35898043415837 53.459999999999994,-126.35999999999997 43.74,-126.35999999999999 43.611485692938054,-126.35898043415838 43.48300373866566,-126.35592199330378 43.35458648182769,-126.35082544738235 43.226266250781826,-126.34369207942225 43.09807534946002,-126.33452368521073 42.97004604923612,-126.32332257284197 42.84221058080181,-126.31009156213615 42.714601126052635,-126.29483398392944 42.58724980998639,-126.27755367923555 42.460188692615866,-126.25825499827879 42.33344976089787,-126.23694279939888 42.20706492068068,-126.21362244782792 42.08106598867196,-126.1882998143397 41.955484684429024,-126.16098127377178 41.830352622373645,-126.13167370342067 41.70570130383326,-126.10038448131047 41.58156210911072,-126.06712148433552 41.45796628958442,-126.03189308627742 41.334944959840975,-125.994708155697 41.21252908984225,-125.95557605370165 41.09074949712888,-125.91450663158881 40.96963683906208,-125.87151022836585 40.849221605105846,-125.82659766814736 40.729534109151345,-125.77978025743019 40.61060448188566,-125.7310697822471 40.49246266320643,-125.68047850519976 40.375138394684726,-125.62801916237159 40.25866121207771,-125.57370496012163 40.143060437893226,-125.51754957175982 40.02836517400797,-125.45956713410487 39.914604294341274,-125.3997722439254 39.80180643758621,-125.33817995426526 39.69,-125.27480577065396 39.57921312825541,-125.20966564720331 39.469473712354926,-125.14277598259105 39.360809378609666,-125.07415361593256 39.25324748268451,-125.00381582254164 39.146815102711564,-124.93178030958164 39.041539032473295,-124.85806521160771 38.93744577465741,-124.78268908600157 38.83456153418491,-124.70567090829974 38.732912211613105,-124.62703006741657 38.63252339661537,-124.54678636076324 38.53342036153903,-124.46495998926372 38.43562805504319,-124.38157155226948 38.33917109581804,-124.2966420423736 38.24407376638723,-124.21019284012601 38.150360006994894,-124.12224570865105 38.058053409578804,-124.03282278816877 37.96717721183121,-123.9419465904212 37.87775429134893,-123.8496399930051 37.78980715987398,-123.75592623361275 37.70335795762639,-123.66082890418195 37.61842844773051,-123.5643719449568 37.53504001073628,-123.46657963846096 37.45321363923677,-123.36747660338463 37.37296993258343,-123.26708778838689 37.29432909170026,-123.1654384658151 37.217310913998425,-123.06255422534258 37.14193478839228,-122.95846096752669 37.06821969041835,-122.85318489728843 36.99618417745835,-122.74675251731549 36.925846384067434,-122.63919062139034 36.85722401740893,-122.53052628764506 36.79033435279669,-122.42078687174458 36.72519422934605,-122.30999999999999 36.66182004573474,-122.19819356241379 36.60022775607459,-122.08539570565873 36.54043286589512,-121.97163482599203 36.482450428240185,-121.85693956210676 36.42629503987837,-121.74133878792229 36.371980837628406,-121.62486160531527 36.31952149480024,-121.50753733679356 36.268930217752896,-121.38939551811434 36.22021974256981,-121.27046589084864 36.173402331852635,-121.15077839489415 36.12848977163414,-121.03036316093791 36.085493368411186,-120.9092505028711 36.044423946298345,-120.78747091015774 36.005291844303,-120.66505504015902 35.96810691372257,-120.54203371041557 35.93287851566448,-120.41843789088928 35.899615518689515,-120.29429869616673 35.86832629657931,-120.16964737762635 35.839018726228204,-120.04451531557098 35.81170018566029,-119.91893401132803 35.786377552172084,-119.7929350793193 35.76305720060112,-119.66655023910212 35.74174500172121,-119.53981130738413 35.72244632076445,-119.4127501900136 35.70516601607056,-119.28539887394736 35.68990843786385,-119.15778941919818 35.67667742715801,-119.02995395076387 35.66547631478927,-118.90192465053998 35.65630792057773,-118.77373374921817 35.64917455261764,-118.64541351817229 35.6440780066962,-118.51699626133434 35.64101956584161,-118.38851430706193 35.64,-118.25999999999999 35.64,-76.14 35.64101956584161,-76.01148569293807 35.6440780066962,-75.88300373866565 35.64917455261764,-75.7545864818277 35.65630792057773,-75.62626625078182 35.66547631478927,-75.49807534946001 35.67667742715801,-75.37004604923612 35.68990843786385,-75.24221058080181 35.70516601607056,-75.11460112605263 35.72244632076445,-74.9872498099864 35.741745001721206,-74.86018869261588 35.76305720060112,-74.73344976089787 35.78637755217208,-74.60706492068068 35.81170018566029,-74.48106598867196 35.839018726228204,-74.35548468442903 35.86832629657931,-74.23035262237364 35.899615518689515,-74.10570130383326 35.93287851566448,-73.98156210911073 35.96810691372257,-73.85796628958443 36.005291844303,-73.73494495984097 36.044423946298345,-73.61252908984225 36.085493368411186,-73.49074949712889 36.128489771634136,-73.36963683906208 36.173402331852635,-73.24922160510584 36.22021974256981,-73.12953410915135 36.268930217752896,-73.01060448188565 36.31952149480024,-72.89246266320643 36.371980837628406,-72.77513839468472 36.42629503987837,-72.6586612120777 36.482450428240185,-72.54306043789323 36.54043286589512,-72.42836517400798 36.60022775607459,-72.31460429434127 36.66182004573474,-72.2018064375862 36.72519422934605,-72.09 36.79033435279669,-71.97921312825541 36.85722401740893,-71.86947371235493 36.925846384067434,-71.76080937860965 36.99618417745835,-71.6532474826845 37.06821969041835,-71.54681510271156 37.14193478839228,-71.4415390324733 37.217310913998425,-71.33744577465741 37.29432909170026,-71.23456153418489 37.37296993258342,-71.1329122116131 37.45321363923677,-71.03252339661536 37.53504001073628,-70.93342036153904 37.61842844773051,-70.8356280550432 37.70335795762639,-70.73917109581804 37.78980715987398,-70.64407376638724 37.87775429134893,-70.5503600069949 37.96717721183121,-70.4580534095788 38.058053409578804,-70.36717721183122 38.150360006994894,-70.27775429134894 38.24407376638723,-70.18980715987398 38.33917109581804,-70.10335795762639 38.43562805504319,-70.01842844773051 38.53342036153903,-69.93504001073629 38.63252339661537,-69.85321363923676 38.73291221161309,-69.77296993258342 38.8345615341849,-69.69432909170027 38.93744577465741,-69.61731091399842 39.041539032473295,-69.54193478839228 39.14681510271156,-69.46821969041835 39.25324748268451,-69.39618417745835 39.360809378609666,-69.32584638406743 39.469473712354926,-69.25722401740894 39.57921312825541,-69.19033435279668 39.69,-69.12519422934604 39.8018064375862,-69.06182004573473 39.91460429434127,-69.0002277560746 40.02836517400797,-68.94043286589512 40.14306043789323,-68.88245042824018 40.25866121207771,-68.82629503987836 40.375138394684726,-68.7719808376284 40.49246266320643,-68.71952149480025 40.61060448188566,-68.66893021775289 40.729534109151345,-68.6202197425698 40.84922160510584,-68.57340233185263 40.96963683906208,-68.52848977163414 41.09074949712888,-68.48549336841118 41.21252908984225,-68.44442394629834 41.334944959840975,-68.405291844303 41.45796628958442,-68.36810691372257 41.58156210911071,-68.33287851566448 41.70570130383326,-68.29961551868952 41.830352622373645,-68.26832629657932 41.955484684429024,-68.23901872622821 42.08106598867196,-68.21170018566029 42.20706492068067,-68.18637755217208 42.33344976089787,-68.16305720060112 42.46018869261586,-68.1417450017212 42.58724980998639,-68.12244632076444 42.714601126052635,-68.10516601607056 42.842210580801805,-68.08990843786384 42.97004604923612,-68.07667742715802 43.09807534946002,-68.06547631478927 43.226266250781826,-68.05630792057774 43.35458648182768,-68.04917455261764 43.48300373866566,-68.04407800669621 43.61148569293806,-68.04101956584161 43.74,-68.04 53.459999999999994,-68.04 " style="stroke:red;fill:none;stroke-width:1;stroke-linecap:round;stroke-linejoin:round;" /><polygon points="85.86,-35.64 85.98851430706193,-35.64101956584161 86.11699626133435,-35.6440780066962 86.24541351817231,-35.64917455261764 86.37373374921816,-35.65630792057773 86.50192465053998,-35.66547631478927 86.62995395076388,-35.67667742715801 86.75778941919818,-35.68990843786385 86.88539887394737,-35.70516601607056 87.01275019001359,-35.72244632076445 87.13981130738414,-35.74174500172121 87.26655023910213,-35.76305720060112 87.39293507931932,-35.78637755217208 87.51893401132803,-35.81170018566029 87.64451531557098,-35.839018726228204 87.76964737762636,-35.86832629657931 87.89429869616674,-35.899615518689515 88.01843789088929,-35.93287851566448 88.14203371041557,-35.96810691372257 88.26505504015903,-36.005291844303 88.38747091015775,-36.044423946298345 88.50925050287111,-36.085493368411186 88.63036316093792,-36.12848977163414 88.75077839489416,-36.173402331852635 88.87046589084865,-36.22021974256981 88.98939551811434,-36.268930217752896 89.10753733679357,-36.31952149480024 89.22486160531528,-36.371980837628406 89.34133878792228,-36.42629503987837 89.45693956210675,-36.482450428240185 89.57163482599202,-36.54043286589512 89.68539570565872,-36.60022775607459 89.79819356241379,-36.66182004573474 89.91,-36.72519422934605 90.02078687174458,-36.79033435279669 90.13052628764507,-36.85722401740893 90.23919062139034,-36.925846384067434 90.3467525173155,-36.99618417745835 90.45318489728844,-37.06821969041835 90.5584609675267,-37.14193478839228 90.66255422534257,-37.217310913998425 90.7654384658151,-37.29432909170026 90.8670877883869,-37.37296993258342 90.96747660338463,-37.45321363923677 91.06657963846096,-37.53504001073628 91.16437194495681,-37.61842844773051 91.26082890418195,-37.70335795762639 91.35592623361276,-37.78980715987399 91.4496399930051,-37.877754291348936 91.5419465904212,-37.96717721183121 91.63282278816878,-38.058053409578804 91.72224570865106,-38.150360006994894 91.810192840126,-38.24407376638723 91.89664204237361,-38.33917109581804 91.98157155226949,-38.43562805504319 92.06495998926373,-38.53342036153903 92.14678636076323,-38.63252339661537 92.22703006741656,-38.732912211613105 92.30567090829973,-38.8345615341849 92.38268908600156,-38.93744577465741 92.4580652116077,-39.041539032473295 92.53178030958163,-39.14681510271156 92.60381582254163,-39.25324748268451 92.67415361593257,-39.360809378609666 92.74277598259106,-39.469473712354926 92.80966564720332,-39.57921312825541 92.87480577065395,-39.69 92.93817995426525,-39.80180643758621 92.9997722439254,-39.914604294341274 93.05956713410487,-40.02836517400797 93.11754957175981,-40.14306043789323 93.17370496012163,-40.25866121207771 93.2280191623716,-40.375138394684726 93.28047850519977,-40.49246266320643 93.3310697822471,-40.61060448188566 93.37978025743018,-40.729534109151345 93.42659766814735,-40.84922160510584 93.47151022836586,-40.96963683906208 93.5145066315888,-41.09074949712888 93.55557605370166,-41.21252908984225 93.59470815569699,-41.334944959840975 93.63189308627742,-41.45796628958442 93.66712148433552,-41.58156210911072 93.70038448131048,-41.70570130383326 93.73167370342068,-41.830352622373645 93.76098127377179,-41.955484684429024 93.7882998143397,-42.08106598867196 93.81362244782791,-42.20706492068068 93.83694279939887,-42.33344976089787 93.85825499827878,-42.460188692615866 93.87755367923555,-42.58724980998639 93.89483398392944,-42.714601126052635 93.91009156213615,-42.84221058080181 93.92332257284198,-42.97004604923612 93.93452368521072,-43.09807534946002 93.94369207942225,-43.226266250781826 93.95082544738236,-43.35458648182769 93.95592199330379,-43.48300373866566 93.95898043415838,-43.611485692938054 93.96,-43.74 93.96,-85.86 93.95898043415838,-85.98851430706193 93.95592199330379,-86.11699626133435 93.95082544738236,-86.24541351817231 93.94369207942225,-86.37373374921816 93.93452368521072,-86.50192465053998 93.92332257284198,-86.62995395076388 93.91009156213615,-86.75778941919818 93.89483398392944,-86.88539887394737 93.87755367923555,-87.01275019001359 93.85825499827878,-87.13981130738414 93.83694279939887,-87.26655023910213 93.81362244782791,-87.39293507931932 93.7882998143397,-87.51893401132803 93.76098127377179,-87.64451531557097 93.73167370342068,-87.76964737762636 93.70038448131048,-87.89429869616674 93.66712148433552,-88.01843789088929 93.63189308627742,-88.14203371041557 93.59470815569699,-88.26505504015903 93.55557605370166,-88.38747091015775 93.5145066315888,-88.50925050287111 93.47151022836586,-88.63036316093792 93.42659766814735,-88.75077839489416 93.37978025743018,-88.87046589084865 93.3310697822471,-88.98939551811434 93.28047850519977,-89.10753733679357 93.2280191623716,-89.22486160531528 93.17370496012163,-89.34133878792228 93.11754957175981,-89.45693956210675 93.05956713410487,-89.571634825992 92.9997722439254,-89.68539570565872 92.93817995426525,-89.79819356241379 92.87480577065395,-89.91 92.80966564720332,-90.02078687174458 92.74277598259106,-90.13052628764507 92.67415361593257,-90.23919062139034 92.60381582254163,-90.3467525173155 92.53178030958163,-90.45318489728844 92.4580652116077,-90.5584609675267 92.38268908600156,-90.66255422534257 92.30567090829973,-90.7654384658151 92.22703006741656,-90.8670877883869 92.14678636076323,-90.96747660338463 92.06495998926373,-91.06657963846096 91.98157155226949,-91.1643719449568 91.89664204237361,-91.26082890418195 91.810192840126,-91.35592623361276 91.72224570865106,-91.4496399930051 91.63282278816878,-91.5419465904212 91.5419465904212,-91.63282278816878 91.4496399930051,-91.72224570865106 91.35592623361276,-91.810192840126 91.26082890418195,-91.89664204237361 91.1643719449568,-91.98157155226949 91.06657963846096,-92.06495998926373 90.96747660338463,-92.14678636076323 90.8670877883869,-92.22703006741656 90.7654384658151,-92.30567090829973 90.66255422534257,-92.38268908600156 90.5584609675267,-92.4580652116077 90.45318489728844,-92.53178030958163 90.3467525173155,-92.60381582254163 90.23919062139034,-92.67415361593257 90.13052628764507,-92.74277598259106 90.02078687174458,-92.80966564720332 89.91,-92.87480577065395 89.79819356241379,-92.93817995426525 89.68539570565872,-92.9997722439254 89.57163482599202,-93.05956713410487 89.45693956210675,-93.11754957175981 89.34133878792228,-93.17370496012163 89.22486160531528,-93.2280191623716 89.10753733679357,-93.28047850519977 88.98939551811434,-93.3310697822471 88.87046589084865,-93.37978025743018 88.75077839489416,-93.42659766814735 88.63036316093792,-93.47151022836586 88.50925050287111,-93.5145066315888 88.38747091015775,-93.55557605370166 88.26505504015903,-93.59470815569699 88.14203371041557,-93.63189308627742 88.01843789088929,-93.66712148433552 87.89429869616674,-93.70038448131048 87.76964737762636,-93.73167370342068 87.64451531557097,-93.76098127377179 87.51893401132803,-93.7882998143397 87.39293507931932,-93.81362244782791 87.26655023910213,-93.83694279939887 87.13981130738414,-93.85825499827878 87.01275019001359,-93.87755367923555 86.88539887394737,-93.89483398392944 86.75778941919818,-93.91009156213615 86.62995395076388,-93.92332257284198 86.50192465053998,-93.93452368521072 86.37373374921816,-93.94369207942225 86.2454135181723,-93.95082544738236 86.11699626133435,-93.95592199330379 85.98851430706193,-93.95898043415838 85.86,-93.96 76.14,-93.96 76.01148569293807,-93.95898043415838 75.88300373866565,-93.95592199330379 75.75458648182769,-93.95082544738236 75.62626625078182,-93.94369207942225 75.49807534946001,-93.93452368521072 75.37004604923612,-93.92332257284198 75.24221058080181,-93.91009156213615 75.11460112605263,-93.89483398392944 74.9872498099864,-93.87755367923555 74.86018869261586,-93.85825499827878 74.73344976089787,-93.83694279939887 74.60706492068068,-93.81362244782791 74.48106598867196,-93.7882998143397 74.35548468442903,-93.76098127377179 74.23035262237364,-93.73167370342068 74.10570130383326,-93.70038448131048 73.98156210911073,-93.66712148433552 73.85796628958443,-93.63189308627742 73.73494495984097,-93.59470815569699 73.61252908984225,-93.55557605370166 73.49074949712889,-93.5145066315888 73.36963683906208,-93.47151022836586 73.24922160510584,-93.42659766814735 73.12953410915135,-93.37978025743018 73.01060448188565,-93.3310697822471 72.89246266320643,-93.28047850519977 72.77513839468472,-93.2280191623716 72.6586612120777,-93.17370496012163 72.54306043789323,-93.11754957175981 72.42836517400798,-93.05956713410487 72.31460429434127,-92.9997722439254 72.2018064375862,-92.93817995426525 72.09,-92.87480577065395 71.97921312825541,-92.80966564720332 71.86947371235493,-92.74277598259106 71.76080937860965,-92.67415361593257 71.6532474826845,-92.60381582254163 71.54681510271156,-92.53178030958163 71.4415390324733,-92.4580652116077 71.33744577465741,-92.38268908600156 71.23456153418489,-92.30567090829975 71.1329122116131,-92.22703006741656 71.03252339661536,-92.14678636076323 70.93342036153904,-92.06495998926373 70.8356280550432,-91.98157155226949 70.73917109581804,-91.89664204237361 70.64407376638724,-91.810192840126 70.5503600069949,-91.72224570865106 70.4580534095788,-91.63282278816878 70.36717721183122,-91.5419465904212 70.27775429134894,-91.4496399930051 70.18980715987398,-91.35592623361276 70.10335795762639,-91.26082890418195 70.01842844773051,-91.16437194495681 69.93504001073629,-91.06657963846096 69.85321363923676,-90.96747660338463 69.77296993258342,-90.8670877883869 69.69432909170027,-90.7654384658151 69.61731091399842,-90.66255422534257 69.54193478839228,-90.5584609675267 69.46821969041835,-90.45318489728844 69.39618417745835,-90.3467525173155 69.32584638406743,-90.23919062139034 69.25722401740894,-90.13052628764507 69.19033435279668,-90.02078687174458 69.12519422934604,-89.91 69.06182004573473,-89.79819356241379 69.0002277560746,-89.68539570565872 68.94043286589512,-89.57163482599202 68.88245042824018,-89.45693956210675 68.82629503987836,-89.34133878792228 68.7719808376284,-89.22486160531528 68.71952149480025,-89.10753733679357 68.66893021775289,-88.98939551811434 68.6202197425698,-88.87046589084865 68.57340233185263,-88.75077839489416 68.52848977163414,-88.63036316093792 68.48549336841118,-88.50925050287111 68.44442394629834,-88.38747091015775 68.405291844303,-88.26505504015903 68.36810691372257,-88.14203371041557 68.33287851566448,-88.01843789088929 68.29961551868952,-87.89429869616674 68.26832629657932,-87.76964737762636 68.23901872622821,-87.64451531557098 68.21170018566029,-87.51893401132803 68.18637755217208,-87.39293507931932 68.16305720060112,-87.26655023910213 68.1417450017212,-87.13981130738414 68.12244632076444,-87.01275019001359 68.10516601607056,-86.88539887394737 68.08990843786384,-86.75778941919818 68.07667742715802,-86.62995395076388 68.06547631478927,-86.50192465053998 68.05630792057774,-86.37373374921816 68.04917455261764,-86.2454135181723 68.04407800669621,-86.11699626133435 68.04101956584161,-85.98851430706193 68.04,-85.86 68.04,-43.74 68.04101956584161,-43.61148569293806 68.0440780066962,-43.48300373866566 68.04917455261764,-43.35458648182769 68.05630792057774,-43.226266250781826 68.06547631478927,-43.09807534946002 68.07667742715802,-42.97004604923612 68.08990843786384,-42.84221058080181 68.10516601607056,-42.714601126052635 68.12244632076444,-42.58724980998639 68.1417450017212,-42.460188692615866 68.16305720060112,-42.33344976089787 68.18637755217208,-42.20706492068067 68.21170018566029,-42.08106598867196 68.23901872622821,-41.955484684429024 68.26832629657932,-41.830352622373645 68.29961551868952,-41.705701303833266 68.33287851566448,-41.58156210911072 68.36810691372257,-41.45796628958442 68.405291844303,-41.334944959840975 68.44442394629834,-41.21252908984225 68.48549336841118,-41.09074949712888 68.52848977163414,-40.96963683906208 68.57340233185263,-40.849221605105846 68.6202197425698,-40.72953410915135 68.66893021775289,-40.61060448188566 68.71952149480023,-40.49246266320643 68.7719808376284,-40.375138394684726 68.82629503987836,-40.25866121207771 68.88245042824018,-40.143060437893226 68.94043286589512,-40.02836517400797 69.0002277560746,-39.914604294341274 69.06182004573473,-39.80180643758621 69.12519422934604,-39.69 69.19033435279668,-39.57921312825541 69.25722401740894,-39.469473712354926 69.32584638406743,-39.360809378609666 69.39618417745835,-39.25324748268451 69.46821969041835,-39.146815102711564 69.54193478839228,-39.041539032473295 69.61731091399842,-38.93744577465741 69.69432909170025,-38.83456153418491 69.77296993258342,-38.732912211613105 69.85321363923676,-38.63252339661537 69.93504001073627,-38.53342036153903 70.01842844773051,-38.43562805504319 70.10335795762639,-38.33917109581804 70.18980715987398,-38.24407376638723 70.27775429134894,-38.150360006994894 70.36717721183122,-38.058053409578804 70.4580534095788,-37.96717721183121 70.5503600069949,-37.877754291348936 70.64407376638724,-37.78980715987399 70.73917109581804,-37.70335795762639 70.83562805504319,-37.61842844773051 70.93342036153904,-37.53504001073628 71.03252339661536,-37.45321363923677 71.1329122116131,-37.37296993258343 71.23456153418489,-37.29432909170026 71.3374457746574,-37.21731091399843 71.4415390324733,-37.14193478839228 71.54681510271155,-37.06821969041836 71.6532474826845,-36.99618417745835 71.76080937860965,-36.925846384067434 71.86947371235493,-36.85722401740893 71.97921312825541,-36.79033435279669 72.09,-36.725194229346044 72.2018064375862,-36.66182004573474 72.31460429434127,-36.60022775607459 72.42836517400796,-36.54043286589512 72.54306043789323,-36.482450428240185 72.6586612120777,-36.42629503987837 72.77513839468472,-36.371980837628406 72.89246266320643,-36.31952149480024 73.01060448188565,-36.268930217752896 73.12953410915135,-36.22021974256982 73.24922160510584,-36.173402331852635 73.36963683906208,-36.128489771634136 73.49074949712889,-36.08549336841119 73.61252908984225,-36.044423946298345 73.73494495984097,-36.005291844303 73.85796628958443,-35.96810691372257 73.98156210911071,-35.93287851566448 74.10570130383326,-35.899615518689515 74.23035262237364,-35.86832629657931 74.35548468442902,-35.839018726228204 74.48106598867196,-35.81170018566029 74.60706492068068,-35.786377552172084 74.73344976089787,-35.76305720060112 74.86018869261586,-35.74174500172121 74.9872498099864,-35.72244632076445 75.11460112605263,-35.70516601607056 75.24221058080181,-35.68990843786385 75.37004604923612,-35.67667742715801 75.49807534946001,-35.66547631478927 75.62626625078182,-35.65630792057773 75.75458648182769,-35.64917455261764 75.88300373866565,-35.6440780066962 76.01148569293807,-35.64101956584161 76.14,-35.64 85.86,-35.64 " style="stroke:blue;fill:none;stroke-width:1;stroke-linecap:round;stroke-linejoin:round;" /><polygon points="118.25999999999999,-3.2399999999999953 118.38851430706193,-3.2410195658416074 118.51699626133434,-3.2440780066961965 118.6454135181723,-3.249174552617631 118.77373374921817,-3.2563079205777314 118.90192465053998,-3.265476314789263 119.02995395076387,-3.2766774271580106 119.15778941919818,-3.2899084378638372 119.28539887394736,-3.305166016070553 119.41275019001361,-3.3224463207644406 119.53981130738413,-3.341745001721202 119.66655023910212,-3.3630572006011104 119.7929350793193,-3.386377552172071 119.91893401132803,-3.4117001856602878 120.04451531557098,-3.4390187262281984 120.16964737762635,-3.468326296579308 120.29429869616673,-3.49961551868951 120.41843789088928,-3.532878515664465 120.54203371041557,-3.5681069137225667 120.66505504015902,-3.605291844302998 120.78747091015774,-3.6444239462983385 120.9092505028711,-3.6854933684111812 121.03036316093791,-3.728489771634138 121.15077839489415,-3.7734023318526315 121.27046589084864,-3.8202197425698077 121.38939551811434,-3.8689302177528875 121.50753733679356,-3.919521494800233 121.62486160531527,-3.971980837628398 121.74133878792229,-4.026295039878364 121.85693956210676,-4.0824504282401755 121.97163482599203,-4.140432865895116 122.08539570565873,-4.2002277560745815 122.19819356241379,-4.26182004573474 122.30999999999999,-4.325194229346044 122.42078687174458,-4.390334352796683 122.53052628764506,-4.4572240174089295 122.63919062139034,-4.52584638406743 122.74675251731549,-4.5961841774583485 122.85318489728844,-4.6682196904183515 122.95846096752669,-4.741934788392278 123.0625542253426,-4.817310913998423 123.1654384658151,-4.894329091700257 123.26708778838689,-4.972969932583419 123.36747660338463,-5.053213639236768 123.46657963846096,-5.135040010736275 123.5643719449568,-5.218428447730505 123.66082890418195,-5.3033579576263845 123.75592623361277,-5.389807159873978 123.8496399930051,-5.47775429134893 123.9419465904212,-5.567177211831209 124.03282278816879,-5.6580534095787955 124.12224570865105,-5.750360006994891 124.21019284012603,-5.844073766387227 124.2966420423736,-5.939171095818036 124.38157155226948,-6.035628055043189 124.46495998926372,-6.13342036153903 124.54678636076324,-6.232523396615366 124.62703006741658,-6.332912211613096 124.70567090829974,-6.434561534184898 124.78268908600157,-6.537445774657411 124.85806521160771,-6.641539032473294 124.93178030958164,-6.7468151027115555 125.00381582254164,-6.853247482684506 125.07415361593256,-6.960809378609658 125.14277598259106,-7.069473712354929 125.20966564720331,-7.179213128255407 125.27480577065396,-7.29 125.33817995426526,-7.4018064375862025 125.3997722439254,-7.514604294341269 125.45956713410487,-7.628365174007975 125.51754957175982,-7.74306043789323 125.57370496012163,-7.85866121207771 125.62801916237159,-7.975138394684719 125.68047850519976,-8.09246266320643 125.7310697822471,-8.210604481885659 125.77978025743019,-8.329534109151346 125.82659766814736,-8.449221605105837 125.87151022836585,-8.569636839062083 125.91450663158881,-8.690749497128884 125.95557605370165,-8.812529089842254 125.994708155697,-8.934944959840973 126.03189308627744,-9.057966289584419 126.06712148433552,-9.181562109110716 126.10038448131047,-9.30570130383326 126.13167370342067,-9.43035262237364 126.16098127377178,-9.555484684429022 126.1882998143397,-9.681065988671957 126.21362244782792,-9.807064920680679 126.23694279939888,-9.933449760897865 126.25825499827879,-10.060188692615865 126.27755367923555,-10.187249809986392 126.29483398392944,-10.314601126052631 126.31009156213615,-10.442210580801811 126.32332257284197,-10.570046049236122 126.33452368521073,-10.698075349460014 126.34369207942225,-10.826266250781828 126.35082544738235,-10.954586481827688 126.3559219933038,-11.083003738665653 126.35898043415838,-11.211485692938057 126.35999999999999,-11.34 126.35999999999999,-21.059999999999995 126.35898043415838,-21.18851430706194 126.35592199330378,-21.316996261334346 126.35082544738235,-21.44541351817231 126.34369207942225,-21.573733749218167 126.33452368521073,-21.701924650539983 126.32332257284197,-21.829953950763873 126.31009156213615,-21.957789419198185 126.29483398392944,-22.085398873947366 126.27755367923555,-22.212750190013608 126.25825499827879,-22.339811307384128 126.23694279939888,-22.466550239102133 126.21362244782792,-22.592935079319318 126.1882998143397,-22.71893401132804 126.16098127377178,-22.844515315570977 126.13167370342067,-22.96964737762636 126.10038448131047,-23.09429869616674 126.06712148433552,-23.218437890889277 126.03189308627742,-23.342033710415578 125.994708155697,-23.465055040159022 125.95557605370165,-23.58747091015774 125.91450663158881,-23.709250502871114 125.87151022836585,-23.830363160937914 125.82659766814736,-23.950778394894158 125.77978025743019,-24.07046589084865 125.7310697822471,-24.18939551811434 125.68047850519976,-24.30753733679357 125.62801916237159,-24.42486160531528 125.57370496012163,-24.541338787922285 125.51754957175982,-24.656939562106764 125.45956713410487,-24.77163482599202 125.3997722439254,-24.885395705658727 125.33817995426526,-24.998193562413793 125.27480577065396,-25.109999999999996 125.20966564720331,-25.220786871744586 125.14277598259105,-25.330526287645064 125.07415361593256,-25.43919062139034 125.00381582254164,-25.54675251731549 124.93178030958164,-25.653184897288437 124.85806521160771,-25.758460967526702 124.78268908600157,-25.862554225342585 124.70567090829972,-25.965438465815094 124.62703006741657,-26.067087788386896 124.54678636076324,-26.167476603384628 124.46495998926372,-26.266579638460964 124.38157155226948,-26.364371944956805 124.2966420423736,-26.460828904181955 124.21019284012601,-26.55592623361277 124.12224570865105,-26.649639993005103 124.03282278816877,-26.741946590421197 123.9419465904212,-26.832822788168787 123.8496399930051,-26.922245708651065 123.75592623361275,-27.010192840126017 123.66082890418195,-27.09664204237361 123.56437194495679,-27.18157155226949 123.46657963846096,-27.264959989263716 123.36747660338463,-27.346786360763225 123.26708778838689,-27.427030067416574 123.1654384658151,-27.505670908299738 123.06255422534258,-27.58268908600157 122.95846096752669,-27.658065211607717 122.85318489728843,-27.73178030958164 122.74675251731549,-27.803815822541644 122.63919062139034,-27.874153615932563 122.53052628764506,-27.942775982591062 122.42078687174458,-28.00966564720331 122.30999999999999,-28.07480577065395 122.19819356241379,-28.138179954265254 122.08539570565873,-28.19977224392541 121.97163482599203,-28.259567134104874 121.85693956210676,-28.317549571759816 121.74133878792229,-28.37370496012163 121.62486160531527,-28.428019162371594 121.50753733679356,-28.48047850519976 121.38939551811434,-28.531069782247105 121.27046589084864,-28.579780257430183 121.15077839489415,-28.626597668147358 121.03036316093791,-28.671510228365854 120.9092505028711,-28.71450663158881 120.78747091015774,-28.755576053701652 120.66505504015902,-28.794708155696995 120.54203371041557,-28.831893086277425 120.41843789088928,-28.867121484335527 120.29429869616673,-28.900384481310482 120.16964737762635,-28.931673703420685 120.04451531557096,-28.960981273771793 119.91893401132803,-28.988299814339705 119.7929350793193,-29.01362244782792 119.66655023910212,-29.036942799398883 119.53981130738413,-29.05825499827879 119.4127501900136,-29.077553679235553 119.28539887394736,-29.094833983929437 119.15778941919818,-29.110091562136155 119.02995395076387,-29.123322572841982 118.90192465053998,-29.13452368521073 118.77373374921817,-29.14369207942226 118.64541351817229,-29.15082544738236 118.51699626133434,-29.155921993303796 118.38851430706193,-29.158980434158384 118.25999999999999,-29.159999999999997 76.14,-29.159999999999997 76.01148569293807,-29.158980434158384 75.88300373866565,-29.155921993303796 75.75458648182769,-29.15082544738236 75.62626625078182,-29.14369207942226 75.49807534946001,-29.13452368521073 75.37004604923612,-29.123322572841982 75.24221058080181,-29.110091562136155 75.11460112605263,-29.094833983929437 74.9872498099864,-29.077553679235553 74.86018869261586,-29.05825499827879 74.73344976089787,-29.036942799398883 74.60706492068068,-29.01362244782792 74.48106598867196,-28.988299814339705 74.35548468442903,-28.960981273771793 74.23035262237364,-28.931673703420685 74.10570130383326,-28.900384481310482 73.98156210911073,-28.867121484335527 73.85796628958443,-28.831893086277425 73.73494495984097,-28.794708155696995 73.61252908984225,-28.755576053701652 73.49074949712889,-28.714506631588808 73.36963683906208,-28.671510228365854 73.24922160510584,-28.626597668147358 73.12953410915135,-28.579780257430183 73.01060448188565,-28.531069782247105 72.89246266320643,-28.48047850519976 72.77513839468472,-28.428019162371594 72.6586612120777,-28.37370496012163 72.54306043789323,-28.317549571759816 72.42836517400798,-28.259567134104874 72.31460429434127,-28.19977224392541 72.2018064375862,-28.138179954265254 72.09,-28.074805770653946 71.97921312825541,-28.009665647203313 71.86947371235493,-27.942775982591062 71.76080937860965,-27.874153615932563 71.6532474826845,-27.803815822541644 71.54681510271156,-27.731780309581644 71.4415390324733,-27.658065211607717 71.33744577465741,-27.582689086001572 71.23456153418489,-27.505670908299738 71.1329122116131,-27.427030067416574 71.03252339661536,-27.346786360763225 70.93342036153904,-27.264959989263716 70.8356280550432,-27.18157155226949 70.73917109581804,-27.096642042373613 70.64407376638724,-27.010192840126017 70.5503600069949,-26.92224570865107 70.4580534095788,-26.832822788168787 70.36717721183122,-26.741946590421197 70.27775429134894,-26.649639993005103 70.18980715987398,-26.55592623361277 70.10335795762639,-26.460828904181955 70.01842844773051,-26.364371944956805 69.93504001073629,-26.266579638460968 69.85321363923676,-26.167476603384628 69.77296993258342,-26.0670877883869 69.69432909170027,-25.965438465815094 69.61731091399842,-25.862554225342585 69.54193478839228,-25.758460967526702 69.46821969041835,-25.65318489728844 69.39618417745835,-25.54675251731549 69.32584638406743,-25.43919062139034 69.25722401740894,-25.330526287645068 69.19033435279668,-25.220786871744586 69.12519422934604,-25.109999999999996 69.06182004573473,-24.998193562413793 69.0002277560746,-24.885395705658727 68.94043286589512,-24.77163482599202 68.88245042824018,-24.656939562106764 68.82629503987836,-24.54133878792229 68.7719808376284,-24.424861605315275 68.71952149480025,-24.30753733679357 68.66893021775289,-24.18939551811434 68.6202197425698,-24.07046589084865 68.57340233185263,-23.950778394894158 68.52848977163414,-23.830363160937914 68.48549336841118,-23.709250502871114 68.44442394629834,-23.58747091015774 68.405291844303,-23.465055040159026 68.36810691372257,-23.342033710415578 68.33287851566448,-23.218437890889277 68.29961551868952,-23.09429869616674 68.26832629657932,-22.96964737762636 68.23901872622821,-22.844515315570977 68.21170018566029,-22.718934011328038 68.18637755217208,-22.59293507931932 68.16305720060112,-22.46655023910213 68.1417450017212,-22.339811307384128 68.12244632076444,-22.212750190013608 68.10516601607056,-22.085398873947366 68.08990843786384,-21.957789419198185 68.07667742715802,-21.829953950763873 68.06547631478927,-21.701924650539986 68.05630792057774,-21.573733749218167 68.04917455261764,-21.44541351817231 68.04407800669621,-21.316996261334346 68.04101956584161,-21.188514307061943 68.04,-21.059999999999995 68.04,-11.339999999999998 68.04101956584161,-11.211485692938053 68.0440780066962,-11.083003738665651 68.04917455261764,-10.954586481827686 68.05630792057774,-10.826266250781822 68.06547631478927,-10.698075349460009 68.07667742715802,-10.570046049236117 68.08990843786384,-10.44221058080181 68.10516601607056,-10.31460112605263 68.12244632076444,-10.187249809986389 68.1417450017212,-10.060188692615863 68.16305720060112,-9.933449760897863 68.18637755217208,-9.807064920680675 68.21170018566029,-9.681065988671952 68.23901872622821,-9.555484684429018 68.26832629657932,-9.430352622373636 68.29961551868952,-9.305701303833256 68.33287851566448,-9.181562109110715 68.36810691372257,-9.057966289584417 68.405291844303,-8.93494495984097 68.44442394629834,-8.81252908984225 68.48549336841118,-8.690749497128882 68.52848977163414,-8.569636839062081 68.57340233185263,-8.449221605105835 68.6202197425698,-8.329534109151345 68.66893021775289,-8.210604481885657 68.71952149480023,-8.092462663206424 68.7719808376284,-7.975138394684716 68.82629503987836,-7.858661212077707 68.88245042824018,-7.743060437893227 68.94043286589512,-7.628365174007974 69.0002277560746,-7.514604294341268 69.06182004573473,-7.4018064375862025 69.12519422934604,-7.2899999999999965 69.19033435279668,-7.179213128255408 69.25722401740894,-7.069473712354927 69.32584638406743,-6.960809378609657 69.39618417745835,-6.8532474826845045 69.46821969041835,-6.7468151027115555 69.54193478839228,-6.641539032473293 69.61731091399842,-6.537445774657411 69.69432909170025,-6.434561534184899 69.77296993258342,-6.3329122116130945 69.85321363923676,-6.232523396615365 69.93504001073627,-6.133420361539029 70.01842844773051,-6.035628055043189 70.10335795762639,-5.939171095818036 70.18980715987398,-5.844073766387227 70.27775429134894,-5.7503600069948915 70.36717721183122,-5.658053409578794 70.4580534095788,-5.567177211831209 70.5503600069949,-5.47775429134893 70.64407376638724,-5.389807159873979 70.73917109581804,-5.303357957626385 70.83562805504319,-5.218428447730506 70.93342036153904,-5.135040010736276 71.03252339661536,-5.053213639236767 71.1329122116131,-4.972969932583421 71.23456153418489,-4.894329091700257 71.3374457746574,-4.817310913998425 71.4415390324733,-4.741934788392279 71.54681510271155,-4.668219690418355 71.6532474826845,-4.596184177458349 71.76080937860965,-4.52584638406743 71.86947371235493,-4.457224017408932 71.97921312825541,-4.390334352796683 72.09,-4.325194229346043 72.2018064375862,-4.261820045734741 72.31460429434127,-4.200227756074585 72.42836517400796,-4.140432865895118 72.54306043789323,-4.0824504282401755 72.6586612120777,-4.026295039878367 72.77513839468472,-3.971980837628398 72.89246266320643,-3.9195214948002346 73.01060448188565,-3.8689302177528884 73.12953410915135,-3.8202197425698103 73.24922160510584,-3.7734023318526333 73.36963683906208,-3.728489771634139 73.49074949712889,-3.685493368411184 73.61252908984225,-3.6444239462983394 73.73494495984097,-3.6052918443029998 73.85796628958443,-3.5681069137225685 73.98156210911071,-3.5328785156644678 74.10570130383326,-3.4996155186895117 74.23035262237364,-3.468326296579309 74.35548468442902,-3.439018726228201 74.48106598867196,-3.4117001856602895 74.60706492068068,-3.386377552172074 74.73344976089787,-3.3630572006011126 74.86018869261586,-3.3417450017212036 74.9872498099864,-3.322446320764443 75.11460112605263,-3.305166016070555 75.24221058080181,-3.289908437863839 75.37004604923612,-3.2766774271580124 75.49807534946001,-3.265476314789265 75.62626625078182,-3.256307920577733 75.75458648182769,-3.249174552617633 75.88300373866565,-3.2440780066961983 76.01148569293807,-3.241019565841609 76.14,-3.2399999999999975 118.25999999999999,-3.2399999999999953 " style="stroke:green;fill:none;stroke-width:1;stroke-linecap:round;stroke-linejoin:round;" /><polygon points="124.73999999999998,-3.240000000000003 124.86851430706193,-3.2410195658416145 124.99699626133433,-3.2440780066962036 125.12541351817231,-3.2491745526176383 125.25373374921816,-3.256307920577739 125.38192465053997,-3.2654763147892694 125.50995395076386,-3.2766774271580177 125.63778941919817,-3.2899084378638443 125.76539887394736,-3.3051660160705603 125.89275019001359,-3.322446320764448 126.01981130738412,-3.341745001721209 126.14655023910211,-3.363057200601118 126.2729350793193,-3.3863775521720783 126.39893401132802,-3.411700185660295 126.52451531557097,-3.4390187262282055 126.64964737762634,-3.468326296579315 126.77429869616672,-3.499615518689517 126.89843789088927,-3.532878515664472 127.02203371041557,-3.568106913722574 127.14505504015901,-3.605291844303004 127.26747091015773,-3.6444239462983457 127.38925050287109,-3.6854933684111884 127.5103631609379,-3.728489771634145 127.63077839489414,-3.7734023318526377 127.75046589084864,-3.820219742569815 127.86939551811433,-3.8689302177528937 127.98753733679355,-3.919521494800239 128.10486160531528,-3.9719808376284043 128.22133878792226,-4.026295039878371 128.33693956210675,-4.0824504282401834 128.45163482599202,-4.140432865895122 128.56539570565872,-4.200227756074588 128.67819356241378,-4.261820045734745 128.79,-4.32519422934605 128.90078687174457,-4.390334352796689 129.01052628764506,-4.4572240174089375 129.11919062139032,-4.525846384067436 129.22675251731548,-4.596184177458356 129.33318489728842,-4.668219690418358 129.43846096752668,-4.741934788392284 129.54255422534257,-4.817310913998429 129.64543846581506,-4.894329091700263 129.7470877883869,-4.972969932583425 129.84747660338462,-5.053213639236773 129.94657963846095,-5.13504001073628 130.0443719449568,-5.218428447730512 130.14082890418194,-5.30335795762639 130.23592623361276,-5.3898071598739845 130.3296399930051,-5.477754291348935 130.4219465904212,-5.567177211831214 130.5128227881688,-5.658053409578801 130.60224570865105,-5.750360006994896 130.690192840126,-5.844073766387233 130.7766420423736,-5.939171095818041 130.86157155226948,-6.035628055043194 130.9449599892637,-6.133420361539034 131.0267863607632,-6.232523396615371 131.10703006741656,-6.332912211613101 131.18567090829973,-6.434561534184903 131.26268908600156,-6.5374457746574155 131.3380652116077,-6.641539032473298 131.41178030958164,-6.74681510271156 131.48381582254166,-6.85324748268451 131.55415361593256,-6.960809378609662 131.62277598259107,-7.069473712354934 131.6896656472033,-7.1792131282554115 131.75480577065392,-7.2900000000000045 131.81817995426525,-7.401806437586206 131.8797722439254,-7.514604294341273 131.93956713410486,-7.628365174007978 131.9975495717598,-7.7430604378932335 132.05370496012162,-7.858661212077713 132.1080191623716,-7.975138394684723 132.16047850519976,-8.092462663206431 132.2110697822471,-8.210604481885662 132.25978025743018,-8.32953410915135 132.30659766814733,-8.44922160510584 132.35151022836584,-8.569636839062085 132.3945066315888,-8.69074949712889 132.43557605370165,-8.812529089842258 132.474708155697,-8.934944959840976 132.5118930862774,-9.057966289584423 132.54712148433552,-9.18156210911072 132.58038448131046,-9.305701303833262 132.61167370342068,-9.430352622373642 132.64098127377179,-9.555484684429025 132.6682998143397,-9.681065988671959 132.6936224478279,-9.80706492068068 132.71694279939888,-9.933449760897867 132.73825499827876,-10.06018869261587 132.75755367923554,-10.187249809986394 132.77483398392943,-10.314601126052633 132.79009156213615,-10.442210580801813 132.80332257284198,-10.570046049236124 132.8145236852107,-10.698075349460016 132.82369207942224,-10.82626625078183 132.83082544738235,-10.954586481827691 132.83592199330377,-11.083003738665655 132.83898043415834,-11.211485692938059 132.83999999999997,-11.340000000000002 132.83999999999997,-21.059999999999995 132.83898043415834,-21.18851430706194 132.83592199330377,-21.316996261334346 132.83082544738235,-21.44541351817231 132.82369207942224,-21.573733749218167 132.8145236852107,-21.701924650539983 132.80332257284198,-21.829953950763873 132.79009156213615,-21.957789419198185 132.77483398392943,-22.085398873947366 132.7575536792355,-22.212750190013608 132.73825499827876,-22.339811307384128 132.71694279939888,-22.466550239102133 132.6936224478279,-22.592935079319318 132.6682998143397,-22.71893401132804 132.64098127377179,-22.844515315570977 132.61167370342068,-22.96964737762636 132.58038448131046,-23.09429869616674 132.54712148433552,-23.218437890889277 132.5118930862774,-23.342033710415578 132.474708155697,-23.465055040159022 132.43557605370165,-23.58747091015774 132.3945066315888,-23.709250502871114 132.35151022836584,-23.830363160937914 132.30659766814733,-23.950778394894158 132.25978025743018,-24.07046589084865 132.2110697822471,-24.18939551811434 132.16047850519976,-24.30753733679357 132.1080191623716,-24.42486160531528 132.05370496012162,-24.541338787922285 131.9975495717598,-24.656939562106764 131.93956713410486,-24.77163482599202 131.8797722439254,-24.885395705658727 131.81817995426525,-24.998193562413793 131.75480577065392,-25.109999999999996 131.6896656472033,-25.220786871744586 131.62277598259107,-25.330526287645064 131.55415361593256,-25.43919062139034 131.48381582254163,-25.54675251731549 131.41178030958164,-25.653184897288437 131.3380652116077,-25.758460967526702 131.26268908600156,-25.862554225342585 131.18567090829973,-25.965438465815094 131.10703006741656,-26.067087788386896 131.0267863607632,-26.167476603384628 130.9449599892637,-26.266579638460964 130.86157155226948,-26.364371944956805 130.7766420423736,-26.460828904181955 130.690192840126,-26.55592623361277 130.60224570865105,-26.649639993005103 130.5128227881688,-26.741946590421197 130.4219465904212,-26.832822788168787 130.3296399930051,-26.922245708651065 130.23592623361276,-27.010192840126017 130.14082890418194,-27.09664204237361 130.0443719449568,-27.18157155226949 129.94657963846095,-27.264959989263716 129.84747660338462,-27.346786360763225 129.7470877883869,-27.427030067416574 129.64543846581506,-27.505670908299738 129.54255422534257,-27.58268908600157 129.43846096752668,-27.658065211607717 129.33318489728842,-27.73178030958164 129.22675251731548,-27.803815822541644 129.11919062139032,-27.874153615932563 129.01052628764506,-27.942775982591062 128.90078687174457,-28.00966564720331 128.79,-28.07480577065395 128.67819356241378,-28.138179954265254 128.56539570565872,-28.19977224392541 128.45163482599202,-28.259567134104874 128.33693956210675,-28.317549571759816 128.22133878792226,-28.37370496012163 128.10486160531528,-28.428019162371594 127.98753733679355,-28.48047850519976 127.86939551811433,-28.531069782247105 127.75046589084864,-28.579780257430183 127.63077839489414,-28.626597668147358 127.5103631609379,-28.671510228365854 127.38925050287109,-28.71450663158881 127.26747091015773,-28.755576053701652 127.14505504015901,-28.794708155696995 127.02203371041557,-28.831893086277425 126.89843789088927,-28.867121484335527 126.77429869616672,-28.900384481310482 126.64964737762634,-28.931673703420685 126.52451531557095,-28.960981273771793 126.39893401132802,-28.988299814339705 126.2729350793193,-29.01362244782792 126.14655023910211,-29.036942799398883 126.01981130738412,-29.05825499827879 125.89275019001359,-29.077553679235553 125.76539887394736,-29.094833983929437 125.63778941919817,-29.110091562136155 125.50995395076386,-29.123322572841982 125.38192465053997,-29.13452368521073 125.25373374921816,-29.14369207942226 125.1254135181723,-29.15082544738236 124.99699626133433,-29.155921993303796 124.86851430706193,-29.158980434158384 124.73999999999998,-29.159999999999997 108.53999999999999,-29.159999999999997 108.41148569293806,-29.158980434158384 108.28300373866564,-29.155921993303796 108.15458648182768,-29.15082544738236 108.02626625078183,-29.14369207942226 107.89807534946002,-29.13452368521073 107.77004604923611,-29.123322572841982 107.64221058080182,-29.110091562136155 107.51460112605263,-29.094833983929437 107.3872498099864,-29.077553679235553 107.26018869261586,-29.05825499827879 107.13344976089786,-29.036942799398883 107.00706492068068,-29.01362244782792 106.88106598867196,-28.988299814339705 106.75548468442902,-28.960981273771793 106.63035262237364,-28.931673703420685 106.50570130383325,-28.900384481310482 106.38156210911072,-28.867121484335527 106.25796628958442,-28.831893086277425 106.13494495984096,-28.794708155696995 106.01252908984225,-28.755576053701652 105.89074949712888,-28.714506631588808 105.76963683906207,-28.671510228365854 105.64922160510584,-28.626597668147358 105.52953410915134,-28.579780257430183 105.41060448188566,-28.531069782247105 105.29246266320642,-28.48047850519976 105.17513839468471,-28.428019162371594 105.05866121207771,-28.37370496012163 104.94306043789324,-28.317549571759816 104.82836517400798,-28.259567134104874 104.71460429434127,-28.19977224392541 104.6018064375862,-28.138179954265254 104.49,-28.074805770653946 104.37921312825542,-28.009665647203313 104.26947371235492,-27.942775982591062 104.16080937860966,-27.874153615932563 104.0532474826845,-27.803815822541644 103.94681510271155,-27.731780309581644 103.84153903247329,-27.658065211607717 103.73744577465742,-27.582689086001572 103.6345615341849,-27.505670908299738 103.5329122116131,-27.427030067416574 103.43252339661537,-27.346786360763225 103.33342036153903,-27.264959989263716 103.2356280550432,-27.18157155226949 103.13917109581804,-27.096642042373613 103.04407376638723,-27.010192840126017 102.95036000699488,-26.92224570865107 102.85805340957879,-26.832822788168787 102.76717721183121,-26.741946590421197 102.67775429134893,-26.649639993005103 102.58980715987398,-26.55592623361277 102.50335795762638,-26.460828904181955 102.4184284477305,-26.364371944956805 102.33504001073628,-26.266579638460968 102.25321363923676,-26.167476603384628 102.17296993258343,-26.0670877883869 102.09432909170026,-25.965438465815094 102.01731091399843,-25.862554225342585 101.94193478839229,-25.758460967526702 101.86821969041836,-25.65318489728844 101.79618417745836,-25.54675251731549 101.72584638406742,-25.43919062139034 101.65722401740894,-25.330526287645068 101.59033435279667,-25.220786871744586 101.52519422934604,-25.109999999999996 101.46182004573474,-24.998193562413793 101.40022775607459,-24.885395705658727 101.34043286589512,-24.77163482599202 101.28245042824018,-24.656939562106764 101.22629503987837,-24.54133878792229 101.1719808376284,-24.424861605315275 101.11952149480024,-24.30753733679357 101.0689302177529,-24.18939551811434 101.02021974256981,-24.07046589084865 100.97340233185264,-23.950778394894158 100.92848977163413,-23.830363160937914 100.88549336841119,-23.709250502871114 100.84442394629833,-23.58747091015774 100.805291844303,-23.465055040159026 100.76810691372258,-23.342033710415578 100.73287851566447,-23.218437890889277 100.69961551868951,-23.09429869616674 100.66832629657931,-22.96964737762636 100.6390187262282,-22.844515315570977 100.6117001856603,-22.718934011328038 100.58637755217208,-22.59293507931932 100.56305720060112,-22.46655023910213 100.54174500172121,-22.339811307384128 100.52244632076444,-22.212750190013608 100.50516601607055,-22.085398873947366 100.48990843786385,-21.957789419198185 100.47667742715801,-21.829953950763873 100.46547631478927,-21.701924650539986 100.45630792057774,-21.573733749218167 100.44917455261763,-21.44541351817231 100.4440780066962,-21.316996261334346 100.44101956584161,-21.188514307061943 100.44,-21.059999999999995 100.44,-11.339999999999998 100.44101956584161,-11.211485692938053 100.44407800669619,-11.083003738665651 100.44917455261763,-10.954586481827686 100.45630792057774,-10.826266250781822 100.46547631478927,-10.698075349460009 100.47667742715801,-10.570046049236117 100.48990843786385,-10.44221058080181 100.50516601607055,-10.31460112605263 100.52244632076444,-10.187249809986389 100.54174500172121,-10.060188692615863 100.56305720060112,-9.933449760897863 100.58637755217208,-9.807064920680675 100.6117001856603,-9.681065988671952 100.6390187262282,-9.555484684429018 100.66832629657931,-9.430352622373636 100.69961551868951,-9.305701303833256 100.73287851566447,-9.181562109110715 100.76810691372258,-9.057966289584417 100.805291844303,-8.93494495984097 100.84442394629833,-8.81252908984225 100.88549336841119,-8.690749497128882 100.92848977163413,-8.569636839062081 100.97340233185264,-8.449221605105835 101.02021974256981,-8.329534109151345 101.0689302177529,-8.210604481885657 101.11952149480022,-8.092462663206424 101.1719808376284,-7.975138394684716 101.22629503987837,-7.858661212077707 101.28245042824018,-7.743060437893227 101.34043286589512,-7.628365174007974 101.40022775607459,-7.514604294341268 101.46182004573474,-7.4018064375862025 101.52519422934604,-7.2899999999999965 101.59033435279667,-7.179213128255408 101.65722401740894,-7.069473712354927 101.72584638406742,-6.960809378609657 101.79618417745836,-6.8532474826845045 101.86821969041836,-6.7468151027115555 101.94193478839229,-6.641539032473293 102.01731091399843,-6.537445774657411 102.09432909170025,-6.434561534184899 102.17296993258343,-6.3329122116130945 102.25321363923676,-6.232523396615365 102.33504001073626,-6.133420361539029 102.4184284477305,-6.035628055043189 102.50335795762638,-5.939171095818036 102.58980715987398,-5.844073766387227 102.67775429134893,-5.7503600069948915 102.76717721183121,-5.658053409578794 102.85805340957879,-5.567177211831209 102.95036000699488,-5.47775429134893 103.04407376638723,-5.389807159873979 103.13917109581804,-5.303357957626385 103.23562805504318,-5.218428447730506 103.33342036153903,-5.135040010736276 103.43252339661537,-5.053213639236767 103.5329122116131,-4.972969932583421 103.6345615341849,-4.894329091700257 103.7374457746574,-4.817310913998425 103.84153903247329,-4.741934788392279 103.94681510271154,-4.668219690418355 104.0532474826845,-4.596184177458349 104.16080937860966,-4.52584638406743 104.26947371235492,-4.457224017408932 104.37921312825542,-4.390334352796683 104.49,-4.325194229346043 104.6018064375862,-4.261820045734741 104.71460429434127,-4.200227756074585 104.82836517400797,-4.140432865895118 104.94306043789324,-4.0824504282401755 105.05866121207771,-4.026295039878367 105.17513839468471,-3.971980837628398 105.29246266320642,-3.9195214948002346 105.41060448188566,-3.8689302177528884 105.52953410915134,-3.8202197425698103 105.64922160510584,-3.7734023318526333 105.76963683906207,-3.728489771634139 105.89074949712888,-3.685493368411184 106.01252908984225,-3.6444239462983394 106.13494495984096,-3.6052918443029998 106.25796628958442,-3.5681069137225685 106.3815621091107,-3.5328785156644678 106.50570130383325,-3.4996155186895117 106.63035262237364,-3.468326296579309 106.755484684429,-3.439018726228201 106.88106598867196,-3.4117001856602895 107.00706492068068,-3.386377552172074 107.13344976089786,-3.3630572006011126 107.26018869261586,-3.3417450017212036 107.3872498099864,-3.322446320764443 107.51460112605263,-3.305166016070555 107.64221058080182,-3.289908437863839 107.77004604923611,-3.2766774271580124 107.89807534946002,-3.265476314789265 108.02626625078183,-3.256307920577733 108.15458648182768,-3.249174552617633 108.28300373866564,-3.2440780066961983 108.41148569293806,-3.241019565841609 108.53999999999999,-3.2399999999999975 124.73999999999998,-3.240000000000003 " style="stroke:yellow;fill:none;stroke-width:1;stroke-linecap:round;stroke-linejoin:round;" /><polygon points="21.059999999999995,-3.2399999999999993 21.18851430706194,-3.241019565841611 21.316996261334346,-3.244078006696199 21.44541351817231,-3.2491745526176348 21.573733749218167,-3.256307920577735 21.701924650539986,-3.265476314789266 21.829953950763876,-3.276677427158014 21.957789419198185,-3.28990843786384 22.085398873947366,-3.3051660160705567 22.212750190013608,-3.3224463207644437 22.33981130738413,-3.3417450017212045 22.466550239102133,-3.3630572006011135 22.59293507931932,-3.3863775521720747 22.71893401132804,-3.4117001856602913 22.844515315570977,-3.439018726228201 22.96964737762636,-3.4683262965793107 23.094298696166742,-3.4996155186895126 23.218437890889284,-3.5328785156644678 23.342033710415578,-3.5681069137225694 23.465055040159026,-3.6052918443029998 23.587470910157744,-3.644423946298341 23.709250502871114,-3.685493368411184 23.830363160937914,-3.72848977163414 23.95077839489416,-3.773402331852634 24.070465890848652,-3.8202197425698103 24.189395518114342,-3.8689302177528893 24.30753733679357,-3.9195214948002346 24.42486160531528,-3.9719808376284 24.54133878792229,-4.026295039878366 24.656939562106768,-4.082450428240178 24.771634825992024,-4.140432865895118 24.885395705658727,-4.200227756074584 24.998193562413796,-4.2618200457347415 25.11,-4.325194229346046 25.220786871744593,-4.3903343527966845 25.330526287645068,-4.457224017408931 25.439190621390342,-4.525846384067432 25.546752517315493,-4.596184177458351 25.65318489728844,-4.668219690418353 25.758460967526705,-4.74193478839228 25.862554225342585,-4.8173109139984245 25.965438465815097,-4.894329091700258 26.067087788386903,-4.97296993258342 26.16747660338463,-5.053213639236769 26.266579638460968,-5.135040010736276 26.364371944956808,-5.218428447730507 26.460828904181962,-5.303357957626385 26.55592623361277,-5.389807159873979 26.649639993005106,-5.477754291348931 26.741946590421204,-5.56717721183121 26.832822788168787,-5.658053409578796 26.92224570865107,-5.7503600069948915 27.010192840126017,-5.844073766387228 27.096642042373613,-5.939171095818037 27.181571552269492,-6.0356280550431896 27.264959989263723,-6.133420361539031 27.34678636076323,-6.232523396615367 27.427030067416577,-6.332912211613097 27.50567090829974,-6.4345615341848985 27.582689086001572,-6.537445774657412 27.658065211607717,-6.641539032473294 27.731780309581644,-6.746815102711556 27.803815822541647,-6.853247482684506 27.87415361593257,-6.9608093786096585 27.942775982591066,-7.06947371235493 28.009665647203317,-7.179213128255408 28.074805770653953,-7.290000000000001 28.138179954265258,-7.4018064375862025 28.199772243925416,-7.51460429434127 28.25956713410488,-7.628365174007975 28.317549571759823,-7.74306043789323 28.373704960121632,-7.85866121207771 28.428019162371598,-7.97513839468472 28.480478505199766,-8.09246266320643 28.53106978224711,-8.210604481885659 28.579780257430187,-8.329534109151346 28.626597668147365,-8.449221605105839 28.671510228365857,-8.569636839062085 28.71450663158881,-8.690749497128886 28.755576053701656,-8.812529089842254 28.794708155697,-8.934944959840973 28.83189308627743,-9.057966289584419 28.86712148433553,-9.181562109110716 28.900384481310486,-9.30570130383326 28.93167370342069,-9.43035262237364 28.960981273771797,-9.555484684429022 28.988299814339708,-9.681065988671957 29.013622447827924,-9.807064920680679 29.036942799398886,-9.933449760897865 29.058254998278795,-10.060188692615865 29.077553679235557,-10.187249809986392 29.09483398392944,-10.314601126052631 29.11009156213616,-10.442210580801811 29.123322572841982,-10.570046049236122 29.13452368521073,-10.698075349460014 29.143692079422262,-10.826266250781828 29.150825447382363,-10.954586481827688 29.1559219933038,-11.083003738665653 29.158980434158387,-11.211485692938057 29.16,-11.34 29.16,-21.059999999999995 29.158980434158387,-21.18851430706194 29.1559219933038,-21.316996261334346 29.150825447382363,-21.44541351817231 29.143692079422262,-21.573733749218167 29.13452368521073,-21.701924650539983 29.123322572841982,-21.829953950763873 29.11009156213616,-21.957789419198185 29.09483398392944,-22.085398873947366 29.077553679235557,-22.212750190013608 29.058254998278795,-22.33981130738413 29.036942799398886,-22.466550239102133 29.013622447827924,-22.592935079319318 28.988299814339708,-22.71893401132804 28.960981273771797,-22.844515315570977 28.93167370342069,-22.96964737762636 28.900384481310486,-23.094298696166742 28.86712148433553,-23.218437890889284 28.83189308627743,-23.342033710415578 28.794708155697,-23.465055040159026 28.755576053701656,-23.587470910157744 28.71450663158881,-23.709250502871114 28.671510228365857,-23.830363160937914 28.626597668147365,-23.95077839489416 28.579780257430187,-24.070465890848652 28.53106978224711,-24.18939551811434 28.480478505199766,-24.30753733679357 28.428019162371598,-24.42486160531528 28.373704960121632,-24.54133878792229 28.317549571759823,-24.656939562106768 28.25956713410488,-24.77163482599202 28.199772243925416,-24.885395705658727 28.138179954265258,-24.998193562413796 28.074805770653953,-25.11 28.009665647203317,-25.22078687174459 27.942775982591066,-25.330526287645068 27.87415361593257,-25.43919062139034 27.80381582254165,-25.54675251731549 27.731780309581644,-25.65318489728844 27.65806521160772,-25.758460967526705 27.582689086001572,-25.862554225342585 27.50567090829974,-25.965438465815097 27.427030067416577,-26.0670877883869 27.34678636076323,-26.16747660338463 27.264959989263723,-26.266579638460968 27.181571552269496,-26.364371944956805 27.096642042373613,-26.46082890418196 27.010192840126017,-26.55592623361277 26.92224570865107,-26.649639993005103 26.83282278816879,-26.7419465904212 26.741946590421204,-26.832822788168787 26.649639993005106,-26.92224570865107 26.555926233612773,-27.010192840126017 26.460828904181962,-27.096642042373613 26.364371944956808,-27.181571552269492 26.266579638460968,-27.26495998926372 26.16747660338463,-27.34678636076323 26.067087788386903,-27.427030067416577 25.965438465815097,-27.505670908299738 25.86255422534259,-27.582689086001572 25.758460967526705,-27.658065211607717 25.65318489728844,-27.731780309581644 25.546752517315493,-27.803815822541647 25.439190621390342,-27.874153615932567 25.330526287645068,-27.942775982591066 25.220786871744593,-28.009665647203313 25.11,-28.074805770653953 24.998193562413796,-28.138179954265258 24.88539570565873,-28.199772243925416 24.771634825992024,-28.25956713410488 24.656939562106768,-28.317549571759823 24.54133878792229,-28.373704960121632 24.424861605315282,-28.428019162371598 24.30753733679357,-28.480478505199766 24.189395518114342,-28.53106978224711 24.070465890848652,-28.579780257430187 23.95077839489416,-28.626597668147365 23.830363160937914,-28.671510228365857 23.709250502871114,-28.71450663158881 23.587470910157744,-28.755576053701656 23.465055040159026,-28.794708155697 23.34203371041558,-28.83189308627743 23.218437890889284,-28.86712148433553 23.094298696166742,-28.900384481310486 22.96964737762636,-28.93167370342069 22.84451531557098,-28.960981273771797 22.71893401132804,-28.988299814339708 22.59293507931932,-29.013622447827924 22.466550239102133,-29.036942799398886 22.33981130738413,-29.058254998278795 22.212750190013608,-29.077553679235557 22.08539887394737,-29.09483398392944 21.95778941919819,-29.11009156213616 21.829953950763876,-29.123322572841982 21.701924650539986,-29.13452368521073 21.57373374921817,-29.143692079422262 21.445413518172312,-29.150825447382363 21.316996261334346,-29.1559219933038 21.188514307061943,-29.158980434158387 21.06,-29.16 4.860000000000002,-29.16 4.731485692938058,-29.158980434158387 4.603003738665653,-29.1559219933038 4.474586481827689,-29.150825447382363 4.346266250781829,-29.143692079422262 4.218075349460015,-29.13452368521073 4.090046049236121,-29.123322572841982 3.9622105808018127,-29.11009156213616 3.8346011260526334,-29.09483398392944 3.7072498099863913,-29.077553679235557 3.580188692615867,-29.058254998278795 3.453449760897866,-29.036942799398886 3.3270649206806797,-29.013622447827924 3.201065988671956,-28.988299814339708 3.0754846844290222,-28.960981273771797 2.95035262237364,-28.93167370342069 2.825701303833259,-28.900384481310486 2.701562109110718,-28.86712148433553 2.577966289584421,-28.83189308627743 2.4549449598409736,-28.794708155697 2.332529089842255,-28.755576053701656 2.210749497128886,-28.71450663158881 2.089636839062083,-28.671510228365857 1.9692216051058384,-28.626597668147365 1.8495341091513477,-28.579780257430187 1.7306044818856592,-28.53106978224711 1.6124626632064292,-28.480478505199763 1.4951383946847205,-28.428019162371598 1.378661212077709,-28.37370496012163 1.2630604378932293,-28.31754957175982 1.1483651740079759,-28.25956713410488 1.0346042943412708,-28.199772243925416 0.9218064375862051,-28.138179954265258 0.8099999999999988,-28.074805770653953 0.6992131282554105,-28.009665647203317 0.5894737123549296,-27.942775982591066 0.4808093786096596,-27.87415361593257 0.37324748268450675,-27.803815822541647 0.26681510271155773,-27.731780309581644 0.16153903247329568,-27.65806521160772 0.05744577465741075,-27.582689086001572 -0.0454384658150979,-27.50567090829974 -0.14708778838690292,-27.427030067416577 -0.2474766033846325,-27.34678636076323 -0.3465796384609681,-27.264959989263723 -0.4443719449568086,-27.181571552269496 -0.5408289041819614,-27.096642042373613 -0.6359262336127726,-27.010192840126017 -0.7296399930051058,-26.92224570865107 -0.8219465904212033,-26.832822788168787 -0.9128227881687898,-26.7419465904212 -1.0022457086510688,-26.649639993005106 -1.09019284012602,-26.55592623361277 -1.176642042373613,-26.460828904181962 -1.261571552269494,-26.364371944956805 -1.3449599892637238,-26.266579638460968 -1.4267863607632312,-26.16747660338463 -1.5070300674165789,-26.0670877883869 -1.585670908299741,-25.965438465815097 -1.662689086001575,-25.862554225342585 -1.7380652116077195,-25.758460967526705 -1.8117803095816467,-25.65318489728844 -1.8838158225416493,-25.54675251731549 -1.9541536159325688,-25.43919062139034 -2.0227759825910674,-25.330526287645068 -2.089665647203314,-25.220786871744593 -2.1548057706539554,-25.109999999999996 -2.218179954265258,-24.998193562413796 -2.2797722439254158,-24.885395705658727 -2.3395671341048794,-24.771634825992024 -2.3975495717598214,-24.656939562106768 -2.4537049601216325,-24.54133878792229 -2.5080191623715993,-24.42486160531528 -2.5604785051997654,-24.307537336793565 -2.611069782247109,-24.189395518114342 -2.6597802574301896,-24.07046589084865 -2.706597668147366,-23.950778394894158 -2.7515102283658583,-23.830363160937914 -2.7945066315888156,-23.709250502871114 -2.835576053701658,-23.587470910157744 -2.8747081556970002,-23.465055040159022 -2.911893086277429,-23.34203371041558 -2.9471214843355313,-23.218437890889277 -2.9803844813104865,-23.09429869616674 -3.0116737034206884,-22.96964737762636 -3.040981273771798,-22.844515315570977 -3.0682998143397078,-22.71893401132804 -3.0936224478279253,-22.592935079319318 -3.116942799398886,-22.466550239102133 -3.1382549982787946,-22.339811307384128 -3.157553679235556,-22.212750190013608 -3.1748339839294424,-22.085398873947366 -3.190091562136159,-21.957789419198185 -3.2033225728419854,-21.829953950763876 -3.2145236852107333,-21.701924650539983 -3.223692079422264,-21.57373374921817 -3.2308254473823643,-21.44541351817231 -3.2359219933038,-21.316996261334346 -3.238980434158388,-21.188514307061943 -3.24,-21.059999999999995 -3.24,-11.339999999999996 -3.238980434158388,-11.211485692938053 -3.235921993303799,-11.083003738665651 -3.2308254473823643,-10.954586481827686 -3.223692079422264,-10.826266250781826 -3.2145236852107324,-10.698075349460009 -3.2033225728419854,-10.570046049236117 -3.1900915621361583,-10.44221058080181 -3.1748339839294424,-10.31460112605263 -3.157553679235555,-10.187249809986389 -3.1382549982787937,-10.060188692615863 -3.116942799398886,-9.933449760897863 -3.0936224478279235,-9.807064920680675 -3.068299814339707,-9.681065988671952 -3.040981273771797,-9.555484684429018 -3.0116737034206875,-9.430352622373636 -2.9803844813104856,-9.305701303833256 -2.9471214843355305,-9.181562109110716 -2.911893086277429,-9.057966289584417 -2.8747081556969984,-8.934944959840973 -2.835576053701658,-8.812529089842254 -2.7945066315888147,-8.690749497128882 -2.7515102283658575,-8.569636839062081 -2.706597668147364,-8.449221605105835 -2.659780257430188,-8.329534109151345 -2.611069782247109,-8.210604481885657 -2.5604785051997645,-8.092462663206428 -2.5080191623715993,-7.97513839468472 -2.4537049601216316,-7.858661212077708 -2.3975495717598196,-7.743060437893227 -2.3395671341048794,-7.628365174007974 -2.279772243925414,-7.514604294341268 -2.218179954265258,-7.4018064375862025 -2.1548057706539536,-7.289999999999999 -2.089665647203314,-7.179213128255408 -2.0227759825910656,-7.069473712354927 -1.9541536159325688,-6.96080937860966 -1.8838158225416475,-6.853247482684505 -1.811780309581645,-6.7468151027115555 -1.7380652116077195,-6.641539032473293 -1.662689086001575,-6.537445774657412 -1.585670908299741,-6.434561534184899 -1.5070300674165789,-6.332912211613098 -1.4267863607632312,-6.232523396615368 -1.3449599892637212,-6.133420361539029 -1.261571552269494,-6.035628055043191 -1.176642042373613,-5.939171095818037 -1.09019284012602,-5.844073766387228 -1.0022457086510688,-5.750360006994892 -0.9128227881687898,-5.658053409578797 -0.8219465904212033,-5.56717721183121 -0.7296399930051058,-5.47775429134893 -0.6359262336127726,-5.389807159873981 -0.5408289041819614,-5.303357957626385 -0.4443719449568086,-5.218428447730506 -0.3465796384609681,-5.135040010736276 -0.2474766033846325,-5.053213639236769 -0.14708778838690292,-4.972969932583421 -0.045438465815101504,-4.89432909170026 0.05744577465741075,-4.817310913998425 0.16153903247329568,-4.741934788392279 0.266815102711555,-4.668219690418355 0.37324748268450675,-4.596184177458351 0.4808093786096596,-4.525846384067432 0.5894737123549296,-4.457224017408932 0.6992131282554078,-4.390334352796685 0.8099999999999988,-4.325194229346047 0.9218064375862051,-4.261820045734741 1.0346042943412677,-4.200227756074586 1.1483651740079759,-4.140432865895119 1.2630604378932293,-4.082450428240179 1.378661212077709,-4.0262950398783675 1.4951383946847188,-3.9719808376284007 1.6124626632064272,-3.9195214948002364 1.730604481885656,-3.868930217752891 1.8495341091513464,-3.8202197425698112 1.9692216051058364,-3.773402331852635 2.089636839062081,-3.7284897716341416 2.210749497128884,-3.685493368411185 2.3325290898422537,-3.644423946298342 2.454944959840972,-3.6052918443030006 2.5779662895844178,-3.5681069137225703 2.7015621091107143,-3.5328785156644686 2.8257013038332577,-3.4996155186895135 2.9503526223736376,-3.4683262965793116 3.0754846844290187,-3.439018726228202 3.2010659886719544,-3.4117001856602913 3.327064920680676,-3.3863775521720747 3.4534497608978625,-3.3630572006011143 3.5801886926158635,-3.3417450017212054 3.7072498099863873,-3.3224463207644446 3.83460112605263,-3.3051660160705576 3.962210580801809,-3.289908437863841 4.0900460492361175,-3.276677427158014 4.218075349460012,-3.265476314789266 4.3462662507818255,-3.256307920577735 4.474586481827686,-3.2491745526176348 4.60300373866565,-3.2440780066962 4.731485692938053,-3.241019565841611 4.8599999999999985,-3.2399999999999993 21.059999999999995,-3.2399999999999993 " style="stroke:yellow;fill:none;stroke-width:1;stroke-linecap:round;stroke-linejoin:round;" /><path d="M 0.0,-0.0 L 129.6,-0.0 L 129.6,-129.6 L 0.0,-129.6 L 0.0,-0.0" style="stroke:black;fill:none;stroke-width:1.25;stroke-linecap:round;stroke-linejoin:round;" /><path d="M 0.0,-0.0 L 129.6,-0.0" style="stroke:black;fill:none;stroke-width:1.25;stroke-linecap:round;stroke-linejoin:round;" /><path d="M 0.0,-32.4 L 129.6,-32.4" style="stroke:black;fill:none;stroke-width:1.25;stroke-linecap:round;stroke-linejoin:round;" /><path d="M 0.0,-64.8 L 129.6,-64.8" style="stroke:black;fill:none;stroke-width:1.25;stroke-linecap:round;stroke-linejoin:round;" /><path d="M 0.0,-97.19999999999999 L 129.6,-97.19999999999999" style="stroke:black;fill:none;stroke-width:1.25;stroke-linecap:round;stroke-linejoin:round;" /><path d="M 0.0,-0.0 L 0.0,-129.6" style="stroke:black;fill:none;stroke-width:1.25;stroke-linecap:round;stroke-linejoin:round;" /><path d="M 32.4,-0.0 L 32.4,-129.6" style="stroke:black;fill:none;stroke-width:1.25;stroke-linecap:round;stroke-linejoin:round;" /><path d="M 64.8,-0.0 L 64.8,-129.6" style="stroke:black;fill:none;stroke-width:1.25;stroke-linecap:round;stroke-linejoin:round;" /><path d="M 97.19999999999999,-0.0 L 97.19999999999999,-129.6" style="stroke:black;fill:none;stroke-width:1.25;stroke-linecap:round;stroke-linejoin:round;" /><path d="M 0.0,-129.6 L -22.910259710444137,-152.51025971044413" style="stroke:black;fill:none;stroke-width:1.25;stroke-linecap:round;stroke-linejoin:round;" /><text x="0.0" y="-158.18269478283307" fill="black" font-size="12" font-family="sans" text-anchor="end" transform="rotate(0 0.0 -148.58269478283307)"><tspan x="0.0" dy="9.600000000000001">AB</tspan></text><text x="-17.182694782833103" y="-140.99999999999997" fill="black" font-size="12" font-family="sans" text-anchor="end" transform="rotate(0 -17.182694782833103 -131.39999999999998)"><tspan x="-17.182694782833103" dy="9.600000000000001">CD</tspan></text><text x="16.2" y="-140.72" fill="black" font-size="10" font-family="sans" text-anchor="middle" transform="rotate(0 16.2 -132.72)"><tspan x="16.2" dy="8.0">00</tspan></text><text x="48.599999999999994" y="-140.72" fill="black" font-size="10" font-family="sans" text-anchor="middle" transform="rotate(0 48.599999999999994 -132.72)"><tspan x="48.599999999999994" dy="8.0">01</tspan></text><text x="113.39999999999999" y="-140.72" fill="black" font-size="10" font-family="sans" text-anchor="middle" transform="rotate(0 113.39999999999999 -132.72)"><tspan x="113.39999999999999" dy="8.0">10</tspan></text><text x="81.0" y="-140.72" fill="black" font-size="10" font-family="sans" text-anchor="middle" transform="rotate(0 81.0 -132.72)"><tspan x="81.0" dy="8.0">11</tspan></text><text x="-3.24" y="-118.89999999999999" fill="black" font-size="10" font-family="sans" text-anchor="end" transform="rotate(0 -3.24 -114.89999999999999)"><tspan x="-3.24" dy="8.0">00</tspan></text><text x="-3.24" y="-86.5" fill="black" font-size="10" font-family="sans" text-anchor="end" transform="rotate(0 -3.24 -82.5)"><tspan x="-3.24" dy="8.0">01</tspan></text><text x="-3.24" y="-21.7" fill="black" font-size="10" font-family="sans" text-anchor="end" transform="rotate(0 -3.24 -17.7)"><tspan x="-3.24" dy="8.0">10</tspan></text><text x="-3.24" y="-54.099999999999994" fill="black" font-size="10" font-family="sans" text-anchor="end" transform="rotate(0 -3.24 -50.099999999999994)"><tspan x="-3.24" dy="8.0">11</tspan></text><text x="16.2" y="-120.0" fill="black" font-size="12" font-family="sans" text-anchor="middle" transform="rotate(0 16.2 -115.19999999999999)"><tspan x="16.2" dy="9.600000000000001">0</tspan></text><text x="16.2" y="-87.6" fill="black" font-size="12" font-family="sans" text-anchor="middle" transform="rotate(0 16.2 -82.79999999999998)"><tspan x="16.2" dy="9.600000000000001">0</tspan></text><text x="16.2" y="-22.8" fill="black" font-size="12" font-family="sans" text-anchor="middle" transform="rotate(0 16.2 -18.0)"><tspan x="16.2" dy="9.600000000000001">1</tspan></text><text x="16.2" y="-55.199999999999996" fill="black" font-size="12" font-family="sans" text-anchor="middle" transform="rotate(0 16.2 -50.4)"><tspan x="16.2" dy="9.600000000000001">0</tspan></text><text x="48.599999999999994" y="-120.0" fill="black" font-size="12" font-family="sans" text-anchor="middle" transform="rotate(0 48.599999999999994 -115.19999999999999)"><tspan x="48.599999999999994" dy="9.600000000000001">1</tspan></text><text x="48.599999999999994" y="-87.6" fill="black" font-size="12" font-family="sans" text-anchor="middle" transform="rotate(0 48.599999999999994 -82.79999999999998)"><tspan x="48.599999999999994" dy="9.600000000000001">1</tspan></text><text x="48.599999999999994" y="-22.8" fill="black" font-size="12" font-family="sans" text-anchor="middle" transform="rotate(0 48.599999999999994 -18.0)"><tspan x="48.599999999999994" dy="9.600000000000001">0</tspan></text><text x="48.599999999999994" y="-55.199999999999996" fill="black" font-size="12" font-family="sans" text-anchor="middle" transform="rotate(0 48.599999999999994 -50.4)"><tspan x="48.599999999999994" dy="9.600000000000001">0</tspan></text><text x="113.39999999999999" y="-120.0" fill="black" font-size="12" font-family="sans" text-anchor="middle" transform="rotate(0 113.39999999999999 -115.19999999999999)"><tspan x="113.39999999999999" dy="9.600000000000001">0</tspan></text><text x="113.39999999999999" y="-87.6" fill="black" font-size="12" font-family="sans" text-anchor="middle" transform="rotate(0 113.39999999999999 -82.79999999999998)"><tspan x="113.39999999999999" dy="9.600000000000001">0</tspan></text><text x="113.39999999999999" y="-22.8" fill="black" font-size="12" font-family="sans" text-anchor="middle" transform="rotate(0 113.39999999999999 -18.0)"><tspan x="113.39999999999999" dy="9.600000000000001">1</tspan></text><text x="113.39999999999999" y="-55.199999999999996" fill="black" font-size="12" font-family="sans" text-anchor="middle" transform="rotate(0 113.39999999999999 -50.4)"><tspan x="113.39999999999999" dy="9.600000000000001">0</tspan></text><text x="81.0" y="-120.0" fill="black" font-size="12" font-family="sans" text-anchor="middle" transform="rotate(0 81.0 -115.19999999999999)"><tspan x="81.0" dy="9.600000000000001">0</tspan></text><text x="81.0" y="-87.6" fill="black" font-size="12" font-family="sans" text-anchor="middle" transform="rotate(0 81.0 -82.79999999999998)"><tspan x="81.0" dy="9.600000000000001">1</tspan></text><text x="81.0" y="-22.8" fill="black" font-size="12" font-family="sans" text-anchor="middle" transform="rotate(0 81.0 -18.0)"><tspan x="81.0" dy="9.600000000000001">1</tspan></text><text x="81.0" y="-55.199999999999996" fill="black" font-size="12" font-family="sans" text-anchor="middle" transform="rotate(0 81.0 -50.4)"><tspan x="81.0" dy="9.600000000000001">1</tspan></text></svg>