<?xml version="1.0" encoding="utf-8" standalone="no"?>
<!DOCTYPE svg PUBLIC "-//W3C//DTD SVG 1.1//EN"
  "http://www.w3.org/Graphics/SVG/1.1/DTD/svg11.dtd">
<svg xmlns:xlink="http://www.w3.org/1999/xlink" width="175.182501pt" height="118.348101pt" viewBox="0 0 175.182501 118.348101" xmlns="http://www.w3.org/2000/svg" version="1.1">
 <metadata>
  <rdf:RDF xmlns:dc="http://purl.org/dc/elements/1.1/" xmlns:cc="http://creativecommons.org/ns#" xmlns:rdf="http://www.w3.org/1999/02/22-rdf-syntax-ns#">
   <cc:Work>
    <dc:type rdf:resource="http://purl.org/dc/dcmitype/StillImage"/>
    <dc:date>2022-01-18T15:00:47.890939</dc:date>
    <dc:format>image/svg+xml</dc:format>
    <dc:creator>
     <cc:Agent>
      <dc:title>Matplotlib v3.5.1, https://matplotlib.org/</dc:title>
     </cc:Agent>
    </dc:creator>
   </cc:Work>
  </rdf:RDF>
 </metadata>
 <defs>
  <style type="text/css">*{stroke-linejoin: round; stroke-linecap: butt}</style>
 </defs>
 <g id="figure_1">
  <g id="patch_1">
   <path d="M 0 118.348101 
L 175.182501 118.348101 
L 175.182501 0 
L 0 0 
L 0 118.348101 
z
" style="fill: none"/>
  </g>
  <g id="axes_1">
   <g id="patch_2">
    <path d="M 157.272501 74.428101 
L 157.393875 74.427138 
L 157.515219 74.424249 
L 157.636502 74.419436 
L 157.757694 74.412699 
L 157.878763 74.40404 
L 157.999679 74.393461 
L 158.120413 74.380965 
L 158.240933 74.366555 
L 158.361209 74.350235 
L 158.481211 74.332008 
L 158.600909 74.31188 
L 158.720273 74.289855 
L 158.839272 74.265939 
L 158.957876 74.240138 
L 159.076056 74.212459 
L 159.193783 74.182908 
L 159.311025 74.151493 
L 159.427755 74.118222 
L 159.543941 74.083103 
L 159.659556 74.046145 
L 159.774571 74.007357 
L 159.888955 73.966749 
L 160.00268 73.924332 
L 160.115718 73.880115 
L 160.228041 73.834111 
L 160.339619 73.78633 
L 160.450425 73.736785 
L 160.560432 73.685489 
L 160.66961 73.632453 
L 160.777934 73.577692 
L 160.885374 73.521219 
L 160.991906 73.463048 
L 161.097501 73.403195 
L 161.202133 73.341674 
L 161.305775 73.2785 
L 161.408403 73.21369 
L 161.509989 73.14726 
L 161.610509 73.079226 
L 161.709936 73.009607 
L 161.808246 72.938418 
L 161.905415 72.865679 
L 162.001417 72.791407 
L 162.096229 72.715621 
L 162.189826 72.638341 
L 162.282185 72.559585 
L 162.373283 72.479374 
L 162.463098 72.397727 
L 162.551605 72.314666 
L 162.638784 72.230211 
L 162.724611 72.144384 
L 162.809066 72.057205 
L 162.892127 71.968698 
L 162.973774 71.878883 
L 163.053985 71.787785 
L 163.132741 71.695426 
L 163.210021 71.601829 
L 163.285807 71.507017 
L 163.360079 71.411015 
L 163.432818 71.313846 
L 163.504007 71.215536 
L 163.573626 71.116109 
L 163.64166 71.015589 
L 163.70809 70.914003 
L 163.7729 70.811375 
L 163.836074 70.707733 
L 163.897595 70.603101 
L 163.957448 70.497506 
L 164.015619 70.390974 
L 164.072092 70.283534 
L 164.126853 70.17521 
L 164.179889 70.066032 
L 164.231185 69.956025 
L 164.28073 69.845219 
L 164.328511 69.733641 
L 164.374515 69.621318 
L 164.418732 69.50828 
L 164.461149 69.394555 
L 164.501757 69.280171 
L 164.540545 69.165156 
L 164.577503 69.049541 
L 164.612622 68.933355 
L 164.645893 68.816625 
L 164.677308 68.699383 
L 164.706859 68.581656 
L 164.734538 68.463476 
L 164.760339 68.344872 
L 164.784255 68.225873 
L 164.80628 68.106509 
L 164.826408 67.986811 
L 164.844635 67.866809 
L 164.860955 67.746533 
L 164.875365 67.626013 
L 164.887861 67.505279 
L 164.89844 67.384363 
L 164.907099 67.263294 
L 164.913836 67.142102 
L 164.918649 67.020819 
L 164.921538 66.899475 
L 164.922501 66.778101 
L 164.922501 57.598101 
L 164.921538 57.476726 
L 164.918649 57.355382 
L 164.913836 57.234099 
L 164.907099 57.112908 
L 164.89844 56.991838 
L 164.887861 56.870922 
L 164.875365 56.750188 
L 164.860955 56.629668 
L 164.844635 56.509392 
L 164.826408 56.38939 
L 164.80628 56.269692 
L 164.784255 56.150329 
L 164.760339 56.03133 
L 164.734538 55.912725 
L 164.706859 55.794545 
L 164.677308 55.676819 
L 164.645893 55.559576 
L 164.612622 55.442847 
L 164.577503 55.32666 
L 164.540545 55.211045 
L 164.501757 55.096031 
L 164.461149 54.981647 
L 164.418732 54.867921 
L 164.374515 54.754883 
L 164.328511 54.64256 
L 164.28073 54.530982 
L 164.231185 54.420176 
L 164.179889 54.31017 
L 164.126853 54.200991 
L 164.072092 54.092668 
L 164.015619 53.985227 
L 163.957448 53.878696 
L 163.897595 53.773101 
L 163.836074 53.668469 
L 163.7729 53.564826 
L 163.70809 53.462198 
L 163.64166 53.360612 
L 163.573626 53.260093 
L 163.504007 53.160665 
L 163.432818 53.062355 
L 163.360079 52.965187 
L 163.285807 52.869184 
L 163.210021 52.774373 
L 163.132741 52.680775 
L 163.053985 52.588416 
L 162.973774 52.497318 
L 162.892127 52.407504 
L 162.809066 52.318996 
L 162.724611 52.231818 
L 162.638784 52.14599 
L 162.551605 52.061535 
L 162.463098 51.978474 
L 162.373283 51.896828 
L 162.282185 51.816616 
L 162.189826 51.737861 
L 162.096229 51.66058 
L 162.001417 51.584794 
L 161.905415 51.510523 
L 161.808246 51.437783 
L 161.709936 51.366595 
L 161.610509 51.296975 
L 161.509989 51.228941 
L 161.408403 51.162511 
L 161.305775 51.097701 
L 161.202133 51.034528 
L 161.097501 50.973006 
L 160.991906 50.913153 
L 160.885374 50.854982 
L 160.777934 50.798509 
L 160.66961 50.743748 
L 160.560432 50.690713 
L 160.450425 50.639416 
L 160.339619 50.589871 
L 160.228041 50.54209 
L 160.115718 50.496086 
L 160.00268 50.451869 
L 159.888955 50.409452 
L 159.774571 50.368844 
L 159.659556 50.330057 
L 159.543941 50.293098 
L 159.427755 50.257979 
L 159.311025 50.224708 
L 159.193783 50.193293 
L 159.076056 50.163742 
L 158.957876 50.136063 
L 158.839272 50.110262 
L 158.720273 50.086346 
L 158.600909 50.064321 
L 158.481211 50.044193 
L 158.361209 50.025967 
L 158.240933 50.009646 
L 158.120413 49.995236 
L 157.999679 49.98274 
L 157.878763 49.972162 
L 157.757694 49.963503 
L 157.636502 49.956765 
L 157.515219 49.951952 
L 157.393875 49.949064 
L 157.272501 49.948101 
L 141.972501 49.948101 
L 141.851126 49.949064 
L 141.729782 49.951952 
L 141.608499 49.956765 
L 141.487308 49.963503 
L 141.366238 49.972162 
L 141.245322 49.98274 
L 141.124588 49.995236 
L 141.004068 50.009646 
L 140.883792 50.025967 
L 140.76379 50.044193 
L 140.644092 50.064321 
L 140.524729 50.086346 
L 140.40573 50.110262 
L 140.287125 50.136063 
L 140.168945 50.163742 
L 140.051219 50.193293 
L 139.933976 50.224708 
L 139.817247 50.257979 
L 139.70106 50.293098 
L 139.585445 50.330057 
L 139.470431 50.368844 
L 139.356047 50.409452 
L 139.242321 50.451869 
L 139.129283 50.496086 
L 139.01696 50.54209 
L 138.905382 50.589871 
L 138.794576 50.639416 
L 138.68457 50.690713 
L 138.575391 50.743748 
L 138.467068 50.798509 
L 138.359627 50.854982 
L 138.253096 50.913153 
L 138.147501 50.973006 
L 138.042869 51.034528 
L 137.939226 51.097701 
L 137.836598 51.162511 
L 137.735012 51.228941 
L 137.634493 51.296975 
L 137.535065 51.366595 
L 137.436755 51.437783 
L 137.339587 51.510523 
L 137.243584 51.584794 
L 137.148773 51.66058 
L 137.055175 51.737861 
L 136.962816 51.816616 
L 136.871718 51.896828 
L 136.781904 51.978474 
L 136.693396 52.061535 
L 136.606218 52.14599 
L 136.52039 52.231818 
L 136.435935 52.318996 
L 136.352874 52.407504 
L 136.271228 52.497318 
L 136.191016 52.588416 
L 136.112261 52.680775 
L 136.03498 52.774373 
L 135.959194 52.869184 
L 135.884923 52.965187 
L 135.812183 53.062355 
L 135.740995 53.160665 
L 135.671375 53.260093 
L 135.603341 53.360612 
L 135.536911 53.462198 
L 135.472101 53.564826 
L 135.408928 53.668469 
L 135.347406 53.773101 
L 135.287553 53.878696 
L 135.229382 53.985227 
L 135.172909 54.092668 
L 135.118148 54.200991 
L 135.065113 54.31017 
L 135.013816 54.420176 
L 134.964271 54.530982 
L 134.91649 54.64256 
L 134.870486 54.754883 
L 134.826269 54.867921 
L 134.783852 54.981647 
L 134.743244 55.096031 
L 134.704457 55.211045 
L 134.667498 55.32666 
L 134.632379 55.442847 
L 134.599108 55.559576 
L 134.567693 55.676819 
L 134.538142 55.794545 
L 134.510463 55.912725 
L 134.484662 56.03133 
L 134.460746 56.150329 
L 134.438721 56.269692 
L 134.418593 56.38939 
L 134.400367 56.509392 
L 134.384046 56.629668 
L 134.369636 56.750188 
L 134.35714 56.870922 
L 134.346562 56.991838 
L 134.337903 57.112908 
L 134.331165 57.234099 
L 134.326352 57.355382 
L 134.323464 57.476726 
L 134.322501 57.598101 
L 134.322501 66.778101 
L 134.323464 66.899475 
L 134.326352 67.020819 
L 134.331165 67.142102 
L 134.337903 67.263294 
L 134.346562 67.384363 
L 134.35714 67.505279 
L 134.369636 67.626013 
L 134.384046 67.746533 
L 134.400367 67.866809 
L 134.418593 67.986811 
L 134.438721 68.106509 
L 134.460746 68.225873 
L 134.484662 68.344872 
L 134.510463 68.463476 
L 134.538142 68.581656 
L 134.567693 68.699383 
L 134.599108 68.816625 
L 134.632379 68.933355 
L 134.667498 69.049541 
L 134.704457 69.165156 
L 134.743244 69.280171 
L 134.783852 69.394555 
L 134.826269 69.50828 
L 134.870486 69.621318 
L 134.91649 69.733641 
L 134.964271 69.845219 
L 135.013816 69.956025 
L 135.065113 70.066032 
L 135.118148 70.17521 
L 135.172909 70.283534 
L 135.229382 70.390974 
L 135.287553 70.497506 
L 135.347406 70.603101 
L 135.408928 70.707733 
L 135.472101 70.811375 
L 135.536911 70.914003 
L 135.603341 71.015589 
L 135.671375 71.116109 
L 135.740995 71.215536 
L 135.812183 71.313846 
L 135.884923 71.411015 
L 135.959194 71.507017 
L 136.03498 71.601829 
L 136.112261 71.695426 
L 136.191016 71.787785 
L 136.271228 71.878883 
L 136.352874 71.968698 
L 136.435935 72.057205 
L 136.52039 72.144384 
L 136.606218 72.230211 
L 136.693396 72.314666 
L 136.781904 72.397727 
L 136.871718 72.479374 
L 136.962816 72.559585 
L 137.055175 72.638341 
L 137.148773 72.715621 
L 137.243584 72.791407 
L 137.339587 72.865679 
L 137.436755 72.938418 
L 137.535065 73.009607 
L 137.634493 73.079226 
L 137.735012 73.14726 
L 137.836598 73.21369 
L 137.939226 73.2785 
L 138.042869 73.341674 
L 138.147501 73.403195 
L 138.253096 73.463048 
L 138.359627 73.521219 
L 138.467068 73.577692 
L 138.575391 73.632453 
L 138.68457 73.685489 
L 138.794576 73.736785 
L 138.905382 73.78633 
L 139.01696 73.834111 
L 139.129283 73.880115 
L 139.242321 73.924332 
L 139.356047 73.966749 
L 139.470431 74.007357 
L 139.585445 74.046145 
L 139.70106 74.083103 
L 139.817247 74.118222 
L 139.933976 74.151493 
L 140.051219 74.182908 
L 140.168945 74.212459 
L 140.287125 74.240138 
L 140.40573 74.265939 
L 140.524729 74.289855 
L 140.644092 74.31188 
L 140.76379 74.332008 
L 140.883792 74.350235 
L 141.004068 74.366555 
L 141.124588 74.380965 
L 141.245322 74.393461 
L 141.366238 74.40404 
L 141.487308 74.412699 
L 141.608499 74.419436 
L 141.729782 74.424249 
L 141.851126 74.427138 
L 141.972501 74.428101 
z
" clip-path="url(#p310e007cfc)" style="fill: #ff0000; fill-opacity: 0.2; stroke: #ff0000; stroke-linecap: round"/>
   </g>
   <g id="patch_3">
    <path d="M 59.352501 74.428101 
L 59.473875 74.427138 
L 59.595219 74.424249 
L 59.716502 74.419436 
L 59.837694 74.412699 
L 59.958763 74.40404 
L 60.079679 74.393461 
L 60.200413 74.380965 
L 60.320933 74.366555 
L 60.441209 74.350235 
L 60.561211 74.332008 
L 60.680909 74.31188 
L 60.800273 74.289855 
L 60.919272 74.265939 
L 61.037876 74.240138 
L 61.156056 74.212459 
L 61.273783 74.182908 
L 61.391025 74.151493 
L 61.507755 74.118222 
L 61.623941 74.083103 
L 61.739556 74.046145 
L 61.854571 74.007357 
L 61.968955 73.966749 
L 62.08268 73.924332 
L 62.195718 73.880115 
L 62.308041 73.834111 
L 62.419619 73.78633 
L 62.530425 73.736785 
L 62.640432 73.685489 
L 62.74961 73.632453 
L 62.857934 73.577692 
L 62.965374 73.521219 
L 63.071906 73.463048 
L 63.177501 73.403195 
L 63.282133 73.341674 
L 63.385775 73.2785 
L 63.488403 73.21369 
L 63.589989 73.14726 
L 63.690509 73.079226 
L 63.789936 73.009607 
L 63.888246 72.938418 
L 63.985415 72.865679 
L 64.081417 72.791407 
L 64.176229 72.715621 
L 64.269826 72.638341 
L 64.362185 72.559585 
L 64.453283 72.479374 
L 64.543098 72.397727 
L 64.631605 72.314666 
L 64.718784 72.230211 
L 64.804611 72.144384 
L 64.889066 72.057205 
L 64.972127 71.968698 
L 65.053774 71.878883 
L 65.133985 71.787785 
L 65.212741 71.695426 
L 65.290021 71.601829 
L 65.365807 71.507017 
L 65.440079 71.411015 
L 65.512818 71.313846 
L 65.584007 71.215536 
L 65.653626 71.116109 
L 65.72166 71.015589 
L 65.78809 70.914003 
L 65.8529 70.811375 
L 65.916074 70.707733 
L 65.977595 70.603101 
L 66.037448 70.497506 
L 66.095619 70.390974 
L 66.152092 70.283534 
L 66.206853 70.17521 
L 66.259889 70.066032 
L 66.311185 69.956025 
L 66.36073 69.845219 
L 66.408511 69.733641 
L 66.454515 69.621318 
L 66.498732 69.50828 
L 66.541149 69.394555 
L 66.581757 69.280171 
L 66.620545 69.165156 
L 66.657503 69.049541 
L 66.692622 68.933355 
L 66.725893 68.816625 
L 66.757308 68.699383 
L 66.786859 68.581656 
L 66.814538 68.463476 
L 66.840339 68.344872 
L 66.864255 68.225873 
L 66.88628 68.106509 
L 66.906408 67.986811 
L 66.924635 67.866809 
L 66.940955 67.746533 
L 66.955365 67.626013 
L 66.967861 67.505279 
L 66.97844 67.384363 
L 66.987099 67.263294 
L 66.993836 67.142102 
L 66.998649 67.020819 
L 67.001538 66.899475 
L 67.002501 66.778101 
L 67.002501 57.598101 
L 67.001538 57.476726 
L 66.998649 57.355382 
L 66.993836 57.234099 
L 66.987099 57.112908 
L 66.97844 56.991838 
L 66.967861 56.870922 
L 66.955365 56.750188 
L 66.940955 56.629668 
L 66.924635 56.509392 
L 66.906408 56.38939 
L 66.88628 56.269692 
L 66.864255 56.150329 
L 66.840339 56.03133 
L 66.814538 55.912725 
L 66.786859 55.794545 
L 66.757308 55.676819 
L 66.725893 55.559576 
L 66.692622 55.442847 
L 66.657503 55.32666 
L 66.620545 55.211045 
L 66.581757 55.096031 
L 66.541149 54.981647 
L 66.498732 54.867921 
L 66.454515 54.754883 
L 66.408511 54.64256 
L 66.36073 54.530982 
L 66.311185 54.420176 
L 66.259889 54.31017 
L 66.206853 54.200991 
L 66.152092 54.092668 
L 66.095619 53.985227 
L 66.037448 53.878696 
L 65.977595 53.773101 
L 65.916074 53.668469 
L 65.8529 53.564826 
L 65.78809 53.462198 
L 65.72166 53.360612 
L 65.653626 53.260093 
L 65.584007 53.160665 
L 65.512818 53.062355 
L 65.440079 52.965187 
L 65.365807 52.869184 
L 65.290021 52.774373 
L 65.212741 52.680775 
L 65.133985 52.588416 
L 65.053774 52.497318 
L 64.972127 52.407504 
L 64.889066 52.318996 
L 64.804611 52.231818 
L 64.718784 52.14599 
L 64.631605 52.061535 
L 64.543098 51.978474 
L 64.453283 51.896828 
L 64.362185 51.816616 
L 64.269826 51.737861 
L 64.176229 51.66058 
L 64.081417 51.584794 
L 63.985415 51.510523 
L 63.888246 51.437783 
L 63.789936 51.366595 
L 63.690509 51.296975 
L 63.589989 51.228941 
L 63.488403 51.162511 
L 63.385775 51.097701 
L 63.282133 51.034528 
L 63.177501 50.973006 
L 63.071906 50.913153 
L 62.965374 50.854982 
L 62.857934 50.798509 
L 62.74961 50.743748 
L 62.640432 50.690713 
L 62.530425 50.639416 
L 62.419619 50.589871 
L 62.308041 50.54209 
L 62.195718 50.496086 
L 62.08268 50.451869 
L 61.968955 50.409452 
L 61.854571 50.368844 
L 61.739556 50.330057 
L 61.623941 50.293098 
L 61.507755 50.257979 
L 61.391025 50.224708 
L 61.273783 50.193293 
L 61.156056 50.163742 
L 61.037876 50.136063 
L 60.919272 50.110262 
L 60.800273 50.086346 
L 60.680909 50.064321 
L 60.561211 50.044193 
L 60.441209 50.025967 
L 60.320933 50.009646 
L 60.200413 49.995236 
L 60.079679 49.98274 
L 59.958763 49.972162 
L 59.837694 49.963503 
L 59.716502 49.956765 
L 59.595219 49.951952 
L 59.473875 49.949064 
L 59.352501 49.948101 
L 44.052501 49.948101 
L 43.931126 49.949064 
L 43.809782 49.951952 
L 43.688499 49.956765 
L 43.567308 49.963503 
L 43.446238 49.972162 
L 43.325322 49.98274 
L 43.204588 49.995236 
L 43.084068 50.009646 
L 42.963792 50.025967 
L 42.84379 50.044193 
L 42.724092 50.064321 
L 42.604729 50.086346 
L 42.48573 50.110262 
L 42.367125 50.136063 
L 42.248945 50.163742 
L 42.131219 50.193293 
L 42.013976 50.224708 
L 41.897247 50.257979 
L 41.78106 50.293098 
L 41.665445 50.330057 
L 41.550431 50.368844 
L 41.436047 50.409452 
L 41.322321 50.451869 
L 41.209283 50.496086 
L 41.09696 50.54209 
L 40.985382 50.589871 
L 40.874576 50.639416 
L 40.76457 50.690713 
L 40.655391 50.743748 
L 40.547068 50.798509 
L 40.439627 50.854982 
L 40.333096 50.913153 
L 40.227501 50.973006 
L 40.122869 51.034528 
L 40.019226 51.097701 
L 39.916598 51.162511 
L 39.815012 51.228941 
L 39.714493 51.296975 
L 39.615065 51.366595 
L 39.516755 51.437783 
L 39.419587 51.510523 
L 39.323584 51.584794 
L 39.228773 51.66058 
L 39.135175 51.737861 
L 39.042816 51.816616 
L 38.951718 51.896828 
L 38.861904 51.978474 
L 38.773396 52.061535 
L 38.686218 52.14599 
L 38.60039 52.231818 
L 38.515935 52.318996 
L 38.432874 52.407504 
L 38.351228 52.497318 
L 38.271016 52.588416 
L 38.192261 52.680775 
L 38.11498 52.774373 
L 38.039194 52.869184 
L 37.964923 52.965187 
L 37.892183 53.062355 
L 37.820995 53.160665 
L 37.751375 53.260093 
L 37.683341 53.360612 
L 37.616911 53.462198 
L 37.552101 53.564826 
L 37.488928 53.668469 
L 37.427406 53.773101 
L 37.367553 53.878696 
L 37.309382 53.985227 
L 37.252909 54.092668 
L 37.198148 54.200991 
L 37.145113 54.31017 
L 37.093816 54.420176 
L 37.044271 54.530982 
L 36.99649 54.64256 
L 36.950486 54.754883 
L 36.906269 54.867921 
L 36.863852 54.981647 
L 36.823244 55.096031 
L 36.784457 55.211045 
L 36.747498 55.32666 
L 36.712379 55.442847 
L 36.679108 55.559576 
L 36.647693 55.676819 
L 36.618142 55.794545 
L 36.590463 55.912725 
L 36.564662 56.03133 
L 36.540746 56.150329 
L 36.518721 56.269692 
L 36.498593 56.38939 
L 36.480367 56.509392 
L 36.464046 56.629668 
L 36.449636 56.750188 
L 36.43714 56.870922 
L 36.426562 56.991838 
L 36.417903 57.112908 
L 36.411165 57.234099 
L 36.406352 57.355382 
L 36.403464 57.476726 
L 36.402501 57.598101 
L 36.402501 66.778101 
L 36.403464 66.899475 
L 36.406352 67.020819 
L 36.411165 67.142102 
L 36.417903 67.263294 
L 36.426562 67.384363 
L 36.43714 67.505279 
L 36.449636 67.626013 
L 36.464046 67.746533 
L 36.480367 67.866809 
L 36.498593 67.986811 
L 36.518721 68.106509 
L 36.540746 68.225873 
L 36.564662 68.344872 
L 36.590463 68.463476 
L 36.618142 68.581656 
L 36.647693 68.699383 
L 36.679108 68.816625 
L 36.712379 68.933355 
L 36.747498 69.049541 
L 36.784457 69.165156 
L 36.823244 69.280171 
L 36.863852 69.394555 
L 36.906269 69.50828 
L 36.950486 69.621318 
L 36.99649 69.733641 
L 37.044271 69.845219 
L 37.093816 69.956025 
L 37.145113 70.066032 
L 37.198148 70.17521 
L 37.252909 70.283534 
L 37.309382 70.390974 
L 37.367553 70.497506 
L 37.427406 70.603101 
L 37.488928 70.707733 
L 37.552101 70.811375 
L 37.616911 70.914003 
L 37.683341 71.015589 
L 37.751375 71.116109 
L 37.820995 71.215536 
L 37.892183 71.313846 
L 37.964923 71.411015 
L 38.039194 71.507017 
L 38.11498 71.601829 
L 38.192261 71.695426 
L 38.271016 71.787785 
L 38.351228 71.878883 
L 38.432874 71.968698 
L 38.515935 72.057205 
L 38.60039 72.144384 
L 38.686218 72.230211 
L 38.773396 72.314666 
L 38.861904 72.397727 
L 38.951718 72.479374 
L 39.042816 72.559585 
L 39.135175 72.638341 
L 39.228773 72.715621 
L 39.323584 72.791407 
L 39.419587 72.865679 
L 39.516755 72.938418 
L 39.615065 73.009607 
L 39.714493 73.079226 
L 39.815012 73.14726 
L 39.916598 73.21369 
L 40.019226 73.2785 
L 40.122869 73.341674 
L 40.227501 73.403195 
L 40.333096 73.463048 
L 40.439627 73.521219 
L 40.547068 73.577692 
L 40.655391 73.632453 
L 40.76457 73.685489 
L 40.874576 73.736785 
L 40.985382 73.78633 
L 41.09696 73.834111 
L 41.209283 73.880115 
L 41.322321 73.924332 
L 41.436047 73.966749 
L 41.550431 74.007357 
L 41.665445 74.046145 
L 41.78106 74.083103 
L 41.897247 74.118222 
L 42.013976 74.151493 
L 42.131219 74.182908 
L 42.248945 74.212459 
L 42.367125 74.240138 
L 42.48573 74.265939 
L 42.604729 74.289855 
L 42.724092 74.31188 
L 42.84379 74.332008 
L 42.963792 74.350235 
L 43.084068 74.366555 
L 43.204588 74.380965 
L 43.325322 74.393461 
L 43.446238 74.40404 
L 43.567308 74.412699 
L 43.688499 74.419436 
L 43.809782 74.424249 
L 43.931126 74.427138 
L 44.052501 74.428101 
z
" clip-path="url(#p310e007cfc)" style="fill: #ff0000; fill-opacity: 0.2; stroke: #ff0000; stroke-linecap: round"/>
   </g>
   <g id="patch_4">
    <path d="M 120.552501 105.028101 
L 120.673875 105.027138 
L 120.795219 105.024249 
L 120.916502 105.019436 
L 121.037694 105.012699 
L 121.158763 105.00404 
L 121.279679 104.993461 
L 121.400413 104.980965 
L 121.520933 104.966555 
L 121.641209 104.950235 
L 121.761211 104.932008 
L 121.880909 104.91188 
L 122.000273 104.889855 
L 122.119272 104.865939 
L 122.237876 104.840138 
L 122.356056 104.812459 
L 122.473783 104.782908 
L 122.591025 104.751493 
L 122.707755 104.718222 
L 122.823941 104.683103 
L 122.939556 104.646145 
L 123.054571 104.607357 
L 123.168955 104.566749 
L 123.28268 104.524332 
L 123.395718 104.480115 
L 123.508041 104.434111 
L 123.619619 104.38633 
L 123.730425 104.336785 
L 123.840432 104.285489 
L 123.94961 104.232453 
L 124.057934 104.177692 
L 124.165374 104.121219 
L 124.271906 104.063048 
L 124.377501 104.003195 
L 124.482133 103.941674 
L 124.585775 103.8785 
L 124.688403 103.81369 
L 124.789989 103.74726 
L 124.890509 103.679226 
L 124.989936 103.609607 
L 125.088246 103.538418 
L 125.185415 103.465679 
L 125.281417 103.391407 
L 125.376229 103.315621 
L 125.469826 103.238341 
L 125.562185 103.159585 
L 125.653283 103.079374 
L 125.743098 102.997727 
L 125.831605 102.914666 
L 125.918784 102.830211 
L 126.004611 102.744384 
L 126.089066 102.657205 
L 126.172127 102.568698 
L 126.253774 102.478883 
L 126.333985 102.387785 
L 126.412741 102.295426 
L 126.490021 102.201829 
L 126.565807 102.107017 
L 126.640079 102.011015 
L 126.712818 101.913846 
L 126.784007 101.815536 
L 126.853626 101.716109 
L 126.92166 101.615589 
L 126.98809 101.514003 
L 127.0529 101.411375 
L 127.116074 101.307733 
L 127.177595 101.203101 
L 127.237448 101.097506 
L 127.295619 100.990974 
L 127.352092 100.883534 
L 127.406853 100.77521 
L 127.459889 100.666032 
L 127.511185 100.556025 
L 127.56073 100.445219 
L 127.608511 100.333641 
L 127.654515 100.221318 
L 127.698732 100.10828 
L 127.741149 99.994555 
L 127.781757 99.880171 
L 127.820545 99.765156 
L 127.857503 99.649541 
L 127.892622 99.533355 
L 127.925893 99.416625 
L 127.957308 99.299383 
L 127.986859 99.181656 
L 128.014538 99.063476 
L 128.040339 98.944872 
L 128.064255 98.825873 
L 128.08628 98.706509 
L 128.106408 98.586811 
L 128.124635 98.466809 
L 128.140955 98.346533 
L 128.155365 98.226013 
L 128.167861 98.105279 
L 128.17844 97.984363 
L 128.187099 97.863294 
L 128.193836 97.742102 
L 128.198649 97.620819 
L 128.201538 97.499475 
L 128.202501 97.378101 
L 128.202501 57.598101 
L 128.201538 57.476726 
L 128.198649 57.355382 
L 128.193836 57.234099 
L 128.187099 57.112908 
L 128.17844 56.991838 
L 128.167861 56.870922 
L 128.155365 56.750188 
L 128.140955 56.629668 
L 128.124635 56.509392 
L 128.106408 56.38939 
L 128.08628 56.269692 
L 128.064255 56.150329 
L 128.040339 56.03133 
L 128.014538 55.912725 
L 127.986859 55.794545 
L 127.957308 55.676819 
L 127.925893 55.559576 
L 127.892622 55.442847 
L 127.857503 55.32666 
L 127.820545 55.211045 
L 127.781757 55.096031 
L 127.741149 54.981647 
L 127.698732 54.867921 
L 127.654515 54.754883 
L 127.608511 54.64256 
L 127.56073 54.530982 
L 127.511185 54.420176 
L 127.459889 54.31017 
L 127.406853 54.200991 
L 127.352092 54.092668 
L 127.295619 53.985227 
L 127.237448 53.878696 
L 127.177595 53.773101 
L 127.116074 53.668469 
L 127.0529 53.564826 
L 126.98809 53.462198 
L 126.92166 53.360612 
L 126.853626 53.260093 
L 126.784007 53.160665 
L 126.712818 53.062355 
L 126.640079 52.965187 
L 126.565807 52.869184 
L 126.490021 52.774373 
L 126.412741 52.680775 
L 126.333985 52.588416 
L 126.253774 52.497318 
L 126.172127 52.407504 
L 126.089066 52.318996 
L 126.004611 52.231818 
L 125.918784 52.14599 
L 125.831605 52.061535 
L 125.743098 51.978474 
L 125.653283 51.896828 
L 125.562185 51.816616 
L 125.469826 51.737861 
L 125.376229 51.66058 
L 125.281417 51.584794 
L 125.185415 51.510523 
L 125.088246 51.437783 
L 124.989936 51.366595 
L 124.890509 51.296975 
L 124.789989 51.228941 
L 124.688403 51.162511 
L 124.585775 51.097701 
L 124.482133 51.034528 
L 124.377501 50.973006 
L 124.271906 50.913153 
L 124.165374 50.854982 
L 124.057934 50.798509 
L 123.94961 50.743748 
L 123.840432 50.690713 
L 123.730425 50.639416 
L 123.619619 50.589871 
L 123.508041 50.54209 
L 123.395718 50.496086 
L 123.28268 50.451869 
L 123.168955 50.409452 
L 123.054571 50.368844 
L 122.939556 50.330057 
L 122.823941 50.293098 
L 122.707755 50.257979 
L 122.591025 50.224708 
L 122.473783 50.193293 
L 122.356056 50.163742 
L 122.237876 50.136063 
L 122.119272 50.110262 
L 122.000273 50.086346 
L 121.880909 50.064321 
L 121.761211 50.044193 
L 121.641209 50.025967 
L 121.520933 50.009646 
L 121.400413 49.995236 
L 121.279679 49.98274 
L 121.158763 49.972162 
L 121.037694 49.963503 
L 120.916502 49.956765 
L 120.795219 49.951952 
L 120.673875 49.949064 
L 120.552501 49.948101 
L 111.372501 49.948101 
L 111.251126 49.949064 
L 111.129782 49.951952 
L 111.008499 49.956765 
L 110.887308 49.963503 
L 110.766238 49.972162 
L 110.645322 49.98274 
L 110.524588 49.995236 
L 110.404068 50.009646 
L 110.283792 50.025967 
L 110.16379 50.044193 
L 110.044092 50.064321 
L 109.924729 50.086346 
L 109.80573 50.110262 
L 109.687125 50.136063 
L 109.568945 50.163742 
L 109.451219 50.193293 
L 109.333976 50.224708 
L 109.217247 50.257979 
L 109.10106 50.293098 
L 108.985445 50.330057 
L 108.870431 50.368844 
L 108.756047 50.409452 
L 108.642321 50.451869 
L 108.529283 50.496086 
L 108.41696 50.54209 
L 108.305382 50.589871 
L 108.194576 50.639416 
L 108.08457 50.690713 
L 107.975391 50.743748 
L 107.867068 50.798509 
L 107.759627 50.854982 
L 107.653096 50.913153 
L 107.547501 50.973006 
L 107.442869 51.034528 
L 107.339226 51.097701 
L 107.236598 51.162511 
L 107.135012 51.228941 
L 107.034493 51.296975 
L 106.935065 51.366595 
L 106.836755 51.437783 
L 106.739587 51.510523 
L 106.643584 51.584794 
L 106.548773 51.66058 
L 106.455175 51.737861 
L 106.362816 51.816616 
L 106.271718 51.896828 
L 106.181904 51.978474 
L 106.093396 52.061535 
L 106.006218 52.14599 
L 105.92039 52.231818 
L 105.835935 52.318996 
L 105.752874 52.407504 
L 105.671228 52.497318 
L 105.591016 52.588416 
L 105.512261 52.680775 
L 105.43498 52.774373 
L 105.359194 52.869184 
L 105.284923 52.965187 
L 105.212183 53.062355 
L 105.140995 53.160665 
L 105.071375 53.260093 
L 105.003341 53.360612 
L 104.936911 53.462198 
L 104.872101 53.564826 
L 104.808928 53.668469 
L 104.747406 53.773101 
L 104.687553 53.878696 
L 104.629382 53.985227 
L 104.572909 54.092668 
L 104.518148 54.200991 
L 104.465113 54.31017 
L 104.413816 54.420176 
L 104.364271 54.530982 
L 104.31649 54.64256 
L 104.270486 54.754883 
L 104.226269 54.867921 
L 104.183852 54.981647 
L 104.143244 55.096031 
L 104.104457 55.211045 
L 104.067498 55.32666 
L 104.032379 55.442847 
L 103.999108 55.559576 
L 103.967693 55.676819 
L 103.938142 55.794545 
L 103.910463 55.912725 
L 103.884662 56.03133 
L 103.860746 56.150329 
L 103.838721 56.269692 
L 103.818593 56.38939 
L 103.800367 56.509392 
L 103.784046 56.629668 
L 103.769636 56.750188 
L 103.75714 56.870922 
L 103.746562 56.991838 
L 103.737903 57.112908 
L 103.731165 57.234099 
L 103.726352 57.355382 
L 103.723464 57.476726 
L 103.722501 57.598101 
L 103.722501 97.378101 
L 103.723464 97.499475 
L 103.726352 97.620819 
L 103.731165 97.742102 
L 103.737903 97.863294 
L 103.746562 97.984363 
L 103.75714 98.105279 
L 103.769636 98.226013 
L 103.784046 98.346533 
L 103.800367 98.466809 
L 103.818593 98.586811 
L 103.838721 98.706509 
L 103.860746 98.825873 
L 103.884662 98.944872 
L 103.910463 99.063476 
L 103.938142 99.181656 
L 103.967693 99.299383 
L 103.999108 99.416625 
L 104.032379 99.533355 
L 104.067498 99.649541 
L 104.104457 99.765156 
L 104.143244 99.880171 
L 104.183852 99.994555 
L 104.226269 100.10828 
L 104.270486 100.221318 
L 104.31649 100.333641 
L 104.364271 100.445219 
L 104.413816 100.556025 
L 104.465113 100.666032 
L 104.518148 100.77521 
L 104.572909 100.883534 
L 104.629382 100.990974 
L 104.687553 101.097506 
L 104.747406 101.203101 
L 104.808928 101.307733 
L 104.872101 101.411375 
L 104.936911 101.514003 
L 105.003341 101.615589 
L 105.071375 101.716109 
L 105.140995 101.815536 
L 105.212183 101.913846 
L 105.284923 102.011015 
L 105.359194 102.107017 
L 105.43498 102.201829 
L 105.512261 102.295426 
L 105.591016 102.387785 
L 105.671228 102.478883 
L 105.752874 102.568698 
L 105.835935 102.657205 
L 105.92039 102.744384 
L 106.006218 102.830211 
L 106.093396 102.914666 
L 106.181904 102.997727 
L 106.271718 103.079374 
L 106.362816 103.159585 
L 106.455175 103.238341 
L 106.548773 103.315621 
L 106.643584 103.391407 
L 106.739587 103.465679 
L 106.836755 103.538418 
L 106.935065 103.609607 
L 107.034493 103.679226 
L 107.135012 103.74726 
L 107.236598 103.81369 
L 107.339226 103.8785 
L 107.442869 103.941674 
L 107.547501 104.003195 
L 107.653096 104.063048 
L 107.759627 104.121219 
L 107.867068 104.177692 
L 107.975391 104.232453 
L 108.08457 104.285489 
L 108.194576 104.336785 
L 108.305382 104.38633 
L 108.41696 104.434111 
L 108.529283 104.480115 
L 108.642321 104.524332 
L 108.756047 104.566749 
L 108.870431 104.607357 
L 108.985445 104.646145 
L 109.10106 104.683103 
L 109.217247 104.718222 
L 109.333976 104.751493 
L 109.451219 104.782908 
L 109.568945 104.812459 
L 109.687125 104.840138 
L 109.80573 104.865939 
L 109.924729 104.889855 
L 110.044092 104.91188 
L 110.16379 104.932008 
L 110.283792 104.950235 
L 110.404068 104.966555 
L 110.524588 104.980965 
L 110.645322 104.993461 
L 110.766238 105.00404 
L 110.887308 105.012699 
L 111.008499 105.019436 
L 111.129782 105.024249 
L 111.251126 105.027138 
L 111.372501 105.028101 
z
" clip-path="url(#p310e007cfc)" style="fill: #0000ff; fill-opacity: 0.2; stroke: #0000ff; stroke-linecap: round"/>
   </g>
   <g id="patch_5">
    <path d="M 151.152501 74.428101 
L 151.273875 74.427138 
L 151.395219 74.424249 
L 151.516502 74.419436 
L 151.637694 74.412699 
L 151.758763 74.40404 
L 151.879679 74.393461 
L 152.000413 74.380965 
L 152.120933 74.366555 
L 152.241209 74.350235 
L 152.361211 74.332008 
L 152.480909 74.31188 
L 152.600273 74.289855 
L 152.719272 74.265939 
L 152.837876 74.240138 
L 152.956056 74.212459 
L 153.073783 74.182908 
L 153.191025 74.151493 
L 153.307755 74.118222 
L 153.423941 74.083103 
L 153.539556 74.046145 
L 153.654571 74.007357 
L 153.768955 73.966749 
L 153.88268 73.924332 
L 153.995718 73.880115 
L 154.108041 73.834111 
L 154.219619 73.78633 
L 154.330425 73.736785 
L 154.440432 73.685489 
L 154.54961 73.632453 
L 154.657934 73.577692 
L 154.765374 73.521219 
L 154.871906 73.463048 
L 154.977501 73.403195 
L 155.082133 73.341674 
L 155.185775 73.2785 
L 155.288403 73.21369 
L 155.389989 73.14726 
L 155.490509 73.079226 
L 155.589936 73.009607 
L 155.688246 72.938418 
L 155.785415 72.865679 
L 155.881417 72.791407 
L 155.976229 72.715621 
L 156.069826 72.638341 
L 156.162185 72.559585 
L 156.253283 72.479374 
L 156.343098 72.397727 
L 156.431605 72.314666 
L 156.518784 72.230211 
L 156.604611 72.144384 
L 156.689066 72.057205 
L 156.772127 71.968698 
L 156.853774 71.878883 
L 156.933985 71.787785 
L 157.012741 71.695426 
L 157.090021 71.601829 
L 157.165807 71.507017 
L 157.240079 71.411015 
L 157.312818 71.313846 
L 157.384007 71.215536 
L 157.453626 71.116109 
L 157.52166 71.015589 
L 157.58809 70.914003 
L 157.6529 70.811375 
L 157.716074 70.707733 
L 157.777595 70.603101 
L 157.837448 70.497506 
L 157.895619 70.390974 
L 157.952092 70.283534 
L 158.006853 70.17521 
L 158.059889 70.066032 
L 158.111185 69.956025 
L 158.16073 69.845219 
L 158.208511 69.733641 
L 158.254515 69.621318 
L 158.298732 69.50828 
L 158.341149 69.394555 
L 158.381757 69.280171 
L 158.420545 69.165156 
L 158.457503 69.049541 
L 158.492622 68.933355 
L 158.525893 68.816625 
L 158.557308 68.699383 
L 158.586859 68.581656 
L 158.614538 68.463476 
L 158.640339 68.344872 
L 158.664255 68.225873 
L 158.68628 68.106509 
L 158.706408 67.986811 
L 158.724635 67.866809 
L 158.740955 67.746533 
L 158.755365 67.626013 
L 158.767861 67.505279 
L 158.77844 67.384363 
L 158.787099 67.263294 
L 158.793836 67.142102 
L 158.798649 67.020819 
L 158.801538 66.899475 
L 158.802501 66.778101 
L 158.802501 57.598101 
L 158.801538 57.476726 
L 158.798649 57.355382 
L 158.793836 57.234099 
L 158.787099 57.112908 
L 158.77844 56.991838 
L 158.767861 56.870922 
L 158.755365 56.750188 
L 158.740955 56.629668 
L 158.724635 56.509392 
L 158.706408 56.38939 
L 158.68628 56.269692 
L 158.664255 56.150329 
L 158.640339 56.03133 
L 158.614538 55.912725 
L 158.586859 55.794545 
L 158.557308 55.676819 
L 158.525893 55.559576 
L 158.492622 55.442847 
L 158.457503 55.32666 
L 158.420545 55.211045 
L 158.381757 55.096031 
L 158.341149 54.981647 
L 158.298732 54.867921 
L 158.254515 54.754883 
L 158.208511 54.64256 
L 158.16073 54.530982 
L 158.111185 54.420176 
L 158.059889 54.31017 
L 158.006853 54.200991 
L 157.952092 54.092668 
L 157.895619 53.985227 
L 157.837448 53.878696 
L 157.777595 53.773101 
L 157.716074 53.668469 
L 157.6529 53.564826 
L 157.58809 53.462198 
L 157.52166 53.360612 
L 157.453626 53.260093 
L 157.384007 53.160665 
L 157.312818 53.062355 
L 157.240079 52.965187 
L 157.165807 52.869184 
L 157.090021 52.774373 
L 157.012741 52.680775 
L 156.933985 52.588416 
L 156.853774 52.497318 
L 156.772127 52.407504 
L 156.689066 52.318996 
L 156.604611 52.231818 
L 156.518784 52.14599 
L 156.431605 52.061535 
L 156.343098 51.978474 
L 156.253283 51.896828 
L 156.162185 51.816616 
L 156.069826 51.737861 
L 155.976229 51.66058 
L 155.881417 51.584794 
L 155.785415 51.510523 
L 155.688246 51.437783 
L 155.589936 51.366595 
L 155.490509 51.296975 
L 155.389989 51.228941 
L 155.288403 51.162511 
L 155.185775 51.097701 
L 155.082133 51.034528 
L 154.977501 50.973006 
L 154.871906 50.913153 
L 154.765374 50.854982 
L 154.657934 50.798509 
L 154.54961 50.743748 
L 154.440432 50.690713 
L 154.330425 50.639416 
L 154.219619 50.589871 
L 154.108041 50.54209 
L 153.995718 50.496086 
L 153.88268 50.451869 
L 153.768955 50.409452 
L 153.654571 50.368844 
L 153.539556 50.330057 
L 153.423941 50.293098 
L 153.307755 50.257979 
L 153.191025 50.224708 
L 153.073783 50.193293 
L 152.956056 50.163742 
L 152.837876 50.136063 
L 152.719272 50.110262 
L 152.600273 50.086346 
L 152.480909 50.064321 
L 152.361211 50.044193 
L 152.241209 50.025967 
L 152.120933 50.009646 
L 152.000413 49.995236 
L 151.879679 49.98274 
L 151.758763 49.972162 
L 151.637694 49.963503 
L 151.516502 49.956765 
L 151.395219 49.951952 
L 151.273875 49.949064 
L 151.152501 49.948101 
L 111.372501 49.948101 
L 111.251126 49.949064 
L 111.129782 49.951952 
L 111.008499 49.956765 
L 110.887308 49.963503 
L 110.766238 49.972162 
L 110.645322 49.98274 
L 110.524588 49.995236 
L 110.404068 50.009646 
L 110.283792 50.025967 
L 110.16379 50.044193 
L 110.044092 50.064321 
L 109.924729 50.086346 
L 109.80573 50.110262 
L 109.687125 50.136063 
L 109.568945 50.163742 
L 109.451219 50.193293 
L 109.333976 50.224708 
L 109.217247 50.257979 
L 109.10106 50.293098 
L 108.985445 50.330057 
L 108.870431 50.368844 
L 108.756047 50.409452 
L 108.642321 50.451869 
L 108.529283 50.496086 
L 108.41696 50.54209 
L 108.305382 50.589871 
L 108.194576 50.639416 
L 108.08457 50.690713 
L 107.975391 50.743748 
L 107.867068 50.798509 
L 107.759627 50.854982 
L 107.653096 50.913153 
L 107.547501 50.973006 
L 107.442869 51.034528 
L 107.339226 51.097701 
L 107.236598 51.162511 
L 107.135012 51.228941 
L 107.034493 51.296975 
L 106.935065 51.366595 
L 106.836755 51.437783 
L 106.739587 51.510523 
L 106.643584 51.584794 
L 106.548773 51.66058 
L 106.455175 51.737861 
L 106.362816 51.816616 
L 106.271718 51.896828 
L 106.181904 51.978474 
L 106.093396 52.061535 
L 106.006218 52.14599 
L 105.92039 52.231818 
L 105.835935 52.318996 
L 105.752874 52.407504 
L 105.671228 52.497318 
L 105.591016 52.588416 
L 105.512261 52.680775 
L 105.43498 52.774373 
L 105.359194 52.869184 
L 105.284923 52.965187 
L 105.212183 53.062355 
L 105.140995 53.160665 
L 105.071375 53.260093 
L 105.003341 53.360612 
L 104.936911 53.462198 
L 104.872101 53.564826 
L 104.808928 53.668469 
L 104.747406 53.773101 
L 104.687553 53.878696 
L 104.629382 53.985227 
L 104.572909 54.092668 
L 104.518148 54.200991 
L 104.465113 54.31017 
L 104.413816 54.420176 
L 104.364271 54.530982 
L 104.31649 54.64256 
L 104.270486 54.754883 
L 104.226269 54.867921 
L 104.183852 54.981647 
L 104.143244 55.096031 
L 104.104457 55.211045 
L 104.067498 55.32666 
L 104.032379 55.442847 
L 103.999108 55.559576 
L 103.967693 55.676819 
L 103.938142 55.794545 
L 103.910463 55.912725 
L 103.884662 56.03133 
L 103.860746 56.150329 
L 103.838721 56.269692 
L 103.818593 56.38939 
L 103.800367 56.509392 
L 103.784046 56.629668 
L 103.769636 56.750188 
L 103.75714 56.870922 
L 103.746562 56.991838 
L 103.737903 57.112908 
L 103.731165 57.234099 
L 103.726352 57.355382 
L 103.723464 57.476726 
L 103.722501 57.598101 
L 103.722501 66.778101 
L 103.723464 66.899475 
L 103.726352 67.020819 
L 103.731165 67.142102 
L 103.737903 67.263294 
L 103.746562 67.384363 
L 103.75714 67.505279 
L 103.769636 67.626013 
L 103.784046 67.746533 
L 103.800367 67.866809 
L 103.818593 67.986811 
L 103.838721 68.106509 
L 103.860746 68.225873 
L 103.884662 68.344872 
L 103.910463 68.463476 
L 103.938142 68.581656 
L 103.967693 68.699383 
L 103.999108 68.816625 
L 104.032379 68.933355 
L 104.067498 69.049541 
L 104.104457 69.165156 
L 104.143244 69.280171 
L 104.183852 69.394555 
L 104.226269 69.50828 
L 104.270486 69.621318 
L 104.31649 69.733641 
L 104.364271 69.845219 
L 104.413816 69.956025 
L 104.465113 70.066032 
L 104.518148 70.17521 
L 104.572909 70.283534 
L 104.629382 70.390974 
L 104.687553 70.497506 
L 104.747406 70.603101 
L 104.808928 70.707733 
L 104.872101 70.811375 
L 104.936911 70.914003 
L 105.003341 71.015589 
L 105.071375 71.116109 
L 105.140995 71.215536 
L 105.212183 71.313846 
L 105.284923 71.411015 
L 105.359194 71.507017 
L 105.43498 71.601829 
L 105.512261 71.695426 
L 105.591016 71.787785 
L 105.671228 71.878883 
L 105.752874 71.968698 
L 105.835935 72.057205 
L 105.92039 72.144384 
L 106.006218 72.230211 
L 106.093396 72.314666 
L 106.181904 72.397727 
L 106.271718 72.479374 
L 106.362816 72.559585 
L 106.455175 72.638341 
L 106.548773 72.715621 
L 106.643584 72.791407 
L 106.739587 72.865679 
L 106.836755 72.938418 
L 106.935065 73.009607 
L 107.034493 73.079226 
L 107.135012 73.14726 
L 107.236598 73.21369 
L 107.339226 73.2785 
L 107.442869 73.341674 
L 107.547501 73.403195 
L 107.653096 73.463048 
L 107.759627 73.521219 
L 107.867068 73.577692 
L 107.975391 73.632453 
L 108.08457 73.685489 
L 108.194576 73.736785 
L 108.305382 73.78633 
L 108.41696 73.834111 
L 108.529283 73.880115 
L 108.642321 73.924332 
L 108.756047 73.966749 
L 108.870431 74.007357 
L 108.985445 74.046145 
L 109.10106 74.083103 
L 109.217247 74.118222 
L 109.333976 74.151493 
L 109.451219 74.182908 
L 109.568945 74.212459 
L 109.687125 74.240138 
L 109.80573 74.265939 
L 109.924729 74.289855 
L 110.044092 74.31188 
L 110.16379 74.332008 
L 110.283792 74.350235 
L 110.404068 74.366555 
L 110.524588 74.380965 
L 110.645322 74.393461 
L 110.766238 74.40404 
L 110.887308 74.412699 
L 111.008499 74.419436 
L 111.129782 74.424249 
L 111.251126 74.427138 
L 111.372501 74.428101 
z
" clip-path="url(#p310e007cfc)" style="fill: #00ff00; fill-opacity: 0.2; stroke: #008000; stroke-linecap: round"/>
   </g>
   <g id="line2d_1">
    <path d="M 39.462501 108.088101 
L 161.862501 108.088101 
L 161.862501 46.888101 
L 39.462501 46.888101 
L 39.462501 108.088101 
" clip-path="url(#p310e007cfc)" style="fill: none; stroke: #000000; stroke-width: 1.25; stroke-linecap: round"/>
   </g>
   <g id="line2d_2">
    <path d="M 39.462501 108.088101 
L 161.862501 108.088101 
" clip-path="url(#p310e007cfc)" style="fill: none; stroke: #000000; stroke-width: 1.25; stroke-linecap: round"/>
   </g>
   <g id="line2d_3">
    <path d="M 39.462501 77.488101 
L 161.862501 77.488101 
" clip-path="url(#p310e007cfc)" style="fill: none; stroke: #000000; stroke-width: 1.25; stroke-linecap: round"/>
   </g>
   <g id="line2d_4">
    <path d="M 39.462501 108.088101 
L 39.462501 46.888101 
" clip-path="url(#p310e007cfc)" style="fill: none; stroke: #000000; stroke-width: 1.25; stroke-linecap: round"/>
   </g>
   <g id="line2d_5">
    <path d="M 70.062501 108.088101 
L 70.062501 46.888101 
" clip-path="url(#p310e007cfc)" style="fill: none; stroke: #000000; stroke-width: 1.25; stroke-linecap: round"/>
   </g>
   <g id="line2d_6">
    <path d="M 100.662501 108.088101 
L 100.662501 46.888101 
" clip-path="url(#p310e007cfc)" style="fill: none; stroke: #000000; stroke-width: 1.25; stroke-linecap: round"/>
   </g>
   <g id="line2d_7">
    <path d="M 131.262501 108.088101 
L 131.262501 46.888101 
" clip-path="url(#p310e007cfc)" style="fill: none; stroke: #000000; stroke-width: 1.25; stroke-linecap: round"/>
   </g>
   <g id="line2d_8">
    <path d="M 39.462501 46.888101 
L 17.825033 25.250633 
" clip-path="url(#p310e007cfc)" style="fill: none; stroke: #000000; stroke-width: 1.25; stroke-linecap: round"/>
   </g>
   <g id="text_1">
    <g clip-path="url(#p310e007cfc)">
     <!-- AB -->
     <g transform="translate(25.07586 28.476328)scale(0.105 -0.105)">
      <defs>
       <path id="DejaVuSans-41" d="M 2188 4044 
L 1331 1722 
L 3047 1722 
L 2188 4044 
z
M 1831 4666 
L 2547 4666 
L 4325 0 
L 3669 0 
L 3244 1197 
L 1141 1197 
L 716 0 
L 50 0 
L 1831 4666 
z
" transform="scale(0.015625)"/>
       <path id="DejaVuSans-42" d="M 1259 2228 
L 1259 519 
L 2272 519 
Q 2781 519 3026 730 
Q 3272 941 3272 1375 
Q 3272 1813 3026 2020 
Q 2781 2228 2272 2228 
L 1259 2228 
z
M 1259 4147 
L 1259 2741 
L 2194 2741 
Q 2656 2741 2882 2914 
Q 3109 3088 3109 3444 
Q 3109 3797 2882 3972 
Q 2656 4147 2194 4147 
L 1259 4147 
z
M 628 4666 
L 2241 4666 
Q 2963 4666 3353 4366 
Q 3744 4066 3744 3513 
Q 3744 3084 3544 2831 
Q 3344 2578 2956 2516 
Q 3422 2416 3680 2098 
Q 3938 1781 3938 1306 
Q 3938 681 3513 340 
Q 3088 0 2303 0 
L 628 0 
L 628 4666 
z
" transform="scale(0.015625)"/>
      </defs>
      <use xlink:href="#DejaVuSans-41"/>
      <use xlink:href="#DejaVuSans-42" x="68.408203"/>
     </g>
    </g>
   </g>
   <g id="text_2">
    <g clip-path="url(#p310e007cfc)">
     <!-- C -->
     <g transform="translate(15.902447 44.704429)scale(0.105 -0.105)">
      <defs>
       <path id="DejaVuSans-43" d="M 4122 4306 
L 4122 3641 
Q 3803 3938 3442 4084 
Q 3081 4231 2675 4231 
Q 1875 4231 1450 3742 
Q 1025 3253 1025 2328 
Q 1025 1406 1450 917 
Q 1875 428 2675 428 
Q 3081 428 3442 575 
Q 3803 722 4122 1019 
L 4122 359 
Q 3791 134 3420 21 
Q 3050 -91 2638 -91 
Q 1578 -91 968 557 
Q 359 1206 359 2328 
Q 359 3453 968 4101 
Q 1578 4750 2638 4750 
Q 3056 4750 3426 4639 
Q 3797 4528 4122 4306 
z
" transform="scale(0.015625)"/>
      </defs>
      <use xlink:href="#DejaVuSans-43"/>
     </g>
    </g>
   </g>
   <g id="text_3">
    <g clip-path="url(#p310e007cfc)">
     <!-- 00 -->
     <g transform="translate(49.354376 43.590366)scale(0.085 -0.085)">
      <defs>
       <path id="DejaVuSans-30" d="M 2034 4250 
Q 1547 4250 1301 3770 
Q 1056 3291 1056 2328 
Q 1056 1369 1301 889 
Q 1547 409 2034 409 
Q 2525 409 2770 889 
Q 3016 1369 3016 2328 
Q 3016 3291 2770 3770 
Q 2525 4250 2034 4250 
z
M 2034 4750 
Q 2819 4750 3233 4129 
Q 3647 3509 3647 2328 
Q 3647 1150 3233 529 
Q 2819 -91 2034 -91 
Q 1250 -91 836 529 
Q 422 1150 422 2328 
Q 422 3509 836 4129 
Q 1250 4750 2034 4750 
z
" transform="scale(0.015625)"/>
      </defs>
      <use xlink:href="#DejaVuSans-30"/>
      <use xlink:href="#DejaVuSans-30" x="63.623047"/>
     </g>
    </g>
   </g>
   <g id="text_4">
    <g clip-path="url(#p310e007cfc)">
     <!-- 01 -->
     <g transform="translate(79.954376 43.590366)scale(0.085 -0.085)">
      <defs>
       <path id="DejaVuSans-31" d="M 794 531 
L 1825 531 
L 1825 4091 
L 703 3866 
L 703 4441 
L 1819 4666 
L 2450 4666 
L 2450 531 
L 3481 531 
L 3481 0 
L 794 0 
L 794 531 
z
" transform="scale(0.015625)"/>
      </defs>
      <use xlink:href="#DejaVuSans-30"/>
      <use xlink:href="#DejaVuSans-31" x="63.623047"/>
     </g>
    </g>
   </g>
   <g id="text_5">
    <g clip-path="url(#p310e007cfc)">
     <!-- 10 -->
     <g transform="translate(141.154376 43.590366)scale(0.085 -0.085)">
      <use xlink:href="#DejaVuSans-31"/>
      <use xlink:href="#DejaVuSans-30" x="63.623047"/>
     </g>
    </g>
   </g>
   <g id="text_6">
    <g clip-path="url(#p310e007cfc)">
     <!-- 11 -->
     <g transform="translate(110.554376 43.590366)scale(0.085 -0.085)">
      <use xlink:href="#DejaVuSans-31"/>
      <use xlink:href="#DejaVuSans-31" x="63.623047"/>
     </g>
    </g>
   </g>
   <g id="text_7">
    <g clip-path="url(#p310e007cfc)">
     <!-- 0 -->
     <g transform="translate(30.994376 64.533569)scale(0.085 -0.085)">
      <use xlink:href="#DejaVuSans-30"/>
     </g>
    </g>
   </g>
   <g id="text_8">
    <g clip-path="url(#p310e007cfc)">
     <!-- 1 -->
     <g transform="translate(30.994376 95.133569)scale(0.085 -0.085)">
      <use xlink:href="#DejaVuSans-31"/>
     </g>
    </g>
   </g>
   <g id="text_9">
    <g clip-path="url(#p310e007cfc)">
     <!-- 1 -->
     <g transform="translate(51.422188 65.085444)scale(0.105 -0.105)">
      <use xlink:href="#DejaVuSans-31"/>
     </g>
    </g>
   </g>
   <g id="text_10">
    <g clip-path="url(#p310e007cfc)">
     <!-- 0 -->
     <g transform="translate(51.422188 95.685444)scale(0.105 -0.105)">
      <use xlink:href="#DejaVuSans-30"/>
     </g>
    </g>
   </g>
   <g id="text_11">
    <g clip-path="url(#p310e007cfc)">
     <!-- 0 -->
     <g transform="translate(82.022188 65.085444)scale(0.105 -0.105)">
      <use xlink:href="#DejaVuSans-30"/>
     </g>
    </g>
   </g>
   <g id="text_12">
    <g clip-path="url(#p310e007cfc)">
     <!-- 0 -->
     <g transform="translate(82.022188 95.685444)scale(0.105 -0.105)">
      <use xlink:href="#DejaVuSans-30"/>
     </g>
    </g>
   </g>
   <g id="text_13">
    <g clip-path="url(#p310e007cfc)">
     <!-- 1 -->
     <g transform="translate(143.222188 65.085444)scale(0.105 -0.105)">
      <use xlink:href="#DejaVuSans-31"/>
     </g>
    </g>
   </g>
   <g id="text_14">
    <g clip-path="url(#p310e007cfc)">
     <!-- 0 -->
     <g transform="translate(143.222188 95.685444)scale(0.105 -0.105)">
      <use xlink:href="#DejaVuSans-30"/>
     </g>
    </g>
   </g>
   <g id="text_15">
    <g clip-path="url(#p310e007cfc)">
     <!-- 1 -->
     <g transform="translate(112.622188 65.085444)scale(0.105 -0.105)">
      <use xlink:href="#DejaVuSans-31"/>
     </g>
    </g>
   </g>
   <g id="text_16">
    <g clip-path="url(#p310e007cfc)">
     <!-- 1 -->
     <g transform="translate(112.622188 95.685444)scale(0.105 -0.105)">
      <use xlink:href="#DejaVuSans-31"/>
     </g>
    </g>
   </g>
  </g>
 </g>
 <defs>
  <clipPath id="p310e007cfc">
   <rect x="7.2" y="7.2" width="160.782501" height="103.948101"/>
  </clipPath>
 </defs>
</svg>
