<?xml version="1.0" encoding="utf-8" standalone="no"?>
<!DOCTYPE svg PUBLIC "-//W3C//DTD SVG 1.1//EN"
  "http://www.w3.org/Graphics/SVG/1.1/DTD/svg11.dtd">
<svg xmlns:xlink="http://www.w3.org/1999/xlink" width="176.253501pt" height="118.348101pt" viewBox="0 0 176.253501 118.348101" xmlns="http://www.w3.org/2000/svg" version="1.1">
 <metadata>
  <rdf:RDF xmlns:dc="http://purl.org/dc/elements/1.1/" xmlns:cc="http://creativecommons.org/ns#" xmlns:rdf="http://www.w3.org/1999/02/22-rdf-syntax-ns#">
   <cc:Work>
    <dc:type rdf:resource="http://purl.org/dc/dcmitype/StillImage"/>
    <dc:date>2022-01-16T08:27:47.278263</dc:date>
    <dc:format>image/svg+xml</dc:format>
    <dc:creator>
     <cc:Agent>
      <dc:title>Matplotlib v3.5.1, https://matplotlib.org/</dc:title>
     </cc:Agent>
    </dc:creator>
   </cc:Work>
  </rdf:RDF>
 </metadata>
 <defs>
  <style type="text/css">*{stroke-linejoin: round; stroke-linecap: butt}</style>
 </defs>
 <g id="figure_1">
  <g id="patch_1">
   <path d="M 0 118.348101 
L 176.253501 118.348101 
L 176.253501 0 
L 0 0 
L 0 118.348101 
z
" style="fill: none"/>
  </g>
  <g id="axes_1">
   <g id="line2d_1">
    <path d="M 39.462501 108.088101 
L 161.862501 108.088101 
L 161.862501 46.888101 
L 39.462501 46.888101 
L 39.462501 108.088101 
" clip-path="url(#p4c504515c8)" style="fill: none; stroke: #000000; stroke-width: 1.25; stroke-linecap: round"/>
   </g>
   <g id="line2d_2">
    <path d="M 39.462501 108.088101 
L 161.862501 108.088101 
" clip-path="url(#p4c504515c8)" style="fill: none; stroke: #000000; stroke-width: 1.25; stroke-linecap: round"/>
   </g>
   <g id="line2d_3">
    <path d="M 39.462501 77.488101 
L 161.862501 77.488101 
" clip-path="url(#p4c504515c8)" style="fill: none; stroke: #000000; stroke-width: 1.25; stroke-linecap: round"/>
   </g>
   <g id="line2d_4">
    <path d="M 39.462501 108.088101 
L 39.462501 46.888101 
" clip-path="url(#p4c504515c8)" style="fill: none; stroke: #000000; stroke-width: 1.25; stroke-linecap: round"/>
   </g>
   <g id="line2d_5">
    <path d="M 70.062501 108.088101 
L 70.062501 46.888101 
" clip-path="url(#p4c504515c8)" style="fill: none; stroke: #000000; stroke-width: 1.25; stroke-linecap: round"/>
   </g>
   <g id="line2d_6">
    <path d="M 100.662501 108.088101 
L 100.662501 46.888101 
" clip-path="url(#p4c504515c8)" style="fill: none; stroke: #000000; stroke-width: 1.25; stroke-linecap: round"/>
   </g>
   <g id="line2d_7">
    <path d="M 131.262501 108.088101 
L 131.262501 46.888101 
" clip-path="url(#p4c504515c8)" style="fill: none; stroke: #000000; stroke-width: 1.25; stroke-linecap: round"/>
   </g>
   <g id="line2d_8">
    <path d="M 39.462501 46.888101 
L 17.825033 25.250633 
" clip-path="url(#p4c504515c8)" style="fill: none; stroke: #000000; stroke-width: 1.25; stroke-linecap: round"/>
   </g>
   <g id="text_1">
    <g clip-path="url(#p4c504515c8)">
     <!-- AB -->
     <g transform="translate(25.07586 28.476328)scale(0.105 -0.105)">
      <defs>
       <path id="DejaVuSans-41" d="M 2188 4044 
L 1331 1722 
L 3047 1722 
L 2188 4044 
z
M 1831 4666 
L 2547 4666 
L 4325 0 
L 3669 0 
L 3244 1197 
L 1141 1197 
L 716 0 
L 50 0 
L 1831 4666 
z
" transform="scale(0.015625)"/>
       <path id="DejaVuSans-42" d="M 1259 2228 
L 1259 519 
L 2272 519 
Q 2781 519 3026 730 
Q 3272 941 3272 1375 
Q 3272 1813 3026 2020 
Q 2781 2228 2272 2228 
L 1259 2228 
z
M 1259 4147 
L 1259 2741 
L 2194 2741 
Q 2656 2741 2882 2914 
Q 3109 3088 3109 3444 
Q 3109 3797 2882 3972 
Q 2656 4147 2194 4147 
L 1259 4147 
z
M 628 4666 
L 2241 4666 
Q 2963 4666 3353 4366 
Q 3744 4066 3744 3513 
Q 3744 3084 3544 2831 
Q 3344 2578 2956 2516 
Q 3422 2416 3680 2098 
Q 3938 1781 3938 1306 
Q 3938 681 3513 340 
Q 3088 0 2303 0 
L 628 0 
L 628 4666 
z
" transform="scale(0.015625)"/>
      </defs>
      <use xlink:href="#DejaVuSans-41"/>
      <use xlink:href="#DejaVuSans-42" x="68.408203"/>
     </g>
    </g>
   </g>
   <g id="text_2">
    <g clip-path="url(#p4c504515c8)">
     <!-- C -->
     <g transform="translate(15.902447 44.704429)scale(0.105 -0.105)">
      <defs>
       <path id="DejaVuSans-43" d="M 4122 4306 
L 4122 3641 
Q 3803 3938 3442 4084 
Q 3081 4231 2675 4231 
Q 1875 4231 1450 3742 
Q 1025 3253 1025 2328 
Q 1025 1406 1450 917 
Q 1875 428 2675 428 
Q 3081 428 3442 575 
Q 3803 722 4122 1019 
L 4122 359 
Q 3791 134 3420 21 
Q 3050 -91 2638 -91 
Q 1578 -91 968 557 
Q 359 1206 359 2328 
Q 359 3453 968 4101 
Q 1578 4750 2638 4750 
Q 3056 4750 3426 4639 
Q 3797 4528 4122 4306 
z
" transform="scale(0.015625)"/>
      </defs>
      <use xlink:href="#DejaVuSans-43"/>
     </g>
    </g>
   </g>
   <g id="text_3">
    <g clip-path="url(#p4c504515c8)">
     <!-- 00 -->
     <g transform="translate(49.354376 43.590366)scale(0.085 -0.085)">
      <defs>
       <path id="DejaVuSans-30" d="M 2034 4250 
Q 1547 4250 1301 3770 
Q 1056 3291 1056 2328 
Q 1056 1369 1301 889 
Q 1547 409 2034 409 
Q 2525 409 2770 889 
Q 3016 1369 3016 2328 
Q 3016 3291 2770 3770 
Q 2525 4250 2034 4250 
z
M 2034 4750 
Q 2819 4750 3233 4129 
Q 3647 3509 3647 2328 
Q 3647 1150 3233 529 
Q 2819 -91 2034 -91 
Q 1250 -91 836 529 
Q 422 1150 422 2328 
Q 422 3509 836 4129 
Q 1250 4750 2034 4750 
z
" transform="scale(0.015625)"/>
      </defs>
      <use xlink:href="#DejaVuSans-30"/>
      <use xlink:href="#DejaVuSans-30" x="63.623047"/>
     </g>
    </g>
   </g>
   <g id="text_4">
    <g clip-path="url(#p4c504515c8)">
     <!-- 01 -->
     <g transform="translate(79.954376 43.590366)scale(0.085 -0.085)">
      <defs>
       <path id="DejaVuSans-31" d="M 794 531 
L 1825 531 
L 1825 4091 
L 703 3866 
L 703 4441 
L 1819 4666 
L 2450 4666 
L 2450 531 
L 3481 531 
L 3481 0 
L 794 0 
L 794 531 
z
" transform="scale(0.015625)"/>
      </defs>
      <use xlink:href="#DejaVuSans-30"/>
      <use xlink:href="#DejaVuSans-31" x="63.623047"/>
     </g>
    </g>
   </g>
   <g id="text_5">
    <g clip-path="url(#p4c504515c8)">
     <!-- 10 -->
     <g transform="translate(141.154376 43.590366)scale(0.085 -0.085)">
      <use xlink:href="#DejaVuSans-31"/>
      <use xlink:href="#DejaVuSans-30" x="63.623047"/>
     </g>
    </g>
   </g>
   <g id="text_6">
    <g clip-path="url(#p4c504515c8)">
     <!-- 11 -->
     <g transform="translate(110.554376 43.590366)scale(0.085 -0.085)">
      <use xlink:href="#DejaVuSans-31"/>
      <use xlink:href="#DejaVuSans-31" x="63.623047"/>
     </g>
    </g>
   </g>
   <g id="text_7">
    <g clip-path="url(#p4c504515c8)">
     <!-- 0 -->
     <g transform="translate(30.994376 64.533569)scale(0.085 -0.085)">
      <use xlink:href="#DejaVuSans-30"/>
     </g>
    </g>
   </g>
   <g id="text_8">
    <g clip-path="url(#p4c504515c8)">
     <!-- 1 -->
     <g transform="translate(30.994376 95.133569)scale(0.085 -0.085)">
      <use xlink:href="#DejaVuSans-31"/>
     </g>
    </g>
   </g>
   <g id="text_9">
    <g clip-path="url(#p4c504515c8)">
     <!-- m0 -->
     <g transform="translate(46.30836 65.085444)scale(0.105 -0.105)">
      <defs>
       <path id="DejaVuSans-6d" d="M 3328 2828 
Q 3544 3216 3844 3400 
Q 4144 3584 4550 3584 
Q 5097 3584 5394 3201 
Q 5691 2819 5691 2113 
L 5691 0 
L 5113 0 
L 5113 2094 
Q 5113 2597 4934 2840 
Q 4756 3084 4391 3084 
Q 3944 3084 3684 2787 
Q 3425 2491 3425 1978 
L 3425 0 
L 2847 0 
L 2847 2094 
Q 2847 2600 2669 2842 
Q 2491 3084 2119 3084 
Q 1678 3084 1418 2786 
Q 1159 2488 1159 1978 
L 1159 0 
L 581 0 
L 581 3500 
L 1159 3500 
L 1159 2956 
Q 1356 3278 1631 3431 
Q 1906 3584 2284 3584 
Q 2666 3584 2933 3390 
Q 3200 3197 3328 2828 
z
" transform="scale(0.015625)"/>
      </defs>
      <use xlink:href="#DejaVuSans-6d"/>
      <use xlink:href="#DejaVuSans-30" x="97.412109"/>
     </g>
    </g>
   </g>
   <g id="text_10">
    <g clip-path="url(#p4c504515c8)">
     <!-- m1 -->
     <g transform="translate(46.30836 95.685444)scale(0.105 -0.105)">
      <use xlink:href="#DejaVuSans-6d"/>
      <use xlink:href="#DejaVuSans-31" x="97.412109"/>
     </g>
    </g>
   </g>
   <g id="text_11">
    <g clip-path="url(#p4c504515c8)">
     <!-- m2 -->
     <g transform="translate(76.90836 65.085444)scale(0.105 -0.105)">
      <defs>
       <path id="DejaVuSans-32" d="M 1228 531 
L 3431 531 
L 3431 0 
L 469 0 
L 469 531 
Q 828 903 1448 1529 
Q 2069 2156 2228 2338 
Q 2531 2678 2651 2914 
Q 2772 3150 2772 3378 
Q 2772 3750 2511 3984 
Q 2250 4219 1831 4219 
Q 1534 4219 1204 4116 
Q 875 4013 500 3803 
L 500 4441 
Q 881 4594 1212 4672 
Q 1544 4750 1819 4750 
Q 2544 4750 2975 4387 
Q 3406 4025 3406 3419 
Q 3406 3131 3298 2873 
Q 3191 2616 2906 2266 
Q 2828 2175 2409 1742 
Q 1991 1309 1228 531 
z
" transform="scale(0.015625)"/>
      </defs>
      <use xlink:href="#DejaVuSans-6d"/>
      <use xlink:href="#DejaVuSans-32" x="97.412109"/>
     </g>
    </g>
   </g>
   <g id="text_12">
    <g clip-path="url(#p4c504515c8)">
     <!-- m3 -->
     <g transform="translate(76.90836 95.685444)scale(0.105 -0.105)">
      <defs>
       <path id="DejaVuSans-33" d="M 2597 2516 
Q 3050 2419 3304 2112 
Q 3559 1806 3559 1356 
Q 3559 666 3084 287 
Q 2609 -91 1734 -91 
Q 1441 -91 1130 -33 
Q 819 25 488 141 
L 488 750 
Q 750 597 1062 519 
Q 1375 441 1716 441 
Q 2309 441 2620 675 
Q 2931 909 2931 1356 
Q 2931 1769 2642 2001 
Q 2353 2234 1838 2234 
L 1294 2234 
L 1294 2753 
L 1863 2753 
Q 2328 2753 2575 2939 
Q 2822 3125 2822 3475 
Q 2822 3834 2567 4026 
Q 2313 4219 1838 4219 
Q 1578 4219 1281 4162 
Q 984 4106 628 3988 
L 628 4550 
Q 988 4650 1302 4700 
Q 1616 4750 1894 4750 
Q 2613 4750 3031 4423 
Q 3450 4097 3450 3541 
Q 3450 3153 3228 2886 
Q 3006 2619 2597 2516 
z
" transform="scale(0.015625)"/>
      </defs>
      <use xlink:href="#DejaVuSans-6d"/>
      <use xlink:href="#DejaVuSans-33" x="97.412109"/>
     </g>
    </g>
   </g>
   <g id="text_13">
    <g clip-path="url(#p4c504515c8)">
     <!-- m4 -->
     <g transform="translate(138.10836 65.085444)scale(0.105 -0.105)">
      <defs>
       <path id="DejaVuSans-34" d="M 2419 4116 
L 825 1625 
L 2419 1625 
L 2419 4116 
z
M 2253 4666 
L 3047 4666 
L 3047 1625 
L 3713 1625 
L 3713 1100 
L 3047 1100 
L 3047 0 
L 2419 0 
L 2419 1100 
L 313 1100 
L 313 1709 
L 2253 4666 
z
" transform="scale(0.015625)"/>
      </defs>
      <use xlink:href="#DejaVuSans-6d"/>
      <use xlink:href="#DejaVuSans-34" x="97.412109"/>
     </g>
    </g>
   </g>
   <g id="text_14">
    <g clip-path="url(#p4c504515c8)">
     <!-- m5 -->
     <g transform="translate(138.10836 95.685444)scale(0.105 -0.105)">
      <defs>
       <path id="DejaVuSans-35" d="M 691 4666 
L 3169 4666 
L 3169 4134 
L 1269 4134 
L 1269 2991 
Q 1406 3038 1543 3061 
Q 1681 3084 1819 3084 
Q 2600 3084 3056 2656 
Q 3513 2228 3513 1497 
Q 3513 744 3044 326 
Q 2575 -91 1722 -91 
Q 1428 -91 1123 -41 
Q 819 9 494 109 
L 494 744 
Q 775 591 1075 516 
Q 1375 441 1709 441 
Q 2250 441 2565 725 
Q 2881 1009 2881 1497 
Q 2881 1984 2565 2268 
Q 2250 2553 1709 2553 
Q 1456 2553 1204 2497 
Q 953 2441 691 2322 
L 691 4666 
z
" transform="scale(0.015625)"/>
      </defs>
      <use xlink:href="#DejaVuSans-6d"/>
      <use xlink:href="#DejaVuSans-35" x="97.412109"/>
     </g>
    </g>
   </g>
   <g id="text_15">
    <g clip-path="url(#p4c504515c8)">
     <!-- m6 -->
     <g transform="translate(107.50836 65.085444)scale(0.105 -0.105)">
      <defs>
       <path id="DejaVuSans-36" d="M 2113 2584 
Q 1688 2584 1439 2293 
Q 1191 2003 1191 1497 
Q 1191 994 1439 701 
Q 1688 409 2113 409 
Q 2538 409 2786 701 
Q 3034 994 3034 1497 
Q 3034 2003 2786 2293 
Q 2538 2584 2113 2584 
z
M 3366 4563 
L 3366 3988 
Q 3128 4100 2886 4159 
Q 2644 4219 2406 4219 
Q 1781 4219 1451 3797 
Q 1122 3375 1075 2522 
Q 1259 2794 1537 2939 
Q 1816 3084 2150 3084 
Q 2853 3084 3261 2657 
Q 3669 2231 3669 1497 
Q 3669 778 3244 343 
Q 2819 -91 2113 -91 
Q 1303 -91 875 529 
Q 447 1150 447 2328 
Q 447 3434 972 4092 
Q 1497 4750 2381 4750 
Q 2619 4750 2861 4703 
Q 3103 4656 3366 4563 
z
" transform="scale(0.015625)"/>
      </defs>
      <use xlink:href="#DejaVuSans-6d"/>
      <use xlink:href="#DejaVuSans-36" x="97.412109"/>
     </g>
    </g>
   </g>
   <g id="text_16">
    <g clip-path="url(#p4c504515c8)">
     <!-- m7 -->
     <g transform="translate(107.50836 95.685444)scale(0.105 -0.105)">
      <defs>
       <path id="DejaVuSans-37" d="M 525 4666 
L 3525 4666 
L 3525 4397 
L 1831 0 
L 1172 0 
L 2766 4134 
L 525 4134 
L 525 4666 
z
" transform="scale(0.015625)"/>
      </defs>
      <use xlink:href="#DejaVuSans-6d"/>
      <use xlink:href="#DejaVuSans-37" x="97.412109"/>
     </g>
    </g>
   </g>
  </g>
 </g>
 <defs>
  <clipPath id="p4c504515c8">
   <rect x="7.2" y="7.2" width="161.853501" height="103.948101"/>
  </clipPath>
 </defs>
</svg>
