<svg xmlns="http://www.w3.org/2000/svg" xml:lang="en" height="178.86269478283307pt" width="180.1478947828331pt" viewBox="-43.4178947828331 -173.6226947828331 180.1478947828331 178.86269478283307"><polygon points="118.25999999999999,-35.63999999999999 118.38851430706193,-35.6410195658416 118.51699626133434,-35.64407800669619 118.6454135181723,-35.64917455261763 118.77373374921817,-35.656307920577724 118.90192465053998,-35.66547631478926 119.02995395076387,-35.676677427158005 119.15778941919818,-35.68990843786384 119.28539887394736,-35.70516601607055 119.4127501900136,-35.72244632076444 119.53981130738413,-35.741745001721206 119.66655023910212,-35.76305720060111 119.7929350793193,-35.78637755217208 119.91893401132803,-35.81170018566029 120.04451531557096,-35.8390187262282 120.16964737762635,-35.86832629657931 120.29429869616673,-35.89961551868951 120.41843789088928,-35.93287851566446 120.54203371041557,-35.96810691372257 120.66505504015902,-36.005291844303 120.78747091015774,-36.044423946298345 120.9092505028711,-36.085493368411186 121.03036316093791,-36.128489771634136 121.15077839489415,-36.173402331852635 121.27046589084864,-36.22021974256981 121.38939551811434,-36.26893021775289 121.50753733679356,-36.31952149480024 121.62486160531526,-36.3719808376284 121.74133878792229,-36.42629503987837 121.85693956210676,-36.482450428240185 121.97163482599201,-36.54043286589512 122.08539570565871,-36.60022775607459 122.19819356241379,-36.66182004573474 122.30999999999999,-36.725194229346044 122.42078687174458,-36.79033435279669 122.53052628764506,-36.85722401740893 122.63919062139033,-36.925846384067434 122.74675251731549,-36.99618417745835 122.85318489728843,-37.06821969041835 122.95846096752669,-37.14193478839228 123.06255422534258,-37.217310913998425 123.16543846581509,-37.29432909170026 123.26708778838689,-37.37296993258342 123.36747660338463,-37.45321363923677 123.46657963846094,-37.53504001073628 123.56437194495679,-37.61842844773051 123.66082890418195,-37.70335795762639 123.75592623361275,-37.78980715987399 123.8496399930051,-37.877754291348936 123.94194659042118,-37.96717721183121 124.03282278816877,-38.058053409578804 124.12224570865105,-38.150360006994894 124.21019284012601,-38.24407376638723 124.29664204237359,-38.33917109581804 124.38157155226948,-38.43562805504319 124.4649599892637,-38.53342036153903 124.54678636076322,-38.63252339661537 124.62703006741657,-38.732912211613105 124.70567090829972,-38.8345615341849 124.78268908600157,-38.93744577465741 124.85806521160771,-39.041539032473295 124.93178030958163,-39.146815102711564 125.00381582254163,-39.25324748268451 125.07415361593254,-39.360809378609666 125.14277598259105,-39.46947371235493 125.2096656472033,-39.57921312825541 125.27480577065394,-39.69 125.33817995426524,-39.80180643758621 125.39977224392538,-39.914604294341274 125.45956713410486,-40.02836517400797 125.5175495717598,-40.143060437893226 125.57370496012162,-40.25866121207771 125.62801916237159,-40.375138394684726 125.68047850519974,-40.49246266320643 125.73106978224709,-40.61060448188566 125.77978025743018,-40.729534109151345 125.82659766814734,-40.849221605105846 125.87151022836584,-40.96963683906208 125.9145066315888,-41.09074949712888 125.95557605370163,-41.21252908984225 125.99470815569698,-41.33494495984098 126.03189308627742,-41.45796628958442 126.0671214843355,-41.58156210911072 126.10038448131046,-41.70570130383326 126.13167370342066,-41.830352622373645 126.16098127377177,-41.955484684429024 126.18829981433969,-42.08106598867196 126.2136224478279,-42.20706492068068 126.23694279939888,-42.33344976089787 126.25825499827877,-42.460188692615866 126.27755367923554,-42.58724980998639 126.29483398392942,-42.714601126052635 126.31009156213614,-42.84221058080181 126.32332257284196,-42.97004604923612 126.33452368521071,-43.09807534946002 126.34369207942224,-43.226266250781826 126.35082544738233,-43.35458648182769 126.35592199330377,-43.48300373866566 126.35898043415837,-43.611485692938054 126.35999999999997,-43.74 126.35999999999999,-85.86 126.35898043415838,-85.98851430706193 126.35592199330378,-86.11699626133435 126.35082544738235,-86.24541351817231 126.34369207942225,-86.37373374921816 126.33452368521073,-86.50192465053998 126.32332257284197,-86.62995395076388 126.31009156213615,-86.75778941919818 126.29483398392944,-86.88539887394737 126.27755367923555,-87.01275019001359 126.25825499827879,-87.13981130738414 126.23694279939888,-87.26655023910213 126.21362244782792,-87.39293507931932 126.1882998143397,-87.51893401132803 126.16098127377178,-87.64451531557097 126.13167370342067,-87.76964737762636 126.10038448131047,-87.89429869616674 126.06712148433552,-88.01843789088929 126.03189308627742,-88.14203371041557 125.994708155697,-88.26505504015903 125.95557605370165,-88.38747091015775 125.91450663158881,-88.50925050287111 125.87151022836585,-88.63036316093792 125.82659766814736,-88.75077839489416 125.77978025743019,-88.87046589084865 125.7310697822471,-88.98939551811434 125.68047850519976,-89.10753733679357 125.62801916237159,-89.22486160531528 125.57370496012163,-89.34133878792228 125.51754957175982,-89.45693956210675 125.45956713410487,-89.571634825992 125.3997722439254,-89.68539570565872 125.33817995426526,-89.79819356241379 125.27480577065396,-89.91 125.20966564720331,-90.02078687174458 125.14277598259105,-90.13052628764507 125.07415361593256,-90.23919062139034 125.00381582254164,-90.3467525173155 124.93178030958164,-90.45318489728844 124.85806521160771,-90.5584609675267 124.78268908600157,-90.66255422534257 124.70567090829972,-90.7654384658151 124.62703006741657,-90.8670877883869 124.54678636076324,-90.96747660338463 124.46495998926372,-91.06657963846096 124.38157155226948,-91.1643719449568 124.2966420423736,-91.26082890418195 124.21019284012601,-91.35592623361276 124.12224570865105,-91.4496399930051 124.03282278816877,-91.5419465904212 123.9419465904212,-91.63282278816878 123.8496399930051,-91.72224570865106 123.75592623361275,-91.810192840126 123.66082890418195,-91.89664204237361 123.56437194495679,-91.98157155226949 123.46657963846096,-92.06495998926373 123.36747660338463,-92.14678636076323 123.26708778838689,-92.22703006741656 123.1654384658151,-92.30567090829973 123.06255422534258,-92.38268908600156 122.95846096752669,-92.4580652116077 122.85318489728843,-92.53178030958163 122.74675251731549,-92.60381582254163 122.63919062139034,-92.67415361593257 122.53052628764506,-92.74277598259106 122.42078687174458,-92.80966564720332 122.30999999999999,-92.87480577065395 122.19819356241379,-92.93817995426525 122.08539570565873,-92.9997722439254 121.97163482599203,-93.05956713410487 121.85693956210676,-93.11754957175981 121.74133878792229,-93.17370496012163 121.62486160531527,-93.2280191623716 121.50753733679356,-93.28047850519977 121.38939551811434,-93.3310697822471 121.27046589084864,-93.37978025743018 121.15077839489415,-93.42659766814735 121.03036316093791,-93.47151022836586 120.9092505028711,-93.5145066315888 120.78747091015774,-93.55557605370166 120.66505504015902,-93.59470815569699 120.54203371041557,-93.63189308627742 120.41843789088928,-93.66712148433552 120.29429869616673,-93.70038448131048 120.16964737762635,-93.73167370342068 120.04451531557096,-93.76098127377179 119.91893401132803,-93.7882998143397 119.7929350793193,-93.81362244782791 119.66655023910212,-93.83694279939887 119.53981130738413,-93.85825499827878 119.4127501900136,-93.87755367923555 119.28539887394736,-93.89483398392944 119.15778941919818,-93.91009156213615 119.02995395076387,-93.92332257284198 118.90192465053998,-93.93452368521072 118.77373374921817,-93.94369207942225 118.64541351817229,-93.95082544738236 118.51699626133434,-93.95592199330379 118.38851430706193,-93.95898043415838 118.25999999999999,-93.96 108.53999999999999,-93.96 108.41148569293806,-93.95898043415838 108.28300373866564,-93.95592199330379 108.15458648182768,-93.95082544738236 108.02626625078183,-93.94369207942225 107.89807534946002,-93.93452368521072 107.77004604923611,-93.92332257284198 107.64221058080182,-93.91009156213615 107.51460112605263,-93.89483398392944 107.3872498099864,-93.87755367923555 107.26018869261586,-93.85825499827878 107.13344976089786,-93.83694279939887 107.00706492068068,-93.81362244782791 106.88106598867196,-93.7882998143397 106.75548468442902,-93.76098127377179 106.63035262237364,-93.73167370342068 106.50570130383325,-93.70038448131048 106.38156210911072,-93.66712148433552 106.25796628958442,-93.63189308627742 106.13494495984096,-93.59470815569699 106.01252908984225,-93.55557605370166 105.89074949712888,-93.5145066315888 105.76963683906207,-93.47151022836586 105.64922160510584,-93.42659766814735 105.52953410915134,-93.37978025743018 105.41060448188566,-93.3310697822471 105.29246266320642,-93.28047850519977 105.17513839468471,-93.2280191623716 105.05866121207771,-93.17370496012163 104.94306043789324,-93.11754957175981 104.82836517400798,-93.05956713410487 104.71460429434127,-92.9997722439254 104.6018064375862,-92.93817995426525 104.49,-92.87480577065395 104.37921312825542,-92.80966564720332 104.26947371235492,-92.74277598259106 104.16080937860966,-92.67415361593257 104.0532474826845,-92.60381582254163 103.94681510271155,-92.53178030958163 103.84153903247329,-92.4580652116077 103.73744577465742,-92.38268908600156 103.6345615341849,-92.30567090829975 103.5329122116131,-92.22703006741656 103.43252339661537,-92.14678636076323 103.33342036153903,-92.06495998926373 103.2356280550432,-91.98157155226949 103.13917109581804,-91.89664204237361 103.04407376638723,-91.810192840126 102.95036000699488,-91.72224570865106 102.85805340957879,-91.63282278816878 102.76717721183121,-91.5419465904212 102.67775429134893,-91.4496399930051 102.58980715987398,-91.35592623361276 102.50335795762638,-91.26082890418195 102.4184284477305,-91.16437194495681 102.33504001073628,-91.06657963846096 102.25321363923676,-90.96747660338463 102.17296993258343,-90.8670877883869 102.09432909170026,-90.7654384658151 102.01731091399843,-90.66255422534257 101.94193478839229,-90.5584609675267 101.86821969041836,-90.45318489728844 101.79618417745836,-90.3467525173155 101.72584638406742,-90.23919062139034 101.65722401740894,-90.13052628764507 101.59033435279667,-90.02078687174458 101.52519422934604,-89.91 101.46182004573474,-89.79819356241379 101.40022775607459,-89.68539570565872 101.34043286589512,-89.57163482599202 101.28245042824018,-89.45693956210675 101.22629503987837,-89.34133878792228 101.1719808376284,-89.22486160531528 101.11952149480024,-89.10753733679357 101.0689302177529,-88.98939551811434 101.02021974256981,-88.87046589084865 100.97340233185264,-88.75077839489416 100.92848977163413,-88.63036316093792 100.88549336841119,-88.50925050287111 100.84442394629833,-88.38747091015775 100.805291844303,-88.26505504015903 100.76810691372258,-88.14203371041557 100.73287851566447,-88.01843789088929 100.69961551868951,-87.89429869616674 100.66832629657931,-87.76964737762636 100.6390187262282,-87.64451531557098 100.6117001856603,-87.51893401132803 100.58637755217208,-87.39293507931932 100.56305720060112,-87.26655023910213 100.54174500172121,-87.13981130738414 100.52244632076444,-87.01275019001359 100.50516601607055,-86.88539887394737 100.48990843786385,-86.75778941919818 100.47667742715801,-86.62995395076388 100.46547631478927,-86.50192465053998 100.45630792057774,-86.37373374921816 100.44917455261763,-86.2454135181723 100.4440780066962,-86.11699626133435 100.44101956584161,-85.98851430706193 100.44,-85.86 100.44,-43.74 100.44101956584161,-43.61148569293806 100.44407800669619,-43.48300373866566 100.44917455261763,-43.35458648182769 100.45630792057774,-43.226266250781826 100.46547631478927,-43.09807534946002 100.47667742715801,-42.97004604923612 100.48990843786385,-42.84221058080181 100.50516601607055,-42.714601126052635 100.52244632076444,-42.58724980998639 100.54174500172121,-42.460188692615866 100.56305720060112,-42.33344976089787 100.58637755217208,-42.20706492068067 100.6117001856603,-42.08106598867196 100.6390187262282,-41.955484684429024 100.66832629657931,-41.830352622373645 100.69961551868951,-41.705701303833266 100.73287851566447,-41.58156210911072 100.76810691372258,-41.45796628958442 100.805291844303,-41.334944959840975 100.84442394629833,-41.21252908984225 100.88549336841119,-41.09074949712888 100.92848977163413,-40.96963683906208 100.97340233185264,-40.849221605105846 101.02021974256981,-40.72953410915135 101.0689302177529,-40.61060448188566 101.11952149480022,-40.49246266320643 101.1719808376284,-40.375138394684726 101.22629503987837,-40.25866121207771 101.28245042824018,-40.143060437893226 101.34043286589512,-40.02836517400797 101.40022775607459,-39.914604294341274 101.46182004573474,-39.80180643758621 101.52519422934604,-39.69 101.59033435279667,-39.57921312825541 101.65722401740894,-39.469473712354926 101.72584638406742,-39.360809378609666 101.79618417745836,-39.25324748268451 101.86821969041836,-39.146815102711564 101.94193478839229,-39.041539032473295 102.01731091399843,-38.93744577465741 102.09432909170025,-38.83456153418491 102.17296993258343,-38.732912211613105 102.25321363923676,-38.63252339661537 102.33504001073626,-38.53342036153903 102.4184284477305,-38.43562805504319 102.50335795762638,-38.33917109581804 102.58980715987398,-38.24407376638723 102.67775429134893,-38.150360006994894 102.76717721183121,-38.058053409578804 102.85805340957879,-37.96717721183121 102.95036000699488,-37.877754291348936 103.04407376638723,-37.78980715987399 103.13917109581804,-37.70335795762639 103.23562805504318,-37.61842844773051 103.33342036153903,-37.53504001073628 103.43252339661537,-37.45321363923677 103.5329122116131,-37.37296993258343 103.6345615341849,-37.29432909170026 103.7374457746574,-37.21731091399843 103.84153903247329,-37.14193478839228 103.94681510271154,-37.06821969041836 104.0532474826845,-36.99618417745835 104.16080937860966,-36.925846384067434 104.26947371235492,-36.85722401740893 104.37921312825542,-36.79033435279669 104.49,-36.725194229346044 104.6018064375862,-36.66182004573474 104.71460429434127,-36.60022775607459 104.82836517400797,-36.54043286589512 104.94306043789324,-36.482450428240185 105.05866121207771,-36.42629503987837 105.17513839468471,-36.371980837628406 105.29246266320642,-36.31952149480024 105.41060448188566,-36.268930217752896 105.52953410915134,-36.22021974256982 105.64922160510584,-36.173402331852635 105.76963683906207,-36.128489771634136 105.89074949712888,-36.08549336841119 106.01252908984225,-36.044423946298345 106.13494495984096,-36.005291844303 106.25796628958442,-35.96810691372257 106.3815621091107,-35.93287851566448 106.50570130383325,-35.899615518689515 106.63035262237364,-35.86832629657931 106.755484684429,-35.839018726228204 106.88106598867196,-35.81170018566029 107.00706492068068,-35.786377552172084 107.13344976089786,-35.76305720060112 107.26018869261586,-35.74174500172121 107.3872498099864,-35.72244632076445 107.51460112605263,-35.70516601607056 107.64221058080182,-35.68990843786385 107.77004604923611,-35.67667742715801 107.89807534946002,-35.66547631478927 108.02626625078183,-35.65630792057773 108.15458648182768,-35.64917455261764 108.28300373866564,-35.6440780066962 108.41148569293806,-35.64101956584161 108.53999999999999,-35.64 118.25999999999999,-35.63999999999999 " style="stroke:red;fill:none;stroke-width:1;stroke-linecap:round;stroke-linejoin:round;" /><polygon points="85.86,-35.64 85.98851430706193,-35.64101956584161 86.11699626133435,-35.6440780066962 86.24541351817231,-35.64917455261764 86.37373374921816,-35.65630792057773 86.50192465053998,-35.66547631478927 86.62995395076388,-35.67667742715801 86.75778941919818,-35.68990843786385 86.88539887394737,-35.70516601607056 87.01275019001359,-35.72244632076445 87.13981130738414,-35.74174500172121 87.26655023910213,-35.76305720060112 87.39293507931932,-35.78637755217208 87.51893401132803,-35.81170018566029 87.64451531557098,-35.839018726228204 87.76964737762636,-35.86832629657931 87.89429869616674,-35.899615518689515 88.01843789088929,-35.93287851566448 88.14203371041557,-35.96810691372257 88.26505504015903,-36.005291844303 88.38747091015775,-36.044423946298345 88.50925050287111,-36.085493368411186 88.63036316093792,-36.12848977163414 88.75077839489416,-36.173402331852635 88.87046589084865,-36.22021974256981 88.98939551811434,-36.268930217752896 89.10753733679357,-36.31952149480024 89.22486160531528,-36.371980837628406 89.34133878792228,-36.42629503987837 89.45693956210675,-36.482450428240185 89.57163482599202,-36.54043286589512 89.68539570565872,-36.60022775607459 89.79819356241379,-36.66182004573474 89.91,-36.72519422934605 90.02078687174458,-36.79033435279669 90.13052628764507,-36.85722401740893 90.23919062139034,-36.925846384067434 90.3467525173155,-36.99618417745835 90.45318489728844,-37.06821969041835 90.5584609675267,-37.14193478839228 90.66255422534257,-37.217310913998425 90.7654384658151,-37.29432909170026 90.8670877883869,-37.37296993258342 90.96747660338463,-37.45321363923677 91.06657963846096,-37.53504001073628 91.16437194495681,-37.61842844773051 91.26082890418195,-37.70335795762639 91.35592623361276,-37.78980715987399 91.4496399930051,-37.877754291348936 91.5419465904212,-37.96717721183121 91.63282278816878,-38.058053409578804 91.72224570865106,-38.150360006994894 91.810192840126,-38.24407376638723 91.89664204237361,-38.33917109581804 91.98157155226949,-38.43562805504319 92.06495998926373,-38.53342036153903 92.14678636076323,-38.63252339661537 92.22703006741656,-38.732912211613105 92.30567090829973,-38.8345615341849 92.38268908600156,-38.93744577465741 92.4580652116077,-39.041539032473295 92.53178030958163,-39.14681510271156 92.60381582254163,-39.25324748268451 92.67415361593257,-39.360809378609666 92.74277598259106,-39.469473712354926 92.80966564720332,-39.57921312825541 92.87480577065395,-39.69 92.93817995426525,-39.80180643758621 92.9997722439254,-39.914604294341274 93.05956713410487,-40.02836517400797 93.11754957175981,-40.14306043789323 93.17370496012163,-40.25866121207771 93.2280191623716,-40.375138394684726 93.28047850519977,-40.49246266320643 93.3310697822471,-40.61060448188566 93.37978025743018,-40.729534109151345 93.42659766814735,-40.84922160510584 93.47151022836586,-40.96963683906208 93.5145066315888,-41.09074949712888 93.55557605370166,-41.21252908984225 93.59470815569699,-41.334944959840975 93.63189308627742,-41.45796628958442 93.66712148433552,-41.58156210911072 93.70038448131048,-41.70570130383326 93.73167370342068,-41.830352622373645 93.76098127377179,-41.955484684429024 93.7882998143397,-42.08106598867196 93.81362244782791,-42.20706492068068 93.83694279939887,-42.33344976089787 93.85825499827878,-42.460188692615866 93.87755367923555,-42.58724980998639 93.89483398392944,-42.714601126052635 93.91009156213615,-42.84221058080181 93.92332257284198,-42.97004604923612 93.93452368521072,-43.09807534946002 93.94369207942225,-43.226266250781826 93.95082544738236,-43.35458648182769 93.95592199330379,-43.48300373866566 93.95898043415838,-43.611485692938054 93.96,-43.74 93.96,-53.459999999999994 93.95898043415838,-53.58851430706194 93.95592199330379,-53.71699626133434 93.95082544738236,-53.84541351817231 93.94369207942225,-53.97373374921817 93.93452368521072,-54.10192465053998 93.92332257284198,-54.22995395076388 93.91009156213615,-54.357789419198184 93.89483398392944,-54.48539887394737 93.87755367923555,-54.61275019001361 93.85825499827878,-54.73981130738413 93.83694279939887,-54.866550239102125 93.81362244782791,-54.992935079319324 93.7882998143397,-55.11893401132804 93.76098127377179,-55.24451531557097 93.73167370342068,-55.36964737762635 93.70038448131048,-55.49429869616674 93.66712148433552,-55.618437890889275 93.63189308627742,-55.742033710415576 93.59470815569699,-55.86505504015902 93.55557605370166,-55.98747091015775 93.5145066315888,-56.10925050287111 93.47151022836586,-56.23036316093791 93.42659766814735,-56.35077839489416 93.37978025743018,-56.47046589084865 93.3310697822471,-56.58939551811434 93.28047850519977,-56.707537336793564 93.2280191623716,-56.82486160531527 93.17370496012163,-56.941338787922284 93.11754957175981,-57.05693956210677 93.05956713410487,-57.17163482599202 92.9997722439254,-57.28539570565872 92.93817995426525,-57.398193562413795 92.87480577065395,-57.51 92.80966564720332,-57.620786871744585 92.74277598259106,-57.73052628764507 92.67415361593257,-57.83919062139033 92.60381582254163,-57.94675251731549 92.53178030958163,-58.05318489728844 92.4580652116077,-58.1584609675267 92.38268908600156,-58.26255422534258 92.30567090829973,-58.365438465815096 92.22703006741656,-58.46708778838689 92.14678636076323,-58.56747660338463 92.06495998926373,-58.666579638460966 91.98157155226949,-58.76437194495681 91.89664204237361,-58.86082890418196 91.810192840126,-58.955926233612765 91.72224570865106,-59.0496399930051 91.63282278816878,-59.14194659042119 91.5419465904212,-59.23282278816878 91.4496399930051,-59.32224570865106 91.35592623361276,-59.410192840126015 91.26082890418195,-59.49664204237361 91.1643719449568,-59.58157155226949 91.06657963846096,-59.664959989263714 90.96747660338463,-59.746786360763224 90.8670877883869,-59.82703006741657 90.7654384658151,-59.90567090829973 90.66255422534257,-59.98268908600157 90.5584609675267,-60.05806521160772 90.45318489728844,-60.13178030958164 90.3467525173155,-60.20381582254164 90.23919062139034,-60.27415361593256 90.13052628764507,-60.342775982591064 90.02078687174458,-60.409665647203305 89.91,-60.474805770653944 89.79819356241379,-60.53817995426525 89.68539570565872,-60.59977224392541 89.57163482599202,-60.659567134104876 89.45693956210675,-60.71754957175981 89.34133878792228,-60.77370496012163 89.22486160531528,-60.82801916237159 89.10753733679357,-60.880478505199754 88.98939551811434,-60.9310697822471 88.87046589084865,-60.979780257430185 88.75077839489416,-61.02659766814736 88.63036316093792,-61.07151022836585 88.50925050287111,-61.11450663158881 88.38747091015775,-61.15557605370165 88.26505504015903,-61.19470815569699 88.14203371041557,-61.231893086277424 88.01843789088929,-61.26712148433552 87.89429869616674,-61.30038448131048 87.76964737762636,-61.331673703420684 87.64451531557097,-61.36098127377179 87.51893401132803,-61.3882998143397 87.39293507931932,-61.41362244782792 87.26655023910213,-61.43694279939888 87.13981130738414,-61.45825499827879 87.01275019001359,-61.47755367923555 86.88539887394737,-61.49483398392944 86.75778941919818,-61.51009156213615 86.62995395076388,-61.523322572841984 86.50192465053998,-61.53452368521073 86.37373374921816,-61.543692079422264 86.2454135181723,-61.55082544738236 86.11699626133435,-61.5559219933038 85.98851430706193,-61.558980434158386 85.86,-61.559999999999995 43.74,-61.559999999999995 43.611485692938054,-61.558980434158386 43.48300373866566,-61.5559219933038 43.35458648182769,-61.55082544738236 43.226266250781826,-61.543692079422264 43.09807534946002,-61.53452368521073 42.97004604923612,-61.523322572841984 42.84221058080181,-61.51009156213615 42.714601126052635,-61.49483398392944 42.58724980998639,-61.47755367923555 42.460188692615866,-61.45825499827878 42.33344976089787,-61.43694279939888 42.20706492068068,-61.41362244782792 42.08106598867196,-61.3882998143397 41.955484684429024,-61.36098127377179 41.830352622373645,-61.331673703420684 41.70570130383326,-61.30038448131048 41.58156210911072,-61.26712148433552 41.45796628958442,-61.231893086277424 41.334944959840975,-61.19470815569699 41.21252908984225,-61.15557605370165 41.09074949712888,-61.11450663158881 40.96963683906208,-61.07151022836586 40.849221605105846,-61.02659766814736 40.729534109151345,-60.979780257430185 40.61060448188566,-60.9310697822471 40.49246266320643,-60.880478505199754 40.375138394684726,-60.82801916237159 40.25866121207771,-60.77370496012163 40.143060437893226,-60.71754957175981 40.02836517400797,-60.659567134104876 39.914604294341274,-60.59977224392541 39.80180643758621,-60.53817995426525 39.69,-60.474805770653944 39.57921312825541,-60.409665647203305 39.469473712354926,-60.342775982591064 39.360809378609666,-60.27415361593256 39.25324748268451,-60.20381582254164 39.146815102711564,-60.13178030958164 39.041539032473295,-60.05806521160772 38.93744577465741,-59.98268908600157 38.83456153418491,-59.90567090829973 38.732912211613105,-59.82703006741657 38.63252339661537,-59.746786360763224 38.53342036153903,-59.664959989263714 38.43562805504319,-59.58157155226949 38.33917109581804,-59.49664204237361 38.24407376638723,-59.410192840126015 38.150360006994894,-59.32224570865107 38.058053409578804,-59.23282278816878 37.96717721183121,-59.14194659042119 37.87775429134893,-59.0496399930051 37.78980715987398,-58.955926233612765 37.70335795762639,-58.86082890418196 37.61842844773051,-58.76437194495681 37.53504001073628,-58.666579638460966 37.45321363923677,-58.56747660338463 37.37296993258343,-58.46708778838689 37.29432909170026,-58.365438465815096 37.217310913998425,-58.26255422534258 37.14193478839228,-58.1584609675267 37.06821969041835,-58.05318489728844 36.99618417745835,-57.94675251731549 36.925846384067434,-57.83919062139034 36.85722401740893,-57.73052628764507 36.79033435279669,-57.620786871744585 36.72519422934605,-57.51 36.66182004573474,-57.398193562413795 36.60022775607459,-57.28539570565872 36.54043286589512,-57.17163482599202 36.482450428240185,-57.05693956210676 36.42629503987837,-56.941338787922284 36.371980837628406,-56.82486160531527 36.31952149480024,-56.707537336793564 36.268930217752896,-56.58939551811434 36.22021974256981,-56.47046589084865 36.173402331852635,-56.35077839489416 36.12848977163414,-56.23036316093792 36.085493368411186,-56.10925050287111 36.044423946298345,-55.98747091015773 36.005291844303,-55.86505504015902 35.96810691372257,-55.742033710415576 35.93287851566448,-55.618437890889275 35.899615518689515,-55.49429869616674 35.86832629657931,-55.36964737762635 35.839018726228204,-55.24451531557097 35.81170018566029,-55.11893401132804 35.786377552172084,-54.992935079319324 35.76305720060112,-54.866550239102125 35.74174500172121,-54.73981130738413 35.72244632076445,-54.61275019001361 35.70516601607056,-54.48539887394737 35.68990843786385,-54.35778941919819 35.67667742715801,-54.22995395076387 35.66547631478927,-54.10192465053998 35.65630792057773,-53.97373374921817 35.64917455261764,-53.84541351817231 35.6440780066962,-53.71699626133434 35.64101956584161,-53.58851430706194 35.64,-53.459999999999994 35.64,-43.74 35.64101956584161,-43.61148569293806 35.6440780066962,-43.48300373866566 35.64917455261764,-43.35458648182769 35.65630792057773,-43.226266250781826 35.66547631478927,-43.09807534946002 35.67667742715801,-42.97004604923612 35.68990843786385,-42.84221058080181 35.70516601607056,-42.714601126052635 35.72244632076445,-42.58724980998639 35.741745001721206,-42.460188692615866 35.76305720060112,-42.33344976089787 35.78637755217208,-42.20706492068067 35.81170018566029,-42.08106598867196 35.839018726228204,-41.955484684429024 35.86832629657931,-41.830352622373645 35.899615518689515,-41.705701303833266 35.93287851566448,-41.58156210911072 35.96810691372257,-41.45796628958442 36.005291844303,-41.334944959840975 36.044423946298345,-41.21252908984225 36.085493368411186,-41.09074949712888 36.128489771634136,-40.96963683906208 36.173402331852635,-40.849221605105846 36.22021974256981,-40.72953410915135 36.268930217752896,-40.61060448188566 36.31952149480024,-40.49246266320643 36.371980837628406,-40.375138394684726 36.42629503987837,-40.25866121207771 36.482450428240185,-40.143060437893226 36.54043286589512,-40.02836517400797 36.60022775607459,-39.914604294341274 36.66182004573474,-39.80180643758621 36.72519422934605,-39.69 36.79033435279669,-39.57921312825541 36.85722401740893,-39.469473712354926 36.925846384067434,-39.360809378609666 36.99618417745835,-39.25324748268451 37.06821969041835,-39.146815102711564 37.14193478839228,-39.041539032473295 37.217310913998425,-38.93744577465741 37.29432909170026,-38.83456153418491 37.37296993258342,-38.732912211613105 37.45321363923677,-38.63252339661537 37.53504001073628,-38.53342036153903 37.61842844773051,-38.43562805504319 37.70335795762639,-38.33917109581804 37.78980715987398,-38.24407376638723 37.87775429134893,-38.150360006994894 37.96717721183121,-38.058053409578804 38.058053409578804,-37.96717721183121 38.150360006994894,-37.877754291348936 38.24407376638723,-37.78980715987399 38.33917109581804,-37.70335795762639 38.43562805504319,-37.61842844773051 38.53342036153903,-37.53504001073628 38.63252339661537,-37.45321363923677 38.73291221161309,-37.37296993258343 38.8345615341849,-37.29432909170026 38.93744577465741,-37.21731091399843 39.041539032473295,-37.14193478839228 39.14681510271156,-37.06821969041836 39.25324748268451,-36.99618417745835 39.360809378609666,-36.925846384067434 39.469473712354926,-36.85722401740893 39.57921312825541,-36.79033435279669 39.69,-36.725194229346044 39.8018064375862,-36.66182004573474 39.91460429434127,-36.60022775607459 40.02836517400797,-36.54043286589512 40.14306043789323,-36.482450428240185 40.25866121207771,-36.42629503987837 40.375138394684726,-36.371980837628406 40.49246266320643,-36.31952149480024 40.61060448188566,-36.268930217752896 40.729534109151345,-36.22021974256982 40.84922160510584,-36.173402331852635 40.96963683906208,-36.128489771634136 41.09074949712888,-36.08549336841119 41.21252908984225,-36.044423946298345 41.334944959840975,-36.005291844303 41.45796628958442,-35.96810691372257 41.58156210911071,-35.93287851566448 41.70570130383326,-35.899615518689515 41.830352622373645,-35.86832629657931 41.955484684429024,-35.839018726228204 42.08106598867196,-35.81170018566029 42.20706492068067,-35.786377552172084 42.33344976089787,-35.76305720060112 42.46018869261586,-35.74174500172121 42.58724980998639,-35.72244632076445 42.714601126052635,-35.70516601607056 42.842210580801805,-35.68990843786385 42.97004604923612,-35.67667742715801 43.09807534946002,-35.66547631478927 43.226266250781826,-35.65630792057773 43.35458648182768,-35.64917455261764 43.48300373866566,-35.6440780066962 43.61148569293806,-35.64101956584161 43.74,-35.64 85.86,-35.64 " style="stroke:blue;fill:none;stroke-width:1;stroke-linecap:round;stroke-linejoin:round;" /><polygon points="53.459999999999994,-68.04 53.58851430706194,-68.04101956584161 53.716996261334344,-68.04407800669621 53.84541351817231,-68.04917455261764 53.97373374921817,-68.05630792057774 54.10192465053998,-68.06547631478927 54.22995395076388,-68.07667742715802 54.35778941919819,-68.08990843786384 54.48539887394737,-68.10516601607056 54.61275019001361,-68.12244632076444 54.73981130738413,-68.1417450017212 54.866550239102125,-68.16305720060112 54.992935079319324,-68.18637755217208 55.118934011328044,-68.21170018566029 55.24451531557097,-68.23901872622821 55.36964737762635,-68.26832629657932 55.49429869616674,-68.29961551868952 55.618437890889275,-68.33287851566448 55.742033710415576,-68.36810691372257 55.86505504015902,-68.405291844303 55.98747091015775,-68.44442394629834 56.10925050287111,-68.48549336841118 56.23036316093791,-68.52848977163414 56.35077839489416,-68.57340233185263 56.47046589084865,-68.6202197425698 56.589395518114344,-68.66893021775289 56.707537336793564,-68.71952149480023 56.82486160531527,-68.7719808376284 56.941338787922284,-68.82629503987836 57.05693956210677,-68.88245042824018 57.17163482599202,-68.94043286589512 57.28539570565872,-69.0002277560746 57.398193562413795,-69.06182004573473 57.51,-69.12519422934604 57.620786871744585,-69.19033435279668 57.73052628764507,-69.25722401740894 57.83919062139034,-69.32584638406743 57.94675251731549,-69.39618417745835 58.05318489728844,-69.46821969041835 58.1584609675267,-69.54193478839228 58.26255422534258,-69.61731091399842 58.365438465815096,-69.69432909170027 58.46708778838689,-69.77296993258342 58.56747660338463,-69.85321363923677 58.666579638460966,-69.93504001073627 58.76437194495681,-70.01842844773051 58.86082890418196,-70.10335795762639 58.955926233612765,-70.18980715987398 59.0496399930051,-70.27775429134894 59.14194659042119,-70.36717721183122 59.23282278816878,-70.4580534095788 59.32224570865107,-70.5503600069949 59.410192840126015,-70.64407376638724 59.49664204237361,-70.73917109581804 59.58157155226949,-70.8356280550432 59.664959989263714,-70.93342036153904 59.746786360763224,-71.03252339661536 59.82703006741657,-71.1329122116131 59.90567090829973,-71.23456153418489 59.98268908600157,-71.33744577465741 60.05806521160772,-71.4415390324733 60.13178030958164,-71.54681510271156 60.20381582254164,-71.6532474826845 60.27415361593256,-71.76080937860965 60.342775982591064,-71.86947371235493 60.409665647203305,-71.97921312825541 60.474805770653944,-72.09 60.53817995426525,-72.2018064375862 60.59977224392541,-72.31460429434127 60.659567134104876,-72.42836517400798 60.71754957175981,-72.54306043789323 60.77370496012163,-72.6586612120777 60.82801916237159,-72.77513839468472 60.880478505199754,-72.89246266320643 60.9310697822471,-73.01060448188565 60.979780257430185,-73.12953410915135 61.02659766814736,-73.24922160510584 61.07151022836586,-73.36963683906208 61.11450663158881,-73.49074949712889 61.15557605370165,-73.61252908984225 61.19470815569699,-73.73494495984097 61.231893086277424,-73.85796628958443 61.26712148433552,-73.98156210911071 61.30038448131048,-74.10570130383326 61.331673703420684,-74.23035262237364 61.36098127377179,-74.35548468442903 61.3882998143397,-74.48106598867196 61.41362244782792,-74.60706492068068 61.43694279939888,-74.73344976089787 61.45825499827879,-74.86018869261586 61.47755367923555,-74.9872498099864 61.49483398392944,-75.11460112605263 61.51009156213615,-75.24221058080181 61.523322572841984,-75.37004604923612 61.53452368521073,-75.49807534946001 61.543692079422264,-75.62626625078182 61.55082544738236,-75.7545864818277 61.5559219933038,-75.88300373866565 61.558980434158386,-76.01148569293807 61.559999999999995,-76.14 61.559999999999995,-85.86 61.558980434158386,-85.98851430706193 61.5559219933038,-86.11699626133435 61.55082544738236,-86.24541351817231 61.543692079422264,-86.37373374921816 61.53452368521073,-86.50192465053998 61.523322572841984,-86.62995395076388 61.51009156213615,-86.75778941919818 61.49483398392944,-86.88539887394737 61.47755367923555,-87.01275019001359 61.45825499827878,-87.13981130738414 61.43694279939888,-87.26655023910213 61.41362244782792,-87.39293507931932 61.3882998143397,-87.51893401132803 61.36098127377179,-87.64451531557097 61.331673703420684,-87.76964737762636 61.30038448131048,-87.89429869616674 61.26712148433552,-88.01843789088929 61.231893086277424,-88.14203371041557 61.19470815569699,-88.26505504015903 61.15557605370165,-88.38747091015775 61.11450663158881,-88.50925050287111 61.07151022836586,-88.63036316093792 61.02659766814736,-88.75077839489416 60.979780257430185,-88.87046589084865 60.9310697822471,-88.98939551811434 60.880478505199754,-89.10753733679357 60.82801916237159,-89.22486160531528 60.77370496012163,-89.34133878792228 60.71754957175981,-89.45693956210675 60.659567134104876,-89.571634825992 60.59977224392541,-89.68539570565872 60.53817995426525,-89.79819356241379 60.474805770653944,-89.91 60.409665647203305,-90.02078687174458 60.342775982591064,-90.13052628764507 60.27415361593256,-90.23919062139034 60.20381582254164,-90.3467525173155 60.13178030958164,-90.45318489728844 60.05806521160772,-90.5584609675267 59.98268908600157,-90.66255422534257 59.90567090829973,-90.7654384658151 59.82703006741657,-90.8670877883869 59.746786360763224,-90.96747660338463 59.664959989263714,-91.06657963846096 59.58157155226949,-91.1643719449568 59.49664204237361,-91.26082890418195 59.410192840126015,-91.35592623361276 59.32224570865106,-91.4496399930051 59.23282278816878,-91.5419465904212 59.14194659042119,-91.63282278816878 59.0496399930051,-91.72224570865106 58.955926233612765,-91.810192840126 58.86082890418196,-91.89664204237361 58.76437194495681,-91.98157155226949 58.666579638460966,-92.06495998926373 58.56747660338463,-92.14678636076323 58.46708778838689,-92.22703006741656 58.365438465815096,-92.30567090829973 58.26255422534258,-92.38268908600156 58.1584609675267,-92.4580652116077 58.05318489728844,-92.53178030958163 57.94675251731549,-92.60381582254163 57.83919062139034,-92.67415361593257 57.73052628764507,-92.74277598259106 57.620786871744585,-92.80966564720332 57.51,-92.87480577065395 57.398193562413795,-92.93817995426525 57.28539570565872,-92.9997722439254 57.17163482599202,-93.05956713410487 57.05693956210677,-93.11754957175981 56.941338787922284,-93.17370496012163 56.82486160531527,-93.2280191623716 56.707537336793564,-93.28047850519977 56.58939551811434,-93.3310697822471 56.47046589084865,-93.37978025743018 56.35077839489416,-93.42659766814735 56.23036316093791,-93.47151022836586 56.10925050287111,-93.5145066315888 55.98747091015775,-93.55557605370166 55.86505504015902,-93.59470815569699 55.742033710415576,-93.63189308627742 55.618437890889275,-93.66712148433552 55.49429869616674,-93.70038448131048 55.36964737762635,-93.73167370342068 55.24451531557097,-93.76098127377179 55.11893401132804,-93.7882998143397 54.992935079319324,-93.81362244782791 54.866550239102125,-93.83694279939887 54.73981130738413,-93.85825499827878 54.61275019001361,-93.87755367923555 54.48539887394737,-93.89483398392944 54.35778941919819,-93.91009156213615 54.22995395076388,-93.92332257284198 54.10192465053998,-93.93452368521072 53.97373374921817,-93.94369207942225 53.84541351817231,-93.95082544738236 53.71699626133434,-93.95592199330379 53.58851430706194,-93.95898043415838 53.459999999999994,-93.96 11.340000000000002,-93.96 11.211485692938059,-93.95898043415838 11.083003738665653,-93.95592199330379 10.95458648182769,-93.95082544738236 10.82626625078183,-93.94369207942225 10.698075349460016,-93.93452368521072 10.570046049236122,-93.92332257284198 10.442210580801813,-93.91009156213615 10.314601126052633,-93.89483398392944 10.187249809986394,-93.87755367923555 10.060188692615867,-93.85825499827878 9.933449760897867,-93.83694279939887 9.80706492068068,-93.81362244782791 9.681065988671957,-93.7882998143397 9.555484684429024,-93.76098127377179 9.430352622373642,-93.73167370342068 9.305701303833262,-93.70038448131048 9.18156210911072,-93.66712148433552 9.05796628958442,-93.63189308627742 8.934944959840976,-93.59470815569699 8.812529089842258,-93.55557605370166 8.690749497128888,-93.5145066315888 8.569636839062087,-93.47151022836586 8.44922160510584,-93.42659766814735 8.32953410915135,-93.37978025743018 8.21060448188566,-93.3310697822471 8.092462663206431,-93.28047850519977 7.975138394684723,-93.2280191623716 7.8586612120777115,-93.17370496012163 7.743060437893232,-93.11754957175981 7.628365174007978,-93.05956713410487 7.514604294341273,-92.9997722439254 7.401806437586209,-92.93817995426525 7.290000000000002,-92.87480577065395 7.179213128255413,-92.80966564720332 7.069473712354933,-92.74277598259106 6.960809378609662,-92.67415361593257 6.85324748268451,-92.60381582254163 6.746815102711561,-92.53178030958163 6.641539032473299,-92.4580652116077 6.537445774657416,-92.38268908600156 6.434561534184905,-92.30567090829975 6.3329122116131,-92.22703006741656 6.23252339661537,-92.14678636076323 6.133420361539034,-92.06495998926373 6.035628055043194,-91.98157155226949 5.9391710958180415,-91.89664204237361 5.844073766387233,-91.810192840126 5.750360006994897,-91.72224570865106 5.658053409578799,-91.63282278816878 5.567177211831213,-91.5419465904212 5.477754291348934,-91.4496399930051 5.389807159873983,-91.35592623361276 5.30335795762639,-91.26082890418195 5.218428447730512,-91.16437194495681 5.135040010736281,-91.06657963846096 5.0532136392367715,-90.96747660338463 4.972969932583426,-90.8670877883869 4.8943290917002615,-90.7654384658151 4.817310913998428,-90.66255422534257 4.7419347883922836,-90.5584609675267 4.668219690418358,-90.45318489728844 4.596184177458356,-90.3467525173155 4.525846384067436,-90.23919062139034 4.4572240174089375,-90.13052628764507 4.390334352796688,-90.02078687174458 4.3251942293460495,-89.91 4.261820045734745,-89.79819356241379 4.200227756074589,-89.68539570565872 4.140432865895123,-89.57163482599202 4.082450428240182,-89.45693956210675 4.026295039878371,-89.34133878792228 3.9719808376284034,-89.22486160531528 3.91952149480024,-89.10753733679357 3.8689302177528937,-88.98939551811434 3.820219742569815,-88.87046589084865 3.7734023318526386,-88.75077839489416 3.728489771634145,-88.63036316093792 3.6854933684111884,-88.50925050287111 3.6444239462983448,-88.38747091015775 3.605291844303005,-88.26505504015903 3.568106913722574,-88.14203371041557 3.532878515664472,-88.01843789088929 3.499615518689517,-87.89429869616674 3.468326296579315,-87.76964737762636 3.4390187262282055,-87.64451531557098 3.411700185660295,-87.51893401132803 3.386377552172079,-87.39293507931932 3.363057200601117,-87.26655023910213 3.341745001721209,-87.13981130738414 3.322446320764448,-87.01275019001359 3.3051660160705603,-86.88539887394737 3.2899084378638443,-86.75778941919818 3.2766774271580177,-86.62995395076388 3.2654763147892703,-86.50192465053998 3.256307920577739,-86.37373374921816 3.2491745526176383,-86.2454135181723 3.2440780066962036,-86.11699626133435 3.2410195658416145,-85.98851430706193 3.240000000000003,-85.86 3.2399999999999993,-76.14 3.241019565841611,-76.01148569293807 3.244078006696199,-75.88300373866565 3.2491745526176348,-75.7545864818277 3.256307920577735,-75.62626625078182 3.265476314789266,-75.49807534946001 3.276677427158014,-75.37004604923612 3.289908437863841,-75.24221058080181 3.3051660160705567,-75.11460112605263 3.3224463207644437,-74.9872498099864 3.3417450017212045,-74.86018869261588 3.3630572006011135,-74.73344976089787 3.3863775521720747,-74.60706492068068 3.4117001856602913,-74.48106598867196 3.439018726228202,-74.35548468442903 3.4683262965793107,-74.23035262237364 3.4996155186895126,-74.10570130383326 3.5328785156644678,-73.98156210911073 3.5681069137225694,-73.85796628958443 3.6052918443030006,-73.73494495984097 3.644423946298342,-73.61252908984225 3.685493368411185,-73.49074949712889 3.7284897716341407,-73.36963683906208 3.773402331852634,-73.24922160510584 3.8202197425698103,-73.12953410915135 3.8689302177528893,-73.01060448188565 3.9195214948002355,-72.89246266320643 3.9719808376284007,-72.77513839468472 4.0262950398783675,-72.6586612120777 4.082450428240179,-72.54306043789323 4.140432865895119,-72.42836517400798 4.200227756074584,-72.31460429434127 4.261820045734741,-72.2018064375862 4.325194229346047,-72.09 4.390334352796684,-71.97921312825541 4.457224017408932,-71.86947371235493 4.525846384067432,-71.76080937860965 4.596184177458351,-71.6532474826845 4.668219690418353,-71.54681510271156 4.741934788392279,-71.4415390324733 4.817310913998424,-71.33744577465741 4.894329091700257,-71.23456153418489 4.972969932583421,-71.1329122116131 5.053213639236769,-71.03252339661536 5.135040010736276,-70.93342036153904 5.218428447730506,-70.8356280550432 5.303357957626385,-70.73917109581804 5.389807159873978,-70.64407376638724 5.47775429134893,-70.5503600069949 5.56717721183121,-70.4580534095788 5.658053409578796,-70.36717721183122 5.7503600069948915,-70.27775429134894 5.844073766387227,-70.18980715987398 5.939171095818036,-70.10335795762639 6.035628055043189,-70.01842844773051 6.133420361539028,-69.93504001073629 6.232523396615368,-69.85321363923676 6.3329122116130945,-69.77296993258342 6.4345615341848985,-69.69432909170027 6.537445774657408,-69.61731091399842 6.641539032473293,-69.54193478839228 6.746815102711551,-69.46821969041835 6.8532474826845045,-69.39618417745835 6.960809378609659,-69.32584638406743 7.069473712354927,-69.25722401740894 7.179213128255408,-69.19033435279668 7.290000000000002,-69.12519422934604 7.401806437586202,-69.06182004573473 7.5146042943412645,-69.0002277560746 7.628365174007973,-68.94043286589512 7.74306043789323,-68.88245042824018 7.858661212077707,-68.82629503987836 7.97513839468472,-68.7719808376284 8.092462663206424,-68.71952149480025 8.210604481885657,-68.66893021775289 8.329534109151341,-68.6202197425698 8.449221605105835,-68.57340233185263 8.569636839062085,-68.52848977163414 8.690749497128882,-68.48549336841118 8.812529089842254,-68.44442394629834 8.93494495984097,-68.405291844303 9.057966289584417,-68.36810691372257 9.181562109110711,-68.33287851566448 9.305701303833256,-68.29961551868952 9.43035262237364,-68.26832629657932 9.555484684429018,-68.23901872622821 9.681065988671955,-68.21170018566029 9.807064920680673,-68.18637755217208 9.933449760897863,-68.16305720060112 10.06018869261586,-68.1417450017212 10.187249809986389,-68.12244632076444 10.314601126052631,-68.10516601607056 10.442210580801808,-68.08990843786384 10.57004604923612,-68.07667742715802 10.698075349460009,-68.06547631478927 10.826266250781826,-68.05630792057774 10.954586481827683,-68.04917455261764 11.08300373866565,-68.04407800669621 11.211485692938057,-68.04101956584161 11.339999999999996,-68.04 53.459999999999994,-68.04 " style="stroke:purple;fill:none;stroke-width:1;stroke-linecap:round;stroke-linejoin:round;" /><path d="M 0.0,-0.0 L 129.6,-0.0 L 129.6,-129.6 L 0.0,-129.6 L 0.0,-0.0" style="stroke:black;fill:none;stroke-width:1.25;stroke-linecap:round;stroke-linejoin:round;" /><path d="M 0.0,-0.0 L 129.6,-0.0" style="stroke:black;fill:none;stroke-width:1.25;stroke-linecap:round;stroke-linejoin:round;" /><path d="M 0.0,-32.4 L 129.6,-32.4" style="stroke:black;fill:none;stroke-width:1.25;stroke-linecap:round;stroke-linejoin:round;" /><path d="M 0.0,-64.8 L 129.6,-64.8" style="stroke:black;fill:none;stroke-width:1.25;stroke-linecap:round;stroke-linejoin:round;" /><path d="M 0.0,-97.19999999999999 L 129.6,-97.19999999999999" style="stroke:black;fill:none;stroke-width:1.25;stroke-linecap:round;stroke-linejoin:round;" /><path d="M 0.0,-0.0 L 0.0,-129.6" style="stroke:black;fill:none;stroke-width:1.25;stroke-linecap:round;stroke-linejoin:round;" /><path d="M 32.4,-0.0 L 32.4,-129.6" style="stroke:black;fill:none;stroke-width:1.25;stroke-linecap:round;stroke-linejoin:round;" /><path d="M 64.8,-0.0 L 64.8,-129.6" style="stroke:black;fill:none;stroke-width:1.25;stroke-linecap:round;stroke-linejoin:round;" /><path d="M 97.19999999999999,-0.0 L 97.19999999999999,-129.6" style="stroke:black;fill:none;stroke-width:1.25;stroke-linecap:round;stroke-linejoin:round;" /><path d="M 0.0,-129.6 L -22.910259710444137,-152.51025971044413" style="stroke:black;fill:none;stroke-width:1.25;stroke-linecap:round;stroke-linejoin:round;" /><text x="0.0" y="-158.18269478283307" fill="black" font-size="12" font-family="sans" text-anchor="end" transform="rotate(0 0.0 -148.58269478283307)"><tspan x="0.0" dy="9.600000000000001">AB</tspan></text><text x="-17.182694782833103" y="-140.99999999999997" fill="black" font-size="12" font-family="sans" text-anchor="end" transform="rotate(0 -17.182694782833103 -131.39999999999998)"><tspan x="-17.182694782833103" dy="9.600000000000001">CD</tspan></text><text x="16.2" y="-140.72" fill="black" font-size="10" font-family="sans" text-anchor="middle" transform="rotate(0 16.2 -132.72)"><tspan x="16.2" dy="8.0">00</tspan></text><text x="48.599999999999994" y="-140.72" fill="black" font-size="10" font-family="sans" text-anchor="middle" transform="rotate(0 48.599999999999994 -132.72)"><tspan x="48.599999999999994" dy="8.0">01</tspan></text><text x="113.39999999999999" y="-140.72" fill="black" font-size="10" font-family="sans" text-anchor="middle" transform="rotate(0 113.39999999999999 -132.72)"><tspan x="113.39999999999999" dy="8.0">10</tspan></text><text x="81.0" y="-140.72" fill="black" font-size="10" font-family="sans" text-anchor="middle" transform="rotate(0 81.0 -132.72)"><tspan x="81.0" dy="8.0">11</tspan></text><text x="-3.24" y="-118.89999999999999" fill="black" font-size="10" font-family="sans" text-anchor="end" transform="rotate(0 -3.24 -114.89999999999999)"><tspan x="-3.24" dy="8.0">00</tspan></text><text x="-3.24" y="-86.5" fill="black" font-size="10" font-family="sans" text-anchor="end" transform="rotate(0 -3.24 -82.5)"><tspan x="-3.24" dy="8.0">01</tspan></text><text x="-3.24" y="-21.7" fill="black" font-size="10" font-family="sans" text-anchor="end" transform="rotate(0 -3.24 -17.7)"><tspan x="-3.24" dy="8.0">10</tspan></text><text x="-3.24" y="-54.099999999999994" fill="black" font-size="10" font-family="sans" text-anchor="end" transform="rotate(0 -3.24 -50.099999999999994)"><tspan x="-3.24" dy="8.0">11</tspan></text><text x="16.2" y="-120.0" fill="black" font-size="12" font-family="sans" text-anchor="middle" transform="rotate(0 16.2 -115.19999999999999)"><tspan x="16.2" dy="9.600000000000001">0</tspan></text><text x="16.2" y="-87.6" fill="black" font-size="12" font-family="sans" text-anchor="middle" transform="rotate(0 16.2 -82.79999999999998)"><tspan x="16.2" dy="9.600000000000001">1</tspan></text><text x="16.2" y="-22.8" fill="black" font-size="12" font-family="sans" text-anchor="middle" transform="rotate(0 16.2 -18.0)"><tspan x="16.2" dy="9.600000000000001">x</tspan></text><text x="16.2" y="-55.199999999999996" fill="black" font-size="12" font-family="sans" text-anchor="middle" transform="rotate(0 16.2 -50.4)"><tspan x="16.2" dy="9.600000000000001">0</tspan></text><text x="48.599999999999994" y="-120.0" fill="black" font-size="12" font-family="sans" text-anchor="middle" transform="rotate(0 48.599999999999994 -115.19999999999999)"><tspan x="48.599999999999994" dy="9.600000000000001">0</tspan></text><text x="48.599999999999994" y="-87.6" fill="black" font-size="12" font-family="sans" text-anchor="middle" transform="rotate(0 48.599999999999994 -82.79999999999998)"><tspan x="48.599999999999994" dy="9.600000000000001">1</tspan></text><text x="48.599999999999994" y="-22.8" fill="black" font-size="12" font-family="sans" text-anchor="middle" transform="rotate(0 48.599999999999994 -18.0)"><tspan x="48.599999999999994" dy="9.600000000000001">0</tspan></text><text x="48.599999999999994" y="-55.199999999999996" fill="black" font-size="12" font-family="sans" text-anchor="middle" transform="rotate(0 48.599999999999994 -50.4)"><tspan x="48.599999999999994" dy="9.600000000000001">1</tspan></text><text x="113.39999999999999" y="-120.0" fill="black" font-size="12" font-family="sans" text-anchor="middle" transform="rotate(0 113.39999999999999 -115.19999999999999)"><tspan x="113.39999999999999" dy="9.600000000000001">x</tspan></text><text x="113.39999999999999" y="-87.6" fill="black" font-size="12" font-family="sans" text-anchor="middle" transform="rotate(0 113.39999999999999 -82.79999999999998)"><tspan x="113.39999999999999" dy="9.600000000000001">1</tspan></text><text x="113.39999999999999" y="-22.8" fill="black" font-size="12" font-family="sans" text-anchor="middle" transform="rotate(0 113.39999999999999 -18.0)"><tspan x="113.39999999999999" dy="9.600000000000001">0</tspan></text><text x="113.39999999999999" y="-55.199999999999996" fill="black" font-size="12" font-family="sans" text-anchor="middle" transform="rotate(0 113.39999999999999 -50.4)"><tspan x="113.39999999999999" dy="9.600000000000001">1</tspan></text><text x="81.0" y="-120.0" fill="black" font-size="12" font-family="sans" text-anchor="middle" transform="rotate(0 81.0 -115.19999999999999)"><tspan x="81.0" dy="9.600000000000001">0</tspan></text><text x="81.0" y="-87.6" fill="black" font-size="12" font-family="sans" text-anchor="middle" transform="rotate(0 81.0 -82.79999999999998)"><tspan x="81.0" dy="9.600000000000001">0</tspan></text><text x="81.0" y="-22.8" fill="black" font-size="12" font-family="sans" text-anchor="middle" transform="rotate(0 81.0 -18.0)"><tspan x="81.0" dy="9.600000000000001">x</tspan></text><text x="81.0" y="-55.199999999999996" fill="black" font-size="12" font-family="sans" text-anchor="middle" transform="rotate(0 81.0 -50.4)"><tspan x="81.0" dy="9.600000000000001">1</tspan></text></svg>