<svg xmlns="http://www.w3.org/2000/svg" xml:lang="en" height="178.86269478283307pt" width="180.1478947828331pt" viewBox="-43.4178947828331 -173.6226947828331 180.1478947828331 178.86269478283307"><polygon points="118.25999999999999,-3.2399999999999953 118.38851430706193,-3.2410195658416074 118.51699626133434,-3.2440780066961965 118.6454135181723,-3.249174552617631 118.77373374921817,-3.2563079205777314 118.90192465053998,-3.265476314789263 119.02995395076387,-3.2766774271580106 119.15778941919818,-3.2899084378638372 119.28539887394736,-3.305166016070553 119.41275019001361,-3.3224463207644406 119.53981130738413,-3.341745001721202 119.66655023910212,-3.3630572006011104 119.7929350793193,-3.386377552172071 119.91893401132803,-3.4117001856602878 120.04451531557098,-3.4390187262281984 120.16964737762635,-3.468326296579308 120.29429869616673,-3.49961551868951 120.41843789088928,-3.532878515664465 120.54203371041557,-3.5681069137225667 120.66505504015902,-3.605291844302998 120.78747091015774,-3.6444239462983385 120.9092505028711,-3.6854933684111812 121.03036316093791,-3.728489771634138 121.15077839489415,-3.7734023318526315 121.27046589084864,-3.8202197425698077 121.38939551811434,-3.8689302177528875 121.50753733679356,-3.919521494800233 121.62486160531527,-3.971980837628398 121.74133878792229,-4.026295039878364 121.85693956210676,-4.0824504282401755 121.97163482599203,-4.140432865895116 122.08539570565873,-4.2002277560745815 122.19819356241379,-4.26182004573474 122.30999999999999,-4.325194229346044 122.42078687174458,-4.390334352796683 122.53052628764506,-4.4572240174089295 122.63919062139034,-4.52584638406743 122.74675251731549,-4.5961841774583485 122.85318489728844,-4.6682196904183515 122.95846096752669,-4.741934788392278 123.0625542253426,-4.817310913998423 123.1654384658151,-4.894329091700257 123.26708778838689,-4.972969932583419 123.36747660338463,-5.053213639236768 123.46657963846096,-5.135040010736275 123.5643719449568,-5.218428447730505 123.66082890418195,-5.3033579576263845 123.75592623361277,-5.389807159873978 123.8496399930051,-5.47775429134893 123.9419465904212,-5.567177211831209 124.03282278816879,-5.6580534095787955 124.12224570865105,-5.750360006994891 124.21019284012603,-5.844073766387227 124.2966420423736,-5.939171095818036 124.38157155226948,-6.035628055043189 124.46495998926372,-6.13342036153903 124.54678636076324,-6.232523396615366 124.62703006741658,-6.332912211613096 124.70567090829974,-6.434561534184898 124.78268908600157,-6.537445774657411 124.85806521160771,-6.641539032473294 124.93178030958164,-6.7468151027115555 125.00381582254164,-6.853247482684506 125.07415361593256,-6.960809378609658 125.14277598259106,-7.069473712354929 125.20966564720331,-7.179213128255407 125.27480577065396,-7.29 125.33817995426526,-7.4018064375862025 125.3997722439254,-7.514604294341269 125.45956713410487,-7.628365174007975 125.51754957175982,-7.74306043789323 125.57370496012163,-7.85866121207771 125.62801916237159,-7.975138394684719 125.68047850519976,-8.09246266320643 125.7310697822471,-8.210604481885659 125.77978025743019,-8.329534109151346 125.82659766814736,-8.449221605105837 125.87151022836585,-8.569636839062083 125.91450663158881,-8.690749497128884 125.95557605370165,-8.812529089842254 125.994708155697,-8.934944959840973 126.03189308627744,-9.057966289584419 126.06712148433552,-9.181562109110716 126.10038448131047,-9.30570130383326 126.13167370342067,-9.43035262237364 126.16098127377178,-9.555484684429022 126.1882998143397,-9.681065988671957 126.21362244782792,-9.807064920680679 126.23694279939888,-9.933449760897865 126.25825499827879,-10.060188692615865 126.27755367923555,-10.187249809986392 126.29483398392944,-10.314601126052631 126.31009156213615,-10.442210580801811 126.32332257284197,-10.570046049236122 126.33452368521073,-10.698075349460014 126.34369207942225,-10.826266250781828 126.35082544738235,-10.954586481827688 126.3559219933038,-11.083003738665653 126.35898043415838,-11.211485692938057 126.35999999999999,-11.34 126.35999999999999,-118.25999999999999 126.35898043415838,-118.38851430706193 126.35592199330378,-118.51699626133434 126.35082544738235,-118.64541351817229 126.34369207942225,-118.77373374921817 126.33452368521073,-118.90192465053998 126.32332257284197,-119.02995395076387 126.31009156213615,-119.15778941919818 126.29483398392942,-119.28539887394736 126.27755367923555,-119.4127501900136 126.25825499827879,-119.53981130738411 126.23694279939888,-119.66655023910212 126.21362244782792,-119.7929350793193 126.1882998143397,-119.91893401132803 126.16098127377178,-120.04451531557096 126.13167370342067,-120.16964737762635 126.10038448131047,-120.29429869616673 126.06712148433552,-120.41843789088927 126.03189308627742,-120.54203371041557 125.994708155697,-120.66505504015902 125.95557605370165,-120.78747091015774 125.91450663158881,-120.9092505028711 125.87151022836584,-121.0303631609379 125.82659766814736,-121.15077839489415 125.77978025743018,-121.27046589084864 125.7310697822471,-121.38939551811433 125.68047850519974,-121.50753733679356 125.62801916237159,-121.62486160531526 125.57370496012163,-121.74133878792229 125.51754957175982,-121.85693956210676 125.45956713410487,-121.97163482599201 125.3997722439254,-122.08539570565871 125.33817995426526,-122.19819356241378 125.27480577065394,-122.30999999999999 125.2096656472033,-122.42078687174458 125.14277598259105,-122.53052628764505 125.07415361593254,-122.63919062139033 125.00381582254164,-122.74675251731549 124.93178030958163,-122.85318489728843 124.85806521160771,-122.95846096752669 124.78268908600157,-123.06255422534258 124.70567090829972,-123.16543846581509 124.62703006741657,-123.26708778838689 124.54678636076322,-123.3674766033846 124.4649599892637,-123.46657963846094 124.38157155226948,-123.56437194495679 124.29664204237359,-123.66082890418195 124.21019284012601,-123.75592623361275 124.12224570865105,-123.84963999300508 124.03282278816877,-123.94194659042118 123.94194659042118,-124.03282278816877 123.8496399930051,-124.12224570865105 123.75592623361275,-124.21019284012601 123.66082890418195,-124.29664204237359 123.56437194495679,-124.38157155226946 123.46657963846094,-124.4649599892637 123.36747660338463,-124.54678636076322 123.26708778838689,-124.62703006741657 123.16543846581509,-124.70567090829972 123.06255422534258,-124.78268908600157 122.95846096752669,-124.85806521160771 122.85318489728843,-124.93178030958163 122.74675251731549,-125.00381582254163 122.63919062139033,-125.07415361593254 122.53052628764505,-125.14277598259105 122.42078687174458,-125.2096656472033 122.30999999999999,-125.27480577065394 122.19819356241378,-125.33817995426524 122.08539570565871,-125.39977224392538 121.97163482599201,-125.45956713410486 121.85693956210676,-125.5175495717598 121.74133878792229,-125.57370496012162 121.62486160531526,-125.62801916237157 121.50753733679356,-125.68047850519974 121.38939551811433,-125.73106978224709 121.27046589084864,-125.77978025743018 121.15077839489415,-125.82659766814734 121.0303631609379,-125.87151022836584 120.9092505028711,-125.9145066315888 120.78747091015774,-125.95557605370163 120.66505504015902,-125.99470815569698 120.54203371041557,-126.03189308627742 120.41843789088927,-126.0671214843355 120.29429869616673,-126.10038448131046 120.16964737762635,-126.13167370342066 120.04451531557096,-126.16098127377177 119.91893401132803,-126.18829981433969 119.7929350793193,-126.2136224478279 119.66655023910212,-126.23694279939888 119.53981130738411,-126.25825499827877 119.4127501900136,-126.27755367923554 119.28539887394736,-126.29483398392941 119.15778941919818,-126.31009156213614 119.02995395076387,-126.32332257284196 118.90192465053998,-126.33452368521071 118.77373374921817,-126.34369207942224 118.64541351817229,-126.35082544738233 118.51699626133434,-126.35592199330377 118.38851430706193,-126.35898043415837 118.25999999999999,-126.35999999999997 108.53999999999999,-126.35999999999999 108.41148569293806,-126.35898043415838 108.28300373866564,-126.35592199330378 108.15458648182768,-126.35082544738235 108.02626625078183,-126.34369207942225 107.89807534946002,-126.33452368521073 107.77004604923611,-126.32332257284197 107.64221058080182,-126.31009156213615 107.51460112605263,-126.29483398392944 107.3872498099864,-126.27755367923555 107.26018869261586,-126.25825499827879 107.13344976089786,-126.23694279939888 107.00706492068068,-126.21362244782792 106.88106598867196,-126.1882998143397 106.75548468442902,-126.16098127377178 106.63035262237364,-126.13167370342067 106.50570130383325,-126.10038448131047 106.38156210911072,-126.06712148433552 106.25796628958442,-126.03189308627742 106.13494495984096,-125.994708155697 106.01252908984225,-125.95557605370165 105.89074949712888,-125.91450663158881 105.76963683906207,-125.87151022836585 105.64922160510584,-125.82659766814736 105.52953410915134,-125.77978025743019 105.41060448188566,-125.7310697822471 105.29246266320642,-125.68047850519976 105.17513839468471,-125.62801916237159 105.05866121207771,-125.57370496012163 104.94306043789324,-125.51754957175982 104.82836517400798,-125.45956713410487 104.71460429434127,-125.3997722439254 104.6018064375862,-125.33817995426526 104.49,-125.27480577065396 104.37921312825542,-125.20966564720331 104.26947371235492,-125.14277598259105 104.16080937860966,-125.07415361593256 104.0532474826845,-125.00381582254164 103.94681510271155,-124.93178030958164 103.84153903247329,-124.85806521160771 103.73744577465742,-124.78268908600157 103.6345615341849,-124.70567090829974 103.5329122116131,-124.62703006741657 103.43252339661537,-124.54678636076324 103.33342036153903,-124.46495998926372 103.2356280550432,-124.38157155226948 103.13917109581804,-124.2966420423736 103.04407376638723,-124.21019284012601 102.95036000699488,-124.12224570865105 102.85805340957879,-124.03282278816877 102.76717721183121,-123.9419465904212 102.67775429134893,-123.8496399930051 102.58980715987398,-123.75592623361275 102.50335795762638,-123.66082890418195 102.4184284477305,-123.5643719449568 102.33504001073628,-123.46657963846096 102.25321363923676,-123.36747660338463 102.17296993258343,-123.26708778838689 102.09432909170026,-123.1654384658151 102.01731091399843,-123.06255422534258 101.94193478839229,-122.95846096752669 101.86821969041836,-122.85318489728843 101.79618417745836,-122.74675251731549 101.72584638406742,-122.63919062139034 101.65722401740894,-122.53052628764506 101.59033435279667,-122.42078687174458 101.52519422934604,-122.30999999999999 101.46182004573474,-122.19819356241379 101.40022775607459,-122.08539570565873 101.34043286589512,-121.97163482599203 101.28245042824018,-121.85693956210676 101.22629503987837,-121.74133878792229 101.1719808376284,-121.62486160531527 101.11952149480024,-121.50753733679356 101.0689302177529,-121.38939551811434 101.02021974256981,-121.27046589084864 100.97340233185264,-121.15077839489415 100.92848977163413,-121.03036316093791 100.88549336841119,-120.9092505028711 100.84442394629833,-120.78747091015774 100.805291844303,-120.66505504015902 100.76810691372258,-120.54203371041557 100.73287851566447,-120.41843789088928 100.69961551868951,-120.29429869616673 100.66832629657931,-120.16964737762635 100.6390187262282,-120.04451531557098 100.6117001856603,-119.91893401132803 100.58637755217208,-119.7929350793193 100.56305720060112,-119.66655023910212 100.54174500172121,-119.53981130738413 100.52244632076444,-119.4127501900136 100.50516601607055,-119.28539887394736 100.48990843786385,-119.15778941919818 100.47667742715801,-119.02995395076387 100.46547631478927,-118.90192465053998 100.45630792057774,-118.77373374921817 100.44917455261763,-118.64541351817229 100.4440780066962,-118.51699626133434 100.44101956584161,-118.38851430706193 100.44,-118.25999999999999 100.44,-11.339999999999998 100.44101956584161,-11.211485692938053 100.44407800669619,-11.083003738665651 100.44917455261763,-10.954586481827686 100.45630792057774,-10.826266250781822 100.46547631478927,-10.698075349460009 100.47667742715801,-10.570046049236117 100.48990843786385,-10.44221058080181 100.50516601607055,-10.31460112605263 100.52244632076444,-10.187249809986389 100.54174500172121,-10.060188692615863 100.56305720060112,-9.933449760897863 100.58637755217208,-9.807064920680675 100.6117001856603,-9.681065988671952 100.6390187262282,-9.555484684429018 100.66832629657931,-9.430352622373636 100.69961551868951,-9.305701303833256 100.73287851566447,-9.181562109110715 100.76810691372258,-9.057966289584417 100.805291844303,-8.93494495984097 100.84442394629833,-8.81252908984225 100.88549336841119,-8.690749497128882 100.92848977163413,-8.569636839062081 100.97340233185264,-8.449221605105835 101.02021974256981,-8.329534109151345 101.0689302177529,-8.210604481885657 101.11952149480022,-8.092462663206424 101.1719808376284,-7.975138394684716 101.22629503987837,-7.858661212077707 101.28245042824018,-7.743060437893227 101.34043286589512,-7.628365174007974 101.40022775607459,-7.514604294341268 101.46182004573474,-7.4018064375862025 101.52519422934604,-7.2899999999999965 101.59033435279667,-7.179213128255408 101.65722401740894,-7.069473712354927 101.72584638406742,-6.960809378609657 101.79618417745836,-6.8532474826845045 101.86821969041836,-6.7468151027115555 101.94193478839229,-6.641539032473293 102.01731091399843,-6.537445774657411 102.09432909170025,-6.434561534184899 102.17296993258343,-6.3329122116130945 102.25321363923676,-6.232523396615365 102.33504001073626,-6.133420361539029 102.4184284477305,-6.035628055043189 102.50335795762638,-5.939171095818036 102.58980715987398,-5.844073766387227 102.67775429134893,-5.7503600069948915 102.76717721183121,-5.658053409578794 102.85805340957879,-5.567177211831209 102.95036000699488,-5.47775429134893 103.04407376638723,-5.389807159873979 103.13917109581804,-5.303357957626385 103.23562805504318,-5.218428447730506 103.33342036153903,-5.135040010736276 103.43252339661537,-5.053213639236767 103.5329122116131,-4.972969932583421 103.6345615341849,-4.894329091700257 103.7374457746574,-4.817310913998425 103.84153903247329,-4.741934788392279 103.94681510271154,-4.668219690418355 104.0532474826845,-4.596184177458349 104.16080937860966,-4.52584638406743 104.26947371235492,-4.457224017408932 104.37921312825542,-4.390334352796683 104.49,-4.325194229346043 104.6018064375862,-4.261820045734741 104.71460429434127,-4.200227756074585 104.82836517400797,-4.140432865895118 104.94306043789324,-4.0824504282401755 105.05866121207771,-4.026295039878367 105.17513839468471,-3.971980837628398 105.29246266320642,-3.9195214948002346 105.41060448188566,-3.8689302177528884 105.52953410915134,-3.8202197425698103 105.64922160510584,-3.7734023318526333 105.76963683906207,-3.728489771634139 105.89074949712888,-3.685493368411184 106.01252908984225,-3.6444239462983394 106.13494495984096,-3.6052918443029998 106.25796628958442,-3.5681069137225685 106.3815621091107,-3.5328785156644678 106.50570130383325,-3.4996155186895117 106.63035262237364,-3.468326296579309 106.755484684429,-3.439018726228201 106.88106598867196,-3.4117001856602895 107.00706492068068,-3.386377552172074 107.13344976089786,-3.3630572006011126 107.26018869261586,-3.3417450017212036 107.3872498099864,-3.322446320764443 107.51460112605263,-3.305166016070555 107.64221058080182,-3.289908437863839 107.77004604923611,-3.2766774271580124 107.89807534946002,-3.265476314789265 108.02626625078183,-3.256307920577733 108.15458648182768,-3.249174552617633 108.28300373866564,-3.2440780066961983 108.41148569293806,-3.241019565841609 108.53999999999999,-3.2399999999999975 118.25999999999999,-3.2399999999999953 " style="stroke:red;fill:none;stroke-width:1;stroke-linecap:round;stroke-linejoin:round;" /><polygon points="118.25999999999999,-3.2399999999999953 118.38851430706193,-3.2410195658416074 118.51699626133434,-3.2440780066961965 118.6454135181723,-3.249174552617631 118.77373374921817,-3.2563079205777314 118.90192465053998,-3.265476314789263 119.02995395076387,-3.2766774271580106 119.15778941919818,-3.2899084378638372 119.28539887394736,-3.305166016070553 119.41275019001361,-3.3224463207644406 119.53981130738413,-3.341745001721202 119.66655023910212,-3.3630572006011104 119.7929350793193,-3.386377552172071 119.91893401132803,-3.4117001856602878 120.04451531557098,-3.4390187262281984 120.16964737762635,-3.468326296579308 120.29429869616673,-3.49961551868951 120.41843789088928,-3.532878515664465 120.54203371041557,-3.5681069137225667 120.66505504015902,-3.605291844302998 120.78747091015774,-3.6444239462983385 120.9092505028711,-3.6854933684111812 121.03036316093791,-3.728489771634138 121.15077839489415,-3.7734023318526315 121.27046589084864,-3.8202197425698077 121.38939551811434,-3.8689302177528875 121.50753733679356,-3.919521494800233 121.62486160531527,-3.971980837628398 121.74133878792229,-4.026295039878364 121.85693956210676,-4.0824504282401755 121.97163482599203,-4.140432865895116 122.08539570565873,-4.2002277560745815 122.19819356241379,-4.26182004573474 122.30999999999999,-4.325194229346044 122.42078687174458,-4.390334352796683 122.53052628764506,-4.4572240174089295 122.63919062139034,-4.52584638406743 122.74675251731549,-4.5961841774583485 122.85318489728844,-4.6682196904183515 122.95846096752669,-4.741934788392278 123.0625542253426,-4.817310913998423 123.1654384658151,-4.894329091700257 123.26708778838689,-4.972969932583419 123.36747660338463,-5.053213639236768 123.46657963846096,-5.135040010736275 123.5643719449568,-5.218428447730505 123.66082890418195,-5.3033579576263845 123.75592623361277,-5.389807159873978 123.8496399930051,-5.47775429134893 123.9419465904212,-5.567177211831209 124.03282278816879,-5.6580534095787955 124.12224570865105,-5.750360006994891 124.21019284012603,-5.844073766387227 124.2966420423736,-5.939171095818036 124.38157155226948,-6.035628055043189 124.46495998926372,-6.13342036153903 124.54678636076324,-6.232523396615366 124.62703006741658,-6.332912211613096 124.70567090829974,-6.434561534184898 124.78268908600157,-6.537445774657411 124.85806521160771,-6.641539032473294 124.93178030958164,-6.7468151027115555 125.00381582254164,-6.853247482684506 125.07415361593256,-6.960809378609658 125.14277598259106,-7.069473712354929 125.20966564720331,-7.179213128255407 125.27480577065396,-7.29 125.33817995426526,-7.4018064375862025 125.3997722439254,-7.514604294341269 125.45956713410487,-7.628365174007975 125.51754957175982,-7.74306043789323 125.57370496012163,-7.85866121207771 125.62801916237159,-7.975138394684719 125.68047850519976,-8.09246266320643 125.7310697822471,-8.210604481885659 125.77978025743019,-8.329534109151346 125.82659766814736,-8.449221605105837 125.87151022836585,-8.569636839062083 125.91450663158881,-8.690749497128884 125.95557605370165,-8.812529089842254 125.994708155697,-8.934944959840973 126.03189308627744,-9.057966289584419 126.06712148433552,-9.181562109110716 126.10038448131047,-9.30570130383326 126.13167370342067,-9.43035262237364 126.16098127377178,-9.555484684429022 126.1882998143397,-9.681065988671957 126.21362244782792,-9.807064920680679 126.23694279939888,-9.933449760897865 126.25825499827879,-10.060188692615865 126.27755367923555,-10.187249809986392 126.29483398392944,-10.314601126052631 126.31009156213615,-10.442210580801811 126.32332257284197,-10.570046049236122 126.33452368521073,-10.698075349460014 126.34369207942225,-10.826266250781828 126.35082544738235,-10.954586481827688 126.3559219933038,-11.083003738665653 126.35898043415838,-11.211485692938057 126.35999999999999,-11.34 126.35999999999999,-53.459999999999994 126.35898043415838,-53.58851430706194 126.35592199330378,-53.71699626133434 126.35082544738235,-53.84541351817231 126.34369207942225,-53.97373374921817 126.33452368521073,-54.10192465053998 126.32332257284197,-54.22995395076388 126.31009156213615,-54.357789419198184 126.29483398392944,-54.48539887394737 126.27755367923555,-54.61275019001361 126.25825499827879,-54.73981130738413 126.23694279939888,-54.866550239102125 126.21362244782792,-54.992935079319324 126.1882998143397,-55.11893401132804 126.16098127377178,-55.24451531557097 126.13167370342067,-55.36964737762635 126.10038448131047,-55.49429869616674 126.06712148433552,-55.618437890889275 126.03189308627742,-55.742033710415576 125.994708155697,-55.86505504015902 125.95557605370165,-55.98747091015775 125.91450663158881,-56.10925050287111 125.87151022836585,-56.23036316093791 125.82659766814736,-56.35077839489416 125.77978025743019,-56.47046589084865 125.7310697822471,-56.58939551811434 125.68047850519976,-56.707537336793564 125.62801916237159,-56.82486160531527 125.57370496012163,-56.941338787922284 125.51754957175982,-57.05693956210677 125.45956713410487,-57.17163482599202 125.3997722439254,-57.28539570565872 125.33817995426526,-57.398193562413795 125.27480577065396,-57.51 125.20966564720331,-57.620786871744585 125.14277598259105,-57.73052628764507 125.07415361593256,-57.83919062139033 125.00381582254164,-57.94675251731549 124.93178030958164,-58.05318489728844 124.85806521160771,-58.1584609675267 124.78268908600157,-58.26255422534258 124.70567090829972,-58.365438465815096 124.62703006741657,-58.46708778838689 124.54678636076324,-58.56747660338463 124.46495998926372,-58.666579638460966 124.38157155226948,-58.76437194495681 124.2966420423736,-58.86082890418196 124.21019284012601,-58.955926233612765 124.12224570865105,-59.0496399930051 124.03282278816877,-59.14194659042119 123.9419465904212,-59.23282278816878 123.8496399930051,-59.32224570865106 123.75592623361275,-59.410192840126015 123.66082890418195,-59.49664204237361 123.56437194495679,-59.58157155226949 123.46657963846096,-59.664959989263714 123.36747660338463,-59.746786360763224 123.26708778838689,-59.82703006741657 123.1654384658151,-59.90567090829973 123.06255422534258,-59.98268908600157 122.95846096752669,-60.05806521160772 122.85318489728843,-60.13178030958164 122.74675251731549,-60.20381582254164 122.63919062139034,-60.27415361593256 122.53052628764506,-60.342775982591064 122.42078687174458,-60.409665647203305 122.30999999999999,-60.474805770653944 122.19819356241379,-60.53817995426525 122.08539570565873,-60.59977224392541 121.97163482599203,-60.659567134104876 121.85693956210676,-60.71754957175981 121.74133878792229,-60.77370496012163 121.62486160531527,-60.82801916237159 121.50753733679356,-60.880478505199754 121.38939551811434,-60.9310697822471 121.27046589084864,-60.979780257430185 121.15077839489415,-61.02659766814736 121.03036316093791,-61.07151022836585 120.9092505028711,-61.11450663158881 120.78747091015774,-61.15557605370165 120.66505504015902,-61.19470815569699 120.54203371041557,-61.231893086277424 120.41843789088928,-61.26712148433552 120.29429869616673,-61.30038448131048 120.16964737762635,-61.331673703420684 120.04451531557096,-61.36098127377179 119.91893401132803,-61.3882998143397 119.7929350793193,-61.41362244782792 119.66655023910212,-61.43694279939888 119.53981130738413,-61.45825499827879 119.4127501900136,-61.47755367923555 119.28539887394736,-61.49483398392944 119.15778941919818,-61.51009156213615 119.02995395076387,-61.523322572841984 118.90192465053998,-61.53452368521073 118.77373374921817,-61.543692079422264 118.64541351817229,-61.55082544738236 118.51699626133434,-61.5559219933038 118.38851430706193,-61.558980434158386 118.25999999999999,-61.559999999999995 76.14,-61.559999999999995 76.01148569293807,-61.558980434158386 75.88300373866565,-61.5559219933038 75.75458648182769,-61.55082544738236 75.62626625078182,-61.543692079422264 75.49807534946001,-61.53452368521073 75.37004604923612,-61.523322572841984 75.24221058080181,-61.51009156213615 75.11460112605263,-61.49483398392944 74.9872498099864,-61.47755367923555 74.86018869261586,-61.45825499827878 74.73344976089787,-61.43694279939888 74.60706492068068,-61.41362244782792 74.48106598867196,-61.3882998143397 74.35548468442903,-61.36098127377179 74.23035262237364,-61.331673703420684 74.10570130383326,-61.30038448131048 73.98156210911073,-61.26712148433552 73.85796628958443,-61.231893086277424 73.73494495984097,-61.19470815569699 73.61252908984225,-61.15557605370165 73.49074949712889,-61.11450663158881 73.36963683906208,-61.07151022836586 73.24922160510584,-61.02659766814736 73.12953410915135,-60.979780257430185 73.01060448188565,-60.9310697822471 72.89246266320643,-60.880478505199754 72.77513839468472,-60.82801916237159 72.6586612120777,-60.77370496012163 72.54306043789323,-60.71754957175981 72.42836517400798,-60.659567134104876 72.31460429434127,-60.59977224392541 72.2018064375862,-60.53817995426525 72.09,-60.474805770653944 71.97921312825541,-60.409665647203305 71.86947371235493,-60.342775982591064 71.76080937860965,-60.27415361593256 71.6532474826845,-60.20381582254164 71.54681510271156,-60.13178030958164 71.4415390324733,-60.05806521160772 71.33744577465741,-59.98268908600157 71.23456153418489,-59.90567090829973 71.1329122116131,-59.82703006741657 71.03252339661536,-59.746786360763224 70.93342036153904,-59.664959989263714 70.8356280550432,-59.58157155226949 70.73917109581804,-59.49664204237361 70.64407376638724,-59.410192840126015 70.5503600069949,-59.32224570865107 70.4580534095788,-59.23282278816878 70.36717721183122,-59.14194659042119 70.27775429134894,-59.0496399930051 70.18980715987398,-58.955926233612765 70.10335795762639,-58.86082890418196 70.01842844773051,-58.76437194495681 69.93504001073629,-58.666579638460966 69.85321363923676,-58.56747660338463 69.77296993258342,-58.46708778838689 69.69432909170027,-58.365438465815096 69.61731091399842,-58.26255422534258 69.54193478839228,-58.1584609675267 69.46821969041835,-58.05318489728844 69.39618417745835,-57.94675251731549 69.32584638406743,-57.83919062139034 69.25722401740894,-57.73052628764507 69.19033435279668,-57.620786871744585 69.12519422934604,-57.51 69.06182004573473,-57.398193562413795 69.0002277560746,-57.28539570565872 68.94043286589512,-57.17163482599202 68.88245042824018,-57.05693956210676 68.82629503987836,-56.941338787922284 68.7719808376284,-56.82486160531527 68.71952149480025,-56.707537336793564 68.66893021775289,-56.58939551811434 68.6202197425698,-56.47046589084865 68.57340233185263,-56.35077839489416 68.52848977163414,-56.23036316093792 68.48549336841118,-56.10925050287111 68.44442394629834,-55.98747091015773 68.405291844303,-55.86505504015902 68.36810691372257,-55.742033710415576 68.33287851566448,-55.618437890889275 68.29961551868952,-55.49429869616674 68.26832629657932,-55.36964737762635 68.23901872622821,-55.24451531557097 68.21170018566029,-55.11893401132804 68.18637755217208,-54.992935079319324 68.16305720060112,-54.866550239102125 68.1417450017212,-54.73981130738413 68.12244632076444,-54.61275019001361 68.10516601607056,-54.48539887394737 68.08990843786384,-54.35778941919819 68.07667742715802,-54.22995395076387 68.06547631478927,-54.10192465053998 68.05630792057774,-53.97373374921817 68.04917455261764,-53.84541351817231 68.04407800669621,-53.71699626133434 68.04101956584161,-53.58851430706194 68.04,-53.459999999999994 68.04,-11.34 68.04101956584161,-11.211485692938055 68.0440780066962,-11.083003738665653 68.04917455261764,-10.954586481827688 68.05630792057774,-10.826266250781824 68.06547631478927,-10.698075349460012 68.07667742715802,-10.570046049236119 68.08990843786384,-10.442210580801811 68.10516601607056,-10.314601126052631 68.12244632076444,-10.187249809986392 68.1417450017212,-10.060188692615865 68.16305720060112,-9.933449760897865 68.18637755217208,-9.807064920680677 68.21170018566029,-9.681065988671953 68.23901872622821,-9.55548468442902 68.26832629657932,-9.430352622373638 68.29961551868952,-9.305701303833258 68.33287851566448,-9.181562109110716 68.36810691372257,-9.057966289584419 68.405291844303,-8.934944959840971 68.44442394629834,-8.812529089842254 68.48549336841118,-8.690749497128884 68.52848977163414,-8.569636839062083 68.57340233185263,-8.449221605105837 68.6202197425698,-8.329534109151346 68.66893021775289,-8.21060448188566 68.71952149480023,-8.092462663206426 68.7719808376284,-7.975138394684718 68.82629503987836,-7.858661212077709 68.88245042824018,-7.743060437893229 68.94043286589512,-7.628365174007976 69.0002277560746,-7.51460429434127 69.06182004573473,-7.401806437586204 69.12519422934604,-7.289999999999998 69.19033435279668,-7.17921312825541 69.25722401740894,-7.069473712354929 69.32584638406743,-6.9608093786096585 69.39618417745835,-6.853247482684506 69.46821969041835,-6.746815102711557 69.54193478839228,-6.641539032473295 69.61731091399842,-6.537445774657413 69.69432909170025,-6.434561534184901 69.77296993258342,-6.332912211613096 69.85321363923676,-6.232523396615367 69.93504001073627,-6.133420361539031 70.01842844773051,-6.03562805504319 70.10335795762639,-5.939171095818038 70.18980715987398,-5.844073766387229 70.27775429134894,-5.750360006994893 70.36717721183122,-5.6580534095787955 70.4580534095788,-5.56717721183121 70.5503600069949,-5.477754291348932 70.64407376638724,-5.389807159873981 70.73917109581804,-5.303357957626387 70.83562805504319,-5.218428447730508 70.93342036153904,-5.135040010736278 71.03252339661536,-5.053213639236769 71.1329122116131,-4.972969932583423 71.23456153418489,-4.894329091700259 71.3374457746574,-4.817310913998427 71.4415390324733,-4.741934788392281 71.54681510271155,-4.668219690418357 71.6532474826845,-4.596184177458352 71.76080937860965,-4.525846384067432 71.86947371235493,-4.457224017408934 71.97921312825541,-4.3903343527966845 72.09,-4.325194229346045 72.2018064375862,-4.261820045734742 72.31460429434127,-4.200227756074587 72.42836517400796,-4.14043286589512 72.54306043789323,-4.082450428240178 72.6586612120777,-4.026295039878368 72.77513839468472,-3.9719808376284 72.89246266320643,-3.9195214948002364 73.01060448188565,-3.86893021775289 73.12953410915135,-3.820219742569812 73.24922160510584,-3.773402331852635 73.36963683906208,-3.7284897716341407 73.49074949712889,-3.6854933684111857 73.61252908984225,-3.644423946298341 73.73494495984097,-3.6052918443030015 73.85796628958443,-3.5681069137225703 73.98156210911071,-3.5328785156644695 74.10570130383326,-3.4996155186895135 74.23035262237364,-3.4683262965793107 74.35548468442902,-3.439018726228203 74.48106598867196,-3.4117001856602913 74.60706492068068,-3.3863775521720756 74.73344976089787,-3.3630572006011143 74.86018869261586,-3.3417450017212054 74.9872498099864,-3.3224463207644446 75.11460112605263,-3.3051660160705567 75.24221058080181,-3.289908437863841 75.37004604923612,-3.276677427158014 75.49807534946001,-3.2654763147892667 75.62626625078182,-3.256307920577735 75.75458648182769,-3.2491745526176348 75.88300373866565,-3.2440780066962 76.01148569293807,-3.241019565841611 76.14,-3.2399999999999993 118.25999999999999,-3.2399999999999953 " style="stroke:blue;fill:none;stroke-width:1;stroke-linecap:round;stroke-linejoin:round;" /><polygon points="53.459999999999994,-68.04 53.58851430706194,-68.04101956584161 53.716996261334344,-68.04407800669621 53.84541351817231,-68.04917455261764 53.97373374921817,-68.05630792057774 54.10192465053998,-68.06547631478927 54.22995395076388,-68.07667742715802 54.35778941919819,-68.08990843786384 54.48539887394737,-68.10516601607056 54.61275019001361,-68.12244632076444 54.73981130738413,-68.1417450017212 54.866550239102125,-68.16305720060112 54.992935079319324,-68.18637755217208 55.118934011328044,-68.21170018566029 55.24451531557097,-68.23901872622821 55.36964737762635,-68.26832629657932 55.49429869616674,-68.29961551868952 55.618437890889275,-68.33287851566448 55.742033710415576,-68.36810691372257 55.86505504015902,-68.405291844303 55.98747091015775,-68.44442394629834 56.10925050287111,-68.48549336841118 56.23036316093791,-68.52848977163414 56.35077839489416,-68.57340233185263 56.47046589084865,-68.6202197425698 56.589395518114344,-68.66893021775289 56.707537336793564,-68.71952149480023 56.82486160531527,-68.7719808376284 56.941338787922284,-68.82629503987836 57.05693956210677,-68.88245042824018 57.17163482599202,-68.94043286589512 57.28539570565872,-69.0002277560746 57.398193562413795,-69.06182004573473 57.51,-69.12519422934604 57.620786871744585,-69.19033435279668 57.73052628764507,-69.25722401740894 57.83919062139034,-69.32584638406743 57.94675251731549,-69.39618417745835 58.05318489728844,-69.46821969041835 58.1584609675267,-69.54193478839228 58.26255422534258,-69.61731091399842 58.365438465815096,-69.69432909170027 58.46708778838689,-69.77296993258342 58.56747660338463,-69.85321363923677 58.666579638460966,-69.93504001073627 58.76437194495681,-70.01842844773051 58.86082890418196,-70.10335795762639 58.955926233612765,-70.18980715987398 59.0496399930051,-70.27775429134894 59.14194659042119,-70.36717721183122 59.23282278816878,-70.4580534095788 59.32224570865107,-70.5503600069949 59.410192840126015,-70.64407376638724 59.49664204237361,-70.73917109581804 59.58157155226949,-70.8356280550432 59.664959989263714,-70.93342036153904 59.746786360763224,-71.03252339661536 59.82703006741657,-71.1329122116131 59.90567090829973,-71.23456153418489 59.98268908600157,-71.33744577465741 60.05806521160772,-71.4415390324733 60.13178030958164,-71.54681510271156 60.20381582254164,-71.6532474826845 60.27415361593256,-71.76080937860965 60.342775982591064,-71.86947371235493 60.409665647203305,-71.97921312825541 60.474805770653944,-72.09 60.53817995426525,-72.2018064375862 60.59977224392541,-72.31460429434127 60.659567134104876,-72.42836517400798 60.71754957175981,-72.54306043789323 60.77370496012163,-72.6586612120777 60.82801916237159,-72.77513839468472 60.880478505199754,-72.89246266320643 60.9310697822471,-73.01060448188565 60.979780257430185,-73.12953410915135 61.02659766814736,-73.24922160510584 61.07151022836586,-73.36963683906208 61.11450663158881,-73.49074949712889 61.15557605370165,-73.61252908984225 61.19470815569699,-73.73494495984097 61.231893086277424,-73.85796628958443 61.26712148433552,-73.98156210911071 61.30038448131048,-74.10570130383326 61.331673703420684,-74.23035262237364 61.36098127377179,-74.35548468442903 61.3882998143397,-74.48106598867196 61.41362244782792,-74.60706492068068 61.43694279939888,-74.73344976089787 61.45825499827879,-74.86018869261586 61.47755367923555,-74.9872498099864 61.49483398392944,-75.11460112605263 61.51009156213615,-75.24221058080181 61.523322572841984,-75.37004604923612 61.53452368521073,-75.49807534946001 61.543692079422264,-75.62626625078182 61.55082544738236,-75.7545864818277 61.5559219933038,-75.88300373866565 61.558980434158386,-76.01148569293807 61.559999999999995,-76.14 61.56,-118.25999999999999 61.55898043415839,-118.38851430706193 61.555921993303805,-118.51699626133434 61.550825447382365,-118.64541351817229 61.54369207942227,-118.77373374921817 61.534523685210736,-118.90192465053998 61.52332257284199,-119.02995395076387 61.510091562136154,-119.15778941919818 61.494833983929446,-119.28539887394736 61.477553679235555,-119.4127501900136 61.45825499827879,-119.53981130738413 61.436942799398885,-119.66655023910212 61.41362244782792,-119.7929350793193 61.3882998143397,-119.91893401132803 61.3609812737718,-120.04451531557096 61.331673703420684,-120.16964737762635 61.30038448131049,-120.29429869616673 61.26712148433553,-120.41843789088927 61.231893086277424,-120.54203371041557 61.19470815569699,-120.66505504015902 61.15557605370165,-120.78747091015774 61.11450663158881,-120.9092505028711 61.07151022836586,-121.0303631609379 61.02659766814737,-121.15077839489415 60.979780257430185,-121.27046589084864 60.93106978224711,-121.38939551811433 60.88047850519976,-121.50753733679356 60.8280191623716,-121.62486160531526 60.77370496012163,-121.74133878792229 60.71754957175981,-121.85693956210676 60.659567134104876,-121.97163482599201 60.59977224392541,-122.08539570565871 60.53817995426525,-122.19819356241378 60.47480577065395,-122.30999999999999 60.409665647203305,-122.42078687174458 60.342775982591064,-122.53052628764505 60.27415361593256,-122.63919062139033 60.20381582254164,-122.74675251731549 60.13178030958164,-122.85318489728843 60.05806521160772,-122.95846096752669 59.98268908600157,-123.06255422534258 59.90567090829973,-123.16543846581509 59.82703006741657,-123.26708778838689 59.746786360763224,-123.36747660338463 59.664959989263714,-123.46657963846094 59.58157155226949,-123.56437194495679 59.49664204237361,-123.66082890418195 59.410192840126015,-123.75592623361275 59.32224570865107,-123.84963999300508 59.23282278816878,-123.94194659042118 59.14194659042119,-124.03282278816877 59.0496399930051,-124.12224570865105 58.955926233612765,-124.21019284012601 58.86082890418196,-124.29664204237359 58.76437194495681,-124.38157155226946 58.666579638460966,-124.4649599892637 58.56747660338463,-124.54678636076322 58.46708778838689,-124.62703006741657 58.365438465815096,-124.70567090829972 58.26255422534258,-124.78268908600157 58.1584609675267,-124.85806521160771 58.05318489728844,-124.93178030958163 57.94675251731549,-125.00381582254163 57.83919062139033,-125.07415361593254 57.73052628764507,-125.14277598259105 57.620786871744585,-125.2096656472033 57.51,-125.27480577065394 57.39819356241379,-125.33817995426524 57.28539570565872,-125.39977224392538 57.17163482599202,-125.45956713410486 57.05693956210677,-125.5175495717598 56.941338787922284,-125.57370496012162 56.82486160531527,-125.62801916237159 56.707537336793564,-125.68047850519974 56.58939551811434,-125.73106978224709 56.47046589084865,-125.77978025743018 56.35077839489415,-125.82659766814734 56.23036316093791,-125.87151022836584 56.10925050287111,-125.9145066315888 55.98747091015775,-125.95557605370163 55.86505504015902,-125.99470815569698 55.742033710415576,-126.03189308627742 55.618437890889275,-126.0671214843355 55.49429869616674,-126.10038448131046 55.36964737762635,-126.13167370342066 55.24451531557097,-126.16098127377177 55.11893401132804,-126.18829981433969 54.992935079319324,-126.2136224478279 54.866550239102125,-126.23694279939888 54.73981130738413,-126.25825499827877 54.61275019001361,-126.27755367923554 54.48539887394737,-126.29483398392942 54.35778941919819,-126.31009156213614 54.22995395076388,-126.32332257284196 54.10192465053998,-126.33452368521071 53.97373374921817,-126.34369207942224 53.84541351817231,-126.35082544738233 53.716996261334344,-126.35592199330377 53.58851430706194,-126.35898043415837 53.459999999999994,-126.35999999999997 11.340000000000002,-126.35999999999999 11.211485692938059,-126.35898043415838 11.083003738665653,-126.35592199330378 10.95458648182769,-126.35082544738235 10.82626625078183,-126.34369207942225 10.698075349460016,-126.33452368521073 10.570046049236122,-126.32332257284197 10.442210580801813,-126.31009156213615 10.314601126052633,-126.29483398392944 10.187249809986394,-126.27755367923555 10.060188692615867,-126.25825499827879 9.933449760897867,-126.23694279939888 9.80706492068068,-126.21362244782792 9.681065988671957,-126.1882998143397 9.555484684429024,-126.16098127377178 9.430352622373642,-126.13167370342067 9.305701303833262,-126.10038448131047 9.18156210911072,-126.06712148433552 9.05796628958442,-126.03189308627742 8.934944959840976,-125.994708155697 8.812529089842258,-125.95557605370165 8.690749497128888,-125.91450663158881 8.569636839062087,-125.87151022836585 8.44922160510584,-125.82659766814736 8.32953410915135,-125.77978025743019 8.21060448188566,-125.7310697822471 8.092462663206431,-125.68047850519976 7.975138394684723,-125.62801916237159 7.8586612120777115,-125.57370496012163 7.743060437893232,-125.51754957175982 7.628365174007978,-125.45956713410487 7.514604294341273,-125.3997722439254 7.401806437586209,-125.33817995426526 7.290000000000002,-125.27480577065396 7.179213128255413,-125.20966564720331 7.069473712354933,-125.14277598259105 6.960809378609662,-125.07415361593256 6.85324748268451,-125.00381582254164 6.746815102711561,-124.93178030958164 6.641539032473299,-124.85806521160771 6.537445774657416,-124.78268908600157 6.434561534184905,-124.70567090829974 6.3329122116131,-124.62703006741657 6.23252339661537,-124.54678636076324 6.133420361539034,-124.46495998926372 6.035628055043194,-124.38157155226948 5.9391710958180415,-124.2966420423736 5.844073766387233,-124.21019284012601 5.750360006994897,-124.12224570865105 5.658053409578799,-124.03282278816877 5.567177211831213,-123.9419465904212 5.477754291348934,-123.8496399930051 5.389807159873983,-123.75592623361275 5.30335795762639,-123.66082890418195 5.218428447730512,-123.5643719449568 5.135040010736281,-123.46657963846096 5.0532136392367715,-123.36747660338463 4.972969932583426,-123.26708778838689 4.8943290917002615,-123.1654384658151 4.817310913998428,-123.06255422534258 4.7419347883922836,-122.95846096752669 4.668219690418358,-122.85318489728843 4.596184177458356,-122.74675251731549 4.525846384067436,-122.63919062139034 4.4572240174089375,-122.53052628764506 4.390334352796688,-122.42078687174458 4.3251942293460495,-122.30999999999999 4.261820045734745,-122.19819356241379 4.200227756074589,-122.08539570565873 4.140432865895123,-121.97163482599203 4.082450428240182,-121.85693956210676 4.026295039878371,-121.74133878792229 3.9719808376284034,-121.62486160531527 3.91952149480024,-121.50753733679356 3.8689302177528937,-121.38939551811434 3.820219742569815,-121.27046589084864 3.7734023318526386,-121.15077839489415 3.728489771634145,-121.03036316093791 3.6854933684111884,-120.9092505028711 3.6444239462983448,-120.78747091015774 3.605291844303005,-120.66505504015902 3.568106913722574,-120.54203371041557 3.532878515664472,-120.41843789088928 3.499615518689517,-120.29429869616673 3.468326296579315,-120.16964737762635 3.4390187262282055,-120.04451531557098 3.411700185660295,-119.91893401132803 3.386377552172079,-119.7929350793193 3.363057200601117,-119.66655023910212 3.341745001721209,-119.53981130738413 3.322446320764448,-119.4127501900136 3.3051660160705603,-119.28539887394736 3.2899084378638443,-119.15778941919818 3.2766774271580177,-119.02995395076387 3.2654763147892703,-118.90192465053998 3.256307920577739,-118.77373374921817 3.2491745526176383,-118.64541351817229 3.2440780066962036,-118.51699626133434 3.2410195658416145,-118.38851430706193 3.240000000000003,-118.25999999999999 3.2399999999999993,-76.14 3.241019565841611,-76.01148569293807 3.244078006696199,-75.88300373866565 3.2491745526176348,-75.7545864818277 3.256307920577735,-75.62626625078182 3.265476314789266,-75.49807534946001 3.276677427158014,-75.37004604923612 3.289908437863841,-75.24221058080181 3.3051660160705567,-75.11460112605263 3.3224463207644437,-74.9872498099864 3.3417450017212045,-74.86018869261588 3.3630572006011135,-74.73344976089787 3.3863775521720747,-74.60706492068068 3.4117001856602913,-74.48106598867196 3.439018726228202,-74.35548468442903 3.4683262965793107,-74.23035262237364 3.4996155186895126,-74.10570130383326 3.5328785156644678,-73.98156210911073 3.5681069137225694,-73.85796628958443 3.6052918443030006,-73.73494495984097 3.644423946298342,-73.61252908984225 3.685493368411185,-73.49074949712889 3.7284897716341407,-73.36963683906208 3.773402331852634,-73.24922160510584 3.8202197425698103,-73.12953410915135 3.8689302177528893,-73.01060448188565 3.9195214948002355,-72.89246266320643 3.9719808376284007,-72.77513839468472 4.0262950398783675,-72.6586612120777 4.082450428240179,-72.54306043789323 4.140432865895119,-72.42836517400798 4.200227756074584,-72.31460429434127 4.261820045734741,-72.2018064375862 4.325194229346047,-72.09 4.390334352796684,-71.97921312825541 4.457224017408932,-71.86947371235493 4.525846384067432,-71.76080937860965 4.596184177458351,-71.6532474826845 4.668219690418353,-71.54681510271156 4.741934788392279,-71.4415390324733 4.817310913998424,-71.33744577465741 4.894329091700257,-71.23456153418489 4.972969932583421,-71.1329122116131 5.053213639236769,-71.03252339661536 5.135040010736276,-70.93342036153904 5.218428447730506,-70.8356280550432 5.303357957626385,-70.73917109581804 5.389807159873978,-70.64407376638724 5.47775429134893,-70.5503600069949 5.56717721183121,-70.4580534095788 5.658053409578796,-70.36717721183122 5.7503600069948915,-70.27775429134894 5.844073766387227,-70.18980715987398 5.939171095818036,-70.10335795762639 6.035628055043189,-70.01842844773051 6.133420361539028,-69.93504001073629 6.232523396615368,-69.85321363923676 6.3329122116130945,-69.77296993258342 6.4345615341848985,-69.69432909170027 6.537445774657408,-69.61731091399842 6.641539032473293,-69.54193478839228 6.746815102711551,-69.46821969041835 6.8532474826845045,-69.39618417745835 6.960809378609659,-69.32584638406743 7.069473712354927,-69.25722401740894 7.179213128255408,-69.19033435279668 7.290000000000002,-69.12519422934604 7.401806437586202,-69.06182004573473 7.5146042943412645,-69.0002277560746 7.628365174007973,-68.94043286589512 7.74306043789323,-68.88245042824018 7.858661212077707,-68.82629503987836 7.97513839468472,-68.7719808376284 8.092462663206424,-68.71952149480025 8.210604481885657,-68.66893021775289 8.329534109151341,-68.6202197425698 8.449221605105835,-68.57340233185263 8.569636839062085,-68.52848977163414 8.690749497128882,-68.48549336841118 8.812529089842254,-68.44442394629834 8.93494495984097,-68.405291844303 9.057966289584417,-68.36810691372257 9.181562109110711,-68.33287851566448 9.305701303833256,-68.29961551868952 9.43035262237364,-68.26832629657932 9.555484684429018,-68.23901872622821 9.681065988671955,-68.21170018566029 9.807064920680673,-68.18637755217208 9.933449760897863,-68.16305720060112 10.06018869261586,-68.1417450017212 10.187249809986389,-68.12244632076444 10.314601126052631,-68.10516601607056 10.442210580801808,-68.08990843786384 10.57004604923612,-68.07667742715802 10.698075349460009,-68.06547631478927 10.826266250781826,-68.05630792057774 10.954586481827683,-68.04917455261764 11.08300373866565,-68.04407800669621 11.211485692938057,-68.04101956584161 11.339999999999996,-68.04 53.459999999999994,-68.04 " style="stroke:purple;fill:none;stroke-width:1;stroke-linecap:round;stroke-linejoin:round;" /><path d="M 0.0,-0.0 L 129.6,-0.0 L 129.6,-129.6 L 0.0,-129.6 L 0.0,-0.0" style="stroke:black;fill:none;stroke-width:1.25;stroke-linecap:round;stroke-linejoin:round;" /><path d="M 0.0,-0.0 L 129.6,-0.0" style="stroke:black;fill:none;stroke-width:1.25;stroke-linecap:round;stroke-linejoin:round;" /><path d="M 0.0,-32.4 L 129.6,-32.4" style="stroke:black;fill:none;stroke-width:1.25;stroke-linecap:round;stroke-linejoin:round;" /><path d="M 0.0,-64.8 L 129.6,-64.8" style="stroke:black;fill:none;stroke-width:1.25;stroke-linecap:round;stroke-linejoin:round;" /><path d="M 0.0,-97.19999999999999 L 129.6,-97.19999999999999" style="stroke:black;fill:none;stroke-width:1.25;stroke-linecap:round;stroke-linejoin:round;" /><path d="M 0.0,-0.0 L 0.0,-129.6" style="stroke:black;fill:none;stroke-width:1.25;stroke-linecap:round;stroke-linejoin:round;" /><path d="M 32.4,-0.0 L 32.4,-129.6" style="stroke:black;fill:none;stroke-width:1.25;stroke-linecap:round;stroke-linejoin:round;" /><path d="M 64.8,-0.0 L 64.8,-129.6" style="stroke:black;fill:none;stroke-width:1.25;stroke-linecap:round;stroke-linejoin:round;" /><path d="M 97.19999999999999,-0.0 L 97.19999999999999,-129.6" style="stroke:black;fill:none;stroke-width:1.25;stroke-linecap:round;stroke-linejoin:round;" /><path d="M 0.0,-129.6 L -22.910259710444137,-152.51025971044413" style="stroke:black;fill:none;stroke-width:1.25;stroke-linecap:round;stroke-linejoin:round;" /><text x="0.0" y="-158.18269478283307" fill="black" font-size="12" font-family="sans" text-anchor="end" transform="rotate(0 0.0 -148.58269478283307)"><tspan x="0.0" dy="9.600000000000001">AB</tspan></text><text x="-17.182694782833103" y="-140.99999999999997" fill="black" font-size="12" font-family="sans" text-anchor="end" transform="rotate(0 -17.182694782833103 -131.39999999999998)"><tspan x="-17.182694782833103" dy="9.600000000000001">CD</tspan></text><text x="16.2" y="-140.72" fill="black" font-size="10" font-family="sans" text-anchor="middle" transform="rotate(0 16.2 -132.72)"><tspan x="16.2" dy="8.0">00</tspan></text><text x="48.599999999999994" y="-140.72" fill="black" font-size="10" font-family="sans" text-anchor="middle" transform="rotate(0 48.599999999999994 -132.72)"><tspan x="48.599999999999994" dy="8.0">01</tspan></text><text x="113.39999999999999" y="-140.72" fill="black" font-size="10" font-family="sans" text-anchor="middle" transform="rotate(0 113.39999999999999 -132.72)"><tspan x="113.39999999999999" dy="8.0">10</tspan></text><text x="81.0" y="-140.72" fill="black" font-size="10" font-family="sans" text-anchor="middle" transform="rotate(0 81.0 -132.72)"><tspan x="81.0" dy="8.0">11</tspan></text><text x="-3.24" y="-118.89999999999999" fill="black" font-size="10" font-family="sans" text-anchor="end" transform="rotate(0 -3.24 -114.89999999999999)"><tspan x="-3.24" dy="8.0">00</tspan></text><text x="-3.24" y="-86.5" fill="black" font-size="10" font-family="sans" text-anchor="end" transform="rotate(0 -3.24 -82.5)"><tspan x="-3.24" dy="8.0">01</tspan></text><text x="-3.24" y="-21.7" fill="black" font-size="10" font-family="sans" text-anchor="end" transform="rotate(0 -3.24 -17.7)"><tspan x="-3.24" dy="8.0">10</tspan></text><text x="-3.24" y="-54.099999999999994" fill="black" font-size="10" font-family="sans" text-anchor="end" transform="rotate(0 -3.24 -50.099999999999994)"><tspan x="-3.24" dy="8.0">11</tspan></text><text x="16.2" y="-120.0" fill="black" font-size="12" font-family="sans" text-anchor="middle" transform="rotate(0 16.2 -115.19999999999999)"><tspan x="16.2" dy="9.600000000000001">1</tspan></text><text x="16.2" y="-87.6" fill="black" font-size="12" font-family="sans" text-anchor="middle" transform="rotate(0 16.2 -82.79999999999998)"><tspan x="16.2" dy="9.600000000000001">1</tspan></text><text x="16.2" y="-22.8" fill="black" font-size="12" font-family="sans" text-anchor="middle" transform="rotate(0 16.2 -18.0)"><tspan x="16.2" dy="9.600000000000001">0</tspan></text><text x="16.2" y="-55.199999999999996" fill="black" font-size="12" font-family="sans" text-anchor="middle" transform="rotate(0 16.2 -50.4)"><tspan x="16.2" dy="9.600000000000001">x</tspan></text><text x="48.599999999999994" y="-120.0" fill="black" font-size="12" font-family="sans" text-anchor="middle" transform="rotate(0 48.599999999999994 -115.19999999999999)"><tspan x="48.599999999999994" dy="9.600000000000001">1</tspan></text><text x="48.599999999999994" y="-87.6" fill="black" font-size="12" font-family="sans" text-anchor="middle" transform="rotate(0 48.599999999999994 -82.79999999999998)"><tspan x="48.599999999999994" dy="9.600000000000001">1</tspan></text><text x="48.599999999999994" y="-22.8" fill="black" font-size="12" font-family="sans" text-anchor="middle" transform="rotate(0 48.599999999999994 -18.0)"><tspan x="48.599999999999994" dy="9.600000000000001">0</tspan></text><text x="48.599999999999994" y="-55.199999999999996" fill="black" font-size="12" font-family="sans" text-anchor="middle" transform="rotate(0 48.599999999999994 -50.4)"><tspan x="48.599999999999994" dy="9.600000000000001">0</tspan></text><text x="113.39999999999999" y="-120.0" fill="black" font-size="12" font-family="sans" text-anchor="middle" transform="rotate(0 113.39999999999999 -115.19999999999999)"><tspan x="113.39999999999999" dy="9.600000000000001">x</tspan></text><text x="113.39999999999999" y="-87.6" fill="black" font-size="12" font-family="sans" text-anchor="middle" transform="rotate(0 113.39999999999999 -82.79999999999998)"><tspan x="113.39999999999999" dy="9.600000000000001">1</tspan></text><text x="113.39999999999999" y="-22.8" fill="black" font-size="12" font-family="sans" text-anchor="middle" transform="rotate(0 113.39999999999999 -18.0)"><tspan x="113.39999999999999" dy="9.600000000000001">1</tspan></text><text x="113.39999999999999" y="-55.199999999999996" fill="black" font-size="12" font-family="sans" text-anchor="middle" transform="rotate(0 113.39999999999999 -50.4)"><tspan x="113.39999999999999" dy="9.600000000000001">x</tspan></text><text x="81.0" y="-120.0" fill="black" font-size="12" font-family="sans" text-anchor="middle" transform="rotate(0 81.0 -115.19999999999999)"><tspan x="81.0" dy="9.600000000000001">0</tspan></text><text x="81.0" y="-87.6" fill="black" font-size="12" font-family="sans" text-anchor="middle" transform="rotate(0 81.0 -82.79999999999998)"><tspan x="81.0" dy="9.600000000000001">0</tspan></text><text x="81.0" y="-22.8" fill="black" font-size="12" font-family="sans" text-anchor="middle" transform="rotate(0 81.0 -18.0)"><tspan x="81.0" dy="9.600000000000001">x</tspan></text><text x="81.0" y="-55.199999999999996" fill="black" font-size="12" font-family="sans" text-anchor="middle" transform="rotate(0 81.0 -50.4)"><tspan x="81.0" dy="9.600000000000001">1</tspan></text></svg>