<svg xmlns="http://www.w3.org/2000/svg" xml:lang="en" height="114.06269478283309pt" width="172.89029478283308pt" viewBox="-36.160294782833105 -108.8226947828331 172.89029478283308 114.06269478283309"><polygon points="85.86,-3.240000000000003 85.98851430706193,-3.2410195658416145 86.11699626133435,-3.2440780066962036 86.24541351817231,-3.2491745526176383 86.37373374921816,-3.256307920577739 86.50192465053998,-3.2654763147892694 86.62995395076388,-3.2766774271580177 86.75778941919818,-3.2899084378638443 86.88539887394737,-3.3051660160705603 87.01275019001359,-3.322446320764448 87.13981130738414,-3.341745001721209 87.26655023910213,-3.363057200601118 87.39293507931932,-3.3863775521720783 87.51893401132803,-3.411700185660295 87.64451531557098,-3.4390187262282055 87.76964737762636,-3.468326296579315 87.89429869616674,-3.499615518689517 88.01843789088929,-3.532878515664472 88.14203371041557,-3.568106913722574 88.26505504015903,-3.605291844303004 88.38747091015775,-3.6444239462983457 88.50925050287111,-3.6854933684111884 88.63036316093792,-3.728489771634145 88.75077839489416,-3.7734023318526377 88.87046589084865,-3.820219742569815 88.98939551811434,-3.8689302177528937 89.10753733679357,-3.919521494800239 89.22486160531528,-3.9719808376284043 89.34133878792228,-4.026295039878371 89.45693956210675,-4.0824504282401834 89.57163482599202,-4.140432865895122 89.68539570565872,-4.200227756074588 89.79819356241379,-4.261820045734745 89.91,-4.32519422934605 90.02078687174458,-4.390334352796689 90.13052628764507,-4.4572240174089375 90.23919062139034,-4.525846384067436 90.3467525173155,-4.596184177458356 90.45318489728844,-4.668219690418358 90.5584609675267,-4.741934788392284 90.66255422534257,-4.817310913998429 90.7654384658151,-4.894329091700263 90.8670877883869,-4.972969932583425 90.96747660338463,-5.053213639236773 91.06657963846096,-5.13504001073628 91.16437194495681,-5.218428447730512 91.26082890418195,-5.30335795762639 91.35592623361276,-5.3898071598739845 91.4496399930051,-5.477754291348935 91.5419465904212,-5.567177211831214 91.63282278816878,-5.658053409578801 91.72224570865106,-5.750360006994896 91.810192840126,-5.844073766387233 91.89664204237361,-5.939171095818041 91.98157155226949,-6.035628055043194 92.06495998926373,-6.133420361539034 92.14678636076323,-6.232523396615371 92.22703006741656,-6.332912211613101 92.30567090829973,-6.434561534184903 92.38268908600156,-6.5374457746574155 92.4580652116077,-6.641539032473298 92.53178030958163,-6.74681510271156 92.60381582254163,-6.85324748268451 92.67415361593257,-6.960809378609662 92.74277598259106,-7.069473712354934 92.80966564720332,-7.1792131282554115 92.87480577065395,-7.2900000000000045 92.93817995426525,-7.401806437586206 92.9997722439254,-7.514604294341273 93.05956713410487,-7.628365174007978 93.11754957175981,-7.7430604378932335 93.17370496012163,-7.858661212077713 93.2280191623716,-7.975138394684723 93.28047850519977,-8.092462663206431 93.3310697822471,-8.210604481885662 93.37978025743018,-8.32953410915135 93.42659766814735,-8.44922160510584 93.47151022836586,-8.569636839062085 93.5145066315888,-8.69074949712889 93.55557605370166,-8.812529089842258 93.59470815569699,-8.934944959840976 93.63189308627742,-9.057966289584423 93.66712148433552,-9.18156210911072 93.70038448131048,-9.305701303833262 93.73167370342068,-9.430352622373642 93.76098127377179,-9.555484684429025 93.7882998143397,-9.681065988671959 93.81362244782791,-9.80706492068068 93.83694279939887,-9.933449760897867 93.85825499827878,-10.06018869261587 93.87755367923555,-10.187249809986394 93.89483398392944,-10.314601126052633 93.91009156213615,-10.442210580801813 93.92332257284198,-10.570046049236124 93.93452368521072,-10.698075349460016 93.94369207942225,-10.82626625078183 93.95082544738236,-10.954586481827691 93.95592199330379,-11.083003738665655 93.95898043415838,-11.211485692938059 93.96,-11.340000000000002 93.96,-53.459999999999994 93.95898043415838,-53.58851430706194 93.95592199330379,-53.71699626133434 93.95082544738236,-53.84541351817231 93.94369207942225,-53.97373374921817 93.93452368521072,-54.10192465053998 93.92332257284198,-54.22995395076388 93.91009156213615,-54.357789419198184 93.89483398392944,-54.48539887394737 93.87755367923555,-54.61275019001361 93.85825499827878,-54.73981130738413 93.83694279939887,-54.866550239102125 93.81362244782791,-54.992935079319324 93.7882998143397,-55.11893401132804 93.76098127377179,-55.24451531557097 93.73167370342068,-55.36964737762635 93.70038448131048,-55.49429869616674 93.66712148433552,-55.618437890889275 93.63189308627742,-55.742033710415576 93.59470815569699,-55.86505504015902 93.55557605370166,-55.98747091015775 93.5145066315888,-56.10925050287111 93.47151022836586,-56.23036316093791 93.42659766814735,-56.35077839489416 93.37978025743018,-56.47046589084865 93.3310697822471,-56.58939551811434 93.28047850519977,-56.707537336793564 93.2280191623716,-56.82486160531527 93.17370496012163,-56.941338787922284 93.11754957175981,-57.05693956210677 93.05956713410487,-57.17163482599202 92.9997722439254,-57.28539570565872 92.93817995426525,-57.398193562413795 92.87480577065395,-57.51 92.80966564720332,-57.620786871744585 92.74277598259106,-57.73052628764507 92.67415361593257,-57.83919062139033 92.60381582254163,-57.94675251731549 92.53178030958163,-58.05318489728844 92.4580652116077,-58.1584609675267 92.38268908600156,-58.26255422534258 92.30567090829973,-58.365438465815096 92.22703006741656,-58.46708778838689 92.14678636076323,-58.56747660338463 92.06495998926373,-58.666579638460966 91.98157155226949,-58.76437194495681 91.89664204237361,-58.86082890418196 91.810192840126,-58.955926233612765 91.72224570865106,-59.0496399930051 91.63282278816878,-59.14194659042119 91.5419465904212,-59.23282278816878 91.4496399930051,-59.32224570865106 91.35592623361276,-59.410192840126015 91.26082890418195,-59.49664204237361 91.1643719449568,-59.58157155226949 91.06657963846096,-59.664959989263714 90.96747660338463,-59.746786360763224 90.8670877883869,-59.82703006741657 90.7654384658151,-59.90567090829973 90.66255422534257,-59.98268908600157 90.5584609675267,-60.05806521160772 90.45318489728844,-60.13178030958164 90.3467525173155,-60.20381582254164 90.23919062139034,-60.27415361593256 90.13052628764507,-60.342775982591064 90.02078687174458,-60.409665647203305 89.91,-60.474805770653944 89.79819356241379,-60.53817995426525 89.68539570565872,-60.59977224392541 89.57163482599202,-60.659567134104876 89.45693956210675,-60.71754957175981 89.34133878792228,-60.77370496012163 89.22486160531528,-60.82801916237159 89.10753733679357,-60.880478505199754 88.98939551811434,-60.9310697822471 88.87046589084865,-60.979780257430185 88.75077839489416,-61.02659766814736 88.63036316093792,-61.07151022836585 88.50925050287111,-61.11450663158881 88.38747091015775,-61.15557605370165 88.26505504015903,-61.19470815569699 88.14203371041557,-61.231893086277424 88.01843789088929,-61.26712148433552 87.89429869616674,-61.30038448131048 87.76964737762636,-61.331673703420684 87.64451531557097,-61.36098127377179 87.51893401132803,-61.3882998143397 87.39293507931932,-61.41362244782792 87.26655023910213,-61.43694279939888 87.13981130738414,-61.45825499827879 87.01275019001359,-61.47755367923555 86.88539887394737,-61.49483398392944 86.75778941919818,-61.51009156213615 86.62995395076388,-61.523322572841984 86.50192465053998,-61.53452368521073 86.37373374921816,-61.543692079422264 86.2454135181723,-61.55082544738236 86.11699626133435,-61.5559219933038 85.98851430706193,-61.558980434158386 85.86,-61.559999999999995 76.14,-61.559999999999995 76.01148569293807,-61.558980434158386 75.88300373866565,-61.5559219933038 75.75458648182769,-61.55082544738236 75.62626625078182,-61.543692079422264 75.49807534946001,-61.53452368521073 75.37004604923612,-61.523322572841984 75.24221058080181,-61.51009156213615 75.11460112605263,-61.49483398392944 74.9872498099864,-61.47755367923555 74.86018869261586,-61.45825499827878 74.73344976089787,-61.43694279939888 74.60706492068068,-61.41362244782792 74.48106598867196,-61.3882998143397 74.35548468442903,-61.36098127377179 74.23035262237364,-61.331673703420684 74.10570130383326,-61.30038448131048 73.98156210911073,-61.26712148433552 73.85796628958443,-61.231893086277424 73.73494495984097,-61.19470815569699 73.61252908984225,-61.15557605370165 73.49074949712889,-61.11450663158881 73.36963683906208,-61.07151022836586 73.24922160510584,-61.02659766814736 73.12953410915135,-60.979780257430185 73.01060448188565,-60.9310697822471 72.89246266320643,-60.880478505199754 72.77513839468472,-60.82801916237159 72.6586612120777,-60.77370496012163 72.54306043789323,-60.71754957175981 72.42836517400798,-60.659567134104876 72.31460429434127,-60.59977224392541 72.2018064375862,-60.53817995426525 72.09,-60.474805770653944 71.97921312825541,-60.409665647203305 71.86947371235493,-60.342775982591064 71.76080937860965,-60.27415361593256 71.6532474826845,-60.20381582254164 71.54681510271156,-60.13178030958164 71.4415390324733,-60.05806521160772 71.33744577465741,-59.98268908600157 71.23456153418489,-59.90567090829973 71.1329122116131,-59.82703006741657 71.03252339661536,-59.746786360763224 70.93342036153904,-59.664959989263714 70.8356280550432,-59.58157155226949 70.73917109581804,-59.49664204237361 70.64407376638724,-59.410192840126015 70.5503600069949,-59.32224570865107 70.4580534095788,-59.23282278816878 70.36717721183122,-59.14194659042119 70.27775429134894,-59.0496399930051 70.18980715987398,-58.955926233612765 70.10335795762639,-58.86082890418196 70.01842844773051,-58.76437194495681 69.93504001073629,-58.666579638460966 69.85321363923676,-58.56747660338463 69.77296993258342,-58.46708778838689 69.69432909170027,-58.365438465815096 69.61731091399842,-58.26255422534258 69.54193478839228,-58.1584609675267 69.46821969041835,-58.05318489728844 69.39618417745835,-57.94675251731549 69.32584638406743,-57.83919062139034 69.25722401740894,-57.73052628764507 69.19033435279668,-57.620786871744585 69.12519422934604,-57.51 69.06182004573473,-57.398193562413795 69.0002277560746,-57.28539570565872 68.94043286589512,-57.17163482599202 68.88245042824018,-57.05693956210676 68.82629503987836,-56.941338787922284 68.7719808376284,-56.82486160531527 68.71952149480025,-56.707537336793564 68.66893021775289,-56.58939551811434 68.6202197425698,-56.47046589084865 68.57340233185263,-56.35077839489416 68.52848977163414,-56.23036316093792 68.48549336841118,-56.10925050287111 68.44442394629834,-55.98747091015773 68.405291844303,-55.86505504015902 68.36810691372257,-55.742033710415576 68.33287851566448,-55.618437890889275 68.29961551868952,-55.49429869616674 68.26832629657932,-55.36964737762635 68.23901872622821,-55.24451531557097 68.21170018566029,-55.11893401132804 68.18637755217208,-54.992935079319324 68.16305720060112,-54.866550239102125 68.1417450017212,-54.73981130738413 68.12244632076444,-54.61275019001361 68.10516601607056,-54.48539887394737 68.08990843786384,-54.35778941919819 68.07667742715802,-54.22995395076387 68.06547631478927,-54.10192465053998 68.05630792057774,-53.97373374921817 68.04917455261764,-53.84541351817231 68.04407800669621,-53.71699626133434 68.04101956584161,-53.58851430706194 68.04,-53.459999999999994 68.04,-11.34 68.04101956584161,-11.211485692938055 68.0440780066962,-11.083003738665653 68.04917455261764,-10.954586481827688 68.05630792057774,-10.826266250781824 68.06547631478927,-10.698075349460012 68.07667742715802,-10.570046049236119 68.08990843786384,-10.442210580801811 68.10516601607056,-10.314601126052631 68.12244632076444,-10.187249809986392 68.1417450017212,-10.060188692615865 68.16305720060112,-9.933449760897865 68.18637755217208,-9.807064920680677 68.21170018566029,-9.681065988671953 68.23901872622821,-9.55548468442902 68.26832629657932,-9.430352622373638 68.29961551868952,-9.305701303833258 68.33287851566448,-9.181562109110716 68.36810691372257,-9.057966289584419 68.405291844303,-8.934944959840971 68.44442394629834,-8.812529089842254 68.48549336841118,-8.690749497128884 68.52848977163414,-8.569636839062083 68.57340233185263,-8.449221605105837 68.6202197425698,-8.329534109151346 68.66893021775289,-8.21060448188566 68.71952149480023,-8.092462663206426 68.7719808376284,-7.975138394684718 68.82629503987836,-7.858661212077709 68.88245042824018,-7.743060437893229 68.94043286589512,-7.628365174007976 69.0002277560746,-7.51460429434127 69.06182004573473,-7.401806437586204 69.12519422934604,-7.289999999999998 69.19033435279668,-7.17921312825541 69.25722401740894,-7.069473712354929 69.32584638406743,-6.9608093786096585 69.39618417745835,-6.853247482684506 69.46821969041835,-6.746815102711557 69.54193478839228,-6.641539032473295 69.61731091399842,-6.537445774657413 69.69432909170025,-6.434561534184901 69.77296993258342,-6.332912211613096 69.85321363923676,-6.232523396615367 69.93504001073627,-6.133420361539031 70.01842844773051,-6.03562805504319 70.10335795762639,-5.939171095818038 70.18980715987398,-5.844073766387229 70.27775429134894,-5.750360006994893 70.36717721183122,-5.6580534095787955 70.4580534095788,-5.56717721183121 70.5503600069949,-5.477754291348932 70.64407376638724,-5.389807159873981 70.73917109581804,-5.303357957626387 70.83562805504319,-5.218428447730508 70.93342036153904,-5.135040010736278 71.03252339661536,-5.053213639236769 71.1329122116131,-4.972969932583423 71.23456153418489,-4.894329091700259 71.3374457746574,-4.817310913998427 71.4415390324733,-4.741934788392281 71.54681510271155,-4.668219690418357 71.6532474826845,-4.596184177458352 71.76080937860965,-4.525846384067432 71.86947371235493,-4.457224017408934 71.97921312825541,-4.3903343527966845 72.09,-4.325194229346045 72.2018064375862,-4.261820045734742 72.31460429434127,-4.200227756074587 72.42836517400796,-4.14043286589512 72.54306043789323,-4.082450428240178 72.6586612120777,-4.026295039878368 72.77513839468472,-3.9719808376284 72.89246266320643,-3.9195214948002364 73.01060448188565,-3.86893021775289 73.12953410915135,-3.820219742569812 73.24922160510584,-3.773402331852635 73.36963683906208,-3.7284897716341407 73.49074949712889,-3.6854933684111857 73.61252908984225,-3.644423946298341 73.73494495984097,-3.6052918443030015 73.85796628958443,-3.5681069137225703 73.98156210911071,-3.5328785156644695 74.10570130383326,-3.4996155186895135 74.23035262237364,-3.4683262965793107 74.35548468442902,-3.439018726228203 74.48106598867196,-3.4117001856602913 74.60706492068068,-3.3863775521720756 74.73344976089787,-3.3630572006011143 74.86018869261586,-3.3417450017212054 74.9872498099864,-3.3224463207644446 75.11460112605263,-3.3051660160705567 75.24221058080181,-3.289908437863841 75.37004604923612,-3.276677427158014 75.49807534946001,-3.2654763147892667 75.62626625078182,-3.256307920577735 75.75458648182769,-3.2491745526176348 75.88300373866565,-3.2440780066962 76.01148569293807,-3.241019565841611 76.14,-3.2399999999999993 85.86,-3.240000000000003 " style="stroke:red;fill:none;stroke-width:1;stroke-linecap:round;stroke-linejoin:round;" /><polygon points="21.059999999999995,-3.2399999999999993 21.18851430706194,-3.241019565841611 21.316996261334346,-3.244078006696199 21.44541351817231,-3.2491745526176348 21.573733749218167,-3.256307920577735 21.701924650539986,-3.265476314789266 21.829953950763876,-3.276677427158014 21.957789419198185,-3.28990843786384 22.085398873947366,-3.3051660160705567 22.212750190013608,-3.3224463207644437 22.33981130738413,-3.3417450017212045 22.466550239102133,-3.3630572006011135 22.59293507931932,-3.3863775521720747 22.71893401132804,-3.4117001856602913 22.844515315570977,-3.439018726228201 22.96964737762636,-3.4683262965793107 23.094298696166742,-3.4996155186895126 23.218437890889284,-3.5328785156644678 23.342033710415578,-3.5681069137225694 23.465055040159026,-3.6052918443029998 23.587470910157744,-3.644423946298341 23.709250502871114,-3.685493368411184 23.830363160937914,-3.72848977163414 23.95077839489416,-3.773402331852634 24.070465890848652,-3.8202197425698103 24.189395518114342,-3.8689302177528893 24.30753733679357,-3.9195214948002346 24.42486160531528,-3.9719808376284 24.54133878792229,-4.026295039878366 24.656939562106768,-4.082450428240178 24.771634825992024,-4.140432865895118 24.885395705658727,-4.200227756074584 24.998193562413796,-4.2618200457347415 25.11,-4.325194229346046 25.220786871744593,-4.3903343527966845 25.330526287645068,-4.457224017408931 25.439190621390342,-4.525846384067432 25.546752517315493,-4.596184177458351 25.65318489728844,-4.668219690418353 25.758460967526705,-4.74193478839228 25.862554225342585,-4.8173109139984245 25.965438465815097,-4.894329091700258 26.067087788386903,-4.97296993258342 26.16747660338463,-5.053213639236769 26.266579638460968,-5.135040010736276 26.364371944956808,-5.218428447730507 26.460828904181962,-5.303357957626385 26.55592623361277,-5.389807159873979 26.649639993005106,-5.477754291348931 26.741946590421204,-5.56717721183121 26.832822788168787,-5.658053409578796 26.92224570865107,-5.7503600069948915 27.010192840126017,-5.844073766387228 27.096642042373613,-5.939171095818037 27.181571552269492,-6.0356280550431896 27.264959989263723,-6.133420361539031 27.34678636076323,-6.232523396615367 27.427030067416577,-6.332912211613097 27.50567090829974,-6.4345615341848985 27.582689086001572,-6.537445774657412 27.658065211607717,-6.641539032473294 27.731780309581644,-6.746815102711556 27.803815822541647,-6.853247482684506 27.87415361593257,-6.9608093786096585 27.942775982591066,-7.06947371235493 28.009665647203317,-7.179213128255408 28.074805770653953,-7.290000000000001 28.138179954265258,-7.4018064375862025 28.199772243925416,-7.51460429434127 28.25956713410488,-7.628365174007975 28.317549571759823,-7.74306043789323 28.373704960121632,-7.85866121207771 28.428019162371598,-7.97513839468472 28.480478505199766,-8.09246266320643 28.53106978224711,-8.210604481885659 28.579780257430187,-8.329534109151346 28.626597668147365,-8.449221605105839 28.671510228365857,-8.569636839062085 28.71450663158881,-8.690749497128886 28.755576053701656,-8.812529089842254 28.794708155697,-8.934944959840973 28.83189308627743,-9.057966289584419 28.86712148433553,-9.181562109110716 28.900384481310486,-9.30570130383326 28.93167370342069,-9.43035262237364 28.960981273771797,-9.555484684429022 28.988299814339708,-9.681065988671957 29.013622447827924,-9.807064920680679 29.036942799398886,-9.933449760897865 29.058254998278795,-10.060188692615865 29.077553679235557,-10.187249809986392 29.09483398392944,-10.314601126052631 29.11009156213616,-10.442210580801811 29.123322572841982,-10.570046049236122 29.13452368521073,-10.698075349460014 29.143692079422262,-10.826266250781828 29.150825447382363,-10.954586481827688 29.1559219933038,-11.083003738665653 29.158980434158387,-11.211485692938057 29.16,-11.34 29.159999999999997,-53.459999999999994 29.158980434158384,-53.58851430706194 29.155921993303796,-53.71699626133434 29.15082544738236,-53.84541351817231 29.14369207942226,-53.97373374921817 29.13452368521073,-54.10192465053998 29.123322572841982,-54.22995395076388 29.110091562136155,-54.357789419198184 29.094833983929437,-54.48539887394737 29.077553679235553,-54.61275019001361 29.05825499827879,-54.73981130738413 29.036942799398883,-54.866550239102125 29.01362244782792,-54.992935079319324 28.988299814339705,-55.11893401132804 28.960981273771793,-55.24451531557097 28.931673703420685,-55.36964737762635 28.900384481310482,-55.49429869616674 28.867121484335527,-55.618437890889275 28.831893086277425,-55.742033710415576 28.794708155696995,-55.86505504015902 28.755576053701652,-55.98747091015775 28.714506631588808,-56.10925050287111 28.671510228365854,-56.23036316093791 28.626597668147358,-56.35077839489416 28.579780257430183,-56.47046589084865 28.531069782247105,-56.58939551811434 28.48047850519976,-56.707537336793564 28.428019162371594,-56.82486160531527 28.37370496012163,-56.941338787922284 28.317549571759816,-57.05693956210677 28.259567134104874,-57.17163482599202 28.19977224392541,-57.28539570565872 28.138179954265254,-57.398193562413795 28.074805770653946,-57.51 28.00966564720331,-57.620786871744585 27.942775982591062,-57.73052628764507 27.874153615932563,-57.83919062139033 27.803815822541644,-57.94675251731549 27.731780309581644,-58.05318489728844 27.658065211607717,-58.1584609675267 27.582689086001572,-58.26255422534258 27.505670908299738,-58.365438465815096 27.427030067416577,-58.46708778838689 27.346786360763225,-58.56747660338463 27.264959989263716,-58.666579638460966 27.18157155226949,-58.76437194495681 27.096642042373613,-58.86082890418196 27.010192840126017,-58.955926233612765 26.922245708651065,-59.0496399930051 26.832822788168787,-59.14194659042119 26.741946590421197,-59.23282278816878 26.649639993005103,-59.32224570865106 26.55592623361277,-59.410192840126015 26.460828904181955,-59.49664204237361 26.364371944956805,-59.58157155226949 26.266579638460964,-59.664959989263714 26.167476603384628,-59.746786360763224 26.0670877883869,-59.82703006741657 25.965438465815094,-59.90567090829973 25.862554225342585,-59.98268908600157 25.758460967526702,-60.05806521160772 25.65318489728844,-60.13178030958164 25.54675251731549,-60.20381582254164 25.43919062139034,-60.27415361593256 25.330526287645064,-60.342775982591064 25.22078687174459,-60.409665647203305 25.109999999999996,-60.474805770653944 24.998193562413793,-60.53817995426525 24.885395705658727,-60.59977224392541 24.77163482599202,-60.659567134104876 24.656939562106764,-60.71754957175981 24.541338787922285,-60.77370496012163 24.42486160531528,-60.82801916237159 24.30753733679357,-60.880478505199754 24.18939551811434,-60.9310697822471 24.07046589084865,-60.979780257430185 23.950778394894158,-61.02659766814736 23.830363160937914,-61.07151022836585 23.70925050287111,-61.11450663158881 23.58747091015774,-61.15557605370165 23.465055040159022,-61.19470815569699 23.342033710415578,-61.231893086277424 23.218437890889277,-61.26712148433552 23.09429869616674,-61.30038448131048 22.96964737762636,-61.331673703420684 22.844515315570977,-61.36098127377179 22.71893401132804,-61.3882998143397 22.592935079319318,-61.41362244782792 22.466550239102133,-61.43694279939888 22.339811307384128,-61.45825499827879 22.212750190013608,-61.47755367923555 22.085398873947366,-61.49483398392944 21.957789419198185,-61.51009156213615 21.829953950763873,-61.523322572841984 21.701924650539983,-61.53452368521073 21.573733749218167,-61.543692079422264 21.44541351817231,-61.55082544738236 21.316996261334346,-61.5559219933038 21.18851430706194,-61.558980434158386 21.059999999999995,-61.559999999999995 11.340000000000002,-61.559999999999995 11.211485692938059,-61.558980434158386 11.083003738665653,-61.5559219933038 10.95458648182769,-61.55082544738236 10.82626625078183,-61.543692079422264 10.698075349460016,-61.53452368521073 10.570046049236122,-61.523322572841984 10.442210580801813,-61.51009156213615 10.314601126052633,-61.49483398392944 10.187249809986394,-61.47755367923555 10.060188692615867,-61.45825499827878 9.933449760897867,-61.43694279939888 9.80706492068068,-61.41362244782792 9.681065988671957,-61.3882998143397 9.555484684429024,-61.36098127377179 9.430352622373642,-61.331673703420684 9.305701303833262,-61.30038448131048 9.18156210911072,-61.26712148433552 9.05796628958442,-61.231893086277424 8.934944959840976,-61.19470815569699 8.812529089842258,-61.15557605370165 8.690749497128888,-61.11450663158881 8.569636839062087,-61.07151022836586 8.44922160510584,-61.02659766814736 8.32953410915135,-60.979780257430185 8.21060448188566,-60.9310697822471 8.092462663206431,-60.880478505199754 7.975138394684723,-60.82801916237159 7.8586612120777115,-60.77370496012163 7.743060437893232,-60.71754957175981 7.628365174007978,-60.659567134104876 7.514604294341273,-60.59977224392541 7.401806437586209,-60.53817995426525 7.290000000000002,-60.474805770653944 7.179213128255413,-60.409665647203305 7.069473712354933,-60.342775982591064 6.960809378609662,-60.27415361593256 6.85324748268451,-60.20381582254164 6.746815102711561,-60.13178030958164 6.641539032473299,-60.05806521160772 6.537445774657416,-59.98268908600157 6.434561534184905,-59.90567090829973 6.3329122116131,-59.82703006741657 6.23252339661537,-59.746786360763224 6.133420361539034,-59.664959989263714 6.035628055043194,-59.58157155226949 5.9391710958180415,-59.49664204237361 5.844073766387233,-59.410192840126015 5.750360006994897,-59.32224570865107 5.658053409578799,-59.23282278816878 5.567177211831213,-59.14194659042119 5.477754291348934,-59.0496399930051 5.389807159873983,-58.955926233612765 5.30335795762639,-58.86082890418196 5.218428447730512,-58.76437194495681 5.135040010736281,-58.666579638460966 5.0532136392367715,-58.56747660338463 4.972969932583426,-58.46708778838689 4.8943290917002615,-58.365438465815096 4.817310913998428,-58.26255422534258 4.7419347883922836,-58.1584609675267 4.668219690418358,-58.05318489728844 4.596184177458356,-57.94675251731549 4.525846384067436,-57.83919062139034 4.4572240174089375,-57.73052628764507 4.390334352796688,-57.620786871744585 4.3251942293460495,-57.51 4.261820045734745,-57.398193562413795 4.200227756074589,-57.28539570565872 4.140432865895123,-57.17163482599202 4.082450428240182,-57.05693956210676 4.026295039878371,-56.941338787922284 3.9719808376284034,-56.82486160531527 3.91952149480024,-56.707537336793564 3.8689302177528937,-56.58939551811434 3.820219742569815,-56.47046589084865 3.7734023318526386,-56.35077839489416 3.728489771634145,-56.23036316093792 3.6854933684111884,-56.10925050287111 3.6444239462983448,-55.98747091015773 3.605291844303005,-55.86505504015902 3.568106913722574,-55.742033710415576 3.532878515664472,-55.618437890889275 3.499615518689517,-55.49429869616674 3.468326296579315,-55.36964737762635 3.4390187262282055,-55.24451531557097 3.411700185660295,-55.11893401132804 3.386377552172079,-54.992935079319324 3.363057200601117,-54.866550239102125 3.341745001721209,-54.73981130738413 3.322446320764448,-54.61275019001361 3.3051660160705603,-54.48539887394737 3.2899084378638443,-54.35778941919819 3.2766774271580177,-54.22995395076387 3.2654763147892703,-54.10192465053998 3.256307920577739,-53.97373374921817 3.2491745526176383,-53.84541351817231 3.2440780066962036,-53.71699626133434 3.2410195658416145,-53.58851430706194 3.240000000000003,-53.459999999999994 3.2399999999999993,-11.34 3.241019565841611,-11.211485692938055 3.244078006696199,-11.083003738665653 3.2491745526176348,-10.954586481827688 3.256307920577735,-10.826266250781824 3.265476314789266,-10.698075349460012 3.276677427158014,-10.570046049236119 3.289908437863841,-10.442210580801811 3.3051660160705567,-10.314601126052631 3.3224463207644437,-10.187249809986392 3.3417450017212045,-10.060188692615865 3.3630572006011135,-9.933449760897865 3.3863775521720747,-9.807064920680677 3.4117001856602913,-9.681065988671953 3.439018726228202,-9.55548468442902 3.4683262965793107,-9.430352622373638 3.4996155186895126,-9.305701303833258 3.5328785156644678,-9.181562109110716 3.5681069137225694,-9.057966289584419 3.6052918443030006,-8.934944959840971 3.644423946298342,-8.812529089842254 3.685493368411185,-8.690749497128884 3.7284897716341407,-8.569636839062083 3.773402331852634,-8.449221605105837 3.8202197425698103,-8.329534109151346 3.8689302177528893,-8.21060448188566 3.9195214948002355,-8.092462663206426 3.9719808376284007,-7.975138394684718 4.0262950398783675,-7.858661212077709 4.082450428240179,-7.743060437893229 4.140432865895119,-7.628365174007976 4.200227756074584,-7.51460429434127 4.261820045734741,-7.401806437586204 4.325194229346047,-7.289999999999998 4.390334352796684,-7.17921312825541 4.457224017408932,-7.069473712354929 4.525846384067432,-6.9608093786096585 4.596184177458351,-6.853247482684506 4.668219690418353,-6.746815102711557 4.741934788392279,-6.641539032473295 4.817310913998424,-6.537445774657413 4.894329091700257,-6.434561534184901 4.972969932583421,-6.332912211613096 5.053213639236769,-6.232523396615367 5.135040010736276,-6.133420361539031 5.218428447730506,-6.03562805504319 5.303357957626385,-5.939171095818038 5.389807159873978,-5.844073766387229 5.47775429134893,-5.750360006994893 5.56717721183121,-5.6580534095787955 5.658053409578796,-5.56717721183121 5.7503600069948915,-5.477754291348932 5.844073766387227,-5.389807159873981 5.939171095818036,-5.303357957626387 6.035628055043189,-5.218428447730508 6.133420361539028,-5.135040010736278 6.232523396615368,-5.053213639236769 6.3329122116130945,-4.972969932583423 6.4345615341848985,-4.894329091700259 6.537445774657408,-4.817310913998427 6.641539032473293,-4.741934788392281 6.746815102711551,-4.668219690418357 6.8532474826845045,-4.596184177458352 6.960809378609659,-4.525846384067432 7.069473712354927,-4.457224017408934 7.179213128255408,-4.3903343527966845 7.290000000000002,-4.325194229346045 7.401806437586202,-4.261820045734742 7.5146042943412645,-4.200227756074587 7.628365174007973,-4.14043286589512 7.74306043789323,-4.082450428240178 7.858661212077707,-4.026295039878368 7.97513839468472,-3.9719808376284 8.092462663206424,-3.9195214948002364 8.210604481885657,-3.86893021775289 8.329534109151341,-3.820219742569812 8.449221605105835,-3.773402331852635 8.569636839062085,-3.7284897716341407 8.690749497128882,-3.6854933684111857 8.812529089842254,-3.644423946298341 8.93494495984097,-3.6052918443030015 9.057966289584417,-3.5681069137225703 9.181562109110711,-3.5328785156644695 9.305701303833256,-3.4996155186895135 9.43035262237364,-3.4683262965793107 9.555484684429018,-3.439018726228203 9.681065988671955,-3.4117001856602913 9.807064920680673,-3.3863775521720756 9.933449760897863,-3.3630572006011143 10.06018869261586,-3.3417450017212054 10.187249809986389,-3.3224463207644446 10.314601126052631,-3.3051660160705567 10.442210580801808,-3.289908437863841 10.57004604923612,-3.276677427158014 10.698075349460009,-3.2654763147892667 10.826266250781826,-3.256307920577735 10.954586481827683,-3.2491745526176348 11.08300373866565,-3.2440780066962 11.211485692938057,-3.241019565841611 11.339999999999996,-3.2399999999999993 21.059999999999995,-3.2399999999999993 " style="stroke:blue;fill:none;stroke-width:1;stroke-linecap:round;stroke-linejoin:round;" /><polygon points="85.86,-3.240000000000003 85.98851430706193,-3.2410195658416145 86.11699626133435,-3.2440780066962036 86.24541351817231,-3.2491745526176383 86.37373374921816,-3.256307920577739 86.50192465053998,-3.2654763147892694 86.62995395076388,-3.2766774271580177 86.75778941919818,-3.2899084378638443 86.88539887394737,-3.3051660160705603 87.01275019001359,-3.322446320764448 87.13981130738414,-3.341745001721209 87.26655023910213,-3.363057200601118 87.39293507931932,-3.3863775521720783 87.51893401132803,-3.411700185660295 87.64451531557098,-3.4390187262282055 87.76964737762636,-3.468326296579315 87.89429869616674,-3.499615518689517 88.01843789088929,-3.532878515664472 88.14203371041557,-3.568106913722574 88.26505504015903,-3.605291844303004 88.38747091015775,-3.6444239462983457 88.50925050287111,-3.6854933684111884 88.63036316093792,-3.728489771634145 88.75077839489416,-3.7734023318526377 88.87046589084865,-3.820219742569815 88.98939551811434,-3.8689302177528937 89.10753733679357,-3.919521494800239 89.22486160531528,-3.9719808376284043 89.34133878792228,-4.026295039878371 89.45693956210675,-4.0824504282401834 89.57163482599202,-4.140432865895122 89.68539570565872,-4.200227756074588 89.79819356241379,-4.261820045734745 89.91,-4.32519422934605 90.02078687174458,-4.390334352796689 90.13052628764507,-4.4572240174089375 90.23919062139034,-4.525846384067436 90.3467525173155,-4.596184177458356 90.45318489728844,-4.668219690418358 90.5584609675267,-4.741934788392284 90.66255422534257,-4.817310913998429 90.7654384658151,-4.894329091700263 90.8670877883869,-4.972969932583425 90.96747660338463,-5.053213639236773 91.06657963846096,-5.13504001073628 91.16437194495681,-5.218428447730512 91.26082890418195,-5.30335795762639 91.35592623361276,-5.3898071598739845 91.4496399930051,-5.477754291348935 91.5419465904212,-5.567177211831214 91.63282278816878,-5.658053409578801 91.72224570865106,-5.750360006994896 91.810192840126,-5.844073766387233 91.89664204237361,-5.939171095818041 91.98157155226949,-6.035628055043194 92.06495998926373,-6.133420361539034 92.14678636076323,-6.232523396615371 92.22703006741656,-6.332912211613101 92.30567090829973,-6.434561534184903 92.38268908600156,-6.5374457746574155 92.4580652116077,-6.641539032473298 92.53178030958163,-6.74681510271156 92.60381582254163,-6.85324748268451 92.67415361593257,-6.960809378609662 92.74277598259106,-7.069473712354934 92.80966564720332,-7.1792131282554115 92.87480577065395,-7.2900000000000045 92.93817995426525,-7.401806437586206 92.9997722439254,-7.514604294341273 93.05956713410487,-7.628365174007978 93.11754957175981,-7.7430604378932335 93.17370496012163,-7.858661212077713 93.2280191623716,-7.975138394684723 93.28047850519977,-8.092462663206431 93.3310697822471,-8.210604481885662 93.37978025743018,-8.32953410915135 93.42659766814735,-8.44922160510584 93.47151022836586,-8.569636839062085 93.5145066315888,-8.69074949712889 93.55557605370166,-8.812529089842258 93.59470815569699,-8.934944959840976 93.63189308627742,-9.057966289584423 93.66712148433552,-9.18156210911072 93.70038448131048,-9.305701303833262 93.73167370342068,-9.430352622373642 93.76098127377179,-9.555484684429025 93.7882998143397,-9.681065988671959 93.81362244782791,-9.80706492068068 93.83694279939887,-9.933449760897867 93.85825499827878,-10.06018869261587 93.87755367923555,-10.187249809986394 93.89483398392944,-10.314601126052633 93.91009156213615,-10.442210580801813 93.92332257284198,-10.570046049236124 93.93452368521072,-10.698075349460016 93.94369207942225,-10.82626625078183 93.95082544738236,-10.954586481827691 93.95592199330379,-11.083003738665655 93.95898043415838,-11.211485692938059 93.96,-11.340000000000002 93.96,-21.059999999999995 93.95898043415838,-21.18851430706194 93.95592199330379,-21.316996261334346 93.95082544738236,-21.44541351817231 93.94369207942225,-21.573733749218167 93.93452368521072,-21.701924650539983 93.92332257284198,-21.829953950763873 93.91009156213615,-21.957789419198185 93.89483398392944,-22.085398873947366 93.87755367923555,-22.212750190013608 93.85825499827878,-22.339811307384128 93.83694279939887,-22.466550239102133 93.81362244782791,-22.592935079319318 93.7882998143397,-22.71893401132804 93.76098127377179,-22.844515315570977 93.73167370342068,-22.96964737762636 93.70038448131048,-23.09429869616674 93.66712148433552,-23.218437890889277 93.63189308627742,-23.342033710415578 93.59470815569699,-23.465055040159022 93.55557605370166,-23.58747091015774 93.5145066315888,-23.709250502871114 93.47151022836586,-23.830363160937914 93.42659766814735,-23.950778394894158 93.37978025743018,-24.07046589084865 93.3310697822471,-24.18939551811434 93.28047850519977,-24.30753733679357 93.2280191623716,-24.42486160531528 93.17370496012163,-24.541338787922285 93.11754957175981,-24.656939562106764 93.05956713410487,-24.77163482599202 92.9997722439254,-24.885395705658727 92.93817995426525,-24.998193562413793 92.87480577065395,-25.109999999999996 92.80966564720332,-25.220786871744586 92.74277598259106,-25.330526287645064 92.67415361593257,-25.43919062139034 92.60381582254163,-25.54675251731549 92.53178030958163,-25.653184897288437 92.4580652116077,-25.758460967526702 92.38268908600156,-25.862554225342585 92.30567090829973,-25.965438465815094 92.22703006741656,-26.067087788386896 92.14678636076323,-26.167476603384628 92.06495998926373,-26.266579638460964 91.98157155226949,-26.364371944956805 91.89664204237361,-26.460828904181955 91.810192840126,-26.55592623361277 91.72224570865106,-26.649639993005103 91.63282278816878,-26.741946590421197 91.5419465904212,-26.832822788168787 91.4496399930051,-26.922245708651065 91.35592623361276,-27.010192840126017 91.26082890418195,-27.09664204237361 91.1643719449568,-27.18157155226949 91.06657963846096,-27.264959989263716 90.96747660338463,-27.346786360763225 90.8670877883869,-27.427030067416574 90.7654384658151,-27.505670908299738 90.66255422534257,-27.58268908600157 90.5584609675267,-27.658065211607717 90.45318489728844,-27.73178030958164 90.3467525173155,-27.803815822541644 90.23919062139034,-27.874153615932563 90.13052628764507,-27.942775982591062 90.02078687174458,-28.00966564720331 89.91,-28.07480577065395 89.79819356241379,-28.138179954265254 89.68539570565872,-28.19977224392541 89.57163482599202,-28.259567134104874 89.45693956210675,-28.317549571759816 89.34133878792228,-28.37370496012163 89.22486160531528,-28.428019162371594 89.10753733679357,-28.48047850519976 88.98939551811434,-28.531069782247105 88.87046589084865,-28.579780257430183 88.75077839489416,-28.626597668147358 88.63036316093792,-28.671510228365854 88.50925050287111,-28.71450663158881 88.38747091015775,-28.755576053701652 88.26505504015903,-28.794708155696995 88.14203371041557,-28.831893086277425 88.01843789088929,-28.867121484335527 87.89429869616674,-28.900384481310482 87.76964737762636,-28.931673703420685 87.64451531557097,-28.960981273771793 87.51893401132803,-28.988299814339705 87.39293507931932,-29.01362244782792 87.26655023910213,-29.036942799398883 87.13981130738414,-29.05825499827879 87.01275019001359,-29.077553679235553 86.88539887394737,-29.094833983929437 86.75778941919818,-29.110091562136155 86.62995395076388,-29.123322572841982 86.50192465053998,-29.13452368521073 86.37373374921816,-29.14369207942226 86.2454135181723,-29.15082544738236 86.11699626133435,-29.155921993303796 85.98851430706193,-29.158980434158384 85.86,-29.159999999999997 43.74,-29.159999999999997 43.611485692938054,-29.158980434158384 43.48300373866566,-29.155921993303796 43.35458648182769,-29.15082544738236 43.226266250781826,-29.14369207942226 43.09807534946002,-29.13452368521073 42.97004604923612,-29.123322572841982 42.84221058080181,-29.110091562136155 42.714601126052635,-29.094833983929437 42.58724980998639,-29.077553679235553 42.460188692615866,-29.05825499827879 42.33344976089787,-29.036942799398883 42.20706492068068,-29.01362244782792 42.08106598867196,-28.988299814339705 41.955484684429024,-28.960981273771793 41.830352622373645,-28.931673703420685 41.70570130383326,-28.900384481310482 41.58156210911072,-28.867121484335527 41.45796628958442,-28.831893086277425 41.334944959840975,-28.794708155696995 41.21252908984225,-28.755576053701652 41.09074949712888,-28.714506631588808 40.96963683906208,-28.671510228365854 40.849221605105846,-28.626597668147358 40.729534109151345,-28.579780257430183 40.61060448188566,-28.531069782247105 40.49246266320643,-28.48047850519976 40.375138394684726,-28.428019162371594 40.25866121207771,-28.37370496012163 40.143060437893226,-28.317549571759816 40.02836517400797,-28.259567134104874 39.914604294341274,-28.19977224392541 39.80180643758621,-28.138179954265254 39.69,-28.074805770653946 39.57921312825541,-28.009665647203313 39.469473712354926,-27.942775982591062 39.360809378609666,-27.874153615932563 39.25324748268451,-27.803815822541644 39.146815102711564,-27.731780309581644 39.041539032473295,-27.658065211607717 38.93744577465741,-27.582689086001572 38.83456153418491,-27.505670908299738 38.732912211613105,-27.427030067416574 38.63252339661537,-27.346786360763225 38.53342036153903,-27.264959989263716 38.43562805504319,-27.18157155226949 38.33917109581804,-27.096642042373613 38.24407376638723,-27.010192840126017 38.150360006994894,-26.92224570865107 38.058053409578804,-26.832822788168787 37.96717721183121,-26.741946590421197 37.87775429134893,-26.649639993005103 37.78980715987398,-26.55592623361277 37.70335795762639,-26.460828904181955 37.61842844773051,-26.364371944956805 37.53504001073628,-26.266579638460968 37.45321363923677,-26.167476603384628 37.37296993258343,-26.0670877883869 37.29432909170026,-25.965438465815094 37.217310913998425,-25.862554225342585 37.14193478839228,-25.758460967526702 37.06821969041835,-25.65318489728844 36.99618417745835,-25.54675251731549 36.925846384067434,-25.43919062139034 36.85722401740893,-25.330526287645068 36.79033435279669,-25.220786871744586 36.72519422934605,-25.109999999999996 36.66182004573474,-24.998193562413793 36.60022775607459,-24.885395705658727 36.54043286589512,-24.77163482599202 36.482450428240185,-24.656939562106764 36.42629503987837,-24.54133878792229 36.371980837628406,-24.424861605315275 36.31952149480024,-24.30753733679357 36.268930217752896,-24.18939551811434 36.22021974256981,-24.07046589084865 36.173402331852635,-23.950778394894158 36.12848977163414,-23.830363160937914 36.085493368411186,-23.709250502871114 36.044423946298345,-23.58747091015774 36.005291844303,-23.465055040159026 35.96810691372257,-23.342033710415578 35.93287851566448,-23.218437890889277 35.899615518689515,-23.09429869616674 35.86832629657931,-22.96964737762636 35.839018726228204,-22.844515315570977 35.81170018566029,-22.718934011328038 35.786377552172084,-22.59293507931932 35.76305720060112,-22.46655023910213 35.74174500172121,-22.339811307384128 35.72244632076445,-22.212750190013608 35.70516601607056,-22.085398873947366 35.68990843786385,-21.957789419198185 35.67667742715801,-21.829953950763873 35.66547631478927,-21.701924650539986 35.65630792057773,-21.573733749218167 35.64917455261764,-21.44541351817231 35.6440780066962,-21.316996261334346 35.64101956584161,-21.188514307061943 35.64,-21.059999999999995 35.64,-11.339999999999998 35.64101956584161,-11.211485692938053 35.6440780066962,-11.083003738665651 35.64917455261764,-10.954586481827686 35.65630792057773,-10.826266250781822 35.66547631478927,-10.698075349460009 35.67667742715801,-10.570046049236117 35.68990843786385,-10.44221058080181 35.70516601607056,-10.31460112605263 35.72244632076445,-10.187249809986389 35.741745001721206,-10.060188692615863 35.76305720060112,-9.933449760897863 35.78637755217208,-9.807064920680675 35.81170018566029,-9.681065988671952 35.839018726228204,-9.555484684429018 35.86832629657931,-9.430352622373636 35.899615518689515,-9.305701303833256 35.93287851566448,-9.181562109110715 35.96810691372257,-9.057966289584417 36.005291844303,-8.93494495984097 36.044423946298345,-8.81252908984225 36.085493368411186,-8.690749497128882 36.128489771634136,-8.569636839062081 36.173402331852635,-8.449221605105835 36.22021974256981,-8.329534109151345 36.268930217752896,-8.210604481885657 36.31952149480024,-8.092462663206424 36.371980837628406,-7.975138394684716 36.42629503987837,-7.858661212077707 36.482450428240185,-7.743060437893227 36.54043286589512,-7.628365174007974 36.60022775607459,-7.514604294341268 36.66182004573474,-7.4018064375862025 36.72519422934605,-7.2899999999999965 36.79033435279669,-7.179213128255408 36.85722401740893,-7.069473712354927 36.925846384067434,-6.960809378609657 36.99618417745835,-6.8532474826845045 37.06821969041835,-6.7468151027115555 37.14193478839228,-6.641539032473293 37.217310913998425,-6.537445774657411 37.29432909170026,-6.434561534184899 37.37296993258342,-6.3329122116130945 37.45321363923677,-6.232523396615365 37.53504001073628,-6.133420361539029 37.61842844773051,-6.035628055043189 37.70335795762639,-5.939171095818036 37.78980715987398,-5.844073766387227 37.87775429134893,-5.7503600069948915 37.96717721183121,-5.658053409578794 38.058053409578804,-5.567177211831209 38.150360006994894,-5.47775429134893 38.24407376638723,-5.389807159873979 38.33917109581804,-5.303357957626385 38.43562805504319,-5.218428447730506 38.53342036153903,-5.135040010736276 38.63252339661537,-5.053213639236767 38.73291221161309,-4.972969932583421 38.8345615341849,-4.894329091700257 38.93744577465741,-4.817310913998425 39.041539032473295,-4.741934788392279 39.14681510271156,-4.668219690418355 39.25324748268451,-4.596184177458349 39.360809378609666,-4.52584638406743 39.469473712354926,-4.457224017408932 39.57921312825541,-4.390334352796683 39.69,-4.325194229346043 39.8018064375862,-4.261820045734741 39.91460429434127,-4.200227756074585 40.02836517400797,-4.140432865895118 40.14306043789323,-4.0824504282401755 40.25866121207771,-4.026295039878367 40.375138394684726,-3.971980837628398 40.49246266320643,-3.9195214948002346 40.61060448188566,-3.8689302177528884 40.729534109151345,-3.8202197425698103 40.84922160510584,-3.7734023318526333 40.96963683906208,-3.728489771634139 41.09074949712888,-3.685493368411184 41.21252908984225,-3.6444239462983394 41.334944959840975,-3.6052918443029998 41.45796628958442,-3.5681069137225685 41.58156210911071,-3.5328785156644678 41.70570130383326,-3.4996155186895117 41.830352622373645,-3.468326296579309 41.955484684429024,-3.439018726228201 42.08106598867196,-3.4117001856602895 42.20706492068067,-3.386377552172074 42.33344976089787,-3.3630572006011126 42.46018869261586,-3.3417450017212036 42.58724980998639,-3.322446320764443 42.714601126052635,-3.305166016070555 42.842210580801805,-3.289908437863839 42.97004604923612,-3.2766774271580124 43.09807534946002,-3.265476314789265 43.226266250781826,-3.256307920577733 43.35458648182768,-3.249174552617633 43.48300373866566,-3.2440780066961983 43.61148569293806,-3.241019565841609 43.74,-3.2399999999999975 85.86,-3.240000000000003 " style="stroke:purple;fill:none;stroke-width:1;stroke-linecap:round;stroke-linejoin:round;" /><path d="M 0.0,-0.0 L 129.6,-0.0 L 129.6,-64.8 L 0.0,-64.8 L 0.0,-0.0" style="stroke:black;fill:none;stroke-width:1.25;stroke-linecap:round;stroke-linejoin:round;" /><path d="M 0.0,-0.0 L 129.6,-0.0" style="stroke:black;fill:none;stroke-width:1.25;stroke-linecap:round;stroke-linejoin:round;" /><path d="M 0.0,-32.4 L 129.6,-32.4" style="stroke:black;fill:none;stroke-width:1.25;stroke-linecap:round;stroke-linejoin:round;" /><path d="M 0.0,-0.0 L 0.0,-64.8" style="stroke:black;fill:none;stroke-width:1.25;stroke-linecap:round;stroke-linejoin:round;" /><path d="M 32.4,-0.0 L 32.4,-64.8" style="stroke:black;fill:none;stroke-width:1.25;stroke-linecap:round;stroke-linejoin:round;" /><path d="M 64.8,-0.0 L 64.8,-64.8" style="stroke:black;fill:none;stroke-width:1.25;stroke-linecap:round;stroke-linejoin:round;" /><path d="M 97.19999999999999,-0.0 L 97.19999999999999,-64.8" style="stroke:black;fill:none;stroke-width:1.25;stroke-linecap:round;stroke-linejoin:round;" /><path d="M 0.0,-64.8 L -22.910259710444137,-87.71025971044413" style="stroke:black;fill:none;stroke-width:1.25;stroke-linecap:round;stroke-linejoin:round;" /><text x="0.0" y="-93.38269478283308" fill="black" font-size="12" font-family="sans" text-anchor="end" transform="rotate(0 0.0 -83.78269478283309)"><tspan x="0.0" dy="9.600000000000001">AB</tspan></text><text x="-17.182694782833103" y="-76.19999999999999" fill="black" font-size="12" font-family="sans" text-anchor="end" transform="rotate(0 -17.182694782833103 -66.6)"><tspan x="-17.182694782833103" dy="9.600000000000001">C</tspan></text><text x="16.2" y="-75.91999999999999" fill="black" font-size="10" font-family="sans" text-anchor="middle" transform="rotate(0 16.2 -67.91999999999999)"><tspan x="16.2" dy="8.0">00</tspan></text><text x="48.599999999999994" y="-75.91999999999999" fill="black" font-size="10" font-family="sans" text-anchor="middle" transform="rotate(0 48.599999999999994 -67.91999999999999)"><tspan x="48.599999999999994" dy="8.0">01</tspan></text><text x="113.39999999999999" y="-75.91999999999999" fill="black" font-size="10" font-family="sans" text-anchor="middle" transform="rotate(0 113.39999999999999 -67.91999999999999)"><tspan x="113.39999999999999" dy="8.0">10</tspan></text><text x="81.0" y="-75.91999999999999" fill="black" font-size="10" font-family="sans" text-anchor="middle" transform="rotate(0 81.0 -67.91999999999999)"><tspan x="81.0" dy="8.0">11</tspan></text><text x="-3.24" y="-54.099999999999994" fill="black" font-size="10" font-family="sans" text-anchor="end" transform="rotate(0 -3.24 -50.099999999999994)"><tspan x="-3.24" dy="8.0">0</tspan></text><text x="-3.24" y="-21.7" fill="black" font-size="10" font-family="sans" text-anchor="end" transform="rotate(0 -3.24 -17.7)"><tspan x="-3.24" dy="8.0">1</tspan></text><text x="16.2" y="-55.199999999999996" fill="black" font-size="12" font-family="sans" text-anchor="middle" transform="rotate(0 16.2 -50.4)"><tspan x="16.2" dy="9.600000000000001">1</tspan></text><text x="16.2" y="-22.8" fill="black" font-size="12" font-family="sans" text-anchor="middle" transform="rotate(0 16.2 -18.0)"><tspan x="16.2" dy="9.600000000000001">1</tspan></text><text x="48.599999999999994" y="-55.199999999999996" fill="black" font-size="12" font-family="sans" text-anchor="middle" transform="rotate(0 48.599999999999994 -50.4)"><tspan x="48.599999999999994" dy="9.600000000000001">0</tspan></text><text x="48.599999999999994" y="-22.8" fill="black" font-size="12" font-family="sans" text-anchor="middle" transform="rotate(0 48.599999999999994 -18.0)"><tspan x="48.599999999999994" dy="9.600000000000001">1</tspan></text><text x="113.39999999999999" y="-55.199999999999996" fill="black" font-size="12" font-family="sans" text-anchor="middle" transform="rotate(0 113.39999999999999 -50.4)"><tspan x="113.39999999999999" dy="9.600000000000001">0</tspan></text><text x="113.39999999999999" y="-22.8" fill="black" font-size="12" font-family="sans" text-anchor="middle" transform="rotate(0 113.39999999999999 -18.0)"><tspan x="113.39999999999999" dy="9.600000000000001">0</tspan></text><text x="81.0" y="-55.199999999999996" fill="black" font-size="12" font-family="sans" text-anchor="middle" transform="rotate(0 81.0 -50.4)"><tspan x="81.0" dy="9.600000000000001">1</tspan></text><text x="81.0" y="-22.8" fill="black" font-size="12" font-family="sans" text-anchor="middle" transform="rotate(0 81.0 -18.0)"><tspan x="81.0" dy="9.600000000000001">1</tspan></text></svg>