<?xml version="1.0" encoding="utf-8" standalone="no"?>
<!DOCTYPE svg PUBLIC "-//W3C//DTD SVG 1.1//EN"
  "http://www.w3.org/Graphics/SVG/1.1/DTD/svg11.dtd">
<svg xmlns:xlink="http://www.w3.org/1999/xlink" width="244.5936pt" height="113.425pt" viewBox="0 0 244.5936 113.425" xmlns="http://www.w3.org/2000/svg" version="1.1">
 <metadata>
  <rdf:RDF xmlns:dc="http://purl.org/dc/elements/1.1/" xmlns:cc="http://creativecommons.org/ns#" xmlns:rdf="http://www.w3.org/1999/02/22-rdf-syntax-ns#">
   <cc:Work>
    <dc:type rdf:resource="http://purl.org/dc/dcmitype/StillImage"/>
    <dc:date>2022-01-20T11:38:30.400296</dc:date>
    <dc:format>image/svg+xml</dc:format>
    <dc:creator>
     <cc:Agent>
      <dc:title>Matplotlib v3.5.1, https://matplotlib.org/</dc:title>
     </cc:Agent>
    </dc:creator>
   </cc:Work>
  </rdf:RDF>
 </metadata>
 <defs>
  <style type="text/css">*{stroke-linejoin: round; stroke-linecap: butt}</style>
 </defs>
 <g id="figure_1">
  <g id="patch_1">
   <path d="M 0 113.425 
L 244.5936 113.425 
L 244.5936 0 
L 0 0 
L 0 113.425 
z
" style="fill: none"/>
  </g>
  <g id="axes_1">
   <g id="patch_2">
    <path d="M 67.9818 30.932 
C 68.955626 30.932 69.889697 30.545095 70.578296 29.856496 
C 71.266895 29.167897 71.6538 28.233826 71.6538 27.26 
C 71.6538 26.286174 71.266895 25.352103 70.578296 24.663504 
C 69.889697 23.974905 68.955626 23.588 67.9818 23.588 
C 67.007974 23.588 66.073903 23.974905 65.385304 24.663504 
C 64.696705 25.352103 64.3098 26.286174 64.3098 27.26 
C 64.3098 28.233826 64.696705 29.167897 65.385304 29.856496 
C 66.073903 30.545095 67.007974 30.932 67.9818 30.932 
L 67.9818 30.932 
z
" clip-path="url(#p0587f3d90c)" style="fill: none; stroke: #000000; stroke-width: 2; stroke-linejoin: miter"/>
   </g>
   <g id="line2d_1">
    <path d="M 163.6068 76.679 
L 180.655371 76.579082 
L 182.403943 76.279327 
L 184.152514 75.779735 
L 185.901086 75.080306 
L 187.649657 74.181041 
L 189.835371 72.775939 
L 192.021086 71.058592 
L 194.2068 69.029 
L 196.392514 66.687163 
L 198.578229 64.033082 
L 200.3268 61.685 
L 200.3268 61.685 
L 197.703943 58.237816 
L 195.518229 55.708633 
L 193.332514 53.491694 
L 191.1468 51.587 
L 188.961086 49.994551 
L 186.775371 48.714347 
L 185.0268 47.915 
L 183.278229 47.31549 
L 181.529657 46.915816 
L 179.781086 46.71598 
L 178.9068 46.691 
L 163.6068 46.691 
L 163.6068 46.691 
L 165.81 49.139 
L 167.20536 50.975 
L 168.3804 52.811 
L 169.33512 54.647 
L 170.06952 56.483 
L 170.5836 58.319 
L 170.87736 60.155 
L 170.9508 61.991 
L 170.80392 63.827 
L 170.43672 65.663 
L 169.8492 67.499 
L 169.04136 69.335 
L 168.0132 71.171 
L 166.76472 73.007 
L 165.29592 74.843 
L 163.6068 76.679 
L 163.6068 76.679 
" clip-path="url(#p0587f3d90c)" style="fill: none; stroke: #000000; stroke-width: 2; stroke-linecap: round"/>
   </g>
   <g id="line2d_2">
    <path d="M 152.8968 69.335 
L 169.04136 69.335 
" clip-path="url(#p0587f3d90c)" style="fill: none; stroke: #000000; stroke-width: 2; stroke-linecap: round"/>
   </g>
   <g id="line2d_3">
    <path d="M 152.8968 54.035 
L 169.04136 54.035 
" clip-path="url(#p0587f3d90c)" style="fill: none; stroke: #000000; stroke-width: 2; stroke-linecap: round"/>
   </g>
   <g id="line2d_4">
    <path d="M 200.3268 61.685 
L 211.0368 61.685 
" clip-path="url(#p0587f3d90c)" style="fill: none; stroke: #000000; stroke-width: 2; stroke-linecap: round"/>
   </g>
   <g id="line2d_5">
    <path d="M 123.8268 54.035 
L 124.807074 54.003565 
L 125.783321 53.909387 
L 126.751527 53.752855 
L 127.707715 53.534611 
L 128.647956 53.255553 
L 129.568385 52.916826 
L 130.465221 52.519824 
L 131.334779 52.066176 
L 132.173484 51.557748 
L 132.977891 50.996628 
L 133.744694 50.385123 
L 134.470743 49.725745 
L 135.153053 49.021204 
L 135.788822 48.274394 
L 136.375435 47.488385 
L 136.910484 46.666406 
L 137.391769 45.811836 
L 137.817313 44.928185 
L 138.185367 44.019085 
L 138.494418 43.088272 
L 138.743197 42.13957 
L 138.930681 41.176878 
L 139.0561 40.204152 
L 139.118939 39.225389 
L 139.118939 38.244611 
L 139.0561 37.265848 
L 138.930681 36.293122 
L 138.743197 35.33043 
L 138.494418 34.381728 
L 138.185367 33.450915 
L 137.817313 32.541815 
L 137.391769 31.658164 
L 136.910484 30.803594 
L 136.375435 29.981615 
L 135.788822 29.195606 
L 135.153053 28.448796 
L 134.470743 27.744255 
L 133.744694 27.084877 
L 132.977891 26.473372 
L 132.173484 25.912252 
L 131.334779 25.403824 
L 130.465221 24.950176 
L 129.568385 24.553174 
L 128.647956 24.214447 
L 127.707715 23.935389 
L 126.751527 23.717145 
L 125.783321 23.560613 
L 124.807074 23.466435 
L 123.8268 23.435 
L 123.8268 23.435 
L 103.9368 23.435 
L 103.9368 38.735 
L 103.9368 54.035 
L 123.8268 54.035 
" clip-path="url(#p0587f3d90c)" style="fill: none; stroke: #000000; stroke-width: 2; stroke-linecap: round"/>
   </g>
   <g id="line2d_6">
    <path d="M 93.2268 46.385 
L 103.9368 46.385 
" clip-path="url(#p0587f3d90c)" style="fill: none; stroke: #000000; stroke-width: 2; stroke-linecap: round"/>
   </g>
   <g id="line2d_7">
    <path d="M 93.2268 31.085 
L 103.9368 31.085 
" clip-path="url(#p0587f3d90c)" style="fill: none; stroke: #000000; stroke-width: 2; stroke-linecap: round"/>
   </g>
   <g id="line2d_8">
    <path d="M 139.1268 38.735 
L 149.8368 38.735 
" clip-path="url(#p0587f3d90c)" style="fill: none; stroke: #000000; stroke-width: 2; stroke-linecap: round"/>
   </g>
   <g id="line2d_9">
    <path d="M 27.4368 27.26 
L 44.4198 27.26 
M 71.6538 27.26 
L 88.6368 27.26 
" clip-path="url(#p0587f3d90c)" style="fill: none; stroke: #000000; stroke-width: 2; stroke-linecap: round"/>
   </g>
   <g id="line2d_10">
    <path d="M 44.4198 11.96 
L 64.3098 27.26 
L 44.4198 42.56 
L 44.4198 11.96 
" clip-path="url(#p0587f3d90c)" style="fill: none; stroke: #000000; stroke-width: 2; stroke-linecap: round"/>
   </g>
   <g id="line2d_11">
    <path d="M 93.2268 31.085 
L 88.6368 31.085 
L 88.6368 27.26 
" clip-path="url(#p0587f3d90c)" style="fill: none; stroke: #000000; stroke-width: 2; stroke-linecap: round"/>
   </g>
   <g id="line2d_12">
    <path d="M 152.8968 54.035 
L 149.8368 54.035 
L 149.8368 38.735 
" clip-path="url(#p0587f3d90c)" style="fill: none; stroke: #000000; stroke-width: 2; stroke-linecap: round"/>
   </g>
   <g id="line2d_13">
    <path d="M 123.8268 99.935 
L 124.807074 99.903565 
L 125.783321 99.809387 
L 126.751527 99.652855 
L 127.707715 99.434611 
L 128.647956 99.155553 
L 129.568385 98.816826 
L 130.465221 98.419824 
L 131.334779 97.966176 
L 132.173484 97.457748 
L 132.977891 96.896628 
L 133.744694 96.285123 
L 134.470743 95.625745 
L 135.153053 94.921204 
L 135.788822 94.174394 
L 136.375435 93.388385 
L 136.910484 92.566406 
L 137.391769 91.711836 
L 137.817313 90.828185 
L 138.185367 89.919085 
L 138.494418 88.988272 
L 138.743197 88.03957 
L 138.930681 87.076878 
L 139.0561 86.104152 
L 139.118939 85.125389 
L 139.118939 84.144611 
L 139.0561 83.165848 
L 138.930681 82.193122 
L 138.743197 81.23043 
L 138.494418 80.281728 
L 138.185367 79.350915 
L 137.817313 78.441815 
L 137.391769 77.558164 
L 136.910484 76.703594 
L 136.375435 75.881615 
L 135.788822 75.095606 
L 135.153053 74.348796 
L 134.470743 73.644255 
L 133.744694 72.984877 
L 132.977891 72.373372 
L 132.173484 71.812252 
L 131.334779 71.303824 
L 130.465221 70.850176 
L 129.568385 70.453174 
L 128.647956 70.114447 
L 127.707715 69.835389 
L 126.751527 69.617145 
L 125.783321 69.460613 
L 124.807074 69.366435 
L 123.8268 69.335 
L 123.8268 69.335 
L 103.9368 69.335 
L 103.9368 84.635 
L 103.9368 99.935 
L 123.8268 99.935 
" clip-path="url(#p0587f3d90c)" style="fill: none; stroke: #000000; stroke-width: 2; stroke-linecap: round"/>
   </g>
   <g id="line2d_14">
    <path d="M 93.2268 92.285 
L 103.9368 92.285 
" clip-path="url(#p0587f3d90c)" style="fill: none; stroke: #000000; stroke-width: 2; stroke-linecap: round"/>
   </g>
   <g id="line2d_15">
    <path d="M 93.2268 76.985 
L 103.9368 76.985 
" clip-path="url(#p0587f3d90c)" style="fill: none; stroke: #000000; stroke-width: 2; stroke-linecap: round"/>
   </g>
   <g id="line2d_16">
    <path d="M 139.1268 84.635 
L 149.8368 84.635 
" clip-path="url(#p0587f3d90c)" style="fill: none; stroke: #000000; stroke-width: 2; stroke-linecap: round"/>
   </g>
   <g id="line2d_17">
    <path d="M 152.8968 69.335 
L 149.8368 69.335 
L 149.8368 84.635 
" clip-path="url(#p0587f3d90c)" style="fill: none; stroke: #000000; stroke-width: 2; stroke-linecap: round"/>
   </g>
   <g id="text_1">
    <g clip-path="url(#p0587f3d90c)">
     <!-- $Y$ -->
     <g transform="translate(214.0968 65.134219)scale(0.125 -0.125)">
      <defs>
       <path id="DejaVuSans-Oblique-59" d="M 403 4666 
L 1081 4666 
L 1953 2747 
L 3616 4666 
L 4325 4666 
L 2209 2222 
L 1778 0 
L 1147 0 
L 1575 2222 
L 403 4666 
z
" transform="scale(0.015625)"/>
      </defs>
      <use xlink:href="#DejaVuSans-Oblique-59" transform="translate(0 0.09375)"/>
     </g>
    </g>
   </g>
   <g id="text_2">
    <g clip-path="url(#p0587f3d90c)">
     <!-- I_0 -->
     <g transform="translate(72.276175 49.550039)scale(0.125 -0.125)">
      <defs>
       <path id="DejaVuSans-49" d="M 628 4666 
L 1259 4666 
L 1259 0 
L 628 0 
L 628 4666 
z
" transform="scale(0.015625)"/>
       <path id="DejaVuSans-5f" d="M 3263 -1063 
L 3263 -1509 
L -63 -1509 
L -63 -1063 
L 3263 -1063 
z
" transform="scale(0.015625)"/>
       <path id="DejaVuSans-30" d="M 2034 4250 
Q 1547 4250 1301 3770 
Q 1056 3291 1056 2328 
Q 1056 1369 1301 889 
Q 1547 409 2034 409 
Q 2525 409 2770 889 
Q 3016 1369 3016 2328 
Q 3016 3291 2770 3770 
Q 2525 4250 2034 4250 
z
M 2034 4750 
Q 2819 4750 3233 4129 
Q 3647 3509 3647 2328 
Q 3647 1150 3233 529 
Q 2819 -91 2034 -91 
Q 1250 -91 836 529 
Q 422 1150 422 2328 
Q 422 3509 836 4129 
Q 1250 4750 2034 4750 
z
" transform="scale(0.015625)"/>
      </defs>
      <use xlink:href="#DejaVuSans-49"/>
      <use xlink:href="#DejaVuSans-5f" x="29.492188"/>
      <use xlink:href="#DejaVuSans-30" x="79.492188"/>
     </g>
    </g>
   </g>
   <g id="text_3">
    <g clip-path="url(#p0587f3d90c)">
     <!-- S -->
     <g transform="translate(16.441253 30.709219)scale(0.125 -0.125)">
      <defs>
       <path id="DejaVuSans-53" d="M 3425 4513 
L 3425 3897 
Q 3066 4069 2747 4153 
Q 2428 4238 2131 4238 
Q 1616 4238 1336 4038 
Q 1056 3838 1056 3469 
Q 1056 3159 1242 3001 
Q 1428 2844 1947 2747 
L 2328 2669 
Q 3034 2534 3370 2195 
Q 3706 1856 3706 1288 
Q 3706 609 3251 259 
Q 2797 -91 1919 -91 
Q 1588 -91 1214 -16 
Q 841 59 441 206 
L 441 856 
Q 825 641 1194 531 
Q 1563 422 1919 422 
Q 2459 422 2753 634 
Q 3047 847 3047 1241 
Q 3047 1584 2836 1778 
Q 2625 1972 2144 2069 
L 1759 2144 
Q 1053 2284 737 2584 
Q 422 2884 422 3419 
Q 422 4038 858 4394 
Q 1294 4750 2059 4750 
Q 2388 4750 2728 4690 
Q 3069 4631 3425 4513 
z
" transform="scale(0.015625)"/>
      </defs>
      <use xlink:href="#DejaVuSans-53"/>
     </g>
    </g>
   </g>
   <g id="text_4">
    <g clip-path="url(#p0587f3d90c)">
     <!-- S -->
     <g transform="translate(82.231253 80.434219)scale(0.125 -0.125)">
      <use xlink:href="#DejaVuSans-53"/>
     </g>
    </g>
   </g>
   <g id="text_5">
    <g clip-path="url(#p0587f3d90c)">
     <!-- I_1 -->
     <g transform="translate(72.276175 95.386562)scale(0.125 -0.125)">
      <defs>
       <path id="DejaVuSans-31" d="M 794 531 
L 1825 531 
L 1825 4091 
L 703 3866 
L 703 4441 
L 1819 4666 
L 2450 4666 
L 2450 531 
L 3481 531 
L 3481 0 
L 794 0 
L 794 531 
z
" transform="scale(0.015625)"/>
      </defs>
      <use xlink:href="#DejaVuSans-49"/>
      <use xlink:href="#DejaVuSans-5f" x="29.492188"/>
      <use xlink:href="#DejaVuSans-31" x="79.492188"/>
     </g>
    </g>
   </g>
  </g>
 </g>
 <defs>
  <clipPath id="p0587f3d90c">
   <rect x="7.2" y="7.2" width="230.1936" height="99.025"/>
  </clipPath>
 </defs>
</svg>
