<?xml version="1.0" encoding="UTF-8" standalone="no"?>
<!-- Created with Digital by H.Neemann -->
<!-- created: Thu Jan 20 11:44:56 EST 2022 -->

<svg
   xmlns:svg="http://www.w3.org/2000/svg"
   xmlns="http://www.w3.org/2000/svg"
   width="37.65mm"
   height="23.85mm"
   viewBox="51 23 251 159">
<g stroke-linecap="square">
<path d="M 120,80 L 180,80" stroke="#0000b2" stroke-width="4.0" fill="none"/>
<path d="M 120,40 L 180,40" stroke="#0000b2" stroke-width="4.0" fill="none"/>
<path d="M 220,60 L 240,60" stroke="#0000b2" stroke-width="4.0" fill="none"/>
<path d="M 200,80 L 200,120" stroke="#0000b2" stroke-width="4.0" fill="none"/>
<g>
</g>
<g>
<circle cx="256.0" cy="60.0" r="9.0" stroke="#000000" stroke-width="4.0" fill="none" />
<circle cx="256.0" cy="60.0" r="15.0" stroke="#000000" stroke-width="4.0" fill="none" />
<text text-anchor="start" x="285.0" y="69.0" fill="#000000" style="font-size:24px"><tspan style="font-style:italic;">Y</tspan></text>
<circle cx="240.0" cy="60.0" r="2.0" stroke="#0000b2" stroke-width="4.0" fill="#0000b2" />
</g>
<g>
<path d="M 89,25 L 119,25 L 119,55 L 89,55 Z" stroke="#000000" stroke-width="4.0" fill="none"/>
<circle cx="104.0" cy="40.0" r="9.0" stroke="#000000" stroke-width="4.0" fill="none" />
<text text-anchor="end" x="75.0" y="49.0" fill="#000000" style="font-size:24px"><tspan style="font-style:italic;">I<tspan style="font-size:80%;baseline-shift:sub;">0</tspan></tspan></text>
<circle cx="120.0" cy="40.0" r="2.0" stroke="#b20000" stroke-width="4.0" fill="#b20000" />
</g>
<g>
<path d="M 89,65 L 119,65 L 119,95 L 89,95 Z" stroke="#000000" stroke-width="4.0" fill="none"/>
<circle cx="104.0" cy="80.0" r="9.0" stroke="#000000" stroke-width="4.0" fill="none" />
<text text-anchor="end" x="75.0" y="89.0" fill="#000000" style="font-size:24px"><tspan style="font-style:italic;">I<tspan style="font-size:80%;baseline-shift:sub;">1</tspan></tspan></text>
<circle cx="120.0" cy="80.0" r="2.0" stroke="#b20000" stroke-width="4.0" fill="#b20000" />
</g>
<g>
<path d="M 185,151 L 185,121 L 215,121 L 215,151 Z" stroke="#000000" stroke-width="4.0" fill="none"/>
<circle cx="200.0" cy="136.0" r="9.0" stroke="#000000" stroke-width="4.0" fill="none" />
<text text-anchor="end" x="200.0" y="174.0" fill="#000000" style="font-size:24px" transform="rotate(-90,200.0,165.0)" ><tspan style="font-style:italic;">S</tspan></text>
<circle cx="200.0" cy="120.0" r="2.0" stroke="#b20000" stroke-width="4.0" fill="#b20000" />
</g>
<g>
<path d="M 181,36 L 219,45 L 219,75 L 181,84 Z" stroke="#000000" stroke-width="4.0" fill="none"/>
<text text-anchor="start" x="183.0" y="55.5" fill="#808080" style="font-size:18px">0</text>
<circle cx="200.0" cy="80.0" r="2.0" stroke="#0000b2" stroke-width="4.0" fill="#0000b2" />
<circle cx="180.0" cy="40.0" r="2.0" stroke="#0000b2" stroke-width="4.0" fill="#0000b2" />
<circle cx="180.0" cy="80.0" r="2.0" stroke="#0000b2" stroke-width="4.0" fill="#0000b2" />
<circle cx="220.0" cy="60.0" r="2.0" stroke="#b20000" stroke-width="4.0" fill="#b20000" />
</g>
</g>
</svg>