<?xml version="1.0" encoding="UTF-8" standalone="no"?>
<!-- Created with Digital by H.Neemann -->
<!-- created: Thu Jan 20 12:02:55 EST 2022 -->

<svg
   xmlns:svg="http://www.w3.org/2000/svg"
   xmlns="http://www.w3.org/2000/svg"
   width="82.65mm"
   height="70.35mm"
   viewBox="-229 -177 551 469">
<g stroke-linecap="square">
<path d="M -160,0 L 20,0" stroke="#0000b2" stroke-width="4.0" fill="none"/>
<path d="M -160,160 L 20,160" stroke="#0000b2" stroke-width="4.0" fill="none"/>
<path d="M -100,-80 L -100,100 L 20,100" stroke="#0000b2" stroke-width="4.0" fill="none"/>
<path d="M 100,100 L 120,100 L 120,120 L 160,120 L 164,120" stroke="#0000b2" stroke-width="4.0" fill="none"/>
<path d="M -100,100 L -100,260 L 20,260" stroke="#0000b2" stroke-width="4.0" fill="none"/>
<path d="M 100,260 L 140,260 L 140,180 L 160,180" stroke="#0000b2" stroke-width="4.0" fill="none"/>
<path d="M -20,-20 L -20,40 L 20,40" stroke="#0000b2" stroke-width="4.0" fill="none"/>
<path d="M 240,140 L 260,140" stroke="#0000b2" stroke-width="4.0" fill="none"/>
<path d="M -100,-100 L -100,-80 L -80,-80 L -80,-60" stroke="#0000b2" stroke-width="4.0" fill="none"/>
<path d="M -40,-100 L -40,-80 L -20,-80 L -20,-60" stroke="#0000b2" stroke-width="4.0" fill="none"/>
<path d="M -160,80 L 20,80" stroke="#0000b2" stroke-width="4.0" fill="none"/>
<path d="M -160,240 L 20,240" stroke="#0000b2" stroke-width="4.0" fill="none"/>
<path d="M -80,-20 L -80,20 L 20,20" stroke="#0000b2" stroke-width="4.0" fill="none"/>
<path d="M 100,20 L 140,20 L 140,100 L 160,100" stroke="#0000b2" stroke-width="4.0" fill="none"/>
<path d="M -80,20 L -80,180 L 20,180" stroke="#0000b2" stroke-width="4.0" fill="none"/>
<path d="M 100,180 L 120,180 L 120,160 L 160,160 L 164,160" stroke="#0000b2" stroke-width="4.0" fill="none"/>
<path d="M -20,40 L -20,120 L 20,120" stroke="#0000b2" stroke-width="4.0" fill="none"/>
<path d="M 20,200 L -40,200 L -40,280 L 20,280" stroke="#0000b2" stroke-width="4.0" fill="none"/>
<path d="M -40,-80 L -40,200" stroke="#0000b2" stroke-width="4.0" fill="none"/>
<path d="M 161,100 L 161,109" stroke="#000000" stroke-width="4.0" fill="none"/>
<path d="M 161,180 L 161,171" stroke="#000000" stroke-width="4.0" fill="none"/>
<g>
<circle cx="-100.0" cy="100.0" r="4.0" stroke="#0000b2" stroke-width="4.0" fill="#0000b2" />
<circle cx="-20.0" cy="40.0" r="4.0" stroke="#0000b2" stroke-width="4.0" fill="#0000b2" />
<circle cx="-40.0" cy="200.0" r="4.0" stroke="#0000b2" stroke-width="4.0" fill="#0000b2" />
<circle cx="-100.0" cy="-80.0" r="4.0" stroke="#0000b2" stroke-width="4.0" fill="#0000b2" />
<circle cx="-40.0" cy="-80.0" r="4.0" stroke="#0000b2" stroke-width="4.0" fill="#0000b2" />
<circle cx="-80.0" cy="20.0" r="4.0" stroke="#0000b2" stroke-width="4.0" fill="#0000b2" />
</g>
<g>
<circle cx="276.0" cy="140.0" r="9.0" stroke="#000000" stroke-width="4.0" fill="none" />
<circle cx="276.0" cy="140.0" r="15.0" stroke="#000000" stroke-width="4.0" fill="none" />
<text text-anchor="start" x="305.0" y="149.0" fill="#000000" style="font-size:24px"><tspan style="font-style:italic;">Y</tspan></text>
<circle cx="260.0" cy="140.0" r="2.0" stroke="#0000b2" stroke-width="4.0" fill="#0000b2" />
</g>
<g>
<path d="M 190,170 L 160,170 C 170,154 170,126 160,110 L 180,110 C 210,110 230,120 240,140 C 230,160 210,170 190,170 Z" stroke="#000000" stroke-width="4.0" fill="none"/>
<circle cx="160.0" cy="100.0" r="2.0" stroke="#0000b2" stroke-width="4.0" fill="#0000b2" />
<circle cx="160.0" cy="120.0" r="2.0" stroke="#0000b2" stroke-width="4.0" fill="#0000b2" />
<circle cx="160.0" cy="160.0" r="2.0" stroke="#0000b2" stroke-width="4.0" fill="#0000b2" />
<circle cx="160.0" cy="180.0" r="2.0" stroke="#0000b2" stroke-width="4.0" fill="#0000b2" />
<circle cx="240.0" cy="140.0" r="2.0" stroke="#b20000" stroke-width="4.0" fill="#b20000" />
</g>
<g>
<path d="M 70,50 L 21,50 L 21,-10 L 70,-10 C 80,-10 100,0 99,20 C 99,40 80,50 70,50 Z" stroke="#000000" stroke-width="4.0" fill="none"/>
<circle cx="20.0" cy="0.0" r="2.0" stroke="#0000b2" stroke-width="4.0" fill="#0000b2" />
<circle cx="20.0" cy="20.0" r="2.0" stroke="#0000b2" stroke-width="4.0" fill="#0000b2" />
<circle cx="20.0" cy="40.0" r="2.0" stroke="#0000b2" stroke-width="4.0" fill="#0000b2" />
<circle cx="100.0" cy="20.0" r="2.0" stroke="#b20000" stroke-width="4.0" fill="#b20000" />
</g>
<g>
<path d="M 70,130 L 21,130 L 21,70 L 70,70 C 80,70 100,80 99,100 C 99,120 80,130 70,130 Z" stroke="#000000" stroke-width="4.0" fill="none"/>
<circle cx="20.0" cy="80.0" r="2.0" stroke="#0000b2" stroke-width="4.0" fill="#0000b2" />
<circle cx="20.0" cy="100.0" r="2.0" stroke="#0000b2" stroke-width="4.0" fill="#0000b2" />
<circle cx="20.0" cy="120.0" r="2.0" stroke="#0000b2" stroke-width="4.0" fill="#0000b2" />
<circle cx="100.0" cy="100.0" r="2.0" stroke="#b20000" stroke-width="4.0" fill="#b20000" />
</g>
<g>
<path d="M 70,210 L 21,210 L 21,150 L 70,150 C 80,150 100,160 99,180 C 99,200 80,210 70,210 Z" stroke="#000000" stroke-width="4.0" fill="none"/>
<circle cx="20.0" cy="160.0" r="2.0" stroke="#0000b2" stroke-width="4.0" fill="#0000b2" />
<circle cx="20.0" cy="180.0" r="2.0" stroke="#0000b2" stroke-width="4.0" fill="#0000b2" />
<circle cx="20.0" cy="200.0" r="2.0" stroke="#0000b2" stroke-width="4.0" fill="#0000b2" />
<circle cx="100.0" cy="180.0" r="2.0" stroke="#b20000" stroke-width="4.0" fill="#b20000" />
</g>
<g>
<path d="M 70,290 L 21,290 L 21,230 L 70,230 C 80,230 100,240 99,260 C 99,280 80,290 70,290 Z" stroke="#000000" stroke-width="4.0" fill="none"/>
<circle cx="20.0" cy="240.0" r="2.0" stroke="#0000b2" stroke-width="4.0" fill="#0000b2" />
<circle cx="20.0" cy="260.0" r="2.0" stroke="#0000b2" stroke-width="4.0" fill="#0000b2" />
<circle cx="20.0" cy="280.0" r="2.0" stroke="#0000b2" stroke-width="4.0" fill="#0000b2" />
<circle cx="100.0" cy="260.0" r="2.0" stroke="#b20000" stroke-width="4.0" fill="#b20000" />
</g>
<g>
<path d="M -85,-131 L -85,-101 L -115,-101 L -115,-131 Z" stroke="#000000" stroke-width="4.0" fill="none"/>
<circle cx="-100.0" cy="-116.0" r="9.0" stroke="#000000" stroke-width="4.0" fill="none" />
<text text-anchor="start" x="-100.0" y="-136.0" fill="#000000" style="font-size:24px" transform="rotate(-90,-100.0,-145.0)" ><tspan style="font-style:italic;">S<tspan style="font-size:80%;baseline-shift:sub;">0</tspan></tspan></text>
<circle cx="-100.0" cy="-100.0" r="2.0" stroke="#b20000" stroke-width="4.0" fill="#b20000" />
</g>
<g>
<path d="M -68,-59 L -80,-41 L -92,-59 Z" stroke="#000000" stroke-width="4.0" fill="none"/>
<circle cx="-80.0" cy="-30.0" r="9.0" stroke="#000000" stroke-width="4.0" fill="none" />
<circle cx="-80.0" cy="-60.0" r="2.0" stroke="#0000b2" stroke-width="4.0" fill="#0000b2" />
<circle cx="-80.0" cy="-20.0" r="2.0" stroke="#b20000" stroke-width="4.0" fill="#b20000" />
</g>
<g>
<path d="M -25,-131 L -25,-101 L -55,-101 L -55,-131 Z" stroke="#000000" stroke-width="4.0" fill="none"/>
<circle cx="-40.0" cy="-116.0" r="9.0" stroke="#000000" stroke-width="4.0" fill="none" />
<text text-anchor="start" x="-40.0" y="-136.0" fill="#000000" style="font-size:24px" transform="rotate(-90,-40.0,-145.0)" ><tspan style="font-style:italic;">S<tspan style="font-size:80%;baseline-shift:sub;">1</tspan></tspan></text>
<circle cx="-40.0" cy="-100.0" r="2.0" stroke="#b20000" stroke-width="4.0" fill="#b20000" />
</g>
<g>
<path d="M -8,-59 L -20,-41 L -32,-59 Z" stroke="#000000" stroke-width="4.0" fill="none"/>
<circle cx="-20.0" cy="-30.0" r="9.0" stroke="#000000" stroke-width="4.0" fill="none" />
<circle cx="-20.0" cy="-60.0" r="2.0" stroke="#0000b2" stroke-width="4.0" fill="#0000b2" />
<circle cx="-20.0" cy="-20.0" r="2.0" stroke="#b20000" stroke-width="4.0" fill="#b20000" />
</g>
<g>
<path d="M -191,-15 L -161,-15 L -161,15 L -191,15 Z" stroke="#000000" stroke-width="4.0" fill="none"/>
<circle cx="-176.0" cy="0.0" r="9.0" stroke="#000000" stroke-width="4.0" fill="none" />
<text text-anchor="end" x="-205.0" y="9.0" fill="#000000" style="font-size:24px"><tspan style="font-style:italic;">I<tspan style="font-size:80%;baseline-shift:sub;">0</tspan></tspan></text>
<circle cx="-160.0" cy="0.0" r="2.0" stroke="#b20000" stroke-width="4.0" fill="#b20000" />
</g>
<g>
<path d="M -191,65 L -161,65 L -161,95 L -191,95 Z" stroke="#000000" stroke-width="4.0" fill="none"/>
<circle cx="-176.0" cy="80.0" r="9.0" stroke="#000000" stroke-width="4.0" fill="none" />
<text text-anchor="end" x="-205.0" y="89.0" fill="#000000" style="font-size:24px"><tspan style="font-style:italic;">I<tspan style="font-size:80%;baseline-shift:sub;">1</tspan></tspan></text>
<circle cx="-160.0" cy="80.0" r="2.0" stroke="#b20000" stroke-width="4.0" fill="#b20000" />
</g>
<g>
<path d="M -191,145 L -161,145 L -161,175 L -191,175 Z" stroke="#000000" stroke-width="4.0" fill="none"/>
<circle cx="-176.0" cy="160.0" r="9.0" stroke="#000000" stroke-width="4.0" fill="none" />
<text text-anchor="end" x="-205.0" y="169.0" fill="#000000" style="font-size:24px"><tspan style="font-style:italic;">I<tspan style="font-size:80%;baseline-shift:sub;">2</tspan></tspan></text>
<circle cx="-160.0" cy="160.0" r="2.0" stroke="#b20000" stroke-width="4.0" fill="#b20000" />
</g>
<g>
<path d="M -191,225 L -161,225 L -161,255 L -191,255 Z" stroke="#000000" stroke-width="4.0" fill="none"/>
<circle cx="-176.0" cy="240.0" r="9.0" stroke="#000000" stroke-width="4.0" fill="none" />
<text text-anchor="end" x="-205.0" y="249.0" fill="#000000" style="font-size:24px"><tspan style="font-style:italic;">I<tspan style="font-size:80%;baseline-shift:sub;">3</tspan></tspan></text>
<circle cx="-160.0" cy="240.0" r="2.0" stroke="#b20000" stroke-width="4.0" fill="#b20000" />
</g>
</g>
</svg>