<?xml version="1.0" encoding="UTF-8" standalone="no"?>
<!-- Created with Digital by H.Neemann -->
<!-- created: Fri Jan 21 13:13:23 EST 2022 -->

<svg
   xmlns:svg="http://www.w3.org/2000/svg"
   xmlns="http://www.w3.org/2000/svg"
   width="85.8mm"
   height="86.1mm"
   viewBox="250 23 572 574">
<g stroke-linecap="square">
<path d="M 394,524 L 386,516" stroke="#0000b2" stroke-width="2.0" fill="none"/>
<path d="M 540,440 L 540,320 L 560,320" stroke="#0000b2" stroke-width="4.0" fill="none"/>
<path d="M 660,160 L 700,160 L 700,40" stroke="#0000b2" stroke-width="4.0" fill="none"/>
<path d="M 360,160 L 620,160" stroke="#0000b2" stroke-width="4.0" fill="none"/>
<path d="M 460,480 L 560,480" stroke="#0000b2" stroke-width="4.0" fill="none"/>
<path d="M 620,100 L 640,100 L 640,60" stroke="#0000b2" stroke-width="4.0" fill="none"/>
<path d="M 460,420 L 480,420 L 480,120 L 560,120" stroke="#0000b2" stroke-width="4.0" fill="none"/>
<path d="M 360,580 L 540,580 L 540,440 L 560,440" stroke="#0000b2" stroke-width="4.0" fill="none"/>
<path d="M 660,40 L 700,40 L 760,40" stroke="#0000b2" stroke-width="4.0" fill="none"/>
<path d="M 360,40 L 620,40" stroke="#0000b2" stroke-width="4.0" fill="none"/>
<path d="M 360,520 L 440,520 L 440,480" stroke="#0000b2" stroke-width="4.0" fill="none"/>
<path d="M 460,460 L 520,460 L 520,360 L 560,360" stroke="#0000b2" stroke-width="4.0" fill="none"/>
<path d="M 620,460 L 640,460 L 640,420" stroke="#0000b2" stroke-width="4.0" fill="none"/>
<path d="M 660,400 L 700,400 L 700,280 L 660,280" stroke="#0000b2" stroke-width="4.0" fill="none"/>
<path d="M 360,400 L 620,400" stroke="#0000b2" stroke-width="4.0" fill="none"/>
<path d="M 620,340 L 640,340 L 640,300" stroke="#0000b2" stroke-width="4.0" fill="none"/>
<path d="M 460,440 L 500,440 L 500,240 L 560,240" stroke="#0000b2" stroke-width="4.0" fill="none"/>
<path d="M 360,280 L 620,280" stroke="#0000b2" stroke-width="4.0" fill="none"/>
<path d="M 620,220 L 640,220 L 640,180" stroke="#0000b2" stroke-width="4.0" fill="none"/>
<path d="M 700,160 L 700,280" stroke="#0000b2" stroke-width="4.0" fill="none"/>
<path d="M 560,200 L 540,200 L 540,80 L 560,80" stroke="#0000b2" stroke-width="4.0" fill="none"/>
<path d="M 540,200 L 540,320" stroke="#0000b2" stroke-width="4.0" fill="none"/>
<path d="M 640,60 L 640,47" stroke="#000000" stroke-width="4.0" fill="none"/>
<path d="M 640,180 L 640,167" stroke="#000000" stroke-width="4.0" fill="none"/>
<path d="M 640,300 L 640,287" stroke="#000000" stroke-width="4.0" fill="none"/>
<path d="M 640,420 L 640,407" stroke="#000000" stroke-width="4.0" fill="none"/>
<g>
<circle cx="540.0" cy="320.0" r="4.0" stroke="#0000b2" stroke-width="4.0" fill="#0000b2" />
<circle cx="700.0" cy="160.0" r="4.0" stroke="#0000b2" stroke-width="4.0" fill="#0000b2" />
<circle cx="540.0" cy="200.0" r="4.0" stroke="#0000b2" stroke-width="4.0" fill="#0000b2" />
<circle cx="700.0" cy="40.0" r="4.0" stroke="#0000b2" stroke-width="4.0" fill="#0000b2" />
<text text-anchor="start" x="390.0" y="517.0" fill="#0000b2" style="font-size:12px">2</text>
<circle cx="540.0" cy="440.0" r="4.0" stroke="#0000b2" stroke-width="4.0" fill="#0000b2" />
<circle cx="700.0" cy="280.0" r="4.0" stroke="#0000b2" stroke-width="4.0" fill="#0000b2" />
</g>
<g>
<path d="M 421,425 L 459,416 L 459,484 L 421,475 Z" stroke="#000000" stroke-width="4.0" fill="none"/>
<text text-anchor="end" x="457.0" y="435.5" fill="#808080" style="font-size:18px">0</text>
<circle cx="440.0" cy="480.0" r="2.0" stroke="#0000b2" stroke-width="4.0" fill="#0000b2" />
<circle cx="460.0" cy="420.0" r="2.0" stroke="#b20000" stroke-width="4.0" fill="#b20000" />
<circle cx="460.0" cy="440.0" r="2.0" stroke="#b20000" stroke-width="4.0" fill="#b20000" />
<circle cx="460.0" cy="460.0" r="2.0" stroke="#b20000" stroke-width="4.0" fill="#b20000" />
<circle cx="460.0" cy="480.0" r="2.0" stroke="#b20000" stroke-width="4.0" fill="#b20000" />
</g>
<g>
<path d="M 621,28 L 659,40 L 621,52 Z" stroke="#000000" stroke-width="4.0" fill="none"/>
<circle cx="620.0" cy="40.0" r="2.0" stroke="#0000b2" stroke-width="4.0" fill="#0000b2" />
<circle cx="640.0" cy="60.0" r="2.0" stroke="#0000b2" stroke-width="4.0" fill="#0000b2" />
<circle cx="660.0" cy="40.0" r="2.0" stroke="#b20000" stroke-width="4.0" fill="#b20000" />
</g>
<g>
<path d="M 621,148 L 659,160 L 621,172 Z" stroke="#000000" stroke-width="4.0" fill="none"/>
<circle cx="620.0" cy="160.0" r="2.0" stroke="#0000b2" stroke-width="4.0" fill="#0000b2" />
<circle cx="640.0" cy="180.0" r="2.0" stroke="#0000b2" stroke-width="4.0" fill="#0000b2" />
<circle cx="660.0" cy="160.0" r="2.0" stroke="#b20000" stroke-width="4.0" fill="#b20000" />
</g>
<g>
<path d="M 621,268 L 659,280 L 621,292 Z" stroke="#000000" stroke-width="4.0" fill="none"/>
<circle cx="620.0" cy="280.0" r="2.0" stroke="#0000b2" stroke-width="4.0" fill="#0000b2" />
<circle cx="640.0" cy="300.0" r="2.0" stroke="#0000b2" stroke-width="4.0" fill="#0000b2" />
<circle cx="660.0" cy="280.0" r="2.0" stroke="#b20000" stroke-width="4.0" fill="#b20000" />
</g>
<g>
<path d="M 621,388 L 659,400 L 621,412 Z" stroke="#000000" stroke-width="4.0" fill="none"/>
<circle cx="620.0" cy="400.0" r="2.0" stroke="#0000b2" stroke-width="4.0" fill="#0000b2" />
<circle cx="640.0" cy="420.0" r="2.0" stroke="#0000b2" stroke-width="4.0" fill="#0000b2" />
<circle cx="660.0" cy="400.0" r="2.0" stroke="#b20000" stroke-width="4.0" fill="#b20000" />
</g>
<g>
<circle cx="776.0" cy="40.0" r="9.0" stroke="#000000" stroke-width="4.0" fill="none" />
<circle cx="776.0" cy="40.0" r="15.0" stroke="#000000" stroke-width="4.0" fill="none" />
<text text-anchor="start" x="805.0" y="49.0" fill="#000000" style="font-size:24px"><tspan style="font-style:italic;">Y</tspan></text>
<circle cx="760.0" cy="40.0" r="2.0" stroke="#0000b2" stroke-width="4.0" fill="#0000b2" />
</g>
<g>
<path d="M 329,25 L 359,25 L 359,55 L 329,55 Z" stroke="#000000" stroke-width="4.0" fill="none"/>
<circle cx="344.0" cy="40.0" r="9.0" stroke="#000000" stroke-width="4.0" fill="none" />
<text text-anchor="end" x="315.0" y="49.0" fill="#000000" style="font-size:24px"><tspan style="font-style:italic;">I<tspan style="font-size:80%;baseline-shift:sub;">0</tspan></tspan></text>
<circle cx="360.0" cy="40.0" r="2.0" stroke="#b20000" stroke-width="4.0" fill="#b20000" />
</g>
<g>
<path d="M 329,145 L 359,145 L 359,175 L 329,175 Z" stroke="#000000" stroke-width="4.0" fill="none"/>
<circle cx="344.0" cy="160.0" r="9.0" stroke="#000000" stroke-width="4.0" fill="none" />
<text text-anchor="end" x="315.0" y="169.0" fill="#000000" style="font-size:24px"><tspan style="font-style:italic;">I<tspan style="font-size:80%;baseline-shift:sub;">1</tspan></tspan></text>
<circle cx="360.0" cy="160.0" r="2.0" stroke="#b20000" stroke-width="4.0" fill="#b20000" />
</g>
<g>
<path d="M 329,265 L 359,265 L 359,295 L 329,295 Z" stroke="#000000" stroke-width="4.0" fill="none"/>
<circle cx="344.0" cy="280.0" r="9.0" stroke="#000000" stroke-width="4.0" fill="none" />
<text text-anchor="end" x="315.0" y="289.0" fill="#000000" style="font-size:24px"><tspan style="font-style:italic;">I<tspan style="font-size:80%;baseline-shift:sub;">2</tspan></tspan></text>
<circle cx="360.0" cy="280.0" r="2.0" stroke="#b20000" stroke-width="4.0" fill="#b20000" />
</g>
<g>
<path d="M 329,385 L 359,385 L 359,415 L 329,415 Z" stroke="#000000" stroke-width="4.0" fill="none"/>
<circle cx="344.0" cy="400.0" r="9.0" stroke="#000000" stroke-width="4.0" fill="none" />
<text text-anchor="end" x="315.0" y="409.0" fill="#000000" style="font-size:24px"><tspan style="font-style:italic;">I<tspan style="font-size:80%;baseline-shift:sub;">3</tspan></tspan></text>
<circle cx="360.0" cy="400.0" r="2.0" stroke="#b20000" stroke-width="4.0" fill="#b20000" />
</g>
<g>
<path d="M 329,505 L 359,505 L 359,535 L 329,535 Z" stroke="#000000" stroke-width="4.0" fill="none"/>
<circle cx="344.0" cy="520.0" r="9.0" stroke="#000000" stroke-width="4.0" fill="none" />
<text text-anchor="end" x="315.0" y="529.0" fill="#000000" style="font-size:24px"><tspan style="font-style:italic;">Selec</tspan></text>
<circle cx="360.0" cy="520.0" r="2.0" stroke="#b20000" stroke-width="4.0" fill="#b20000" />
</g>
<g>
<path d="M 590,130 L 561,130 L 561,70 L 590,70 C 600,70 620,80 619,100 C 619,120 600,130 590,130 Z" stroke="#000000" stroke-width="4.0" fill="none"/>
<circle cx="560.0" cy="80.0" r="2.0" stroke="#0000b2" stroke-width="4.0" fill="#0000b2" />
<circle cx="560.0" cy="120.0" r="2.0" stroke="#0000b2" stroke-width="4.0" fill="#0000b2" />
<circle cx="620.0" cy="100.0" r="2.0" stroke="#b20000" stroke-width="4.0" fill="#b20000" />
</g>
<g>
<path d="M 590,250 L 561,250 L 561,190 L 590,190 C 600,190 620,200 619,220 C 619,240 600,250 590,250 Z" stroke="#000000" stroke-width="4.0" fill="none"/>
<circle cx="560.0" cy="200.0" r="2.0" stroke="#0000b2" stroke-width="4.0" fill="#0000b2" />
<circle cx="560.0" cy="240.0" r="2.0" stroke="#0000b2" stroke-width="4.0" fill="#0000b2" />
<circle cx="620.0" cy="220.0" r="2.0" stroke="#b20000" stroke-width="4.0" fill="#b20000" />
</g>
<g>
<path d="M 590,370 L 561,370 L 561,310 L 590,310 C 600,310 620,320 619,340 C 619,360 600,370 590,370 Z" stroke="#000000" stroke-width="4.0" fill="none"/>
<circle cx="560.0" cy="320.0" r="2.0" stroke="#0000b2" stroke-width="4.0" fill="#0000b2" />
<circle cx="560.0" cy="360.0" r="2.0" stroke="#0000b2" stroke-width="4.0" fill="#0000b2" />
<circle cx="620.0" cy="340.0" r="2.0" stroke="#b20000" stroke-width="4.0" fill="#b20000" />
</g>
<g>
<path d="M 590,490 L 561,490 L 561,430 L 590,430 C 600,430 620,440 619,460 C 619,480 600,490 590,490 Z" stroke="#000000" stroke-width="4.0" fill="none"/>
<circle cx="560.0" cy="440.0" r="2.0" stroke="#0000b2" stroke-width="4.0" fill="#0000b2" />
<circle cx="560.0" cy="480.0" r="2.0" stroke="#0000b2" stroke-width="4.0" fill="#0000b2" />
<circle cx="620.0" cy="460.0" r="2.0" stroke="#b20000" stroke-width="4.0" fill="#b20000" />
</g>
<g>
<path d="M 329,565 L 359,565 L 359,595 L 329,595 Z" stroke="#000000" stroke-width="4.0" fill="none"/>
<circle cx="344.0" cy="580.0" r="9.0" stroke="#000000" stroke-width="4.0" fill="none" />
<text text-anchor="end" x="315.0" y="589.0" fill="#000000" style="font-size:24px"><tspan style="font-style:italic;">E</tspan></text>
<circle cx="360.0" cy="580.0" r="2.0" stroke="#b20000" stroke-width="4.0" fill="#b20000" />
</g>
</g>
</svg>