<?xml version="1.0" encoding="utf-8" standalone="no"?>
<!DOCTYPE svg PUBLIC "-//W3C//DTD SVG 1.1//EN"
  "http://www.w3.org/Graphics/SVG/1.1/DTD/svg11.dtd">
<svg xmlns:xlink="http://www.w3.org/1999/xlink" width="198.4998pt" height="113.714pt" viewBox="0 0 198.4998 113.714" xmlns="http://www.w3.org/2000/svg" version="1.1">
 <metadata>
  <rdf:RDF xmlns:dc="http://purl.org/dc/elements/1.1/" xmlns:cc="http://creativecommons.org/ns#" xmlns:rdf="http://www.w3.org/1999/02/22-rdf-syntax-ns#">
   <cc:Work>
    <dc:type rdf:resource="http://purl.org/dc/dcmitype/StillImage"/>
    <dc:date>2022-01-15T09:08:30.210732</dc:date>
    <dc:format>image/svg+xml</dc:format>
    <dc:creator>
     <cc:Agent>
      <dc:title>Matplotlib v3.5.1, https://matplotlib.org/</dc:title>
     </cc:Agent>
    </dc:creator>
   </cc:Work>
  </rdf:RDF>
 </metadata>
 <defs>
  <style type="text/css">*{stroke-linejoin: round; stroke-linecap: butt}</style>
 </defs>
 <g id="figure_1">
  <g id="patch_1">
   <path d="M 0 113.714 
L 198.4998 113.714 
L 198.4998 0 
L 0 0 
L 0 113.714 
z
" style="fill: none"/>
  </g>
  <g id="axes_1">
   <g id="patch_2">
    <path d="M 75.081 38.582 
C 76.054826 38.582 76.988897 38.195095 77.677496 37.506496 
C 78.366095 36.817897 78.753 35.883826 78.753 34.91 
C 78.753 33.936174 78.366095 33.002103 77.677496 32.313504 
C 76.988897 31.624905 76.054826 31.238 75.081 31.238 
C 74.107174 31.238 73.173103 31.624905 72.484504 32.313504 
C 71.795905 33.002103 71.409 33.936174 71.409 34.91 
C 71.409 35.883826 71.795905 36.817897 72.484504 37.506496 
C 73.173103 38.195095 74.107174 38.582 75.081 38.582 
L 75.081 38.582 
z
" clip-path="url(#p5c71f5eec3)" style="fill: none; stroke: #000000; stroke-width: 2; stroke-linejoin: miter"/>
   </g>
   <g id="patch_3">
    <path d="M 37.98156 99.782 
C 38.955386 99.782 39.889457 99.395095 40.578056 98.706496 
C 41.266655 98.017897 41.65356 97.083826 41.65356 96.11 
C 41.65356 95.136174 41.266655 94.202103 40.578056 93.513504 
C 39.889457 92.824905 38.955386 92.438 37.98156 92.438 
C 37.007734 92.438 36.073663 92.824905 35.385064 93.513504 
C 34.696465 94.202103 34.30956 95.136174 34.30956 96.11 
C 34.30956 97.083826 34.696465 98.017897 35.385064 98.706496 
C 36.073663 99.395095 37.007734 99.782 37.98156 99.782 
L 37.98156 99.782 
z
" clip-path="url(#p5c71f5eec3)" style="fill: none; stroke: #000000; stroke-width: 2; stroke-linejoin: miter"/>
   </g>
   <g id="patch_4">
    <path d="M 37.98156 84.482 
C 38.955386 84.482 39.889457 84.095095 40.578056 83.406496 
C 41.266655 82.717897 41.65356 81.783826 41.65356 80.81 
C 41.65356 79.836174 41.266655 78.902103 40.578056 78.213504 
C 39.889457 77.524905 38.955386 77.138 37.98156 77.138 
C 37.007734 77.138 36.073663 77.524905 35.385064 78.213504 
C 34.696465 78.902103 34.30956 79.836174 34.30956 80.81 
C 34.30956 81.783826 34.696465 82.717897 35.385064 83.406496 
C 36.073663 84.095095 37.007734 84.482 37.98156 84.482 
L 37.98156 84.482 
z
" clip-path="url(#p5c71f5eec3)" style="fill: none; stroke: #000000; stroke-width: 2; stroke-linejoin: miter"/>
   </g>
   <g id="line2d_1">
    <path d="M 56.109 50.21 
L 57.089274 50.178565 
L 58.065521 50.084387 
L 59.033727 49.927855 
L 59.989915 49.709611 
L 60.930156 49.430553 
L 61.850585 49.091826 
L 62.747421 48.694824 
L 63.616979 48.241176 
L 64.455684 47.732748 
L 65.260091 47.171628 
L 66.026894 46.560123 
L 66.752943 45.900745 
L 67.435253 45.196204 
L 68.071022 44.449394 
L 68.657635 43.663385 
L 69.192684 42.841406 
L 69.673969 41.986836 
L 70.099513 41.103185 
L 70.467567 40.194085 
L 70.776618 39.263272 
L 71.025397 38.31457 
L 71.212881 37.351878 
L 71.3383 36.379152 
L 71.401139 35.400389 
L 71.401139 34.419611 
L 71.3383 33.440848 
L 71.212881 32.468122 
L 71.025397 31.50543 
L 70.776618 30.556728 
L 70.467567 29.625915 
L 70.099513 28.716815 
L 69.673969 27.833164 
L 69.192684 26.978594 
L 68.657635 26.156615 
L 68.071022 25.370606 
L 67.435253 24.623796 
L 66.752943 23.919255 
L 66.026894 23.259877 
L 65.260091 22.648372 
L 64.455684 22.087252 
L 63.616979 21.578824 
L 62.747421 21.125176 
L 61.850585 20.728174 
L 60.930156 20.389447 
L 59.989915 20.110389 
L 59.033727 19.892145 
L 58.065521 19.735613 
L 57.089274 19.641435 
L 56.109 19.61 
L 56.109 19.61 
L 36.219 19.61 
L 36.219 34.91 
L 36.219 50.21 
L 56.109 50.21 
" clip-path="url(#p5c71f5eec3)" style="fill: none; stroke: #000000; stroke-width: 2; stroke-linecap: round"/>
   </g>
   <g id="line2d_2">
    <path d="M 25.509 42.56 
L 36.219 42.56 
" clip-path="url(#p5c71f5eec3)" style="fill: none; stroke: #000000; stroke-width: 2; stroke-linecap: round"/>
   </g>
   <g id="line2d_3">
    <path d="M 25.509 27.26 
L 36.219 27.26 
" clip-path="url(#p5c71f5eec3)" style="fill: none; stroke: #000000; stroke-width: 2; stroke-linecap: round"/>
   </g>
   <g id="line2d_4">
    <path d="M 78.753 34.91 
L 82.119 34.91 
" clip-path="url(#p5c71f5eec3)" style="fill: none; stroke: #000000; stroke-width: 2; stroke-linecap: round"/>
   </g>
   <g id="line2d_5">
    <path d="M 36.219 103.454 
L 53.267571 103.354082 
L 55.016143 103.054327 
L 56.764714 102.554735 
L 58.513286 101.855306 
L 60.261857 100.956041 
L 62.447571 99.550939 
L 64.633286 97.833592 
L 66.819 95.804 
L 69.004714 93.462163 
L 71.190429 90.808082 
L 72.939 88.46 
L 72.939 88.46 
L 70.316143 85.012816 
L 68.130429 82.483633 
L 65.944714 80.266694 
L 63.759 78.362 
L 61.573286 76.769551 
L 59.387571 75.489347 
L 57.639 74.69 
L 55.890429 74.09049 
L 54.141857 73.690816 
L 52.393286 73.49098 
L 51.519 73.466 
L 36.219 73.466 
L 36.219 73.466 
L 38.4222 75.914 
L 39.81756 77.75 
L 40.9926 79.586 
L 41.94732 81.422 
L 42.68172 83.258 
L 43.1958 85.094 
L 43.48956 86.93 
L 43.563 88.766 
L 43.41612 90.602 
L 43.04892 92.438 
L 42.4614 94.274 
L 41.65356 96.11 
L 40.6254 97.946 
L 39.37692 99.782 
L 37.90812 101.618 
L 36.219 103.454 
L 36.219 103.454 
" clip-path="url(#p5c71f5eec3)" style="fill: none; stroke: #000000; stroke-width: 2; stroke-linecap: round"/>
   </g>
   <g id="line2d_6">
    <path d="M 25.509 96.11 
L 34.30956 96.11 
" clip-path="url(#p5c71f5eec3)" style="fill: none; stroke: #000000; stroke-width: 2; stroke-linecap: round"/>
   </g>
   <g id="line2d_7">
    <path d="M 25.509 80.81 
L 34.30956 80.81 
" clip-path="url(#p5c71f5eec3)" style="fill: none; stroke: #000000; stroke-width: 2; stroke-linecap: round"/>
   </g>
   <g id="line2d_8">
    <path d="M 72.939 88.46 
L 83.649 88.46 
" clip-path="url(#p5c71f5eec3)" style="fill: none; stroke: #000000; stroke-width: 2; stroke-linecap: round"/>
   </g>
   <g id="text_1">
    <g clip-path="url(#p5c71f5eec3)">
     <!-- x -->
     <g transform="translate(15.050563 30.709219)scale(0.125 -0.125)">
      <defs>
       <path id="DejaVuSans-78" d="M 3513 3500 
L 2247 1797 
L 3578 0 
L 2900 0 
L 1881 1375 
L 863 0 
L 184 0 
L 1544 1831 
L 300 3500 
L 978 3500 
L 1906 2253 
L 2834 3500 
L 3513 3500 
z
" transform="scale(0.015625)"/>
      </defs>
      <use xlink:href="#DejaVuSans-78"/>
     </g>
    </g>
   </g>
   <g id="text_2">
    <g clip-path="url(#p5c71f5eec3)">
     <!-- y -->
     <g transform="translate(15.050563 46.009219)scale(0.125 -0.125)">
      <defs>
       <path id="DejaVuSans-79" d="M 2059 -325 
Q 1816 -950 1584 -1140 
Q 1353 -1331 966 -1331 
L 506 -1331 
L 506 -850 
L 844 -850 
Q 1081 -850 1212 -737 
Q 1344 -625 1503 -206 
L 1606 56 
L 191 3500 
L 800 3500 
L 1894 763 
L 2988 3500 
L 3597 3500 
L 2059 -325 
z
" transform="scale(0.015625)"/>
      </defs>
      <use xlink:href="#DejaVuSans-79"/>
     </g>
    </g>
   </g>
   <g id="text_3">
    <g clip-path="url(#p5c71f5eec3)">
     <!-- $x^{\prime} y^{\prime}$ -->
     <g transform="translate(85.179 38.4725)scale(0.125 -0.125)">
      <defs>
       <path id="DejaVuSans-Oblique-78" d="M 3841 3500 
L 2234 1784 
L 3219 0 
L 2559 0 
L 1819 1388 
L 531 0 
L -166 0 
L 1556 1844 
L 641 3500 
L 1300 3500 
L 1972 2234 
L 3144 3500 
L 3841 3500 
z
" transform="scale(0.015625)"/>
       <path id="Cmsy10-30" d="M 225 347 
Q 184 359 184 409 
L 966 3316 
Q 1003 3434 1093 3506 
Q 1184 3578 1300 3578 
Q 1450 3578 1564 3479 
Q 1678 3381 1678 3231 
Q 1678 3166 1644 3084 
L 488 319 
Q 466 275 428 275 
Q 394 275 320 306 
Q 247 338 225 347 
z
" transform="scale(0.015625)"/>
       <path id="DejaVuSans-Oblique-79" d="M 1588 -325 
Q 1188 -997 936 -1164 
Q 684 -1331 294 -1331 
L -159 -1331 
L -63 -850 
L 269 -850 
Q 509 -850 678 -719 
Q 847 -588 1056 -206 
L 1234 128 
L 459 3500 
L 1069 3500 
L 1650 819 
L 3256 3500 
L 3859 3500 
L 1588 -325 
z
" transform="scale(0.015625)"/>
      </defs>
      <use xlink:href="#DejaVuSans-Oblique-78" transform="translate(0 0.584375)"/>
      <use xlink:href="#Cmsy10-30" transform="translate(63.645833 38.865625)scale(0.7)"/>
      <use xlink:href="#DejaVuSans-Oblique-79" transform="translate(85.623372 0.584375)"/>
      <use xlink:href="#Cmsy10-30" transform="translate(149.269206 38.865625)scale(0.7)"/>
     </g>
    </g>
   </g>
   <g id="text_4">
    <g clip-path="url(#p5c71f5eec3)">
     <!-- $(x + y)^{\prime}$ -->
     <g transform="translate(86.709 92.0225)scale(0.125 -0.125)">
      <defs>
       <path id="DejaVuSans-28" d="M 1984 4856 
Q 1566 4138 1362 3434 
Q 1159 2731 1159 2009 
Q 1159 1288 1364 580 
Q 1569 -128 1984 -844 
L 1484 -844 
Q 1016 -109 783 600 
Q 550 1309 550 2009 
Q 550 2706 781 3412 
Q 1013 4119 1484 4856 
L 1984 4856 
z
" transform="scale(0.015625)"/>
       <path id="DejaVuSans-2b" d="M 2944 4013 
L 2944 2272 
L 4684 2272 
L 4684 1741 
L 2944 1741 
L 2944 0 
L 2419 0 
L 2419 1741 
L 678 1741 
L 678 2272 
L 2419 2272 
L 2419 4013 
L 2944 4013 
z
" transform="scale(0.015625)"/>
       <path id="DejaVuSans-29" d="M 513 4856 
L 1013 4856 
Q 1481 4119 1714 3412 
Q 1947 2706 1947 2009 
Q 1947 1309 1714 600 
Q 1481 -109 1013 -844 
L 513 -844 
Q 928 -128 1133 580 
Q 1338 1288 1338 2009 
Q 1338 2731 1133 3434 
Q 928 4138 513 4856 
z
" transform="scale(0.015625)"/>
      </defs>
      <use xlink:href="#DejaVuSans-28" transform="translate(0 0.584375)"/>
      <use xlink:href="#DejaVuSans-Oblique-78" transform="translate(39.013672 0.584375)"/>
      <use xlink:href="#DejaVuSans-2b" transform="translate(117.675781 0.584375)"/>
      <use xlink:href="#DejaVuSans-Oblique-79" transform="translate(220.947266 0.584375)"/>
      <use xlink:href="#DejaVuSans-29" transform="translate(280.126953 0.584375)"/>
      <use xlink:href="#Cmsy10-30" transform="translate(320.097656 38.865625)scale(0.7)"/>
     </g>
    </g>
   </g>
  </g>
 </g>
 <defs>
  <clipPath id="p5c71f5eec3">
   <rect x="7.2" y="7.2" width="184.0998" height="99.314"/>
  </clipPath>
 </defs>
</svg>
