<?xml version="1.0" encoding="utf-8" standalone="no"?>
<!DOCTYPE svg PUBLIC "-//W3C//DTD SVG 1.1//EN"
  "http://www.w3.org/Graphics/SVG/1.1/DTD/svg11.dtd">
<svg xmlns:xlink="http://www.w3.org/1999/xlink" width="117.6036pt" height="68.596pt" viewBox="0 0 117.6036 68.596" xmlns="http://www.w3.org/2000/svg" version="1.1">
 <metadata>
  <rdf:RDF xmlns:dc="http://purl.org/dc/elements/1.1/" xmlns:cc="http://creativecommons.org/ns#" xmlns:rdf="http://www.w3.org/1999/02/22-rdf-syntax-ns#">
   <cc:Work>
    <dc:type rdf:resource="http://purl.org/dc/dcmitype/StillImage"/>
    <dc:date>2022-01-12T14:15:48.794146</dc:date>
    <dc:format>image/svg+xml</dc:format>
    <dc:creator>
     <cc:Agent>
      <dc:title>Matplotlib v3.5.1, https://matplotlib.org/</dc:title>
     </cc:Agent>
    </dc:creator>
   </cc:Work>
  </rdf:RDF>
 </metadata>
 <defs>
  <style type="text/css">*{stroke-linejoin: round; stroke-linecap: butt}</style>
 </defs>
 <g id="figure_1">
  <g id="patch_1">
   <path d="M 0 68.596 
L 117.6036 68.596 
L 117.6036 0 
L 0 0 
L 0 68.596 
z
" style="fill: none"/>
  </g>
  <g id="axes_1">
   <g id="patch_2">
    <path d="M 77.0088 41.03 
C 77.982626 41.03 78.916697 40.643095 79.605296 39.954496 
C 80.293895 39.265897 80.6808 38.331826 80.6808 37.358 
C 80.6808 36.384174 80.293895 35.450103 79.605296 34.761504 
C 78.916697 34.072905 77.982626 33.686 77.0088 33.686 
C 76.034974 33.686 75.100903 34.072905 74.412304 34.761504 
C 73.723705 35.450103 73.3368 36.384174 73.3368 37.358 
C 73.3368 38.331826 73.723705 39.265897 74.412304 39.954496 
C 75.100903 40.643095 76.034974 41.03 77.0088 41.03 
L 77.0088 41.03 
z
" clip-path="url(#p1e2e80a8d6)" style="fill: none; stroke: #000000; stroke-width: 2; stroke-linejoin: miter"/>
   </g>
   <g id="line2d_1">
    <path d="M 58.0368 52.658 
L 59.017074 52.626565 
L 59.993321 52.532387 
L 60.961527 52.375855 
L 61.917715 52.157611 
L 62.857956 51.878553 
L 63.778385 51.539826 
L 64.675221 51.142824 
L 65.544779 50.689176 
L 66.383484 50.180748 
L 67.187891 49.619628 
L 67.954694 49.008123 
L 68.680743 48.348745 
L 69.363053 47.644204 
L 69.998822 46.897394 
L 70.585435 46.111385 
L 71.120484 45.289406 
L 71.601769 44.434836 
L 72.027313 43.551185 
L 72.395367 42.642085 
L 72.704418 41.711272 
L 72.953197 40.76257 
L 73.140681 39.799878 
L 73.2661 38.827152 
L 73.328939 37.848389 
L 73.328939 36.867611 
L 73.2661 35.888848 
L 73.140681 34.916122 
L 72.953197 33.95343 
L 72.704418 33.004728 
L 72.395367 32.073915 
L 72.027313 31.164815 
L 71.601769 30.281164 
L 71.120484 29.426594 
L 70.585435 28.604615 
L 69.998822 27.818606 
L 69.363053 27.071796 
L 68.680743 26.367255 
L 67.954694 25.707877 
L 67.187891 25.096372 
L 66.383484 24.535252 
L 65.544779 24.026824 
L 64.675221 23.573176 
L 63.778385 23.176174 
L 62.857956 22.837447 
L 61.917715 22.558389 
L 60.961527 22.340145 
L 59.993321 22.183613 
L 59.017074 22.089435 
L 58.0368 22.058 
L 58.0368 22.058 
L 38.1468 22.058 
L 38.1468 37.358 
L 38.1468 52.658 
L 58.0368 52.658 
" clip-path="url(#p1e2e80a8d6)" style="fill: none; stroke: #000000; stroke-width: 2; stroke-linecap: round"/>
   </g>
   <g id="line2d_2">
    <path d="M 27.4368 47.456 
L 38.1468 47.456 
" clip-path="url(#p1e2e80a8d6)" style="fill: none; stroke: #000000; stroke-width: 2; stroke-linecap: round"/>
   </g>
   <g id="line2d_3">
    <path d="M 27.4368 37.358 
L 38.1468 37.358 
" clip-path="url(#p1e2e80a8d6)" style="fill: none; stroke: #000000; stroke-width: 2; stroke-linecap: round"/>
   </g>
   <g id="line2d_4">
    <path d="M 27.4368 27.26 
L 38.1468 27.26 
" clip-path="url(#p1e2e80a8d6)" style="fill: none; stroke: #000000; stroke-width: 2; stroke-linecap: round"/>
   </g>
   <g id="line2d_5">
    <path d="M 27.4368 37.358 
M 80.6808 37.358 
L 84.0468 37.358 
" clip-path="url(#p1e2e80a8d6)" style="fill: none; stroke: #000000; stroke-width: 2; stroke-linecap: round"/>
   </g>
   <g id="text_1">
    <g clip-path="url(#p1e2e80a8d6)">
     <!-- S -->
     <g transform="translate(87.1068 40.807219)scale(0.125 -0.125)">
      <defs>
       <path id="DejaVuSans-53" d="M 3425 4513 
L 3425 3897 
Q 3066 4069 2747 4153 
Q 2428 4238 2131 4238 
Q 1616 4238 1336 4038 
Q 1056 3838 1056 3469 
Q 1056 3159 1242 3001 
Q 1428 2844 1947 2747 
L 2328 2669 
Q 3034 2534 3370 2195 
Q 3706 1856 3706 1288 
Q 3706 609 3251 259 
Q 2797 -91 1919 -91 
Q 1588 -91 1214 -16 
Q 841 59 441 206 
L 441 856 
Q 825 641 1194 531 
Q 1563 422 1919 422 
Q 2459 422 2753 634 
Q 3047 847 3047 1241 
Q 3047 1584 2836 1778 
Q 2625 1972 2144 2069 
L 1759 2144 
Q 1053 2284 737 2584 
Q 422 2884 422 3419 
Q 422 4038 858 4394 
Q 1294 4750 2059 4750 
Q 2388 4750 2728 4690 
Q 3069 4631 3425 4513 
z
" transform="scale(0.015625)"/>
      </defs>
      <use xlink:href="#DejaVuSans-53"/>
     </g>
    </g>
   </g>
   <g id="text_2">
    <g clip-path="url(#p1e2e80a8d6)">
     <!-- A -->
     <g transform="translate(15.826019 30.709219)scale(0.125 -0.125)">
      <defs>
       <path id="DejaVuSans-41" d="M 2188 4044 
L 1331 1722 
L 3047 1722 
L 2188 4044 
z
M 1831 4666 
L 2547 4666 
L 4325 0 
L 3669 0 
L 3244 1197 
L 1141 1197 
L 716 0 
L 50 0 
L 1831 4666 
z
" transform="scale(0.015625)"/>
      </defs>
      <use xlink:href="#DejaVuSans-41"/>
     </g>
    </g>
   </g>
   <g id="text_3">
    <g clip-path="url(#p1e2e80a8d6)">
     <!-- B -->
     <g transform="translate(15.800628 40.807219)scale(0.125 -0.125)">
      <defs>
       <path id="DejaVuSans-42" d="M 1259 2228 
L 1259 519 
L 2272 519 
Q 2781 519 3026 730 
Q 3272 941 3272 1375 
Q 3272 1813 3026 2020 
Q 2781 2228 2272 2228 
L 1259 2228 
z
M 1259 4147 
L 1259 2741 
L 2194 2741 
Q 2656 2741 2882 2914 
Q 3109 3088 3109 3444 
Q 3109 3797 2882 3972 
Q 2656 4147 2194 4147 
L 1259 4147 
z
M 628 4666 
L 2241 4666 
Q 2963 4666 3353 4366 
Q 3744 4066 3744 3513 
Q 3744 3084 3544 2831 
Q 3344 2578 2956 2516 
Q 3422 2416 3680 2098 
Q 3938 1781 3938 1306 
Q 3938 681 3513 340 
Q 3088 0 2303 0 
L 628 0 
L 628 4666 
z
" transform="scale(0.015625)"/>
      </defs>
      <use xlink:href="#DejaVuSans-42"/>
     </g>
    </g>
   </g>
   <g id="text_4">
    <g clip-path="url(#p1e2e80a8d6)">
     <!-- C -->
     <g transform="translate(15.648284 50.905219)scale(0.125 -0.125)">
      <defs>
       <path id="DejaVuSans-43" d="M 4122 4306 
L 4122 3641 
Q 3803 3938 3442 4084 
Q 3081 4231 2675 4231 
Q 1875 4231 1450 3742 
Q 1025 3253 1025 2328 
Q 1025 1406 1450 917 
Q 1875 428 2675 428 
Q 3081 428 3442 575 
Q 3803 722 4122 1019 
L 4122 359 
Q 3791 134 3420 21 
Q 3050 -91 2638 -91 
Q 1578 -91 968 557 
Q 359 1206 359 2328 
Q 359 3453 968 4101 
Q 1578 4750 2638 4750 
Q 3056 4750 3426 4639 
Q 3797 4528 4122 4306 
z
" transform="scale(0.015625)"/>
      </defs>
      <use xlink:href="#DejaVuSans-43"/>
     </g>
    </g>
   </g>
  </g>
 </g>
 <defs>
  <clipPath id="p1e2e80a8d6">
   <rect x="7.2" y="7.2" width="103.2036" height="54.196"/>
  </clipPath>
 </defs>
</svg>
