<?xml version="1.0" encoding="utf-8" standalone="no"?>
<!DOCTYPE svg PUBLIC "-//W3C//DTD SVG 1.1//EN"
  "http://www.w3.org/Graphics/SVG/1.1/DTD/svg11.dtd">
<svg xmlns:xlink="http://www.w3.org/1999/xlink" width="119.1336pt" height="63.7pt" viewBox="0 0 119.1336 63.7" xmlns="http://www.w3.org/2000/svg" version="1.1">
 <metadata>
  <rdf:RDF xmlns:dc="http://purl.org/dc/elements/1.1/" xmlns:cc="http://creativecommons.org/ns#" xmlns:rdf="http://www.w3.org/1999/02/22-rdf-syntax-ns#">
   <cc:Work>
    <dc:type rdf:resource="http://purl.org/dc/dcmitype/StillImage"/>
    <dc:date>2022-01-12T14:17:43.689052</dc:date>
    <dc:format>image/svg+xml</dc:format>
    <dc:creator>
     <cc:Agent>
      <dc:title>Matplotlib v3.5.1, https://matplotlib.org/</dc:title>
     </cc:Agent>
    </dc:creator>
   </cc:Work>
  </rdf:RDF>
 </metadata>
 <defs>
  <style type="text/css">*{stroke-linejoin: round; stroke-linecap: butt}</style>
 </defs>
 <g id="figure_1">
  <g id="patch_1">
   <path d="M 0 63.7 
L 119.1336 63.7 
L 119.1336 0 
L 0 0 
L 0 63.7 
z
" style="fill: none"/>
  </g>
  <g id="axes_1">
   <g id="line2d_1">
    <path d="M 38.1468 49.904 
L 55.195371 49.804082 
L 56.943943 49.504327 
L 58.692514 49.004735 
L 60.441086 48.305306 
L 62.189657 47.406041 
L 64.375371 46.000939 
L 66.561086 44.283592 
L 68.7468 42.254 
L 70.932514 39.912163 
L 73.118229 37.258082 
L 74.8668 34.91 
L 74.8668 34.91 
L 72.243943 31.462816 
L 70.058229 28.933633 
L 67.872514 26.716694 
L 65.6868 24.812 
L 63.501086 23.219551 
L 61.315371 21.939347 
L 59.5668 21.14 
L 57.818229 20.54049 
L 56.069657 20.140816 
L 54.321086 19.94098 
L 53.4468 19.916 
L 38.1468 19.916 
L 38.1468 19.916 
L 40.35 22.364 
L 41.74536 24.2 
L 42.9204 26.036 
L 43.87512 27.872 
L 44.60952 29.708 
L 45.1236 31.544 
L 45.41736 33.38 
L 45.4908 35.216 
L 45.34392 37.052 
L 44.97672 38.888 
L 44.3892 40.724 
L 43.58136 42.56 
L 42.5532 44.396 
L 41.30472 46.232 
L 39.83592 48.068 
L 38.1468 49.904 
L 38.1468 49.904 
" clip-path="url(#p2b62acd7e4)" style="fill: none; stroke: #000000; stroke-width: 2; stroke-linecap: round"/>
   </g>
   <g id="line2d_2">
    <path d="M 27.4368 42.56 
L 43.58136 42.56 
" clip-path="url(#p2b62acd7e4)" style="fill: none; stroke: #000000; stroke-width: 2; stroke-linecap: round"/>
   </g>
   <g id="line2d_3">
    <path d="M 27.4368 27.26 
L 43.58136 27.26 
" clip-path="url(#p2b62acd7e4)" style="fill: none; stroke: #000000; stroke-width: 2; stroke-linecap: round"/>
   </g>
   <g id="line2d_4">
    <path d="M 27.4368 34.91 
M 74.8668 34.91 
L 85.5768 34.91 
" clip-path="url(#p2b62acd7e4)" style="fill: none; stroke: #000000; stroke-width: 2; stroke-linecap: round"/>
   </g>
   <g id="text_1">
    <g clip-path="url(#p2b62acd7e4)">
     <!-- S -->
     <g transform="translate(88.6368 38.359219)scale(0.125 -0.125)">
      <defs>
       <path id="DejaVuSans-53" d="M 3425 4513 
L 3425 3897 
Q 3066 4069 2747 4153 
Q 2428 4238 2131 4238 
Q 1616 4238 1336 4038 
Q 1056 3838 1056 3469 
Q 1056 3159 1242 3001 
Q 1428 2844 1947 2747 
L 2328 2669 
Q 3034 2534 3370 2195 
Q 3706 1856 3706 1288 
Q 3706 609 3251 259 
Q 2797 -91 1919 -91 
Q 1588 -91 1214 -16 
Q 841 59 441 206 
L 441 856 
Q 825 641 1194 531 
Q 1563 422 1919 422 
Q 2459 422 2753 634 
Q 3047 847 3047 1241 
Q 3047 1584 2836 1778 
Q 2625 1972 2144 2069 
L 1759 2144 
Q 1053 2284 737 2584 
Q 422 2884 422 3419 
Q 422 4038 858 4394 
Q 1294 4750 2059 4750 
Q 2388 4750 2728 4690 
Q 3069 4631 3425 4513 
z
" transform="scale(0.015625)"/>
      </defs>
      <use xlink:href="#DejaVuSans-53"/>
     </g>
    </g>
   </g>
   <g id="text_2">
    <g clip-path="url(#p2b62acd7e4)">
     <!-- A -->
     <g transform="translate(15.826019 30.709219)scale(0.125 -0.125)">
      <defs>
       <path id="DejaVuSans-41" d="M 2188 4044 
L 1331 1722 
L 3047 1722 
L 2188 4044 
z
M 1831 4666 
L 2547 4666 
L 4325 0 
L 3669 0 
L 3244 1197 
L 1141 1197 
L 716 0 
L 50 0 
L 1831 4666 
z
" transform="scale(0.015625)"/>
      </defs>
      <use xlink:href="#DejaVuSans-41"/>
     </g>
    </g>
   </g>
   <g id="text_3">
    <g clip-path="url(#p2b62acd7e4)">
     <!-- B -->
     <g transform="translate(15.800628 46.009219)scale(0.125 -0.125)">
      <defs>
       <path id="DejaVuSans-42" d="M 1259 2228 
L 1259 519 
L 2272 519 
Q 2781 519 3026 730 
Q 3272 941 3272 1375 
Q 3272 1813 3026 2020 
Q 2781 2228 2272 2228 
L 1259 2228 
z
M 1259 4147 
L 1259 2741 
L 2194 2741 
Q 2656 2741 2882 2914 
Q 3109 3088 3109 3444 
Q 3109 3797 2882 3972 
Q 2656 4147 2194 4147 
L 1259 4147 
z
M 628 4666 
L 2241 4666 
Q 2963 4666 3353 4366 
Q 3744 4066 3744 3513 
Q 3744 3084 3544 2831 
Q 3344 2578 2956 2516 
Q 3422 2416 3680 2098 
Q 3938 1781 3938 1306 
Q 3938 681 3513 340 
Q 3088 0 2303 0 
L 628 0 
L 628 4666 
z
" transform="scale(0.015625)"/>
      </defs>
      <use xlink:href="#DejaVuSans-42"/>
     </g>
    </g>
   </g>
  </g>
 </g>
 <defs>
  <clipPath id="p2b62acd7e4">
   <rect x="7.2" y="7.2" width="104.7336" height="49.3"/>
  </clipPath>
 </defs>
</svg>
