<?xml version="1.0" encoding="UTF-8" standalone="no"?>
<!-- Created with Digital by H.Neemann -->

<!-- created: Wed Feb 02 16:17:38 EST 2022 -->

<svg
   xmlns:dc="http://purl.org/dc/elements/1.1/"
   xmlns:cc="http://creativecommons.org/ns#"
   xmlns:rdf="http://www.w3.org/1999/02/22-rdf-syntax-ns#"
   xmlns:svg="http://www.w3.org/2000/svg"
   xmlns="http://www.w3.org/2000/svg"
   xmlns:sodipodi="http://sodipodi.sourceforge.net/DTD/sodipodi-0.dtd"
   xmlns:inkscape="http://www.inkscape.org/namespaces/inkscape"
   width="155.7mm"
   height="184.35mm"
   viewBox="38 -337 1038 1229"
   version="1.1"
   id="svg3595"
   sodipodi:docname="pal.svg"
   inkscape:version="0.92.5 (2060ec1f9f, 2020-04-08)">
  <metadata
     id="metadata3601">
    <rdf:RDF>
      <cc:Work
         rdf:about="">
        <dc:format>image/svg+xml</dc:format>
        <dc:type
           rdf:resource="http://purl.org/dc/dcmitype/StillImage" />
        <dc:title></dc:title>
      </cc:Work>
    </rdf:RDF>
  </metadata>
  <defs
     id="defs3599" />
  <sodipodi:namedview
     pagecolor="#ffffff"
     bordercolor="#666666"
     borderopacity="1"
     objecttolerance="10"
     gridtolerance="10"
     guidetolerance="10"
     inkscape:pageopacity="0"
     inkscape:pageshadow="2"
     inkscape:window-width="1848"
     inkscape:window-height="1016"
     id="namedview3597"
     showgrid="false"
     inkscape:zoom="0.95802386"
     inkscape:cx="372.70943"
     inkscape:cy="325.98884"
     inkscape:window-x="72"
     inkscape:window-y="27"
     inkscape:window-maximized="1"
     inkscape:current-layer="svg3595" />
  <path
     style="fill:none;stroke:#0000b2;stroke-width:4;stroke-linecap:square"
     inkscape:connector-curvature="0"
     id="path3233"
     d="m 180.97643,598.87765 h 460" />
  <path
     style="fill:none;stroke:#0000b2;stroke-width:4;stroke-linecap:square"
     inkscape:connector-curvature="0"
     id="path3235"
     d="m 179.67452,219.20313 h 460" />
  <path
     style="fill:none;stroke:#0000b2;stroke-width:4;stroke-linecap:square"
     inkscape:connector-curvature="0"
     id="path3237"
     d="m 720,520 h 140 7" />
  <path
     style="fill:none;stroke:#0000b2;stroke-width:4;stroke-linecap:square"
     inkscape:connector-curvature="0"
     id="path3239"
     d="m 940,520 h 60" />
  <path
     style="fill:none;stroke:#0000b2;stroke-width:4;stroke-linecap:square"
     inkscape:connector-curvature="0"
     id="path3241"
     d="m 180.97643,858.87765 h 460" />
  <path
     style="fill:none;stroke:#0000b2;stroke-width:4;stroke-linecap:square"
     inkscape:connector-curvature="0"
     id="path3243"
     d="m 100,-140 h 20 20" />
  <path
     style="fill:none;stroke:#0000b2;stroke-width:4;stroke-linecap:square"
     inkscape:connector-curvature="0"
     id="path3245"
     d="M 180,-140 H 360 V 880" />
  <path
     style="fill:none;stroke:#0000b2;stroke-width:4;stroke-linecap:square"
     inkscape:connector-curvature="0"
     id="path3247"
     d="m 720,140 h 100 v 60 h 40 4" />
  <path
     style="fill:none;stroke:#0000b2;stroke-width:4;stroke-linecap:square"
     inkscape:connector-curvature="0"
     id="path3249"
     d="m 720,780 h 140 7" />
  <path
     style="fill:none;stroke:#0000b2;stroke-width:4;stroke-linecap:square"
     inkscape:connector-curvature="0"
     id="path3251"
     d="m 940,780 h 60" />
  <path
     style="fill:none;stroke:#0000b2;stroke-width:4;stroke-linecap:square"
     inkscape:connector-curvature="0"
     id="path3253"
     d="m 120,-60 v 40 h 120 v 900" />
  <path
     style="fill:none;stroke:#0000b2;stroke-width:4;stroke-linecap:square"
     inkscape:connector-curvature="0"
     id="path3255"
     d="M 600,80 V 340 H 980 V 220" />
  <path
     style="fill:none;stroke:#0000b2;stroke-width:4;stroke-linecap:square"
     inkscape:connector-curvature="0"
     id="path3257"
     d="m 120,-320 v 40 H 480 V 880" />
  <path
     style="fill:none;stroke:#0000b2;stroke-width:4;stroke-linecap:square"
     inkscape:connector-curvature="0"
     id="path3259"
     d="m 179.67452,299.20313 h 460" />
  <path
     style="fill:none;stroke:#0000b2;stroke-width:4;stroke-linecap:square"
     inkscape:connector-curvature="0"
     id="path3261"
     d="m 720,600 h 100 v -60 h 40 4" />
  <path
     style="fill:none;stroke:#0000b2;stroke-width:4;stroke-linecap:square"
     inkscape:connector-curvature="0"
     id="path3263"
     d="m 100,-220 h 20 20" />
  <path
     style="fill:none;stroke:#0000b2;stroke-width:4;stroke-linecap:square"
     inkscape:connector-curvature="0"
     id="path3265"
     d="M 180,-220 H 440 V 880" />
  <path
     style="fill:none;stroke:#0000b2;stroke-width:4;stroke-linecap:square"
     inkscape:connector-curvature="0"
     id="path3267"
     d="m 940,220 h 40 20" />
  <path
     style="fill:none;stroke:#0000b2;stroke-width:4;stroke-linecap:square"
     inkscape:connector-curvature="0"
     id="path3269"
     d="m 720,220 h 140 7" />
  <path
     style="fill:none;stroke:#0000b2;stroke-width:4;stroke-linecap:square"
     inkscape:connector-curvature="0"
     id="path3271"
     d="m 720,860 h 100 v -60 h 40 4" />
  <path
     style="fill:none;stroke:#0000b2;stroke-width:4;stroke-linecap:square"
     inkscape:connector-curvature="0"
     id="path3273"
     d="m 120,-140 v 40 h 200 v 980" />
  <path
     style="fill:none;stroke:#0000b2;stroke-width:4;stroke-linecap:square"
     inkscape:connector-curvature="0"
     id="path3275"
     d="m 180.97643,438.87765 h 460" />
  <path
     style="fill:none;stroke:#0000b2;stroke-width:4;stroke-linecap:square"
     inkscape:connector-curvature="0"
     id="path3277"
     d="m 180.97643,698.87765 h 460" />
  <path
     style="fill:none;stroke:#0000b2;stroke-width:4;stroke-linecap:square"
     inkscape:connector-curvature="0"
     id="path3279"
     d="m 720,300 h 100 v -60 h 40 4" />
  <path
     style="fill:none;stroke:#0000b2;stroke-width:4;stroke-linecap:square"
     inkscape:connector-curvature="0"
     id="path3281"
     d="m 120,-220 v 40 H 400 V 880" />
  <path
     style="fill:none;stroke:#0000b2;stroke-width:4;stroke-linecap:square"
     inkscape:connector-curvature="0"
     id="path3283"
     d="m 180.97643,518.87765 h 460" />
  <path
     style="fill:none;stroke:#0000b2;stroke-width:4;stroke-linecap:square"
     inkscape:connector-curvature="0"
     id="path3285"
     d="m 179.67452,139.20313 h 460" />
  <path
     style="fill:none;stroke:#0000b2;stroke-width:4;stroke-linecap:square"
     inkscape:connector-curvature="0"
     id="path3287"
     d="m 720,440 h 100 v 60 h 40 4" />
  <path
     style="fill:none;stroke:#0000b2;stroke-width:4;stroke-linecap:square"
     inkscape:connector-curvature="0"
     id="path3289"
     d="m 180.97643,778.87765 h 460" />
  <path
     style="fill:none;stroke:#0000b2;stroke-width:4;stroke-linecap:square"
     inkscape:connector-curvature="0"
     id="path3291"
     d="m 100,-60 h 20 20" />
  <path
     style="fill:none;stroke:#0000b2;stroke-width:4;stroke-linecap:square"
     inkscape:connector-curvature="0"
     id="path3293"
     d="M 180,-60 H 280 V 880" />
  <path
     style="fill:none;stroke:#0000b2;stroke-width:4;stroke-linecap:square"
     inkscape:connector-curvature="0"
     id="path3295"
     d="m 920,380 h 60 v -40" />
  <path
     style="fill:none;stroke:#0000b2;stroke-width:4;stroke-linecap:square"
     inkscape:connector-curvature="0"
     id="path3297"
     d="M 560,80 V 380 H 880" />
  <path
     style="fill:none;stroke:#0000b2;stroke-width:4;stroke-linecap:square"
     inkscape:connector-curvature="0"
     id="path3299"
     d="m 720,700 h 100 v 60 h 40 4" />
  <path
     style="fill:none;stroke:#0000b2;stroke-width:4;stroke-linecap:square"
     inkscape:connector-curvature="0"
     id="path3301"
     d="m 100,-320 h 20 20" />
  <path
     style="fill:none;stroke:#0000b2;stroke-width:4;stroke-linecap:square"
     inkscape:connector-curvature="0"
     id="path3303"
     d="M 180,-320 H 520 V 880" />
  <path
     style="fill:none;stroke:#0000b2;stroke-width:4;stroke-linecap:square"
     inkscape:connector-curvature="0"
     id="path3305"
     d="M 560,380 V 880" />
  <path
     style="fill:none;stroke:#0000b2;stroke-width:4;stroke-linecap:square"
     inkscape:connector-curvature="0"
     id="path3307"
     d="M 600,340 V 880" />
  <g
     style="stroke-linecap:square"
     id="g3325">
    <circle
       style="fill:#0000b2;stroke:#0000b2;stroke-width:4"
       id="circle3309"
       r="4"
       cy="-140"
       cx="120" />
    <circle
       style="fill:#0000b2;stroke:#0000b2;stroke-width:4"
       id="circle3311"
       r="4"
       cy="340"
       cx="600" />
    <circle
       style="fill:#0000b2;stroke:#0000b2;stroke-width:4"
       id="circle3313"
       r="4"
       cy="340"
       cx="980" />
    <circle
       style="fill:#0000b2;stroke:#0000b2;stroke-width:4"
       id="circle3315"
       r="4"
       cy="-220"
       cx="120" />
    <circle
       style="fill:#0000b2;stroke:#0000b2;stroke-width:4"
       id="circle3317"
       r="4"
       cy="220"
       cx="980" />
    <circle
       style="fill:#0000b2;stroke:#0000b2;stroke-width:4"
       id="circle3319"
       r="4"
       cy="-60"
       cx="120" />
    <circle
       style="fill:#0000b2;stroke:#0000b2;stroke-width:4"
       id="circle3321"
       r="4"
       cy="380"
       cx="560" />
    <circle
       style="fill:#0000b2;stroke:#0000b2;stroke-width:4"
       id="circle3323"
       r="4"
       cy="-320"
       cx="120" />
  </g>
  <g
     style="stroke-linecap:square"
     id="g3337">
    <path
       style="fill:none;stroke:#000000;stroke-width:4"
       inkscape:connector-curvature="0"
       id="path3327"
       d="m 890,250 h -30 c 10,-16 10,-44 0,-60 h 20 c 30,0 50,10 60,30 -10,20 -30,30 -50,30 z" />
    <circle
       style="fill:#0000b2;stroke:#0000b2;stroke-width:4"
       id="circle3329"
       r="2"
       cy="200"
       cx="860" />
    <circle
       style="fill:#0000b2;stroke:#0000b2;stroke-width:4"
       id="circle3331"
       r="2"
       cy="220"
       cx="860" />
    <circle
       style="fill:#0000b2;stroke:#0000b2;stroke-width:4"
       id="circle3333"
       r="2"
       cy="240"
       cx="860" />
    <circle
       style="fill:#b20000;stroke:#b20000;stroke-width:4"
       id="circle3335"
       r="2"
       cy="220"
       cx="940" />
  </g>
  <g
     style="stroke-linecap:square"
     id="g3349">
    <path
       style="fill:none;stroke:#000000;stroke-width:4"
       inkscape:connector-curvature="0"
       id="path3339"
       d="m 890,550 h -30 c 10,-16 10,-44 0,-60 h 20 c 30,0 50,10 60,30 -10,20 -30,30 -50,30 z" />
    <circle
       style="fill:#0000b2;stroke:#0000b2;stroke-width:4"
       id="circle3341"
       r="2"
       cy="500"
       cx="860" />
    <circle
       style="fill:#0000b2;stroke:#0000b2;stroke-width:4"
       id="circle3343"
       r="2"
       cy="520"
       cx="860" />
    <circle
       style="fill:#0000b2;stroke:#0000b2;stroke-width:4"
       id="circle3345"
       r="2"
       cy="540"
       cx="860" />
    <circle
       style="fill:#b20000;stroke:#b20000;stroke-width:4"
       id="circle3347"
       r="2"
       cy="520"
       cx="940" />
  </g>
  <path
     d="m 690,250 h -49 v -60 h 49 c 10,0 30,10 29,30 0,20 -19,30 -29,30 z"
     id="path3351"
     inkscape:connector-curvature="0"
     style="fill:none;stroke:#000000;stroke-width:4;stroke-linecap:square" />
  <circle
     cx="639.6745"
     cy="219.20312"
     r="2"
     id="circle3353"
     style="fill:#0000b2;stroke:#0000b2;stroke-width:4;stroke-linecap:square" />
  <circle
     cx="720"
     cy="220"
     r="2"
     id="circle3357"
     style="fill:#b20000;stroke:#b20000;stroke-width:4;stroke-linecap:square" />
  <g
     style="stroke-linecap:square"
     id="g3369">
    <path
       style="fill:none;stroke:#000000;stroke-width:4"
       inkscape:connector-curvature="0"
       id="path3361"
       d="m 141,-232 18,12 -18,12 z" />
    <circle
       style="fill:none;stroke:#000000;stroke-width:4"
       id="circle3363"
       r="9"
       cy="-220"
       cx="170" />
    <circle
       style="fill:#0000b2;stroke:#0000b2;stroke-width:4"
       id="circle3365"
       r="2"
       cy="-220"
       cx="140" />
    <circle
       style="fill:#b20000;stroke:#b20000;stroke-width:4"
       id="circle3367"
       r="2"
       cy="-220"
       cx="180" />
  </g>
  <g
     style="stroke-linecap:square"
     id="g3379">
    <path
       style="fill:none;stroke:#000000;stroke-width:4"
       inkscape:connector-curvature="0"
       id="path3371"
       d="m 141,-152 18,12 -18,12 z" />
    <circle
       style="fill:none;stroke:#000000;stroke-width:4"
       id="circle3373"
       r="9"
       cy="-140"
       cx="170" />
    <circle
       style="fill:#0000b2;stroke:#0000b2;stroke-width:4"
       id="circle3375"
       r="2"
       cy="-140"
       cx="140" />
    <circle
       style="fill:#b20000;stroke:#b20000;stroke-width:4"
       id="circle3377"
       r="2"
       cy="-140"
       cx="180" />
  </g>
  <g
     style="stroke-linecap:square"
     id="g3389">
    <path
       style="fill:none;stroke:#000000;stroke-width:4"
       inkscape:connector-curvature="0"
       id="path3381"
       d="m 141,-72 18,12 -18,12 z" />
    <circle
       style="fill:none;stroke:#000000;stroke-width:4"
       id="circle3383"
       r="9"
       cy="-60"
       cx="170" />
    <circle
       style="fill:#0000b2;stroke:#0000b2;stroke-width:4"
       id="circle3385"
       r="2"
       cy="-60"
       cx="140" />
    <circle
       style="fill:#b20000;stroke:#b20000;stroke-width:4"
       id="circle3387"
       r="2"
       cy="-60"
       cx="180" />
  </g>
  <g
     style="stroke-linecap:square"
     id="g3401">
    <path
       style="fill:none;stroke:#000000;stroke-width:4"
       inkscape:connector-curvature="0"
       id="path3391"
       d="m 69,-235 h 30 v 30 H 69 Z" />
    <circle
       style="fill:none;stroke:#000000;stroke-width:4"
       id="circle3393"
       r="9"
       cy="-220"
       cx="84" />
    <text
       id="text3397"
       style="font-size:24px;text-anchor:end;fill:#000000"
       y="-211"
       x="55">
      <tspan
         id="tspan3395"
         style="font-style:italic">b</tspan>
    </text>
    <circle
       style="fill:#b20000;stroke:#b20000;stroke-width:4"
       id="circle3399"
       r="2"
       cy="-220"
       cx="100" />
  </g>
  <g
     style="stroke-linecap:square"
     id="g3413">
    <path
       style="fill:none;stroke:#000000;stroke-width:4"
       inkscape:connector-curvature="0"
       id="path3403"
       d="m 69,-155 h 30 v 30 H 69 Z" />
    <circle
       style="fill:none;stroke:#000000;stroke-width:4"
       id="circle3405"
       r="9"
       cy="-140"
       cx="84" />
    <text
       id="text3409"
       style="font-size:24px;text-anchor:end;fill:#000000"
       y="-131"
       x="55">
      <tspan
         id="tspan3407"
         style="font-style:italic">c</tspan>
    </text>
    <circle
       style="fill:#b20000;stroke:#b20000;stroke-width:4"
       id="circle3411"
       r="2"
       cy="-140"
       cx="100" />
  </g>
  <g
     style="stroke-linecap:square"
     id="g3425">
    <path
       style="fill:none;stroke:#000000;stroke-width:4"
       inkscape:connector-curvature="0"
       id="path3415"
       d="m 69,-75 h 30 v 30 H 69 Z" />
    <circle
       style="fill:none;stroke:#000000;stroke-width:4"
       id="circle3417"
       r="9"
       cy="-60"
       cx="84" />
    <text
       id="text3421"
       style="font-size:24px;text-anchor:end;fill:#000000"
       y="-51"
       x="55">
      <tspan
         id="tspan3419"
         style="font-style:italic">d</tspan>
    </text>
    <circle
       style="fill:#b20000;stroke:#b20000;stroke-width:4"
       id="circle3423"
       r="2"
       cy="-60"
       cx="100" />
  </g>
  <path
     d="m 690,170 h -49 v -60 h 49 c 10,0 30,10 29,30 0,20 -19,30 -29,30 z"
     id="path3427"
     inkscape:connector-curvature="0"
     style="fill:none;stroke:#000000;stroke-width:4;stroke-linecap:square" />
  <circle
     cx="639.6745"
     cy="139.20312"
     r="2"
     id="circle3429"
     style="fill:#0000b2;stroke:#0000b2;stroke-width:4;stroke-linecap:square" />
  <circle
     cx="720"
     cy="140"
     r="2"
     id="circle3433"
     style="fill:#b20000;stroke:#b20000;stroke-width:4;stroke-linecap:square" />
  <path
     d="m 690,330 h -49 v -60 h 49 c 10,0 30,10 29,30 0,20 -19,30 -29,30 z"
     id="path3437"
     inkscape:connector-curvature="0"
     style="fill:none;stroke:#000000;stroke-width:4;stroke-linecap:square" />
  <circle
     cx="639.6745"
     cy="299.20312"
     r="2"
     id="circle3439"
     style="fill:#0000b2;stroke:#0000b2;stroke-width:4;stroke-linecap:square" />
  <circle
     cx="720"
     cy="300"
     r="2"
     id="circle3443"
     style="fill:#b20000;stroke:#b20000;stroke-width:4;stroke-linecap:square" />
  <path
     d="m 690,470 h -49 v -60 h 49 c 10,0 30,10 29,30 0,20 -19,30 -29,30 z"
     id="path3447"
     inkscape:connector-curvature="0"
     style="fill:none;stroke:#000000;stroke-width:4;stroke-linecap:square" />
  <circle
     cx="640.97644"
     cy="438.87766"
     r="2"
     id="circle3449"
     style="fill:#0000b2;stroke:#0000b2;stroke-width:4;stroke-linecap:square" />
  <circle
     cx="720"
     cy="440"
     r="2"
     id="circle3453"
     style="fill:#b20000;stroke:#b20000;stroke-width:4;stroke-linecap:square" />
  <g
     style="stroke-linecap:square"
     id="g3469">
    <circle
       style="fill:none;stroke:#000000;stroke-width:4"
       id="circle3457"
       r="9"
       cy="220"
       cx="1016" />
    <circle
       style="fill:none;stroke:#000000;stroke-width:4"
       id="circle3459"
       r="15"
       cy="220"
       cx="1016" />
    <text
       id="text3465"
       style="font-size:24px;text-anchor:start;fill:#000000"
       y="229"
       x="1045">
      <tspan
         id="tspan3463"
         style="font-style:italic">F<tspan
   id="tspan3461"
   style="font-size:80.00000119%;baseline-shift:sub">1</tspan>
</tspan>
    </text>
    <circle
       style="fill:#0000b2;stroke:#0000b2;stroke-width:4"
       id="circle3467"
       r="2"
       cy="220"
       cx="1000" />
  </g>
  <g
     style="stroke-linecap:square"
     id="g3483">
    <circle
       style="fill:none;stroke:#000000;stroke-width:4"
       id="circle3471"
       r="9"
       cy="520"
       cx="1016" />
    <circle
       style="fill:none;stroke:#000000;stroke-width:4"
       id="circle3473"
       r="15"
       cy="520"
       cx="1016" />
    <text
       id="text3479"
       style="font-size:24px;text-anchor:start;fill:#000000"
       y="529"
       x="1045">
      <tspan
         id="tspan3477"
         style="font-style:italic">F<tspan
   id="tspan3475"
   style="font-size:80.00000119%;baseline-shift:sub">2</tspan>
</tspan>
    </text>
    <circle
       style="fill:#0000b2;stroke:#0000b2;stroke-width:4"
       id="circle3481"
       r="2"
       cy="520"
       cx="1000" />
  </g>
  <path
     d="m 690,630 h -49 v -60 h 49 c 10,0 30,10 29,30 0,20 -19,30 -29,30 z"
     id="path3485"
     inkscape:connector-curvature="0"
     style="fill:none;stroke:#000000;stroke-width:4;stroke-linecap:square" />
  <circle
     cx="640.97644"
     cy="598.87762"
     r="2"
     id="circle3487"
     style="fill:#0000b2;stroke:#0000b2;stroke-width:4;stroke-linecap:square" />
  <circle
     cx="720"
     cy="600"
     r="2"
     id="circle3491"
     style="fill:#b20000;stroke:#b20000;stroke-width:4;stroke-linecap:square" />
  <path
     d="m 690,550 h -49 v -60 h 49 c 10,0 30,10 29,30 0,20 -19,30 -29,30 z"
     id="path3495"
     inkscape:connector-curvature="0"
     style="fill:none;stroke:#000000;stroke-width:4;stroke-linecap:square" />
  <circle
     cx="640.97644"
     cy="518.87762"
     r="2"
     id="circle3497"
     style="fill:#0000b2;stroke:#0000b2;stroke-width:4;stroke-linecap:square" />
  <circle
     cx="720"
     cy="520"
     r="2"
     id="circle3501"
     style="fill:#b20000;stroke:#b20000;stroke-width:4;stroke-linecap:square" />
  <g
     style="stroke-linecap:square"
     id="g3513">
    <path
       style="fill:none;stroke:#000000;stroke-width:4"
       inkscape:connector-curvature="0"
       id="path3505"
       d="m 919,392 -18,-12 18,-12 z" />
    <circle
       style="fill:none;stroke:#000000;stroke-width:4"
       id="circle3507"
       r="9"
       cy="380"
       cx="890" />
    <circle
       style="fill:#0000b2;stroke:#0000b2;stroke-width:4"
       id="circle3509"
       r="2"
       cy="380"
       cx="920" />
    <circle
       style="fill:#b20000;stroke:#b20000;stroke-width:4"
       id="circle3511"
       r="2"
       cy="380"
       cx="880" />
  </g>
  <g
     style="stroke-linecap:square"
     id="g3525">
    <path
       style="fill:none;stroke:#000000;stroke-width:4"
       inkscape:connector-curvature="0"
       id="path3515"
       d="m 890,810 h -30 c 10,-16 10,-44 0,-60 h 20 c 30,0 50,10 60,30 -10,20 -30,30 -50,30 z" />
    <circle
       style="fill:#0000b2;stroke:#0000b2;stroke-width:4"
       id="circle3517"
       r="2"
       cy="760"
       cx="860" />
    <circle
       style="fill:#0000b2;stroke:#0000b2;stroke-width:4"
       id="circle3519"
       r="2"
       cy="780"
       cx="860" />
    <circle
       style="fill:#0000b2;stroke:#0000b2;stroke-width:4"
       id="circle3521"
       r="2"
       cy="800"
       cx="860" />
    <circle
       style="fill:#b20000;stroke:#b20000;stroke-width:4"
       id="circle3523"
       r="2"
       cy="780"
       cx="940" />
  </g>
  <path
     d="m 690,730 h -49 v -60 h 49 c 10,0 30,10 29,30 0,20 -19,30 -29,30 z"
     id="path3527"
     inkscape:connector-curvature="0"
     style="fill:none;stroke:#000000;stroke-width:4;stroke-linecap:square" />
  <circle
     cx="640.97644"
     cy="698.87762"
     r="2"
     id="circle3529"
     style="fill:#0000b2;stroke:#0000b2;stroke-width:4;stroke-linecap:square" />
  <circle
     cx="720"
     cy="700"
     r="2"
     id="circle3533"
     style="fill:#b20000;stroke:#b20000;stroke-width:4;stroke-linecap:square" />
  <path
     d="m 690,890 h -49 v -60 h 49 c 10,0 30,10 29,30 0,20 -19,30 -29,30 z"
     id="path3537"
     inkscape:connector-curvature="0"
     style="fill:none;stroke:#000000;stroke-width:4;stroke-linecap:square" />
  <circle
     cx="640.97644"
     cy="858.87762"
     r="2"
     id="circle3539"
     style="fill:#0000b2;stroke:#0000b2;stroke-width:4;stroke-linecap:square" />
  <circle
     cx="720"
     cy="860"
     r="2"
     id="circle3543"
     style="fill:#b20000;stroke:#b20000;stroke-width:4;stroke-linecap:square" />
  <path
     d="m 690,810 h -49 v -60 h 49 c 10,0 30,10 29,30 0,20 -19,30 -29,30 z"
     id="path3547"
     inkscape:connector-curvature="0"
     style="fill:none;stroke:#000000;stroke-width:4;stroke-linecap:square" />
  <circle
     cx="640.97644"
     cy="778.87762"
     r="2"
     id="circle3549"
     style="fill:#0000b2;stroke:#0000b2;stroke-width:4;stroke-linecap:square" />
  <circle
     cx="720"
     cy="780"
     r="2"
     id="circle3553"
     style="fill:#b20000;stroke:#b20000;stroke-width:4;stroke-linecap:square" />
  <g
     style="stroke-linecap:square"
     id="g3565">
    <path
       style="fill:none;stroke:#000000;stroke-width:4"
       inkscape:connector-curvature="0"
       id="path3557"
       d="m 141,-332 18,12 -18,12 z" />
    <circle
       style="fill:none;stroke:#000000;stroke-width:4"
       id="circle3559"
       r="9"
       cy="-320"
       cx="170" />
    <circle
       style="fill:#0000b2;stroke:#0000b2;stroke-width:4"
       id="circle3561"
       r="2"
       cy="-320"
       cx="140" />
    <circle
       style="fill:#b20000;stroke:#b20000;stroke-width:4"
       id="circle3563"
       r="2"
       cy="-320"
       cx="180" />
  </g>
  <g
     style="stroke-linecap:square"
     id="g3577">
    <path
       style="fill:none;stroke:#000000;stroke-width:4"
       inkscape:connector-curvature="0"
       id="path3567"
       d="m 69,-335 h 30 v 30 H 69 Z" />
    <circle
       style="fill:none;stroke:#000000;stroke-width:4"
       id="circle3569"
       r="9"
       cy="-320"
       cx="84" />
    <text
       id="text3573"
       style="font-size:24px;text-anchor:end;fill:#000000"
       y="-311"
       x="55">
      <tspan
         id="tspan3571"
         style="font-style:italic">a</tspan>
    </text>
    <circle
       style="fill:#b20000;stroke:#b20000;stroke-width:4"
       id="circle3575"
       r="2"
       cy="-320"
       cx="100" />
  </g>
  <g
     style="stroke-linecap:square"
     id="g3591">
    <circle
       style="fill:none;stroke:#000000;stroke-width:4"
       id="circle3579"
       r="9"
       cy="780"
       cx="1016" />
    <circle
       style="fill:none;stroke:#000000;stroke-width:4"
       id="circle3581"
       r="15"
       cy="780"
       cx="1016" />
    <text
       id="text3587"
       style="font-size:24px;text-anchor:start;fill:#000000"
       y="789"
       x="1045">
      <tspan
         id="tspan3585"
         style="font-style:italic">F<tspan
   id="tspan3583"
   style="font-size:80.00000119%;baseline-shift:sub">3</tspan>
</tspan>
    </text>
    <circle
       style="fill:#0000b2;stroke:#0000b2;stroke-width:4"
       id="circle3589"
       r="2"
       cy="780"
       cx="1000" />
  </g>
</svg>
