<?xml version="1.0" encoding="UTF-8" standalone="no"?>
<!-- Created with Digital by H.Neemann -->
<!-- created: Thu Jan 27 15:19:57 EST 2022 -->

<svg
   xmlns:svg="http://www.w3.org/2000/svg"
   xmlns="http://www.w3.org/2000/svg"
   width="100.35mm"
   height="164.1mm"
   viewBox="-8 -197 669 1094">
<g stroke-linecap="square">
<path d="M 160,560 L 160,320 L 220,320" stroke="#0000b2" stroke-width="4.0" fill="none"/>
<path d="M 300,260 L 320,260 L 320,280 L 340,280 L 344,280" stroke="#0000b2" stroke-width="4.0" fill="none"/>
<path d="M 300,580 L 320,580 L 320,560 L 340,560 L 344,560" stroke="#0000b2" stroke-width="4.0" fill="none"/>
<path d="M 140,840 L 220,840" stroke="#0000b2" stroke-width="4.0" fill="none"/>
<path d="M 540,780 L 560,780 L 580,780" stroke="#0000b2" stroke-width="4.0" fill="none"/>
<path d="M 420,780 L 480,780" stroke="#0000b2" stroke-width="4.0" fill="none"/>
<path d="M 160,-100 L 160,-80 L 180,-80 L 180,40 L 220,40" stroke="#0000b2" stroke-width="4.0" fill="none"/>
<path d="M 160,-20 L 160,80 L 220,80" stroke="#0000b2" stroke-width="4.0" fill="none"/>
<path d="M 300,20 L 320,20 L 320,40 L 340,40 L 344,40" stroke="#0000b2" stroke-width="4.0" fill="none"/>
<path d="M 300,340 L 320,340 L 320,320 L 340,320 L 344,320" stroke="#0000b2" stroke-width="4.0" fill="none"/>
<path d="M 180,520 L 180,280 L 220,280" stroke="#0000b2" stroke-width="4.0" fill="none"/>
<path d="M 140,600 L 220,600" stroke="#0000b2" stroke-width="4.0" fill="none"/>
<path d="M 540,540 L 560,540 L 580,540" stroke="#0000b2" stroke-width="4.0" fill="none"/>
<path d="M 420,540 L 480,540" stroke="#0000b2" stroke-width="4.0" fill="none"/>
<path d="M 300,100 L 320,100 L 320,80 L 340,80 L 344,80" stroke="#0000b2" stroke-width="4.0" fill="none"/>
<path d="M 300,740 L 320,740 L 320,760 L 340,760 L 344,760" stroke="#0000b2" stroke-width="4.0" fill="none"/>
<path d="M 140,360 L 220,360" stroke="#0000b2" stroke-width="4.0" fill="none"/>
<path d="M 540,300 L 560,300 L 580,300" stroke="#0000b2" stroke-width="4.0" fill="none"/>
<path d="M 420,300 L 480,300" stroke="#0000b2" stroke-width="4.0" fill="none"/>
<path d="M 460,800 L 460,560 L 480,560" stroke="#0000b2" stroke-width="4.0" fill="none"/>
<path d="M 420,880 L 460,880 L 460,800 L 480,800" stroke="#0000b2" stroke-width="4.0" fill="none"/>
<path d="M 120,-180 L 160,-180 L 160,-140" stroke="#0000b2" stroke-width="4.0" fill="none"/>
<path d="M 300,500 L 320,500 L 320,520 L 340,520 L 344,520" stroke="#0000b2" stroke-width="4.0" fill="none"/>
<path d="M 300,820 L 320,820 L 320,800 L 340,800 L 344,800" stroke="#0000b2" stroke-width="4.0" fill="none"/>
<path d="M 140,120 L 220,120" stroke="#0000b2" stroke-width="4.0" fill="none"/>
<path d="M 540,60 L 560,60 L 580,60" stroke="#0000b2" stroke-width="4.0" fill="none"/>
<path d="M 420,60 L 480,60" stroke="#0000b2" stroke-width="4.0" fill="none"/>
<path d="M 160,-80 L 160,-60" stroke="#0000b2" stroke-width="4.0" fill="none"/>
<path d="M 220,800 L 160,800 L 160,560 L 220,560" stroke="#0000b2" stroke-width="4.0" fill="none"/>
<path d="M 160,80 L 160,320" stroke="#0000b2" stroke-width="4.0" fill="none"/>
<path d="M 220,520 L 180,520 L 180,760 L 220,760" stroke="#0000b2" stroke-width="4.0" fill="none"/>
<path d="M 180,40 L 180,280" stroke="#0000b2" stroke-width="4.0" fill="none"/>
<path d="M 220,0 L 200,0 L 200,-40 L 560,-40 L 560,60" stroke="#0000b2" stroke-width="4.0" fill="none"/>
<path d="M 560,300 L 560,200 L 200,200 L 200,240 L 220,240" stroke="#0000b2" stroke-width="4.0" fill="none"/>
<path d="M 220,480 L 200,480 L 200,440 L 560,440 L 560,540" stroke="#0000b2" stroke-width="4.0" fill="none"/>
<path d="M 220,720 L 200,720 L 200,680 L 560,680 L 560,780" stroke="#0000b2" stroke-width="4.0" fill="none"/>
<path d="M 480,320 L 460,320 L 460,80 L 480,80" stroke="#0000b2" stroke-width="4.0" fill="none"/>
<path d="M 460,320 L 460,560" stroke="#0000b2" stroke-width="4.0" fill="none"/>
<g>
<circle cx="460.0" cy="320.0" r="4.0" stroke="#0000b2" stroke-width="4.0" fill="#0000b2" />
<circle cx="160.0" cy="320.0" r="4.0" stroke="#0000b2" stroke-width="4.0" fill="#0000b2" />
<circle cx="180.0" cy="520.0" r="4.0" stroke="#0000b2" stroke-width="4.0" fill="#0000b2" />
<circle cx="560.0" cy="780.0" r="4.0" stroke="#0000b2" stroke-width="4.0" fill="#0000b2" />
<circle cx="160.0" cy="-80.0" r="4.0" stroke="#0000b2" stroke-width="4.0" fill="#0000b2" />
<circle cx="160.0" cy="80.0" r="4.0" stroke="#0000b2" stroke-width="4.0" fill="#0000b2" />
<circle cx="180.0" cy="280.0" r="4.0" stroke="#0000b2" stroke-width="4.0" fill="#0000b2" />
<circle cx="560.0" cy="540.0" r="4.0" stroke="#0000b2" stroke-width="4.0" fill="#0000b2" />
<circle cx="460.0" cy="800.0" r="4.0" stroke="#0000b2" stroke-width="4.0" fill="#0000b2" />
<circle cx="180.0" cy="40.0" r="4.0" stroke="#0000b2" stroke-width="4.0" fill="#0000b2" />
<circle cx="560.0" cy="300.0" r="4.0" stroke="#0000b2" stroke-width="4.0" fill="#0000b2" />
<circle cx="460.0" cy="560.0" r="4.0" stroke="#0000b2" stroke-width="4.0" fill="#0000b2" />
<circle cx="160.0" cy="560.0" r="4.0" stroke="#0000b2" stroke-width="4.0" fill="#0000b2" />
<circle cx="560.0" cy="60.0" r="4.0" stroke="#0000b2" stroke-width="4.0" fill="#0000b2" />
</g>
<g>
<path d="M 481,50 L 539,50 L 539,90 L 481,90 Z" stroke="#000000" stroke-width="4.0" fill="none"/>
<text text-anchor="start" x="484.0" y="66.75" fill="#808080" style="font-size:18px">D</text>
<path d="M 481,87 L 488,80 L 481,73" stroke="#000000" stroke-width="2.0" fill="none"/>
<text text-anchor="start" x="491.0" y="86.75" fill="#808080" style="font-size:18px">C</text>
<text text-anchor="end" x="536.0" y="66.75" fill="#808080" style="font-size:18px">Q</text>
<text text-anchor="end" x="536.0" y="86.75" fill="#808080" style="font-size:18px"><tspan style="text-decoration:overline;">Q</tspan></text>
<text text-anchor="middle" x="510.0" y="107.5" fill="#808080" style="font-size:18px">D</text>
<circle cx="480.0" cy="60.0" r="2.0" stroke="#0000b2" stroke-width="4.0" fill="#0000b2" />
<circle cx="480.0" cy="80.0" r="2.0" stroke="#0000b2" stroke-width="4.0" fill="#0000b2" />
<circle cx="540.0" cy="60.0" r="2.0" stroke="#b20000" stroke-width="4.0" fill="#b20000" />
<circle cx="540.0" cy="80.0" r="2.0" stroke="#b20000" stroke-width="4.0" fill="#b20000" />
</g>
<g>
<circle cx="596.0" cy="60.0" r="9.0" stroke="#000000" stroke-width="4.0" fill="none" />
<circle cx="596.0" cy="60.0" r="15.0" stroke="#000000" stroke-width="4.0" fill="none" />
<text text-anchor="start" x="625.0" y="69.0" fill="#000000" style="font-size:24px"><tspan style="font-style:italic;">O<tspan style="font-size:80%;baseline-shift:sub;">1</tspan></tspan></text>
<circle cx="580.0" cy="60.0" r="2.0" stroke="#0000b2" stroke-width="4.0" fill="#0000b2" />
</g>
<g>
<path d="M 109,105 L 139,105 L 139,135 L 109,135 Z" stroke="#000000" stroke-width="4.0" fill="none"/>
<circle cx="124.0" cy="120.0" r="9.0" stroke="#000000" stroke-width="4.0" fill="none" />
<text text-anchor="end" x="95.0" y="129.0" fill="#000000" style="font-size:24px"><tspan style="font-style:italic;">I<tspan style="font-size:80%;baseline-shift:sub;">1</tspan></tspan></text>
<circle cx="140.0" cy="120.0" r="2.0" stroke="#b20000" stroke-width="4.0" fill="#b20000" />
</g>
<g>
<path d="M 370,90 L 340,90 C 350,74 350,46 340,30 L 360,30 C 390,30 410,40 420,60 C 410,80 390,90 370,90 Z" stroke="#000000" stroke-width="4.0" fill="none"/>
<circle cx="340.0" cy="40.0" r="2.0" stroke="#0000b2" stroke-width="4.0" fill="#0000b2" />
<circle cx="340.0" cy="80.0" r="2.0" stroke="#0000b2" stroke-width="4.0" fill="#0000b2" />
<circle cx="420.0" cy="60.0" r="2.0" stroke="#b20000" stroke-width="4.0" fill="#b20000" />
</g>
<g>
<path d="M 270,50 L 221,50 L 221,-10 L 270,-10 C 280,-10 300,0 299,20 C 299,40 280,50 270,50 Z" stroke="#000000" stroke-width="4.0" fill="none"/>
<circle cx="220.0" cy="0.0" r="2.0" stroke="#0000b2" stroke-width="4.0" fill="#0000b2" />
<circle cx="220.0" cy="40.0" r="2.0" stroke="#0000b2" stroke-width="4.0" fill="#0000b2" />
<circle cx="300.0" cy="20.0" r="2.0" stroke="#b20000" stroke-width="4.0" fill="#b20000" />
</g>
<g>
<path d="M 270,130 L 221,130 L 221,70 L 270,70 C 280,70 300,80 299,100 C 299,120 280,130 270,130 Z" stroke="#000000" stroke-width="4.0" fill="none"/>
<circle cx="220.0" cy="80.0" r="2.0" stroke="#0000b2" stroke-width="4.0" fill="#0000b2" />
<circle cx="220.0" cy="120.0" r="2.0" stroke="#0000b2" stroke-width="4.0" fill="#0000b2" />
<circle cx="300.0" cy="100.0" r="2.0" stroke="#b20000" stroke-width="4.0" fill="#b20000" />
</g>
<g>
<path d="M 89,-195 L 119,-195 L 119,-165 L 89,-165 Z" stroke="#000000" stroke-width="4.0" fill="none"/>
<circle cx="104.0" cy="-180.0" r="9.0" stroke="#000000" stroke-width="4.0" fill="none" />
<text text-anchor="end" x="75.0" y="-171.0" fill="#000000" style="font-size:24px"><tspan style="font-style:italic;">charge</tspan></text>
<circle cx="120.0" cy="-180.0" r="2.0" stroke="#b20000" stroke-width="4.0" fill="#b20000" />
</g>
<g>
<path d="M 172,-59 L 160,-41 L 148,-59 Z" stroke="#000000" stroke-width="4.0" fill="none"/>
<circle cx="160.0" cy="-30.0" r="9.0" stroke="#000000" stroke-width="4.0" fill="none" />
<circle cx="160.0" cy="-60.0" r="2.0" stroke="#0000b2" stroke-width="4.0" fill="#0000b2" />
<circle cx="160.0" cy="-20.0" r="2.0" stroke="#b20000" stroke-width="4.0" fill="#b20000" />
</g>
<g>
<path d="M 172,-139 L 160,-121 L 148,-139 Z" stroke="#000000" stroke-width="4.0" fill="none"/>
<circle cx="160.0" cy="-110.0" r="9.0" stroke="#000000" stroke-width="4.0" fill="none" />
<circle cx="160.0" cy="-140.0" r="2.0" stroke="#0000b2" stroke-width="4.0" fill="#0000b2" />
<circle cx="160.0" cy="-100.0" r="2.0" stroke="#b20000" stroke-width="4.0" fill="#b20000" />
</g>
<g>
<path d="M 481,290 L 539,290 L 539,330 L 481,330 Z" stroke="#000000" stroke-width="4.0" fill="none"/>
<text text-anchor="start" x="484.0" y="306.75" fill="#808080" style="font-size:18px">D</text>
<path d="M 481,327 L 488,320 L 481,313" stroke="#000000" stroke-width="2.0" fill="none"/>
<text text-anchor="start" x="491.0" y="326.75" fill="#808080" style="font-size:18px">C</text>
<text text-anchor="end" x="536.0" y="306.75" fill="#808080" style="font-size:18px">Q</text>
<text text-anchor="end" x="536.0" y="326.75" fill="#808080" style="font-size:18px"><tspan style="text-decoration:overline;">Q</tspan></text>
<text text-anchor="middle" x="510.0" y="347.5" fill="#808080" style="font-size:18px">D</text>
<circle cx="480.0" cy="300.0" r="2.0" stroke="#0000b2" stroke-width="4.0" fill="#0000b2" />
<circle cx="480.0" cy="320.0" r="2.0" stroke="#0000b2" stroke-width="4.0" fill="#0000b2" />
<circle cx="540.0" cy="300.0" r="2.0" stroke="#b20000" stroke-width="4.0" fill="#b20000" />
<circle cx="540.0" cy="320.0" r="2.0" stroke="#b20000" stroke-width="4.0" fill="#b20000" />
</g>
<g>
<circle cx="596.0" cy="300.0" r="9.0" stroke="#000000" stroke-width="4.0" fill="none" />
<circle cx="596.0" cy="300.0" r="15.0" stroke="#000000" stroke-width="4.0" fill="none" />
<text text-anchor="start" x="625.0" y="309.0" fill="#000000" style="font-size:24px"><tspan style="font-style:italic;">O<tspan style="font-size:80%;baseline-shift:sub;">2</tspan></tspan></text>
<circle cx="580.0" cy="300.0" r="2.0" stroke="#0000b2" stroke-width="4.0" fill="#0000b2" />
</g>
<g>
<path d="M 109,345 L 139,345 L 139,375 L 109,375 Z" stroke="#000000" stroke-width="4.0" fill="none"/>
<circle cx="124.0" cy="360.0" r="9.0" stroke="#000000" stroke-width="4.0" fill="none" />
<text text-anchor="end" x="95.0" y="369.0" fill="#000000" style="font-size:24px"><tspan style="font-style:italic;">I<tspan style="font-size:80%;baseline-shift:sub;">2</tspan></tspan></text>
<circle cx="140.0" cy="360.0" r="2.0" stroke="#b20000" stroke-width="4.0" fill="#b20000" />
</g>
<g>
<path d="M 370,330 L 340,330 C 350,314 350,286 340,270 L 360,270 C 390,270 410,280 420,300 C 410,320 390,330 370,330 Z" stroke="#000000" stroke-width="4.0" fill="none"/>
<circle cx="340.0" cy="280.0" r="2.0" stroke="#0000b2" stroke-width="4.0" fill="#0000b2" />
<circle cx="340.0" cy="320.0" r="2.0" stroke="#0000b2" stroke-width="4.0" fill="#0000b2" />
<circle cx="420.0" cy="300.0" r="2.0" stroke="#b20000" stroke-width="4.0" fill="#b20000" />
</g>
<g>
<path d="M 270,290 L 221,290 L 221,230 L 270,230 C 280,230 300,240 299,260 C 299,280 280,290 270,290 Z" stroke="#000000" stroke-width="4.0" fill="none"/>
<circle cx="220.0" cy="240.0" r="2.0" stroke="#0000b2" stroke-width="4.0" fill="#0000b2" />
<circle cx="220.0" cy="280.0" r="2.0" stroke="#0000b2" stroke-width="4.0" fill="#0000b2" />
<circle cx="300.0" cy="260.0" r="2.0" stroke="#b20000" stroke-width="4.0" fill="#b20000" />
</g>
<g>
<path d="M 270,370 L 221,370 L 221,310 L 270,310 C 280,310 300,320 299,340 C 299,360 280,370 270,370 Z" stroke="#000000" stroke-width="4.0" fill="none"/>
<circle cx="220.0" cy="320.0" r="2.0" stroke="#0000b2" stroke-width="4.0" fill="#0000b2" />
<circle cx="220.0" cy="360.0" r="2.0" stroke="#0000b2" stroke-width="4.0" fill="#0000b2" />
<circle cx="300.0" cy="340.0" r="2.0" stroke="#b20000" stroke-width="4.0" fill="#b20000" />
</g>
<g>
<path d="M 481,530 L 539,530 L 539,570 L 481,570 Z" stroke="#000000" stroke-width="4.0" fill="none"/>
<text text-anchor="start" x="484.0" y="546.75" fill="#808080" style="font-size:18px">D</text>
<path d="M 481,567 L 488,560 L 481,553" stroke="#000000" stroke-width="2.0" fill="none"/>
<text text-anchor="start" x="491.0" y="566.75" fill="#808080" style="font-size:18px">C</text>
<text text-anchor="end" x="536.0" y="546.75" fill="#808080" style="font-size:18px">Q</text>
<text text-anchor="end" x="536.0" y="566.75" fill="#808080" style="font-size:18px"><tspan style="text-decoration:overline;">Q</tspan></text>
<text text-anchor="middle" x="510.0" y="587.5" fill="#808080" style="font-size:18px">D</text>
<circle cx="480.0" cy="540.0" r="2.0" stroke="#0000b2" stroke-width="4.0" fill="#0000b2" />
<circle cx="480.0" cy="560.0" r="2.0" stroke="#0000b2" stroke-width="4.0" fill="#0000b2" />
<circle cx="540.0" cy="540.0" r="2.0" stroke="#b20000" stroke-width="4.0" fill="#b20000" />
<circle cx="540.0" cy="560.0" r="2.0" stroke="#b20000" stroke-width="4.0" fill="#b20000" />
</g>
<g>
<circle cx="596.0" cy="540.0" r="9.0" stroke="#000000" stroke-width="4.0" fill="none" />
<circle cx="596.0" cy="540.0" r="15.0" stroke="#000000" stroke-width="4.0" fill="none" />
<text text-anchor="start" x="625.0" y="549.0" fill="#000000" style="font-size:24px"><tspan style="font-style:italic;">O<tspan style="font-size:80%;baseline-shift:sub;">3</tspan></tspan></text>
<circle cx="580.0" cy="540.0" r="2.0" stroke="#0000b2" stroke-width="4.0" fill="#0000b2" />
</g>
<g>
<path d="M 109,585 L 139,585 L 139,615 L 109,615 Z" stroke="#000000" stroke-width="4.0" fill="none"/>
<circle cx="124.0" cy="600.0" r="9.0" stroke="#000000" stroke-width="4.0" fill="none" />
<text text-anchor="end" x="95.0" y="609.0" fill="#000000" style="font-size:24px"><tspan style="font-style:italic;">I<tspan style="font-size:80%;baseline-shift:sub;">3</tspan></tspan></text>
<circle cx="140.0" cy="600.0" r="2.0" stroke="#b20000" stroke-width="4.0" fill="#b20000" />
</g>
<g>
<path d="M 370,570 L 340,570 C 350,554 350,526 340,510 L 360,510 C 390,510 410,520 420,540 C 410,560 390,570 370,570 Z" stroke="#000000" stroke-width="4.0" fill="none"/>
<circle cx="340.0" cy="520.0" r="2.0" stroke="#0000b2" stroke-width="4.0" fill="#0000b2" />
<circle cx="340.0" cy="560.0" r="2.0" stroke="#0000b2" stroke-width="4.0" fill="#0000b2" />
<circle cx="420.0" cy="540.0" r="2.0" stroke="#b20000" stroke-width="4.0" fill="#b20000" />
</g>
<g>
<path d="M 270,530 L 221,530 L 221,470 L 270,470 C 280,470 300,480 299,500 C 299,520 280,530 270,530 Z" stroke="#000000" stroke-width="4.0" fill="none"/>
<circle cx="220.0" cy="480.0" r="2.0" stroke="#0000b2" stroke-width="4.0" fill="#0000b2" />
<circle cx="220.0" cy="520.0" r="2.0" stroke="#0000b2" stroke-width="4.0" fill="#0000b2" />
<circle cx="300.0" cy="500.0" r="2.0" stroke="#b20000" stroke-width="4.0" fill="#b20000" />
</g>
<g>
<path d="M 270,610 L 221,610 L 221,550 L 270,550 C 280,550 300,560 299,580 C 299,600 280,610 270,610 Z" stroke="#000000" stroke-width="4.0" fill="none"/>
<circle cx="220.0" cy="560.0" r="2.0" stroke="#0000b2" stroke-width="4.0" fill="#0000b2" />
<circle cx="220.0" cy="600.0" r="2.0" stroke="#0000b2" stroke-width="4.0" fill="#0000b2" />
<circle cx="300.0" cy="580.0" r="2.0" stroke="#b20000" stroke-width="4.0" fill="#b20000" />
</g>
<g>
<path d="M 481,770 L 539,770 L 539,810 L 481,810 Z" stroke="#000000" stroke-width="4.0" fill="none"/>
<text text-anchor="start" x="484.0" y="786.75" fill="#808080" style="font-size:18px">D</text>
<path d="M 481,807 L 488,800 L 481,793" stroke="#000000" stroke-width="2.0" fill="none"/>
<text text-anchor="start" x="491.0" y="806.75" fill="#808080" style="font-size:18px">C</text>
<text text-anchor="end" x="536.0" y="786.75" fill="#808080" style="font-size:18px">Q</text>
<text text-anchor="end" x="536.0" y="806.75" fill="#808080" style="font-size:18px"><tspan style="text-decoration:overline;">Q</tspan></text>
<text text-anchor="middle" x="510.0" y="827.5" fill="#808080" style="font-size:18px">D</text>
<circle cx="480.0" cy="780.0" r="2.0" stroke="#0000b2" stroke-width="4.0" fill="#0000b2" />
<circle cx="480.0" cy="800.0" r="2.0" stroke="#0000b2" stroke-width="4.0" fill="#0000b2" />
<circle cx="540.0" cy="780.0" r="2.0" stroke="#b20000" stroke-width="4.0" fill="#b20000" />
<circle cx="540.0" cy="800.0" r="2.0" stroke="#b20000" stroke-width="4.0" fill="#b20000" />
</g>
<g>
<circle cx="596.0" cy="780.0" r="9.0" stroke="#000000" stroke-width="4.0" fill="none" />
<circle cx="596.0" cy="780.0" r="15.0" stroke="#000000" stroke-width="4.0" fill="none" />
<text text-anchor="start" x="625.0" y="789.0" fill="#000000" style="font-size:24px"><tspan style="font-style:italic;">O<tspan style="font-size:80%;baseline-shift:sub;">4</tspan></tspan></text>
<circle cx="580.0" cy="780.0" r="2.0" stroke="#0000b2" stroke-width="4.0" fill="#0000b2" />
</g>
<g>
<path d="M 109,825 L 139,825 L 139,855 L 109,855 Z" stroke="#000000" stroke-width="4.0" fill="none"/>
<circle cx="124.0" cy="840.0" r="9.0" stroke="#000000" stroke-width="4.0" fill="none" />
<text text-anchor="end" x="95.0" y="849.0" fill="#000000" style="font-size:24px"><tspan style="font-style:italic;">I<tspan style="font-size:80%;baseline-shift:sub;">4</tspan></tspan></text>
<circle cx="140.0" cy="840.0" r="2.0" stroke="#b20000" stroke-width="4.0" fill="#b20000" />
</g>
<g>
<path d="M 370,810 L 340,810 C 350,794 350,766 340,750 L 360,750 C 390,750 410,760 420,780 C 410,800 390,810 370,810 Z" stroke="#000000" stroke-width="4.0" fill="none"/>
<circle cx="340.0" cy="760.0" r="2.0" stroke="#0000b2" stroke-width="4.0" fill="#0000b2" />
<circle cx="340.0" cy="800.0" r="2.0" stroke="#0000b2" stroke-width="4.0" fill="#0000b2" />
<circle cx="420.0" cy="780.0" r="2.0" stroke="#b20000" stroke-width="4.0" fill="#b20000" />
</g>
<g>
<path d="M 270,770 L 221,770 L 221,710 L 270,710 C 280,710 300,720 299,740 C 299,760 280,770 270,770 Z" stroke="#000000" stroke-width="4.0" fill="none"/>
<circle cx="220.0" cy="720.0" r="2.0" stroke="#0000b2" stroke-width="4.0" fill="#0000b2" />
<circle cx="220.0" cy="760.0" r="2.0" stroke="#0000b2" stroke-width="4.0" fill="#0000b2" />
<circle cx="300.0" cy="740.0" r="2.0" stroke="#b20000" stroke-width="4.0" fill="#b20000" />
</g>
<g>
<path d="M 270,850 L 221,850 L 221,790 L 270,790 C 280,790 300,800 299,820 C 299,840 280,850 270,850 Z" stroke="#000000" stroke-width="4.0" fill="none"/>
<circle cx="220.0" cy="800.0" r="2.0" stroke="#0000b2" stroke-width="4.0" fill="#0000b2" />
<circle cx="220.0" cy="840.0" r="2.0" stroke="#0000b2" stroke-width="4.0" fill="#0000b2" />
<circle cx="300.0" cy="820.0" r="2.0" stroke="#b20000" stroke-width="4.0" fill="#b20000" />
</g>
<g>
<path d="M 389,865 L 419,865 L 419,895 L 389,895 Z" stroke="#000000" stroke-width="4.0" fill="none"/>
<path d="M 395,885 L 400,885 L 400,875 L 405,875 L 405,885 L 410,885 L 410,875 L 415,875" stroke="#000000" stroke-width="2.0" fill="none"/>
<circle cx="420.0" cy="880.0" r="2.0" stroke="#b20000" stroke-width="4.0" fill="#b20000" />
</g>
</g>
</svg>