<?xml version="1.0" encoding="UTF-8" standalone="no"?>
<!-- Created with Digital by H.Neemann -->
<!-- created: Thu Jan 27 14:32:35 EST 2022 -->

<svg
   xmlns:svg="http://www.w3.org/2000/svg"
   xmlns="http://www.w3.org/2000/svg"
   width="46.5mm"
   height="83.1mm"
   viewBox="191 43 310 554">
<g stroke-linecap="square">
<path d="M 380,480 L 420,480" stroke="#0000b2" stroke-width="4.0" fill="none"/>
<path d="M 260,580 L 320,580 L 320,500" stroke="#0000b2" stroke-width="4.0" fill="none"/>
<path d="M 260,360 L 300,360 L 300,320" stroke="#0000b2" stroke-width="4.0" fill="none"/>
<path d="M 260,520 L 300,520 L 300,480 L 320,480" stroke="#0000b2" stroke-width="4.0" fill="none"/>
<path d="M 380,140 L 420,140" stroke="#0000b2" stroke-width="4.0" fill="none"/>
<path d="M 260,140 L 320,140" stroke="#0000b2" stroke-width="4.0" fill="none"/>
<path d="M 380,300 L 420,300" stroke="#0000b2" stroke-width="4.0" fill="none"/>
<path d="M 260,300 L 320,300" stroke="#0000b2" stroke-width="4.0" fill="none"/>
<path d="M 260,460 L 320,460" stroke="#0000b2" stroke-width="4.0" fill="none"/>
<path d="M 380,220 L 420,220" stroke="#0000b2" stroke-width="4.0" fill="none"/>
<path d="M 260,220 L 320,220" stroke="#0000b2" stroke-width="4.0" fill="none"/>
<path d="M 380,60 L 420,60" stroke="#0000b2" stroke-width="4.0" fill="none"/>
<path d="M 260,60 L 320,60" stroke="#0000b2" stroke-width="4.0" fill="none"/>
<path d="M 320,160 L 300,160 L 300,80 L 320,80" stroke="#0000b2" stroke-width="4.0" fill="none"/>
<path d="M 320,320 L 300,320 L 300,240 L 320,240" stroke="#0000b2" stroke-width="4.0" fill="none"/>
<path d="M 300,160 L 300,240" stroke="#0000b2" stroke-width="4.0" fill="none"/>
<path d="M 394,484 L 386,476" stroke="#0000b2" stroke-width="2.0" fill="none"/>
<path d="M 294,464 L 286,456" stroke="#0000b2" stroke-width="2.0" fill="none"/>
<g>
<circle cx="300.0" cy="160.0" r="4.0" stroke="#0000b2" stroke-width="4.0" fill="#0000b2" />
<circle cx="300.0" cy="320.0" r="4.0" stroke="#0000b2" stroke-width="4.0" fill="#0000b2" />
<text text-anchor="start" x="390.0" y="477.0" fill="#0000b2" style="font-size:12px">4</text>
<text text-anchor="start" x="290.0" y="457.0" fill="#0000b2" style="font-size:12px">4</text>
<circle cx="300.0" cy="240.0" r="4.0" stroke="#0000b2" stroke-width="4.0" fill="#0000b2" />
</g>
<g>
<path d="M 321,450 L 379,450 L 379,510 L 321,510 Z" stroke="#000000" stroke-width="4.0" fill="none"/>
<text text-anchor="start" x="324.0" y="466.75" fill="#808080" style="font-size:18px">D</text>
<path d="M 321,487 L 328,480 L 321,473" stroke="#000000" stroke-width="2.0" fill="none"/>
<text text-anchor="start" x="331.0" y="486.75" fill="#808080" style="font-size:18px">C</text>
<text text-anchor="start" x="324.0" y="506.75" fill="#808080" style="font-size:18px">en</text>
<text text-anchor="end" x="376.0" y="486.75" fill="#808080" style="font-size:18px">Q</text>
<text text-anchor="middle" x="350.0" y="527.5" fill="#808080" style="font-size:18px">Reg</text>
<circle cx="320.0" cy="460.0" r="2.0" stroke="#0000b2" stroke-width="4.0" fill="#0000b2" />
<circle cx="320.0" cy="480.0" r="2.0" stroke="#0000b2" stroke-width="4.0" fill="#0000b2" />
<circle cx="320.0" cy="500.0" r="2.0" stroke="#0000b2" stroke-width="4.0" fill="#0000b2" />
<circle cx="380.0" cy="480.0" r="2.0" stroke="#b20000" stroke-width="4.0" fill="#b20000" />
</g>
<g>
<path d="M 321,50 L 379,50 L 379,90 L 321,90 Z" stroke="#000000" stroke-width="4.0" fill="none"/>
<text text-anchor="start" x="324.0" y="66.75" fill="#808080" style="font-size:18px">D</text>
<path d="M 321,87 L 328,80 L 321,73" stroke="#000000" stroke-width="2.0" fill="none"/>
<text text-anchor="start" x="331.0" y="86.75" fill="#808080" style="font-size:18px">C</text>
<text text-anchor="end" x="376.0" y="66.75" fill="#808080" style="font-size:18px">Q</text>
<text text-anchor="end" x="376.0" y="86.75" fill="#808080" style="font-size:18px"><tspan style="text-decoration:overline;">Q</tspan></text>
<text text-anchor="middle" x="350.0" y="107.5" fill="#808080" style="font-size:18px">D</text>
<circle cx="320.0" cy="60.0" r="2.0" stroke="#0000b2" stroke-width="4.0" fill="#0000b2" />
<circle cx="320.0" cy="80.0" r="2.0" stroke="#0000b2" stroke-width="4.0" fill="#0000b2" />
<circle cx="380.0" cy="60.0" r="2.0" stroke="#b20000" stroke-width="4.0" fill="#b20000" />
<circle cx="380.0" cy="80.0" r="2.0" stroke="#b20000" stroke-width="4.0" fill="#b20000" />
</g>
<g>
<path d="M 321,130 L 379,130 L 379,170 L 321,170 Z" stroke="#000000" stroke-width="4.0" fill="none"/>
<text text-anchor="start" x="324.0" y="146.75" fill="#808080" style="font-size:18px">D</text>
<path d="M 321,167 L 328,160 L 321,153" stroke="#000000" stroke-width="2.0" fill="none"/>
<text text-anchor="start" x="331.0" y="166.75" fill="#808080" style="font-size:18px">C</text>
<text text-anchor="end" x="376.0" y="146.75" fill="#808080" style="font-size:18px">Q</text>
<text text-anchor="end" x="376.0" y="166.75" fill="#808080" style="font-size:18px"><tspan style="text-decoration:overline;">Q</tspan></text>
<text text-anchor="middle" x="350.0" y="187.5" fill="#808080" style="font-size:18px">D</text>
<circle cx="320.0" cy="140.0" r="2.0" stroke="#0000b2" stroke-width="4.0" fill="#0000b2" />
<circle cx="320.0" cy="160.0" r="2.0" stroke="#0000b2" stroke-width="4.0" fill="#0000b2" />
<circle cx="380.0" cy="140.0" r="2.0" stroke="#b20000" stroke-width="4.0" fill="#b20000" />
<circle cx="380.0" cy="160.0" r="2.0" stroke="#b20000" stroke-width="4.0" fill="#b20000" />
</g>
<g>
<path d="M 321,210 L 379,210 L 379,250 L 321,250 Z" stroke="#000000" stroke-width="4.0" fill="none"/>
<text text-anchor="start" x="324.0" y="226.75" fill="#808080" style="font-size:18px">D</text>
<path d="M 321,247 L 328,240 L 321,233" stroke="#000000" stroke-width="2.0" fill="none"/>
<text text-anchor="start" x="331.0" y="246.75" fill="#808080" style="font-size:18px">C</text>
<text text-anchor="end" x="376.0" y="226.75" fill="#808080" style="font-size:18px">Q</text>
<text text-anchor="end" x="376.0" y="246.75" fill="#808080" style="font-size:18px"><tspan style="text-decoration:overline;">Q</tspan></text>
<text text-anchor="middle" x="350.0" y="267.5" fill="#808080" style="font-size:18px">D</text>
<circle cx="320.0" cy="220.0" r="2.0" stroke="#0000b2" stroke-width="4.0" fill="#0000b2" />
<circle cx="320.0" cy="240.0" r="2.0" stroke="#0000b2" stroke-width="4.0" fill="#0000b2" />
<circle cx="380.0" cy="220.0" r="2.0" stroke="#b20000" stroke-width="4.0" fill="#b20000" />
<circle cx="380.0" cy="240.0" r="2.0" stroke="#b20000" stroke-width="4.0" fill="#b20000" />
</g>
<g>
<path d="M 321,290 L 379,290 L 379,330 L 321,330 Z" stroke="#000000" stroke-width="4.0" fill="none"/>
<text text-anchor="start" x="324.0" y="306.75" fill="#808080" style="font-size:18px">D</text>
<path d="M 321,327 L 328,320 L 321,313" stroke="#000000" stroke-width="2.0" fill="none"/>
<text text-anchor="start" x="331.0" y="326.75" fill="#808080" style="font-size:18px">C</text>
<text text-anchor="end" x="376.0" y="306.75" fill="#808080" style="font-size:18px">Q</text>
<text text-anchor="end" x="376.0" y="326.75" fill="#808080" style="font-size:18px"><tspan style="text-decoration:overline;">Q</tspan></text>
<text text-anchor="middle" x="350.0" y="347.5" fill="#808080" style="font-size:18px">D</text>
<circle cx="320.0" cy="300.0" r="2.0" stroke="#0000b2" stroke-width="4.0" fill="#0000b2" />
<circle cx="320.0" cy="320.0" r="2.0" stroke="#0000b2" stroke-width="4.0" fill="#0000b2" />
<circle cx="380.0" cy="300.0" r="2.0" stroke="#b20000" stroke-width="4.0" fill="#b20000" />
<circle cx="380.0" cy="320.0" r="2.0" stroke="#b20000" stroke-width="4.0" fill="#b20000" />
</g>
<g>
<circle cx="436.0" cy="60.0" r="9.0" stroke="#000000" stroke-width="4.0" fill="none" />
<circle cx="436.0" cy="60.0" r="15.0" stroke="#000000" stroke-width="4.0" fill="none" />
<text text-anchor="start" x="465.0" y="69.0" fill="#000000" style="font-size:24px"><tspan style="font-style:italic;">O<tspan style="font-size:80%;baseline-shift:sub;">1</tspan></tspan></text>
<circle cx="420.0" cy="60.0" r="2.0" stroke="#0000b2" stroke-width="4.0" fill="#0000b2" />
</g>
<g>
<circle cx="436.0" cy="220.0" r="9.0" stroke="#000000" stroke-width="4.0" fill="none" />
<circle cx="436.0" cy="220.0" r="15.0" stroke="#000000" stroke-width="4.0" fill="none" />
<text text-anchor="start" x="465.0" y="229.0" fill="#000000" style="font-size:24px"><tspan style="font-style:italic;">O<tspan style="font-size:80%;baseline-shift:sub;">3</tspan></tspan></text>
<circle cx="420.0" cy="220.0" r="2.0" stroke="#0000b2" stroke-width="4.0" fill="#0000b2" />
</g>
<g>
<circle cx="436.0" cy="300.0" r="9.0" stroke="#000000" stroke-width="4.0" fill="none" />
<circle cx="436.0" cy="300.0" r="15.0" stroke="#000000" stroke-width="4.0" fill="none" />
<text text-anchor="start" x="465.0" y="309.0" fill="#000000" style="font-size:24px"><tspan style="font-style:italic;">O<tspan style="font-size:80%;baseline-shift:sub;">4</tspan></tspan></text>
<circle cx="420.0" cy="300.0" r="2.0" stroke="#0000b2" stroke-width="4.0" fill="#0000b2" />
</g>
<g>
<circle cx="436.0" cy="140.0" r="9.0" stroke="#000000" stroke-width="4.0" fill="none" />
<circle cx="436.0" cy="140.0" r="15.0" stroke="#000000" stroke-width="4.0" fill="none" />
<text text-anchor="start" x="465.0" y="149.0" fill="#000000" style="font-size:24px"><tspan style="font-style:italic;">O<tspan style="font-size:80%;baseline-shift:sub;">2</tspan></tspan></text>
<circle cx="420.0" cy="140.0" r="2.0" stroke="#0000b2" stroke-width="4.0" fill="#0000b2" />
</g>
<g>
<path d="M 229,45 L 259,45 L 259,75 L 229,75 Z" stroke="#000000" stroke-width="4.0" fill="none"/>
<circle cx="244.0" cy="60.0" r="9.0" stroke="#000000" stroke-width="4.0" fill="none" />
<text text-anchor="end" x="215.0" y="69.0" fill="#000000" style="font-size:24px"><tspan style="font-style:italic;">I<tspan style="font-size:80%;baseline-shift:sub;">1</tspan></tspan></text>
<circle cx="260.0" cy="60.0" r="2.0" stroke="#b20000" stroke-width="4.0" fill="#b20000" />
</g>
<g>
<path d="M 229,125 L 259,125 L 259,155 L 229,155 Z" stroke="#000000" stroke-width="4.0" fill="none"/>
<circle cx="244.0" cy="140.0" r="9.0" stroke="#000000" stroke-width="4.0" fill="none" />
<text text-anchor="end" x="215.0" y="149.0" fill="#000000" style="font-size:24px"><tspan style="font-style:italic;">I<tspan style="font-size:80%;baseline-shift:sub;">2</tspan></tspan></text>
<circle cx="260.0" cy="140.0" r="2.0" stroke="#b20000" stroke-width="4.0" fill="#b20000" />
</g>
<g>
<path d="M 229,285 L 259,285 L 259,315 L 229,315 Z" stroke="#000000" stroke-width="4.0" fill="none"/>
<circle cx="244.0" cy="300.0" r="9.0" stroke="#000000" stroke-width="4.0" fill="none" />
<text text-anchor="end" x="215.0" y="309.0" fill="#000000" style="font-size:24px"><tspan style="font-style:italic;">I<tspan style="font-size:80%;baseline-shift:sub;">4</tspan></tspan></text>
<circle cx="260.0" cy="300.0" r="2.0" stroke="#b20000" stroke-width="4.0" fill="#b20000" />
</g>
<g>
<path d="M 229,205 L 259,205 L 259,235 L 229,235 Z" stroke="#000000" stroke-width="4.0" fill="none"/>
<circle cx="244.0" cy="220.0" r="9.0" stroke="#000000" stroke-width="4.0" fill="none" />
<text text-anchor="end" x="215.0" y="229.0" fill="#000000" style="font-size:24px"><tspan style="font-style:italic;">I<tspan style="font-size:80%;baseline-shift:sub;">3</tspan></tspan></text>
<circle cx="260.0" cy="220.0" r="2.0" stroke="#b20000" stroke-width="4.0" fill="#b20000" />
</g>
<g>
<path d="M 229,445 L 259,445 L 259,475 L 229,475 Z" stroke="#000000" stroke-width="4.0" fill="none"/>
<circle cx="244.0" cy="460.0" r="9.0" stroke="#000000" stroke-width="4.0" fill="none" />
<text text-anchor="end" x="215.0" y="469.0" fill="#000000" style="font-size:24px"><tspan style="font-style:italic;">I</tspan></text>
<circle cx="260.0" cy="460.0" r="2.0" stroke="#b20000" stroke-width="4.0" fill="#b20000" />
</g>
<g>
<circle cx="436.0" cy="480.0" r="9.0" stroke="#000000" stroke-width="4.0" fill="none" />
<circle cx="436.0" cy="480.0" r="15.0" stroke="#000000" stroke-width="4.0" fill="none" />
<text text-anchor="start" x="465.0" y="489.0" fill="#000000" style="font-size:24px"><tspan style="font-style:italic;">O</tspan></text>
<circle cx="420.0" cy="480.0" r="2.0" stroke="#0000b2" stroke-width="4.0" fill="#0000b2" />
</g>
<g>
<path d="M 229,565 L 259,565 L 259,595 L 229,595 Z" stroke="#000000" stroke-width="4.0" fill="none"/>
<circle cx="244.0" cy="580.0" r="9.0" stroke="#000000" stroke-width="4.0" fill="none" />
<text text-anchor="end" x="215.0" y="589.0" fill="#000000" style="font-size:24px"><tspan style="font-style:italic;">E</tspan></text>
<circle cx="260.0" cy="580.0" r="2.0" stroke="#b20000" stroke-width="4.0" fill="#b20000" />
</g>
<g>
<path d="M 229,345 L 259,345 L 259,375 L 229,375 Z" stroke="#000000" stroke-width="4.0" fill="none"/>
<path d="M 235,365 L 240,365 L 240,355 L 245,355 L 245,365 L 250,365 L 250,355 L 255,355" stroke="#000000" stroke-width="2.0" fill="none"/>
<circle cx="260.0" cy="360.0" r="2.0" stroke="#b20000" stroke-width="4.0" fill="#b20000" />
</g>
<g>
<path d="M 229,505 L 259,505 L 259,535 L 229,535 Z" stroke="#000000" stroke-width="4.0" fill="none"/>
<path d="M 235,525 L 240,525 L 240,515 L 245,515 L 245,525 L 250,525 L 250,515 L 255,515" stroke="#000000" stroke-width="2.0" fill="none"/>
<circle cx="260.0" cy="520.0" r="2.0" stroke="#b20000" stroke-width="4.0" fill="#b20000" />
</g>
</g>
</svg>