<?xml version="1.0" encoding="UTF-8" standalone="no"?>
<!-- Created with Digital by H.Neemann -->
<!-- created: Wed Jan 26 12:55:27 EST 2022 -->

<svg
   xmlns:svg="http://www.w3.org/2000/svg"
   xmlns="http://www.w3.org/2000/svg"
   width="136.8mm"
   height="77.7mm"
   viewBox="16 -37 912 518">
<g stroke-linecap="square">
<path d="M 100,320 L 240,320" stroke="#008e00" stroke-width="4.0" fill="none"/>
<path d="M 340,220 L 340,320 L 360,320" stroke="#008e00" stroke-width="4.0" fill="none"/>
<path d="M 80,200 L 120,200 L 540,200 L 540,300 L 560,300" stroke="#008e00" stroke-width="4.0" fill="none"/>
<path d="M 140,240 L 140,280 L 240,280" stroke="#008e00" stroke-width="4.0" fill="none"/>
<path d="M 300,280 L 320,280 L 560,280" stroke="#008e00" stroke-width="4.0" fill="none"/>
<path d="M 320,280 L 320,360 L 360,360" stroke="#008e00" stroke-width="4.0" fill="none"/>
<path d="M 120,200 L 120,300 L 240,300" stroke="#008e00" stroke-width="4.0" fill="none"/>
<path d="M 620,300 L 640,300 L 640,220 L 340,220 L 140,220 L 140,240 L 20,240 L 20,300 L 40,300" stroke="#008e00" stroke-width="4.0" fill="none"/>
<path d="M 320,380 L 320,400" stroke="#008e00" stroke-width="4.0" fill="none"/>
<path d="M 40,340 L 20,340 L 20,380 L 320,380 L 320,360" stroke="#008e00" stroke-width="4.0" fill="none"/>
<path d="M 360,320 L 364,320" stroke="#0000b2" stroke-width="4.0" fill="none"/>
<path d="M 360,360 L 364,360" stroke="#0000b2" stroke-width="4.0" fill="none"/>
<path d="M 176,0 L 926,0" stroke-dasharray="4.0,4.0" stroke="#000000" stroke-width="1.0" fill="none"/>
<path d="M 176,35 L 926,35" stroke-dasharray="4.0,4.0" stroke="#000000" stroke-width="1.0" fill="none"/>
<path d="M 926,-35 L 176,-35 L 176,70 L 926,70 Z" stroke-dasharray="4.0,4.0" stroke="#000000" stroke-width="1.0" fill="none"/>
<path d="M 201,-35 L 201,70" stroke-dasharray="4.0,4.0" stroke="#000000" stroke-width="1.0" fill="none"/>
<path d="M 226,-35 L 226,70" stroke-dasharray="4.0,4.0" stroke="#000000" stroke-width="1.0" fill="none"/>
<path d="M 251,-35 L 251,70" stroke-dasharray="4.0,4.0" stroke="#000000" stroke-width="1.0" fill="none"/>
<path d="M 276,-35 L 276,70" stroke-dasharray="4.0,4.0" stroke="#000000" stroke-width="1.0" fill="none"/>
<path d="M 301,-35 L 301,70" stroke-dasharray="4.0,4.0" stroke="#000000" stroke-width="1.0" fill="none"/>
<path d="M 326,-35 L 326,70" stroke-dasharray="4.0,4.0" stroke="#000000" stroke-width="1.0" fill="none"/>
<path d="M 351,-35 L 351,70" stroke-dasharray="4.0,4.0" stroke="#000000" stroke-width="1.0" fill="none"/>
<path d="M 376,-35 L 376,70" stroke-dasharray="4.0,4.0" stroke="#000000" stroke-width="1.0" fill="none"/>
<path d="M 401,-35 L 401,70" stroke-dasharray="4.0,4.0" stroke="#000000" stroke-width="1.0" fill="none"/>
<path d="M 426,-35 L 426,70" stroke-dasharray="4.0,4.0" stroke="#000000" stroke-width="1.0" fill="none"/>
<path d="M 451,-35 L 451,70" stroke-dasharray="4.0,4.0" stroke="#000000" stroke-width="1.0" fill="none"/>
<path d="M 476,-35 L 476,70" stroke-dasharray="4.0,4.0" stroke="#000000" stroke-width="1.0" fill="none"/>
<path d="M 501,-35 L 501,70" stroke-dasharray="4.0,4.0" stroke="#000000" stroke-width="1.0" fill="none"/>
<path d="M 526,-35 L 526,70" stroke-dasharray="4.0,4.0" stroke="#000000" stroke-width="1.0" fill="none"/>
<path d="M 551,-35 L 551,70" stroke-dasharray="4.0,4.0" stroke="#000000" stroke-width="1.0" fill="none"/>
<path d="M 576,-35 L 576,70" stroke-dasharray="4.0,4.0" stroke="#000000" stroke-width="1.0" fill="none"/>
<path d="M 601,-35 L 601,70" stroke-dasharray="4.0,4.0" stroke="#000000" stroke-width="1.0" fill="none"/>
<path d="M 626,-35 L 626,70" stroke-dasharray="4.0,4.0" stroke="#000000" stroke-width="1.0" fill="none"/>
<path d="M 651,-35 L 651,70" stroke-dasharray="4.0,4.0" stroke="#000000" stroke-width="1.0" fill="none"/>
<path d="M 676,-35 L 676,70" stroke-dasharray="4.0,4.0" stroke="#000000" stroke-width="1.0" fill="none"/>
<path d="M 701,-35 L 701,70" stroke-dasharray="4.0,4.0" stroke="#000000" stroke-width="1.0" fill="none"/>
<path d="M 726,-35 L 726,70" stroke-dasharray="4.0,4.0" stroke="#000000" stroke-width="1.0" fill="none"/>
<path d="M 751,-35 L 751,70" stroke-dasharray="4.0,4.0" stroke="#000000" stroke-width="1.0" fill="none"/>
<path d="M 776,-35 L 776,70" stroke-dasharray="4.0,4.0" stroke="#000000" stroke-width="1.0" fill="none"/>
<path d="M 801,-35 L 801,70" stroke-dasharray="4.0,4.0" stroke="#000000" stroke-width="1.0" fill="none"/>
<path d="M 826,-35 L 826,70" stroke-dasharray="4.0,4.0" stroke="#000000" stroke-width="1.0" fill="none"/>
<path d="M 851,-35 L 851,70" stroke-dasharray="4.0,4.0" stroke="#000000" stroke-width="1.0" fill="none"/>
<path d="M 876,-35 L 876,70" stroke-dasharray="4.0,4.0" stroke="#000000" stroke-width="1.0" fill="none"/>
<path d="M 901,-35 L 901,70" stroke-dasharray="4.0,4.0" stroke="#000000" stroke-width="1.0" fill="none"/>
<path d="M 460,340 L 540,340 L 540,320 L 560,320" stroke="#66ff66" stroke-width="4.0" fill="none"/>
<path d="M 620,280 L 660,280 L 660,400" stroke="#66ff66" stroke-width="4.0" fill="none"/>
<path d="M 176,-30 L 201,-30 L 226,-30 L 251,-30 L 251,-5 L 276,-5 L 301,-5 L 301,-30 L 326,-30 L 351,-30 L 376,-30 L 376,-5 L 401,-5 L 426,-5 L 426,-30 L 451,-30 L 476,-30 L 501,-30 L 501,-5 L 526,-5 L 551,-5 L 551,-30 L 576,-30 L 601,-30 L 626,-30 L 626,-5 L 651,-5 L 676,-5 L 676,-30 L 701,-30 L 726,-30 L 751,-30 L 751,-5 L 776,-5 L 801,-5 L 801,-30 L 826,-30 L 851,-30 L 876,-30 L 876,-5 L 901,-5 L 926,-5" stroke="#000000" stroke-width="4.0" fill="none"/>
<path d="M 176,30 L 201,30 L 226,30 L 251,30 L 276,30 L 301,30 L 326,30 L 326,5 L 351,5 L 376,5 L 401,5 L 426,5 L 451,5 L 451,30 L 476,30 L 501,30 L 526,30 L 551,30 L 576,30 L 601,30 L 626,30 L 651,30 L 676,30 L 701,30 L 701,5 L 726,5 L 751,5 L 776,5 L 801,5 L 826,5 L 826,30 L 851,30 L 876,30 L 901,30 L 926,30" stroke="#000000" stroke-width="4.0" fill="none"/>
<path d="M 176,40 L 201,40 L 201,65 L 226,65 L 251,65 L 276,65 L 301,65 L 326,65 L 351,65 L 376,65 L 401,65 L 426,65 L 451,65 L 451,40 L 476,40 L 501,40 L 526,40 L 551,40 L 576,40 L 576,65 L 601,65 L 626,65 L 651,65 L 676,65 L 701,65 L 726,65 L 751,65 L 776,65 L 801,65 L 826,65 L 826,40 L 851,40 L 876,40 L 901,40 L 926,40" stroke="#000000" stroke-width="4.0" fill="none"/>
<g>
<circle cx="140.0" cy="240.0" r="4.0" stroke="#008e00" stroke-width="4.0" fill="#008e00" />
<circle cx="120.0" cy="200.0" r="4.0" stroke="#008e00" stroke-width="4.0" fill="#008e00" />
<circle cx="320.0" cy="280.0" r="4.0" stroke="#008e00" stroke-width="4.0" fill="#008e00" />
<circle cx="320.0" cy="360.0" r="4.0" stroke="#008e00" stroke-width="4.0" fill="#008e00" />
<circle cx="320.0" cy="380.0" r="4.0" stroke="#008e00" stroke-width="4.0" fill="#008e00" />
<circle cx="340.0" cy="220.0" r="4.0" stroke="#008e00" stroke-width="4.0" fill="#008e00" />
</g>
<g>
<circle cx="320.0" cy="416.0" r="9.0" stroke="#008e00" stroke-width="4.0" fill="#008e00" />
<circle cx="320.0" cy="416.0" r="15.0" stroke="#000000" stroke-width="4.0" fill="none" />
<text text-anchor="end" x="320.0" y="454.0" fill="#000000" style="font-size:24px" transform="rotate(-90,320.0,445.0)" ><tspan style="font-style:italic;">Q<tspan style="font-size:80%;baseline-shift:sub;">0</tspan></tspan></text>
<circle cx="320.0" cy="400.0" r="2.0" stroke="#0000b2" stroke-width="4.0" fill="#0000b2" />
</g>
<g>
<path d="M 241,270 L 299,270 L 299,330 L 241,330 Z" stroke="#000000" stroke-width="4.0" fill="none"/>
<text text-anchor="middle" x="270.0" y="262.0" fill="#000000" style="font-size:24px">q<tspan style="font-size:80%;baseline-shift:sub;">0</tspan><tspan style="font-size:80%;baseline-shift:super;">n</tspan></text>
<text text-anchor="start" x="244.0" y="286.75" fill="#808080" style="font-size:18px">J</text>
<path d="M 241,307 L 248,300 L 241,293" stroke="#000000" stroke-width="2.0" fill="none"/>
<text text-anchor="start" x="251.0" y="306.75" fill="#808080" style="font-size:18px">C</text>
<text text-anchor="start" x="244.0" y="326.75" fill="#808080" style="font-size:18px">K</text>
<text text-anchor="end" x="296.0" y="286.75" fill="#808080" style="font-size:18px">Q</text>
<text text-anchor="end" x="296.0" y="306.75" fill="#808080" style="font-size:18px"><tspan style="text-decoration:overline;">Q</tspan></text>
<text text-anchor="middle" x="270.0" y="347.5" fill="#808080" style="font-size:18px">JK</text>
<circle cx="240.0" cy="280.0" r="2.0" stroke="#0000b2" stroke-width="4.0" fill="#0000b2" />
<circle cx="240.0" cy="300.0" r="2.0" stroke="#0000b2" stroke-width="4.0" fill="#0000b2" />
<circle cx="240.0" cy="320.0" r="2.0" stroke="#0000b2" stroke-width="4.0" fill="#0000b2" />
<circle cx="300.0" cy="280.0" r="2.0" stroke="#b20000" stroke-width="4.0" fill="#b20000" />
<circle cx="300.0" cy="300.0" r="2.0" stroke="#b20000" stroke-width="4.0" fill="#b20000" />
</g>
<g>
<path d="M 561,270 L 619,270 L 619,330 L 561,330 Z" stroke="#000000" stroke-width="4.0" fill="none"/>
<text text-anchor="middle" x="590.0" y="262.0" fill="#000000" style="font-size:24px">q<tspan style="font-size:80%;baseline-shift:sub;">1</tspan><tspan style="font-size:80%;baseline-shift:super;">n</tspan></text>
<text text-anchor="start" x="564.0" y="286.75" fill="#808080" style="font-size:18px">J</text>
<path d="M 561,307 L 568,300 L 561,293" stroke="#000000" stroke-width="2.0" fill="none"/>
<text text-anchor="start" x="571.0" y="306.75" fill="#808080" style="font-size:18px">C</text>
<text text-anchor="start" x="564.0" y="326.75" fill="#808080" style="font-size:18px">K</text>
<text text-anchor="end" x="616.0" y="286.75" fill="#808080" style="font-size:18px">Q</text>
<text text-anchor="end" x="616.0" y="306.75" fill="#808080" style="font-size:18px"><tspan style="text-decoration:overline;">Q</tspan></text>
<text text-anchor="middle" x="590.0" y="347.5" fill="#808080" style="font-size:18px">JK</text>
<circle cx="560.0" cy="280.0" r="2.0" stroke="#0000b2" stroke-width="4.0" fill="#0000b2" />
<circle cx="560.0" cy="300.0" r="2.0" stroke="#0000b2" stroke-width="4.0" fill="#0000b2" />
<circle cx="560.0" cy="320.0" r="2.0" stroke="#0000b2" stroke-width="4.0" fill="#0000b2" />
<circle cx="620.0" cy="280.0" r="2.0" stroke="#b20000" stroke-width="4.0" fill="#b20000" />
<circle cx="620.0" cy="300.0" r="2.0" stroke="#b20000" stroke-width="4.0" fill="#b20000" />
</g>
<g>
<path d="M 49,185 L 79,185 L 79,215 L 49,215 Z" stroke="#000000" stroke-width="4.0" fill="none"/>
<text text-anchor="end" x="35.0" y="209.0" fill="#000000" style="font-size:24px"><tspan style="font-style:italic;">C</tspan></text>
<path d="M 55,205 L 60,205 L 60,195 L 65,195 L 65,205 L 70,205 L 70,195 L 75,195" stroke="#000000" stroke-width="2.0" fill="none"/>
<circle cx="80.0" cy="200.0" r="2.0" stroke="#b20000" stroke-width="4.0" fill="#b20000" />
</g>
<g>
<circle cx="660.0" cy="416.0" r="9.0" stroke="#66ff66" stroke-width="4.0" fill="#66ff66" />
<circle cx="660.0" cy="416.0" r="15.0" stroke="#000000" stroke-width="4.0" fill="none" />
<text text-anchor="end" x="660.0" y="454.0" fill="#000000" style="font-size:24px" transform="rotate(-90,660.0,445.0)" ><tspan style="font-style:italic;">Q<tspan style="font-size:80%;baseline-shift:sub;">1</tspan></tspan></text>
<circle cx="660.0" cy="400.0" r="2.0" stroke="#0000b2" stroke-width="4.0" fill="#0000b2" />
</g>
<g>
<text text-anchor="end" x="174.0" y="-9.0" fill="#000000" style="font-size:24px">C</text>
<text text-anchor="end" x="174.0" y="26.0" fill="#000000" style="font-size:24px">Q<tspan style="font-size:80%;baseline-shift:sub;">0</tspan></text>
<text text-anchor="end" x="174.0" y="61.0" fill="#000000" style="font-size:24px">Q<tspan style="font-size:80%;baseline-shift:sub;">1</tspan></text>
</g>
<g>
<path d="M 70,350 L 41,350 L 41,290 L 70,290 C 80,290 100,300 99,320 C 99,340 80,350 70,350 Z" stroke="#000000" stroke-width="4.0" fill="none"/>
<circle cx="40.0" cy="300.0" r="2.0" stroke="#0000b2" stroke-width="4.0" fill="#0000b2" />
<circle cx="40.0" cy="340.0" r="2.0" stroke="#0000b2" stroke-width="4.0" fill="#0000b2" />
<circle cx="100.0" cy="320.0" r="2.0" stroke="#b20000" stroke-width="4.0" fill="#b20000" />
</g>
<g>
<path d="M 390,370 L 360,370 C 370,354 370,326 360,310 L 380,310 C 410,310 430,320 440,340 C 430,360 410,370 390,370 Z" stroke="#000000" stroke-width="4.0" fill="none"/>
<circle cx="450.0" cy="340.0" r="9.0" stroke="#000000" stroke-width="4.0" fill="none" />
<circle cx="360.0" cy="320.0" r="2.0" stroke="#0000b2" stroke-width="4.0" fill="#0000b2" />
<circle cx="360.0" cy="360.0" r="2.0" stroke="#0000b2" stroke-width="4.0" fill="#0000b2" />
<circle cx="460.0" cy="340.0" r="2.0" stroke="#b20000" stroke-width="4.0" fill="#b20000" />
</g>
</g>
</svg>