<?xml version="1.0" encoding="UTF-8" standalone="no"?>
<!-- Created with Digital by H.Neemann -->
<!-- created: Wed Jan 26 12:26:33 EST 2022 -->

<svg
   xmlns:svg="http://www.w3.org/2000/svg"
   xmlns="http://www.w3.org/2000/svg"
   width="78.15mm"
   height="44.7mm"
   viewBox="96 183 521 298">
<g stroke-linecap="square">
<path d="M 180,320 L 240,320" stroke="#0000b2" stroke-width="4.0" fill="none"/>
<path d="M 340,220 L 340,320 L 360,320 L 364,320" stroke="#0000b2" stroke-width="4.0" fill="none"/>
<path d="M 460,340 L 480,340 L 480,320 L 500,320" stroke="#0000b2" stroke-width="4.0" fill="none"/>
<path d="M 160,200 L 200,200 L 480,200 L 480,300 L 500,300" stroke="#0000b2" stroke-width="4.0" fill="none"/>
<path d="M 220,240 L 220,280 L 240,280" stroke="#0000b2" stroke-width="4.0" fill="none"/>
<path d="M 300,280 L 320,280 L 500,280" stroke="#0000b2" stroke-width="4.0" fill="none"/>
<path d="M 560,280 L 600,280 L 600,400" stroke="#0000b2" stroke-width="4.0" fill="none"/>
<path d="M 320,280 L 320,360 L 360,360 L 364,360" stroke="#0000b2" stroke-width="4.0" fill="none"/>
<path d="M 200,200 L 200,300 L 240,300" stroke="#0000b2" stroke-width="4.0" fill="none"/>
<path d="M 560,300 L 580,300 L 580,220 L 340,220 L 220,220 L 220,240 L 100,240 L 100,300 L 120,300" stroke="#0000b2" stroke-width="4.0" fill="none"/>
<path d="M 320,380 L 320,400" stroke="#0000b2" stroke-width="4.0" fill="none"/>
<path d="M 120,340 L 100,340 L 100,380 L 320,380 L 320,360" stroke="#0000b2" stroke-width="4.0" fill="none"/>
<g>
<circle cx="220.0" cy="240.0" r="4.0" stroke="#0000b2" stroke-width="4.0" fill="#0000b2" />
<circle cx="200.0" cy="200.0" r="4.0" stroke="#0000b2" stroke-width="4.0" fill="#0000b2" />
<circle cx="320.0" cy="280.0" r="4.0" stroke="#0000b2" stroke-width="4.0" fill="#0000b2" />
<circle cx="320.0" cy="360.0" r="4.0" stroke="#0000b2" stroke-width="4.0" fill="#0000b2" />
<circle cx="320.0" cy="380.0" r="4.0" stroke="#0000b2" stroke-width="4.0" fill="#0000b2" />
<circle cx="340.0" cy="220.0" r="4.0" stroke="#0000b2" stroke-width="4.0" fill="#0000b2" />
</g>
<g>
<circle cx="320.0" cy="416.0" r="9.0" stroke="#000000" stroke-width="4.0" fill="none" />
<circle cx="320.0" cy="416.0" r="15.0" stroke="#000000" stroke-width="4.0" fill="none" />
<text text-anchor="end" x="320.0" y="454.0" fill="#000000" style="font-size:24px" transform="rotate(-90,320.0,445.0)" ><tspan style="font-style:italic;">Q<tspan style="font-size:80%;baseline-shift:sub;">0</tspan></tspan></text>
<circle cx="320.0" cy="400.0" r="2.0" stroke="#0000b2" stroke-width="4.0" fill="#0000b2" />
</g>
<g>
<path d="M 241,270 L 299,270 L 299,330 L 241,330 Z" stroke="#000000" stroke-width="4.0" fill="none"/>
<text text-anchor="middle" x="270.0" y="262.0" fill="#000000" style="font-size:24px">q<tspan style="font-size:80%;baseline-shift:sub;">0</tspan><tspan style="font-size:80%;baseline-shift:super;">n</tspan></text>
<text text-anchor="start" x="244.0" y="286.75" fill="#808080" style="font-size:18px">J</text>
<path d="M 241,307 L 248,300 L 241,293" stroke="#000000" stroke-width="2.0" fill="none"/>
<text text-anchor="start" x="251.0" y="306.75" fill="#808080" style="font-size:18px">C</text>
<text text-anchor="start" x="244.0" y="326.75" fill="#808080" style="font-size:18px">K</text>
<text text-anchor="end" x="296.0" y="286.75" fill="#808080" style="font-size:18px">Q</text>
<text text-anchor="end" x="296.0" y="306.75" fill="#808080" style="font-size:18px"><tspan style="text-decoration:overline;">Q</tspan></text>
<text text-anchor="middle" x="270.0" y="347.5" fill="#808080" style="font-size:18px">JK</text>
<circle cx="240.0" cy="280.0" r="2.0" stroke="#0000b2" stroke-width="4.0" fill="#0000b2" />
<circle cx="240.0" cy="300.0" r="2.0" stroke="#0000b2" stroke-width="4.0" fill="#0000b2" />
<circle cx="240.0" cy="320.0" r="2.0" stroke="#0000b2" stroke-width="4.0" fill="#0000b2" />
<circle cx="300.0" cy="280.0" r="2.0" stroke="#b20000" stroke-width="4.0" fill="#b20000" />
<circle cx="300.0" cy="300.0" r="2.0" stroke="#b20000" stroke-width="4.0" fill="#b20000" />
</g>
<g>
<path d="M 501,270 L 559,270 L 559,330 L 501,330 Z" stroke="#000000" stroke-width="4.0" fill="none"/>
<text text-anchor="middle" x="530.0" y="262.0" fill="#000000" style="font-size:24px">q<tspan style="font-size:80%;baseline-shift:sub;">1</tspan><tspan style="font-size:80%;baseline-shift:super;">n</tspan></text>
<text text-anchor="start" x="504.0" y="286.75" fill="#808080" style="font-size:18px">J</text>
<path d="M 501,307 L 508,300 L 501,293" stroke="#000000" stroke-width="2.0" fill="none"/>
<text text-anchor="start" x="511.0" y="306.75" fill="#808080" style="font-size:18px">C</text>
<text text-anchor="start" x="504.0" y="326.75" fill="#808080" style="font-size:18px">K</text>
<text text-anchor="end" x="556.0" y="286.75" fill="#808080" style="font-size:18px">Q</text>
<text text-anchor="end" x="556.0" y="306.75" fill="#808080" style="font-size:18px"><tspan style="text-decoration:overline;">Q</tspan></text>
<text text-anchor="middle" x="530.0" y="347.5" fill="#808080" style="font-size:18px">JK</text>
<circle cx="500.0" cy="280.0" r="2.0" stroke="#0000b2" stroke-width="4.0" fill="#0000b2" />
<circle cx="500.0" cy="300.0" r="2.0" stroke="#0000b2" stroke-width="4.0" fill="#0000b2" />
<circle cx="500.0" cy="320.0" r="2.0" stroke="#0000b2" stroke-width="4.0" fill="#0000b2" />
<circle cx="560.0" cy="280.0" r="2.0" stroke="#b20000" stroke-width="4.0" fill="#b20000" />
<circle cx="560.0" cy="300.0" r="2.0" stroke="#b20000" stroke-width="4.0" fill="#b20000" />
</g>
<g>
<path d="M 129,185 L 159,185 L 159,215 L 129,215 Z" stroke="#000000" stroke-width="4.0" fill="none"/>
<text text-anchor="end" x="115.0" y="209.0" fill="#000000" style="font-size:24px"><tspan style="font-style:italic;">C</tspan></text>
<path d="M 135,205 L 140,205 L 140,195 L 145,195 L 145,205 L 150,205 L 150,195 L 155,195" stroke="#000000" stroke-width="2.0" fill="none"/>
<circle cx="160.0" cy="200.0" r="2.0" stroke="#b20000" stroke-width="4.0" fill="#b20000" />
</g>
<g>
<circle cx="600.0" cy="416.0" r="9.0" stroke="#000000" stroke-width="4.0" fill="none" />
<circle cx="600.0" cy="416.0" r="15.0" stroke="#000000" stroke-width="4.0" fill="none" />
<text text-anchor="end" x="600.0" y="454.0" fill="#000000" style="font-size:24px" transform="rotate(-90,600.0,445.0)" ><tspan style="font-style:italic;">Q<tspan style="font-size:80%;baseline-shift:sub;">1</tspan></tspan></text>
<circle cx="600.0" cy="400.0" r="2.0" stroke="#0000b2" stroke-width="4.0" fill="#0000b2" />
</g>
<g>
<path d="M 150,350 L 121,350 L 121,290 L 150,290 C 160,290 180,300 179,320 C 179,340 160,350 150,350 Z" stroke="#000000" stroke-width="4.0" fill="none"/>
<circle cx="120.0" cy="300.0" r="2.0" stroke="#0000b2" stroke-width="4.0" fill="#0000b2" />
<circle cx="120.0" cy="340.0" r="2.0" stroke="#0000b2" stroke-width="4.0" fill="#0000b2" />
<circle cx="180.0" cy="320.0" r="2.0" stroke="#b20000" stroke-width="4.0" fill="#b20000" />
</g>
<g>
<path d="M 390,370 L 360,370 C 370,354 370,326 360,310 L 380,310 C 410,310 430,320 440,340 C 430,360 410,370 390,370 Z" stroke="#000000" stroke-width="4.0" fill="none"/>
<circle cx="450.0" cy="340.0" r="9.0" stroke="#000000" stroke-width="4.0" fill="none" />
<circle cx="360.0" cy="320.0" r="2.0" stroke="#0000b2" stroke-width="4.0" fill="#0000b2" />
<circle cx="360.0" cy="360.0" r="2.0" stroke="#0000b2" stroke-width="4.0" fill="#0000b2" />
<circle cx="460.0" cy="340.0" r="2.0" stroke="#b20000" stroke-width="4.0" fill="#b20000" />
</g>
</g>
</svg>