<?xml version="1.0" encoding="UTF-8" standalone="no"?>
<!-- Created with Digital by H.Neemann -->
<!-- created: Tue Oct 03 18:03:11 EDT 2023 -->

<svg
   xmlns:svg="http://www.w3.org/2000/svg"
   xmlns="http://www.w3.org/2000/svg"
   width="107.85mm"
   height="146.1mm"
   viewBox="-237 -222 719 974">
<g stroke-linecap="square">
<path d="M -220,260 L -220,0 L 20,0" stroke="#0000b2" stroke-width="4.0" fill="none"/>
<path d="M 100,640 L 300,640 L 300,600 L 320,600" stroke="#0000b2" stroke-width="4.0" fill="none"/>
<path d="M 380,260 L 440,260 L 440,-180 L -80,-180 L -80,-60" stroke="#0000b2" stroke-width="4.0" fill="none"/>
<path d="M -140,-20 L -140,580 L 20,580" stroke="#0000b2" stroke-width="4.0" fill="none"/>
<path d="M 220,200 L 300,200 L 300,260 L 320,260" stroke="#0000b2" stroke-width="4.0" fill="none"/>
<path d="M 220,520 L 300,520 L 300,560 L 320,560" stroke="#0000b2" stroke-width="4.0" fill="none"/>
<path d="M -200,-20 L -200,140 L 20,140" stroke="#0000b2" stroke-width="4.0" fill="none"/>
<path d="M -220,-100 L -220,-80 L -200,-80 L -200,-60" stroke="#0000b2" stroke-width="4.0" fill="none"/>
<path d="M 300,80 L 320,80" stroke="#0000b2" stroke-width="4.0" fill="none"/>
<path d="M 100,720 L 400,720" stroke="#0000b2" stroke-width="4.0" fill="none"/>
<path d="M 100,20 L 300,20 L 300,40 L 320,40" stroke="#0000b2" stroke-width="4.0" fill="none"/>
<path d="M -200,140 L -200,340 L 20,340" stroke="#0000b2" stroke-width="4.0" fill="none"/>
<path d="M 100,280 L 120,280 L 120,340 L 140,340 L 144,340" stroke="#0000b2" stroke-width="4.0" fill="none"/>
<path d="M -200,340 L -200,540 L 20,540" stroke="#0000b2" stroke-width="4.0" fill="none"/>
<path d="M 100,160 L 120,160 L 120,180 L 140,180 L 144,180" stroke="#0000b2" stroke-width="4.0" fill="none"/>
<path d="M 100,480 L 120,480 L 120,500 L 140,500 L 144,500" stroke="#0000b2" stroke-width="4.0" fill="none"/>
<path d="M -80,-20 L -80,40 L 20,40" stroke="#0000b2" stroke-width="4.0" fill="none"/>
<path d="M 100,360 L 140,360 L 147,360" stroke="#0000b2" stroke-width="4.0" fill="none"/>
<path d="M 240,360 L 300,360 L 300,300 L 320,300" stroke="#0000b2" stroke-width="4.0" fill="none"/>
<path d="M -80,40 L -80,560 L 20,560" stroke="#0000b2" stroke-width="4.0" fill="none"/>
<path d="M 100,560 L 120,560 L 120,540 L 140,540 L 144,540" stroke="#0000b2" stroke-width="4.0" fill="none"/>
<path d="M -20,-20 L -20,180 L 20,180" stroke="#0000b2" stroke-width="4.0" fill="none"/>
<path d="M -160,420 L -160,500 L 20,500" stroke="#0000b2" stroke-width="4.0" fill="none"/>
<path d="M -20,180 L -20,380 L 20,380" stroke="#0000b2" stroke-width="4.0" fill="none"/>
<path d="M 280,-20 L 280,60 L 320,60" stroke="#0000b2" stroke-width="4.0" fill="none"/>
<path d="M 20,660 L -140,660 L -140,740 L 20,740" stroke="#0000b2" stroke-width="4.0" fill="none"/>
<path d="M -140,580 L -140,660" stroke="#0000b2" stroke-width="4.0" fill="none"/>
<path d="M 380,560 L 480,560 L 480,-140 L -20,-140 L -20,-80 L -40,-80 L -40,300 L 20,300" stroke="#0000b2" stroke-width="4.0" fill="none"/>
<path d="M -20,-80 L -20,-60" stroke="#0000b2" stroke-width="4.0" fill="none"/>
<path d="M 320,580 L 280,580 L 280,280 L 320,280" stroke="#0000b2" stroke-width="4.0" fill="none"/>
<path d="M 280,60 L 280,280" stroke="#0000b2" stroke-width="4.0" fill="none"/>
<path d="M 20,620 L -220,620 L -220,700 L 20,700" stroke="#0000b2" stroke-width="4.0" fill="none"/>
<path d="M 20,260 L -220,260 L -220,460 L 20,460" stroke="#0000b2" stroke-width="4.0" fill="none"/>
<path d="M -220,460 L -220,620" stroke="#0000b2" stroke-width="4.0" fill="none"/>
<path d="M -220,-80 L -220,0" stroke="#0000b2" stroke-width="4.0" fill="none"/>
<path d="M -140,-60 L -140,-80 L -160,-80 L -160,-220 L 400,-220 L 400,40 L 380,40" stroke="#0000b2" stroke-width="4.0" fill="none"/>
<path d="M 144,220 L 140,220 L -160,220 L -160,420 L 120,420 L 120,380 L 140,380 L 144,380" stroke="#0000b2" stroke-width="4.0" fill="none"/>
<path d="M -160,-80 L -160,220" stroke="#0000b2" stroke-width="4.0" fill="none"/>
<g>
<circle cx="-220.0" cy="0.0" r="4.0" stroke="#0000b2" stroke-width="4.0" fill="#0000b2" />
<circle cx="-220.0" cy="260.0" r="4.0" stroke="#0000b2" stroke-width="4.0" fill="#0000b2" />
<circle cx="-140.0" cy="580.0" r="4.0" stroke="#0000b2" stroke-width="4.0" fill="#0000b2" />
<circle cx="-200.0" cy="140.0" r="4.0" stroke="#0000b2" stroke-width="4.0" fill="#0000b2" />
<circle cx="-220.0" cy="460.0" r="4.0" stroke="#0000b2" stroke-width="4.0" fill="#0000b2" />
<circle cx="-220.0" cy="-80.0" r="4.0" stroke="#0000b2" stroke-width="4.0" fill="#0000b2" />
<circle cx="-160.0" cy="-80.0" r="4.0" stroke="#0000b2" stroke-width="4.0" fill="#0000b2" />
<circle cx="-20.0" cy="-80.0" r="4.0" stroke="#0000b2" stroke-width="4.0" fill="#0000b2" />
<circle cx="-200.0" cy="340.0" r="4.0" stroke="#0000b2" stroke-width="4.0" fill="#0000b2" />
<circle cx="-140.0" cy="660.0" r="4.0" stroke="#0000b2" stroke-width="4.0" fill="#0000b2" />
<circle cx="280.0" cy="280.0" r="4.0" stroke="#0000b2" stroke-width="4.0" fill="#0000b2" />
<circle cx="-160.0" cy="220.0" r="4.0" stroke="#0000b2" stroke-width="4.0" fill="#0000b2" />
<circle cx="-160.0" cy="420.0" r="4.0" stroke="#0000b2" stroke-width="4.0" fill="#0000b2" />
<circle cx="-80.0" cy="40.0" r="4.0" stroke="#0000b2" stroke-width="4.0" fill="#0000b2" />
<circle cx="-220.0" cy="620.0" r="4.0" stroke="#0000b2" stroke-width="4.0" fill="#0000b2" />
<circle cx="-20.0" cy="180.0" r="4.0" stroke="#0000b2" stroke-width="4.0" fill="#0000b2" />
<circle cx="280.0" cy="60.0" r="4.0" stroke="#0000b2" stroke-width="4.0" fill="#0000b2" />
</g>
<g>
<path d="M 321,30 L 379,30 L 379,90 L 321,90 Z" stroke="#000000" stroke-width="4.0" fill="none"/>
<text text-anchor="middle" x="350.0" y="22.0" fill="#000000" style="font-size:24px">Z<tspan style="font-size:80%;baseline-shift:sub;">2</tspan><tspan style="font-size:80%;baseline-shift:super;">n</tspan></text>
<text text-anchor="start" x="324.0" y="46.75" fill="#808080" style="font-size:18px">J</text>
<path d="M 321,67 L 328,60 L 321,53" stroke="#000000" stroke-width="2.0" fill="none"/>
<text text-anchor="start" x="331.0" y="66.75" fill="#808080" style="font-size:18px">C</text>
<text text-anchor="start" x="324.0" y="86.75" fill="#808080" style="font-size:18px">K</text>
<text text-anchor="end" x="376.0" y="46.75" fill="#808080" style="font-size:18px">Q</text>
<text text-anchor="end" x="376.0" y="66.75" fill="#808080" style="font-size:18px"><tspan style="text-decoration:overline;">Q</tspan></text>
<text text-anchor="middle" x="350.0" y="107.5" fill="#808080" style="font-size:18px">JK</text>
<circle cx="320.0" cy="40.0" r="2.0" stroke="#0000b2" stroke-width="4.0" fill="#0000b2" />
<circle cx="320.0" cy="60.0" r="2.0" stroke="#0000b2" stroke-width="4.0" fill="#0000b2" />
<circle cx="320.0" cy="80.0" r="2.0" stroke="#0000b2" stroke-width="4.0" fill="#0000b2" />
<circle cx="380.0" cy="40.0" r="2.0" stroke="#b20000" stroke-width="4.0" fill="#b20000" />
<circle cx="380.0" cy="60.0" r="2.0" stroke="#b20000" stroke-width="4.0" fill="#b20000" />
</g>
<g>
<path d="M 70,50 L 21,50 L 21,-10 L 70,-10 C 80,-10 100,0 99,20 C 99,40 80,50 70,50 Z" stroke="#000000" stroke-width="4.0" fill="none"/>
<circle cx="20.0" cy="0.0" r="2.0" stroke="#0000b2" stroke-width="4.0" fill="#0000b2" />
<circle cx="20.0" cy="40.0" r="2.0" stroke="#0000b2" stroke-width="4.0" fill="#0000b2" />
<circle cx="100.0" cy="20.0" r="2.0" stroke="#b20000" stroke-width="4.0" fill="#b20000" />
</g>
<g>
<text text-anchor="end" x="297.0" y="89.0" fill="#000000" style="font-size:24px">1</text>
<circle cx="300.0" cy="80.0" r="2.0" stroke="#b20000" stroke-width="4.0" fill="#b20000" />
</g>
<g>
<path d="M 321,250 L 379,250 L 379,310 L 321,310 Z" stroke="#000000" stroke-width="4.0" fill="none"/>
<text text-anchor="middle" x="350.0" y="242.0" fill="#000000" style="font-size:24px">Z<tspan style="font-size:80%;baseline-shift:sub;">1</tspan><tspan style="font-size:80%;baseline-shift:super;">n</tspan></text>
<text text-anchor="start" x="324.0" y="266.75" fill="#808080" style="font-size:18px">J</text>
<path d="M 321,287 L 328,280 L 321,273" stroke="#000000" stroke-width="2.0" fill="none"/>
<text text-anchor="start" x="331.0" y="286.75" fill="#808080" style="font-size:18px">C</text>
<text text-anchor="start" x="324.0" y="306.75" fill="#808080" style="font-size:18px">K</text>
<text text-anchor="end" x="376.0" y="266.75" fill="#808080" style="font-size:18px">Q</text>
<text text-anchor="end" x="376.0" y="286.75" fill="#808080" style="font-size:18px"><tspan style="text-decoration:overline;">Q</tspan></text>
<text text-anchor="middle" x="350.0" y="327.5" fill="#808080" style="font-size:18px">JK</text>
<circle cx="320.0" cy="260.0" r="2.0" stroke="#0000b2" stroke-width="4.0" fill="#0000b2" />
<circle cx="320.0" cy="280.0" r="2.0" stroke="#0000b2" stroke-width="4.0" fill="#0000b2" />
<circle cx="320.0" cy="300.0" r="2.0" stroke="#0000b2" stroke-width="4.0" fill="#0000b2" />
<circle cx="380.0" cy="260.0" r="2.0" stroke="#b20000" stroke-width="4.0" fill="#b20000" />
<circle cx="380.0" cy="280.0" r="2.0" stroke="#b20000" stroke-width="4.0" fill="#b20000" />
</g>
<g>
<path d="M 170,230 L 140,230 C 150,214 150,186 140,170 L 160,170 C 190,170 210,180 220,200 C 210,220 190,230 170,230 Z" stroke="#000000" stroke-width="4.0" fill="none"/>
<circle cx="140.0" cy="180.0" r="2.0" stroke="#0000b2" stroke-width="4.0" fill="#0000b2" />
<circle cx="140.0" cy="220.0" r="2.0" stroke="#0000b2" stroke-width="4.0" fill="#0000b2" />
<circle cx="220.0" cy="200.0" r="2.0" stroke="#b20000" stroke-width="4.0" fill="#b20000" />
</g>
<g>
<path d="M 70,190 L 21,190 L 21,130 L 70,130 C 80,130 100,140 99,160 C 99,180 80,190 70,190 Z" stroke="#000000" stroke-width="4.0" fill="none"/>
<circle cx="20.0" cy="140.0" r="2.0" stroke="#0000b2" stroke-width="4.0" fill="#0000b2" />
<circle cx="20.0" cy="180.0" r="2.0" stroke="#0000b2" stroke-width="4.0" fill="#0000b2" />
<circle cx="100.0" cy="160.0" r="2.0" stroke="#b20000" stroke-width="4.0" fill="#b20000" />
</g>
<g>
<path d="M 170,390 L 140,390 C 150,374 150,346 140,330 L 160,330 C 190,330 210,340 220,360 C 210,380 190,390 170,390 Z" stroke="#000000" stroke-width="4.0" fill="none"/>
<circle cx="230.0" cy="360.0" r="9.0" stroke="#000000" stroke-width="4.0" fill="none" />
<circle cx="140.0" cy="340.0" r="2.0" stroke="#0000b2" stroke-width="4.0" fill="#0000b2" />
<circle cx="140.0" cy="360.0" r="2.0" stroke="#0000b2" stroke-width="4.0" fill="#0000b2" />
<circle cx="140.0" cy="380.0" r="2.0" stroke="#0000b2" stroke-width="4.0" fill="#0000b2" />
<circle cx="240.0" cy="360.0" r="2.0" stroke="#b20000" stroke-width="4.0" fill="#b20000" />
</g>
<g>
<path d="M 70,310 L 21,310 L 21,250 L 70,250 C 80,250 100,260 99,280 C 99,300 80,310 70,310 Z" stroke="#000000" stroke-width="4.0" fill="none"/>
<circle cx="20.0" cy="260.0" r="2.0" stroke="#0000b2" stroke-width="4.0" fill="#0000b2" />
<circle cx="20.0" cy="300.0" r="2.0" stroke="#0000b2" stroke-width="4.0" fill="#0000b2" />
<circle cx="100.0" cy="280.0" r="2.0" stroke="#b20000" stroke-width="4.0" fill="#b20000" />
</g>
<g>
<path d="M 70,390 L 21,390 L 21,330 L 70,330 C 80,330 100,340 99,360 C 99,380 80,390 70,390 Z" stroke="#000000" stroke-width="4.0" fill="none"/>
<circle cx="20.0" cy="340.0" r="2.0" stroke="#0000b2" stroke-width="4.0" fill="#0000b2" />
<circle cx="20.0" cy="380.0" r="2.0" stroke="#0000b2" stroke-width="4.0" fill="#0000b2" />
<circle cx="100.0" cy="360.0" r="2.0" stroke="#b20000" stroke-width="4.0" fill="#b20000" />
</g>
<g>
<path d="M 321,550 L 379,550 L 379,610 L 321,610 Z" stroke="#000000" stroke-width="4.0" fill="none"/>
<text text-anchor="middle" x="350.0" y="542.0" fill="#000000" style="font-size:24px">Z<tspan style="font-size:80%;baseline-shift:sub;">0</tspan><tspan style="font-size:80%;baseline-shift:super;">n</tspan></text>
<text text-anchor="start" x="324.0" y="566.75" fill="#808080" style="font-size:18px">J</text>
<path d="M 321,587 L 328,580 L 321,573" stroke="#000000" stroke-width="2.0" fill="none"/>
<text text-anchor="start" x="331.0" y="586.75" fill="#808080" style="font-size:18px">C</text>
<text text-anchor="start" x="324.0" y="606.75" fill="#808080" style="font-size:18px">K</text>
<text text-anchor="end" x="376.0" y="566.75" fill="#808080" style="font-size:18px">Q</text>
<text text-anchor="end" x="376.0" y="586.75" fill="#808080" style="font-size:18px"><tspan style="text-decoration:overline;">Q</tspan></text>
<text text-anchor="middle" x="350.0" y="627.5" fill="#808080" style="font-size:18px">JK</text>
<circle cx="320.0" cy="560.0" r="2.0" stroke="#0000b2" stroke-width="4.0" fill="#0000b2" />
<circle cx="320.0" cy="580.0" r="2.0" stroke="#0000b2" stroke-width="4.0" fill="#0000b2" />
<circle cx="320.0" cy="600.0" r="2.0" stroke="#0000b2" stroke-width="4.0" fill="#0000b2" />
<circle cx="380.0" cy="560.0" r="2.0" stroke="#b20000" stroke-width="4.0" fill="#b20000" />
<circle cx="380.0" cy="580.0" r="2.0" stroke="#b20000" stroke-width="4.0" fill="#b20000" />
</g>
<g>
<path d="M 170,550 L 140,550 C 150,534 150,506 140,490 L 160,490 C 190,490 210,500 220,520 C 210,540 190,550 170,550 Z" stroke="#000000" stroke-width="4.0" fill="none"/>
<circle cx="140.0" cy="500.0" r="2.0" stroke="#0000b2" stroke-width="4.0" fill="#0000b2" />
<circle cx="140.0" cy="540.0" r="2.0" stroke="#0000b2" stroke-width="4.0" fill="#0000b2" />
<circle cx="220.0" cy="520.0" r="2.0" stroke="#b20000" stroke-width="4.0" fill="#b20000" />
</g>
<g>
<path d="M 70,510 L 21,510 L 21,450 L 70,450 C 80,450 100,460 99,480 C 99,500 80,510 70,510 Z" stroke="#000000" stroke-width="4.0" fill="none"/>
<circle cx="20.0" cy="460.0" r="2.0" stroke="#0000b2" stroke-width="4.0" fill="#0000b2" />
<circle cx="20.0" cy="500.0" r="2.0" stroke="#0000b2" stroke-width="4.0" fill="#0000b2" />
<circle cx="100.0" cy="480.0" r="2.0" stroke="#b20000" stroke-width="4.0" fill="#b20000" />
</g>
<g>
<path d="M 70,590 L 21,590 L 21,530 L 70,530 C 80,530 100,540 99,560 C 99,580 80,590 70,590 Z" stroke="#000000" stroke-width="4.0" fill="none"/>
<circle cx="20.0" cy="540.0" r="2.0" stroke="#0000b2" stroke-width="4.0" fill="#0000b2" />
<circle cx="20.0" cy="560.0" r="2.0" stroke="#0000b2" stroke-width="4.0" fill="#0000b2" />
<circle cx="20.0" cy="580.0" r="2.0" stroke="#0000b2" stroke-width="4.0" fill="#0000b2" />
<circle cx="100.0" cy="560.0" r="2.0" stroke="#b20000" stroke-width="4.0" fill="#b20000" />
</g>
<g>
<path d="M 70,670 L 21,670 L 21,610 L 70,610 C 80,610 100,620 99,640 C 99,660 80,670 70,670 Z" stroke="#000000" stroke-width="4.0" fill="none"/>
<circle cx="20.0" cy="620.0" r="2.0" stroke="#0000b2" stroke-width="4.0" fill="#0000b2" />
<circle cx="20.0" cy="660.0" r="2.0" stroke="#0000b2" stroke-width="4.0" fill="#0000b2" />
<circle cx="100.0" cy="640.0" r="2.0" stroke="#b20000" stroke-width="4.0" fill="#b20000" />
</g>
<g>
<circle cx="416.0" cy="720.0" r="9.0" stroke="#000000" stroke-width="4.0" fill="none" />
<circle cx="416.0" cy="720.0" r="15.0" stroke="#000000" stroke-width="4.0" fill="none" />
<text text-anchor="start" x="445.0" y="729.0" fill="#000000" style="font-size:24px"><tspan style="font-style:italic;">S</tspan></text>
<circle cx="400.0" cy="720.0" r="2.0" stroke="#0000b2" stroke-width="4.0" fill="#0000b2" />
</g>
<g>
<path d="M 70,750 L 21,750 L 21,690 L 70,690 C 80,690 100,700 99,720 C 99,740 80,750 70,750 Z" stroke="#000000" stroke-width="4.0" fill="none"/>
<circle cx="20.0" cy="700.0" r="2.0" stroke="#0000b2" stroke-width="4.0" fill="#0000b2" />
<circle cx="20.0" cy="740.0" r="2.0" stroke="#0000b2" stroke-width="4.0" fill="#0000b2" />
<circle cx="100.0" cy="720.0" r="2.0" stroke="#b20000" stroke-width="4.0" fill="#b20000" />
</g>
<g>
<path d="M -205,-131 L -205,-101 L -235,-101 L -235,-131 Z" stroke="#000000" stroke-width="4.0" fill="none"/>
<circle cx="-220.0" cy="-116.0" r="9.0" stroke="#000000" stroke-width="4.0" fill="none" />
<text text-anchor="start" x="-220.0" y="-136.0" fill="#000000" style="font-size:24px" transform="rotate(-90,-220.0,-145.0)" ><tspan style="font-style:italic;">A</tspan></text>
<circle cx="-220.0" cy="-100.0" r="2.0" stroke="#b20000" stroke-width="4.0" fill="#b20000" />
</g>
<g>
<path d="M -188,-59 L -200,-41 L -212,-59 Z" stroke="#000000" stroke-width="4.0" fill="none"/>
<circle cx="-200.0" cy="-30.0" r="9.0" stroke="#000000" stroke-width="4.0" fill="none" />
<circle cx="-200.0" cy="-60.0" r="2.0" stroke="#0000b2" stroke-width="4.0" fill="#0000b2" />
<circle cx="-200.0" cy="-20.0" r="2.0" stroke="#b20000" stroke-width="4.0" fill="#b20000" />
</g>
<g>
<path d="M -128,-59 L -140,-41 L -152,-59 Z" stroke="#000000" stroke-width="4.0" fill="none"/>
<circle cx="-140.0" cy="-30.0" r="9.0" stroke="#000000" stroke-width="4.0" fill="none" />
<circle cx="-140.0" cy="-60.0" r="2.0" stroke="#0000b2" stroke-width="4.0" fill="#0000b2" />
<circle cx="-140.0" cy="-20.0" r="2.0" stroke="#b20000" stroke-width="4.0" fill="#b20000" />
</g>
<g>
<path d="M -68,-59 L -80,-41 L -92,-59 Z" stroke="#000000" stroke-width="4.0" fill="none"/>
<circle cx="-80.0" cy="-30.0" r="9.0" stroke="#000000" stroke-width="4.0" fill="none" />
<circle cx="-80.0" cy="-60.0" r="2.0" stroke="#0000b2" stroke-width="4.0" fill="#0000b2" />
<circle cx="-80.0" cy="-20.0" r="2.0" stroke="#b20000" stroke-width="4.0" fill="#b20000" />
</g>
<g>
<path d="M -8,-59 L -20,-41 L -32,-59 Z" stroke="#000000" stroke-width="4.0" fill="none"/>
<circle cx="-20.0" cy="-30.0" r="9.0" stroke="#000000" stroke-width="4.0" fill="none" />
<circle cx="-20.0" cy="-60.0" r="2.0" stroke="#0000b2" stroke-width="4.0" fill="#0000b2" />
<circle cx="-20.0" cy="-20.0" r="2.0" stroke="#b20000" stroke-width="4.0" fill="#b20000" />
</g>
<g>
<path d="M 295,-51 L 295,-21 L 265,-21 L 265,-51 Z" stroke="#000000" stroke-width="4.0" fill="none"/>
<text text-anchor="start" x="280.0" y="-56.0" fill="#000000" style="font-size:24px" transform="rotate(-90,280.0,-65.0)" ><tspan style="font-style:italic;">C</tspan></text>
<path d="M 275,-45 L 275,-40 L 285,-40 L 285,-35 L 275,-35 L 275,-30 L 285,-30 L 285,-25" stroke="#000000" stroke-width="2.0" fill="none"/>
<circle cx="280.0" cy="-20.0" r="2.0" stroke="#b20000" stroke-width="4.0" fill="#b20000" />
</g>
</g>
</svg>