<?xml version="1.0" encoding="UTF-8" standalone="no"?>
<!-- Created with Digital by H.Neemann -->
<!-- created: Tue Oct 03 18:02:39 EDT 2023 -->

<svg
   xmlns:svg="http://www.w3.org/2000/svg"
   xmlns="http://www.w3.org/2000/svg"
   width="101.85mm"
   height="119.1mm"
   viewBox="-237 -202 679 794">
<g stroke-linecap="square">
<path d="M -80,20 L -80,320 L 20,320" stroke="#0000b2" stroke-width="4.0" fill="none"/>
<path d="M 100,320 L 120,320 L 120,380 L 140,380 L 144,380" stroke="#0000b2" stroke-width="4.0" fill="none"/>
<path d="M -160,-80 L -160,260 L 120,260 L 120,220 L 140,220 L 144,220" stroke="#0000b2" stroke-width="4.0" fill="none"/>
<path d="M 100,200 L 140,200 L 147,200" stroke="#0000b2" stroke-width="4.0" fill="none"/>
<path d="M 220,200 L 280,200" stroke="#0000b2" stroke-width="4.0" fill="none"/>
<path d="M 340,200 L 400,200 L 400,-200 L -100,-200 L -100,-80 L -80,-80 L -80,-60" stroke="#0000b2" stroke-width="4.0" fill="none"/>
<path d="M -20,-20 L -20,140 L 20,140" stroke="#0000b2" stroke-width="4.0" fill="none"/>
<path d="M -220,-100 L -220,-80 L -200,-80 L -200,-60" stroke="#0000b2" stroke-width="4.0" fill="none"/>
<path d="M 100,400 L 140,400 L 147,400" stroke="#0000b2" stroke-width="4.0" fill="none"/>
<path d="M 220,400 L 280,400" stroke="#0000b2" stroke-width="4.0" fill="none"/>
<path d="M 340,400 L 440,400 L 440,-120 L -40,-120 L -40,-80 L -20,-80 L -20,-60" stroke="#0000b2" stroke-width="4.0" fill="none"/>
<path d="M -80,-20 L -80,20 L 20,20" stroke="#0000b2" stroke-width="4.0" fill="none"/>
<path d="M 100,20 L 280,20" stroke="#0000b2" stroke-width="4.0" fill="none"/>
<path d="M 340,20 L 360,20 L 360,-160 L -160,-160 L -160,-80 L -140,-80 L -140,-60" stroke="#0000b2" stroke-width="4.0" fill="none"/>
<path d="M -100,-80 L -100,220 L 20,220" stroke="#0000b2" stroke-width="4.0" fill="none"/>
<path d="M 260,40 L 260,220 L 280,220" stroke="#0000b2" stroke-width="4.0" fill="none"/>
<path d="M 100,480 L 120,480 L 120,420 L 140,420 L 144,420" stroke="#0000b2" stroke-width="4.0" fill="none"/>
<path d="M -200,-20 L -200,100 L 20,100" stroke="#0000b2" stroke-width="4.0" fill="none"/>
<path d="M 260,220 L 260,420 L 280,420" stroke="#0000b2" stroke-width="4.0" fill="none"/>
<path d="M -140,-20 L -140,40 L 20,40" stroke="#0000b2" stroke-width="4.0" fill="none"/>
<path d="M 260,-40 L 260,40 L 280,40" stroke="#0000b2" stroke-width="4.0" fill="none"/>
<path d="M 100,560 L 360,560" stroke="#0000b2" stroke-width="4.0" fill="none"/>
<path d="M -160,260 L -160,500 L 20,500" stroke="#0000b2" stroke-width="4.0" fill="none"/>
<path d="M 100,120 L 120,120 L 120,180 L 140,180 L 144,180" stroke="#0000b2" stroke-width="4.0" fill="none"/>
<path d="M 20,300 L -200,300 L -200,380 L 20,380" stroke="#0000b2" stroke-width="4.0" fill="none"/>
<path d="M -200,100 L -200,300" stroke="#0000b2" stroke-width="4.0" fill="none"/>
<path d="M 20,200 L -40,200 L -40,420 L 20,420" stroke="#0000b2" stroke-width="4.0" fill="none"/>
<path d="M -40,-80 L -40,200" stroke="#0000b2" stroke-width="4.0" fill="none"/>
<path d="M 20,580 L -140,580 L -140,340 L 20,340" stroke="#0000b2" stroke-width="4.0" fill="none"/>
<path d="M -140,40 L -140,340" stroke="#0000b2" stroke-width="4.0" fill="none"/>
<path d="M 20,0 L -220,0 L -220,180 L 20,180" stroke="#0000b2" stroke-width="4.0" fill="none"/>
<path d="M 20,460 L -220,460 L -220,540 L 20,540" stroke="#0000b2" stroke-width="4.0" fill="none"/>
<path d="M -220,180 L -220,460" stroke="#0000b2" stroke-width="4.0" fill="none"/>
<path d="M -220,-80 L -220,0" stroke="#0000b2" stroke-width="4.0" fill="none"/>
<g>
<circle cx="-220.0" cy="0.0" r="4.0" stroke="#0000b2" stroke-width="4.0" fill="#0000b2" />
<circle cx="-160.0" cy="260.0" r="4.0" stroke="#0000b2" stroke-width="4.0" fill="#0000b2" />
<circle cx="-40.0" cy="200.0" r="4.0" stroke="#0000b2" stroke-width="4.0" fill="#0000b2" />
<circle cx="-220.0" cy="460.0" r="4.0" stroke="#0000b2" stroke-width="4.0" fill="#0000b2" />
<circle cx="-220.0" cy="-80.0" r="4.0" stroke="#0000b2" stroke-width="4.0" fill="#0000b2" />
<circle cx="-160.0" cy="-80.0" r="4.0" stroke="#0000b2" stroke-width="4.0" fill="#0000b2" />
<circle cx="-100.0" cy="-80.0" r="4.0" stroke="#0000b2" stroke-width="4.0" fill="#0000b2" />
<circle cx="-40.0" cy="-80.0" r="4.0" stroke="#0000b2" stroke-width="4.0" fill="#0000b2" />
<circle cx="-80.0" cy="20.0" r="4.0" stroke="#0000b2" stroke-width="4.0" fill="#0000b2" />
<circle cx="-140.0" cy="340.0" r="4.0" stroke="#0000b2" stroke-width="4.0" fill="#0000b2" />
<circle cx="260.0" cy="220.0" r="4.0" stroke="#0000b2" stroke-width="4.0" fill="#0000b2" />
<circle cx="-200.0" cy="100.0" r="4.0" stroke="#0000b2" stroke-width="4.0" fill="#0000b2" />
<circle cx="-140.0" cy="40.0" r="4.0" stroke="#0000b2" stroke-width="4.0" fill="#0000b2" />
<circle cx="260.0" cy="40.0" r="4.0" stroke="#0000b2" stroke-width="4.0" fill="#0000b2" />
<circle cx="-200.0" cy="300.0" r="4.0" stroke="#0000b2" stroke-width="4.0" fill="#0000b2" />
<circle cx="-220.0" cy="180.0" r="4.0" stroke="#0000b2" stroke-width="4.0" fill="#0000b2" />
</g>
<g>
<path d="M 281,10 L 339,10 L 339,50 L 281,50 Z" stroke="#000000" stroke-width="4.0" fill="none"/>
<text text-anchor="middle" x="310.0" y="2.0" fill="#000000" style="font-size:24px">Z<tspan style="font-size:80%;baseline-shift:sub;">2</tspan><tspan style="font-size:80%;baseline-shift:super;">n</tspan></text>
<text text-anchor="start" x="284.0" y="26.75" fill="#808080" style="font-size:18px">D</text>
<path d="M 281,47 L 288,40 L 281,33" stroke="#000000" stroke-width="2.0" fill="none"/>
<text text-anchor="start" x="291.0" y="46.75" fill="#808080" style="font-size:18px">C</text>
<text text-anchor="end" x="336.0" y="26.75" fill="#808080" style="font-size:18px">Q</text>
<text text-anchor="end" x="336.0" y="46.75" fill="#808080" style="font-size:18px"><tspan style="text-decoration:overline;">Q</tspan></text>
<text text-anchor="middle" x="310.0" y="67.5" fill="#808080" style="font-size:18px">D</text>
<circle cx="280.0" cy="20.0" r="2.0" stroke="#0000b2" stroke-width="4.0" fill="#0000b2" />
<circle cx="280.0" cy="40.0" r="2.0" stroke="#0000b2" stroke-width="4.0" fill="#0000b2" />
<circle cx="340.0" cy="20.0" r="2.0" stroke="#b20000" stroke-width="4.0" fill="#b20000" />
<circle cx="340.0" cy="40.0" r="2.0" stroke="#b20000" stroke-width="4.0" fill="#b20000" />
</g>
<g>
<path d="M 70,50 L 21,50 L 21,-10 L 70,-10 C 80,-10 100,0 99,20 C 99,40 80,50 70,50 Z" stroke="#000000" stroke-width="4.0" fill="none"/>
<circle cx="20.0" cy="0.0" r="2.0" stroke="#0000b2" stroke-width="4.0" fill="#0000b2" />
<circle cx="20.0" cy="20.0" r="2.0" stroke="#0000b2" stroke-width="4.0" fill="#0000b2" />
<circle cx="20.0" cy="40.0" r="2.0" stroke="#0000b2" stroke-width="4.0" fill="#0000b2" />
<circle cx="100.0" cy="20.0" r="2.0" stroke="#b20000" stroke-width="4.0" fill="#b20000" />
</g>
<g>
<path d="M 281,190 L 339,190 L 339,230 L 281,230 Z" stroke="#000000" stroke-width="4.0" fill="none"/>
<text text-anchor="middle" x="310.0" y="182.0" fill="#000000" style="font-size:24px">Z<tspan style="font-size:80%;baseline-shift:sub;">1</tspan><tspan style="font-size:80%;baseline-shift:super;">n</tspan></text>
<text text-anchor="start" x="284.0" y="206.75" fill="#808080" style="font-size:18px">D</text>
<path d="M 281,227 L 288,220 L 281,213" stroke="#000000" stroke-width="2.0" fill="none"/>
<text text-anchor="start" x="291.0" y="226.75" fill="#808080" style="font-size:18px">C</text>
<text text-anchor="end" x="336.0" y="206.75" fill="#808080" style="font-size:18px">Q</text>
<text text-anchor="end" x="336.0" y="226.75" fill="#808080" style="font-size:18px"><tspan style="text-decoration:overline;">Q</tspan></text>
<text text-anchor="middle" x="310.0" y="247.5" fill="#808080" style="font-size:18px">D</text>
<circle cx="280.0" cy="200.0" r="2.0" stroke="#0000b2" stroke-width="4.0" fill="#0000b2" />
<circle cx="280.0" cy="220.0" r="2.0" stroke="#0000b2" stroke-width="4.0" fill="#0000b2" />
<circle cx="340.0" cy="200.0" r="2.0" stroke="#b20000" stroke-width="4.0" fill="#b20000" />
<circle cx="340.0" cy="220.0" r="2.0" stroke="#b20000" stroke-width="4.0" fill="#b20000" />
</g>
<g>
<path d="M 170,230 L 140,230 C 150,214 150,186 140,170 L 160,170 C 190,170 210,180 220,200 C 210,220 190,230 170,230 Z" stroke="#000000" stroke-width="4.0" fill="none"/>
<circle cx="140.0" cy="180.0" r="2.0" stroke="#0000b2" stroke-width="4.0" fill="#0000b2" />
<circle cx="140.0" cy="200.0" r="2.0" stroke="#0000b2" stroke-width="4.0" fill="#0000b2" />
<circle cx="140.0" cy="220.0" r="2.0" stroke="#0000b2" stroke-width="4.0" fill="#0000b2" />
<circle cx="220.0" cy="200.0" r="2.0" stroke="#b20000" stroke-width="4.0" fill="#b20000" />
</g>
<g>
<path d="M 70,150 L 21,150 L 21,90 L 70,90 C 80,90 100,100 99,120 C 99,140 80,150 70,150 Z" stroke="#000000" stroke-width="4.0" fill="none"/>
<circle cx="20.0" cy="100.0" r="2.0" stroke="#0000b2" stroke-width="4.0" fill="#0000b2" />
<circle cx="20.0" cy="140.0" r="2.0" stroke="#0000b2" stroke-width="4.0" fill="#0000b2" />
<circle cx="100.0" cy="120.0" r="2.0" stroke="#b20000" stroke-width="4.0" fill="#b20000" />
</g>
<g>
<path d="M 70,230 L 21,230 L 21,170 L 70,170 C 80,170 100,180 99,200 C 99,220 80,230 70,230 Z" stroke="#000000" stroke-width="4.0" fill="none"/>
<circle cx="20.0" cy="180.0" r="2.0" stroke="#0000b2" stroke-width="4.0" fill="#0000b2" />
<circle cx="20.0" cy="200.0" r="2.0" stroke="#0000b2" stroke-width="4.0" fill="#0000b2" />
<circle cx="20.0" cy="220.0" r="2.0" stroke="#0000b2" stroke-width="4.0" fill="#0000b2" />
<circle cx="100.0" cy="200.0" r="2.0" stroke="#b20000" stroke-width="4.0" fill="#b20000" />
</g>
<g>
<path d="M 281,390 L 339,390 L 339,430 L 281,430 Z" stroke="#000000" stroke-width="4.0" fill="none"/>
<text text-anchor="middle" x="310.0" y="382.0" fill="#000000" style="font-size:24px">Z<tspan style="font-size:80%;baseline-shift:sub;">0</tspan><tspan style="font-size:80%;baseline-shift:super;">n</tspan></text>
<text text-anchor="start" x="284.0" y="406.75" fill="#808080" style="font-size:18px">D</text>
<path d="M 281,427 L 288,420 L 281,413" stroke="#000000" stroke-width="2.0" fill="none"/>
<text text-anchor="start" x="291.0" y="426.75" fill="#808080" style="font-size:18px">C</text>
<text text-anchor="end" x="336.0" y="406.75" fill="#808080" style="font-size:18px">Q</text>
<text text-anchor="end" x="336.0" y="426.75" fill="#808080" style="font-size:18px"><tspan style="text-decoration:overline;">Q</tspan></text>
<text text-anchor="middle" x="310.0" y="447.5" fill="#808080" style="font-size:18px">D</text>
<circle cx="280.0" cy="400.0" r="2.0" stroke="#0000b2" stroke-width="4.0" fill="#0000b2" />
<circle cx="280.0" cy="420.0" r="2.0" stroke="#0000b2" stroke-width="4.0" fill="#0000b2" />
<circle cx="340.0" cy="400.0" r="2.0" stroke="#b20000" stroke-width="4.0" fill="#b20000" />
<circle cx="340.0" cy="420.0" r="2.0" stroke="#b20000" stroke-width="4.0" fill="#b20000" />
</g>
<g>
<path d="M 170,430 L 140,430 C 150,414 150,386 140,370 L 160,370 C 190,370 210,380 220,400 C 210,420 190,430 170,430 Z" stroke="#000000" stroke-width="4.0" fill="none"/>
<circle cx="140.0" cy="380.0" r="2.0" stroke="#0000b2" stroke-width="4.0" fill="#0000b2" />
<circle cx="140.0" cy="400.0" r="2.0" stroke="#0000b2" stroke-width="4.0" fill="#0000b2" />
<circle cx="140.0" cy="420.0" r="2.0" stroke="#0000b2" stroke-width="4.0" fill="#0000b2" />
<circle cx="220.0" cy="400.0" r="2.0" stroke="#b20000" stroke-width="4.0" fill="#b20000" />
</g>
<g>
<path d="M 70,350 L 21,350 L 21,290 L 70,290 C 80,290 100,300 99,320 C 99,340 80,350 70,350 Z" stroke="#000000" stroke-width="4.0" fill="none"/>
<circle cx="20.0" cy="300.0" r="2.0" stroke="#0000b2" stroke-width="4.0" fill="#0000b2" />
<circle cx="20.0" cy="320.0" r="2.0" stroke="#0000b2" stroke-width="4.0" fill="#0000b2" />
<circle cx="20.0" cy="340.0" r="2.0" stroke="#0000b2" stroke-width="4.0" fill="#0000b2" />
<circle cx="100.0" cy="320.0" r="2.0" stroke="#b20000" stroke-width="4.0" fill="#b20000" />
</g>
<g>
<path d="M 70,430 L 21,430 L 21,370 L 70,370 C 80,370 100,380 99,400 C 99,420 80,430 70,430 Z" stroke="#000000" stroke-width="4.0" fill="none"/>
<circle cx="20.0" cy="380.0" r="2.0" stroke="#0000b2" stroke-width="4.0" fill="#0000b2" />
<circle cx="20.0" cy="420.0" r="2.0" stroke="#0000b2" stroke-width="4.0" fill="#0000b2" />
<circle cx="100.0" cy="400.0" r="2.0" stroke="#b20000" stroke-width="4.0" fill="#b20000" />
</g>
<g>
<path d="M 70,510 L 21,510 L 21,450 L 70,450 C 80,450 100,460 99,480 C 99,500 80,510 70,510 Z" stroke="#000000" stroke-width="4.0" fill="none"/>
<circle cx="20.0" cy="460.0" r="2.0" stroke="#0000b2" stroke-width="4.0" fill="#0000b2" />
<circle cx="20.0" cy="500.0" r="2.0" stroke="#0000b2" stroke-width="4.0" fill="#0000b2" />
<circle cx="100.0" cy="480.0" r="2.0" stroke="#b20000" stroke-width="4.0" fill="#b20000" />
</g>
<g>
<circle cx="376.0" cy="560.0" r="9.0" stroke="#000000" stroke-width="4.0" fill="none" />
<circle cx="376.0" cy="560.0" r="15.0" stroke="#000000" stroke-width="4.0" fill="none" />
<text text-anchor="start" x="405.0" y="569.0" fill="#000000" style="font-size:24px"><tspan style="font-style:italic;">S</tspan></text>
<circle cx="360.0" cy="560.0" r="2.0" stroke="#0000b2" stroke-width="4.0" fill="#0000b2" />
</g>
<g>
<path d="M 70,590 L 21,590 L 21,530 L 70,530 C 80,530 100,540 99,560 C 99,580 80,590 70,590 Z" stroke="#000000" stroke-width="4.0" fill="none"/>
<circle cx="20.0" cy="540.0" r="2.0" stroke="#0000b2" stroke-width="4.0" fill="#0000b2" />
<circle cx="20.0" cy="580.0" r="2.0" stroke="#0000b2" stroke-width="4.0" fill="#0000b2" />
<circle cx="100.0" cy="560.0" r="2.0" stroke="#b20000" stroke-width="4.0" fill="#b20000" />
</g>
<g>
<path d="M -205,-131 L -205,-101 L -235,-101 L -235,-131 Z" stroke="#000000" stroke-width="4.0" fill="none"/>
<circle cx="-220.0" cy="-116.0" r="9.0" stroke="#000000" stroke-width="4.0" fill="none" />
<text text-anchor="start" x="-220.0" y="-136.0" fill="#000000" style="font-size:24px" transform="rotate(-90,-220.0,-145.0)" ><tspan style="font-style:italic;">A</tspan></text>
<circle cx="-220.0" cy="-100.0" r="2.0" stroke="#b20000" stroke-width="4.0" fill="#b20000" />
</g>
<g>
<path d="M -188,-59 L -200,-41 L -212,-59 Z" stroke="#000000" stroke-width="4.0" fill="none"/>
<circle cx="-200.0" cy="-30.0" r="9.0" stroke="#000000" stroke-width="4.0" fill="none" />
<circle cx="-200.0" cy="-60.0" r="2.0" stroke="#0000b2" stroke-width="4.0" fill="#0000b2" />
<circle cx="-200.0" cy="-20.0" r="2.0" stroke="#b20000" stroke-width="4.0" fill="#b20000" />
</g>
<g>
<path d="M -128,-59 L -140,-41 L -152,-59 Z" stroke="#000000" stroke-width="4.0" fill="none"/>
<circle cx="-140.0" cy="-30.0" r="9.0" stroke="#000000" stroke-width="4.0" fill="none" />
<circle cx="-140.0" cy="-60.0" r="2.0" stroke="#0000b2" stroke-width="4.0" fill="#0000b2" />
<circle cx="-140.0" cy="-20.0" r="2.0" stroke="#b20000" stroke-width="4.0" fill="#b20000" />
</g>
<g>
<path d="M -68,-59 L -80,-41 L -92,-59 Z" stroke="#000000" stroke-width="4.0" fill="none"/>
<circle cx="-80.0" cy="-30.0" r="9.0" stroke="#000000" stroke-width="4.0" fill="none" />
<circle cx="-80.0" cy="-60.0" r="2.0" stroke="#0000b2" stroke-width="4.0" fill="#0000b2" />
<circle cx="-80.0" cy="-20.0" r="2.0" stroke="#b20000" stroke-width="4.0" fill="#b20000" />
</g>
<g>
<path d="M -8,-59 L -20,-41 L -32,-59 Z" stroke="#000000" stroke-width="4.0" fill="none"/>
<circle cx="-20.0" cy="-30.0" r="9.0" stroke="#000000" stroke-width="4.0" fill="none" />
<circle cx="-20.0" cy="-60.0" r="2.0" stroke="#0000b2" stroke-width="4.0" fill="#0000b2" />
<circle cx="-20.0" cy="-20.0" r="2.0" stroke="#b20000" stroke-width="4.0" fill="#b20000" />
</g>
<g>
<path d="M 275,-71 L 275,-41 L 245,-41 L 245,-71 Z" stroke="#000000" stroke-width="4.0" fill="none"/>
<text text-anchor="start" x="260.0" y="-76.0" fill="#000000" style="font-size:24px" transform="rotate(-90,260.0,-85.0)" ><tspan style="font-style:italic;">C</tspan></text>
<path d="M 255,-65 L 255,-60 L 265,-60 L 265,-55 L 255,-55 L 255,-50 L 265,-50 L 265,-45" stroke="#000000" stroke-width="2.0" fill="none"/>
<circle cx="260.0" cy="-40.0" r="2.0" stroke="#b20000" stroke-width="4.0" fill="#b20000" />
</g>
</g>
</svg>