<?xml version="1.0" encoding="UTF-8" standalone="no"?>
<!-- Created with Digital by H.Neemann -->
<!-- created: Mon Jul 17 09:37:17 EDT 2023 -->

<svg
   xmlns:svg="http://www.w3.org/2000/svg"
   xmlns="http://www.w3.org/2000/svg"
   width="140.4mm"
   height="127.65mm"
   viewBox="41 43 936 851">
<g stroke-linecap="square">
<path d="M 600,640 L 620,640 L 620,700 L 520,700 L 520,760 L 540,760" stroke="#0000b2" stroke-width="4.0" fill="none"/>
<path d="M 120,640 L 540,640" stroke="#0000b2" stroke-width="4.0" fill="none"/>
<path d="M 120,260 L 420,260 L 420,280 L 540,280" stroke="#0000b2" stroke-width="4.0" fill="none"/>
<path d="M 600,200 L 620,200 L 620,260 L 520,260 L 520,320 L 540,320" stroke="#0000b2" stroke-width="4.0" fill="none"/>
<path d="M 120,200 L 540,200" stroke="#0000b2" stroke-width="4.0" fill="none"/>
<path d="M 600,520 L 780,520 L 780,440 L 900,440" stroke="#0000b2" stroke-width="4.0" fill="none"/>
<path d="M 120,840 L 540,840" stroke="#0000b2" stroke-width="4.0" fill="none"/>
<path d="M 600,400 L 660,400 L 660,500 L 520,500 L 520,560 L 540,560" stroke="#0000b2" stroke-width="4.0" fill="none"/>
<path d="M 120,400 L 540,400" stroke="#0000b2" stroke-width="4.0" fill="none"/>
<path d="M 600,80 L 900,80 L 900,280" stroke="#0000b2" stroke-width="4.0" fill="none"/>
<path d="M 600,720 L 860,720 L 860,520 L 900,520" stroke="#0000b2" stroke-width="4.0" fill="none"/>
<path d="M 120,600 L 420,600 L 420,620 L 540,620" stroke="#0000b2" stroke-width="4.0" fill="none"/>
<path d="M 600,280 L 820,280 L 820,360 L 900,360" stroke="#0000b2" stroke-width="4.0" fill="none"/>
<path d="M 600,540 L 620,540 L 620,600 L 520,600 L 520,660 L 540,660" stroke="#0000b2" stroke-width="4.0" fill="none"/>
<path d="M 120,540 L 540,540" stroke="#0000b2" stroke-width="4.0" fill="none"/>
<path d="M 120,160 L 420,160 L 420,180 L 540,180" stroke="#0000b2" stroke-width="4.0" fill="none"/>
<path d="M 120,800 L 420,800 L 420,820 L 540,820" stroke="#0000b2" stroke-width="4.0" fill="none"/>
<path d="M 600,100 L 620,100 L 620,160 L 520,160 L 520,220 L 540,220" stroke="#0000b2" stroke-width="4.0" fill="none"/>
<path d="M 120,100 L 540,100" stroke="#0000b2" stroke-width="4.0" fill="none"/>
<path d="M 600,740 L 620,740 L 620,800 L 520,800 L 520,860 L 540,860" stroke="#0000b2" stroke-width="4.0" fill="none"/>
<path d="M 120,740 L 540,740" stroke="#0000b2" stroke-width="4.0" fill="none"/>
<path d="M 120,360 L 420,360 L 420,380 L 540,380" stroke="#0000b2" stroke-width="4.0" fill="none"/>
<path d="M 600,300 L 620,300 L 620,360 L 520,360 L 520,420 L 540,420" stroke="#0000b2" stroke-width="4.0" fill="none"/>
<path d="M 120,300 L 540,300" stroke="#0000b2" stroke-width="4.0" fill="none"/>
<path d="M 600,620 L 820,620 L 820,480 L 900,480" stroke="#0000b2" stroke-width="4.0" fill="none"/>
<path d="M 120,500 L 420,500 L 420,520 L 540,520" stroke="#0000b2" stroke-width="4.0" fill="none"/>
<path d="M 600,180 L 860,180 L 860,320 L 900,320" stroke="#0000b2" stroke-width="4.0" fill="none"/>
<path d="M 600,820 L 900,820 L 900,560" stroke="#0000b2" stroke-width="4.0" fill="none"/>
<path d="M 460,120 L 540,120" stroke="#0000b2" stroke-width="4.0" fill="none"/>
<path d="M 120,700 L 420,700 L 420,720 L 540,720" stroke="#0000b2" stroke-width="4.0" fill="none"/>
<path d="M 120,60 L 420,60 L 420,80 L 540,80" stroke="#0000b2" stroke-width="4.0" fill="none"/>
<path d="M 600,380 L 780,380 L 780,400 L 900,400" stroke="#0000b2" stroke-width="4.0" fill="none"/>
<g>
</g>
<g>
<path d="M 541,70 L 599,70 L 599,130 L 541,130 Z" stroke="#000000" stroke-width="4.0" fill="none"/>
<text text-anchor="start" x="544.0" y="86.75" fill="#808080" style="font-size:18px">a</text>
<text text-anchor="start" x="544.0" y="106.75" fill="#808080" style="font-size:18px">b</text>
<text text-anchor="start" x="544.0" y="126.75" fill="#808080" style="font-size:18px">c<tspan style="font-size:80%;baseline-shift:sub;">i</tspan></text>
<text text-anchor="end" x="596.0" y="86.75" fill="#808080" style="font-size:18px">s</text>
<text text-anchor="end" x="596.0" y="106.75" fill="#808080" style="font-size:18px">c<tspan style="font-size:80%;baseline-shift:sub;">o</tspan></text>
<text text-anchor="middle" x="570.0" y="147.5" fill="#808080" style="font-size:18px">Add</text>
<circle cx="540.0" cy="80.0" r="2.0" stroke="#0000b2" stroke-width="4.0" fill="#0000b2" />
<circle cx="540.0" cy="100.0" r="2.0" stroke="#0000b2" stroke-width="4.0" fill="#0000b2" />
<circle cx="540.0" cy="120.0" r="2.0" stroke="#0000b2" stroke-width="4.0" fill="#0000b2" />
<circle cx="600.0" cy="80.0" r="2.0" stroke="#b20000" stroke-width="4.0" fill="#b20000" />
<circle cx="600.0" cy="100.0" r="2.0" stroke="#b20000" stroke-width="4.0" fill="#b20000" />
</g>
<g>
<path d="M 541,170 L 599,170 L 599,230 L 541,230 Z" stroke="#000000" stroke-width="4.0" fill="none"/>
<text text-anchor="start" x="544.0" y="186.75" fill="#808080" style="font-size:18px">a</text>
<text text-anchor="start" x="544.0" y="206.75" fill="#808080" style="font-size:18px">b</text>
<text text-anchor="start" x="544.0" y="226.75" fill="#808080" style="font-size:18px">c<tspan style="font-size:80%;baseline-shift:sub;">i</tspan></text>
<text text-anchor="end" x="596.0" y="186.75" fill="#808080" style="font-size:18px">s</text>
<text text-anchor="end" x="596.0" y="206.75" fill="#808080" style="font-size:18px">c<tspan style="font-size:80%;baseline-shift:sub;">o</tspan></text>
<text text-anchor="middle" x="570.0" y="247.5" fill="#808080" style="font-size:18px">Add</text>
<circle cx="540.0" cy="180.0" r="2.0" stroke="#0000b2" stroke-width="4.0" fill="#0000b2" />
<circle cx="540.0" cy="200.0" r="2.0" stroke="#0000b2" stroke-width="4.0" fill="#0000b2" />
<circle cx="540.0" cy="220.0" r="2.0" stroke="#0000b2" stroke-width="4.0" fill="#0000b2" />
<circle cx="600.0" cy="180.0" r="2.0" stroke="#b20000" stroke-width="4.0" fill="#b20000" />
<circle cx="600.0" cy="200.0" r="2.0" stroke="#b20000" stroke-width="4.0" fill="#b20000" />
</g>
<g>
<path d="M 541,270 L 599,270 L 599,330 L 541,330 Z" stroke="#000000" stroke-width="4.0" fill="none"/>
<text text-anchor="start" x="544.0" y="286.75" fill="#808080" style="font-size:18px">a</text>
<text text-anchor="start" x="544.0" y="306.75" fill="#808080" style="font-size:18px">b</text>
<text text-anchor="start" x="544.0" y="326.75" fill="#808080" style="font-size:18px">c<tspan style="font-size:80%;baseline-shift:sub;">i</tspan></text>
<text text-anchor="end" x="596.0" y="286.75" fill="#808080" style="font-size:18px">s</text>
<text text-anchor="end" x="596.0" y="306.75" fill="#808080" style="font-size:18px">c<tspan style="font-size:80%;baseline-shift:sub;">o</tspan></text>
<text text-anchor="middle" x="570.0" y="347.5" fill="#808080" style="font-size:18px">Add</text>
<circle cx="540.0" cy="280.0" r="2.0" stroke="#0000b2" stroke-width="4.0" fill="#0000b2" />
<circle cx="540.0" cy="300.0" r="2.0" stroke="#0000b2" stroke-width="4.0" fill="#0000b2" />
<circle cx="540.0" cy="320.0" r="2.0" stroke="#0000b2" stroke-width="4.0" fill="#0000b2" />
<circle cx="600.0" cy="280.0" r="2.0" stroke="#b20000" stroke-width="4.0" fill="#b20000" />
<circle cx="600.0" cy="300.0" r="2.0" stroke="#b20000" stroke-width="4.0" fill="#b20000" />
</g>
<g>
<path d="M 541,370 L 599,370 L 599,430 L 541,430 Z" stroke="#000000" stroke-width="4.0" fill="none"/>
<text text-anchor="start" x="544.0" y="386.75" fill="#808080" style="font-size:18px">a</text>
<text text-anchor="start" x="544.0" y="406.75" fill="#808080" style="font-size:18px">b</text>
<text text-anchor="start" x="544.0" y="426.75" fill="#808080" style="font-size:18px">c<tspan style="font-size:80%;baseline-shift:sub;">i</tspan></text>
<text text-anchor="end" x="596.0" y="386.75" fill="#808080" style="font-size:18px">s</text>
<text text-anchor="end" x="596.0" y="406.75" fill="#808080" style="font-size:18px">c<tspan style="font-size:80%;baseline-shift:sub;">o</tspan></text>
<text text-anchor="middle" x="570.0" y="447.5" fill="#808080" style="font-size:18px">Add</text>
<circle cx="540.0" cy="380.0" r="2.0" stroke="#0000b2" stroke-width="4.0" fill="#0000b2" />
<circle cx="540.0" cy="400.0" r="2.0" stroke="#0000b2" stroke-width="4.0" fill="#0000b2" />
<circle cx="540.0" cy="420.0" r="2.0" stroke="#0000b2" stroke-width="4.0" fill="#0000b2" />
<circle cx="600.0" cy="380.0" r="2.0" stroke="#b20000" stroke-width="4.0" fill="#b20000" />
<circle cx="600.0" cy="400.0" r="2.0" stroke="#b20000" stroke-width="4.0" fill="#b20000" />
</g>
<g>
<circle cx="916.0" cy="280.0" r="9.0" stroke="#000000" stroke-width="4.0" fill="none" />
<circle cx="916.0" cy="280.0" r="15.0" stroke="#000000" stroke-width="4.0" fill="none" />
<text text-anchor="start" x="945.0" y="289.0" fill="#000000" style="font-size:24px"><tspan style="font-style:italic;">Y<tspan style="font-size:80%;baseline-shift:sub;">0</tspan></tspan></text>
<circle cx="900.0" cy="280.0" r="2.0" stroke="#0000b2" stroke-width="4.0" fill="#0000b2" />
</g>
<g>
<circle cx="916.0" cy="320.0" r="9.0" stroke="#000000" stroke-width="4.0" fill="none" />
<circle cx="916.0" cy="320.0" r="15.0" stroke="#000000" stroke-width="4.0" fill="none" />
<text text-anchor="start" x="945.0" y="329.0" fill="#000000" style="font-size:24px"><tspan style="font-style:italic;">Y<tspan style="font-size:80%;baseline-shift:sub;">1</tspan></tspan></text>
<circle cx="900.0" cy="320.0" r="2.0" stroke="#0000b2" stroke-width="4.0" fill="#0000b2" />
</g>
<g>
<circle cx="916.0" cy="360.0" r="9.0" stroke="#000000" stroke-width="4.0" fill="none" />
<circle cx="916.0" cy="360.0" r="15.0" stroke="#000000" stroke-width="4.0" fill="none" />
<text text-anchor="start" x="945.0" y="369.0" fill="#000000" style="font-size:24px"><tspan style="font-style:italic;">Y<tspan style="font-size:80%;baseline-shift:sub;">2</tspan></tspan></text>
<circle cx="900.0" cy="360.0" r="2.0" stroke="#0000b2" stroke-width="4.0" fill="#0000b2" />
</g>
<g>
<circle cx="916.0" cy="400.0" r="9.0" stroke="#000000" stroke-width="4.0" fill="none" />
<circle cx="916.0" cy="400.0" r="15.0" stroke="#000000" stroke-width="4.0" fill="none" />
<text text-anchor="start" x="945.0" y="409.0" fill="#000000" style="font-size:24px"><tspan style="font-style:italic;">Y<tspan style="font-size:80%;baseline-shift:sub;">3</tspan></tspan></text>
<circle cx="900.0" cy="400.0" r="2.0" stroke="#0000b2" stroke-width="4.0" fill="#0000b2" />
</g>
<g>
<circle cx="916.0" cy="440.0" r="9.0" stroke="#000000" stroke-width="4.0" fill="none" />
<circle cx="916.0" cy="440.0" r="15.0" stroke="#000000" stroke-width="4.0" fill="none" />
<text text-anchor="start" x="945.0" y="449.0" fill="#000000" style="font-size:24px"><tspan style="font-style:italic;">Y<tspan style="font-size:80%;baseline-shift:sub;">4</tspan></tspan></text>
<circle cx="900.0" cy="440.0" r="2.0" stroke="#0000b2" stroke-width="4.0" fill="#0000b2" />
</g>
<g>
<circle cx="916.0" cy="480.0" r="9.0" stroke="#000000" stroke-width="4.0" fill="none" />
<circle cx="916.0" cy="480.0" r="15.0" stroke="#000000" stroke-width="4.0" fill="none" />
<text text-anchor="start" x="945.0" y="489.0" fill="#000000" style="font-size:24px"><tspan style="font-style:italic;">Y<tspan style="font-size:80%;baseline-shift:sub;">5</tspan></tspan></text>
<circle cx="900.0" cy="480.0" r="2.0" stroke="#0000b2" stroke-width="4.0" fill="#0000b2" />
</g>
<g>
<circle cx="916.0" cy="520.0" r="9.0" stroke="#000000" stroke-width="4.0" fill="none" />
<circle cx="916.0" cy="520.0" r="15.0" stroke="#000000" stroke-width="4.0" fill="none" />
<text text-anchor="start" x="945.0" y="529.0" fill="#000000" style="font-size:24px"><tspan style="font-style:italic;">Y<tspan style="font-size:80%;baseline-shift:sub;">6</tspan></tspan></text>
<circle cx="900.0" cy="520.0" r="2.0" stroke="#0000b2" stroke-width="4.0" fill="#0000b2" />
</g>
<g>
<circle cx="916.0" cy="560.0" r="9.0" stroke="#000000" stroke-width="4.0" fill="none" />
<circle cx="916.0" cy="560.0" r="15.0" stroke="#000000" stroke-width="4.0" fill="none" />
<text text-anchor="start" x="945.0" y="569.0" fill="#000000" style="font-size:24px"><tspan style="font-style:italic;">Y<tspan style="font-size:80%;baseline-shift:sub;">7</tspan></tspan></text>
<circle cx="900.0" cy="560.0" r="2.0" stroke="#0000b2" stroke-width="4.0" fill="#0000b2" />
</g>
<g>
<path d="M 541,510 L 599,510 L 599,570 L 541,570 Z" stroke="#000000" stroke-width="4.0" fill="none"/>
<text text-anchor="start" x="544.0" y="526.75" fill="#808080" style="font-size:18px">a</text>
<text text-anchor="start" x="544.0" y="546.75" fill="#808080" style="font-size:18px">b</text>
<text text-anchor="start" x="544.0" y="566.75" fill="#808080" style="font-size:18px">c<tspan style="font-size:80%;baseline-shift:sub;">i</tspan></text>
<text text-anchor="end" x="596.0" y="526.75" fill="#808080" style="font-size:18px">s</text>
<text text-anchor="end" x="596.0" y="546.75" fill="#808080" style="font-size:18px">c<tspan style="font-size:80%;baseline-shift:sub;">o</tspan></text>
<text text-anchor="middle" x="570.0" y="587.5" fill="#808080" style="font-size:18px">Add</text>
<circle cx="540.0" cy="520.0" r="2.0" stroke="#0000b2" stroke-width="4.0" fill="#0000b2" />
<circle cx="540.0" cy="540.0" r="2.0" stroke="#0000b2" stroke-width="4.0" fill="#0000b2" />
<circle cx="540.0" cy="560.0" r="2.0" stroke="#0000b2" stroke-width="4.0" fill="#0000b2" />
<circle cx="600.0" cy="520.0" r="2.0" stroke="#b20000" stroke-width="4.0" fill="#b20000" />
<circle cx="600.0" cy="540.0" r="2.0" stroke="#b20000" stroke-width="4.0" fill="#b20000" />
</g>
<g>
<path d="M 541,610 L 599,610 L 599,670 L 541,670 Z" stroke="#000000" stroke-width="4.0" fill="none"/>
<text text-anchor="start" x="544.0" y="626.75" fill="#808080" style="font-size:18px">a</text>
<text text-anchor="start" x="544.0" y="646.75" fill="#808080" style="font-size:18px">b</text>
<text text-anchor="start" x="544.0" y="666.75" fill="#808080" style="font-size:18px">c<tspan style="font-size:80%;baseline-shift:sub;">i</tspan></text>
<text text-anchor="end" x="596.0" y="626.75" fill="#808080" style="font-size:18px">s</text>
<text text-anchor="end" x="596.0" y="646.75" fill="#808080" style="font-size:18px">c<tspan style="font-size:80%;baseline-shift:sub;">o</tspan></text>
<text text-anchor="middle" x="570.0" y="687.5" fill="#808080" style="font-size:18px">Add</text>
<circle cx="540.0" cy="620.0" r="2.0" stroke="#0000b2" stroke-width="4.0" fill="#0000b2" />
<circle cx="540.0" cy="640.0" r="2.0" stroke="#0000b2" stroke-width="4.0" fill="#0000b2" />
<circle cx="540.0" cy="660.0" r="2.0" stroke="#0000b2" stroke-width="4.0" fill="#0000b2" />
<circle cx="600.0" cy="620.0" r="2.0" stroke="#b20000" stroke-width="4.0" fill="#b20000" />
<circle cx="600.0" cy="640.0" r="2.0" stroke="#b20000" stroke-width="4.0" fill="#b20000" />
</g>
<g>
<path d="M 541,710 L 599,710 L 599,770 L 541,770 Z" stroke="#000000" stroke-width="4.0" fill="none"/>
<text text-anchor="start" x="544.0" y="726.75" fill="#808080" style="font-size:18px">a</text>
<text text-anchor="start" x="544.0" y="746.75" fill="#808080" style="font-size:18px">b</text>
<text text-anchor="start" x="544.0" y="766.75" fill="#808080" style="font-size:18px">c<tspan style="font-size:80%;baseline-shift:sub;">i</tspan></text>
<text text-anchor="end" x="596.0" y="726.75" fill="#808080" style="font-size:18px">s</text>
<text text-anchor="end" x="596.0" y="746.75" fill="#808080" style="font-size:18px">c<tspan style="font-size:80%;baseline-shift:sub;">o</tspan></text>
<text text-anchor="middle" x="570.0" y="787.5" fill="#808080" style="font-size:18px">Add</text>
<circle cx="540.0" cy="720.0" r="2.0" stroke="#0000b2" stroke-width="4.0" fill="#0000b2" />
<circle cx="540.0" cy="740.0" r="2.0" stroke="#0000b2" stroke-width="4.0" fill="#0000b2" />
<circle cx="540.0" cy="760.0" r="2.0" stroke="#0000b2" stroke-width="4.0" fill="#0000b2" />
<circle cx="600.0" cy="720.0" r="2.0" stroke="#b20000" stroke-width="4.0" fill="#b20000" />
<circle cx="600.0" cy="740.0" r="2.0" stroke="#b20000" stroke-width="4.0" fill="#b20000" />
</g>
<g>
<path d="M 541,810 L 599,810 L 599,870 L 541,870 Z" stroke="#000000" stroke-width="4.0" fill="none"/>
<text text-anchor="start" x="544.0" y="826.75" fill="#808080" style="font-size:18px">a</text>
<text text-anchor="start" x="544.0" y="846.75" fill="#808080" style="font-size:18px">b</text>
<text text-anchor="start" x="544.0" y="866.75" fill="#808080" style="font-size:18px">c<tspan style="font-size:80%;baseline-shift:sub;">i</tspan></text>
<text text-anchor="end" x="596.0" y="826.75" fill="#808080" style="font-size:18px">s</text>
<text text-anchor="end" x="596.0" y="846.75" fill="#808080" style="font-size:18px">c<tspan style="font-size:80%;baseline-shift:sub;">o</tspan></text>
<text text-anchor="middle" x="570.0" y="887.5" fill="#808080" style="font-size:18px">Add</text>
<circle cx="540.0" cy="820.0" r="2.0" stroke="#0000b2" stroke-width="4.0" fill="#0000b2" />
<circle cx="540.0" cy="840.0" r="2.0" stroke="#0000b2" stroke-width="4.0" fill="#0000b2" />
<circle cx="540.0" cy="860.0" r="2.0" stroke="#0000b2" stroke-width="4.0" fill="#0000b2" />
<circle cx="600.0" cy="820.0" r="2.0" stroke="#b20000" stroke-width="4.0" fill="#b20000" />
<circle cx="600.0" cy="840.0" r="2.0" stroke="#b20000" stroke-width="4.0" fill="#b20000" />
</g>
<g>
<path d="M 89,45 L 119,45 L 119,75 L 89,75 Z" stroke="#000000" stroke-width="4.0" fill="none"/>
<circle cx="104.0" cy="60.0" r="9.0" stroke="#000000" stroke-width="4.0" fill="none" />
<text text-anchor="end" x="75.0" y="69.0" fill="#000000" style="font-size:24px"><tspan style="font-style:italic;">A<tspan style="font-size:80%;baseline-shift:sub;">0</tspan></tspan></text>
<circle cx="120.0" cy="60.0" r="2.0" stroke="#b20000" stroke-width="4.0" fill="#b20000" />
</g>
<g>
<path d="M 89,85 L 119,85 L 119,115 L 89,115 Z" stroke="#000000" stroke-width="4.0" fill="none"/>
<circle cx="104.0" cy="100.0" r="9.0" stroke="#000000" stroke-width="4.0" fill="none" />
<text text-anchor="end" x="75.0" y="109.0" fill="#000000" style="font-size:24px"><tspan style="font-style:italic;">B<tspan style="font-size:80%;baseline-shift:sub;">0</tspan></tspan></text>
<circle cx="120.0" cy="100.0" r="2.0" stroke="#b20000" stroke-width="4.0" fill="#b20000" />
</g>
<g>
<path d="M 89,145 L 119,145 L 119,175 L 89,175 Z" stroke="#000000" stroke-width="4.0" fill="none"/>
<circle cx="104.0" cy="160.0" r="9.0" stroke="#000000" stroke-width="4.0" fill="none" />
<text text-anchor="end" x="75.0" y="169.0" fill="#000000" style="font-size:24px"><tspan style="font-style:italic;">A<tspan style="font-size:80%;baseline-shift:sub;">1</tspan></tspan></text>
<circle cx="120.0" cy="160.0" r="2.0" stroke="#b20000" stroke-width="4.0" fill="#b20000" />
</g>
<g>
<path d="M 89,185 L 119,185 L 119,215 L 89,215 Z" stroke="#000000" stroke-width="4.0" fill="none"/>
<circle cx="104.0" cy="200.0" r="9.0" stroke="#000000" stroke-width="4.0" fill="none" />
<text text-anchor="end" x="75.0" y="209.0" fill="#000000" style="font-size:24px"><tspan style="font-style:italic;">B<tspan style="font-size:80%;baseline-shift:sub;">1</tspan></tspan></text>
<circle cx="120.0" cy="200.0" r="2.0" stroke="#b20000" stroke-width="4.0" fill="#b20000" />
</g>
<g>
<path d="M 89,245 L 119,245 L 119,275 L 89,275 Z" stroke="#000000" stroke-width="4.0" fill="none"/>
<circle cx="104.0" cy="260.0" r="9.0" stroke="#000000" stroke-width="4.0" fill="none" />
<text text-anchor="end" x="75.0" y="269.0" fill="#000000" style="font-size:24px"><tspan style="font-style:italic;">A<tspan style="font-size:80%;baseline-shift:sub;">2</tspan></tspan></text>
<circle cx="120.0" cy="260.0" r="2.0" stroke="#b20000" stroke-width="4.0" fill="#b20000" />
</g>
<g>
<path d="M 89,285 L 119,285 L 119,315 L 89,315 Z" stroke="#000000" stroke-width="4.0" fill="none"/>
<circle cx="104.0" cy="300.0" r="9.0" stroke="#000000" stroke-width="4.0" fill="none" />
<text text-anchor="end" x="75.0" y="309.0" fill="#000000" style="font-size:24px"><tspan style="font-style:italic;">B<tspan style="font-size:80%;baseline-shift:sub;">2</tspan></tspan></text>
<circle cx="120.0" cy="300.0" r="2.0" stroke="#b20000" stroke-width="4.0" fill="#b20000" />
</g>
<g>
<path d="M 89,345 L 119,345 L 119,375 L 89,375 Z" stroke="#000000" stroke-width="4.0" fill="none"/>
<circle cx="104.0" cy="360.0" r="9.0" stroke="#000000" stroke-width="4.0" fill="none" />
<text text-anchor="end" x="75.0" y="369.0" fill="#000000" style="font-size:24px"><tspan style="font-style:italic;">A<tspan style="font-size:80%;baseline-shift:sub;">3</tspan></tspan></text>
<circle cx="120.0" cy="360.0" r="2.0" stroke="#b20000" stroke-width="4.0" fill="#b20000" />
</g>
<g>
<path d="M 89,385 L 119,385 L 119,415 L 89,415 Z" stroke="#000000" stroke-width="4.0" fill="none"/>
<circle cx="104.0" cy="400.0" r="9.0" stroke="#000000" stroke-width="4.0" fill="none" />
<text text-anchor="end" x="75.0" y="409.0" fill="#000000" style="font-size:24px"><tspan style="font-style:italic;">B<tspan style="font-size:80%;baseline-shift:sub;">3</tspan></tspan></text>
<circle cx="120.0" cy="400.0" r="2.0" stroke="#b20000" stroke-width="4.0" fill="#b20000" />
</g>
<g>
<path d="M 89,485 L 119,485 L 119,515 L 89,515 Z" stroke="#000000" stroke-width="4.0" fill="none"/>
<circle cx="104.0" cy="500.0" r="9.0" stroke="#000000" stroke-width="4.0" fill="none" />
<text text-anchor="end" x="75.0" y="509.0" fill="#000000" style="font-size:24px"><tspan style="font-style:italic;">A<tspan style="font-size:80%;baseline-shift:sub;">4</tspan></tspan></text>
<circle cx="120.0" cy="500.0" r="2.0" stroke="#b20000" stroke-width="4.0" fill="#b20000" />
</g>
<g>
<path d="M 89,525 L 119,525 L 119,555 L 89,555 Z" stroke="#000000" stroke-width="4.0" fill="none"/>
<circle cx="104.0" cy="540.0" r="9.0" stroke="#000000" stroke-width="4.0" fill="none" />
<text text-anchor="end" x="75.0" y="549.0" fill="#000000" style="font-size:24px"><tspan style="font-style:italic;">B<tspan style="font-size:80%;baseline-shift:sub;">4</tspan></tspan></text>
<circle cx="120.0" cy="540.0" r="2.0" stroke="#b20000" stroke-width="4.0" fill="#b20000" />
</g>
<g>
<path d="M 89,585 L 119,585 L 119,615 L 89,615 Z" stroke="#000000" stroke-width="4.0" fill="none"/>
<circle cx="104.0" cy="600.0" r="9.0" stroke="#000000" stroke-width="4.0" fill="none" />
<text text-anchor="end" x="75.0" y="609.0" fill="#000000" style="font-size:24px"><tspan style="font-style:italic;">A<tspan style="font-size:80%;baseline-shift:sub;">5</tspan></tspan></text>
<circle cx="120.0" cy="600.0" r="2.0" stroke="#b20000" stroke-width="4.0" fill="#b20000" />
</g>
<g>
<path d="M 89,625 L 119,625 L 119,655 L 89,655 Z" stroke="#000000" stroke-width="4.0" fill="none"/>
<circle cx="104.0" cy="640.0" r="9.0" stroke="#000000" stroke-width="4.0" fill="none" />
<text text-anchor="end" x="75.0" y="649.0" fill="#000000" style="font-size:24px"><tspan style="font-style:italic;">B<tspan style="font-size:80%;baseline-shift:sub;">5</tspan></tspan></text>
<circle cx="120.0" cy="640.0" r="2.0" stroke="#b20000" stroke-width="4.0" fill="#b20000" />
</g>
<g>
<path d="M 89,685 L 119,685 L 119,715 L 89,715 Z" stroke="#000000" stroke-width="4.0" fill="none"/>
<circle cx="104.0" cy="700.0" r="9.0" stroke="#000000" stroke-width="4.0" fill="none" />
<text text-anchor="end" x="75.0" y="709.0" fill="#000000" style="font-size:24px"><tspan style="font-style:italic;">A<tspan style="font-size:80%;baseline-shift:sub;">6</tspan></tspan></text>
<circle cx="120.0" cy="700.0" r="2.0" stroke="#b20000" stroke-width="4.0" fill="#b20000" />
</g>
<g>
<path d="M 89,725 L 119,725 L 119,755 L 89,755 Z" stroke="#000000" stroke-width="4.0" fill="none"/>
<circle cx="104.0" cy="740.0" r="9.0" stroke="#000000" stroke-width="4.0" fill="none" />
<text text-anchor="end" x="75.0" y="749.0" fill="#000000" style="font-size:24px"><tspan style="font-style:italic;">B<tspan style="font-size:80%;baseline-shift:sub;">6</tspan></tspan></text>
<circle cx="120.0" cy="740.0" r="2.0" stroke="#b20000" stroke-width="4.0" fill="#b20000" />
</g>
<g>
<path d="M 89,785 L 119,785 L 119,815 L 89,815 Z" stroke="#000000" stroke-width="4.0" fill="none"/>
<circle cx="104.0" cy="800.0" r="9.0" stroke="#000000" stroke-width="4.0" fill="none" />
<text text-anchor="end" x="75.0" y="809.0" fill="#000000" style="font-size:24px"><tspan style="font-style:italic;">A<tspan style="font-size:80%;baseline-shift:sub;">7</tspan></tspan></text>
<circle cx="120.0" cy="800.0" r="2.0" stroke="#b20000" stroke-width="4.0" fill="#b20000" />
</g>
<g>
<path d="M 89,825 L 119,825 L 119,855 L 89,855 Z" stroke="#000000" stroke-width="4.0" fill="none"/>
<circle cx="104.0" cy="840.0" r="9.0" stroke="#000000" stroke-width="4.0" fill="none" />
<text text-anchor="end" x="75.0" y="849.0" fill="#000000" style="font-size:24px"><tspan style="font-style:italic;">B<tspan style="font-size:80%;baseline-shift:sub;">7</tspan></tspan></text>
<circle cx="120.0" cy="840.0" r="2.0" stroke="#b20000" stroke-width="4.0" fill="#b20000" />
</g>
<g>
<text text-anchor="end" x="457.0" y="129.0" fill="#000000" style="font-size:24px">0</text>
<circle cx="460.0" cy="120.0" r="2.0" stroke="#b20000" stroke-width="4.0" fill="#b20000" />
</g>
</g>
</svg>