<?xml version="1.0" encoding="UTF-8" standalone="no"?>
<!-- Created with Digital by H.Neemann -->
<!-- created: Mon Jul 31 10:30:35 EDT 2023 -->

<svg
   xmlns:svg="http://www.w3.org/2000/svg"
   xmlns="http://www.w3.org/2000/svg"
   width="126.6mm"
   height="43.35mm"
   viewBox="136 148 844 289">
<g stroke-linecap="square">
<path d="M 840,320 L 920,320" stroke="#0000b2" stroke-width="4.0" fill="none"/>
<path d="M 260,300 L 260,320 L 340,320 L 400,320 L 400,240 L 500,240 L 504,240" stroke="#0000b2" stroke-width="4.0" fill="none"/>
<path d="M 200,420 L 260,420 L 280,420" stroke="#0000b2" stroke-width="4.0" fill="none"/>
<path d="M 320,420 L 420,420 L 620,420" stroke="#0000b2" stroke-width="4.0" fill="none"/>
<path d="M 260,220 L 260,260 L 440,260 L 440,280 L 500,280 L 504,280" stroke="#0000b2" stroke-width="4.0" fill="none"/>
<path d="M 260,420 L 260,360 L 380,360 L 380,180 L 620,180" stroke="#0000b2" stroke-width="4.0" fill="none"/>
<path d="M 420,420 L 420,360 L 600,360 L 600,320 L 620,320" stroke="#0000b2" stroke-width="4.0" fill="none"/>
<path d="M 200,300 L 260,300 L 280,300" stroke="#0000b2" stroke-width="4.0" fill="none"/>
<path d="M 580,300 L 600,300 L 600,280 L 620,280" stroke="#0000b2" stroke-width="4.0" fill="none"/>
<path d="M 320,300 L 460,300 L 460,320 L 500,320 L 504,320" stroke="#0000b2" stroke-width="4.0" fill="none"/>
<path d="M 700,300 L 720,300 L 720,320 L 760,320 L 767,320" stroke="#0000b2" stroke-width="4.0" fill="none"/>
<path d="M 700,400 L 740,400 L 740,340 L 760,340 L 764,340" stroke="#0000b2" stroke-width="4.0" fill="none"/>
<path d="M 340,320 L 340,400 L 620,400" stroke="#0000b2" stroke-width="4.0" fill="none"/>
<path d="M 200,180 L 260,180 L 280,180" stroke="#0000b2" stroke-width="4.0" fill="none"/>
<path d="M 320,180 L 360,180 L 360,160 L 620,160" stroke="#0000b2" stroke-width="4.0" fill="none"/>
<path d="M 700,180 L 740,180 L 740,300 L 760,300 L 764,300" stroke="#0000b2" stroke-width="4.0" fill="none"/>
<path d="M 360,180 L 360,380 L 620,380" stroke="#0000b2" stroke-width="4.0" fill="none"/>
<path d="M 580,220 L 600,220 L 600,200 L 620,200" stroke="#0000b2" stroke-width="4.0" fill="none"/>
<path d="M 260,180 L 260,220 L 480,220 L 480,200 L 500,200 L 504,200" stroke="#0000b2" stroke-width="4.0" fill="none"/>
<g>
<circle cx="340.0" cy="320.0" r="4.0" stroke="#0000b2" stroke-width="4.0" fill="#0000b2" />
<circle cx="260.0" cy="420.0" r="4.0" stroke="#0000b2" stroke-width="4.0" fill="#0000b2" />
<circle cx="420.0" cy="420.0" r="4.0" stroke="#0000b2" stroke-width="4.0" fill="#0000b2" />
<circle cx="260.0" cy="300.0" r="4.0" stroke="#0000b2" stroke-width="4.0" fill="#0000b2" />
<circle cx="260.0" cy="180.0" r="4.0" stroke="#0000b2" stroke-width="4.0" fill="#0000b2" />
<circle cx="360.0" cy="180.0" r="4.0" stroke="#0000b2" stroke-width="4.0" fill="#0000b2" />
<circle cx="260.0" cy="220.0" r="4.0" stroke="#0000b2" stroke-width="4.0" fill="#0000b2" />
</g>
<g>
<circle cx="936.0" cy="320.0" r="9.0" stroke="#000000" stroke-width="4.0" fill="none" />
<circle cx="936.0" cy="320.0" r="15.0" stroke="#000000" stroke-width="4.0" fill="none" />
<text text-anchor="start" x="965.0" y="329.0" fill="#000000" style="font-size:24px"><tspan style="font-style:italic;">F</tspan></text>
<circle cx="920.0" cy="320.0" r="2.0" stroke="#0000b2" stroke-width="4.0" fill="#0000b2" />
</g>
<g>
<path d="M 169,165 L 199,165 L 199,195 L 169,195 Z" stroke="#000000" stroke-width="4.0" fill="none"/>
<circle cx="184.0" cy="180.0" r="9.0" stroke="#000000" stroke-width="4.0" fill="none" />
<text text-anchor="end" x="155.0" y="189.0" fill="#000000" style="font-size:24px"><tspan style="font-style:italic;">A</tspan></text>
<circle cx="200.0" cy="180.0" r="2.0" stroke="#b20000" stroke-width="4.0" fill="#b20000" />
</g>
<g>
<path d="M 169,285 L 199,285 L 199,315 L 169,315 Z" stroke="#000000" stroke-width="4.0" fill="none"/>
<circle cx="184.0" cy="300.0" r="9.0" stroke="#000000" stroke-width="4.0" fill="none" />
<text text-anchor="end" x="155.0" y="309.0" fill="#000000" style="font-size:24px"><tspan style="font-style:italic;">B</tspan></text>
<circle cx="200.0" cy="300.0" r="2.0" stroke="#b20000" stroke-width="4.0" fill="#b20000" />
</g>
<g>
<path d="M 169,405 L 199,405 L 199,435 L 169,435 Z" stroke="#000000" stroke-width="4.0" fill="none"/>
<circle cx="184.0" cy="420.0" r="9.0" stroke="#000000" stroke-width="4.0" fill="none" />
<text text-anchor="end" x="155.0" y="429.0" fill="#000000" style="font-size:24px"><tspan style="font-style:italic;">C</tspan></text>
<circle cx="200.0" cy="420.0" r="2.0" stroke="#b20000" stroke-width="4.0" fill="#b20000" />
</g>
<g>
<path d="M 790,350 L 760,350 C 770,334 770,306 760,290 L 780,290 C 810,290 830,300 840,320 C 830,340 810,350 790,350 Z" stroke="#000000" stroke-width="4.0" fill="none"/>
<circle cx="760.0" cy="300.0" r="2.0" stroke="#0000b2" stroke-width="4.0" fill="#0000b2" />
<circle cx="760.0" cy="320.0" r="2.0" stroke="#0000b2" stroke-width="4.0" fill="#0000b2" />
<circle cx="760.0" cy="340.0" r="2.0" stroke="#0000b2" stroke-width="4.0" fill="#0000b2" />
<circle cx="840.0" cy="320.0" r="2.0" stroke="#b20000" stroke-width="4.0" fill="#b20000" />
</g>
<g>
<path d="M 281,168 L 299,180 L 281,192 Z" stroke="#000000" stroke-width="4.0" fill="none"/>
<circle cx="310.0" cy="180.0" r="9.0" stroke="#000000" stroke-width="4.0" fill="none" />
<circle cx="280.0" cy="180.0" r="2.0" stroke="#0000b2" stroke-width="4.0" fill="#0000b2" />
<circle cx="320.0" cy="180.0" r="2.0" stroke="#b20000" stroke-width="4.0" fill="#b20000" />
</g>
<g>
<path d="M 281,288 L 299,300 L 281,312 Z" stroke="#000000" stroke-width="4.0" fill="none"/>
<circle cx="310.0" cy="300.0" r="9.0" stroke="#000000" stroke-width="4.0" fill="none" />
<circle cx="280.0" cy="300.0" r="2.0" stroke="#0000b2" stroke-width="4.0" fill="#0000b2" />
<circle cx="320.0" cy="300.0" r="2.0" stroke="#b20000" stroke-width="4.0" fill="#b20000" />
</g>
<g>
<path d="M 281,408 L 299,420 L 281,432 Z" stroke="#000000" stroke-width="4.0" fill="none"/>
<circle cx="310.0" cy="420.0" r="9.0" stroke="#000000" stroke-width="4.0" fill="none" />
<circle cx="280.0" cy="420.0" r="2.0" stroke="#0000b2" stroke-width="4.0" fill="#0000b2" />
<circle cx="320.0" cy="420.0" r="2.0" stroke="#b20000" stroke-width="4.0" fill="#b20000" />
</g>
<g>
<path d="M 670,430 L 621,430 L 621,370 L 670,370 C 680,370 700,380 699,400 C 699,420 680,430 670,430 Z" stroke="#000000" stroke-width="4.0" fill="none"/>
<circle cx="620.0" cy="380.0" r="2.0" stroke="#0000b2" stroke-width="4.0" fill="#0000b2" />
<circle cx="620.0" cy="400.0" r="2.0" stroke="#0000b2" stroke-width="4.0" fill="#0000b2" />
<circle cx="620.0" cy="420.0" r="2.0" stroke="#0000b2" stroke-width="4.0" fill="#0000b2" />
<circle cx="700.0" cy="400.0" r="2.0" stroke="#b20000" stroke-width="4.0" fill="#b20000" />
</g>
<g>
<path d="M 670,210 L 621,210 L 621,150 L 670,150 C 680,150 700,160 699,180 C 699,200 680,210 670,210 Z" stroke="#000000" stroke-width="4.0" fill="none"/>
<circle cx="620.0" cy="160.0" r="2.0" stroke="#0000b2" stroke-width="4.0" fill="#0000b2" />
<circle cx="620.0" cy="180.0" r="2.0" stroke="#0000b2" stroke-width="4.0" fill="#0000b2" />
<circle cx="620.0" cy="200.0" r="2.0" stroke="#0000b2" stroke-width="4.0" fill="#0000b2" />
<circle cx="700.0" cy="180.0" r="2.0" stroke="#b20000" stroke-width="4.0" fill="#b20000" />
</g>
<g>
<path d="M 530,250 L 500,250 C 510,234 510,206 500,190 L 520,190 C 550,190 570,200 580,220 C 570,240 550,250 530,250 Z" stroke="#000000" stroke-width="4.0" fill="none"/>
<circle cx="500.0" cy="200.0" r="2.0" stroke="#0000b2" stroke-width="4.0" fill="#0000b2" />
<circle cx="500.0" cy="240.0" r="2.0" stroke="#0000b2" stroke-width="4.0" fill="#0000b2" />
<circle cx="580.0" cy="220.0" r="2.0" stroke="#b20000" stroke-width="4.0" fill="#b20000" />
</g>
<g>
<path d="M 530,330 L 500,330 C 510,314 510,286 500,270 L 520,270 C 550,270 570,280 580,300 C 570,320 550,330 530,330 Z" stroke="#000000" stroke-width="4.0" fill="none"/>
<circle cx="500.0" cy="280.0" r="2.0" stroke="#0000b2" stroke-width="4.0" fill="#0000b2" />
<circle cx="500.0" cy="320.0" r="2.0" stroke="#0000b2" stroke-width="4.0" fill="#0000b2" />
<circle cx="580.0" cy="300.0" r="2.0" stroke="#b20000" stroke-width="4.0" fill="#b20000" />
</g>
<g>
<path d="M 670,330 L 621,330 L 621,270 L 670,270 C 680,270 700,280 699,300 C 699,320 680,330 670,330 Z" stroke="#000000" stroke-width="4.0" fill="none"/>
<circle cx="620.0" cy="280.0" r="2.0" stroke="#0000b2" stroke-width="4.0" fill="#0000b2" />
<circle cx="620.0" cy="320.0" r="2.0" stroke="#0000b2" stroke-width="4.0" fill="#0000b2" />
<circle cx="700.0" cy="300.0" r="2.0" stroke="#b20000" stroke-width="4.0" fill="#b20000" />
</g>
</g>
</svg>