<?xml version="1.0" encoding="UTF-8" standalone="no"?>
<!-- Created with Digital by H.Neemann -->
<!-- created: Mon Jul 31 11:25:52 EDT 2023 -->

<svg
   xmlns:svg="http://www.w3.org/2000/svg"
   xmlns="http://www.w3.org/2000/svg"
   width="78.6mm"
   height="41.1mm"
   viewBox="136 163 524 274">
<g stroke-linecap="square">
<path d="M 420,240 L 440,240 L 440,280 L 480,280 L 484,280" stroke="#0000b2" stroke-width="4.0" fill="none"/>
<path d="M 200,420 L 240,420" stroke="#0000b2" stroke-width="4.0" fill="none"/>
<path d="M 280,420 L 320,420 L 320,320 L 480,320 L 484,320" stroke="#0000b2" stroke-width="4.0" fill="none"/>
<path d="M 200,180 L 240,180" stroke="#0000b2" stroke-width="4.0" fill="none"/>
<path d="M 280,180 L 320,180 L 320,220 L 340,220" stroke="#0000b2" stroke-width="4.0" fill="none"/>
<path d="M 560,300 L 600,300" stroke="#0000b2" stroke-width="4.0" fill="none"/>
<path d="M 200,300 L 320,300 L 320,260 L 340,260" stroke="#0000b2" stroke-width="4.0" fill="none"/>
<g>
</g>
<g>
<circle cx="616.0" cy="300.0" r="9.0" stroke="#000000" stroke-width="4.0" fill="none" />
<circle cx="616.0" cy="300.0" r="15.0" stroke="#000000" stroke-width="4.0" fill="none" />
<text text-anchor="start" x="645.0" y="309.0" fill="#000000" style="font-size:24px"><tspan style="font-style:italic;">F</tspan></text>
<circle cx="600.0" cy="300.0" r="2.0" stroke="#0000b2" stroke-width="4.0" fill="#0000b2" />
</g>
<g>
<path d="M 169,165 L 199,165 L 199,195 L 169,195 Z" stroke="#000000" stroke-width="4.0" fill="none"/>
<circle cx="184.0" cy="180.0" r="9.0" stroke="#000000" stroke-width="4.0" fill="none" />
<text text-anchor="end" x="155.0" y="189.0" fill="#000000" style="font-size:24px"><tspan style="font-style:italic;">A</tspan></text>
<circle cx="200.0" cy="180.0" r="2.0" stroke="#b20000" stroke-width="4.0" fill="#b20000" />
</g>
<g>
<path d="M 169,285 L 199,285 L 199,315 L 169,315 Z" stroke="#000000" stroke-width="4.0" fill="none"/>
<circle cx="184.0" cy="300.0" r="9.0" stroke="#000000" stroke-width="4.0" fill="none" />
<text text-anchor="end" x="155.0" y="309.0" fill="#000000" style="font-size:24px"><tspan style="font-style:italic;">B</tspan></text>
<circle cx="200.0" cy="300.0" r="2.0" stroke="#b20000" stroke-width="4.0" fill="#b20000" />
</g>
<g>
<path d="M 169,405 L 199,405 L 199,435 L 169,435 Z" stroke="#000000" stroke-width="4.0" fill="none"/>
<circle cx="184.0" cy="420.0" r="9.0" stroke="#000000" stroke-width="4.0" fill="none" />
<text text-anchor="end" x="155.0" y="429.0" fill="#000000" style="font-size:24px"><tspan style="font-style:italic;">C</tspan></text>
<circle cx="200.0" cy="420.0" r="2.0" stroke="#b20000" stroke-width="4.0" fill="#b20000" />
</g>
<g>
<path d="M 241,408 L 259,420 L 241,432 Z" stroke="#000000" stroke-width="4.0" fill="none"/>
<circle cx="270.0" cy="420.0" r="9.0" stroke="#000000" stroke-width="4.0" fill="none" />
<circle cx="240.0" cy="420.0" r="2.0" stroke="#0000b2" stroke-width="4.0" fill="#0000b2" />
<circle cx="280.0" cy="420.0" r="2.0" stroke="#b20000" stroke-width="4.0" fill="#b20000" />
</g>
<g>
<path d="M 510,330 L 480,330 C 490,314 490,286 480,270 L 500,270 C 530,270 550,280 560,300 C 550,320 530,330 510,330 Z" stroke="#000000" stroke-width="4.0" fill="none"/>
<circle cx="480.0" cy="280.0" r="2.0" stroke="#0000b2" stroke-width="4.0" fill="#0000b2" />
<circle cx="480.0" cy="320.0" r="2.0" stroke="#0000b2" stroke-width="4.0" fill="#0000b2" />
<circle cx="560.0" cy="300.0" r="2.0" stroke="#b20000" stroke-width="4.0" fill="#b20000" />
</g>
<g>
<path d="M 241,168 L 259,180 L 241,192 Z" stroke="#000000" stroke-width="4.0" fill="none"/>
<circle cx="270.0" cy="180.0" r="9.0" stroke="#000000" stroke-width="4.0" fill="none" />
<circle cx="240.0" cy="180.0" r="2.0" stroke="#0000b2" stroke-width="4.0" fill="#0000b2" />
<circle cx="280.0" cy="180.0" r="2.0" stroke="#b20000" stroke-width="4.0" fill="#b20000" />
</g>
<g>
<path d="M 390,270 L 341,270 L 341,210 L 390,210 C 400,210 420,220 419,240 C 419,260 400,270 390,270 Z" stroke="#000000" stroke-width="4.0" fill="none"/>
<circle cx="340.0" cy="220.0" r="2.0" stroke="#0000b2" stroke-width="4.0" fill="#0000b2" />
<circle cx="340.0" cy="260.0" r="2.0" stroke="#0000b2" stroke-width="4.0" fill="#0000b2" />
<circle cx="420.0" cy="240.0" r="2.0" stroke="#b20000" stroke-width="4.0" fill="#b20000" />
</g>
</g>
</svg>