<?xml version="1.0" encoding="UTF-8" standalone="no"?>
<!-- Created with Digital by H.Neemann -->
<!-- created: Mon Jul 31 11:20:22 EDT 2023 -->

<svg
   xmlns:svg="http://www.w3.org/2000/svg"
   xmlns="http://www.w3.org/2000/svg"
   width="168.6mm"
   height="69.6mm"
   viewBox="136 178 1124 464">
<g stroke-linecap="square">
<path d="M 300,600 L 300,640 L 700,640 L 700,620 L 720,620 L 724,620" stroke="#0000b2" stroke-width="4.0" fill="none"/>
<path d="M 200,420 L 360,420 L 400,420 L 400,400 L 420,400 L 424,400" stroke="#0000b2" stroke-width="4.0" fill="none"/>
<path d="M 520,420 L 560,420 L 564,420" stroke="#0000b2" stroke-width="4.0" fill="none"/>
<path d="M 1000,420 L 1020,420 L 1020,400 L 1040,400 L 1044,400" stroke="#0000b2" stroke-width="4.0" fill="none"/>
<path d="M 1140,420 L 1200,420" stroke="#0000b2" stroke-width="4.0" fill="none"/>
<path d="M 820,420 L 900,420 L 907,420" stroke="#0000b2" stroke-width="4.0" fill="none"/>
<path d="M 660,300 L 700,300 L 700,240 L 720,240 L 724,240" stroke="#0000b2" stroke-width="4.0" fill="none"/>
<path d="M 400,600 L 400,620 L 420,620 L 424,620" stroke="#0000b2" stroke-width="4.0" fill="none"/>
<path d="M 660,400 L 720,400 L 724,400" stroke="#0000b2" stroke-width="4.0" fill="none"/>
<path d="M 400,220 L 400,240 L 420,240 L 424,240" stroke="#0000b2" stroke-width="4.0" fill="none"/>
<path d="M 200,240 L 240,240 L 240,180 L 700,180 L 700,200 L 720,200 L 724,200" stroke="#0000b2" stroke-width="4.0" fill="none"/>
<path d="M 240,240 L 240,280 L 560,280 L 564,280" stroke="#0000b2" stroke-width="4.0" fill="none"/>
<path d="M 200,600 L 300,600 L 300,460" stroke="#0000b2" stroke-width="4.0" fill="none"/>
<path d="M 520,600 L 720,600 L 727,600" stroke="#0000b2" stroke-width="4.0" fill="none"/>
<path d="M 820,600 L 860,600 L 860,440 L 900,440 L 904,440" stroke="#0000b2" stroke-width="4.0" fill="none"/>
<path d="M 400,420 L 400,440 L 420,440 L 424,440" stroke="#0000b2" stroke-width="4.0" fill="none"/>
<path d="M 1020,420 L 1020,440 L 1040,440 L 1044,440" stroke="#0000b2" stroke-width="4.0" fill="none"/>
<path d="M 520,220 L 720,220 L 727,220" stroke="#0000b2" stroke-width="4.0" fill="none"/>
<path d="M 820,220 L 860,220 L 860,400 L 900,400 L 904,400" stroke="#0000b2" stroke-width="4.0" fill="none"/>
<path d="M 240,280 L 240,380" stroke="#0000b2" stroke-width="4.0" fill="none"/>
<path d="M 564,320 L 560,320 L 360,320 L 360,420 L 360,600 L 400,600 L 400,580 L 420,580 L 424,580" stroke="#0000b2" stroke-width="4.0" fill="none"/>
<path d="M 724,580 L 720,580 L 700,580 L 700,560 L 240,560 L 240,380 L 560,380 L 564,380" stroke="#0000b2" stroke-width="4.0" fill="none"/>
<path d="M 724,440 L 720,440 L 700,440 L 700,460 L 300,460 L 300,220 L 400,220 L 400,200 L 420,200 L 424,200" stroke="#0000b2" stroke-width="4.0" fill="none"/>
<g>
<circle cx="360.0" cy="420.0" r="4.0" stroke="#0000b2" stroke-width="4.0" fill="#0000b2" />
<circle cx="1020.0" cy="420.0" r="4.0" stroke="#0000b2" stroke-width="4.0" fill="#0000b2" />
<circle cx="400.0" cy="420.0" r="4.0" stroke="#0000b2" stroke-width="4.0" fill="#0000b2" />
<circle cx="300.0" cy="460.0" r="4.0" stroke="#0000b2" stroke-width="4.0" fill="#0000b2" />
<circle cx="240.0" cy="240.0" r="4.0" stroke="#0000b2" stroke-width="4.0" fill="#0000b2" />
<circle cx="240.0" cy="280.0" r="4.0" stroke="#0000b2" stroke-width="4.0" fill="#0000b2" />
<circle cx="300.0" cy="600.0" r="4.0" stroke="#0000b2" stroke-width="4.0" fill="#0000b2" />
<circle cx="400.0" cy="600.0" r="4.0" stroke="#0000b2" stroke-width="4.0" fill="#0000b2" />
<circle cx="400.0" cy="220.0" r="4.0" stroke="#0000b2" stroke-width="4.0" fill="#0000b2" />
<circle cx="240.0" cy="380.0" r="4.0" stroke="#0000b2" stroke-width="4.0" fill="#0000b2" />
</g>
<g>
<circle cx="1216.0" cy="420.0" r="9.0" stroke="#000000" stroke-width="4.0" fill="none" />
<circle cx="1216.0" cy="420.0" r="15.0" stroke="#000000" stroke-width="4.0" fill="none" />
<text text-anchor="start" x="1245.0" y="429.0" fill="#000000" style="font-size:24px"><tspan style="font-style:italic;">F</tspan></text>
<circle cx="1200.0" cy="420.0" r="2.0" stroke="#0000b2" stroke-width="4.0" fill="#0000b2" />
</g>
<g>
<path d="M 169,225 L 199,225 L 199,255 L 169,255 Z" stroke="#000000" stroke-width="4.0" fill="none"/>
<circle cx="184.0" cy="240.0" r="9.0" stroke="#000000" stroke-width="4.0" fill="none" />
<text text-anchor="end" x="155.0" y="249.0" fill="#000000" style="font-size:24px"><tspan style="font-style:italic;">A</tspan></text>
<circle cx="200.0" cy="240.0" r="2.0" stroke="#b20000" stroke-width="4.0" fill="#b20000" />
</g>
<g>
<path d="M 169,405 L 199,405 L 199,435 L 169,435 Z" stroke="#000000" stroke-width="4.0" fill="none"/>
<circle cx="184.0" cy="420.0" r="9.0" stroke="#000000" stroke-width="4.0" fill="none" />
<text text-anchor="end" x="155.0" y="429.0" fill="#000000" style="font-size:24px"><tspan style="font-style:italic;">B</tspan></text>
<circle cx="200.0" cy="420.0" r="2.0" stroke="#b20000" stroke-width="4.0" fill="#b20000" />
</g>
<g>
<path d="M 169,585 L 199,585 L 199,615 L 169,615 Z" stroke="#000000" stroke-width="4.0" fill="none"/>
<circle cx="184.0" cy="600.0" r="9.0" stroke="#000000" stroke-width="4.0" fill="none" />
<text text-anchor="end" x="155.0" y="609.0" fill="#000000" style="font-size:24px"><tspan style="font-style:italic;">C</tspan></text>
<circle cx="200.0" cy="600.0" r="2.0" stroke="#b20000" stroke-width="4.0" fill="#b20000" />
</g>
<g>
<path d="M 450,450 L 420,450 C 430,434 430,406 420,390 L 440,390 C 470,390 490,400 500,420 C 490,440 470,450 450,450 Z" stroke="#000000" stroke-width="4.0" fill="none"/>
<circle cx="510.0" cy="420.0" r="9.0" stroke="#000000" stroke-width="4.0" fill="none" />
<circle cx="420.0" cy="400.0" r="2.0" stroke="#0000b2" stroke-width="4.0" fill="#0000b2" />
<circle cx="420.0" cy="440.0" r="2.0" stroke="#0000b2" stroke-width="4.0" fill="#0000b2" />
<circle cx="520.0" cy="420.0" r="2.0" stroke="#b20000" stroke-width="4.0" fill="#b20000" />
</g>
<g>
<path d="M 930,450 L 900,450 C 910,434 910,406 900,390 L 920,390 C 950,390 970,400 980,420 C 970,440 950,450 930,450 Z" stroke="#000000" stroke-width="4.0" fill="none"/>
<circle cx="990.0" cy="420.0" r="9.0" stroke="#000000" stroke-width="4.0" fill="none" />
<circle cx="900.0" cy="400.0" r="2.0" stroke="#0000b2" stroke-width="4.0" fill="#0000b2" />
<circle cx="900.0" cy="420.0" r="2.0" stroke="#0000b2" stroke-width="4.0" fill="#0000b2" />
<circle cx="900.0" cy="440.0" r="2.0" stroke="#0000b2" stroke-width="4.0" fill="#0000b2" />
<circle cx="1000.0" cy="420.0" r="2.0" stroke="#b20000" stroke-width="4.0" fill="#b20000" />
</g>
<g>
<path d="M 1070,450 L 1040,450 C 1050,434 1050,406 1040,390 L 1060,390 C 1090,390 1110,400 1120,420 C 1110,440 1090,450 1070,450 Z" stroke="#000000" stroke-width="4.0" fill="none"/>
<circle cx="1130.0" cy="420.0" r="9.0" stroke="#000000" stroke-width="4.0" fill="none" />
<circle cx="1040.0" cy="400.0" r="2.0" stroke="#0000b2" stroke-width="4.0" fill="#0000b2" />
<circle cx="1040.0" cy="440.0" r="2.0" stroke="#0000b2" stroke-width="4.0" fill="#0000b2" />
<circle cx="1140.0" cy="420.0" r="2.0" stroke="#b20000" stroke-width="4.0" fill="#b20000" />
</g>
<g>
<path d="M 590,430 L 560,430 C 570,414 570,386 560,370 L 580,370 C 610,370 630,380 640,400 C 630,420 610,430 590,430 Z" stroke="#000000" stroke-width="4.0" fill="none"/>
<circle cx="650.0" cy="400.0" r="9.0" stroke="#000000" stroke-width="4.0" fill="none" />
<circle cx="560.0" cy="380.0" r="2.0" stroke="#0000b2" stroke-width="4.0" fill="#0000b2" />
<circle cx="560.0" cy="420.0" r="2.0" stroke="#0000b2" stroke-width="4.0" fill="#0000b2" />
<circle cx="660.0" cy="400.0" r="2.0" stroke="#b20000" stroke-width="4.0" fill="#b20000" />
</g>
<g>
<path d="M 590,330 L 560,330 C 570,314 570,286 560,270 L 580,270 C 610,270 630,280 640,300 C 630,320 610,330 590,330 Z" stroke="#000000" stroke-width="4.0" fill="none"/>
<circle cx="650.0" cy="300.0" r="9.0" stroke="#000000" stroke-width="4.0" fill="none" />
<circle cx="560.0" cy="280.0" r="2.0" stroke="#0000b2" stroke-width="4.0" fill="#0000b2" />
<circle cx="560.0" cy="320.0" r="2.0" stroke="#0000b2" stroke-width="4.0" fill="#0000b2" />
<circle cx="660.0" cy="300.0" r="2.0" stroke="#b20000" stroke-width="4.0" fill="#b20000" />
</g>
<g>
<path d="M 450,250 L 420,250 C 430,234 430,206 420,190 L 440,190 C 470,190 490,200 500,220 C 490,240 470,250 450,250 Z" stroke="#000000" stroke-width="4.0" fill="none"/>
<circle cx="510.0" cy="220.0" r="9.0" stroke="#000000" stroke-width="4.0" fill="none" />
<circle cx="420.0" cy="200.0" r="2.0" stroke="#0000b2" stroke-width="4.0" fill="#0000b2" />
<circle cx="420.0" cy="240.0" r="2.0" stroke="#0000b2" stroke-width="4.0" fill="#0000b2" />
<circle cx="520.0" cy="220.0" r="2.0" stroke="#b20000" stroke-width="4.0" fill="#b20000" />
</g>
<g>
<path d="M 750,250 L 720,250 C 730,234 730,206 720,190 L 740,190 C 770,190 790,200 800,220 C 790,240 770,250 750,250 Z" stroke="#000000" stroke-width="4.0" fill="none"/>
<circle cx="810.0" cy="220.0" r="9.0" stroke="#000000" stroke-width="4.0" fill="none" />
<circle cx="720.0" cy="200.0" r="2.0" stroke="#0000b2" stroke-width="4.0" fill="#0000b2" />
<circle cx="720.0" cy="220.0" r="2.0" stroke="#0000b2" stroke-width="4.0" fill="#0000b2" />
<circle cx="720.0" cy="240.0" r="2.0" stroke="#0000b2" stroke-width="4.0" fill="#0000b2" />
<circle cx="820.0" cy="220.0" r="2.0" stroke="#b20000" stroke-width="4.0" fill="#b20000" />
</g>
<g>
<path d="M 750,450 L 720,450 C 730,434 730,406 720,390 L 740,390 C 770,390 790,400 800,420 C 790,440 770,450 750,450 Z" stroke="#000000" stroke-width="4.0" fill="none"/>
<circle cx="810.0" cy="420.0" r="9.0" stroke="#000000" stroke-width="4.0" fill="none" />
<circle cx="720.0" cy="400.0" r="2.0" stroke="#0000b2" stroke-width="4.0" fill="#0000b2" />
<circle cx="720.0" cy="440.0" r="2.0" stroke="#0000b2" stroke-width="4.0" fill="#0000b2" />
<circle cx="820.0" cy="420.0" r="2.0" stroke="#b20000" stroke-width="4.0" fill="#b20000" />
</g>
<g>
<path d="M 450,630 L 420,630 C 430,614 430,586 420,570 L 440,570 C 470,570 490,580 500,600 C 490,620 470,630 450,630 Z" stroke="#000000" stroke-width="4.0" fill="none"/>
<circle cx="510.0" cy="600.0" r="9.0" stroke="#000000" stroke-width="4.0" fill="none" />
<circle cx="420.0" cy="580.0" r="2.0" stroke="#0000b2" stroke-width="4.0" fill="#0000b2" />
<circle cx="420.0" cy="620.0" r="2.0" stroke="#0000b2" stroke-width="4.0" fill="#0000b2" />
<circle cx="520.0" cy="600.0" r="2.0" stroke="#b20000" stroke-width="4.0" fill="#b20000" />
</g>
<g>
<path d="M 750,630 L 720,630 C 730,614 730,586 720,570 L 740,570 C 770,570 790,580 800,600 C 790,620 770,630 750,630 Z" stroke="#000000" stroke-width="4.0" fill="none"/>
<circle cx="810.0" cy="600.0" r="9.0" stroke="#000000" stroke-width="4.0" fill="none" />
<circle cx="720.0" cy="580.0" r="2.0" stroke="#0000b2" stroke-width="4.0" fill="#0000b2" />
<circle cx="720.0" cy="600.0" r="2.0" stroke="#0000b2" stroke-width="4.0" fill="#0000b2" />
<circle cx="720.0" cy="620.0" r="2.0" stroke="#0000b2" stroke-width="4.0" fill="#0000b2" />
<circle cx="820.0" cy="600.0" r="2.0" stroke="#b20000" stroke-width="4.0" fill="#b20000" />
</g>
</g>
</svg>