<?xml version="1.0" encoding="UTF-8" standalone="no"?>
<!-- Created with Digital by H.Neemann -->
<!-- created: Mon Jul 31 13:17:52 EDT 2023 -->

<svg
   xmlns:svg="http://www.w3.org/2000/svg"
   xmlns="http://www.w3.org/2000/svg"
   width="141.75mm"
   height="89.4mm"
   viewBox="135 116 945 596">
<g stroke-linecap="square">
<path d="M 760,320 L 800,320 L 800,400 L 840,400" stroke="#0000b2" stroke-width="4.0" fill="none"/>
<path d="M 200,520 L 260,520 L 380,520 L 380,500 L 400,500" stroke="#0000b2" stroke-width="4.0" fill="none"/>
<path d="M 500,520 L 600,520 L 660,520" stroke="#0000b2" stroke-width="4.0" fill="none"/>
<path d="M 220,360 L 220,140 L 660,140" stroke="#0000b2" stroke-width="4.0" fill="none"/>
<path d="M 500,400 L 580,400 L 580,340 L 660,340" stroke="#0000b2" stroke-width="4.0" fill="none"/>
<path d="M 300,280 L 300,660 L 660,660" stroke="#0000b2" stroke-width="4.0" fill="none"/>
<path d="M 200,600 L 320,600 L 380,600 L 380,580 L 400,580" stroke="#0000b2" stroke-width="4.0" fill="none"/>
<path d="M 500,600 L 540,600 L 540,200 L 660,200" stroke="#0000b2" stroke-width="4.0" fill="none"/>
<path d="M 300,220 L 300,280 L 660,280" stroke="#0000b2" stroke-width="4.0" fill="none"/>
<path d="M 380,520 L 380,540 L 400,540" stroke="#0000b2" stroke-width="4.0" fill="none"/>
<path d="M 200,220 L 300,220 L 380,220 L 380,200 L 400,200" stroke="#0000b2" stroke-width="4.0" fill="none"/>
<path d="M 500,220 L 520,220 L 520,120 L 660,120" stroke="#0000b2" stroke-width="4.0" fill="none"/>
<path d="M 760,160 L 820,160 L 820,380 L 840,380" stroke="#0000b2" stroke-width="4.0" fill="none"/>
<path d="M 580,400 L 580,480 L 660,480" stroke="#0000b2" stroke-width="4.0" fill="none"/>
<path d="M 380,400 L 380,420 L 400,420" stroke="#0000b2" stroke-width="4.0" fill="none"/>
<path d="M 940,420 L 1020,420" stroke="#0000b2" stroke-width="4.0" fill="none"/>
<path d="M 200,360 L 220,360 L 340,360 L 340,400 L 380,400 L 380,380 L 400,380" stroke="#0000b2" stroke-width="4.0" fill="none"/>
<path d="M 600,520 L 600,680 L 660,680" stroke="#0000b2" stroke-width="4.0" fill="none"/>
<path d="M 760,680 L 820,680 L 820,460 L 840,460" stroke="#0000b2" stroke-width="4.0" fill="none"/>
<path d="M 380,600 L 380,620 L 400,620" stroke="#0000b2" stroke-width="4.0" fill="none"/>
<path d="M 380,220 L 380,240 L 400,240" stroke="#0000b2" stroke-width="4.0" fill="none"/>
<path d="M 760,500 L 800,500 L 800,440 L 840,440" stroke="#0000b2" stroke-width="4.0" fill="none"/>
<path d="M 260,520 L 260,180 L 660,180" stroke="#0000b2" stroke-width="4.0" fill="none"/>
<path d="M 200,440 L 240,440 L 240,300" stroke="#0000b2" stroke-width="4.0" fill="none"/>
<path d="M 660,360 L 620,360 L 620,460 L 320,460 L 320,600 L 320,700 L 660,700" stroke="#0000b2" stroke-width="4.0" fill="none"/>
<path d="M 660,160 L 240,160 L 240,300 L 660,300" stroke="#0000b2" stroke-width="4.0" fill="none"/>
<path d="M 661,120 L 661,129" stroke="#000000" stroke-width="4.0" fill="none"/>
<path d="M 661,200 L 661,191" stroke="#000000" stroke-width="4.0" fill="none"/>
<path d="M 661,280 L 661,289" stroke="#000000" stroke-width="4.0" fill="none"/>
<path d="M 661,360 L 661,351" stroke="#000000" stroke-width="4.0" fill="none"/>
<path d="M 841,380 L 841,389" stroke="#000000" stroke-width="4.0" fill="none"/>
<path d="M 841,460 L 841,451" stroke="#000000" stroke-width="4.0" fill="none"/>
<g>
<circle cx="260.0" cy="520.0" r="4.0" stroke="#0000b2" stroke-width="4.0" fill="#0000b2" />
<circle cx="600.0" cy="520.0" r="4.0" stroke="#0000b2" stroke-width="4.0" fill="#0000b2" />
<circle cx="380.0" cy="520.0" r="4.0" stroke="#0000b2" stroke-width="4.0" fill="#0000b2" />
<circle cx="580.0" cy="400.0" r="4.0" stroke="#0000b2" stroke-width="4.0" fill="#0000b2" />
<circle cx="380.0" cy="400.0" r="4.0" stroke="#0000b2" stroke-width="4.0" fill="#0000b2" />
<circle cx="320.0" cy="600.0" r="4.0" stroke="#0000b2" stroke-width="4.0" fill="#0000b2" />
<circle cx="380.0" cy="600.0" r="4.0" stroke="#0000b2" stroke-width="4.0" fill="#0000b2" />
<circle cx="300.0" cy="280.0" r="4.0" stroke="#0000b2" stroke-width="4.0" fill="#0000b2" />
<circle cx="300.0" cy="220.0" r="4.0" stroke="#0000b2" stroke-width="4.0" fill="#0000b2" />
<circle cx="380.0" cy="220.0" r="4.0" stroke="#0000b2" stroke-width="4.0" fill="#0000b2" />
<circle cx="220.0" cy="360.0" r="4.0" stroke="#0000b2" stroke-width="4.0" fill="#0000b2" />
<circle cx="240.0" cy="300.0" r="4.0" stroke="#0000b2" stroke-width="4.0" fill="#0000b2" />
</g>
<g>
<path d="M 169,205 L 199,205 L 199,235 L 169,235 Z" stroke="#000000" stroke-width="4.0" fill="none"/>
<circle cx="184.0" cy="220.0" r="9.0" stroke="#000000" stroke-width="4.0" fill="none" />
<text text-anchor="end" x="155.0" y="229.0" fill="#000000" style="font-size:24px"><tspan style="font-style:italic;">A</tspan></text>
<circle cx="200.0" cy="220.0" r="2.0" stroke="#b20000" stroke-width="4.0" fill="#b20000" />
</g>
<g>
<path d="M 169,345 L 199,345 L 199,375 L 169,375 Z" stroke="#000000" stroke-width="4.0" fill="none"/>
<circle cx="184.0" cy="360.0" r="9.0" stroke="#000000" stroke-width="4.0" fill="none" />
<text text-anchor="end" x="155.0" y="369.0" fill="#000000" style="font-size:24px"><tspan style="font-style:italic;">B</tspan></text>
<circle cx="200.0" cy="360.0" r="2.0" stroke="#b20000" stroke-width="4.0" fill="#b20000" />
</g>
<g>
<path d="M 169,425 L 199,425 L 199,455 L 169,455 Z" stroke="#000000" stroke-width="4.0" fill="none"/>
<circle cx="184.0" cy="440.0" r="9.0" stroke="#000000" stroke-width="4.0" fill="none" />
<text text-anchor="end" x="155.0" y="449.0" fill="#000000" style="font-size:24px"><tspan style="font-style:italic;">C</tspan></text>
<circle cx="200.0" cy="440.0" r="2.0" stroke="#b20000" stroke-width="4.0" fill="#b20000" />
</g>
<g>
<path d="M 169,505 L 199,505 L 199,535 L 169,535 Z" stroke="#000000" stroke-width="4.0" fill="none"/>
<circle cx="184.0" cy="520.0" r="9.0" stroke="#000000" stroke-width="4.0" fill="none" />
<text text-anchor="end" x="155.0" y="529.0" fill="#000000" style="font-size:24px"><tspan style="font-style:italic;">D</tspan></text>
<circle cx="200.0" cy="520.0" r="2.0" stroke="#b20000" stroke-width="4.0" fill="#b20000" />
</g>
<g>
<path d="M 169,585 L 199,585 L 199,615 L 169,615 Z" stroke="#000000" stroke-width="4.0" fill="none"/>
<circle cx="184.0" cy="600.0" r="9.0" stroke="#000000" stroke-width="4.0" fill="none" />
<text text-anchor="end" x="155.0" y="609.0" fill="#000000" style="font-size:24px"><tspan style="font-style:italic;">E</tspan></text>
<circle cx="200.0" cy="600.0" r="2.0" stroke="#b20000" stroke-width="4.0" fill="#b20000" />
</g>
<g>
<circle cx="1036.0" cy="420.0" r="9.0" stroke="#000000" stroke-width="4.0" fill="none" />
<circle cx="1036.0" cy="420.0" r="15.0" stroke="#000000" stroke-width="4.0" fill="none" />
<text text-anchor="start" x="1065.0" y="429.0" fill="#000000" style="font-size:24px"><tspan style="font-style:italic;">F</tspan></text>
<circle cx="1020.0" cy="420.0" r="2.0" stroke="#0000b2" stroke-width="4.0" fill="#0000b2" />
</g>
<g>
<path d="M 450,250 L 401,250 L 401,190 L 450,190 C 460,190 480,200 479,220 C 479,240 460,250 450,250 Z" stroke="#000000" stroke-width="4.0" fill="none"/>
<circle cx="490.0" cy="220.0" r="9.0" stroke="#000000" stroke-width="4.0" fill="none" />
<circle cx="400.0" cy="200.0" r="2.0" stroke="#0000b2" stroke-width="4.0" fill="#0000b2" />
<circle cx="400.0" cy="240.0" r="2.0" stroke="#0000b2" stroke-width="4.0" fill="#0000b2" />
<circle cx="500.0" cy="220.0" r="2.0" stroke="#b20000" stroke-width="4.0" fill="#b20000" />
</g>
<g>
<path d="M 450,430 L 401,430 L 401,370 L 450,370 C 460,370 480,380 479,400 C 479,420 460,430 450,430 Z" stroke="#000000" stroke-width="4.0" fill="none"/>
<circle cx="490.0" cy="400.0" r="9.0" stroke="#000000" stroke-width="4.0" fill="none" />
<circle cx="400.0" cy="380.0" r="2.0" stroke="#0000b2" stroke-width="4.0" fill="#0000b2" />
<circle cx="400.0" cy="420.0" r="2.0" stroke="#0000b2" stroke-width="4.0" fill="#0000b2" />
<circle cx="500.0" cy="400.0" r="2.0" stroke="#b20000" stroke-width="4.0" fill="#b20000" />
</g>
<g>
<path d="M 450,550 L 401,550 L 401,490 L 450,490 C 460,490 480,500 479,520 C 479,540 460,550 450,550 Z" stroke="#000000" stroke-width="4.0" fill="none"/>
<circle cx="490.0" cy="520.0" r="9.0" stroke="#000000" stroke-width="4.0" fill="none" />
<circle cx="400.0" cy="500.0" r="2.0" stroke="#0000b2" stroke-width="4.0" fill="#0000b2" />
<circle cx="400.0" cy="540.0" r="2.0" stroke="#0000b2" stroke-width="4.0" fill="#0000b2" />
<circle cx="500.0" cy="520.0" r="2.0" stroke="#b20000" stroke-width="4.0" fill="#b20000" />
</g>
<g>
<path d="M 450,630 L 401,630 L 401,570 L 450,570 C 460,570 480,580 479,600 C 479,620 460,630 450,630 Z" stroke="#000000" stroke-width="4.0" fill="none"/>
<circle cx="490.0" cy="600.0" r="9.0" stroke="#000000" stroke-width="4.0" fill="none" />
<circle cx="400.0" cy="580.0" r="2.0" stroke="#0000b2" stroke-width="4.0" fill="#0000b2" />
<circle cx="400.0" cy="620.0" r="2.0" stroke="#0000b2" stroke-width="4.0" fill="#0000b2" />
<circle cx="500.0" cy="600.0" r="2.0" stroke="#b20000" stroke-width="4.0" fill="#b20000" />
</g>
<g>
<path d="M 710,190 L 661,190 L 661,130 L 710,130 C 720,130 740,140 739,160 C 739,180 720,190 710,190 Z" stroke="#000000" stroke-width="4.0" fill="none"/>
<circle cx="750.0" cy="160.0" r="9.0" stroke="#000000" stroke-width="4.0" fill="none" />
<circle cx="660.0" cy="120.0" r="2.0" stroke="#0000b2" stroke-width="4.0" fill="#0000b2" />
<circle cx="660.0" cy="140.0" r="2.0" stroke="#0000b2" stroke-width="4.0" fill="#0000b2" />
<circle cx="660.0" cy="160.0" r="2.0" stroke="#0000b2" stroke-width="4.0" fill="#0000b2" />
<circle cx="660.0" cy="180.0" r="2.0" stroke="#0000b2" stroke-width="4.0" fill="#0000b2" />
<circle cx="660.0" cy="200.0" r="2.0" stroke="#0000b2" stroke-width="4.0" fill="#0000b2" />
<circle cx="760.0" cy="160.0" r="2.0" stroke="#b20000" stroke-width="4.0" fill="#b20000" />
</g>
<g>
<path d="M 710,350 L 661,350 L 661,290 L 710,290 C 720,290 740,300 739,320 C 739,340 720,350 710,350 Z" stroke="#000000" stroke-width="4.0" fill="none"/>
<circle cx="750.0" cy="320.0" r="9.0" stroke="#000000" stroke-width="4.0" fill="none" />
<circle cx="660.0" cy="280.0" r="2.0" stroke="#0000b2" stroke-width="4.0" fill="#0000b2" />
<circle cx="660.0" cy="300.0" r="2.0" stroke="#0000b2" stroke-width="4.0" fill="#0000b2" />
<circle cx="660.0" cy="340.0" r="2.0" stroke="#0000b2" stroke-width="4.0" fill="#0000b2" />
<circle cx="660.0" cy="360.0" r="2.0" stroke="#0000b2" stroke-width="4.0" fill="#0000b2" />
<circle cx="760.0" cy="320.0" r="2.0" stroke="#b20000" stroke-width="4.0" fill="#b20000" />
</g>
<g>
<path d="M 710,530 L 661,530 L 661,470 L 710,470 C 720,470 740,480 739,500 C 739,520 720,530 710,530 Z" stroke="#000000" stroke-width="4.0" fill="none"/>
<circle cx="750.0" cy="500.0" r="9.0" stroke="#000000" stroke-width="4.0" fill="none" />
<circle cx="660.0" cy="480.0" r="2.0" stroke="#0000b2" stroke-width="4.0" fill="#0000b2" />
<circle cx="660.0" cy="520.0" r="2.0" stroke="#0000b2" stroke-width="4.0" fill="#0000b2" />
<circle cx="760.0" cy="500.0" r="2.0" stroke="#b20000" stroke-width="4.0" fill="#b20000" />
</g>
<g>
<path d="M 710,710 L 661,710 L 661,650 L 710,650 C 720,650 740,660 739,680 C 739,700 720,710 710,710 Z" stroke="#000000" stroke-width="4.0" fill="none"/>
<circle cx="750.0" cy="680.0" r="9.0" stroke="#000000" stroke-width="4.0" fill="none" />
<circle cx="660.0" cy="660.0" r="2.0" stroke="#0000b2" stroke-width="4.0" fill="#0000b2" />
<circle cx="660.0" cy="680.0" r="2.0" stroke="#0000b2" stroke-width="4.0" fill="#0000b2" />
<circle cx="660.0" cy="700.0" r="2.0" stroke="#0000b2" stroke-width="4.0" fill="#0000b2" />
<circle cx="760.0" cy="680.0" r="2.0" stroke="#b20000" stroke-width="4.0" fill="#b20000" />
</g>
<g>
<path d="M 890,450 L 841,450 L 841,390 L 890,390 C 900,390 920,400 919,420 C 919,440 900,450 890,450 Z" stroke="#000000" stroke-width="4.0" fill="none"/>
<circle cx="930.0" cy="420.0" r="9.0" stroke="#000000" stroke-width="4.0" fill="none" />
<circle cx="840.0" cy="380.0" r="2.0" stroke="#0000b2" stroke-width="4.0" fill="#0000b2" />
<circle cx="840.0" cy="400.0" r="2.0" stroke="#0000b2" stroke-width="4.0" fill="#0000b2" />
<circle cx="840.0" cy="440.0" r="2.0" stroke="#0000b2" stroke-width="4.0" fill="#0000b2" />
<circle cx="840.0" cy="460.0" r="2.0" stroke="#0000b2" stroke-width="4.0" fill="#0000b2" />
<circle cx="940.0" cy="420.0" r="2.0" stroke="#b20000" stroke-width="4.0" fill="#b20000" />
</g>
</g>
</svg>