<?xml version="1.0" encoding="UTF-8" standalone="no"?>
<!-- Created with Digital by H.Neemann -->
<!-- created: Wed Jul 05 10:10:35 EDT 2023 -->

<svg
   xmlns:svg="http://www.w3.org/2000/svg"
   xmlns="http://www.w3.org/2000/svg"
   width="117.45mm"
   height="133.65mm"
   viewBox="381 163 783 891">
<g stroke-linecap="square">
<path d="M 880,320 L 900,320 L 900,380 L 780,380 L 780,460 L 820,460" stroke="#0000b2" stroke-width="4.0" fill="none"/>
<path d="M 640,640 L 820,640" stroke="#0000b2" stroke-width="4.0" fill="none"/>
<path d="M 460,640 L 600,640" stroke="#0000b2" stroke-width="4.0" fill="none"/>
<path d="M 880,640 L 1080,640" stroke="#0000b2" stroke-width="4.0" fill="none"/>
<path d="M 520,820 L 520,900 L 820,900" stroke="#0000b2" stroke-width="4.0" fill="none"/>
<path d="M 640,520 L 820,520" stroke="#0000b2" stroke-width="4.0" fill="none"/>
<path d="M 460,520 L 600,520" stroke="#0000b2" stroke-width="4.0" fill="none"/>
<path d="M 880,520 L 1080,520" stroke="#0000b2" stroke-width="4.0" fill="none"/>
<path d="M 640,980 L 820,980" stroke="#0000b2" stroke-width="4.0" fill="none"/>
<path d="M 460,980 L 600,980" stroke="#0000b2" stroke-width="4.0" fill="none"/>
<path d="M 880,980 L 1080,980" stroke="#0000b2" stroke-width="4.0" fill="none"/>
<path d="M 520,440 L 520,540 L 820,540" stroke="#0000b2" stroke-width="4.0" fill="none"/>
<path d="M 880,540 L 900,540 L 900,620 L 780,620 L 780,680 L 820,680" stroke="#0000b2" stroke-width="4.0" fill="none"/>
<path d="M 640,420 L 820,420" stroke="#0000b2" stroke-width="4.0" fill="none"/>
<path d="M 460,420 L 600,420" stroke="#0000b2" stroke-width="4.0" fill="none"/>
<path d="M 880,420 L 1080,420" stroke="#0000b2" stroke-width="4.0" fill="none"/>
<path d="M 440,360 L 520,360 L 520,320" stroke="#0000b2" stroke-width="4.0" fill="none"/>
<path d="M 520,900 L 520,1000 L 820,1000" stroke="#0000b2" stroke-width="4.0" fill="none"/>
<path d="M 640,300 L 820,300" stroke="#0000b2" stroke-width="4.0" fill="none"/>
<path d="M 460,300 L 600,300" stroke="#0000b2" stroke-width="4.0" fill="none"/>
<path d="M 880,300 L 1080,300" stroke="#0000b2" stroke-width="4.0" fill="none"/>
<path d="M 440,240 L 720,240 L 720,220 L 820,220" stroke="#0000b2" stroke-width="4.0" fill="none"/>
<path d="M 640,880 L 820,880" stroke="#0000b2" stroke-width="4.0" fill="none"/>
<path d="M 460,880 L 600,880" stroke="#0000b2" stroke-width="4.0" fill="none"/>
<path d="M 880,880 L 1080,880" stroke="#0000b2" stroke-width="4.0" fill="none"/>
<path d="M 640,180 L 820,180" stroke="#0000b2" stroke-width="4.0" fill="none"/>
<path d="M 460,180 L 600,180" stroke="#0000b2" stroke-width="4.0" fill="none"/>
<path d="M 880,180 L 1080,180" stroke="#0000b2" stroke-width="4.0" fill="none"/>
<path d="M 440,820 L 520,820 L 520,780" stroke="#0000b2" stroke-width="4.0" fill="none"/>
<path d="M 520,360 L 520,440 L 820,440" stroke="#0000b2" stroke-width="4.0" fill="none"/>
<path d="M 640,760 L 820,760" stroke="#0000b2" stroke-width="4.0" fill="none"/>
<path d="M 460,760 L 600,760" stroke="#0000b2" stroke-width="4.0" fill="none"/>
<path d="M 880,760 L 1080,760" stroke="#0000b2" stroke-width="4.0" fill="none"/>
<path d="M 820,320 L 520,320 L 520,200 L 820,200" stroke="#0000b2" stroke-width="4.0" fill="none"/>
<path d="M 820,780 L 520,780 L 520,660 L 820,660" stroke="#0000b2" stroke-width="4.0" fill="none"/>
<path d="M 880,200 L 900,200 L 900,260 L 780,260 L 780,340 L 820,340" stroke="#0000b2" stroke-width="4.0" fill="none"/>
<path d="M 820,560 L 780,560 L 780,500 L 900,500 L 900,440 L 880,440" stroke="#0000b2" stroke-width="4.0" fill="none"/>
<path d="M 880,660 L 900,660 L 900,720 L 780,720 L 780,800 L 820,800" stroke="#0000b2" stroke-width="4.0" fill="none"/>
<path d="M 880,780 L 900,780 L 900,840 L 780,840 L 780,920 L 820,920" stroke="#0000b2" stroke-width="4.0" fill="none"/>
<path d="M 880,900 L 900,900 L 900,960 L 780,960 L 780,1020 L 820,1020" stroke="#0000b2" stroke-width="4.0" fill="none"/>
<g>
<circle cx="520.0" cy="320.0" r="4.0" stroke="#0000b2" stroke-width="4.0" fill="#0000b2" />
<circle cx="520.0" cy="900.0" r="4.0" stroke="#0000b2" stroke-width="4.0" fill="#0000b2" />
<circle cx="520.0" cy="780.0" r="4.0" stroke="#0000b2" stroke-width="4.0" fill="#0000b2" />
<circle cx="520.0" cy="360.0" r="4.0" stroke="#0000b2" stroke-width="4.0" fill="#0000b2" />
<circle cx="520.0" cy="820.0" r="4.0" stroke="#0000b2" stroke-width="4.0" fill="#0000b2" />
<circle cx="520.0" cy="440.0" r="4.0" stroke="#0000b2" stroke-width="4.0" fill="#0000b2" />
</g>
<g>
<path d="M 601,168 L 619,180 L 601,192 Z" stroke="#000000" stroke-width="4.0" fill="none"/>
<circle cx="630.0" cy="180.0" r="9.0" stroke="#000000" stroke-width="4.0" fill="none" />
<circle cx="600.0" cy="180.0" r="2.0" stroke="#0000b2" stroke-width="4.0" fill="#0000b2" />
<circle cx="640.0" cy="180.0" r="2.0" stroke="#b20000" stroke-width="4.0" fill="#b20000" />
</g>
<g>
<path d="M 601,288 L 619,300 L 601,312 Z" stroke="#000000" stroke-width="4.0" fill="none"/>
<circle cx="630.0" cy="300.0" r="9.0" stroke="#000000" stroke-width="4.0" fill="none" />
<circle cx="600.0" cy="300.0" r="2.0" stroke="#0000b2" stroke-width="4.0" fill="#0000b2" />
<circle cx="640.0" cy="300.0" r="2.0" stroke="#b20000" stroke-width="4.0" fill="#b20000" />
</g>
<g>
<path d="M 601,408 L 619,420 L 601,432 Z" stroke="#000000" stroke-width="4.0" fill="none"/>
<circle cx="630.0" cy="420.0" r="9.0" stroke="#000000" stroke-width="4.0" fill="none" />
<circle cx="600.0" cy="420.0" r="2.0" stroke="#0000b2" stroke-width="4.0" fill="#0000b2" />
<circle cx="640.0" cy="420.0" r="2.0" stroke="#b20000" stroke-width="4.0" fill="#b20000" />
</g>
<g>
<path d="M 601,508 L 619,520 L 601,532 Z" stroke="#000000" stroke-width="4.0" fill="none"/>
<circle cx="630.0" cy="520.0" r="9.0" stroke="#000000" stroke-width="4.0" fill="none" />
<circle cx="600.0" cy="520.0" r="2.0" stroke="#0000b2" stroke-width="4.0" fill="#0000b2" />
<circle cx="640.0" cy="520.0" r="2.0" stroke="#b20000" stroke-width="4.0" fill="#b20000" />
</g>
<g>
<path d="M 429,165 L 459,165 L 459,195 L 429,195 Z" stroke="#000000" stroke-width="4.0" fill="none"/>
<circle cx="444.0" cy="180.0" r="9.0" stroke="#000000" stroke-width="4.0" fill="none" />
<text text-anchor="end" x="415.0" y="189.0" fill="#000000" style="font-size:24px"><tspan style="font-style:italic;">A<tspan style="font-size:80%;baseline-shift:sub;">1</tspan></tspan></text>
<circle cx="460.0" cy="180.0" r="2.0" stroke="#b20000" stroke-width="4.0" fill="#b20000" />
</g>
<g>
<path d="M 429,285 L 459,285 L 459,315 L 429,315 Z" stroke="#000000" stroke-width="4.0" fill="none"/>
<circle cx="444.0" cy="300.0" r="9.0" stroke="#000000" stroke-width="4.0" fill="none" />
<text text-anchor="end" x="415.0" y="309.0" fill="#000000" style="font-size:24px"><tspan style="font-style:italic;">A<tspan style="font-size:80%;baseline-shift:sub;">2</tspan></tspan></text>
<circle cx="460.0" cy="300.0" r="2.0" stroke="#b20000" stroke-width="4.0" fill="#b20000" />
</g>
<g>
<path d="M 429,405 L 459,405 L 459,435 L 429,435 Z" stroke="#000000" stroke-width="4.0" fill="none"/>
<circle cx="444.0" cy="420.0" r="9.0" stroke="#000000" stroke-width="4.0" fill="none" />
<text text-anchor="end" x="415.0" y="429.0" fill="#000000" style="font-size:24px"><tspan style="font-style:italic;">A<tspan style="font-size:80%;baseline-shift:sub;">3</tspan></tspan></text>
<circle cx="460.0" cy="420.0" r="2.0" stroke="#b20000" stroke-width="4.0" fill="#b20000" />
</g>
<g>
<path d="M 429,505 L 459,505 L 459,535 L 429,535 Z" stroke="#000000" stroke-width="4.0" fill="none"/>
<circle cx="444.0" cy="520.0" r="9.0" stroke="#000000" stroke-width="4.0" fill="none" />
<text text-anchor="end" x="415.0" y="529.0" fill="#000000" style="font-size:24px"><tspan style="font-style:italic;">A<tspan style="font-size:80%;baseline-shift:sub;">4</tspan></tspan></text>
<circle cx="460.0" cy="520.0" r="2.0" stroke="#b20000" stroke-width="4.0" fill="#b20000" />
</g>
<g>
<path d="M 821,170 L 879,170 L 879,230 L 821,230 Z" stroke="#000000" stroke-width="4.0" fill="none"/>
<text text-anchor="start" x="824.0" y="186.75" fill="#808080" style="font-size:18px">a</text>
<text text-anchor="start" x="824.0" y="206.75" fill="#808080" style="font-size:18px">b</text>
<text text-anchor="start" x="824.0" y="226.75" fill="#808080" style="font-size:18px">c<tspan style="font-size:80%;baseline-shift:sub;">i</tspan></text>
<text text-anchor="end" x="876.0" y="186.75" fill="#808080" style="font-size:18px">s</text>
<text text-anchor="end" x="876.0" y="206.75" fill="#808080" style="font-size:18px">c<tspan style="font-size:80%;baseline-shift:sub;">o</tspan></text>
<text text-anchor="middle" x="850.0" y="247.5" fill="#808080" style="font-size:18px">Add</text>
<circle cx="820.0" cy="180.0" r="2.0" stroke="#0000b2" stroke-width="4.0" fill="#0000b2" />
<circle cx="820.0" cy="200.0" r="2.0" stroke="#0000b2" stroke-width="4.0" fill="#0000b2" />
<circle cx="820.0" cy="220.0" r="2.0" stroke="#0000b2" stroke-width="4.0" fill="#0000b2" />
<circle cx="880.0" cy="180.0" r="2.0" stroke="#b20000" stroke-width="4.0" fill="#b20000" />
<circle cx="880.0" cy="200.0" r="2.0" stroke="#b20000" stroke-width="4.0" fill="#b20000" />
</g>
<g>
<path d="M 821,290 L 879,290 L 879,350 L 821,350 Z" stroke="#000000" stroke-width="4.0" fill="none"/>
<text text-anchor="start" x="824.0" y="306.75" fill="#808080" style="font-size:18px">a</text>
<text text-anchor="start" x="824.0" y="326.75" fill="#808080" style="font-size:18px">b</text>
<text text-anchor="start" x="824.0" y="346.75" fill="#808080" style="font-size:18px">c<tspan style="font-size:80%;baseline-shift:sub;">i</tspan></text>
<text text-anchor="end" x="876.0" y="306.75" fill="#808080" style="font-size:18px">s</text>
<text text-anchor="end" x="876.0" y="326.75" fill="#808080" style="font-size:18px">c<tspan style="font-size:80%;baseline-shift:sub;">o</tspan></text>
<text text-anchor="middle" x="850.0" y="367.5" fill="#808080" style="font-size:18px">Add</text>
<circle cx="820.0" cy="300.0" r="2.0" stroke="#0000b2" stroke-width="4.0" fill="#0000b2" />
<circle cx="820.0" cy="320.0" r="2.0" stroke="#0000b2" stroke-width="4.0" fill="#0000b2" />
<circle cx="820.0" cy="340.0" r="2.0" stroke="#0000b2" stroke-width="4.0" fill="#0000b2" />
<circle cx="880.0" cy="300.0" r="2.0" stroke="#b20000" stroke-width="4.0" fill="#b20000" />
<circle cx="880.0" cy="320.0" r="2.0" stroke="#b20000" stroke-width="4.0" fill="#b20000" />
</g>
<g>
<path d="M 821,410 L 879,410 L 879,470 L 821,470 Z" stroke="#000000" stroke-width="4.0" fill="none"/>
<text text-anchor="start" x="824.0" y="426.75" fill="#808080" style="font-size:18px">a</text>
<text text-anchor="start" x="824.0" y="446.75" fill="#808080" style="font-size:18px">b</text>
<text text-anchor="start" x="824.0" y="466.75" fill="#808080" style="font-size:18px">c<tspan style="font-size:80%;baseline-shift:sub;">i</tspan></text>
<text text-anchor="end" x="876.0" y="426.75" fill="#808080" style="font-size:18px">s</text>
<text text-anchor="end" x="876.0" y="446.75" fill="#808080" style="font-size:18px">c<tspan style="font-size:80%;baseline-shift:sub;">o</tspan></text>
<text text-anchor="middle" x="850.0" y="487.5" fill="#808080" style="font-size:18px">Add</text>
<circle cx="820.0" cy="420.0" r="2.0" stroke="#0000b2" stroke-width="4.0" fill="#0000b2" />
<circle cx="820.0" cy="440.0" r="2.0" stroke="#0000b2" stroke-width="4.0" fill="#0000b2" />
<circle cx="820.0" cy="460.0" r="2.0" stroke="#0000b2" stroke-width="4.0" fill="#0000b2" />
<circle cx="880.0" cy="420.0" r="2.0" stroke="#b20000" stroke-width="4.0" fill="#b20000" />
<circle cx="880.0" cy="440.0" r="2.0" stroke="#b20000" stroke-width="4.0" fill="#b20000" />
</g>
<g>
<path d="M 821,510 L 879,510 L 879,570 L 821,570 Z" stroke="#000000" stroke-width="4.0" fill="none"/>
<text text-anchor="start" x="824.0" y="526.75" fill="#808080" style="font-size:18px">a</text>
<text text-anchor="start" x="824.0" y="546.75" fill="#808080" style="font-size:18px">b</text>
<text text-anchor="start" x="824.0" y="566.75" fill="#808080" style="font-size:18px">c<tspan style="font-size:80%;baseline-shift:sub;">i</tspan></text>
<text text-anchor="end" x="876.0" y="526.75" fill="#808080" style="font-size:18px">s</text>
<text text-anchor="end" x="876.0" y="546.75" fill="#808080" style="font-size:18px">c<tspan style="font-size:80%;baseline-shift:sub;">o</tspan></text>
<text text-anchor="middle" x="850.0" y="587.5" fill="#808080" style="font-size:18px">Add</text>
<circle cx="820.0" cy="520.0" r="2.0" stroke="#0000b2" stroke-width="4.0" fill="#0000b2" />
<circle cx="820.0" cy="540.0" r="2.0" stroke="#0000b2" stroke-width="4.0" fill="#0000b2" />
<circle cx="820.0" cy="560.0" r="2.0" stroke="#0000b2" stroke-width="4.0" fill="#0000b2" />
<circle cx="880.0" cy="520.0" r="2.0" stroke="#b20000" stroke-width="4.0" fill="#b20000" />
<circle cx="880.0" cy="540.0" r="2.0" stroke="#b20000" stroke-width="4.0" fill="#b20000" />
</g>
<g>
<text text-anchor="end" x="437.0" y="249.0" fill="#000000" style="font-size:24px">1</text>
<circle cx="440.0" cy="240.0" r="2.0" stroke="#b20000" stroke-width="4.0" fill="#b20000" />
</g>
<g>
<circle cx="1096.0" cy="180.0" r="9.0" stroke="#000000" stroke-width="4.0" fill="none" />
<circle cx="1096.0" cy="180.0" r="15.0" stroke="#000000" stroke-width="4.0" fill="none" />
<text text-anchor="start" x="1125.0" y="189.0" fill="#000000" style="font-size:24px"><tspan style="font-style:italic;">A'<tspan style="font-size:80%;baseline-shift:sub;">1</tspan></tspan></text>
<circle cx="1080.0" cy="180.0" r="2.0" stroke="#0000b2" stroke-width="4.0" fill="#0000b2" />
</g>
<g>
<circle cx="1096.0" cy="300.0" r="9.0" stroke="#000000" stroke-width="4.0" fill="none" />
<circle cx="1096.0" cy="300.0" r="15.0" stroke="#000000" stroke-width="4.0" fill="none" />
<text text-anchor="start" x="1125.0" y="309.0" fill="#000000" style="font-size:24px"><tspan style="font-style:italic;">A'<tspan style="font-size:80%;baseline-shift:sub;">2</tspan></tspan></text>
<circle cx="1080.0" cy="300.0" r="2.0" stroke="#0000b2" stroke-width="4.0" fill="#0000b2" />
</g>
<g>
<circle cx="1096.0" cy="420.0" r="9.0" stroke="#000000" stroke-width="4.0" fill="none" />
<circle cx="1096.0" cy="420.0" r="15.0" stroke="#000000" stroke-width="4.0" fill="none" />
<text text-anchor="start" x="1125.0" y="429.0" fill="#000000" style="font-size:24px"><tspan style="font-style:italic;">A'<tspan style="font-size:80%;baseline-shift:sub;">3</tspan></tspan></text>
<circle cx="1080.0" cy="420.0" r="2.0" stroke="#0000b2" stroke-width="4.0" fill="#0000b2" />
</g>
<g>
<circle cx="1096.0" cy="520.0" r="9.0" stroke="#000000" stroke-width="4.0" fill="none" />
<circle cx="1096.0" cy="520.0" r="15.0" stroke="#000000" stroke-width="4.0" fill="none" />
<text text-anchor="start" x="1125.0" y="529.0" fill="#000000" style="font-size:24px"><tspan style="font-style:italic;">A'<tspan style="font-size:80%;baseline-shift:sub;">4</tspan></tspan></text>
<circle cx="1080.0" cy="520.0" r="2.0" stroke="#0000b2" stroke-width="4.0" fill="#0000b2" />
</g>
<g>
<text text-anchor="end" x="437.0" y="369.0" fill="#000000" style="font-size:24px">0</text>
<circle cx="440.0" cy="360.0" r="2.0" stroke="#b20000" stroke-width="4.0" fill="#b20000" />
</g>
<g>
<path d="M 601,628 L 619,640 L 601,652 Z" stroke="#000000" stroke-width="4.0" fill="none"/>
<circle cx="630.0" cy="640.0" r="9.0" stroke="#000000" stroke-width="4.0" fill="none" />
<circle cx="600.0" cy="640.0" r="2.0" stroke="#0000b2" stroke-width="4.0" fill="#0000b2" />
<circle cx="640.0" cy="640.0" r="2.0" stroke="#b20000" stroke-width="4.0" fill="#b20000" />
</g>
<g>
<path d="M 601,748 L 619,760 L 601,772 Z" stroke="#000000" stroke-width="4.0" fill="none"/>
<circle cx="630.0" cy="760.0" r="9.0" stroke="#000000" stroke-width="4.0" fill="none" />
<circle cx="600.0" cy="760.0" r="2.0" stroke="#0000b2" stroke-width="4.0" fill="#0000b2" />
<circle cx="640.0" cy="760.0" r="2.0" stroke="#b20000" stroke-width="4.0" fill="#b20000" />
</g>
<g>
<path d="M 601,868 L 619,880 L 601,892 Z" stroke="#000000" stroke-width="4.0" fill="none"/>
<circle cx="630.0" cy="880.0" r="9.0" stroke="#000000" stroke-width="4.0" fill="none" />
<circle cx="600.0" cy="880.0" r="2.0" stroke="#0000b2" stroke-width="4.0" fill="#0000b2" />
<circle cx="640.0" cy="880.0" r="2.0" stroke="#b20000" stroke-width="4.0" fill="#b20000" />
</g>
<g>
<path d="M 601,968 L 619,980 L 601,992 Z" stroke="#000000" stroke-width="4.0" fill="none"/>
<circle cx="630.0" cy="980.0" r="9.0" stroke="#000000" stroke-width="4.0" fill="none" />
<circle cx="600.0" cy="980.0" r="2.0" stroke="#0000b2" stroke-width="4.0" fill="#0000b2" />
<circle cx="640.0" cy="980.0" r="2.0" stroke="#b20000" stroke-width="4.0" fill="#b20000" />
</g>
<g>
<path d="M 429,625 L 459,625 L 459,655 L 429,655 Z" stroke="#000000" stroke-width="4.0" fill="none"/>
<circle cx="444.0" cy="640.0" r="9.0" stroke="#000000" stroke-width="4.0" fill="none" />
<text text-anchor="end" x="415.0" y="649.0" fill="#000000" style="font-size:24px"><tspan style="font-style:italic;">A<tspan style="font-size:80%;baseline-shift:sub;">5</tspan></tspan></text>
<circle cx="460.0" cy="640.0" r="2.0" stroke="#b20000" stroke-width="4.0" fill="#b20000" />
</g>
<g>
<path d="M 429,745 L 459,745 L 459,775 L 429,775 Z" stroke="#000000" stroke-width="4.0" fill="none"/>
<circle cx="444.0" cy="760.0" r="9.0" stroke="#000000" stroke-width="4.0" fill="none" />
<text text-anchor="end" x="415.0" y="769.0" fill="#000000" style="font-size:24px"><tspan style="font-style:italic;">A<tspan style="font-size:80%;baseline-shift:sub;">6</tspan></tspan></text>
<circle cx="460.0" cy="760.0" r="2.0" stroke="#b20000" stroke-width="4.0" fill="#b20000" />
</g>
<g>
<path d="M 429,865 L 459,865 L 459,895 L 429,895 Z" stroke="#000000" stroke-width="4.0" fill="none"/>
<circle cx="444.0" cy="880.0" r="9.0" stroke="#000000" stroke-width="4.0" fill="none" />
<text text-anchor="end" x="415.0" y="889.0" fill="#000000" style="font-size:24px"><tspan style="font-style:italic;">A<tspan style="font-size:80%;baseline-shift:sub;">7</tspan></tspan></text>
<circle cx="460.0" cy="880.0" r="2.0" stroke="#b20000" stroke-width="4.0" fill="#b20000" />
</g>
<g>
<path d="M 429,965 L 459,965 L 459,995 L 429,995 Z" stroke="#000000" stroke-width="4.0" fill="none"/>
<circle cx="444.0" cy="980.0" r="9.0" stroke="#000000" stroke-width="4.0" fill="none" />
<text text-anchor="end" x="415.0" y="989.0" fill="#000000" style="font-size:24px"><tspan style="font-style:italic;">A<tspan style="font-size:80%;baseline-shift:sub;">8</tspan></tspan></text>
<circle cx="460.0" cy="980.0" r="2.0" stroke="#b20000" stroke-width="4.0" fill="#b20000" />
</g>
<g>
<path d="M 821,630 L 879,630 L 879,690 L 821,690 Z" stroke="#000000" stroke-width="4.0" fill="none"/>
<text text-anchor="start" x="824.0" y="646.75" fill="#808080" style="font-size:18px">a</text>
<text text-anchor="start" x="824.0" y="666.75" fill="#808080" style="font-size:18px">b</text>
<text text-anchor="start" x="824.0" y="686.75" fill="#808080" style="font-size:18px">c<tspan style="font-size:80%;baseline-shift:sub;">i</tspan></text>
<text text-anchor="end" x="876.0" y="646.75" fill="#808080" style="font-size:18px">s</text>
<text text-anchor="end" x="876.0" y="666.75" fill="#808080" style="font-size:18px">c<tspan style="font-size:80%;baseline-shift:sub;">o</tspan></text>
<text text-anchor="middle" x="850.0" y="707.5" fill="#808080" style="font-size:18px">Add</text>
<circle cx="820.0" cy="640.0" r="2.0" stroke="#0000b2" stroke-width="4.0" fill="#0000b2" />
<circle cx="820.0" cy="660.0" r="2.0" stroke="#0000b2" stroke-width="4.0" fill="#0000b2" />
<circle cx="820.0" cy="680.0" r="2.0" stroke="#0000b2" stroke-width="4.0" fill="#0000b2" />
<circle cx="880.0" cy="640.0" r="2.0" stroke="#b20000" stroke-width="4.0" fill="#b20000" />
<circle cx="880.0" cy="660.0" r="2.0" stroke="#b20000" stroke-width="4.0" fill="#b20000" />
</g>
<g>
<path d="M 821,750 L 879,750 L 879,810 L 821,810 Z" stroke="#000000" stroke-width="4.0" fill="none"/>
<text text-anchor="start" x="824.0" y="766.75" fill="#808080" style="font-size:18px">a</text>
<text text-anchor="start" x="824.0" y="786.75" fill="#808080" style="font-size:18px">b</text>
<text text-anchor="start" x="824.0" y="806.75" fill="#808080" style="font-size:18px">c<tspan style="font-size:80%;baseline-shift:sub;">i</tspan></text>
<text text-anchor="end" x="876.0" y="766.75" fill="#808080" style="font-size:18px">s</text>
<text text-anchor="end" x="876.0" y="786.75" fill="#808080" style="font-size:18px">c<tspan style="font-size:80%;baseline-shift:sub;">o</tspan></text>
<text text-anchor="middle" x="850.0" y="827.5" fill="#808080" style="font-size:18px">Add</text>
<circle cx="820.0" cy="760.0" r="2.0" stroke="#0000b2" stroke-width="4.0" fill="#0000b2" />
<circle cx="820.0" cy="780.0" r="2.0" stroke="#0000b2" stroke-width="4.0" fill="#0000b2" />
<circle cx="820.0" cy="800.0" r="2.0" stroke="#0000b2" stroke-width="4.0" fill="#0000b2" />
<circle cx="880.0" cy="760.0" r="2.0" stroke="#b20000" stroke-width="4.0" fill="#b20000" />
<circle cx="880.0" cy="780.0" r="2.0" stroke="#b20000" stroke-width="4.0" fill="#b20000" />
</g>
<g>
<path d="M 821,870 L 879,870 L 879,930 L 821,930 Z" stroke="#000000" stroke-width="4.0" fill="none"/>
<text text-anchor="start" x="824.0" y="886.75" fill="#808080" style="font-size:18px">a</text>
<text text-anchor="start" x="824.0" y="906.75" fill="#808080" style="font-size:18px">b</text>
<text text-anchor="start" x="824.0" y="926.75" fill="#808080" style="font-size:18px">c<tspan style="font-size:80%;baseline-shift:sub;">i</tspan></text>
<text text-anchor="end" x="876.0" y="886.75" fill="#808080" style="font-size:18px">s</text>
<text text-anchor="end" x="876.0" y="906.75" fill="#808080" style="font-size:18px">c<tspan style="font-size:80%;baseline-shift:sub;">o</tspan></text>
<text text-anchor="middle" x="850.0" y="947.5" fill="#808080" style="font-size:18px">Add</text>
<circle cx="820.0" cy="880.0" r="2.0" stroke="#0000b2" stroke-width="4.0" fill="#0000b2" />
<circle cx="820.0" cy="900.0" r="2.0" stroke="#0000b2" stroke-width="4.0" fill="#0000b2" />
<circle cx="820.0" cy="920.0" r="2.0" stroke="#0000b2" stroke-width="4.0" fill="#0000b2" />
<circle cx="880.0" cy="880.0" r="2.0" stroke="#b20000" stroke-width="4.0" fill="#b20000" />
<circle cx="880.0" cy="900.0" r="2.0" stroke="#b20000" stroke-width="4.0" fill="#b20000" />
</g>
<g>
<path d="M 821,970 L 879,970 L 879,1030 L 821,1030 Z" stroke="#000000" stroke-width="4.0" fill="none"/>
<text text-anchor="start" x="824.0" y="986.75" fill="#808080" style="font-size:18px">a</text>
<text text-anchor="start" x="824.0" y="1006.75" fill="#808080" style="font-size:18px">b</text>
<text text-anchor="start" x="824.0" y="1026.75" fill="#808080" style="font-size:18px">c<tspan style="font-size:80%;baseline-shift:sub;">i</tspan></text>
<text text-anchor="end" x="876.0" y="986.75" fill="#808080" style="font-size:18px">s</text>
<text text-anchor="end" x="876.0" y="1006.75" fill="#808080" style="font-size:18px">c<tspan style="font-size:80%;baseline-shift:sub;">o</tspan></text>
<text text-anchor="middle" x="850.0" y="1047.5" fill="#808080" style="font-size:18px">Add</text>
<circle cx="820.0" cy="980.0" r="2.0" stroke="#0000b2" stroke-width="4.0" fill="#0000b2" />
<circle cx="820.0" cy="1000.0" r="2.0" stroke="#0000b2" stroke-width="4.0" fill="#0000b2" />
<circle cx="820.0" cy="1020.0" r="2.0" stroke="#0000b2" stroke-width="4.0" fill="#0000b2" />
<circle cx="880.0" cy="980.0" r="2.0" stroke="#b20000" stroke-width="4.0" fill="#b20000" />
<circle cx="880.0" cy="1000.0" r="2.0" stroke="#b20000" stroke-width="4.0" fill="#b20000" />
</g>
<g>
<circle cx="1096.0" cy="640.0" r="9.0" stroke="#000000" stroke-width="4.0" fill="none" />
<circle cx="1096.0" cy="640.0" r="15.0" stroke="#000000" stroke-width="4.0" fill="none" />
<text text-anchor="start" x="1125.0" y="649.0" fill="#000000" style="font-size:24px"><tspan style="font-style:italic;">A'<tspan style="font-size:80%;baseline-shift:sub;">5</tspan></tspan></text>
<circle cx="1080.0" cy="640.0" r="2.0" stroke="#0000b2" stroke-width="4.0" fill="#0000b2" />
</g>
<g>
<circle cx="1096.0" cy="760.0" r="9.0" stroke="#000000" stroke-width="4.0" fill="none" />
<circle cx="1096.0" cy="760.0" r="15.0" stroke="#000000" stroke-width="4.0" fill="none" />
<text text-anchor="start" x="1125.0" y="769.0" fill="#000000" style="font-size:24px"><tspan style="font-style:italic;">A'<tspan style="font-size:80%;baseline-shift:sub;">6</tspan></tspan></text>
<circle cx="1080.0" cy="760.0" r="2.0" stroke="#0000b2" stroke-width="4.0" fill="#0000b2" />
</g>
<g>
<circle cx="1096.0" cy="880.0" r="9.0" stroke="#000000" stroke-width="4.0" fill="none" />
<circle cx="1096.0" cy="880.0" r="15.0" stroke="#000000" stroke-width="4.0" fill="none" />
<text text-anchor="start" x="1125.0" y="889.0" fill="#000000" style="font-size:24px"><tspan style="font-style:italic;">A'<tspan style="font-size:80%;baseline-shift:sub;">7</tspan></tspan></text>
<circle cx="1080.0" cy="880.0" r="2.0" stroke="#0000b2" stroke-width="4.0" fill="#0000b2" />
</g>
<g>
<circle cx="1096.0" cy="980.0" r="9.0" stroke="#000000" stroke-width="4.0" fill="none" />
<circle cx="1096.0" cy="980.0" r="15.0" stroke="#000000" stroke-width="4.0" fill="none" />
<text text-anchor="start" x="1125.0" y="989.0" fill="#000000" style="font-size:24px"><tspan style="font-style:italic;">A'<tspan style="font-size:80%;baseline-shift:sub;">8</tspan></tspan></text>
<circle cx="1080.0" cy="980.0" r="2.0" stroke="#0000b2" stroke-width="4.0" fill="#0000b2" />
</g>
<g>
<text text-anchor="end" x="437.0" y="829.0" fill="#000000" style="font-size:24px">0</text>
<circle cx="440.0" cy="820.0" r="2.0" stroke="#b20000" stroke-width="4.0" fill="#b20000" />
</g>
</g>
</svg>