<?xml version="1.0" encoding="UTF-8" standalone="no"?>
<!-- Created with Digital by H.Neemann -->
<!-- created: Mon Jul 03 21:37:14 EDT 2023 -->

<svg
   xmlns:svg="http://www.w3.org/2000/svg"
   xmlns="http://www.w3.org/2000/svg"
   width="214.8mm"
   height="190.2mm"
   viewBox="603 -442 1432 1268">
<g stroke-linecap="square">
<path d="M 1081,-120 L 1081,-111" stroke="#000000" stroke-width="4.0" fill="none"/>
<path d="M 1081,-40 L 1081,-49" stroke="#000000" stroke-width="4.0" fill="none"/>
<path d="M 1081,0 L 1081,9" stroke="#000000" stroke-width="4.0" fill="none"/>
<path d="M 1081,80 L 1081,71" stroke="#000000" stroke-width="4.0" fill="none"/>
<path d="M 1081,120 L 1081,129" stroke="#000000" stroke-width="4.0" fill="none"/>
<path d="M 1081,200 L 1081,191" stroke="#000000" stroke-width="4.0" fill="none"/>
<path d="M 1081,240 L 1081,249" stroke="#000000" stroke-width="4.0" fill="none"/>
<path d="M 1081,320 L 1081,311" stroke="#000000" stroke-width="4.0" fill="none"/>
<path d="M 1081,360 L 1081,369" stroke="#000000" stroke-width="4.0" fill="none"/>
<path d="M 1081,440 L 1081,431" stroke="#000000" stroke-width="4.0" fill="none"/>
<path d="M 1081,480 L 1081,489" stroke="#000000" stroke-width="4.0" fill="none"/>
<path d="M 1081,560 L 1081,551" stroke="#000000" stroke-width="4.0" fill="none"/>
<path d="M 1081,600 L 1081,609" stroke="#000000" stroke-width="4.0" fill="none"/>
<path d="M 1081,680 L 1081,671" stroke="#000000" stroke-width="4.0" fill="none"/>
<path d="M 1081,720 L 1081,729" stroke="#000000" stroke-width="4.0" fill="none"/>
<path d="M 1081,800 L 1081,791" stroke="#000000" stroke-width="4.0" fill="none"/>
<path d="M 1821,-100 L 1821,-71" stroke="#000000" stroke-width="4.0" fill="none"/>
<path d="M 1821,20 L 1821,-9" stroke="#000000" stroke-width="4.0" fill="none"/>
<path d="M 1821,180 L 1821,209" stroke="#000000" stroke-width="4.0" fill="none"/>
<path d="M 1821,300 L 1821,271" stroke="#000000" stroke-width="4.0" fill="none"/>
<path d="M 1821,500 L 1821,509" stroke="#000000" stroke-width="4.0" fill="none"/>
<path d="M 1821,580 L 1821,571" stroke="#000000" stroke-width="4.0" fill="none"/>
<path d="M 1661,600 L 1661,609" stroke="#000000" stroke-width="4.0" fill="none"/>
<path d="M 1661,680 L 1661,671" stroke="#000000" stroke-width="4.0" fill="none"/>
<path d="M 1180,640 L 1220,640 L 1220,580 L 1560,580 L 1560,280" stroke="#0000b2" stroke-width="4.0" fill="none"/>
<path d="M 1760,640 L 1820,640 L 1820,580" stroke="#0000b2" stroke-width="4.0" fill="none"/>
<path d="M 1480,400 L 1480,640 L 1660,640" stroke="#0000b2" stroke-width="4.0" fill="none"/>
<path d="M 1360,40 L 1360,320 L 1660,320" stroke="#0000b2" stroke-width="4.0" fill="none"/>
<path d="M 1440,280 L 1440,520 L 1820,520 L 1820,540" stroke="#0000b2" stroke-width="4.0" fill="none"/>
<path d="M 1180,520 L 1260,520 L 1260,540 L 1520,540 L 1520,560 L 1820,560" stroke="#0000b2" stroke-width="4.0" fill="none"/>
<path d="M 1400,160 L 1400,200 L 1820,200" stroke="#0000b2" stroke-width="4.0" fill="none"/>
<path d="M 1180,-80 L 1320,-80 L 1320,-100 L 1820,-100" stroke="#0000b2" stroke-width="4.0" fill="none"/>
<path d="M 680,600 L 680,720 L 1080,720" stroke="#0000b2" stroke-width="4.0" fill="none"/>
<path d="M 1180,400 L 1480,400 L 1480,260" stroke="#0000b2" stroke-width="4.0" fill="none"/>
<path d="M 700,-100 L 700,20 L 1080,20" stroke="#0000b2" stroke-width="4.0" fill="none"/>
<path d="M 1560,580 L 1560,660 L 1660,660" stroke="#0000b2" stroke-width="4.0" fill="none"/>
<path d="M 1760,340 L 1820,340 L 1820,300" stroke="#0000b2" stroke-width="4.0" fill="none"/>
<path d="M 780,-380 L 780,-280 L 840,-280 L 840,60 L 1080,60" stroke="#0000b2" stroke-width="4.0" fill="none"/>
<path d="M 700,-380 L 700,-280 L 760,-280 L 760,140 L 1080,140" stroke="#0000b2" stroke-width="4.0" fill="none"/>
<path d="M 620,-380 L 620,-280 L 680,-280 L 680,360 L 1080,360" stroke="#0000b2" stroke-width="4.0" fill="none"/>
<path d="M 1180,280 L 1440,280 L 1440,220" stroke="#0000b2" stroke-width="4.0" fill="none"/>
<path d="M 1320,180 L 1320,600 L 1660,600" stroke="#0000b2" stroke-width="4.0" fill="none"/>
<path d="M 1900,540 L 1960,540" stroke="#0000b2" stroke-width="4.0" fill="none"/>
<path d="M 860,680 L 860,800 L 1080,800" stroke="#0000b2" stroke-width="4.0" fill="none"/>
<path d="M 1180,160 L 1400,160 L 1400,40 L 1660,40" stroke="#0000b2" stroke-width="4.0" fill="none"/>
<path d="M 700,-220 L 700,-100 L 1080,-100" stroke="#0000b2" stroke-width="4.0" fill="none"/>
<path d="M 760,620 L 760,740 L 1080,740" stroke="#0000b2" stroke-width="4.0" fill="none"/>
<path d="M 1900,-40 L 1960,-40" stroke="#0000b2" stroke-width="4.0" fill="none"/>
<path d="M 860,-220 L 860,-40 L 1080,-40" stroke="#0000b2" stroke-width="4.0" fill="none"/>
<path d="M 1180,40 L 1360,40 L 1360,-80 L 1820,-80" stroke="#0000b2" stroke-width="4.0" fill="none"/>
<path d="M 1600,360 L 1600,680 L 1660,680" stroke="#0000b2" stroke-width="4.0" fill="none"/>
<path d="M 840,540 L 840,300 L 1080,300" stroke="#0000b2" stroke-width="4.0" fill="none"/>
<path d="M 1360,320 L 1360,620 L 1660,620" stroke="#0000b2" stroke-width="4.0" fill="none"/>
<path d="M 620,120 L 620,240 L 1080,240" stroke="#0000b2" stroke-width="4.0" fill="none"/>
<path d="M 1900,240 L 1960,240" stroke="#0000b2" stroke-width="4.0" fill="none"/>
<path d="M 780,420 L 780,180 L 1080,180" stroke="#0000b2" stroke-width="4.0" fill="none"/>
<path d="M 1320,-80 L 1320,180 L 1820,180" stroke="#0000b2" stroke-width="4.0" fill="none"/>
<path d="M 1400,200 L 1400,500 L 1820,500" stroke="#0000b2" stroke-width="4.0" fill="none"/>
<path d="M 620,-220 L 620,-120 L 1080,-120" stroke="#0000b2" stroke-width="4.0" fill="none"/>
<path d="M 1180,760 L 1600,760 L 1600,680" stroke="#0000b2" stroke-width="4.0" fill="none"/>
<path d="M 780,-220 L 780,-60 L 1080,-60" stroke="#0000b2" stroke-width="4.0" fill="none"/>
<path d="M 1760,60 L 1820,60 L 1820,20" stroke="#0000b2" stroke-width="4.0" fill="none"/>
<path d="M 1820,240 L 1820,220 L 1440,220 L 1440,-60 L 1820,-60 L 1820,-40" stroke="#0000b2" stroke-width="4.0" fill="none"/>
<path d="M 1820,0 L 1600,0 L 1600,360 L 1660,360" stroke="#0000b2" stroke-width="4.0" fill="none"/>
<path d="M 1080,780 L 840,780 L 840,540 L 1080,540" stroke="#0000b2" stroke-width="4.0" fill="none"/>
<path d="M 840,60 L 840,300" stroke="#0000b2" stroke-width="4.0" fill="none"/>
<path d="M 1080,600 L 680,600 L 680,480 L 1080,480" stroke="#0000b2" stroke-width="4.0" fill="none"/>
<path d="M 680,360 L 680,480" stroke="#0000b2" stroke-width="4.0" fill="none"/>
<path d="M 1820,260 L 1480,260 L 1480,60 L 1660,60" stroke="#0000b2" stroke-width="4.0" fill="none"/>
<path d="M 1080,660 L 780,660 L 780,420 L 1080,420" stroke="#0000b2" stroke-width="4.0" fill="none"/>
<path d="M 780,-60 L 780,180" stroke="#0000b2" stroke-width="4.0" fill="none"/>
<path d="M 780,-280 L 780,-260" stroke="#0000b2" stroke-width="4.0" fill="none"/>
<path d="M 1080,0 L 620,0 L 620,120 L 1080,120" stroke="#0000b2" stroke-width="4.0" fill="none"/>
<path d="M 620,-120 L 620,0" stroke="#0000b2" stroke-width="4.0" fill="none"/>
<path d="M 620,-280 L 620,-260" stroke="#0000b2" stroke-width="4.0" fill="none"/>
<path d="M 1660,80 L 1520,80 L 1520,340 L 1660,340" stroke="#0000b2" stroke-width="4.0" fill="none"/>
<path d="M 1520,340 L 1520,540" stroke="#0000b2" stroke-width="4.0" fill="none"/>
<path d="M 1080,260 L 760,260 L 760,620 L 1080,620" stroke="#0000b2" stroke-width="4.0" fill="none"/>
<path d="M 760,140 L 760,260" stroke="#0000b2" stroke-width="4.0" fill="none"/>
<path d="M 1820,-20 L 1560,-20 L 1560,280 L 1820,280" stroke="#0000b2" stroke-width="4.0" fill="none"/>
<path d="M 860,-380 L 860,-260" stroke="#0000b2" stroke-width="4.0" fill="none"/>
<path d="M 1080,680 L 860,680 L 860,560 L 1080,560" stroke="#0000b2" stroke-width="4.0" fill="none"/>
<path d="M 1080,320 L 860,320 L 860,440 L 1080,440" stroke="#0000b2" stroke-width="4.0" fill="none"/>
<path d="M 1080,200 L 860,200 L 860,80 L 1080,80" stroke="#0000b2" stroke-width="4.0" fill="none"/>
<path d="M 860,440 L 860,560" stroke="#0000b2" stroke-width="4.0" fill="none"/>
<path d="M 860,200 L 860,320" stroke="#0000b2" stroke-width="4.0" fill="none"/>
<path d="M 860,-40 L 860,80" stroke="#0000b2" stroke-width="4.0" fill="none"/>
<path d="M 1080,500 L 700,500 L 700,380 L 1080,380" stroke="#0000b2" stroke-width="4.0" fill="none"/>
<path d="M 700,-280 L 700,-260" stroke="#0000b2" stroke-width="4.0" fill="none"/>
<path d="M 700,20 L 700,380" stroke="#0000b2" stroke-width="4.0" fill="none"/>
<g>
<circle cx="860.0" cy="320.0" r="4.0" stroke="#0000b2" stroke-width="4.0" fill="#0000b2" />
<circle cx="1360.0" cy="320.0" r="4.0" stroke="#0000b2" stroke-width="4.0" fill="#0000b2" />
<circle cx="620.0" cy="0.0" r="4.0" stroke="#0000b2" stroke-width="4.0" fill="#0000b2" />
<circle cx="760.0" cy="260.0" r="4.0" stroke="#0000b2" stroke-width="4.0" fill="#0000b2" />
<circle cx="1480.0" cy="260.0" r="4.0" stroke="#0000b2" stroke-width="4.0" fill="#0000b2" />
<circle cx="1560.0" cy="580.0" r="4.0" stroke="#0000b2" stroke-width="4.0" fill="#0000b2" />
<circle cx="860.0" cy="200.0" r="4.0" stroke="#0000b2" stroke-width="4.0" fill="#0000b2" />
<circle cx="1400.0" cy="200.0" r="4.0" stroke="#0000b2" stroke-width="4.0" fill="#0000b2" />
<circle cx="760.0" cy="140.0" r="4.0" stroke="#0000b2" stroke-width="4.0" fill="#0000b2" />
<circle cx="1320.0" cy="-80.0" r="4.0" stroke="#0000b2" stroke-width="4.0" fill="#0000b2" />
<circle cx="860.0" cy="80.0" r="4.0" stroke="#0000b2" stroke-width="4.0" fill="#0000b2" />
<circle cx="1480.0" cy="400.0" r="4.0" stroke="#0000b2" stroke-width="4.0" fill="#0000b2" />
<circle cx="700.0" cy="20.0" r="4.0" stroke="#0000b2" stroke-width="4.0" fill="#0000b2" />
<circle cx="1520.0" cy="340.0" r="4.0" stroke="#0000b2" stroke-width="4.0" fill="#0000b2" />
<circle cx="780.0" cy="-280.0" r="4.0" stroke="#0000b2" stroke-width="4.0" fill="#0000b2" />
<circle cx="700.0" cy="-280.0" r="4.0" stroke="#0000b2" stroke-width="4.0" fill="#0000b2" />
<circle cx="620.0" cy="-280.0" r="4.0" stroke="#0000b2" stroke-width="4.0" fill="#0000b2" />
<circle cx="1560.0" cy="280.0" r="4.0" stroke="#0000b2" stroke-width="4.0" fill="#0000b2" />
<circle cx="1440.0" cy="280.0" r="4.0" stroke="#0000b2" stroke-width="4.0" fill="#0000b2" />
<circle cx="680.0" cy="600.0" r="4.0" stroke="#0000b2" stroke-width="4.0" fill="#0000b2" />
<circle cx="840.0" cy="540.0" r="4.0" stroke="#0000b2" stroke-width="4.0" fill="#0000b2" />
<circle cx="1520.0" cy="540.0" r="4.0" stroke="#0000b2" stroke-width="4.0" fill="#0000b2" />
<circle cx="1440.0" cy="220.0" r="4.0" stroke="#0000b2" stroke-width="4.0" fill="#0000b2" />
<circle cx="680.0" cy="480.0" r="4.0" stroke="#0000b2" stroke-width="4.0" fill="#0000b2" />
<circle cx="1400.0" cy="160.0" r="4.0" stroke="#0000b2" stroke-width="4.0" fill="#0000b2" />
<circle cx="700.0" cy="-100.0" r="4.0" stroke="#0000b2" stroke-width="4.0" fill="#0000b2" />
<circle cx="780.0" cy="420.0" r="4.0" stroke="#0000b2" stroke-width="4.0" fill="#0000b2" />
<circle cx="860.0" cy="-40.0" r="4.0" stroke="#0000b2" stroke-width="4.0" fill="#0000b2" />
<circle cx="1360.0" cy="40.0" r="4.0" stroke="#0000b2" stroke-width="4.0" fill="#0000b2" />
<circle cx="860.0" cy="680.0" r="4.0" stroke="#0000b2" stroke-width="4.0" fill="#0000b2" />
<circle cx="1600.0" cy="680.0" r="4.0" stroke="#0000b2" stroke-width="4.0" fill="#0000b2" />
<circle cx="680.0" cy="360.0" r="4.0" stroke="#0000b2" stroke-width="4.0" fill="#0000b2" />
<circle cx="1600.0" cy="360.0" r="4.0" stroke="#0000b2" stroke-width="4.0" fill="#0000b2" />
<circle cx="840.0" cy="300.0" r="4.0" stroke="#0000b2" stroke-width="4.0" fill="#0000b2" />
<circle cx="760.0" cy="620.0" r="4.0" stroke="#0000b2" stroke-width="4.0" fill="#0000b2" />
<circle cx="860.0" cy="560.0" r="4.0" stroke="#0000b2" stroke-width="4.0" fill="#0000b2" />
<circle cx="780.0" cy="180.0" r="4.0" stroke="#0000b2" stroke-width="4.0" fill="#0000b2" />
<circle cx="1320.0" cy="180.0" r="4.0" stroke="#0000b2" stroke-width="4.0" fill="#0000b2" />
<circle cx="620.0" cy="-120.0" r="4.0" stroke="#0000b2" stroke-width="4.0" fill="#0000b2" />
<circle cx="860.0" cy="440.0" r="4.0" stroke="#0000b2" stroke-width="4.0" fill="#0000b2" />
<circle cx="620.0" cy="120.0" r="4.0" stroke="#0000b2" stroke-width="4.0" fill="#0000b2" />
<circle cx="780.0" cy="-60.0" r="4.0" stroke="#0000b2" stroke-width="4.0" fill="#0000b2" />
<circle cx="840.0" cy="60.0" r="4.0" stroke="#0000b2" stroke-width="4.0" fill="#0000b2" />
<circle cx="700.0" cy="380.0" r="4.0" stroke="#0000b2" stroke-width="4.0" fill="#0000b2" />
</g>
<g>
<path d="M 635,-411 L 635,-381 L 605,-381 L 605,-411 Z" stroke="#000000" stroke-width="4.0" fill="none"/>
<circle cx="620.0" cy="-396.0" r="9.0" stroke="#000000" stroke-width="4.0" fill="none" />
<text text-anchor="start" x="620.0" y="-416.0" fill="#000000" style="font-size:24px" transform="rotate(-90,620.0,-425.0)" ><tspan style="font-style:italic;">x</tspan></text>
<circle cx="620.0" cy="-380.0" r="2.0" stroke="#b20000" stroke-width="4.0" fill="#b20000" />
</g>
<g>
<path d="M 715,-411 L 715,-381 L 685,-381 L 685,-411 Z" stroke="#000000" stroke-width="4.0" fill="none"/>
<circle cx="700.0" cy="-396.0" r="9.0" stroke="#000000" stroke-width="4.0" fill="none" />
<text text-anchor="start" x="700.0" y="-416.0" fill="#000000" style="font-size:24px" transform="rotate(-90,700.0,-425.0)" ><tspan style="font-style:italic;">y</tspan></text>
<circle cx="700.0" cy="-380.0" r="2.0" stroke="#b20000" stroke-width="4.0" fill="#b20000" />
</g>
<g>
<path d="M 795,-411 L 795,-381 L 765,-381 L 765,-411 Z" stroke="#000000" stroke-width="4.0" fill="none"/>
<circle cx="780.0" cy="-396.0" r="9.0" stroke="#000000" stroke-width="4.0" fill="none" />
<text text-anchor="start" x="780.0" y="-416.0" fill="#000000" style="font-size:24px" transform="rotate(-90,780.0,-425.0)" ><tspan style="font-style:italic;">z</tspan></text>
<circle cx="780.0" cy="-380.0" r="2.0" stroke="#b20000" stroke-width="4.0" fill="#b20000" />
</g>
<g>
<path d="M 875,-411 L 875,-381 L 845,-381 L 845,-411 Z" stroke="#000000" stroke-width="4.0" fill="none"/>
<circle cx="860.0" cy="-396.0" r="9.0" stroke="#000000" stroke-width="4.0" fill="none" />
<text text-anchor="start" x="860.0" y="-416.0" fill="#000000" style="font-size:24px" transform="rotate(-90,860.0,-425.0)" ><tspan style="font-style:italic;">E</tspan></text>
<circle cx="860.0" cy="-380.0" r="2.0" stroke="#b20000" stroke-width="4.0" fill="#b20000" />
</g>
<g>
<path d="M 632,-259 L 620,-241 L 608,-259 Z" stroke="#000000" stroke-width="4.0" fill="none"/>
<circle cx="620.0" cy="-230.0" r="9.0" stroke="#000000" stroke-width="4.0" fill="none" />
<circle cx="620.0" cy="-260.0" r="2.0" stroke="#0000b2" stroke-width="4.0" fill="#0000b2" />
<circle cx="620.0" cy="-220.0" r="2.0" stroke="#b20000" stroke-width="4.0" fill="#b20000" />
</g>
<g>
<path d="M 712,-259 L 700,-241 L 688,-259 Z" stroke="#000000" stroke-width="4.0" fill="none"/>
<circle cx="700.0" cy="-230.0" r="9.0" stroke="#000000" stroke-width="4.0" fill="none" />
<circle cx="700.0" cy="-260.0" r="2.0" stroke="#0000b2" stroke-width="4.0" fill="#0000b2" />
<circle cx="700.0" cy="-220.0" r="2.0" stroke="#b20000" stroke-width="4.0" fill="#b20000" />
</g>
<g>
<path d="M 792,-259 L 780,-241 L 768,-259 Z" stroke="#000000" stroke-width="4.0" fill="none"/>
<circle cx="780.0" cy="-230.0" r="9.0" stroke="#000000" stroke-width="4.0" fill="none" />
<circle cx="780.0" cy="-260.0" r="2.0" stroke="#0000b2" stroke-width="4.0" fill="#0000b2" />
<circle cx="780.0" cy="-220.0" r="2.0" stroke="#b20000" stroke-width="4.0" fill="#b20000" />
</g>
<g>
<path d="M 872,-259 L 860,-241 L 848,-259 Z" stroke="#000000" stroke-width="4.0" fill="none"/>
<circle cx="860.0" cy="-230.0" r="9.0" stroke="#000000" stroke-width="4.0" fill="none" />
<circle cx="860.0" cy="-260.0" r="2.0" stroke="#0000b2" stroke-width="4.0" fill="#0000b2" />
<circle cx="860.0" cy="-220.0" r="2.0" stroke="#b20000" stroke-width="4.0" fill="#b20000" />
</g>
<g>
<path d="M 1130,-50 L 1081,-50 L 1081,-110 L 1130,-110 C 1140,-110 1160,-100 1159,-80 C 1159,-60 1140,-50 1130,-50 Z" stroke="#000000" stroke-width="4.0" fill="none"/>
<circle cx="1170.0" cy="-80.0" r="9.0" stroke="#000000" stroke-width="4.0" fill="none" />
<circle cx="1080.0" cy="-120.0" r="2.0" stroke="#0000b2" stroke-width="4.0" fill="#0000b2" />
<circle cx="1080.0" cy="-100.0" r="2.0" stroke="#0000b2" stroke-width="4.0" fill="#0000b2" />
<circle cx="1080.0" cy="-60.0" r="2.0" stroke="#0000b2" stroke-width="4.0" fill="#0000b2" />
<circle cx="1080.0" cy="-40.0" r="2.0" stroke="#0000b2" stroke-width="4.0" fill="#0000b2" />
<circle cx="1180.0" cy="-80.0" r="2.0" stroke="#b20000" stroke-width="4.0" fill="#b20000" />
</g>
<g>
<path d="M 1130,70 L 1081,70 L 1081,10 L 1130,10 C 1140,10 1160,20 1159,40 C 1159,60 1140,70 1130,70 Z" stroke="#000000" stroke-width="4.0" fill="none"/>
<circle cx="1170.0" cy="40.0" r="9.0" stroke="#000000" stroke-width="4.0" fill="none" />
<circle cx="1080.0" cy="0.0" r="2.0" stroke="#0000b2" stroke-width="4.0" fill="#0000b2" />
<circle cx="1080.0" cy="20.0" r="2.0" stroke="#0000b2" stroke-width="4.0" fill="#0000b2" />
<circle cx="1080.0" cy="60.0" r="2.0" stroke="#0000b2" stroke-width="4.0" fill="#0000b2" />
<circle cx="1080.0" cy="80.0" r="2.0" stroke="#0000b2" stroke-width="4.0" fill="#0000b2" />
<circle cx="1180.0" cy="40.0" r="2.0" stroke="#b20000" stroke-width="4.0" fill="#b20000" />
</g>
<g>
<path d="M 1130,190 L 1081,190 L 1081,130 L 1130,130 C 1140,130 1160,140 1159,160 C 1159,180 1140,190 1130,190 Z" stroke="#000000" stroke-width="4.0" fill="none"/>
<circle cx="1170.0" cy="160.0" r="9.0" stroke="#000000" stroke-width="4.0" fill="none" />
<circle cx="1080.0" cy="120.0" r="2.0" stroke="#0000b2" stroke-width="4.0" fill="#0000b2" />
<circle cx="1080.0" cy="140.0" r="2.0" stroke="#0000b2" stroke-width="4.0" fill="#0000b2" />
<circle cx="1080.0" cy="180.0" r="2.0" stroke="#0000b2" stroke-width="4.0" fill="#0000b2" />
<circle cx="1080.0" cy="200.0" r="2.0" stroke="#0000b2" stroke-width="4.0" fill="#0000b2" />
<circle cx="1180.0" cy="160.0" r="2.0" stroke="#b20000" stroke-width="4.0" fill="#b20000" />
</g>
<g>
<path d="M 1130,310 L 1081,310 L 1081,250 L 1130,250 C 1140,250 1160,260 1159,280 C 1159,300 1140,310 1130,310 Z" stroke="#000000" stroke-width="4.0" fill="none"/>
<circle cx="1170.0" cy="280.0" r="9.0" stroke="#000000" stroke-width="4.0" fill="none" />
<circle cx="1080.0" cy="240.0" r="2.0" stroke="#0000b2" stroke-width="4.0" fill="#0000b2" />
<circle cx="1080.0" cy="260.0" r="2.0" stroke="#0000b2" stroke-width="4.0" fill="#0000b2" />
<circle cx="1080.0" cy="300.0" r="2.0" stroke="#0000b2" stroke-width="4.0" fill="#0000b2" />
<circle cx="1080.0" cy="320.0" r="2.0" stroke="#0000b2" stroke-width="4.0" fill="#0000b2" />
<circle cx="1180.0" cy="280.0" r="2.0" stroke="#b20000" stroke-width="4.0" fill="#b20000" />
</g>
<g>
<path d="M 1130,430 L 1081,430 L 1081,370 L 1130,370 C 1140,370 1160,380 1159,400 C 1159,420 1140,430 1130,430 Z" stroke="#000000" stroke-width="4.0" fill="none"/>
<circle cx="1170.0" cy="400.0" r="9.0" stroke="#000000" stroke-width="4.0" fill="none" />
<circle cx="1080.0" cy="360.0" r="2.0" stroke="#0000b2" stroke-width="4.0" fill="#0000b2" />
<circle cx="1080.0" cy="380.0" r="2.0" stroke="#0000b2" stroke-width="4.0" fill="#0000b2" />
<circle cx="1080.0" cy="420.0" r="2.0" stroke="#0000b2" stroke-width="4.0" fill="#0000b2" />
<circle cx="1080.0" cy="440.0" r="2.0" stroke="#0000b2" stroke-width="4.0" fill="#0000b2" />
<circle cx="1180.0" cy="400.0" r="2.0" stroke="#b20000" stroke-width="4.0" fill="#b20000" />
</g>
<g>
<path d="M 1130,550 L 1081,550 L 1081,490 L 1130,490 C 1140,490 1160,500 1159,520 C 1159,540 1140,550 1130,550 Z" stroke="#000000" stroke-width="4.0" fill="none"/>
<circle cx="1170.0" cy="520.0" r="9.0" stroke="#000000" stroke-width="4.0" fill="none" />
<circle cx="1080.0" cy="480.0" r="2.0" stroke="#0000b2" stroke-width="4.0" fill="#0000b2" />
<circle cx="1080.0" cy="500.0" r="2.0" stroke="#0000b2" stroke-width="4.0" fill="#0000b2" />
<circle cx="1080.0" cy="540.0" r="2.0" stroke="#0000b2" stroke-width="4.0" fill="#0000b2" />
<circle cx="1080.0" cy="560.0" r="2.0" stroke="#0000b2" stroke-width="4.0" fill="#0000b2" />
<circle cx="1180.0" cy="520.0" r="2.0" stroke="#b20000" stroke-width="4.0" fill="#b20000" />
</g>
<g>
<path d="M 1130,670 L 1081,670 L 1081,610 L 1130,610 C 1140,610 1160,620 1159,640 C 1159,660 1140,670 1130,670 Z" stroke="#000000" stroke-width="4.0" fill="none"/>
<circle cx="1170.0" cy="640.0" r="9.0" stroke="#000000" stroke-width="4.0" fill="none" />
<circle cx="1080.0" cy="600.0" r="2.0" stroke="#0000b2" stroke-width="4.0" fill="#0000b2" />
<circle cx="1080.0" cy="620.0" r="2.0" stroke="#0000b2" stroke-width="4.0" fill="#0000b2" />
<circle cx="1080.0" cy="660.0" r="2.0" stroke="#0000b2" stroke-width="4.0" fill="#0000b2" />
<circle cx="1080.0" cy="680.0" r="2.0" stroke="#0000b2" stroke-width="4.0" fill="#0000b2" />
<circle cx="1180.0" cy="640.0" r="2.0" stroke="#b20000" stroke-width="4.0" fill="#b20000" />
</g>
<g>
<path d="M 1130,790 L 1081,790 L 1081,730 L 1130,730 C 1140,730 1160,740 1159,760 C 1159,780 1140,790 1130,790 Z" stroke="#000000" stroke-width="4.0" fill="none"/>
<circle cx="1170.0" cy="760.0" r="9.0" stroke="#000000" stroke-width="4.0" fill="none" />
<circle cx="1080.0" cy="720.0" r="2.0" stroke="#0000b2" stroke-width="4.0" fill="#0000b2" />
<circle cx="1080.0" cy="740.0" r="2.0" stroke="#0000b2" stroke-width="4.0" fill="#0000b2" />
<circle cx="1080.0" cy="780.0" r="2.0" stroke="#0000b2" stroke-width="4.0" fill="#0000b2" />
<circle cx="1080.0" cy="800.0" r="2.0" stroke="#0000b2" stroke-width="4.0" fill="#0000b2" />
<circle cx="1180.0" cy="760.0" r="2.0" stroke="#b20000" stroke-width="4.0" fill="#b20000" />
</g>
<g>
<circle cx="1976.0" cy="-40.0" r="9.0" stroke="#000000" stroke-width="4.0" fill="none" />
<circle cx="1976.0" cy="-40.0" r="15.0" stroke="#000000" stroke-width="4.0" fill="none" />
<text text-anchor="start" x="2005.0" y="-31.0" fill="#000000" style="font-size:24px"><tspan style="font-style:italic;">F1</tspan></text>
<circle cx="1960.0" cy="-40.0" r="2.0" stroke="#0000b2" stroke-width="4.0" fill="#0000b2" />
</g>
<g>
<path d="M 1870,-10 L 1821,-10 L 1821,-70 L 1870,-70 C 1880,-70 1900,-60 1899,-40 C 1899,-20 1880,-10 1870,-10 Z" stroke="#000000" stroke-width="4.0" fill="none"/>
<circle cx="1820.0" cy="-100.0" r="2.0" stroke="#0000b2" stroke-width="4.0" fill="#0000b2" />
<circle cx="1820.0" cy="-80.0" r="2.0" stroke="#0000b2" stroke-width="4.0" fill="#0000b2" />
<circle cx="1820.0" cy="-60.0" r="2.0" stroke="#0000b2" stroke-width="4.0" fill="#0000b2" />
<circle cx="1820.0" cy="-20.0" r="2.0" stroke="#0000b2" stroke-width="4.0" fill="#0000b2" />
<circle cx="1820.0" cy="0.0" r="2.0" stroke="#0000b2" stroke-width="4.0" fill="#0000b2" />
<circle cx="1820.0" cy="20.0" r="2.0" stroke="#0000b2" stroke-width="4.0" fill="#0000b2" />
<circle cx="1900.0" cy="-40.0" r="2.0" stroke="#b20000" stroke-width="4.0" fill="#b20000" />
</g>
<g>
<path d="M 1710,90 L 1661,90 L 1661,30 L 1710,30 C 1720,30 1740,40 1739,60 C 1739,80 1720,90 1710,90 Z" stroke="#000000" stroke-width="4.0" fill="none"/>
<circle cx="1750.0" cy="60.0" r="9.0" stroke="#000000" stroke-width="4.0" fill="none" />
<circle cx="1660.0" cy="40.0" r="2.0" stroke="#0000b2" stroke-width="4.0" fill="#0000b2" />
<circle cx="1660.0" cy="60.0" r="2.0" stroke="#0000b2" stroke-width="4.0" fill="#0000b2" />
<circle cx="1660.0" cy="80.0" r="2.0" stroke="#0000b2" stroke-width="4.0" fill="#0000b2" />
<circle cx="1760.0" cy="60.0" r="2.0" stroke="#b20000" stroke-width="4.0" fill="#b20000" />
</g>
<g>
<circle cx="1976.0" cy="240.0" r="9.0" stroke="#000000" stroke-width="4.0" fill="none" />
<circle cx="1976.0" cy="240.0" r="15.0" stroke="#000000" stroke-width="4.0" fill="none" />
<text text-anchor="start" x="2005.0" y="249.0" fill="#000000" style="font-size:24px"><tspan style="font-style:italic;">F2</tspan></text>
<circle cx="1960.0" cy="240.0" r="2.0" stroke="#0000b2" stroke-width="4.0" fill="#0000b2" />
</g>
<g>
<path d="M 1870,270 L 1821,270 L 1821,210 L 1870,210 C 1880,210 1900,220 1899,240 C 1899,260 1880,270 1870,270 Z" stroke="#000000" stroke-width="4.0" fill="none"/>
<circle cx="1820.0" cy="180.0" r="2.0" stroke="#0000b2" stroke-width="4.0" fill="#0000b2" />
<circle cx="1820.0" cy="200.0" r="2.0" stroke="#0000b2" stroke-width="4.0" fill="#0000b2" />
<circle cx="1820.0" cy="220.0" r="2.0" stroke="#0000b2" stroke-width="4.0" fill="#0000b2" />
<circle cx="1820.0" cy="260.0" r="2.0" stroke="#0000b2" stroke-width="4.0" fill="#0000b2" />
<circle cx="1820.0" cy="280.0" r="2.0" stroke="#0000b2" stroke-width="4.0" fill="#0000b2" />
<circle cx="1820.0" cy="300.0" r="2.0" stroke="#0000b2" stroke-width="4.0" fill="#0000b2" />
<circle cx="1900.0" cy="240.0" r="2.0" stroke="#b20000" stroke-width="4.0" fill="#b20000" />
</g>
<g>
<path d="M 1710,370 L 1661,370 L 1661,310 L 1710,310 C 1720,310 1740,320 1739,340 C 1739,360 1720,370 1710,370 Z" stroke="#000000" stroke-width="4.0" fill="none"/>
<circle cx="1750.0" cy="340.0" r="9.0" stroke="#000000" stroke-width="4.0" fill="none" />
<circle cx="1660.0" cy="320.0" r="2.0" stroke="#0000b2" stroke-width="4.0" fill="#0000b2" />
<circle cx="1660.0" cy="340.0" r="2.0" stroke="#0000b2" stroke-width="4.0" fill="#0000b2" />
<circle cx="1660.0" cy="360.0" r="2.0" stroke="#0000b2" stroke-width="4.0" fill="#0000b2" />
<circle cx="1760.0" cy="340.0" r="2.0" stroke="#b20000" stroke-width="4.0" fill="#b20000" />
</g>
<g>
<circle cx="1976.0" cy="540.0" r="9.0" stroke="#000000" stroke-width="4.0" fill="none" />
<circle cx="1976.0" cy="540.0" r="15.0" stroke="#000000" stroke-width="4.0" fill="none" />
<text text-anchor="start" x="2005.0" y="549.0" fill="#000000" style="font-size:24px"><tspan style="font-style:italic;">F3</tspan></text>
<circle cx="1960.0" cy="540.0" r="2.0" stroke="#0000b2" stroke-width="4.0" fill="#0000b2" />
</g>
<g>
<path d="M 1870,570 L 1821,570 L 1821,510 L 1870,510 C 1880,510 1900,520 1899,540 C 1899,560 1880,570 1870,570 Z" stroke="#000000" stroke-width="4.0" fill="none"/>
<circle cx="1820.0" cy="500.0" r="2.0" stroke="#0000b2" stroke-width="4.0" fill="#0000b2" />
<circle cx="1820.0" cy="520.0" r="2.0" stroke="#0000b2" stroke-width="4.0" fill="#0000b2" />
<circle cx="1820.0" cy="560.0" r="2.0" stroke="#0000b2" stroke-width="4.0" fill="#0000b2" />
<circle cx="1820.0" cy="580.0" r="2.0" stroke="#0000b2" stroke-width="4.0" fill="#0000b2" />
<circle cx="1900.0" cy="540.0" r="2.0" stroke="#b20000" stroke-width="4.0" fill="#b20000" />
</g>
<g>
<path d="M 1710,670 L 1661,670 L 1661,610 L 1710,610 C 1720,610 1740,620 1739,640 C 1739,660 1720,670 1710,670 Z" stroke="#000000" stroke-width="4.0" fill="none"/>
<circle cx="1750.0" cy="640.0" r="9.0" stroke="#000000" stroke-width="4.0" fill="none" />
<circle cx="1660.0" cy="600.0" r="2.0" stroke="#0000b2" stroke-width="4.0" fill="#0000b2" />
<circle cx="1660.0" cy="620.0" r="2.0" stroke="#0000b2" stroke-width="4.0" fill="#0000b2" />
<circle cx="1660.0" cy="640.0" r="2.0" stroke="#0000b2" stroke-width="4.0" fill="#0000b2" />
<circle cx="1660.0" cy="660.0" r="2.0" stroke="#0000b2" stroke-width="4.0" fill="#0000b2" />
<circle cx="1660.0" cy="680.0" r="2.0" stroke="#0000b2" stroke-width="4.0" fill="#0000b2" />
<circle cx="1760.0" cy="640.0" r="2.0" stroke="#b20000" stroke-width="4.0" fill="#b20000" />
</g>
<g>
<text text-anchor="start" x="1160.0" y="-122.0" fill="#000000" style="font-size:24px">0</text>
</g>
<g>
<text text-anchor="start" x="1160.0" y="818.0" fill="#000000" style="font-size:24px">7</text>
</g>
</g>
</svg>