<?xml version="1.0" encoding="UTF-8" standalone="no"?>
<!-- Created with Digital by H.Neemann -->
<!-- created: Tue Oct 10 10:04:12 EDT 2023 -->

<svg
   xmlns:svg="http://www.w3.org/2000/svg"
   xmlns="http://www.w3.org/2000/svg"
   width="92.4mm"
   height="105.3mm"
   viewBox="-177 -160 616 702">
<g stroke-linecap="square">
<path d="M -20,-20 L -20,0 L 20,0" stroke="#0000b2" stroke-width="4.0" fill="none"/>
<path d="M -80,240 L -80,320 L 20,320" stroke="#0000b2" stroke-width="4.0" fill="none"/>
<path d="M 360,260 L 380,260" stroke="#0000b2" stroke-width="4.0" fill="none"/>
<path d="M 100,260 L 120,260 L 120,240 L 140,240 L 144,240" stroke="#0000b2" stroke-width="4.0" fill="none"/>
<path d="M 220,460 L 380,460" stroke="#0000b2" stroke-width="4.0" fill="none"/>
<path d="M -160,-100 L -160,-80 L -140,-80 L -140,-60" stroke="#0000b2" stroke-width="4.0" fill="none"/>
<path d="M -100,-100 L -100,-80 L -80,-80 L -80,-60" stroke="#0000b2" stroke-width="4.0" fill="none"/>
<path d="M -40,-100 L -40,-80 L -20,-80 L -20,-60" stroke="#0000b2" stroke-width="4.0" fill="none"/>
<path d="M 260,-20 L 260,80 L 300,80" stroke="#0000b2" stroke-width="4.0" fill="none"/>
<path d="M 100,20 L 120,20 L 120,40 L 140,40 L 144,40" stroke="#0000b2" stroke-width="4.0" fill="none"/>
<path d="M 100,340 L 280,340 L 280,300 L 300,300" stroke="#0000b2" stroke-width="4.0" fill="none"/>
<path d="M 260,80 L 260,280 L 300,280" stroke="#0000b2" stroke-width="4.0" fill="none"/>
<path d="M 220,220 L 280,220 L 280,260 L 300,260" stroke="#0000b2" stroke-width="4.0" fill="none"/>
<path d="M -100,-80 L -100,160 L 20,160" stroke="#0000b2" stroke-width="4.0" fill="none"/>
<path d="M -100,540 L -100,480 L 20,480" stroke="#0000b2" stroke-width="4.0" fill="none"/>
<path d="M 100,100 L 120,100 L 120,80 L 140,80 L 144,80" stroke="#0000b2" stroke-width="4.0" fill="none"/>
<path d="M 100,420 L 120,420 L 120,440 L 140,440 L 144,440" stroke="#0000b2" stroke-width="4.0" fill="none"/>
<path d="M -160,-80 L -160,40 L 20,40" stroke="#0000b2" stroke-width="4.0" fill="none"/>
<path d="M -80,-20 L -80,240 L 20,240" stroke="#0000b2" stroke-width="4.0" fill="none"/>
<path d="M 100,180 L 120,180 L 120,200 L 140,200 L 144,200" stroke="#0000b2" stroke-width="4.0" fill="none"/>
<path d="M 100,500 L 120,500 L 120,480 L 140,480 L 144,480" stroke="#0000b2" stroke-width="4.0" fill="none"/>
<path d="M -140,-20 L -140,120 L 20,120" stroke="#0000b2" stroke-width="4.0" fill="none"/>
<path d="M -160,540 L -160,440 L 20,440" stroke="#0000b2" stroke-width="4.0" fill="none"/>
<path d="M 360,60 L 380,60" stroke="#0000b2" stroke-width="4.0" fill="none"/>
<path d="M 220,60 L 300,60" stroke="#0000b2" stroke-width="4.0" fill="none"/>
<path d="M -100,160 L -100,480" stroke="#0000b2" stroke-width="4.0" fill="none"/>
<path d="M -20,0 L -20,540" stroke="#0000b2" stroke-width="4.0" fill="none"/>
<path d="M 20,80 L -40,80 L -40,400 L 20,400" stroke="#0000b2" stroke-width="4.0" fill="none"/>
<path d="M -40,-80 L -40,80" stroke="#0000b2" stroke-width="4.0" fill="none"/>
<path d="M -40,400 L -40,540" stroke="#0000b2" stroke-width="4.0" fill="none"/>
<path d="M 20,520 L -140,520 L -140,280 L 20,280" stroke="#0000b2" stroke-width="4.0" fill="none"/>
<path d="M -140,520 L -140,540" stroke="#0000b2" stroke-width="4.0" fill="none"/>
<path d="M -140,120 L -140,280" stroke="#0000b2" stroke-width="4.0" fill="none"/>
<path d="M 20,200 L -160,200 L -160,360 L 20,360" stroke="#0000b2" stroke-width="4.0" fill="none"/>
<path d="M -160,40 L -160,200" stroke="#0000b2" stroke-width="4.0" fill="none"/>
<path d="M -160,360 L -160,440" stroke="#0000b2" stroke-width="4.0" fill="none"/>
<path d="M -80,320 L -80,540" stroke="#0000b2" stroke-width="4.0" fill="none"/>
<g>
<circle cx="-20.0" cy="0.0" r="4.0" stroke="#0000b2" stroke-width="4.0" fill="#0000b2" />
<circle cx="-80.0" cy="320.0" r="4.0" stroke="#0000b2" stroke-width="4.0" fill="#0000b2" />
<circle cx="-160.0" cy="200.0" r="4.0" stroke="#0000b2" stroke-width="4.0" fill="#0000b2" />
<circle cx="-140.0" cy="520.0" r="4.0" stroke="#0000b2" stroke-width="4.0" fill="#0000b2" />
<circle cx="-160.0" cy="-80.0" r="4.0" stroke="#0000b2" stroke-width="4.0" fill="#0000b2" />
<circle cx="-100.0" cy="-80.0" r="4.0" stroke="#0000b2" stroke-width="4.0" fill="#0000b2" />
<circle cx="-40.0" cy="-80.0" r="4.0" stroke="#0000b2" stroke-width="4.0" fill="#0000b2" />
<circle cx="-40.0" cy="80.0" r="4.0" stroke="#0000b2" stroke-width="4.0" fill="#0000b2" />
<circle cx="260.0" cy="80.0" r="4.0" stroke="#0000b2" stroke-width="4.0" fill="#0000b2" />
<circle cx="-40.0" cy="400.0" r="4.0" stroke="#0000b2" stroke-width="4.0" fill="#0000b2" />
<circle cx="-140.0" cy="280.0" r="4.0" stroke="#0000b2" stroke-width="4.0" fill="#0000b2" />
<circle cx="-100.0" cy="160.0" r="4.0" stroke="#0000b2" stroke-width="4.0" fill="#0000b2" />
<circle cx="-100.0" cy="480.0" r="4.0" stroke="#0000b2" stroke-width="4.0" fill="#0000b2" />
<circle cx="-160.0" cy="40.0" r="4.0" stroke="#0000b2" stroke-width="4.0" fill="#0000b2" />
<circle cx="-160.0" cy="360.0" r="4.0" stroke="#0000b2" stroke-width="4.0" fill="#0000b2" />
<circle cx="-80.0" cy="240.0" r="4.0" stroke="#0000b2" stroke-width="4.0" fill="#0000b2" />
<circle cx="-140.0" cy="120.0" r="4.0" stroke="#0000b2" stroke-width="4.0" fill="#0000b2" />
<circle cx="-160.0" cy="440.0" r="4.0" stroke="#0000b2" stroke-width="4.0" fill="#0000b2" />
</g>
<g>
<path d="M 380,60 L 394,68 L 394,52 Z" stroke="#000000" stroke-width="4.0" fill="none"/>
<text text-anchor="start" x="399.0" y="66.75" fill="#808080" style="font-size:18px">Z<tspan style="font-size:80%;baseline-shift:sub;">1</tspan><tspan style="font-size:80%;baseline-shift:super;">n</tspan></text>
<circle cx="380.0" cy="60.0" r="2.0" stroke="#0000b2" stroke-width="4.0" fill="#0000b2" />
</g>
<g>
<path d="M 301,50 L 359,50 L 359,90 L 301,90 Z" stroke="#000000" stroke-width="4.0" fill="none"/>
<text text-anchor="middle" x="330.0" y="42.0" fill="#000000" style="font-size:24px">Z<tspan style="font-size:80%;baseline-shift:sub;">1</tspan><tspan style="font-size:80%;baseline-shift:super;">n</tspan></text>
<text text-anchor="start" x="304.0" y="66.75" fill="#808080" style="font-size:18px">D</text>
<path d="M 301,87 L 308,80 L 301,73" stroke="#000000" stroke-width="2.0" fill="none"/>
<text text-anchor="start" x="311.0" y="86.75" fill="#808080" style="font-size:18px">C</text>
<text text-anchor="end" x="356.0" y="66.75" fill="#808080" style="font-size:18px">Q</text>
<text text-anchor="end" x="356.0" y="86.75" fill="#808080" style="font-size:18px"><tspan style="text-decoration:overline;">Q</tspan></text>
<text text-anchor="middle" x="330.0" y="107.5" fill="#808080" style="font-size:18px">D</text>
<circle cx="300.0" cy="60.0" r="2.0" stroke="#0000b2" stroke-width="4.0" fill="#0000b2" />
<circle cx="300.0" cy="80.0" r="2.0" stroke="#0000b2" stroke-width="4.0" fill="#0000b2" />
<circle cx="360.0" cy="60.0" r="2.0" stroke="#b20000" stroke-width="4.0" fill="#b20000" />
<circle cx="360.0" cy="80.0" r="2.0" stroke="#b20000" stroke-width="4.0" fill="#b20000" />
</g>
<g>
<path d="M 170,90 L 140,90 C 150,74 150,46 140,30 L 160,30 C 190,30 210,40 220,60 C 210,80 190,90 170,90 Z" stroke="#000000" stroke-width="4.0" fill="none"/>
<circle cx="140.0" cy="40.0" r="2.0" stroke="#0000b2" stroke-width="4.0" fill="#0000b2" />
<circle cx="140.0" cy="80.0" r="2.0" stroke="#0000b2" stroke-width="4.0" fill="#0000b2" />
<circle cx="220.0" cy="60.0" r="2.0" stroke="#b20000" stroke-width="4.0" fill="#b20000" />
</g>
<g>
<path d="M 70,50 L 21,50 L 21,-10 L 70,-10 C 80,-10 100,0 99,20 C 99,40 80,50 70,50 Z" stroke="#000000" stroke-width="4.0" fill="none"/>
<circle cx="20.0" cy="0.0" r="2.0" stroke="#0000b2" stroke-width="4.0" fill="#0000b2" />
<circle cx="20.0" cy="40.0" r="2.0" stroke="#0000b2" stroke-width="4.0" fill="#0000b2" />
<circle cx="100.0" cy="20.0" r="2.0" stroke="#b20000" stroke-width="4.0" fill="#b20000" />
</g>
<g>
<path d="M 70,130 L 21,130 L 21,70 L 70,70 C 80,70 100,80 99,100 C 99,120 80,130 70,130 Z" stroke="#000000" stroke-width="4.0" fill="none"/>
<circle cx="20.0" cy="80.0" r="2.0" stroke="#0000b2" stroke-width="4.0" fill="#0000b2" />
<circle cx="20.0" cy="120.0" r="2.0" stroke="#0000b2" stroke-width="4.0" fill="#0000b2" />
<circle cx="100.0" cy="100.0" r="2.0" stroke="#b20000" stroke-width="4.0" fill="#b20000" />
</g>
<g>
<path d="M 380,260 L 394,268 L 394,252 Z" stroke="#000000" stroke-width="4.0" fill="none"/>
<text text-anchor="start" x="399.0" y="266.75" fill="#808080" style="font-size:18px">Z<tspan style="font-size:80%;baseline-shift:sub;">0</tspan><tspan style="font-size:80%;baseline-shift:super;">n</tspan></text>
<circle cx="380.0" cy="260.0" r="2.0" stroke="#0000b2" stroke-width="4.0" fill="#0000b2" />
</g>
<g>
<path d="M 301,250 L 359,250 L 359,310 L 301,310 Z" stroke="#000000" stroke-width="4.0" fill="none"/>
<text text-anchor="middle" x="330.0" y="242.0" fill="#000000" style="font-size:24px">Z<tspan style="font-size:80%;baseline-shift:sub;">0</tspan><tspan style="font-size:80%;baseline-shift:super;">n</tspan></text>
<text text-anchor="start" x="304.0" y="266.75" fill="#808080" style="font-size:18px">J</text>
<path d="M 301,287 L 308,280 L 301,273" stroke="#000000" stroke-width="2.0" fill="none"/>
<text text-anchor="start" x="311.0" y="286.75" fill="#808080" style="font-size:18px">C</text>
<text text-anchor="start" x="304.0" y="306.75" fill="#808080" style="font-size:18px">K</text>
<text text-anchor="end" x="356.0" y="266.75" fill="#808080" style="font-size:18px">Q</text>
<text text-anchor="end" x="356.0" y="286.75" fill="#808080" style="font-size:18px"><tspan style="text-decoration:overline;">Q</tspan></text>
<text text-anchor="middle" x="330.0" y="327.5" fill="#808080" style="font-size:18px">JK</text>
<circle cx="300.0" cy="260.0" r="2.0" stroke="#0000b2" stroke-width="4.0" fill="#0000b2" />
<circle cx="300.0" cy="280.0" r="2.0" stroke="#0000b2" stroke-width="4.0" fill="#0000b2" />
<circle cx="300.0" cy="300.0" r="2.0" stroke="#0000b2" stroke-width="4.0" fill="#0000b2" />
<circle cx="360.0" cy="260.0" r="2.0" stroke="#b20000" stroke-width="4.0" fill="#b20000" />
<circle cx="360.0" cy="280.0" r="2.0" stroke="#b20000" stroke-width="4.0" fill="#b20000" />
</g>
<g>
<path d="M 170,250 L 140,250 C 150,234 150,206 140,190 L 160,190 C 190,190 210,200 220,220 C 210,240 190,250 170,250 Z" stroke="#000000" stroke-width="4.0" fill="none"/>
<circle cx="140.0" cy="200.0" r="2.0" stroke="#0000b2" stroke-width="4.0" fill="#0000b2" />
<circle cx="140.0" cy="240.0" r="2.0" stroke="#0000b2" stroke-width="4.0" fill="#0000b2" />
<circle cx="220.0" cy="220.0" r="2.0" stroke="#b20000" stroke-width="4.0" fill="#b20000" />
</g>
<g>
<path d="M 70,210 L 21,210 L 21,150 L 70,150 C 80,150 100,160 99,180 C 99,200 80,210 70,210 Z" stroke="#000000" stroke-width="4.0" fill="none"/>
<circle cx="20.0" cy="160.0" r="2.0" stroke="#0000b2" stroke-width="4.0" fill="#0000b2" />
<circle cx="20.0" cy="200.0" r="2.0" stroke="#0000b2" stroke-width="4.0" fill="#0000b2" />
<circle cx="100.0" cy="180.0" r="2.0" stroke="#b20000" stroke-width="4.0" fill="#b20000" />
</g>
<g>
<path d="M 70,290 L 21,290 L 21,230 L 70,230 C 80,230 100,240 99,260 C 99,280 80,290 70,290 Z" stroke="#000000" stroke-width="4.0" fill="none"/>
<circle cx="20.0" cy="240.0" r="2.0" stroke="#0000b2" stroke-width="4.0" fill="#0000b2" />
<circle cx="20.0" cy="280.0" r="2.0" stroke="#0000b2" stroke-width="4.0" fill="#0000b2" />
<circle cx="100.0" cy="260.0" r="2.0" stroke="#b20000" stroke-width="4.0" fill="#b20000" />
</g>
<g>
<path d="M 70,370 L 21,370 L 21,310 L 70,310 C 80,310 100,320 99,340 C 99,360 80,370 70,370 Z" stroke="#000000" stroke-width="4.0" fill="none"/>
<circle cx="20.0" cy="320.0" r="2.0" stroke="#0000b2" stroke-width="4.0" fill="#0000b2" />
<circle cx="20.0" cy="360.0" r="2.0" stroke="#0000b2" stroke-width="4.0" fill="#0000b2" />
<circle cx="100.0" cy="340.0" r="2.0" stroke="#b20000" stroke-width="4.0" fill="#b20000" />
</g>
<g>
<circle cx="396.0" cy="460.0" r="9.0" stroke="#000000" stroke-width="4.0" fill="none" />
<circle cx="396.0" cy="460.0" r="15.0" stroke="#000000" stroke-width="4.0" fill="none" />
<text text-anchor="start" x="425.0" y="469.0" fill="#000000" style="font-size:24px"><tspan style="font-style:italic;">s</tspan></text>
<circle cx="380.0" cy="460.0" r="2.0" stroke="#0000b2" stroke-width="4.0" fill="#0000b2" />
</g>
<g>
<path d="M 170,490 L 140,490 C 150,474 150,446 140,430 L 160,430 C 190,430 210,440 220,460 C 210,480 190,490 170,490 Z" stroke="#000000" stroke-width="4.0" fill="none"/>
<circle cx="140.0" cy="440.0" r="2.0" stroke="#0000b2" stroke-width="4.0" fill="#0000b2" />
<circle cx="140.0" cy="480.0" r="2.0" stroke="#0000b2" stroke-width="4.0" fill="#0000b2" />
<circle cx="220.0" cy="460.0" r="2.0" stroke="#b20000" stroke-width="4.0" fill="#b20000" />
</g>
<g>
<path d="M 70,450 L 21,450 L 21,390 L 70,390 C 80,390 100,400 99,420 C 99,440 80,450 70,450 Z" stroke="#000000" stroke-width="4.0" fill="none"/>
<circle cx="20.0" cy="400.0" r="2.0" stroke="#0000b2" stroke-width="4.0" fill="#0000b2" />
<circle cx="20.0" cy="440.0" r="2.0" stroke="#0000b2" stroke-width="4.0" fill="#0000b2" />
<circle cx="100.0" cy="420.0" r="2.0" stroke="#b20000" stroke-width="4.0" fill="#b20000" />
</g>
<g>
<path d="M 70,530 L 21,530 L 21,470 L 70,470 C 80,470 100,480 99,500 C 99,520 80,530 70,530 Z" stroke="#000000" stroke-width="4.0" fill="none"/>
<circle cx="20.0" cy="480.0" r="2.0" stroke="#0000b2" stroke-width="4.0" fill="#0000b2" />
<circle cx="20.0" cy="520.0" r="2.0" stroke="#0000b2" stroke-width="4.0" fill="#0000b2" />
<circle cx="100.0" cy="500.0" r="2.0" stroke="#b20000" stroke-width="4.0" fill="#b20000" />
</g>
<g>
<path d="M -145,-131 L -145,-101 L -175,-101 L -175,-131 Z" stroke="#000000" stroke-width="4.0" fill="none"/>
<circle cx="-160.0" cy="-116.0" r="9.0" stroke="#000000" stroke-width="4.0" fill="none" />
<text text-anchor="start" x="-160.0" y="-136.0" fill="#000000" style="font-size:24px" transform="rotate(-90,-160.0,-145.0)" ><tspan style="font-style:italic;">a</tspan></text>
<circle cx="-160.0" cy="-100.0" r="2.0" stroke="#b20000" stroke-width="4.0" fill="#b20000" />
</g>
<g>
<path d="M -128,-59 L -140,-41 L -152,-59 Z" stroke="#000000" stroke-width="4.0" fill="none"/>
<circle cx="-140.0" cy="-30.0" r="9.0" stroke="#000000" stroke-width="4.0" fill="none" />
<circle cx="-140.0" cy="-60.0" r="2.0" stroke="#0000b2" stroke-width="4.0" fill="#0000b2" />
<circle cx="-140.0" cy="-20.0" r="2.0" stroke="#b20000" stroke-width="4.0" fill="#b20000" />
</g>
<g>
<path d="M -100,-100 L -92,-114 L -108,-114 Z" stroke="#000000" stroke-width="4.0" fill="none"/>
<text text-anchor="start" x="-100.0" y="-112.25" fill="#808080" style="font-size:18px" transform="rotate(-90,-100.0,-119.0)" >Z<tspan style="font-size:80%;baseline-shift:sub;">1</tspan><tspan style="font-size:80%;baseline-shift:super;">n</tspan></text>
<circle cx="-100.0" cy="-100.0" r="2.0" stroke="#0000b2" stroke-width="4.0" fill="#0000b2" />
</g>
<g>
<path d="M -68,-59 L -80,-41 L -92,-59 Z" stroke="#000000" stroke-width="4.0" fill="none"/>
<circle cx="-80.0" cy="-30.0" r="9.0" stroke="#000000" stroke-width="4.0" fill="none" />
<circle cx="-80.0" cy="-60.0" r="2.0" stroke="#0000b2" stroke-width="4.0" fill="#0000b2" />
<circle cx="-80.0" cy="-20.0" r="2.0" stroke="#b20000" stroke-width="4.0" fill="#b20000" />
</g>
<g>
<path d="M -40,-100 L -32,-114 L -48,-114 Z" stroke="#000000" stroke-width="4.0" fill="none"/>
<text text-anchor="start" x="-40.0" y="-112.25" fill="#808080" style="font-size:18px" transform="rotate(-90,-40.0,-119.0)" >Z<tspan style="font-size:80%;baseline-shift:sub;">0</tspan><tspan style="font-size:80%;baseline-shift:super;">n</tspan></text>
<circle cx="-40.0" cy="-100.0" r="2.0" stroke="#0000b2" stroke-width="4.0" fill="#0000b2" />
</g>
<g>
<path d="M -8,-59 L -20,-41 L -32,-59 Z" stroke="#000000" stroke-width="4.0" fill="none"/>
<circle cx="-20.0" cy="-30.0" r="9.0" stroke="#000000" stroke-width="4.0" fill="none" />
<circle cx="-20.0" cy="-60.0" r="2.0" stroke="#0000b2" stroke-width="4.0" fill="#0000b2" />
<circle cx="-20.0" cy="-20.0" r="2.0" stroke="#b20000" stroke-width="4.0" fill="#b20000" />
</g>
<g>
<path d="M 275,-51 L 275,-21 L 245,-21 L 245,-51 Z" stroke="#000000" stroke-width="4.0" fill="none"/>
<text text-anchor="start" x="260.0" y="-56.0" fill="#000000" style="font-size:24px" transform="rotate(-90,260.0,-65.0)" ><tspan style="font-style:italic;">C</tspan></text>
<path d="M 255,-45 L 255,-40 L 265,-40 L 265,-35 L 255,-35 L 255,-30 L 265,-30 L 265,-25" stroke="#000000" stroke-width="2.0" fill="none"/>
<circle cx="260.0" cy="-20.0" r="2.0" stroke="#b20000" stroke-width="4.0" fill="#b20000" />
</g>
</g>
</svg>