<?xml version="1.0" encoding="UTF-8" standalone="no"?>
<!-- Created with Digital by H.Neemann -->
<!-- created: Wed Aug 30 11:22:55 EDT 2023 -->

<svg
   xmlns:svg="http://www.w3.org/2000/svg"
   xmlns="http://www.w3.org/2000/svg"
   width="222.6mm"
   height="165.0mm"
   viewBox="28 -288 1484 1100">
<g stroke-linecap="square">
<circle cx="300.0" cy="240.0" r="70.0" stroke="#000000" stroke-width="4.0" fill="none" />
<circle cx="170.0" cy="240.0" r="10.0" stroke="#000000" stroke-width="4.0" fill="#000000" />
<path d="M 184,240 Q 205,240 226,240" stroke="#808080" stroke-width="2.0" fill="none"/>
<path d="M 206,246 L 228,240 L 206,234" stroke="#808080" stroke-width="2.0" fill="none"/>
<text text-anchor="middle" x="300.0" y="225.0" fill="#000000" style="font-size:24px">0</text>
<circle cx="300.0" cy="-120.0" r="70.0" stroke="#000000" stroke-width="4.0" fill="none" />
<text text-anchor="middle" x="300.0" y="-135.0" fill="#000000" style="font-size:24px">1</text>
<circle cx="300.0" cy="660.0" r="70.0" stroke="#000000" stroke-width="4.0" fill="none" />
<text text-anchor="middle" x="300.0" y="645.0" fill="#000000" style="font-size:24px">2</text>
<circle cx="660.0" cy="-120.0" r="70.0" stroke="#000000" stroke-width="4.0" fill="none" />
<text text-anchor="middle" x="660.0" y="-135.0" fill="#000000" style="font-size:24px">3</text>
<circle cx="1140.0" cy="-120.0" r="70.0" stroke="#000000" stroke-width="4.0" fill="none" />
<text text-anchor="middle" x="1140.0" y="-135.0" fill="#000000" style="font-size:24px">4</text>
<circle cx="660.0" cy="660.0" r="70.0" stroke="#000000" stroke-width="4.0" fill="none" />
<text text-anchor="middle" x="660.0" y="645.0" fill="#000000" style="font-size:24px">5</text>
<circle cx="1020.0" cy="660.0" r="70.0" stroke="#000000" stroke-width="4.0" fill="none" />
<text text-anchor="middle" x="1020.0" y="645.0" fill="#000000" style="font-size:24px">6</text>
<circle cx="1440.0" cy="660.0" r="70.0" stroke="#000000" stroke-width="4.0" fill="none" />
<text text-anchor="middle" x="1440.0" y="645.0" fill="#000000" style="font-size:24px">7</text>
<path d="M 235.00195,204.62692 Q -12.123604,59.521984 233.24525,-83.67089" stroke="#808080" stroke-width="2.0" fill="none"/>
<path d="M 218.99573,-68.40815 L 234.97263,-84.678955 L 212.94736,-78.77238" stroke="#808080" stroke-width="2.0" fill="none"/>
<text text-anchor="middle" x="111.0" y="57.0" fill="#000000" style="font-size:24px"><tspan style="font-style:italic;">x = 0</tspan></text>
<text text-anchor="middle" x="111.0" y="81.0" fill="#000000" style="font-size:24px">mettre <tspan style="font-style:italic;">z = 0</tspan></text>
<path d="M 237.43382,279.51547 Q -16.588333,450.534 235.74284,619.4165" stroke="#808080" stroke-width="2.0" fill="none"/>
<path d="M 215.78473,613.2786 L 237.40492,620.52893 L 222.45923,603.3061" stroke="#808080" stroke-width="2.0" fill="none"/>
<text text-anchor="middle" x="110.0" y="447.0" fill="#000000" style="font-size:24px"><tspan style="font-style:italic;">x = 1</tspan></text>
<text text-anchor="middle" x="110.0" y="471.0" fill="#000000" style="font-size:24px">mettre <tspan style="font-style:italic;">z = 0</tspan></text>
<path d="M 352.28958,-172.3622 Q 480.70663,-272.9302 606.2972,-173.7774" stroke="#808080" stroke-width="2.0" fill="none"/>
<path d="M 586.8818,-181.46121 L 607.86694,-172.5381 L 594.31757,-190.87973" stroke="#808080" stroke-width="2.0" fill="none"/>
<text text-anchor="middle" x="480.0" y="-250.0" fill="#000000" style="font-size:24px"><tspan style="font-style:italic;">x = 1</tspan></text>
<text text-anchor="middle" x="480.0" y="-226.0" fill="#000000" style="font-size:24px">mettre <tspan style="font-style:italic;">z = 0</tspan></text>
<path d="M 614.3689,-61.74366 Q 497.90015,79.30405 359.83084,193.13562" stroke="#808080" stroke-width="2.0" fill="none"/>
<path d="M 371.44565,175.78351 L 358.2877,194.40788 L 379.07925,185.04248" stroke="#808080" stroke-width="2.0" fill="none"/>
<text text-anchor="middle" x="492.5" y="69.500015" fill="#000000" style="font-size:24px"><tspan style="font-style:italic;">x = 0</tspan></text>
<text text-anchor="middle" x="492.5" y="93.500015" fill="#000000" style="font-size:24px">mettre <tspan style="font-style:italic;">z = 0</tspan></text>
<path d="M 716.0942,-168.26434 Q 900.758,-307.08344 1082.3898,-169.56879" stroke="#808080" stroke-width="2.0" fill="none"/>
<path d="M 1062.8226,-176.85756 L 1083.9844,-168.36154 L 1070.066,-186.42482" stroke="#808080" stroke-width="2.0" fill="none"/>
<text text-anchor="middle" x="900.0" y="-265.0" fill="#000000" style="font-size:24px"><tspan style="font-style:italic;">x = 1</tspan></text>
<text text-anchor="middle" x="900.0" y="-241.0" fill="#000000" style="font-size:24px">mettre <tspan style="font-style:italic;">z = 0</tspan></text>
<path d="M 293.54965,-46.281662 Q 288.5375,60.9962 293.3753,164.28928" stroke="#808080" stroke-width="2.0" fill="none"/>
<path d="M 286.44617,144.59187 L 293.46887,166.28708 L 298.43304,144.03047" stroke="#808080" stroke-width="2.0" fill="none"/>
<text text-anchor="middle" x="291.0" y="57.0" fill="#000000" style="font-size:24px"><tspan style="font-style:italic;">x = 0</tspan></text>
<text text-anchor="middle" x="291.0" y="81.0" fill="#000000" style="font-size:24px">mettre <tspan style="font-style:italic;">z = 0</tspan></text>
<path d="M 1082.1072,-73.908554 Q 767.6839,173.71063 375.2838,229.59088" stroke="#808080" stroke-width="2.0" fill="none"/>
<path d="M 394.23813,220.83113 L 373.3038,229.87285 L 395.92996,232.71129" stroke="#808080" stroke-width="2.0" fill="none"/>
<text text-anchor="middle" x="748.1897" y="122.775894" fill="#000000" style="font-size:24px"><tspan style="font-style:italic;">x = 0</tspan></text>
<text text-anchor="middle" x="748.1897" y="146.7759" fill="#000000" style="font-size:24px">mettre <tspan style="font-style:italic;">z = 1</tspan></text>
<path d="M 1072.325,-90.06528 Q 721.11865,65.14839 370.1966,210.87204" stroke="#808080" stroke-width="2.0" fill="none"/>
<path d="M 386.3663,197.66066 L 368.34952,211.63905 L 390.9684,208.74312" stroke="#808080" stroke-width="2.0" fill="none"/>
<text text-anchor="middle" x="721.1897" y="59.775887" fill="#000000" style="font-size:24px"><tspan style="font-style:italic;">x = 1</tspan></text>
<text text-anchor="middle" x="721.1897" y="83.77589" fill="#000000" style="font-size:24px">mettre <tspan style="font-style:italic;">z = 0</tspan></text>
<path d="M 296.30463,586.09235 Q 291.7453,449.00128 296.20474,315.90518" stroke="#808080" stroke-width="2.0" fill="none"/>
<path d="M 301.53165,336.09488 L 296.27173,313.9063 L 289.53836,335.69302" stroke="#808080" stroke-width="2.0" fill="none"/>
<text text-anchor="middle" x="294.0" y="447.0" fill="#000000" style="font-size:24px"><tspan style="font-style:italic;">x = 0</tspan></text>
<text text-anchor="middle" x="294.0" y="471.0" fill="#000000" style="font-size:24px">mettre <tspan style="font-style:italic;">z = 0</tspan></text>
<path d="M 354.62494,709.92114 Q 480.73813,797.4043 603.89874,711.2703" stroke="#808080" stroke-width="2.0" fill="none"/>
<path d="M 590.9479,727.6494 L 605.5377,710.1241 L 584.07056,717.8157" stroke="#808080" stroke-width="2.0" fill="none"/>
<text text-anchor="middle" x="480.0" y="775.0" fill="#000000" style="font-size:24px"><tspan style="font-style:italic;">x = 1</tspan></text>
<text text-anchor="middle" x="480.0" y="799.0" fill="#000000" style="font-size:24px">mettre <tspan style="font-style:italic;">z = 0</tspan></text>
<path d="M 623.09644,595.8585 Q 514.09424,419.48218 359.3034,287.53006" stroke="#808080" stroke-width="2.0" fill="none"/>
<path d="M 378.41614,295.9386 L 357.78137,286.2326 L 370.63135,305.0708" stroke="#808080" stroke-width="2.0" fill="none"/>
<text text-anchor="middle" x="502.6471" y="427.58823" fill="#000000" style="font-size:24px"><tspan style="font-style:italic;">x = 0</tspan></text>
<text text-anchor="middle" x="502.6471" y="451.58823" fill="#000000" style="font-size:24px">mettre <tspan style="font-style:italic;">z = 0</tspan></text>
<path d="M 715.4228,709.0338 Q 840.7489,792.30365 963.0793,710.359" stroke="#808080" stroke-width="2.0" fill="none"/>
<path d="M 949.80206,726.4747 L 964.7409,709.2459 L 943.1236,716.5048" stroke="#808080" stroke-width="2.0" fill="none"/>
<text text-anchor="middle" x="840.0" y="772.0" fill="#000000" style="font-size:24px"><tspan style="font-style:italic;">x = 1</tspan></text>
<text text-anchor="middle" x="840.0" y="796.0" fill="#000000" style="font-size:24px">mettre <tspan style="font-style:italic;">z = 0</tspan></text>
<path d="M 1076.3835,707.92596 Q 1230.762,815.42633 1382.0927,709.2213" stroke="#808080" stroke-width="2.0" fill="none"/>
<path d="M 1369.1687,725.6216 L 1383.7297,708.0724 L 1362.2751,715.7992" stroke="#808080" stroke-width="2.0" fill="none"/>
<text text-anchor="middle" x="1230.0" y="783.0" fill="#000000" style="font-size:24px"><tspan style="font-style:italic;">x = 1</tspan></text>
<text text-anchor="middle" x="1230.0" y="807.0" fill="#000000" style="font-size:24px">mettre <tspan style="font-style:italic;">z = 0</tspan></text>
<path d="M 965.2977,610.1637 Q 702.60516,375.0219 372.20703,263.7096" stroke="#808080" stroke-width="2.0" fill="none"/>
<path d="M 393.07593,264.40906 L 370.3117,263.07104 L 389.2447,275.781" stroke="#808080" stroke-width="2.0" fill="none"/>
<text text-anchor="middle" x="685.6788" y="402.97928" fill="#000000" style="font-size:24px"><tspan style="font-style:italic;">x = 0</tspan></text>
<text text-anchor="middle" x="685.6788" y="426.97928" fill="#000000" style="font-size:24px">mettre <tspan style="font-style:italic;">z = 0</tspan></text>
<path d="M 1378.0167,619.5763 Q 918.2102,316.3239 375.37747,249.70752" stroke="#808080" stroke-width="2.0" fill="none"/>
<path d="M 395.95938,246.18832 L 373.39236,249.46391 L 394.4977,258.09897" stroke="#808080" stroke-width="2.0" fill="none"/>
<text text-anchor="middle" x="897.4537" y="372.4829" fill="#000000" style="font-size:24px"><tspan style="font-style:italic;">x = 0</tspan></text>
<text text-anchor="middle" x="897.4537" y="396.4829" fill="#000000" style="font-size:24px">mettre <tspan style="font-style:italic;">z = 0</tspan></text>
<path d="M 1388.8165,606.55615 Q 974.90735,162.65161 375.61255,232.3357" stroke="#808080" stroke-width="2.0" fill="none"/>
<path d="M 394.7857,224.06589 L 373.62595,232.5667 L 396.1717,235.98557" stroke="#808080" stroke-width="2.0" fill="none"/>
<text text-anchor="middle" x="928.561" y="288.04877" fill="#000000" style="font-size:24px"><tspan style="font-style:italic;">x = 1</tspan></text>
<text text-anchor="middle" x="928.561" y="312.04877" fill="#000000" style="font-size:24px">mettre <tspan style="font-style:italic;">z = 1</tspan></text>
</g>
</svg>