<?xml version="1.0" encoding="UTF-8" standalone="no"?>
<!-- Created with Digital by H.Neemann -->
<!-- created: Sun Aug 27 13:30:05 EDT 2023 -->

<svg
   xmlns:svg="http://www.w3.org/2000/svg"
   xmlns="http://www.w3.org/2000/svg"
   width="198.6mm"
   height="55.35mm"
   viewBox="-142 108 1324 369">
<g stroke-linecap="square">
<path d="M 1040,160 L 1120,160" stroke="#0000b2" stroke-width="4.0" fill="none"/>
<path d="M 920,160 L 980,160" stroke="#0000b2" stroke-width="4.0" fill="none"/>
<path d="M 1040,320 L 1120,320" stroke="#0000b2" stroke-width="4.0" fill="none"/>
<path d="M 920,320 L 980,320" stroke="#0000b2" stroke-width="4.0" fill="none"/>
<path d="M 340,320 L 400,320" stroke="#0000b2" stroke-width="4.0" fill="none"/>
<path d="M 60,240 L 60,320 L 120,320" stroke="#0000b2" stroke-width="4.0" fill="none"/>
<path d="M 460,320 L 520,320 L 620,320 L 660,320 L 660,260 L 680,260" stroke="#0000b2" stroke-width="4.0" fill="none"/>
<path d="M 20,220 L 20,360 L 120,360" stroke="#0000b2" stroke-width="4.0" fill="none"/>
<path d="M 800,240 L 800,300 L 840,300 L 844,300" stroke="#0000b2" stroke-width="4.0" fill="none"/>
<path d="M -40,400 L -40,300 L 260,300 L 264,300" stroke="#0000b2" stroke-width="4.0" fill="none"/>
<path d="M 760,140 L 840,140 L 844,140" stroke="#0000b2" stroke-width="4.0" fill="none"/>
<path d="M -80,460 L 360,460 L 960,460 L 960,340" stroke="#0000b2" stroke-width="4.0" fill="none"/>
<path d="M -80,400 L -40,400 L 680,400" stroke="#0000b2" stroke-width="4.0" fill="none"/>
<path d="M 760,240 L 800,240 L 800,180 L 840,180 L 844,180" stroke="#0000b2" stroke-width="4.0" fill="none"/>
<path d="M 200,240 L 260,240 L 264,240" stroke="#0000b2" stroke-width="4.0" fill="none"/>
<path d="M 60,200 L 60,240 L 100,240" stroke="#0000b2" stroke-width="4.0" fill="none"/>
<path d="M 200,340 L 260,340 L 264,340" stroke="#0000b2" stroke-width="4.0" fill="none"/>
<path d="M 340,220 L 400,220" stroke="#0000b2" stroke-width="4.0" fill="none"/>
<path d="M 460,220 L 480,220 L 580,220 L 680,220" stroke="#0000b2" stroke-width="4.0" fill="none"/>
<path d="M 760,380 L 800,380 L 800,340 L 840,340 L 844,340" stroke="#0000b2" stroke-width="4.0" fill="none"/>
<path d="M 980,340 L 960,340 L 960,180 L 980,180" stroke="#0000b2" stroke-width="4.0" fill="none"/>
<path d="M 660,140 L 580,140 L 580,220 L 580,380 L 660,380" stroke="#0000b2" stroke-width="4.0" fill="none"/>
<path d="M 480,220 L 480,140 L 20,140 L 20,220 L 120,220" stroke="#0000b2" stroke-width="4.0" fill="none"/>
<path d="M 120,260 L -40,260 L -40,120 L 680,120" stroke="#0000b2" stroke-width="4.0" fill="none"/>
<path d="M -40,260 L -40,300" stroke="#0000b2" stroke-width="4.0" fill="none"/>
<path d="M 400,240 L 360,240 L 360,340 L 400,340" stroke="#0000b2" stroke-width="4.0" fill="none"/>
<path d="M 360,340 L 360,460" stroke="#0000b2" stroke-width="4.0" fill="none"/>
<path d="M 520,320 L 520,160 L 60,160 L 60,200 L 260,200 L 264,200" stroke="#0000b2" stroke-width="4.0" fill="none"/>
<path d="M 680,160 L 620,160 L 620,320 L 620,360 L 660,360" stroke="#0000b2" stroke-width="4.0" fill="none"/>
<g>
<circle cx="520.0" cy="320.0" r="4.0" stroke="#0000b2" stroke-width="4.0" fill="#0000b2" />
<circle cx="620.0" cy="320.0" r="4.0" stroke="#0000b2" stroke-width="4.0" fill="#0000b2" />
<circle cx="-40.0" cy="260.0" r="4.0" stroke="#0000b2" stroke-width="4.0" fill="#0000b2" />
<circle cx="60.0" cy="200.0" r="4.0" stroke="#0000b2" stroke-width="4.0" fill="#0000b2" />
<circle cx="-40.0" cy="300.0" r="4.0" stroke="#0000b2" stroke-width="4.0" fill="#0000b2" />
<circle cx="360.0" cy="460.0" r="4.0" stroke="#0000b2" stroke-width="4.0" fill="#0000b2" />
<circle cx="-40.0" cy="400.0" r="4.0" stroke="#0000b2" stroke-width="4.0" fill="#0000b2" />
<circle cx="800.0" cy="240.0" r="4.0" stroke="#0000b2" stroke-width="4.0" fill="#0000b2" />
<circle cx="60.0" cy="240.0" r="4.0" stroke="#0000b2" stroke-width="4.0" fill="#0000b2" />
<circle cx="960.0" cy="340.0" r="4.0" stroke="#0000b2" stroke-width="4.0" fill="#0000b2" />
<circle cx="360.0" cy="340.0" r="4.0" stroke="#0000b2" stroke-width="4.0" fill="#0000b2" />
<circle cx="20.0" cy="220.0" r="4.0" stroke="#0000b2" stroke-width="4.0" fill="#0000b2" />
<circle cx="480.0" cy="220.0" r="4.0" stroke="#0000b2" stroke-width="4.0" fill="#0000b2" />
<circle cx="580.0" cy="220.0" r="4.0" stroke="#0000b2" stroke-width="4.0" fill="#0000b2" />
</g>
<g>
<path d="M -111,445 L -81,445 L -81,475 L -111,475 Z" stroke="#000000" stroke-width="4.0" fill="none"/>
<path d="M -105,465 L -100,465 L -100,455 L -95,455 L -95,465 L -90,465 L -90,455 L -85,455" stroke="#000000" stroke-width="2.0" fill="none"/>
<circle cx="-80.0" cy="460.0" r="2.0" stroke="#b20000" stroke-width="4.0" fill="#b20000" />
</g>
<g>
<circle cx="1136.0" cy="160.0" r="9.0" stroke="#000000" stroke-width="4.0" fill="none" />
<circle cx="1136.0" cy="160.0" r="15.0" stroke="#000000" stroke-width="4.0" fill="none" />
<text text-anchor="start" x="1165.0" y="169.0" fill="#000000" style="font-size:24px"><tspan style="font-style:italic;">Z</tspan></text>
<circle cx="1120.0" cy="160.0" r="2.0" stroke="#0000b2" stroke-width="4.0" fill="#0000b2" />
</g>
<g>
<circle cx="1136.0" cy="320.0" r="9.0" stroke="#000000" stroke-width="4.0" fill="none" />
<circle cx="1136.0" cy="320.0" r="15.0" stroke="#000000" stroke-width="4.0" fill="none" />
<text text-anchor="start" x="1165.0" y="329.0" fill="#000000" style="font-size:24px"><tspan style="font-style:italic;">F</tspan></text>
<circle cx="1120.0" cy="320.0" r="2.0" stroke="#0000b2" stroke-width="4.0" fill="#0000b2" />
</g>
<g>
<path d="M -111,385 L -81,385 L -81,415 L -111,415 Z" stroke="#000000" stroke-width="4.0" fill="none"/>
<circle cx="-96.0" cy="400.0" r="9.0" stroke="#000000" stroke-width="4.0" fill="none" />
<text text-anchor="end" x="-125.0" y="409.0" fill="#000000" style="font-size:24px"><tspan style="font-style:italic;">X</tspan></text>
<circle cx="-80.0" cy="400.0" r="2.0" stroke="#b20000" stroke-width="4.0" fill="#b20000" />
</g>
<g>
<path d="M 401,210 L 459,210 L 459,250 L 401,250 Z" stroke="#000000" stroke-width="4.0" fill="none"/>
<text text-anchor="middle" x="430.0" y="202.0" fill="#000000" style="font-size:24px">A<tspan style="font-size:80%;baseline-shift:sub;">1</tspan></text>
<text text-anchor="start" x="404.0" y="226.75" fill="#808080" style="font-size:18px">D</text>
<path d="M 401,247 L 408,240 L 401,233" stroke="#000000" stroke-width="2.0" fill="none"/>
<text text-anchor="start" x="411.0" y="246.75" fill="#808080" style="font-size:18px">C</text>
<text text-anchor="end" x="456.0" y="226.75" fill="#808080" style="font-size:18px">Q</text>
<text text-anchor="end" x="456.0" y="246.75" fill="#808080" style="font-size:18px"><tspan style="text-decoration:overline;">Q</tspan></text>
<text text-anchor="middle" x="430.0" y="267.5" fill="#808080" style="font-size:18px">D</text>
<circle cx="400.0" cy="220.0" r="2.0" stroke="#0000b2" stroke-width="4.0" fill="#0000b2" />
<circle cx="400.0" cy="240.0" r="2.0" stroke="#0000b2" stroke-width="4.0" fill="#0000b2" />
<circle cx="460.0" cy="220.0" r="2.0" stroke="#b20000" stroke-width="4.0" fill="#b20000" />
<circle cx="460.0" cy="240.0" r="2.0" stroke="#b20000" stroke-width="4.0" fill="#b20000" />
</g>
<g>
<path d="M 981,150 L 1039,150 L 1039,190 L 981,190 Z" stroke="#000000" stroke-width="4.0" fill="none"/>
<text text-anchor="start" x="984.0" y="166.75" fill="#808080" style="font-size:18px">D</text>
<path d="M 981,187 L 988,180 L 981,173" stroke="#000000" stroke-width="2.0" fill="none"/>
<text text-anchor="start" x="991.0" y="186.75" fill="#808080" style="font-size:18px">C</text>
<text text-anchor="end" x="1036.0" y="166.75" fill="#808080" style="font-size:18px">Q</text>
<text text-anchor="end" x="1036.0" y="186.75" fill="#808080" style="font-size:18px"><tspan style="text-decoration:overline;">Q</tspan></text>
<text text-anchor="middle" x="1010.0" y="207.5" fill="#808080" style="font-size:18px">D</text>
<circle cx="980.0" cy="160.0" r="2.0" stroke="#0000b2" stroke-width="4.0" fill="#0000b2" />
<circle cx="980.0" cy="180.0" r="2.0" stroke="#0000b2" stroke-width="4.0" fill="#0000b2" />
<circle cx="1040.0" cy="160.0" r="2.0" stroke="#b20000" stroke-width="4.0" fill="#b20000" />
<circle cx="1040.0" cy="180.0" r="2.0" stroke="#b20000" stroke-width="4.0" fill="#b20000" />
</g>
<g>
<path d="M 981,310 L 1039,310 L 1039,350 L 981,350 Z" stroke="#000000" stroke-width="4.0" fill="none"/>
<text text-anchor="start" x="984.0" y="326.75" fill="#808080" style="font-size:18px">D</text>
<path d="M 981,347 L 988,340 L 981,333" stroke="#000000" stroke-width="2.0" fill="none"/>
<text text-anchor="start" x="991.0" y="346.75" fill="#808080" style="font-size:18px">C</text>
<text text-anchor="end" x="1036.0" y="326.75" fill="#808080" style="font-size:18px">Q</text>
<text text-anchor="end" x="1036.0" y="346.75" fill="#808080" style="font-size:18px"><tspan style="text-decoration:overline;">Q</tspan></text>
<text text-anchor="middle" x="1010.0" y="367.5" fill="#808080" style="font-size:18px">D</text>
<circle cx="980.0" cy="320.0" r="2.0" stroke="#0000b2" stroke-width="4.0" fill="#0000b2" />
<circle cx="980.0" cy="340.0" r="2.0" stroke="#0000b2" stroke-width="4.0" fill="#0000b2" />
<circle cx="1040.0" cy="320.0" r="2.0" stroke="#b20000" stroke-width="4.0" fill="#b20000" />
<circle cx="1040.0" cy="340.0" r="2.0" stroke="#b20000" stroke-width="4.0" fill="#b20000" />
</g>
<g>
<path d="M 401,310 L 459,310 L 459,350 L 401,350 Z" stroke="#000000" stroke-width="4.0" fill="none"/>
<text text-anchor="middle" x="430.0" y="302.0" fill="#000000" style="font-size:24px">A<tspan style="font-size:80%;baseline-shift:sub;">0</tspan></text>
<text text-anchor="start" x="404.0" y="326.75" fill="#808080" style="font-size:18px">D</text>
<path d="M 401,347 L 408,340 L 401,333" stroke="#000000" stroke-width="2.0" fill="none"/>
<text text-anchor="start" x="411.0" y="346.75" fill="#808080" style="font-size:18px">C</text>
<text text-anchor="end" x="456.0" y="326.75" fill="#808080" style="font-size:18px">Q</text>
<text text-anchor="end" x="456.0" y="346.75" fill="#808080" style="font-size:18px"><tspan style="text-decoration:overline;">Q</tspan></text>
<text text-anchor="middle" x="430.0" y="367.5" fill="#808080" style="font-size:18px">D</text>
<circle cx="400.0" cy="320.0" r="2.0" stroke="#0000b2" stroke-width="4.0" fill="#0000b2" />
<circle cx="400.0" cy="340.0" r="2.0" stroke="#0000b2" stroke-width="4.0" fill="#0000b2" />
<circle cx="460.0" cy="320.0" r="2.0" stroke="#b20000" stroke-width="4.0" fill="#b20000" />
<circle cx="460.0" cy="340.0" r="2.0" stroke="#b20000" stroke-width="4.0" fill="#b20000" />
</g>
<g>
<path d="M 870,350 L 840,350 C 850,334 850,306 840,290 L 860,290 C 890,290 910,300 920,320 C 910,340 890,350 870,350 Z" stroke="#000000" stroke-width="4.0" fill="none"/>
<circle cx="840.0" cy="300.0" r="2.0" stroke="#0000b2" stroke-width="4.0" fill="#0000b2" />
<circle cx="840.0" cy="340.0" r="2.0" stroke="#0000b2" stroke-width="4.0" fill="#0000b2" />
<circle cx="920.0" cy="320.0" r="2.0" stroke="#b20000" stroke-width="4.0" fill="#b20000" />
</g>
<g>
<path d="M 870,190 L 840,190 C 850,174 850,146 840,130 L 860,130 C 890,130 910,140 920,160 C 910,180 890,190 870,190 Z" stroke="#000000" stroke-width="4.0" fill="none"/>
<circle cx="840.0" cy="140.0" r="2.0" stroke="#0000b2" stroke-width="4.0" fill="#0000b2" />
<circle cx="840.0" cy="180.0" r="2.0" stroke="#0000b2" stroke-width="4.0" fill="#0000b2" />
<circle cx="920.0" cy="160.0" r="2.0" stroke="#b20000" stroke-width="4.0" fill="#b20000" />
</g>
<g>
<path d="M 730,270 L 681,270 L 681,210 L 730,210 C 740,210 760,220 759,240 C 759,260 740,270 730,270 Z" stroke="#000000" stroke-width="4.0" fill="none"/>
<circle cx="680.0" cy="220.0" r="2.0" stroke="#0000b2" stroke-width="4.0" fill="#0000b2" />
<circle cx="680.0" cy="260.0" r="2.0" stroke="#0000b2" stroke-width="4.0" fill="#0000b2" />
<circle cx="760.0" cy="240.0" r="2.0" stroke="#b20000" stroke-width="4.0" fill="#b20000" />
</g>
<g>
<path d="M 730,170 L 681,170 L 681,110 L 730,110 C 740,110 760,120 759,140 C 759,160 740,170 730,170 Z" stroke="#000000" stroke-width="4.0" fill="none"/>
<circle cx="670.0" cy="140.0" r="8.0" stroke="#000000" stroke-width="4.0" fill="none" />
<circle cx="680.0" cy="120.0" r="2.0" stroke="#0000b2" stroke-width="4.0" fill="#0000b2" />
<circle cx="660.0" cy="140.0" r="2.0" stroke="#0000b2" stroke-width="4.0" fill="#0000b2" />
<circle cx="680.0" cy="160.0" r="2.0" stroke="#0000b2" stroke-width="4.0" fill="#0000b2" />
<circle cx="760.0" cy="140.0" r="2.0" stroke="#b20000" stroke-width="4.0" fill="#b20000" />
</g>
<g>
<path d="M 730,410 L 681,410 L 681,350 L 730,350 C 740,350 760,360 759,380 C 759,400 740,410 730,410 Z" stroke="#000000" stroke-width="4.0" fill="none"/>
<circle cx="670.0" cy="360.0" r="8.0" stroke="#000000" stroke-width="4.0" fill="none" />
<circle cx="670.0" cy="380.0" r="8.0" stroke="#000000" stroke-width="4.0" fill="none" />
<circle cx="660.0" cy="360.0" r="2.0" stroke="#0000b2" stroke-width="4.0" fill="#0000b2" />
<circle cx="660.0" cy="380.0" r="2.0" stroke="#0000b2" stroke-width="4.0" fill="#0000b2" />
<circle cx="680.0" cy="400.0" r="2.0" stroke="#0000b2" stroke-width="4.0" fill="#0000b2" />
<circle cx="760.0" cy="380.0" r="2.0" stroke="#b20000" stroke-width="4.0" fill="#b20000" />
</g>
<g>
<path d="M 290,250 L 260,250 C 270,234 270,206 260,190 L 280,190 C 310,190 330,200 340,220 C 330,240 310,250 290,250 Z" stroke="#000000" stroke-width="4.0" fill="none"/>
<circle cx="260.0" cy="200.0" r="2.0" stroke="#0000b2" stroke-width="4.0" fill="#0000b2" />
<circle cx="260.0" cy="240.0" r="2.0" stroke="#0000b2" stroke-width="4.0" fill="#0000b2" />
<circle cx="340.0" cy="220.0" r="2.0" stroke="#b20000" stroke-width="4.0" fill="#b20000" />
</g>
<g>
<path d="M 170,270 L 121,270 L 121,210 L 170,210 C 180,210 200,220 199,240 C 199,260 180,270 170,270 Z" stroke="#000000" stroke-width="4.0" fill="none"/>
<circle cx="110.0" cy="240.0" r="8.0" stroke="#000000" stroke-width="4.0" fill="none" />
<circle cx="120.0" cy="220.0" r="2.0" stroke="#0000b2" stroke-width="4.0" fill="#0000b2" />
<circle cx="100.0" cy="240.0" r="2.0" stroke="#0000b2" stroke-width="4.0" fill="#0000b2" />
<circle cx="120.0" cy="260.0" r="2.0" stroke="#0000b2" stroke-width="4.0" fill="#0000b2" />
<circle cx="200.0" cy="240.0" r="2.0" stroke="#b20000" stroke-width="4.0" fill="#b20000" />
</g>
<g>
<path d="M 290,350 L 260,350 C 270,334 270,306 260,290 L 280,290 C 310,290 330,300 340,320 C 330,340 310,350 290,350 Z" stroke="#000000" stroke-width="4.0" fill="none"/>
<circle cx="260.0" cy="300.0" r="2.0" stroke="#0000b2" stroke-width="4.0" fill="#0000b2" />
<circle cx="260.0" cy="340.0" r="2.0" stroke="#0000b2" stroke-width="4.0" fill="#0000b2" />
<circle cx="340.0" cy="320.0" r="2.0" stroke="#b20000" stroke-width="4.0" fill="#b20000" />
</g>
<g>
<path d="M 170,370 L 121,370 L 121,310 L 170,310 C 180,310 200,320 199,340 C 199,360 180,370 170,370 Z" stroke="#000000" stroke-width="4.0" fill="none"/>
<circle cx="120.0" cy="320.0" r="2.0" stroke="#0000b2" stroke-width="4.0" fill="#0000b2" />
<circle cx="120.0" cy="360.0" r="2.0" stroke="#0000b2" stroke-width="4.0" fill="#0000b2" />
<circle cx="200.0" cy="340.0" r="2.0" stroke="#b20000" stroke-width="4.0" fill="#b20000" />
</g>
</g>
</svg>