<?xml version="1.0" encoding="UTF-8" standalone="no"?>
<!-- Created with Digital by H.Neemann -->
<!-- created: Tue Oct 10 09:33:28 EDT 2023 -->

<svg
   xmlns:svg="http://www.w3.org/2000/svg"
   xmlns="http://www.w3.org/2000/svg"
   width="155.55mm"
   height="97.5mm"
   viewBox="235 29 1037 650">
<g stroke-linecap="square">
<circle cx="420.0" cy="240.0" r="70.0" stroke="#000000" stroke-width="4.0" fill="none" />
<circle cx="328.0761" cy="148.07611" r="10.0" stroke="#000000" stroke-width="4.0" fill="#000000" />
<path d="M 337.97562,157.9756 Q 352.82486,172.82486 367.6741,187.6741" stroke="#808080" stroke-width="2.0" fill="none"/>
<path d="M 349.2893,177.77461 L 369.08832,189.08832 L 357.7746,169.28932" stroke="#808080" stroke-width="2.0" fill="none"/>
<text text-anchor="middle" x="420.0" y="225.0" fill="#000000" style="font-size:24px">0</text>
<text text-anchor="middle" x="420.0" y="249.0" fill="#000000" style="font-size:24px">A</text>
<circle cx="1200.0" cy="420.0" r="70.0" stroke="#000000" stroke-width="4.0" fill="none" />
<text text-anchor="middle" x="1200.0" y="405.0" fill="#000000" style="font-size:24px">2</text>
<text text-anchor="middle" x="1200.0" y="429.0" fill="#000000" style="font-size:24px">C</text>
<circle cx="780.0" cy="420.0" r="70.0" stroke="#000000" stroke-width="4.0" fill="none" />
<text text-anchor="middle" x="780.0" y="405.0" fill="#000000" style="font-size:24px">3</text>
<text text-anchor="middle" x="780.0" y="429.0" fill="#000000" style="font-size:24px">D</text>
<circle cx="480.0" cy="540.0" r="70.0" stroke="#000000" stroke-width="4.0" fill="none" />
<text text-anchor="middle" x="480.0" y="525.0" fill="#000000" style="font-size:24px">1</text>
<text text-anchor="middle" x="480.0" y="549.0" fill="#000000" style="font-size:24px">B</text>
<path d="M 386.49573,174.01921 C 323.9547,50.85566 516.2204,44.533363 453.56537,171.81375" stroke="#808080" stroke-width="2.0" fill="none"/>
<path d="M 457.01523,151.2201 L 452.68207,173.60812 L 467.78146,156.5199" stroke="#808080" stroke-width="2.0" fill="none"/>
<text text-anchor="middle" x="419.0" y="52.0" fill="#000000" style="font-size:24px"><tspan style="font-style:italic;">a =1</tspan></text>
<text text-anchor="middle" x="419.0" y="76.0" fill="#000000" style="font-size:24px">mettre <tspan style="font-style:italic;">s = 1</tspan></text>
<path d="M 492.92612,227.43884 Q 847.5409,171.42384 1138.3298,375.58383" stroke="#808080" stroke-width="2.0" fill="none"/>
<path d="M 1118.5137,369.0022 L 1139.9667,376.73306 L 1125.4089,359.1811" stroke="#808080" stroke-width="2.0" fill="none"/>
<text text-anchor="middle" x="831.5844" y="209.46759" fill="#000000" style="font-size:24px"><tspan style="font-style:italic;">a =0</tspan></text>
<text text-anchor="middle" x="831.5844" y="233.46759" fill="#000000" style="font-size:24px">mettre <tspan style="font-style:italic;">s = 1</tspan></text>
<path d="M 448.1938,606.8159 C 399.64435,708.8047 291.79004,577.9983 405.5031,555.0404" stroke="#808080" stroke-width="2.0" fill="none"/>
<path d="M 387.0861,564.87976 L 407.46356,554.6446 L 384.71127,553.11707" stroke="#808080" stroke-width="2.0" fill="none"/>
<text text-anchor="middle" x="366.0" y="650.0" fill="#000000" style="font-size:24px"><tspan style="font-style:italic;">a =0</tspan></text>
<text text-anchor="middle" x="366.0" y="674.0" fill="#000000" style="font-size:24px">mettre <tspan style="font-style:italic;">s = 0</tspan></text>
<path d="M 411.0845,513.04346 Q 244.49657,430.55017 365.31448,292.7778" stroke="#808080" stroke-width="2.0" fill="none"/>
<path d="M 356.63904,311.77087 L 366.63315,291.2741 L 347.61676,303.8589" stroke="#808080" stroke-width="2.0" fill="none"/>
<text text-anchor="middle" x="316.34802" y="413.7304" fill="#000000" style="font-size:24px"><tspan style="font-style:italic;">a =1</tspan></text>
<text text-anchor="middle" x="316.34802" y="437.7304" fill="#000000" style="font-size:24px">mettre <tspan style="font-style:italic;">s = 1</tspan></text>
<path d="M 1142.2869,466.31628 Q 871.5662,674.7027 551.49646,565.7732" stroke="#808080" stroke-width="2.0" fill="none"/>
<path d="M 572.3631,566.5368 L 549.6031,565.12885 L 568.4969,577.8969" stroke="#808080" stroke-width="2.0" fill="none"/>
<text text-anchor="middle" x="859.22894" y="616.3737" fill="#000000" style="font-size:24px"><tspan style="font-style:italic;">a =0</tspan></text>
<text text-anchor="middle" x="859.22894" y="640.3737" fill="#000000" style="font-size:24px">mettre <tspan style="font-style:italic;">s = 1</tspan></text>
<path d="M 1126.0002,419.7863 Q 989,419.52344 855.9997,419.78052" stroke="#808080" stroke-width="2.0" fill="none"/>
<path d="M 875.98804,413.74185 L 853.9997,419.7844 L 876.0112,425.74185" stroke="#808080" stroke-width="2.0" fill="none"/>
<text text-anchor="middle" x="990.0" y="392.6534" fill="#000000" style="font-size:24px"><tspan style="font-style:italic;">a =1</tspan></text>
<text text-anchor="middle" x="990.0" y="416.6534" fill="#000000" style="font-size:24px">mettre <tspan style="font-style:italic;">s = 0</tspan></text>
<path d="M 706.3011,413.33112 Q 606.9094,424.67313 530.087,482.83978" stroke="#808080" stroke-width="2.0" fill="none"/>
<path d="M 542.41016,465.98337 L 528.4925,484.0471 L 549.65393,475.55038" stroke="#808080" stroke-width="2.0" fill="none"/>
<text text-anchor="middle" x="612.5517" y="433.3793" fill="#000000" style="font-size:24px"><tspan style="font-style:italic;">a =1</tspan></text>
<text text-anchor="middle" x="612.5517" y="457.3793" fill="#000000" style="font-size:24px">mettre <tspan style="font-style:italic;">s = 1</tspan></text>
<path d="M 713.62164,387.29047 Q 598.70374,330.35645 487.7783,274.38174" stroke="#808080" stroke-width="2.0" fill="none"/>
<path d="M 508.3368,278.03525 L 485.99274,273.48074 L 502.93073,288.7485" stroke="#808080" stroke-width="2.0" fill="none"/>
<text text-anchor="middle" x="599.70184" y="327.59628" fill="#000000" style="font-size:24px"><tspan style="font-style:italic;">a =0</tspan></text>
<text text-anchor="middle" x="599.70184" y="351.59628" fill="#000000" style="font-size:24px">mettre <tspan style="font-style:italic;">s = 0</tspan></text>
</g>
</svg>