<svg xmlns="http://www.w3.org/2000/svg" xml:lang="en" height="212.97999999999996pt" width="1197.0975999999998pt" viewBox="-25.457600000000003 -29.54 1197.0975999999998 212.97999999999996"><defs><pattern id="hatch" patternUnits="userSpaceOnUse" width="4" height="4">
<path d="M-1,1 l2,-2 M0,4 l4,-4 M3,5 l2,-2" style="stroke:black; stroke-width:.5" /></pattern></defs><path d="M 0.0,-24.299999999999997 L 0.0,178.2" style="stroke:#DDDDDD;fill:none;stroke-width:1;stroke-dasharray:2,3.3;stroke-linecap:round;stroke-linejoin:round;" /><path d="M 32.4,-24.299999999999997 L 32.4,178.2" style="stroke:#DDDDDD;fill:none;stroke-width:1;stroke-dasharray:2,3.3;stroke-linecap:round;stroke-linejoin:round;" /><path d="M 64.8,-24.299999999999997 L 64.8,178.2" style="stroke:#DDDDDD;fill:none;stroke-width:1;stroke-dasharray:2,3.3;stroke-linecap:round;stroke-linejoin:round;" /><path d="M 97.19999999999999,-24.299999999999997 L 97.19999999999999,178.2" style="stroke:#DDDDDD;fill:none;stroke-width:1;stroke-dasharray:2,3.3;stroke-linecap:round;stroke-linejoin:round;" /><path d="M 129.6,-24.299999999999997 L 129.6,178.2" style="stroke:#DDDDDD;fill:none;stroke-width:1;stroke-dasharray:2,3.3;stroke-linecap:round;stroke-linejoin:round;" /><path d="M 162.0,-24.299999999999997 L 162.0,178.2" style="stroke:#DDDDDD;fill:none;stroke-width:1;stroke-dasharray:2,3.3;stroke-linecap:round;stroke-linejoin:round;" /><path d="M 194.39999999999998,-24.299999999999997 L 194.39999999999998,178.2" style="stroke:#DDDDDD;fill:none;stroke-width:1;stroke-dasharray:2,3.3;stroke-linecap:round;stroke-linejoin:round;" /><path d="M 226.79999999999998,-24.299999999999997 L 226.79999999999998,178.2" style="stroke:#DDDDDD;fill:none;stroke-width:1;stroke-dasharray:2,3.3;stroke-linecap:round;stroke-linejoin:round;" /><path d="M 259.2,-24.299999999999997 L 259.2,178.2" style="stroke:#DDDDDD;fill:none;stroke-width:1;stroke-dasharray:2,3.3;stroke-linecap:round;stroke-linejoin:round;" /><path d="M 291.59999999999997,-24.299999999999997 L 291.59999999999997,178.2" style="stroke:#DDDDDD;fill:none;stroke-width:1;stroke-dasharray:2,3.3;stroke-linecap:round;stroke-linejoin:round;" /><path d="M 324.0,-24.299999999999997 L 324.0,178.2" style="stroke:#DDDDDD;fill:none;stroke-width:1;stroke-dasharray:2,3.3;stroke-linecap:round;stroke-linejoin:round;" /><path d="M 356.4,-24.299999999999997 L 356.4,178.2" style="stroke:#DDDDDD;fill:none;stroke-width:1;stroke-dasharray:2,3.3;stroke-linecap:round;stroke-linejoin:round;" /><path d="M 388.79999999999995,-24.299999999999997 L 388.79999999999995,178.2" style="stroke:#DDDDDD;fill:none;stroke-width:1;stroke-dasharray:2,3.3;stroke-linecap:round;stroke-linejoin:round;" /><path d="M 421.2,-24.299999999999997 L 421.2,178.2" style="stroke:#DDDDDD;fill:none;stroke-width:1;stroke-dasharray:2,3.3;stroke-linecap:round;stroke-linejoin:round;" /><path d="M 453.59999999999997,-24.299999999999997 L 453.59999999999997,178.2" style="stroke:#DDDDDD;fill:none;stroke-width:1;stroke-dasharray:2,3.3;stroke-linecap:round;stroke-linejoin:round;" /><path d="M 486.0,-24.299999999999997 L 486.0,178.2" style="stroke:#DDDDDD;fill:none;stroke-width:1;stroke-dasharray:2,3.3;stroke-linecap:round;stroke-linejoin:round;" /><path d="M 518.4,-24.299999999999997 L 518.4,178.2" style="stroke:#DDDDDD;fill:none;stroke-width:1;stroke-dasharray:2,3.3;stroke-linecap:round;stroke-linejoin:round;" /><path d="M 550.8,-24.299999999999997 L 550.8,178.2" style="stroke:#DDDDDD;fill:none;stroke-width:1;stroke-dasharray:2,3.3;stroke-linecap:round;stroke-linejoin:round;" /><path d="M 583.1999999999999,-24.299999999999997 L 583.1999999999999,178.2" style="stroke:#DDDDDD;fill:none;stroke-width:1;stroke-dasharray:2,3.3;stroke-linecap:round;stroke-linejoin:round;" /><path d="M 615.6,-24.299999999999997 L 615.6,178.2" style="stroke:#DDDDDD;fill:none;stroke-width:1;stroke-dasharray:2,3.3;stroke-linecap:round;stroke-linejoin:round;" /><path d="M 648.0,-24.299999999999997 L 648.0,178.2" style="stroke:#DDDDDD;fill:none;stroke-width:1;stroke-dasharray:2,3.3;stroke-linecap:round;stroke-linejoin:round;" /><path d="M 680.4,-24.299999999999997 L 680.4,178.2" style="stroke:#DDDDDD;fill:none;stroke-width:1;stroke-dasharray:2,3.3;stroke-linecap:round;stroke-linejoin:round;" /><path d="M 712.8,-24.299999999999997 L 712.8,178.2" style="stroke:#DDDDDD;fill:none;stroke-width:1;stroke-dasharray:2,3.3;stroke-linecap:round;stroke-linejoin:round;" /><path d="M 745.1999999999999,-24.299999999999997 L 745.1999999999999,178.2" style="stroke:#DDDDDD;fill:none;stroke-width:1;stroke-dasharray:2,3.3;stroke-linecap:round;stroke-linejoin:round;" /><path d="M 777.5999999999999,-24.299999999999997 L 777.5999999999999,178.2" style="stroke:#DDDDDD;fill:none;stroke-width:1;stroke-dasharray:2,3.3;stroke-linecap:round;stroke-linejoin:round;" /><path d="M 810.0,-24.299999999999997 L 810.0,178.2" style="stroke:#DDDDDD;fill:none;stroke-width:1;stroke-dasharray:2,3.3;stroke-linecap:round;stroke-linejoin:round;" /><path d="M 842.4,-24.299999999999997 L 842.4,178.2" style="stroke:#DDDDDD;fill:none;stroke-width:1;stroke-dasharray:2,3.3;stroke-linecap:round;stroke-linejoin:round;" /><path d="M 874.8,-24.299999999999997 L 874.8,178.2" style="stroke:#DDDDDD;fill:none;stroke-width:1;stroke-dasharray:2,3.3;stroke-linecap:round;stroke-linejoin:round;" /><path d="M 907.1999999999999,-24.299999999999997 L 907.1999999999999,178.2" style="stroke:#DDDDDD;fill:none;stroke-width:1;stroke-dasharray:2,3.3;stroke-linecap:round;stroke-linejoin:round;" /><path d="M 939.5999999999999,-24.299999999999997 L 939.5999999999999,178.2" style="stroke:#DDDDDD;fill:none;stroke-width:1;stroke-dasharray:2,3.3;stroke-linecap:round;stroke-linejoin:round;" /><path d="M 972.0,-24.299999999999997 L 972.0,178.2" style="stroke:#DDDDDD;fill:none;stroke-width:1;stroke-dasharray:2,3.3;stroke-linecap:round;stroke-linejoin:round;" /><path d="M 1004.4,-24.299999999999997 L 1004.4,178.2" style="stroke:#DDDDDD;fill:none;stroke-width:1;stroke-dasharray:2,3.3;stroke-linecap:round;stroke-linejoin:round;" /><path d="M 1036.8,-24.299999999999997 L 1036.8,178.2" style="stroke:#DDDDDD;fill:none;stroke-width:1;stroke-dasharray:2,3.3;stroke-linecap:round;stroke-linejoin:round;" /><path d="M 1069.2,-24.299999999999997 L 1069.2,178.2" style="stroke:#DDDDDD;fill:none;stroke-width:1;stroke-dasharray:2,3.3;stroke-linecap:round;stroke-linejoin:round;" /><path d="M 1101.6,-24.299999999999997 L 1101.6,178.2" style="stroke:#DDDDDD;fill:none;stroke-width:1;stroke-dasharray:2,3.3;stroke-linecap:round;stroke-linejoin:round;" /><path d="M 1134.0,-24.299999999999997 L 1134.0,178.2" style="stroke:#DDDDDD;fill:none;stroke-width:1;stroke-dasharray:2,3.3;stroke-linecap:round;stroke-linejoin:round;" /><path d="M 1166.3999999999999,-24.299999999999997 L 1166.3999999999999,178.2" style="stroke:#DDDDDD;fill:none;stroke-width:1;stroke-dasharray:2,3.3;stroke-linecap:round;stroke-linejoin:round;" /><defs><clipPath id="clip0"><rect x="-1.0" y="-18.82" width="1168.3999999999999" height="214.21999999999997" /></clipPath></defs><polyline points="1159.9199999999998,-16.2 868.3199999999999,-16.2 873.18,-0.0 1159.9199999999998,-0.0 " style="stroke:black;fill:url(#hatch);stroke-width:1;stroke-linecap:round;stroke-linejoin:round;" clip-path="url(#clip0)" /><polyline points="1159.9199999999998,16.2 868.3199999999999,16.2 873.18,32.4 1159.9199999999998,32.4 " style="stroke:black;fill:url(#hatch);stroke-width:1;stroke-linecap:round;stroke-linejoin:round;" clip-path="url(#clip0)" /><polyline points="1166.3999999999999,48.599999999999994 874.8,48.599999999999994 879.66,64.8 1166.3999999999999,64.8 " style="stroke:black;fill:url(#hatch);stroke-width:1;stroke-linecap:round;stroke-linejoin:round;" clip-path="url(#clip0)" /><polyline points="1166.3999999999999,81.0 879.66,81.0 874.8,97.19999999999999 1166.3999999999999,97.19999999999999 " style="stroke:black;fill:url(#hatch);stroke-width:1;stroke-linecap:round;stroke-linejoin:round;" clip-path="url(#clip0)" /><polyline points="1166.3999999999999,113.39999999999999 874.8,113.39999999999999 879.66,129.6 1166.3999999999999,129.6 " style="stroke:black;fill:url(#hatch);stroke-width:1;stroke-linecap:round;stroke-linejoin:round;" clip-path="url(#clip0)" /><polyline points="1166.3999999999999,145.79999999999998 874.8,145.79999999999998 879.66,162.0 1166.3999999999999,162.0 " style="stroke:black;fill:url(#hatch);stroke-width:1;stroke-linecap:round;stroke-linejoin:round;" clip-path="url(#clip0)" /><path d="M -6.48,-16.2 L 868.3199999999999,-16.2" style="stroke:black;fill:none;stroke-width:1;stroke-linecap:round;stroke-linejoin:round;" clip-path="url(#clip0)" /><path d="M -6.48,32.4 L 25.92,32.4" style="stroke:black;fill:none;stroke-width:1;stroke-linecap:round;stroke-linejoin:round;" clip-path="url(#clip0)" /><path d="M 25.92,32.4 L 30.78,16.2 L 868.3199999999999,16.2" style="stroke:black;fill:none;stroke-width:1;stroke-linecap:round;stroke-linejoin:round;" clip-path="url(#clip0)" /><path d="M 0.0,48.599999999999994 L 874.8,48.599999999999994" style="stroke:black;fill:none;stroke-width:1;stroke-linecap:round;stroke-linejoin:round;" clip-path="url(#clip0)" /><path d="M 0.0,81.0 L 324.0,81.0" style="stroke:black;fill:none;stroke-width:1;stroke-linecap:round;stroke-linejoin:round;" clip-path="url(#clip0)" /><path d="M 324.0,81.0 L 328.86,97.19999999999999 L 874.8,97.19999999999999" style="stroke:black;fill:none;stroke-width:1;stroke-linecap:round;stroke-linejoin:round;" clip-path="url(#clip0)" /><path d="M 0.0,129.6 L 583.1999999999999,129.6" style="stroke:black;fill:none;stroke-width:1;stroke-linecap:round;stroke-linejoin:round;" clip-path="url(#clip0)" /><path d="M 583.1999999999999,129.6 L 588.06,113.39999999999999 L 874.8,113.39999999999999" style="stroke:black;fill:none;stroke-width:1;stroke-linecap:round;stroke-linejoin:round;" clip-path="url(#clip0)" /><path d="M 0.0,162.0 L 842.4,162.0" style="stroke:black;fill:none;stroke-width:1;stroke-linecap:round;stroke-linejoin:round;" clip-path="url(#clip0)" /><path d="M 842.4,162.0 L 847.2599999999999,145.79999999999998 L 874.8,145.79999999999998" style="stroke:black;fill:none;stroke-width:1;stroke-linecap:round;stroke-linejoin:round;" clip-path="url(#clip0)" /><path d="M 28.349999999999998,24.299999999999997 L 60.75000000000001,24.299999999999997" style="stroke:blue;fill:none;stroke-width:1;stroke-linecap:round;stroke-linejoin:round;" /><path d="M 28.349999999999998,27.54 L 28.349999999999998,21.06" style="stroke:blue;fill:none;stroke-width:1;stroke-linecap:round;stroke-linejoin:round;" /><path d="M 60.75000000000001,27.54 L 60.75000000000001,21.06" style="stroke:blue;fill:none;stroke-width:1;stroke-linecap:round;stroke-linejoin:round;" /><path d="M 67.23,89.1 L 326.42999999999995,89.1" style="stroke:blue;fill:none;stroke-width:1;stroke-linecap:round;stroke-linejoin:round;" /><path d="M 67.23,92.34 L 67.23,85.86" style="stroke:blue;fill:none;stroke-width:1;stroke-linecap:round;stroke-linejoin:round;" /><path d="M 326.42999999999995,92.34 L 326.42999999999995,85.86" style="stroke:blue;fill:none;stroke-width:1;stroke-linecap:round;stroke-linejoin:round;" /><path d="M 326.42999999999995,121.5 L 585.63,121.5" style="stroke:blue;fill:none;stroke-width:1;stroke-linecap:round;stroke-linejoin:round;" /><path d="M 326.42999999999995,124.74 L 326.42999999999995,118.25999999999999" style="stroke:blue;fill:none;stroke-width:1;stroke-linecap:round;stroke-linejoin:round;" /><path d="M 585.63,124.74 L 585.63,118.25999999999999" style="stroke:blue;fill:none;stroke-width:1;stroke-linecap:round;stroke-linejoin:round;" /><path d="M 585.63,153.9 L 844.8299999999999,153.9" style="stroke:blue;fill:none;stroke-width:1;stroke-linecap:round;stroke-linejoin:round;" /><path d="M 585.63,157.14 L 585.63,150.66" style="stroke:blue;fill:none;stroke-width:1;stroke-linecap:round;stroke-linejoin:round;" /><path d="M 844.8299999999999,157.14 L 844.8299999999999,150.66" style="stroke:blue;fill:none;stroke-width:1;stroke-linecap:round;stroke-linejoin:round;" /><path d="M 585.63,121.5 L 618.03,121.5" style="stroke:blue;fill:none;stroke-width:1;stroke-linecap:round;stroke-linejoin:round;" /><path d="M 585.63,124.74 L 585.63,118.25999999999999" style="stroke:blue;fill:none;stroke-width:1;stroke-linecap:round;stroke-linejoin:round;" /><path d="M 618.03,124.74 L 618.03,118.25999999999999" style="stroke:blue;fill:none;stroke-width:1;stroke-linecap:round;stroke-linejoin:round;" /><text x="-6.48" y="-11.400000000000002" fill="blue" font-size="12" font-family="sans" text-anchor="end" transform="rotate(0 -6.48 -1.7999999999999998)"><tspan x="-6.48" dy="9.600000000000001">x</tspan></text><text x="-6.48" y="20.999999999999996" fill="blue" font-size="12" font-family="sans" text-anchor="end" transform="rotate(0 -6.48 30.599999999999998)"><tspan x="-6.48" dy="9.600000000000001">y</tspan></text><text x="-6.48" y="53.39999999999999" fill="blue" font-size="12" font-family="sans" text-anchor="end" transform="rotate(0 -6.48 62.99999999999999)"><tspan x="-6.48" dy="9.600000000000001">A</tspan></text><text x="-6.48" y="85.80000000000001" fill="blue" font-size="12" font-family="sans" text-anchor="end" transform="rotate(0 -6.48 95.4)"><tspan x="-6.48" dy="9.600000000000001">B</tspan></text><text x="-6.48" y="118.19999999999999" fill="blue" font-size="12" font-family="sans" text-anchor="end" transform="rotate(0 -6.48 127.8)"><tspan x="-6.48" dy="9.600000000000001">S</tspan></text><text x="-6.48" y="150.6" fill="blue" font-size="12" font-family="sans" text-anchor="end" transform="rotate(0 -6.48 160.2)"><tspan x="-6.48" dy="9.600000000000001">Z</tspan></text><polygon points="35.64,28.619999999999997 35.64,19.98 53.459999999999994,19.98 53.459999999999994,28.619999999999997 " style="stroke:none;fill:white;stroke-width:2.0;stroke-linecap:round;stroke-linejoin:round;" /><text x="44.55" y="19.9" fill="black" font-size="8" font-family="sans" text-anchor="middle" transform="rotate(0 44.55 23.1)"><tspan x="44.55" dy="6.4">5ns</tspan></text><polygon points="184.84199999999996,93.42 184.84199999999996,84.78 208.81799999999998,84.78 208.81799999999998,93.42 " style="stroke:none;fill:white;stroke-width:2.0;stroke-linecap:round;stroke-linejoin:round;" /><text x="196.82999999999996" y="84.69999999999999" fill="black" font-size="8" font-family="sans" text-anchor="middle" transform="rotate(0 196.82999999999996 87.89999999999999)"><tspan x="196.82999999999996" dy="6.4">40ns</tspan></text><polygon points="444.042,125.82 444.042,117.17999999999999 468.0179999999999,117.17999999999999 468.0179999999999,125.82 " style="stroke:none;fill:white;stroke-width:2.0;stroke-linecap:round;stroke-linejoin:round;" /><text x="456.03" y="117.09999999999998" fill="black" font-size="8" font-family="sans" text-anchor="middle" transform="rotate(0 456.03 120.29999999999998)"><tspan x="456.03" dy="6.4">30ns</tspan></text><polygon points="703.242,158.22 703.242,149.57999999999998 727.218,149.57999999999998 727.218,158.22 " style="stroke:none;fill:white;stroke-width:2.0;stroke-linecap:round;stroke-linejoin:round;" /><text x="715.2299999999999" y="149.49999999999997" fill="black" font-size="8" font-family="sans" text-anchor="middle" transform="rotate(0 715.2299999999999 152.7)"><tspan x="715.2299999999999" dy="6.4">40ns</tspan></text><polygon points="592.92,125.82 592.92,117.17999999999999 610.7399999999999,117.17999999999999 610.7399999999999,125.82 " style="stroke:none;fill:white;stroke-width:2.0;stroke-linecap:round;stroke-linejoin:round;" /><text x="601.8299999999999" y="117.09999999999998" fill="black" font-size="8" font-family="sans" text-anchor="middle" transform="rotate(0 601.8299999999999 120.29999999999998)"><tspan x="601.8299999999999" dy="6.4">5ns</tspan></text></svg>