<svg xmlns="http://www.w3.org/2000/svg" xml:lang="en" height="504.5799999999999pt" width="748.552pt" viewBox="-30.512 -29.54 748.552 504.5799999999999"><path d="M 0.0,-24.299999999999997 L 0.0,469.79999999999995" style="stroke:#DDDDDD;fill:none;stroke-width:1;stroke-dasharray:2,3.3;stroke-linecap:round;stroke-linejoin:round;" /><path d="M 32.4,-24.299999999999997 L 32.4,469.79999999999995" style="stroke:#DDDDDD;fill:none;stroke-width:1;stroke-dasharray:2,3.3;stroke-linecap:round;stroke-linejoin:round;" /><path d="M 64.8,-24.299999999999997 L 64.8,469.79999999999995" style="stroke:#DDDDDD;fill:none;stroke-width:1;stroke-dasharray:2,3.3;stroke-linecap:round;stroke-linejoin:round;" /><path d="M 97.19999999999999,-24.299999999999997 L 97.19999999999999,469.79999999999995" style="stroke:#DDDDDD;fill:none;stroke-width:1;stroke-dasharray:2,3.3;stroke-linecap:round;stroke-linejoin:round;" /><path d="M 129.6,-24.299999999999997 L 129.6,469.79999999999995" style="stroke:#DDDDDD;fill:none;stroke-width:1;stroke-dasharray:2,3.3;stroke-linecap:round;stroke-linejoin:round;" /><path d="M 162.0,-24.299999999999997 L 162.0,469.79999999999995" style="stroke:#DDDDDD;fill:none;stroke-width:1;stroke-dasharray:2,3.3;stroke-linecap:round;stroke-linejoin:round;" /><path d="M 194.39999999999998,-24.299999999999997 L 194.39999999999998,469.79999999999995" style="stroke:#DDDDDD;fill:none;stroke-width:1;stroke-dasharray:2,3.3;stroke-linecap:round;stroke-linejoin:round;" /><path d="M 226.79999999999998,-24.299999999999997 L 226.79999999999998,469.79999999999995" style="stroke:#DDDDDD;fill:none;stroke-width:1;stroke-dasharray:2,3.3;stroke-linecap:round;stroke-linejoin:round;" /><path d="M 259.2,-24.299999999999997 L 259.2,469.79999999999995" style="stroke:#DDDDDD;fill:none;stroke-width:1;stroke-dasharray:2,3.3;stroke-linecap:round;stroke-linejoin:round;" /><path d="M 291.59999999999997,-24.299999999999997 L 291.59999999999997,469.79999999999995" style="stroke:#DDDDDD;fill:none;stroke-width:1;stroke-dasharray:2,3.3;stroke-linecap:round;stroke-linejoin:round;" /><path d="M 324.0,-24.299999999999997 L 324.0,469.79999999999995" style="stroke:#DDDDDD;fill:none;stroke-width:1;stroke-dasharray:2,3.3;stroke-linecap:round;stroke-linejoin:round;" /><path d="M 356.4,-24.299999999999997 L 356.4,469.79999999999995" style="stroke:#DDDDDD;fill:none;stroke-width:1;stroke-dasharray:2,3.3;stroke-linecap:round;stroke-linejoin:round;" /><path d="M 388.79999999999995,-24.299999999999997 L 388.79999999999995,469.79999999999995" style="stroke:#DDDDDD;fill:none;stroke-width:1;stroke-dasharray:2,3.3;stroke-linecap:round;stroke-linejoin:round;" /><path d="M 421.2,-24.299999999999997 L 421.2,469.79999999999995" style="stroke:#DDDDDD;fill:none;stroke-width:1;stroke-dasharray:2,3.3;stroke-linecap:round;stroke-linejoin:round;" /><path d="M 453.59999999999997,-24.299999999999997 L 453.59999999999997,469.79999999999995" style="stroke:#DDDDDD;fill:none;stroke-width:1;stroke-dasharray:2,3.3;stroke-linecap:round;stroke-linejoin:round;" /><path d="M 486.0,-24.299999999999997 L 486.0,469.79999999999995" style="stroke:#DDDDDD;fill:none;stroke-width:1;stroke-dasharray:2,3.3;stroke-linecap:round;stroke-linejoin:round;" /><path d="M 518.4,-24.299999999999997 L 518.4,469.79999999999995" style="stroke:#DDDDDD;fill:none;stroke-width:1;stroke-dasharray:2,3.3;stroke-linecap:round;stroke-linejoin:round;" /><path d="M 550.8,-24.299999999999997 L 550.8,469.79999999999995" style="stroke:#DDDDDD;fill:none;stroke-width:1;stroke-dasharray:2,3.3;stroke-linecap:round;stroke-linejoin:round;" /><path d="M 583.1999999999999,-24.299999999999997 L 583.1999999999999,469.79999999999995" style="stroke:#DDDDDD;fill:none;stroke-width:1;stroke-dasharray:2,3.3;stroke-linecap:round;stroke-linejoin:round;" /><path d="M 615.6,-24.299999999999997 L 615.6,469.79999999999995" style="stroke:#DDDDDD;fill:none;stroke-width:1;stroke-dasharray:2,3.3;stroke-linecap:round;stroke-linejoin:round;" /><path d="M 648.0,-24.299999999999997 L 648.0,469.79999999999995" style="stroke:#DDDDDD;fill:none;stroke-width:1;stroke-dasharray:2,3.3;stroke-linecap:round;stroke-linejoin:round;" /><path d="M 680.4,-24.299999999999997 L 680.4,469.79999999999995" style="stroke:#DDDDDD;fill:none;stroke-width:1;stroke-dasharray:2,3.3;stroke-linecap:round;stroke-linejoin:round;" /><path d="M 712.8,-24.299999999999997 L 712.8,469.79999999999995" style="stroke:#DDDDDD;fill:none;stroke-width:1;stroke-dasharray:2,3.3;stroke-linecap:round;stroke-linejoin:round;" /><defs><clipPath id="clip0"><rect x="-1.0" y="-18.82" width="714.8" height="505.82" /></clipPath></defs><path d="M 0.0,32.4 L 97.19999999999999,32.4" style="stroke:black;fill:none;stroke-width:1;stroke-linecap:round;stroke-linejoin:round;" clip-path="url(#clip0)" /><path d="M 97.19999999999999,32.4 L 102.05999999999999,16.2 L 712.8,16.2" style="stroke:black;fill:none;stroke-width:1;stroke-linecap:round;stroke-linejoin:round;" clip-path="url(#clip0)" /><path d="M 0.0,48.599999999999994 L 97.19999999999999,48.599999999999994" style="stroke:black;fill:none;stroke-width:1;stroke-linecap:round;stroke-linejoin:round;" clip-path="url(#clip0)" /><path d="M 97.19999999999999,48.599999999999994 L 102.05999999999999,64.8 L 712.8,64.8" style="stroke:black;fill:none;stroke-width:1;stroke-linecap:round;stroke-linejoin:round;" clip-path="url(#clip0)" /><path d="M 0.0,97.19999999999999 L 388.79999999999995,97.19999999999999" style="stroke:black;fill:none;stroke-width:1;stroke-linecap:round;stroke-linejoin:round;" clip-path="url(#clip0)" /><path d="M 388.79999999999995,97.19999999999999 L 393.65999999999997,81.0 L 712.8,81.0" style="stroke:black;fill:none;stroke-width:1;stroke-linecap:round;stroke-linejoin:round;" clip-path="url(#clip0)" /><path d="M 0.0,162.0 L 162.0,162.0" style="stroke:black;fill:none;stroke-width:1;stroke-linecap:round;stroke-linejoin:round;" clip-path="url(#clip0)" /><path d="M 162.0,162.0 L 166.86,145.79999999999998 L 712.8,145.79999999999998" style="stroke:black;fill:none;stroke-width:1;stroke-linecap:round;stroke-linejoin:round;" clip-path="url(#clip0)" /><path d="M 0.0,178.2 L 453.59999999999997,178.2" style="stroke:black;fill:none;stroke-width:1;stroke-linecap:round;stroke-linejoin:round;" clip-path="url(#clip0)" /><path d="M 453.59999999999997,178.2 L 458.46,194.39999999999998 L 712.8,194.39999999999998" style="stroke:black;fill:none;stroke-width:1;stroke-linecap:round;stroke-linejoin:round;" clip-path="url(#clip0)" /><path d="M 0.0,259.2 L 226.79999999999998,259.2" style="stroke:black;fill:none;stroke-width:1;stroke-linecap:round;stroke-linejoin:round;" clip-path="url(#clip0)" /><path d="M 226.79999999999998,259.2 L 231.66,243.0 L 712.8,243.0" style="stroke:black;fill:none;stroke-width:1;stroke-linecap:round;stroke-linejoin:round;" clip-path="url(#clip0)" /><path d="M 0.0,291.59999999999997 L 162.0,291.59999999999997" style="stroke:black;fill:none;stroke-width:1;stroke-linecap:round;stroke-linejoin:round;" clip-path="url(#clip0)" /><path d="M 162.0,291.59999999999997 L 166.86,275.4 L 712.8,275.4" style="stroke:black;fill:none;stroke-width:1;stroke-linecap:round;stroke-linejoin:round;" clip-path="url(#clip0)" /><path d="M 0.0,340.2 L 226.79999999999998,340.2" style="stroke:black;fill:none;stroke-width:1;stroke-linecap:round;stroke-linejoin:round;" clip-path="url(#clip0)" /><path d="M 226.79999999999998,340.2 L 231.66,356.4 L 712.8,356.4" style="stroke:black;fill:none;stroke-width:1;stroke-linecap:round;stroke-linejoin:round;" clip-path="url(#clip0)" /><path d="M 0.0,388.79999999999995 L 291.59999999999997,388.79999999999995" style="stroke:black;fill:none;stroke-width:1;stroke-linecap:round;stroke-linejoin:round;" clip-path="url(#clip0)" /><path d="M 291.59999999999997,388.79999999999995 L 296.46,372.59999999999997 L 518.4,372.59999999999997" style="stroke:black;fill:none;stroke-width:1;stroke-linecap:round;stroke-linejoin:round;" clip-path="url(#clip0)" /><path d="M 518.4,372.59999999999997 L 523.2599999999999,388.79999999999995 L 712.8,388.79999999999995" style="stroke:black;fill:none;stroke-width:1;stroke-linecap:round;stroke-linejoin:round;" clip-path="url(#clip0)" /><path d="M 0.0,421.2 L 453.59999999999997,421.2" style="stroke:black;fill:none;stroke-width:1;stroke-linecap:round;stroke-linejoin:round;" clip-path="url(#clip0)" /><path d="M 453.59999999999997,421.2 L 458.46,405.0 L 712.8,405.0" style="stroke:black;fill:none;stroke-width:1;stroke-linecap:round;stroke-linejoin:round;" clip-path="url(#clip0)" /><path d="M 0.0,437.4 L 291.59999999999997,437.4" style="stroke:black;fill:none;stroke-width:1;stroke-linecap:round;stroke-linejoin:round;" clip-path="url(#clip0)" /><path d="M 291.59999999999997,437.4 L 296.46,453.59999999999997 L 356.4,453.59999999999997" style="stroke:black;fill:none;stroke-width:1;stroke-linecap:round;stroke-linejoin:round;" clip-path="url(#clip0)" /><path d="M 356.4,453.59999999999997 L 361.26,437.4 L 712.8,437.4" style="stroke:black;fill:none;stroke-width:1;stroke-linecap:round;stroke-linejoin:round;" clip-path="url(#clip0)" /><path d="M 93.798,-8.1 L 158.598,-8.1" style="stroke:blue;fill:none;stroke-width:1;stroke-linecap:round;stroke-linejoin:round;" /><path d="M 93.798,-4.859999999999999 L 93.798,-11.339999999999998" style="stroke:blue;fill:none;stroke-width:1;stroke-linecap:round;stroke-linejoin:round;" /><path d="M 158.598,-4.859999999999999 L 158.598,-11.339999999999998" style="stroke:blue;fill:none;stroke-width:1;stroke-linecap:round;stroke-linejoin:round;" /><text x="-6.48" y="20.999999999999996" fill="blue" font-size="12" font-family="sans" text-anchor="end" transform="rotate(0 -6.48 30.599999999999998)"><tspan x="-6.48" dy="9.600000000000001">A</tspan></text><text x="-6.48" y="53.39999999999999" fill="blue" font-size="12" font-family="sans" text-anchor="end" transform="rotate(0 -6.48 62.99999999999999)"><tspan x="-6.48" dy="9.600000000000001">B</tspan></text><text x="-6.48" y="85.80000000000001" fill="blue" font-size="12" font-family="sans" text-anchor="end" transform="rotate(0 -6.48 95.4)"><tspan x="-6.48" dy="9.600000000000001">C</tspan></text><text x="-6.48" y="150.6" fill="blue" font-size="12" font-family="sans" text-anchor="end" transform="rotate(0 -6.48 160.2)"><tspan x="-6.48" dy="9.600000000000001">T</tspan></text><text x="-6.48" y="183.0" fill="blue" font-size="12" font-family="sans" text-anchor="end" transform="rotate(0 -6.48 192.6)"><tspan x="-6.48" dy="9.600000000000001">U</tspan></text><text x="-6.48" y="247.79999999999998" fill="blue" font-size="12" font-family="sans" text-anchor="end" transform="rotate(0 -6.48 257.4)"><tspan x="-6.48" dy="9.600000000000001">X</tspan></text><text x="-6.48" y="280.2" fill="blue" font-size="12" font-family="sans" text-anchor="end" transform="rotate(0 -6.48 289.8)"><tspan x="-6.48" dy="9.600000000000001">Y</tspan></text><text x="-6.48" y="344.99999999999994" fill="blue" font-size="12" font-family="sans" text-anchor="end" transform="rotate(0 -6.48 354.59999999999997)"><tspan x="-6.48" dy="9.600000000000001">Z1</tspan></text><text x="-6.48" y="377.4" fill="blue" font-size="12" font-family="sans" text-anchor="end" transform="rotate(0 -6.48 387.0)"><tspan x="-6.48" dy="9.600000000000001">Z2</tspan></text><text x="-6.48" y="409.79999999999995" fill="blue" font-size="12" font-family="sans" text-anchor="end" transform="rotate(0 -6.48 419.4)"><tspan x="-6.48" dy="9.600000000000001">Z3</tspan></text><text x="-6.48" y="442.2" fill="blue" font-size="12" font-family="sans" text-anchor="end" transform="rotate(0 -6.48 451.8)"><tspan x="-6.48" dy="9.600000000000001">F</tspan></text><path d="M 103.95,56.699999999999996 L 164.43,56.699999999999996 L 164.43,149.57999999999998" style="stroke:blue;fill:none;stroke-width:1;stroke-linecap:round;stroke-linejoin:round;" /><path d="M 168.75,153.9 L 229.23,153.9 L 229.23,246.77999999999997" style="stroke:blue;fill:none;stroke-width:1;stroke-linecap:round;stroke-linejoin:round;" /><path d="M 233.55,251.1 L 294.03,251.1 L 294.03,376.38" style="stroke:blue;fill:none;stroke-width:1;stroke-linecap:round;stroke-linejoin:round;" /><path d="M 298.34999999999997,380.7 L 358.83,380.7 L 358.83,441.18" style="stroke:blue;fill:none;stroke-width:1;stroke-linecap:round;stroke-linejoin:round;" /><path d="M 99.63,28.619999999999997 L 99.63,283.5 L 160.10999999999999,283.5" style="stroke:blue;fill:none;stroke-width:1;stroke-linecap:round;stroke-linejoin:round;" /><path d="M 164.43,287.82 L 164.43,348.3 L 224.91,348.3" style="stroke:blue;fill:none;stroke-width:1;stroke-linecap:round;stroke-linejoin:round;" /><path d="M 229.23,352.61999999999995 L 229.23,445.5 L 289.71,445.5" style="stroke:blue;fill:none;stroke-width:1;stroke-linecap:round;stroke-linejoin:round;" /><polygon points="158.27399999999997,109.61999999999999 158.27399999999997,100.97999999999999 170.586,100.97999999999999 170.586,109.61999999999999 " style="stroke:none;fill:white;stroke-width:2.0;stroke-linecap:round;stroke-linejoin:round;" /><text x="164.43" y="100.89999999999999" fill="black" font-size="8" font-family="sans" text-anchor="middle" transform="rotate(0 164.43 104.1)"><tspan x="164.43" dy="6.4">T1</tspan></text><polygon points="223.07399999999998,206.82 223.07399999999998,198.17999999999998 235.386,198.17999999999998 235.386,206.82 " style="stroke:none;fill:white;stroke-width:2.0;stroke-linecap:round;stroke-linejoin:round;" /><text x="229.23" y="198.09999999999997" fill="black" font-size="8" font-family="sans" text-anchor="middle" transform="rotate(0 229.23 201.29999999999998)"><tspan x="229.23" dy="6.4">T2</tspan></text><polygon points="287.87399999999997,320.21999999999997 287.87399999999997,311.58 300.1859999999999,311.58 300.1859999999999,320.21999999999997 " style="stroke:none;fill:white;stroke-width:2.0;stroke-linecap:round;stroke-linejoin:round;" /><text x="294.03" y="311.5" fill="black" font-size="8" font-family="sans" text-anchor="middle" transform="rotate(0 294.03 314.7)"><tspan x="294.03" dy="6.4">T3</tspan></text><polygon points="352.674,417.41999999999996 352.674,408.78 364.98599999999993,408.78 364.98599999999993,417.41999999999996 " style="stroke:none;fill:white;stroke-width:2.0;stroke-linecap:round;stroke-linejoin:round;" /><text x="358.83" y="408.7" fill="black" font-size="8" font-family="sans" text-anchor="middle" transform="rotate(0 358.83 411.9)"><tspan x="358.83" dy="6.4">T4</tspan></text><polygon points="93.474,158.22 93.474,149.57999999999998 105.786,149.57999999999998 105.786,158.22 " style="stroke:none;fill:white;stroke-width:2.0;stroke-linecap:round;stroke-linejoin:round;" /><text x="99.63" y="149.49999999999997" fill="black" font-size="8" font-family="sans" text-anchor="middle" transform="rotate(0 99.63 152.7)"><tspan x="99.63" dy="6.4">T5</tspan></text><polygon points="158.27399999999997,320.21999999999997 158.27399999999997,311.58 170.586,311.58 170.586,320.21999999999997 " style="stroke:none;fill:white;stroke-width:2.0;stroke-linecap:round;stroke-linejoin:round;" /><text x="164.43" y="311.5" fill="black" font-size="8" font-family="sans" text-anchor="middle" transform="rotate(0 164.43 314.7)"><tspan x="164.43" dy="6.4">T6</tspan></text><polygon points="223.07399999999998,401.21999999999997 223.07399999999998,392.58 235.386,392.58 235.386,401.21999999999997 " style="stroke:none;fill:white;stroke-width:2.0;stroke-linecap:round;stroke-linejoin:round;" /><text x="229.23" y="392.5" fill="black" font-size="8" font-family="sans" text-anchor="middle" transform="rotate(0 229.23 395.7)"><tspan x="229.23" dy="6.4">T7</tspan></text><polygon points="114.21000000000001,-3.78 114.21000000000001,-12.419999999999998 138.186,-12.419999999999998 138.186,-3.78 " style="stroke:none;fill:white;stroke-width:2.0;stroke-linecap:round;stroke-linejoin:round;" /><text x="126.19800000000001" y="-12.5" fill="black" font-size="8" font-family="sans" text-anchor="middle" transform="rotate(0 126.19800000000001 -9.299999999999999)"><tspan x="126.19800000000001" dy="6.4">10ns</tspan></text></svg>