<?xml version="1.0" encoding="UTF-8" standalone="no"?>
<!-- Created with Digital by H.Neemann -->
<!-- created: Tue Oct 10 09:37:31 EDT 2023 -->

<svg
   xmlns:svg="http://www.w3.org/2000/svg"
   xmlns="http://www.w3.org/2000/svg"
   width="92.4mm"
   height="111.3mm"
   viewBox="-177 -160 616 742">
<g stroke-linecap="square">
<path d="M -20,-20 L -20,0 L 20,0" stroke="#0000b2" stroke-width="4.0" fill="none"/>
<path d="M 220,260 L 280,260 L 280,240 L 300,240" stroke="#0000b2" stroke-width="4.0" fill="none"/>
<path d="M 360,200 L 380,200" stroke="#0000b2" stroke-width="4.0" fill="none"/>
<path d="M -80,-20 L -80,200 L 20,200" stroke="#0000b2" stroke-width="4.0" fill="none"/>
<path d="M -80,580 L -80,520 L 20,520" stroke="#0000b2" stroke-width="4.0" fill="none"/>
<path d="M 100,460 L 140,460 L 147,460" stroke="#0000b2" stroke-width="4.0" fill="none"/>
<path d="M 220,460 L 380,460" stroke="#0000b2" stroke-width="4.0" fill="none"/>
<path d="M -160,-100 L -160,-80 L -140,-80 L -140,-60" stroke="#0000b2" stroke-width="4.0" fill="none"/>
<path d="M -100,-100 L -100,-80 L -80,-80 L -80,-60" stroke="#0000b2" stroke-width="4.0" fill="none"/>
<path d="M -40,-100 L -40,-80 L -20,-80 L -20,-60" stroke="#0000b2" stroke-width="4.0" fill="none"/>
<path d="M 100,20 L 280,20 L 280,40 L 300,40" stroke="#0000b2" stroke-width="4.0" fill="none"/>
<path d="M -100,580 L -100,280 L 20,280" stroke="#0000b2" stroke-width="4.0" fill="none"/>
<path d="M 100,220 L 120,220 L 120,240 L 140,240 L 144,240" stroke="#0000b2" stroke-width="4.0" fill="none"/>
<path d="M 260,60 L 260,220 L 300,220" stroke="#0000b2" stroke-width="4.0" fill="none"/>
<path d="M 100,540 L 120,540 L 120,480 L 140,480 L 144,480" stroke="#0000b2" stroke-width="4.0" fill="none"/>
<path d="M -100,-80 L -100,160 L 280,160 L 280,200 L 300,200" stroke="#0000b2" stroke-width="4.0" fill="none"/>
<path d="M -160,240 L -160,480 L 20,480" stroke="#0000b2" stroke-width="4.0" fill="none"/>
<path d="M 100,100 L 280,100 L 280,80 L 300,80" stroke="#0000b2" stroke-width="4.0" fill="none"/>
<path d="M 360,40 L 380,40" stroke="#0000b2" stroke-width="4.0" fill="none"/>
<path d="M -140,-20 L -140,40 L 20,40" stroke="#0000b2" stroke-width="4.0" fill="none"/>
<path d="M -20,580 L -20,360 L 20,360" stroke="#0000b2" stroke-width="4.0" fill="none"/>
<path d="M 100,300 L 120,300 L 120,280 L 140,280 L 144,280" stroke="#0000b2" stroke-width="4.0" fill="none"/>
<path d="M -160,-80 L -160,240 L 20,240" stroke="#0000b2" stroke-width="4.0" fill="none"/>
<path d="M -160,580 L -160,560 L 20,560" stroke="#0000b2" stroke-width="4.0" fill="none"/>
<path d="M -140,40 L -140,120 L 20,120 L 24,120" stroke="#0000b2" stroke-width="4.0" fill="none"/>
<path d="M 100,380 L 120,380 L 120,440 L 140,440 L 144,440" stroke="#0000b2" stroke-width="4.0" fill="none"/>
<path d="M 260,-20 L 260,60 L 300,60" stroke="#0000b2" stroke-width="4.0" fill="none"/>
<path d="M -100,160 L -100,280" stroke="#0000b2" stroke-width="4.0" fill="none"/>
<path d="M -20,0 L -20,360" stroke="#0000b2" stroke-width="4.0" fill="none"/>
<path d="M 24,80 L 20,80 L -40,80 L -40,440 L 20,440" stroke="#0000b2" stroke-width="4.0" fill="none"/>
<path d="M -40,440 L -40,580" stroke="#0000b2" stroke-width="4.0" fill="none"/>
<path d="M -40,-80 L -40,80" stroke="#0000b2" stroke-width="4.0" fill="none"/>
<path d="M 20,320 L -140,320 L -140,400 L 20,400" stroke="#0000b2" stroke-width="4.0" fill="none"/>
<path d="M -140,400 L -140,580" stroke="#0000b2" stroke-width="4.0" fill="none"/>
<path d="M -140,120 L -140,320" stroke="#0000b2" stroke-width="4.0" fill="none"/>
<path d="M -160,480 L -160,560" stroke="#0000b2" stroke-width="4.0" fill="none"/>
<path d="M -80,200 L -80,520" stroke="#0000b2" stroke-width="4.0" fill="none"/>
<g>
<circle cx="-20.0" cy="0.0" r="4.0" stroke="#0000b2" stroke-width="4.0" fill="#0000b2" />
<circle cx="-140.0" cy="320.0" r="4.0" stroke="#0000b2" stroke-width="4.0" fill="#0000b2" />
<circle cx="-80.0" cy="200.0" r="4.0" stroke="#0000b2" stroke-width="4.0" fill="#0000b2" />
<circle cx="-80.0" cy="520.0" r="4.0" stroke="#0000b2" stroke-width="4.0" fill="#0000b2" />
<circle cx="-160.0" cy="-80.0" r="4.0" stroke="#0000b2" stroke-width="4.0" fill="#0000b2" />
<circle cx="-100.0" cy="-80.0" r="4.0" stroke="#0000b2" stroke-width="4.0" fill="#0000b2" />
<circle cx="-40.0" cy="-80.0" r="4.0" stroke="#0000b2" stroke-width="4.0" fill="#0000b2" />
<circle cx="-40.0" cy="80.0" r="4.0" stroke="#0000b2" stroke-width="4.0" fill="#0000b2" />
<circle cx="-140.0" cy="400.0" r="4.0" stroke="#0000b2" stroke-width="4.0" fill="#0000b2" />
<circle cx="-100.0" cy="280.0" r="4.0" stroke="#0000b2" stroke-width="4.0" fill="#0000b2" />
<circle cx="-100.0" cy="160.0" r="4.0" stroke="#0000b2" stroke-width="4.0" fill="#0000b2" />
<circle cx="-160.0" cy="480.0" r="4.0" stroke="#0000b2" stroke-width="4.0" fill="#0000b2" />
<circle cx="-140.0" cy="40.0" r="4.0" stroke="#0000b2" stroke-width="4.0" fill="#0000b2" />
<circle cx="-20.0" cy="360.0" r="4.0" stroke="#0000b2" stroke-width="4.0" fill="#0000b2" />
<circle cx="-160.0" cy="240.0" r="4.0" stroke="#0000b2" stroke-width="4.0" fill="#0000b2" />
<circle cx="-160.0" cy="560.0" r="4.0" stroke="#0000b2" stroke-width="4.0" fill="#0000b2" />
<circle cx="-140.0" cy="120.0" r="4.0" stroke="#0000b2" stroke-width="4.0" fill="#0000b2" />
<circle cx="-40.0" cy="440.0" r="4.0" stroke="#0000b2" stroke-width="4.0" fill="#0000b2" />
<circle cx="260.0" cy="60.0" r="4.0" stroke="#0000b2" stroke-width="4.0" fill="#0000b2" />
</g>
<g>
<path d="M 380,40 L 394,48 L 394,32 Z" stroke="#000000" stroke-width="4.0" fill="none"/>
<text text-anchor="start" x="399.0" y="46.75" fill="#808080" style="font-size:18px">Z<tspan style="font-size:80%;baseline-shift:sub;">1</tspan><tspan style="font-size:80%;baseline-shift:super;">n</tspan></text>
<circle cx="380.0" cy="40.0" r="2.0" stroke="#0000b2" stroke-width="4.0" fill="#0000b2" />
</g>
<g>
<path d="M 301,30 L 359,30 L 359,90 L 301,90 Z" stroke="#000000" stroke-width="4.0" fill="none"/>
<text text-anchor="middle" x="330.0" y="22.0" fill="#000000" style="font-size:24px">Z<tspan style="font-size:80%;baseline-shift:sub;">1</tspan><tspan style="font-size:80%;baseline-shift:super;">n</tspan></text>
<text text-anchor="start" x="304.0" y="46.75" fill="#808080" style="font-size:18px">J</text>
<path d="M 301,67 L 308,60 L 301,53" stroke="#000000" stroke-width="2.0" fill="none"/>
<text text-anchor="start" x="311.0" y="66.75" fill="#808080" style="font-size:18px">C</text>
<text text-anchor="start" x="304.0" y="86.75" fill="#808080" style="font-size:18px">K</text>
<text text-anchor="end" x="356.0" y="46.75" fill="#808080" style="font-size:18px">Q</text>
<text text-anchor="end" x="356.0" y="66.75" fill="#808080" style="font-size:18px"><tspan style="text-decoration:overline;">Q</tspan></text>
<text text-anchor="middle" x="330.0" y="107.5" fill="#808080" style="font-size:18px">JK</text>
<circle cx="300.0" cy="40.0" r="2.0" stroke="#0000b2" stroke-width="4.0" fill="#0000b2" />
<circle cx="300.0" cy="60.0" r="2.0" stroke="#0000b2" stroke-width="4.0" fill="#0000b2" />
<circle cx="300.0" cy="80.0" r="2.0" stroke="#0000b2" stroke-width="4.0" fill="#0000b2" />
<circle cx="360.0" cy="40.0" r="2.0" stroke="#b20000" stroke-width="4.0" fill="#b20000" />
<circle cx="360.0" cy="60.0" r="2.0" stroke="#b20000" stroke-width="4.0" fill="#b20000" />
</g>
<g>
<path d="M 70,50 L 21,50 L 21,-10 L 70,-10 C 80,-10 100,0 99,20 C 99,40 80,50 70,50 Z" stroke="#000000" stroke-width="4.0" fill="none"/>
<circle cx="20.0" cy="0.0" r="2.0" stroke="#0000b2" stroke-width="4.0" fill="#0000b2" />
<circle cx="20.0" cy="40.0" r="2.0" stroke="#0000b2" stroke-width="4.0" fill="#0000b2" />
<circle cx="100.0" cy="20.0" r="2.0" stroke="#b20000" stroke-width="4.0" fill="#b20000" />
</g>
<g>
<path d="M 50,130 L 20,130 C 30,114 30,86 20,70 L 40,70 C 70,70 90,80 100,100 C 90,120 70,130 50,130 Z" stroke="#000000" stroke-width="4.0" fill="none"/>
<circle cx="20.0" cy="80.0" r="2.0" stroke="#0000b2" stroke-width="4.0" fill="#0000b2" />
<circle cx="20.0" cy="120.0" r="2.0" stroke="#0000b2" stroke-width="4.0" fill="#0000b2" />
<circle cx="100.0" cy="100.0" r="2.0" stroke="#b20000" stroke-width="4.0" fill="#b20000" />
</g>
<g>
<path d="M 380,200 L 394,208 L 394,192 Z" stroke="#000000" stroke-width="4.0" fill="none"/>
<text text-anchor="start" x="399.0" y="206.75" fill="#808080" style="font-size:18px">Z<tspan style="font-size:80%;baseline-shift:sub;">0</tspan><tspan style="font-size:80%;baseline-shift:super;">n</tspan></text>
<circle cx="380.0" cy="200.0" r="2.0" stroke="#0000b2" stroke-width="4.0" fill="#0000b2" />
</g>
<g>
<path d="M 301,190 L 359,190 L 359,250 L 301,250 Z" stroke="#000000" stroke-width="4.0" fill="none"/>
<text text-anchor="middle" x="330.0" y="182.0" fill="#000000" style="font-size:24px">Z<tspan style="font-size:80%;baseline-shift:sub;">0</tspan><tspan style="font-size:80%;baseline-shift:super;">n</tspan></text>
<text text-anchor="start" x="304.0" y="206.75" fill="#808080" style="font-size:18px">J</text>
<path d="M 301,227 L 308,220 L 301,213" stroke="#000000" stroke-width="2.0" fill="none"/>
<text text-anchor="start" x="311.0" y="226.75" fill="#808080" style="font-size:18px">C</text>
<text text-anchor="start" x="304.0" y="246.75" fill="#808080" style="font-size:18px">K</text>
<text text-anchor="end" x="356.0" y="206.75" fill="#808080" style="font-size:18px">Q</text>
<text text-anchor="end" x="356.0" y="226.75" fill="#808080" style="font-size:18px"><tspan style="text-decoration:overline;">Q</tspan></text>
<text text-anchor="middle" x="330.0" y="267.5" fill="#808080" style="font-size:18px">JK</text>
<circle cx="300.0" cy="200.0" r="2.0" stroke="#0000b2" stroke-width="4.0" fill="#0000b2" />
<circle cx="300.0" cy="220.0" r="2.0" stroke="#0000b2" stroke-width="4.0" fill="#0000b2" />
<circle cx="300.0" cy="240.0" r="2.0" stroke="#0000b2" stroke-width="4.0" fill="#0000b2" />
<circle cx="360.0" cy="200.0" r="2.0" stroke="#b20000" stroke-width="4.0" fill="#b20000" />
<circle cx="360.0" cy="220.0" r="2.0" stroke="#b20000" stroke-width="4.0" fill="#b20000" />
</g>
<g>
<path d="M 170,290 L 140,290 C 150,274 150,246 140,230 L 160,230 C 190,230 210,240 220,260 C 210,280 190,290 170,290 Z" stroke="#000000" stroke-width="4.0" fill="none"/>
<circle cx="140.0" cy="240.0" r="2.0" stroke="#0000b2" stroke-width="4.0" fill="#0000b2" />
<circle cx="140.0" cy="280.0" r="2.0" stroke="#0000b2" stroke-width="4.0" fill="#0000b2" />
<circle cx="220.0" cy="260.0" r="2.0" stroke="#b20000" stroke-width="4.0" fill="#b20000" />
</g>
<g>
<path d="M 70,250 L 21,250 L 21,190 L 70,190 C 80,190 100,200 99,220 C 99,240 80,250 70,250 Z" stroke="#000000" stroke-width="4.0" fill="none"/>
<circle cx="20.0" cy="200.0" r="2.0" stroke="#0000b2" stroke-width="4.0" fill="#0000b2" />
<circle cx="20.0" cy="240.0" r="2.0" stroke="#0000b2" stroke-width="4.0" fill="#0000b2" />
<circle cx="100.0" cy="220.0" r="2.0" stroke="#b20000" stroke-width="4.0" fill="#b20000" />
</g>
<g>
<path d="M 70,330 L 21,330 L 21,270 L 70,270 C 80,270 100,280 99,300 C 99,320 80,330 70,330 Z" stroke="#000000" stroke-width="4.0" fill="none"/>
<circle cx="20.0" cy="280.0" r="2.0" stroke="#0000b2" stroke-width="4.0" fill="#0000b2" />
<circle cx="20.0" cy="320.0" r="2.0" stroke="#0000b2" stroke-width="4.0" fill="#0000b2" />
<circle cx="100.0" cy="300.0" r="2.0" stroke="#b20000" stroke-width="4.0" fill="#b20000" />
</g>
<g>
<circle cx="396.0" cy="460.0" r="9.0" stroke="#000000" stroke-width="4.0" fill="none" />
<circle cx="396.0" cy="460.0" r="15.0" stroke="#000000" stroke-width="4.0" fill="none" />
<text text-anchor="start" x="425.0" y="469.0" fill="#000000" style="font-size:24px"><tspan style="font-style:italic;">s</tspan></text>
<circle cx="380.0" cy="460.0" r="2.0" stroke="#0000b2" stroke-width="4.0" fill="#0000b2" />
</g>
<g>
<path d="M 170,490 L 140,490 C 150,474 150,446 140,430 L 160,430 C 190,430 210,440 220,460 C 210,480 190,490 170,490 Z" stroke="#000000" stroke-width="4.0" fill="none"/>
<circle cx="140.0" cy="440.0" r="2.0" stroke="#0000b2" stroke-width="4.0" fill="#0000b2" />
<circle cx="140.0" cy="460.0" r="2.0" stroke="#0000b2" stroke-width="4.0" fill="#0000b2" />
<circle cx="140.0" cy="480.0" r="2.0" stroke="#0000b2" stroke-width="4.0" fill="#0000b2" />
<circle cx="220.0" cy="460.0" r="2.0" stroke="#b20000" stroke-width="4.0" fill="#b20000" />
</g>
<g>
<path d="M 70,410 L 21,410 L 21,350 L 70,350 C 80,350 100,360 99,380 C 99,400 80,410 70,410 Z" stroke="#000000" stroke-width="4.0" fill="none"/>
<circle cx="20.0" cy="360.0" r="2.0" stroke="#0000b2" stroke-width="4.0" fill="#0000b2" />
<circle cx="20.0" cy="400.0" r="2.0" stroke="#0000b2" stroke-width="4.0" fill="#0000b2" />
<circle cx="100.0" cy="380.0" r="2.0" stroke="#b20000" stroke-width="4.0" fill="#b20000" />
</g>
<g>
<path d="M 70,490 L 21,490 L 21,430 L 70,430 C 80,430 100,440 99,460 C 99,480 80,490 70,490 Z" stroke="#000000" stroke-width="4.0" fill="none"/>
<circle cx="20.0" cy="440.0" r="2.0" stroke="#0000b2" stroke-width="4.0" fill="#0000b2" />
<circle cx="20.0" cy="480.0" r="2.0" stroke="#0000b2" stroke-width="4.0" fill="#0000b2" />
<circle cx="100.0" cy="460.0" r="2.0" stroke="#b20000" stroke-width="4.0" fill="#b20000" />
</g>
<g>
<path d="M 70,570 L 21,570 L 21,510 L 70,510 C 80,510 100,520 99,540 C 99,560 80,570 70,570 Z" stroke="#000000" stroke-width="4.0" fill="none"/>
<circle cx="20.0" cy="520.0" r="2.0" stroke="#0000b2" stroke-width="4.0" fill="#0000b2" />
<circle cx="20.0" cy="560.0" r="2.0" stroke="#0000b2" stroke-width="4.0" fill="#0000b2" />
<circle cx="100.0" cy="540.0" r="2.0" stroke="#b20000" stroke-width="4.0" fill="#b20000" />
</g>
<g>
<path d="M -145,-131 L -145,-101 L -175,-101 L -175,-131 Z" stroke="#000000" stroke-width="4.0" fill="none"/>
<circle cx="-160.0" cy="-116.0" r="9.0" stroke="#000000" stroke-width="4.0" fill="none" />
<text text-anchor="start" x="-160.0" y="-136.0" fill="#000000" style="font-size:24px" transform="rotate(-90,-160.0,-145.0)" ><tspan style="font-style:italic;">a</tspan></text>
<circle cx="-160.0" cy="-100.0" r="2.0" stroke="#b20000" stroke-width="4.0" fill="#b20000" />
</g>
<g>
<path d="M -128,-59 L -140,-41 L -152,-59 Z" stroke="#000000" stroke-width="4.0" fill="none"/>
<circle cx="-140.0" cy="-30.0" r="9.0" stroke="#000000" stroke-width="4.0" fill="none" />
<circle cx="-140.0" cy="-60.0" r="2.0" stroke="#0000b2" stroke-width="4.0" fill="#0000b2" />
<circle cx="-140.0" cy="-20.0" r="2.0" stroke="#b20000" stroke-width="4.0" fill="#b20000" />
</g>
<g>
<path d="M -100,-100 L -92,-114 L -108,-114 Z" stroke="#000000" stroke-width="4.0" fill="none"/>
<text text-anchor="start" x="-100.0" y="-112.25" fill="#808080" style="font-size:18px" transform="rotate(-90,-100.0,-119.0)" >Z<tspan style="font-size:80%;baseline-shift:sub;">1</tspan><tspan style="font-size:80%;baseline-shift:super;">n</tspan></text>
<circle cx="-100.0" cy="-100.0" r="2.0" stroke="#0000b2" stroke-width="4.0" fill="#0000b2" />
</g>
<g>
<path d="M -68,-59 L -80,-41 L -92,-59 Z" stroke="#000000" stroke-width="4.0" fill="none"/>
<circle cx="-80.0" cy="-30.0" r="9.0" stroke="#000000" stroke-width="4.0" fill="none" />
<circle cx="-80.0" cy="-60.0" r="2.0" stroke="#0000b2" stroke-width="4.0" fill="#0000b2" />
<circle cx="-80.0" cy="-20.0" r="2.0" stroke="#b20000" stroke-width="4.0" fill="#b20000" />
</g>
<g>
<path d="M -40,-100 L -32,-114 L -48,-114 Z" stroke="#000000" stroke-width="4.0" fill="none"/>
<text text-anchor="start" x="-40.0" y="-112.25" fill="#808080" style="font-size:18px" transform="rotate(-90,-40.0,-119.0)" >Z<tspan style="font-size:80%;baseline-shift:sub;">0</tspan><tspan style="font-size:80%;baseline-shift:super;">n</tspan></text>
<circle cx="-40.0" cy="-100.0" r="2.0" stroke="#0000b2" stroke-width="4.0" fill="#0000b2" />
</g>
<g>
<path d="M -8,-59 L -20,-41 L -32,-59 Z" stroke="#000000" stroke-width="4.0" fill="none"/>
<circle cx="-20.0" cy="-30.0" r="9.0" stroke="#000000" stroke-width="4.0" fill="none" />
<circle cx="-20.0" cy="-60.0" r="2.0" stroke="#0000b2" stroke-width="4.0" fill="#0000b2" />
<circle cx="-20.0" cy="-20.0" r="2.0" stroke="#b20000" stroke-width="4.0" fill="#b20000" />
</g>
<g>
<path d="M 275,-51 L 275,-21 L 245,-21 L 245,-51 Z" stroke="#000000" stroke-width="4.0" fill="none"/>
<text text-anchor="start" x="260.0" y="-56.0" fill="#000000" style="font-size:24px" transform="rotate(-90,260.0,-65.0)" ><tspan style="font-style:italic;">C</tspan></text>
<path d="M 255,-45 L 255,-40 L 265,-40 L 265,-35 L 255,-35 L 255,-30 L 265,-30 L 265,-25" stroke="#000000" stroke-width="2.0" fill="none"/>
<circle cx="260.0" cy="-20.0" r="2.0" stroke="#b20000" stroke-width="4.0" fill="#b20000" />
</g>
</g>
</svg>