<svg xmlns="http://www.w3.org/2000/svg" xml:lang="en" height="148.18pt" width="490.45359999999994pt" viewBox="-31.613599999999998 -29.54 490.45359999999994 148.18"><path d="M 0.0,-24.299999999999997 L 0.0,113.39999999999999" style="stroke:#DDDDDD;fill:none;stroke-width:1;stroke-dasharray:2,3.3;stroke-linecap:round;stroke-linejoin:round;" /><path d="M 32.4,-24.299999999999997 L 32.4,113.39999999999999" style="stroke:#DDDDDD;fill:none;stroke-width:1;stroke-dasharray:2,3.3;stroke-linecap:round;stroke-linejoin:round;" /><path d="M 64.8,-24.299999999999997 L 64.8,113.39999999999999" style="stroke:#DDDDDD;fill:none;stroke-width:1;stroke-dasharray:2,3.3;stroke-linecap:round;stroke-linejoin:round;" /><path d="M 97.19999999999999,-24.299999999999997 L 97.19999999999999,113.39999999999999" style="stroke:#DDDDDD;fill:none;stroke-width:1;stroke-dasharray:2,3.3;stroke-linecap:round;stroke-linejoin:round;" /><path d="M 129.6,-24.299999999999997 L 129.6,113.39999999999999" style="stroke:#DDDDDD;fill:none;stroke-width:1;stroke-dasharray:2,3.3;stroke-linecap:round;stroke-linejoin:round;" /><path d="M 162.0,-24.299999999999997 L 162.0,113.39999999999999" style="stroke:#DDDDDD;fill:none;stroke-width:1;stroke-dasharray:2,3.3;stroke-linecap:round;stroke-linejoin:round;" /><path d="M 194.39999999999998,-24.299999999999997 L 194.39999999999998,113.39999999999999" style="stroke:#DDDDDD;fill:none;stroke-width:1;stroke-dasharray:2,3.3;stroke-linecap:round;stroke-linejoin:round;" /><path d="M 226.79999999999998,-24.299999999999997 L 226.79999999999998,113.39999999999999" style="stroke:#DDDDDD;fill:none;stroke-width:1;stroke-dasharray:2,3.3;stroke-linecap:round;stroke-linejoin:round;" /><path d="M 259.2,-24.299999999999997 L 259.2,113.39999999999999" style="stroke:#DDDDDD;fill:none;stroke-width:1;stroke-dasharray:2,3.3;stroke-linecap:round;stroke-linejoin:round;" /><path d="M 291.59999999999997,-24.299999999999997 L 291.59999999999997,113.39999999999999" style="stroke:#DDDDDD;fill:none;stroke-width:1;stroke-dasharray:2,3.3;stroke-linecap:round;stroke-linejoin:round;" /><path d="M 324.0,-24.299999999999997 L 324.0,113.39999999999999" style="stroke:#DDDDDD;fill:none;stroke-width:1;stroke-dasharray:2,3.3;stroke-linecap:round;stroke-linejoin:round;" /><path d="M 356.4,-24.299999999999997 L 356.4,113.39999999999999" style="stroke:#DDDDDD;fill:none;stroke-width:1;stroke-dasharray:2,3.3;stroke-linecap:round;stroke-linejoin:round;" /><path d="M 388.79999999999995,-24.299999999999997 L 388.79999999999995,113.39999999999999" style="stroke:#DDDDDD;fill:none;stroke-width:1;stroke-dasharray:2,3.3;stroke-linecap:round;stroke-linejoin:round;" /><path d="M 421.2,-24.299999999999997 L 421.2,113.39999999999999" style="stroke:#DDDDDD;fill:none;stroke-width:1;stroke-dasharray:2,3.3;stroke-linecap:round;stroke-linejoin:round;" /><path d="M 453.59999999999997,-24.299999999999997 L 453.59999999999997,113.39999999999999" style="stroke:#DDDDDD;fill:none;stroke-width:1;stroke-dasharray:2,3.3;stroke-linecap:round;stroke-linejoin:round;" /><defs><clipPath id="clip0"><rect x="-1.0" y="-18.82" width="455.59999999999997" height="149.42" /></clipPath></defs><path d="M 0.0,-0.0 L 0.0,-16.2 L 16.2,-16.2 L 16.2,-0.0 L 32.4,-0.0 L 32.4,-16.2 L 48.599999999999994,-16.2 L 48.599999999999994,-0.0 L 64.8,-0.0 L 64.8,-16.2 L 81.0,-16.2 L 81.0,-0.0 L 97.19999999999999,-0.0 L 97.19999999999999,-16.2 L 113.39999999999999,-16.2 L 113.39999999999999,-0.0 L 129.6,-0.0 L 129.6,-16.2 L 145.79999999999998,-16.2 L 145.79999999999998,-0.0 L 162.0,-0.0 L 162.0,-16.2 L 178.2,-16.2 L 178.2,-0.0 L 194.39999999999998,-0.0 L 194.39999999999998,-16.2 L 210.6,-16.2 L 210.6,-0.0 L 226.79999999999998,-0.0 L 226.79999999999998,-16.2 L 243.0,-16.2 L 243.0,-0.0 L 259.2,-0.0 L 259.2,-16.2 L 275.4,-16.2 L 275.4,-0.0 L 291.59999999999997,-0.0 L 291.59999999999997,-16.2 L 307.8,-16.2 L 307.8,-0.0 L 324.0,-0.0 L 324.0,-16.2 L 340.2,-16.2 L 340.2,-0.0 L 356.4,-0.0 L 356.4,-16.2 L 372.59999999999997,-16.2 L 372.59999999999997,-0.0 L 388.79999999999995,-0.0 L 388.79999999999995,-16.2 L 405.0,-16.2 L 405.0,-0.0 L 421.2,-0.0 L 421.2,-16.2 L 437.4,-16.2 L 437.4,-0.0 L 453.59999999999997,-0.0" style="stroke:black;fill:none;stroke-width:1;stroke-linecap:round;stroke-linejoin:round;" clip-path="url(#clip0)" /><path d="M -16.2,32.4 L 48.599999999999994,32.4" style="stroke:black;fill:none;stroke-width:1;stroke-linecap:round;stroke-linejoin:round;" clip-path="url(#clip0)" /><path d="M 48.599999999999994,32.4 L 53.459999999999994,16.2 L 113.39999999999999,16.2" style="stroke:black;fill:none;stroke-width:1;stroke-linecap:round;stroke-linejoin:round;" clip-path="url(#clip0)" /><path d="M 113.39999999999999,16.2 L 118.25999999999999,32.4 L 178.2,32.4" style="stroke:black;fill:none;stroke-width:1;stroke-linecap:round;stroke-linejoin:round;" clip-path="url(#clip0)" /><path d="M 178.2,32.4 L 183.06,16.2 L 243.0,16.2" style="stroke:black;fill:none;stroke-width:1;stroke-linecap:round;stroke-linejoin:round;" clip-path="url(#clip0)" /><path d="M 243.0,16.2 L 247.86,32.4 L 307.8,32.4" style="stroke:black;fill:none;stroke-width:1;stroke-linecap:round;stroke-linejoin:round;" clip-path="url(#clip0)" /><path d="M 307.8,32.4 L 312.66,16.2 L 372.59999999999997,16.2" style="stroke:black;fill:none;stroke-width:1;stroke-linecap:round;stroke-linejoin:round;" clip-path="url(#clip0)" /><path d="M 372.59999999999997,16.2 L 377.46,32.4 L 437.4,32.4" style="stroke:black;fill:none;stroke-width:1;stroke-linecap:round;stroke-linejoin:round;" clip-path="url(#clip0)" /><path d="M -16.2,64.8 L 113.39999999999999,64.8" style="stroke:black;fill:none;stroke-width:1;stroke-linecap:round;stroke-linejoin:round;" clip-path="url(#clip0)" /><path d="M 113.39999999999999,64.8 L 118.25999999999999,48.599999999999994 L 243.0,48.599999999999994" style="stroke:black;fill:none;stroke-width:1;stroke-linecap:round;stroke-linejoin:round;" clip-path="url(#clip0)" /><path d="M 243.0,48.599999999999994 L 247.86,64.8 L 372.59999999999997,64.8" style="stroke:black;fill:none;stroke-width:1;stroke-linecap:round;stroke-linejoin:round;" clip-path="url(#clip0)" /><path d="M 372.59999999999997,64.8 L 377.46,48.599999999999994 L 437.4,48.599999999999994" style="stroke:black;fill:none;stroke-width:1;stroke-linecap:round;stroke-linejoin:round;" clip-path="url(#clip0)" /><path d="M 0.0,97.19999999999999 L 64.8,97.19999999999999" style="stroke:black;fill:none;stroke-width:1;stroke-linecap:round;stroke-linejoin:round;" clip-path="url(#clip0)" /><path d="M 64.8,97.19999999999999 L 69.66,81.0 L 129.6,81.0" style="stroke:black;fill:none;stroke-width:1;stroke-linecap:round;stroke-linejoin:round;" clip-path="url(#clip0)" /><path d="M 129.6,81.0 L 134.46,97.19999999999999 L 194.39999999999998,97.19999999999999" style="stroke:black;fill:none;stroke-width:1;stroke-linecap:round;stroke-linejoin:round;" clip-path="url(#clip0)" /><path d="M 194.39999999999998,97.19999999999999 L 199.26,81.0 L 388.79999999999995,81.0" style="stroke:black;fill:none;stroke-width:1;stroke-linecap:round;stroke-linejoin:round;" clip-path="url(#clip0)" /><path d="M 388.79999999999995,81.0 L 393.65999999999997,97.19999999999999 L 453.59999999999997,97.19999999999999" style="stroke:black;fill:none;stroke-width:1;stroke-linecap:round;stroke-linejoin:round;" clip-path="url(#clip0)" /><text x="-6.48" y="-11.400000000000002" fill="blue" font-size="12" font-family="sans" text-anchor="end" transform="rotate(0 -6.48 -1.7999999999999998)"><tspan x="-6.48" dy="9.600000000000001">clk</tspan></text><text x="-6.48" y="20.999999999999996" fill="blue" font-size="12" font-family="sans" text-anchor="end" transform="rotate(0 -6.48 30.599999999999998)"><tspan x="-6.48" dy="9.600000000000001">A</tspan></text><text x="-6.48" y="53.39999999999999" fill="blue" font-size="12" font-family="sans" text-anchor="end" transform="rotate(0 -6.48 62.99999999999999)"><tspan x="-6.48" dy="9.600000000000001">B</tspan></text><text x="-6.48" y="85.80000000000001" fill="blue" font-size="12" font-family="sans" text-anchor="end" transform="rotate(0 -6.48 95.4)"><tspan x="-6.48" dy="9.600000000000001">Sn</tspan></text></svg>