<?xml version="1.0" encoding="UTF-8" standalone="no"?>
<!-- Created with Digital by H.Neemann -->
<!-- created: Wed Jul 05 10:35:55 EDT 2023 -->

<svg
   xmlns:svg="http://www.w3.org/2000/svg"
   xmlns="http://www.w3.org/2000/svg"
   width="78.75mm"
   height="51.45mm"
   viewBox="295 -37 525 343">
<g stroke-linecap="square">
<path d="M 540,-20 L 550,-20 L 560,-20" stroke="#000000" stroke-width="4.0" fill="none"/>
<path d="M 540,0 L 550,0" stroke="#000000" stroke-width="4.0" fill="none"/>
<path d="M 540,20 L 550,20" stroke="#000000" stroke-width="4.0" fill="none"/>
<path d="M 380,200 L 380,240 L 660,240" stroke="#0000b2" stroke-width="4.0" fill="none"/>
<path d="M 360,-20 L 540,-20" stroke="#0000b2" stroke-width="4.0" fill="none"/>
<path d="M 560,-20 L 680,-20 L 680,140" stroke="#0000b2" stroke-width="4.0" fill="none"/>
<path d="M 340,260 L 640,260 L 660,260" stroke="#0000b2" stroke-width="4.0" fill="none"/>
<path d="M 360,20 L 420,20 L 420,0 L 540,0" stroke="#0000b2" stroke-width="4.0" fill="none"/>
<path d="M 360,200 L 380,200 L 400,200" stroke="#0000b2" stroke-width="4.0" fill="none"/>
<path d="M 440,200 L 620,200 L 620,180 L 660,180" stroke="#0000b2" stroke-width="4.0" fill="none"/>
<path d="M 580,160 L 580,280 L 660,280" stroke="#0000b2" stroke-width="4.0" fill="none"/>
<path d="M 360,60 L 460,60 L 460,20 L 540,20" stroke="#0000b2" stroke-width="4.0" fill="none"/>
<path d="M 700,220 L 760,220" stroke="#0000b2" stroke-width="4.0" fill="none"/>
<path d="M 640,200 L 640,220 L 660,220" stroke="#0000b2" stroke-width="4.0" fill="none"/>
<path d="M 340,140 L 580,140 L 580,160 L 660,160" stroke="#0000b2" stroke-width="4.0" fill="none"/>
<path d="M 660,200 L 640,200 L 640,140 L 660,140" stroke="#0000b2" stroke-width="4.0" fill="none"/>
<path d="M 640,220 L 640,260" stroke="#0000b2" stroke-width="4.0" fill="none"/>
<g>
<circle cx="580.0" cy="160.0" r="4.0" stroke="#0000b2" stroke-width="4.0" fill="#0000b2" />
<circle cx="640.0" cy="260.0" r="4.0" stroke="#0000b2" stroke-width="4.0" fill="#0000b2" />
<circle cx="380.0" cy="200.0" r="4.0" stroke="#0000b2" stroke-width="4.0" fill="#0000b2" />
<circle cx="640.0" cy="200.0" r="4.0" stroke="#0000b2" stroke-width="4.0" fill="#0000b2" />
<circle cx="640.0" cy="220.0" r="4.0" stroke="#0000b2" stroke-width="4.0" fill="#0000b2" />
</g>
<g>
<path d="M 661,136 L 699,145 L 699,295 L 661,304 Z" stroke="#000000" stroke-width="4.0" fill="none"/>
<text text-anchor="start" x="663.0" y="155.5" fill="#808080" style="font-size:18px">0</text>
<circle cx="680.0" cy="140.0" r="2.0" stroke="#0000b2" stroke-width="4.0" fill="#0000b2" />
<circle cx="660.0" cy="140.0" r="2.0" stroke="#0000b2" stroke-width="4.0" fill="#0000b2" />
<circle cx="660.0" cy="160.0" r="2.0" stroke="#0000b2" stroke-width="4.0" fill="#0000b2" />
<circle cx="660.0" cy="180.0" r="2.0" stroke="#0000b2" stroke-width="4.0" fill="#0000b2" />
<circle cx="660.0" cy="200.0" r="2.0" stroke="#0000b2" stroke-width="4.0" fill="#0000b2" />
<circle cx="660.0" cy="220.0" r="2.0" stroke="#0000b2" stroke-width="4.0" fill="#0000b2" />
<circle cx="660.0" cy="240.0" r="2.0" stroke="#0000b2" stroke-width="4.0" fill="#0000b2" />
<circle cx="660.0" cy="260.0" r="2.0" stroke="#0000b2" stroke-width="4.0" fill="#0000b2" />
<circle cx="660.0" cy="280.0" r="2.0" stroke="#0000b2" stroke-width="4.0" fill="#0000b2" />
<circle cx="700.0" cy="220.0" r="2.0" stroke="#b20000" stroke-width="4.0" fill="#b20000" />
</g>
<g>
<circle cx="776.0" cy="220.0" r="9.0" stroke="#000000" stroke-width="4.0" fill="none" />
<circle cx="776.0" cy="220.0" r="15.0" stroke="#000000" stroke-width="4.0" fill="none" />
<text text-anchor="start" x="805.0" y="229.0" fill="#000000" style="font-size:24px"><tspan style="font-style:italic;">F</tspan></text>
<circle cx="760.0" cy="220.0" r="2.0" stroke="#0000b2" stroke-width="4.0" fill="#0000b2" />
</g>
<g>
<path d="M 329,185 L 359,185 L 359,215 L 329,215 Z" stroke="#000000" stroke-width="4.0" fill="none"/>
<circle cx="344.0" cy="200.0" r="9.0" stroke="#000000" stroke-width="4.0" fill="none" />
<text text-anchor="end" x="315.0" y="209.0" fill="#000000" style="font-size:24px"><tspan style="font-style:italic;">A</tspan></text>
<circle cx="360.0" cy="200.0" r="2.0" stroke="#b20000" stroke-width="4.0" fill="#b20000" />
</g>
<g>
<path d="M 329,-35 L 359,-35 L 359,-5 L 329,-5 Z" stroke="#000000" stroke-width="4.0" fill="none"/>
<circle cx="344.0" cy="-20.0" r="9.0" stroke="#000000" stroke-width="4.0" fill="none" />
<text text-anchor="end" x="315.0" y="-11.0" fill="#000000" style="font-size:24px"><tspan style="font-style:italic;">D</tspan></text>
<circle cx="360.0" cy="-20.0" r="2.0" stroke="#b20000" stroke-width="4.0" fill="#b20000" />
</g>
<g>
<path d="M 329,5 L 359,5 L 359,35 L 329,35 Z" stroke="#000000" stroke-width="4.0" fill="none"/>
<circle cx="344.0" cy="20.0" r="9.0" stroke="#000000" stroke-width="4.0" fill="none" />
<text text-anchor="end" x="315.0" y="29.0" fill="#000000" style="font-size:24px"><tspan style="font-style:italic;">C</tspan></text>
<circle cx="360.0" cy="20.0" r="2.0" stroke="#b20000" stroke-width="4.0" fill="#b20000" />
</g>
<g>
<path d="M 329,45 L 359,45 L 359,75 L 329,75 Z" stroke="#000000" stroke-width="4.0" fill="none"/>
<circle cx="344.0" cy="60.0" r="9.0" stroke="#000000" stroke-width="4.0" fill="none" />
<text text-anchor="end" x="315.0" y="69.0" fill="#000000" style="font-size:24px"><tspan style="font-style:italic;">B</tspan></text>
<circle cx="360.0" cy="60.0" r="2.0" stroke="#b20000" stroke-width="4.0" fill="#b20000" />
</g>
<g>
<path d="M 401,188 L 419,200 L 401,212 Z" stroke="#000000" stroke-width="4.0" fill="none"/>
<circle cx="430.0" cy="200.0" r="9.0" stroke="#000000" stroke-width="4.0" fill="none" />
<circle cx="400.0" cy="200.0" r="2.0" stroke="#0000b2" stroke-width="4.0" fill="#0000b2" />
<circle cx="440.0" cy="200.0" r="2.0" stroke="#b20000" stroke-width="4.0" fill="#b20000" />
</g>
<g>
<text text-anchor="end" x="337.0" y="149.0" fill="#000000" style="font-size:24px">1</text>
<circle cx="340.0" cy="140.0" r="2.0" stroke="#b20000" stroke-width="4.0" fill="#b20000" />
</g>
<g>
<text text-anchor="end" x="337.0" y="269.0" fill="#000000" style="font-size:24px">0</text>
<circle cx="340.0" cy="260.0" r="2.0" stroke="#b20000" stroke-width="4.0" fill="#b20000" />
</g>
<g>
<text text-anchor="end" x="538.0" y="-23.0" fill="#808080" style="font-size:12px">0</text>
<text text-anchor="end" x="538.0" y="-3.0" fill="#808080" style="font-size:12px">1</text>
<text text-anchor="end" x="538.0" y="17.0" fill="#808080" style="font-size:12px">2</text>
<text text-anchor="start" x="562.0" y="-23.0" fill="#808080" style="font-size:12px">0-2</text>
<path d="M 548,-22 L 552,-22 L 552,22 L 548,22 Z" stroke="#000000" stroke-width="4.0" fill="#000000" fill-opacity="1.0"/>
<circle cx="540.0" cy="-20.0" r="2.0" stroke="#0000b2" stroke-width="4.0" fill="#0000b2" />
<circle cx="540.0" cy="0.0" r="2.0" stroke="#0000b2" stroke-width="4.0" fill="#0000b2" />
<circle cx="540.0" cy="20.0" r="2.0" stroke="#0000b2" stroke-width="4.0" fill="#0000b2" />
<circle cx="560.0" cy="-20.0" r="2.0" stroke="#b20000" stroke-width="4.0" fill="#b20000" />
</g>
</g>
</svg>