<?xml version="1.0" encoding="UTF-8" standalone="no"?>
<!-- Created with Digital by H.Neemann -->
<!-- created: Sun Aug 20 07:40:15 EDT 2023 -->

<svg
   xmlns:svg="http://www.w3.org/2000/svg"
   xmlns="http://www.w3.org/2000/svg"
   width="126.6mm"
   height="71.85mm"
   viewBox="338 158 844 479">
<g stroke-linecap="square">
<path d="M 400,320 L 460,320 L 500,320" stroke="#0000b2" stroke-width="4.0" fill="none"/>
<path d="M 540,320 L 560,320 L 640,320" stroke="#0000b2" stroke-width="4.0" fill="none"/>
<path d="M 560,320 L 560,480 L 640,480" stroke="#0000b2" stroke-width="4.0" fill="none"/>
<path d="M 600,200 L 600,580 L 640,580" stroke="#0000b2" stroke-width="4.0" fill="none"/>
<path d="M 400,360 L 640,360" stroke="#0000b2" stroke-width="4.0" fill="none"/>
<path d="M 720,460 L 740,460 L 740,480 L 760,480 L 764,480" stroke="#0000b2" stroke-width="4.0" fill="none"/>
<path d="M 400,620 L 900,620 L 900,520" stroke="#0000b2" stroke-width="4.0" fill="none"/>
<path d="M 720,560 L 740,560 L 740,520 L 760,520 L 764,520" stroke="#0000b2" stroke-width="4.0" fill="none"/>
<path d="M 840,500 L 940,500" stroke="#0000b2" stroke-width="4.0" fill="none"/>
<path d="M 1000,500 L 1040,500 L 1120,500" stroke="#0000b2" stroke-width="4.0" fill="none"/>
<path d="M 720,340 L 740,340 L 740,300 L 760,300 L 764,300" stroke="#0000b2" stroke-width="4.0" fill="none"/>
<path d="M 1000,280 L 1020,280 L 1020,160 L 600,160 L 600,200 L 640,200" stroke="#0000b2" stroke-width="4.0" fill="none"/>
<path d="M 840,280 L 940,280" stroke="#0000b2" stroke-width="4.0" fill="none"/>
<path d="M 720,220 L 740,220 L 740,260 L 760,260 L 764,260" stroke="#0000b2" stroke-width="4.0" fill="none"/>
<path d="M 940,520 L 900,520 L 900,300 L 940,300" stroke="#0000b2" stroke-width="4.0" fill="none"/>
<path d="M 1040,500 L 1040,400 L 620,400 L 620,440 L 640,440" stroke="#0000b2" stroke-width="4.0" fill="none"/>
<path d="M 640,240 L 460,240 L 460,320 L 460,540 L 640,540" stroke="#0000b2" stroke-width="4.0" fill="none"/>
<g>
<circle cx="460.0" cy="320.0" r="4.0" stroke="#0000b2" stroke-width="4.0" fill="#0000b2" />
<circle cx="560.0" cy="320.0" r="4.0" stroke="#0000b2" stroke-width="4.0" fill="#0000b2" />
<circle cx="900.0" cy="520.0" r="4.0" stroke="#0000b2" stroke-width="4.0" fill="#0000b2" />
<circle cx="600.0" cy="200.0" r="4.0" stroke="#0000b2" stroke-width="4.0" fill="#0000b2" />
<circle cx="1040.0" cy="500.0" r="4.0" stroke="#0000b2" stroke-width="4.0" fill="#0000b2" />
</g>
<g>
<path d="M 941,270 L 999,270 L 999,310 L 941,310 Z" stroke="#000000" stroke-width="4.0" fill="none"/>
<text text-anchor="middle" x="970.0" y="262.0" fill="#000000" style="font-size:24px">A</text>
<text text-anchor="start" x="944.0" y="286.75" fill="#808080" style="font-size:18px">D</text>
<path d="M 941,307 L 948,300 L 941,293" stroke="#000000" stroke-width="2.0" fill="none"/>
<text text-anchor="start" x="951.0" y="306.75" fill="#808080" style="font-size:18px">C</text>
<text text-anchor="end" x="996.0" y="286.75" fill="#808080" style="font-size:18px">Q</text>
<text text-anchor="end" x="996.0" y="306.75" fill="#808080" style="font-size:18px"><tspan style="text-decoration:overline;">Q</tspan></text>
<text text-anchor="middle" x="970.0" y="327.5" fill="#808080" style="font-size:18px">D</text>
<circle cx="940.0" cy="280.0" r="2.0" stroke="#0000b2" stroke-width="4.0" fill="#0000b2" />
<circle cx="940.0" cy="300.0" r="2.0" stroke="#0000b2" stroke-width="4.0" fill="#0000b2" />
<circle cx="1000.0" cy="280.0" r="2.0" stroke="#b20000" stroke-width="4.0" fill="#b20000" />
<circle cx="1000.0" cy="300.0" r="2.0" stroke="#b20000" stroke-width="4.0" fill="#b20000" />
</g>
<g>
<path d="M 941,490 L 999,490 L 999,530 L 941,530 Z" stroke="#000000" stroke-width="4.0" fill="none"/>
<text text-anchor="middle" x="970.0" y="482.0" fill="#000000" style="font-size:24px">B</text>
<text text-anchor="start" x="944.0" y="506.75" fill="#808080" style="font-size:18px">D</text>
<path d="M 941,527 L 948,520 L 941,513" stroke="#000000" stroke-width="2.0" fill="none"/>
<text text-anchor="start" x="951.0" y="526.75" fill="#808080" style="font-size:18px">C</text>
<text text-anchor="end" x="996.0" y="506.75" fill="#808080" style="font-size:18px">Q</text>
<text text-anchor="end" x="996.0" y="526.75" fill="#808080" style="font-size:18px"><tspan style="text-decoration:overline;">Q</tspan></text>
<text text-anchor="middle" x="970.0" y="547.5" fill="#808080" style="font-size:18px">D</text>
<circle cx="940.0" cy="500.0" r="2.0" stroke="#0000b2" stroke-width="4.0" fill="#0000b2" />
<circle cx="940.0" cy="520.0" r="2.0" stroke="#0000b2" stroke-width="4.0" fill="#0000b2" />
<circle cx="1000.0" cy="500.0" r="2.0" stroke="#b20000" stroke-width="4.0" fill="#b20000" />
<circle cx="1000.0" cy="520.0" r="2.0" stroke="#b20000" stroke-width="4.0" fill="#b20000" />
</g>
<g>
<circle cx="1136.0" cy="500.0" r="9.0" stroke="#000000" stroke-width="4.0" fill="none" />
<circle cx="1136.0" cy="500.0" r="15.0" stroke="#000000" stroke-width="4.0" fill="none" />
<text text-anchor="start" x="1165.0" y="509.0" fill="#000000" style="font-size:24px"><tspan style="font-style:italic;">Z</tspan></text>
<circle cx="1120.0" cy="500.0" r="2.0" stroke="#0000b2" stroke-width="4.0" fill="#0000b2" />
</g>
<g>
<path d="M 369,305 L 399,305 L 399,335 L 369,335 Z" stroke="#000000" stroke-width="4.0" fill="none"/>
<circle cx="384.0" cy="320.0" r="9.0" stroke="#000000" stroke-width="4.0" fill="none" />
<text text-anchor="end" x="355.0" y="329.0" fill="#000000" style="font-size:24px"><tspan style="font-style:italic;">X</tspan></text>
<circle cx="400.0" cy="320.0" r="2.0" stroke="#b20000" stroke-width="4.0" fill="#b20000" />
</g>
<g>
<path d="M 369,345 L 399,345 L 399,375 L 369,375 Z" stroke="#000000" stroke-width="4.0" fill="none"/>
<circle cx="384.0" cy="360.0" r="9.0" stroke="#000000" stroke-width="4.0" fill="none" />
<text text-anchor="end" x="355.0" y="369.0" fill="#000000" style="font-size:24px"><tspan style="font-style:italic;">Y</tspan></text>
<circle cx="400.0" cy="360.0" r="2.0" stroke="#b20000" stroke-width="4.0" fill="#b20000" />
</g>
<g>
<path d="M 501,308 L 519,320 L 501,332 Z" stroke="#000000" stroke-width="4.0" fill="none"/>
<circle cx="530.0" cy="320.0" r="9.0" stroke="#000000" stroke-width="4.0" fill="none" />
<circle cx="500.0" cy="320.0" r="2.0" stroke="#0000b2" stroke-width="4.0" fill="#0000b2" />
<circle cx="540.0" cy="320.0" r="2.0" stroke="#b20000" stroke-width="4.0" fill="#b20000" />
</g>
<g>
<path d="M 690,370 L 641,370 L 641,310 L 690,310 C 700,310 720,320 719,340 C 719,360 700,370 690,370 Z" stroke="#000000" stroke-width="4.0" fill="none"/>
<circle cx="640.0" cy="320.0" r="2.0" stroke="#0000b2" stroke-width="4.0" fill="#0000b2" />
<circle cx="640.0" cy="360.0" r="2.0" stroke="#0000b2" stroke-width="4.0" fill="#0000b2" />
<circle cx="720.0" cy="340.0" r="2.0" stroke="#b20000" stroke-width="4.0" fill="#b20000" />
</g>
<g>
<path d="M 690,250 L 641,250 L 641,190 L 690,190 C 700,190 720,200 719,220 C 719,240 700,250 690,250 Z" stroke="#000000" stroke-width="4.0" fill="none"/>
<circle cx="640.0" cy="200.0" r="2.0" stroke="#0000b2" stroke-width="4.0" fill="#0000b2" />
<circle cx="640.0" cy="240.0" r="2.0" stroke="#0000b2" stroke-width="4.0" fill="#0000b2" />
<circle cx="720.0" cy="220.0" r="2.0" stroke="#b20000" stroke-width="4.0" fill="#b20000" />
</g>
<g>
<path d="M 790,310 L 760,310 C 770,294 770,266 760,250 L 780,250 C 810,250 830,260 840,280 C 830,300 810,310 790,310 Z" stroke="#000000" stroke-width="4.0" fill="none"/>
<circle cx="760.0" cy="260.0" r="2.0" stroke="#0000b2" stroke-width="4.0" fill="#0000b2" />
<circle cx="760.0" cy="300.0" r="2.0" stroke="#0000b2" stroke-width="4.0" fill="#0000b2" />
<circle cx="840.0" cy="280.0" r="2.0" stroke="#b20000" stroke-width="4.0" fill="#b20000" />
</g>
<g>
<path d="M 690,490 L 641,490 L 641,430 L 690,430 C 700,430 720,440 719,460 C 719,480 700,490 690,490 Z" stroke="#000000" stroke-width="4.0" fill="none"/>
<circle cx="640.0" cy="440.0" r="2.0" stroke="#0000b2" stroke-width="4.0" fill="#0000b2" />
<circle cx="640.0" cy="480.0" r="2.0" stroke="#0000b2" stroke-width="4.0" fill="#0000b2" />
<circle cx="720.0" cy="460.0" r="2.0" stroke="#b20000" stroke-width="4.0" fill="#b20000" />
</g>
<g>
<path d="M 690,590 L 641,590 L 641,530 L 690,530 C 700,530 720,540 719,560 C 719,580 700,590 690,590 Z" stroke="#000000" stroke-width="4.0" fill="none"/>
<circle cx="640.0" cy="540.0" r="2.0" stroke="#0000b2" stroke-width="4.0" fill="#0000b2" />
<circle cx="640.0" cy="580.0" r="2.0" stroke="#0000b2" stroke-width="4.0" fill="#0000b2" />
<circle cx="720.0" cy="560.0" r="2.0" stroke="#b20000" stroke-width="4.0" fill="#b20000" />
</g>
<g>
<path d="M 790,530 L 760,530 C 770,514 770,486 760,470 L 780,470 C 810,470 830,480 840,500 C 830,520 810,530 790,530 Z" stroke="#000000" stroke-width="4.0" fill="none"/>
<circle cx="760.0" cy="480.0" r="2.0" stroke="#0000b2" stroke-width="4.0" fill="#0000b2" />
<circle cx="760.0" cy="520.0" r="2.0" stroke="#0000b2" stroke-width="4.0" fill="#0000b2" />
<circle cx="840.0" cy="500.0" r="2.0" stroke="#b20000" stroke-width="4.0" fill="#b20000" />
</g>
<g>
<path d="M 369,605 L 399,605 L 399,635 L 369,635 Z" stroke="#000000" stroke-width="4.0" fill="none"/>
<path d="M 375,625 L 380,625 L 380,615 L 385,615 L 385,625 L 390,625 L 390,615 L 395,615" stroke="#000000" stroke-width="2.0" fill="none"/>
<circle cx="400.0" cy="620.0" r="2.0" stroke="#b20000" stroke-width="4.0" fill="#b20000" />
</g>
</g>
</svg>