<?xml version="1.0" encoding="UTF-8" standalone="no"?>
<!-- Created with Digital by H.Neemann -->
<!-- created: Sun Aug 27 13:57:21 EDT 2023 -->

<svg
   xmlns:svg="http://www.w3.org/2000/svg"
   xmlns="http://www.w3.org/2000/svg"
   width="116.1mm"
   height="96.9mm"
   viewBox="78 146 774 646">
<g stroke-linecap="square">
<circle cx="300.0" cy="300.0" r="70.0" stroke="#000000" stroke-width="4.0" fill="none" />
<circle cx="208.07611" cy="208.07611" r="10.0" stroke="#000000" stroke-width="4.0" fill="#000000" />
<path d="M 217.9756,217.9756 Q 232.82486,232.82486 247.6741,247.6741" stroke="#808080" stroke-width="2.0" fill="none"/>
<path d="M 229.28932,237.77461 L 249.08832,249.08832 L 237.77461,229.28932" stroke="#808080" stroke-width="2.0" fill="none"/>
<text text-anchor="middle" x="300.0" y="285.0" fill="#000000" style="font-size:24px">0</text>
<circle cx="780.0" cy="300.0" r="70.0" stroke="#000000" stroke-width="4.0" fill="none" />
<text text-anchor="middle" x="780.0" y="285.0" fill="#000000" style="font-size:24px">1</text>
<circle cx="540.0" cy="720.0" r="70.0" stroke="#000000" stroke-width="4.0" fill="none" />
<text text-anchor="middle" x="540.0" y="705.0" fill="#000000" style="font-size:24px">2</text>
<path d="M 240.96776,344.6228 C 152.80847,411.2629 117.88217,247.62624 226.96031,278.99512" stroke="#808080" stroke-width="2.0" fill="none"/>
<path d="M 206.08107,279.23383 L 228.88242,279.54788 L 209.39763,267.70123" stroke="#808080" stroke-width="2.0" fill="none"/>
<text text-anchor="middle" x="160.0" y="347.0" fill="#000000" style="font-size:24px"><tspan style="font-style:italic;">x = 0</tspan></text>
<text text-anchor="middle" x="160.0" y="371.0" fill="#000000" style="font-size:24px">mettre <tspan style="font-style:italic;">z = 0</tspan></text>
<path d="M 358.93933,255.25456 Q 540.7965,137.11847 719.4677,254.04523" stroke="#808080" stroke-width="2.0" fill="none"/>
<path d="M 699.4472,248.11395 L 721.14124,255.1404 L 706.01825,238.07297" stroke="#808080" stroke-width="2.0" fill="none"/>
<text text-anchor="middle" x="540.0" y="168.88419" fill="#000000" style="font-size:24px"><tspan style="font-style:italic;">x = 1</tspan></text>
<text text-anchor="middle" x="540.0" y="192.88419" fill="#000000" style="font-size:24px">mettre <tspan style="font-style:italic;">z = 0</tspan></text>
<path d="M 706.76996,310.64725 Q 539.0104,329.08847 375.20923,310.935" stroke="#808080" stroke-width="2.0" fill="none"/>
<path d="M 395.74844,307.17453 L 373.2214,310.7147 L 394.4266,319.10153" stroke="#808080" stroke-width="2.0" fill="none"/>
<text text-anchor="middle" x="540.0" y="340.9398" fill="#000000" style="font-size:24px"><tspan style="font-style:italic;">x = 1</tspan></text>
<text text-anchor="middle" x="540.0" y="364.9398" fill="#000000" style="font-size:24px">mettre <tspan style="font-style:italic;">z = 0</tspan></text>
<path d="M 483.69144,671.98596 Q 355.18198,545.9552 313.12384,374.8583" stroke="#808080" stroke-width="2.0" fill="none"/>
<path d="M 323.72455,392.84787 L 312.64642,372.91614 L 312.07147,395.71237" stroke="#808080" stroke-width="2.0" fill="none"/>
<text text-anchor="middle" x="376.7948" y="531.68866" fill="#000000" style="font-size:24px"><tspan style="font-style:italic;">x = 0</tspan></text>
<text text-anchor="middle" x="376.7948" y="555.68866" fill="#000000" style="font-size:24px">mettre <tspan style="font-style:italic;">z = 0</tspan></text>
<path d="M 790.3054,373.2789 Q 805.5693,594.09314 610.2123,690.90985" stroke="#808080" stroke-width="2.0" fill="none"/>
<path d="M 625.468,676.65283 L 608.4203,691.798 L 630.79663,687.4049" stroke="#808080" stroke-width="2.0" fill="none"/>
<text text-anchor="middle" x="752.91406" y="560.09375" fill="#000000" style="font-size:24px"><tspan style="font-style:italic;">x = 0</tspan></text>
<text text-anchor="middle" x="752.91406" y="584.09375" fill="#000000" style="font-size:24px">mettre <tspan style="font-style:italic;">z = 0</tspan></text>
<path d="M 569.12354,651.9719 Q 640.3062,497.60223 734.99255,361.23996" stroke="#808080" stroke-width="2.0" fill="none"/>
<path d="M 728.51385,381.09006 L 736.13324,359.59717 L 718.65704,374.24576" stroke="#808080" stroke-width="2.0" fill="none"/>
<text text-anchor="middle" x="646.1821" y="499.1041" fill="#000000" style="font-size:24px"><tspan style="font-style:italic;">x = 1</tspan></text>
<text text-anchor="middle" x="646.1821" y="523.1041" fill="#000000" style="font-size:24px">mettre <tspan style="font-style:italic;">z = 1</tspan></text>
</g>
</svg>