<svg xmlns="http://www.w3.org/2000/svg" xml:lang="en" height="180.57999999999996pt" width="555.2536000000001pt" viewBox="-31.613599999999998 -29.54 555.2536000000001 180.57999999999996"><defs><pattern id="hatch" patternUnits="userSpaceOnUse" width="4" height="4">
<path d="M-1,1 l2,-2 M0,4 l4,-4 M3,5 l2,-2" style="stroke:black; stroke-width:.5" /></pattern></defs><path d="M 0.0,-24.299999999999997 L 0.0,145.79999999999998" style="stroke:#DDDDDD;fill:none;stroke-width:1;stroke-dasharray:2,3.3;stroke-linecap:round;stroke-linejoin:round;" /><path d="M 32.4,-24.299999999999997 L 32.4,145.79999999999998" style="stroke:#DDDDDD;fill:none;stroke-width:1;stroke-dasharray:2,3.3;stroke-linecap:round;stroke-linejoin:round;" /><path d="M 64.8,-24.299999999999997 L 64.8,145.79999999999998" style="stroke:#DDDDDD;fill:none;stroke-width:1;stroke-dasharray:2,3.3;stroke-linecap:round;stroke-linejoin:round;" /><path d="M 97.19999999999999,-24.299999999999997 L 97.19999999999999,145.79999999999998" style="stroke:#DDDDDD;fill:none;stroke-width:1;stroke-dasharray:2,3.3;stroke-linecap:round;stroke-linejoin:round;" /><path d="M 129.6,-24.299999999999997 L 129.6,145.79999999999998" style="stroke:#DDDDDD;fill:none;stroke-width:1;stroke-dasharray:2,3.3;stroke-linecap:round;stroke-linejoin:round;" /><path d="M 162.0,-24.299999999999997 L 162.0,145.79999999999998" style="stroke:#DDDDDD;fill:none;stroke-width:1;stroke-dasharray:2,3.3;stroke-linecap:round;stroke-linejoin:round;" /><path d="M 194.39999999999998,-24.299999999999997 L 194.39999999999998,145.79999999999998" style="stroke:#DDDDDD;fill:none;stroke-width:1;stroke-dasharray:2,3.3;stroke-linecap:round;stroke-linejoin:round;" /><path d="M 226.79999999999998,-24.299999999999997 L 226.79999999999998,145.79999999999998" style="stroke:#DDDDDD;fill:none;stroke-width:1;stroke-dasharray:2,3.3;stroke-linecap:round;stroke-linejoin:round;" /><path d="M 259.2,-24.299999999999997 L 259.2,145.79999999999998" style="stroke:#DDDDDD;fill:none;stroke-width:1;stroke-dasharray:2,3.3;stroke-linecap:round;stroke-linejoin:round;" /><path d="M 291.59999999999997,-24.299999999999997 L 291.59999999999997,145.79999999999998" style="stroke:#DDDDDD;fill:none;stroke-width:1;stroke-dasharray:2,3.3;stroke-linecap:round;stroke-linejoin:round;" /><path d="M 324.0,-24.299999999999997 L 324.0,145.79999999999998" style="stroke:#DDDDDD;fill:none;stroke-width:1;stroke-dasharray:2,3.3;stroke-linecap:round;stroke-linejoin:round;" /><path d="M 356.4,-24.299999999999997 L 356.4,145.79999999999998" style="stroke:#DDDDDD;fill:none;stroke-width:1;stroke-dasharray:2,3.3;stroke-linecap:round;stroke-linejoin:round;" /><path d="M 388.79999999999995,-24.299999999999997 L 388.79999999999995,145.79999999999998" style="stroke:#DDDDDD;fill:none;stroke-width:1;stroke-dasharray:2,3.3;stroke-linecap:round;stroke-linejoin:round;" /><path d="M 421.2,-24.299999999999997 L 421.2,145.79999999999998" style="stroke:#DDDDDD;fill:none;stroke-width:1;stroke-dasharray:2,3.3;stroke-linecap:round;stroke-linejoin:round;" /><path d="M 453.59999999999997,-24.299999999999997 L 453.59999999999997,145.79999999999998" style="stroke:#DDDDDD;fill:none;stroke-width:1;stroke-dasharray:2,3.3;stroke-linecap:round;stroke-linejoin:round;" /><path d="M 486.0,-24.299999999999997 L 486.0,145.79999999999998" style="stroke:#DDDDDD;fill:none;stroke-width:1;stroke-dasharray:2,3.3;stroke-linecap:round;stroke-linejoin:round;" /><path d="M 518.4,-24.299999999999997 L 518.4,145.79999999999998" style="stroke:#DDDDDD;fill:none;stroke-width:1;stroke-dasharray:2,3.3;stroke-linecap:round;stroke-linejoin:round;" /><defs><clipPath id="clip0"><rect x="-1.0" y="-18.82" width="520.4" height="181.82" /></clipPath></defs><polyline points="518.4,16.2 324.0,16.2 328.86,32.4 518.4,32.4 " style="stroke:black;fill:url(#hatch);stroke-width:1;stroke-linecap:round;stroke-linejoin:round;" clip-path="url(#clip0)" /><polyline points="518.4,48.599999999999994 324.0,48.599999999999994 328.86,64.8 518.4,64.8 " style="stroke:black;fill:url(#hatch);stroke-width:1;stroke-linecap:round;stroke-linejoin:round;" clip-path="url(#clip0)" /><polyline points="518.4,81.0 324.0,81.0 328.86,97.19999999999999 518.4,97.19999999999999 " style="stroke:black;fill:url(#hatch);stroke-width:1;stroke-linecap:round;stroke-linejoin:round;" clip-path="url(#clip0)" /><polyline points="518.4,113.39999999999999 328.86,113.39999999999999 324.0,129.6 518.4,129.6 " style="stroke:black;fill:url(#hatch);stroke-width:1;stroke-linecap:round;stroke-linejoin:round;" clip-path="url(#clip0)" /><path d="M 0.0,-0.0 L 0.0,-16.2 L 129.6,-16.2 L 129.6,-0.0 L 259.2,-0.0 L 259.2,-16.2 L 388.79999999999995,-16.2 L 388.79999999999995,-0.0 L 518.4,-0.0" style="stroke:black;fill:none;stroke-width:1;stroke-linecap:round;stroke-linejoin:round;" clip-path="url(#clip0)" /><path d="M 0.0,-4.05 L -4.959819536546781e-16,-4.05" style="stroke:black;fill:none;stroke-width:1;stroke-linecap:round;stroke-linejoin:round;" clip-path="url(#clip0)" /><path d="M -1.2246467991473532e-16 -10.149999999999999 L 1.9439999999999995 -4.049999999999998 L -1.9440000000000004 -4.049999999999998 Z" style="stroke:black;fill:black;stroke-linecap:butt;stroke-linejoin:miter;" clip-path="url(#clip0)" /><path d="M 259.2,-4.05 L 259.2,-4.05" style="stroke:black;fill:none;stroke-width:1;stroke-linecap:round;stroke-linejoin:round;" clip-path="url(#clip0)" /><path d="M 259.2 -10.149999999999999 L 261.144 -4.049999999999998 L 257.256 -4.049999999999998 Z" style="stroke:black;fill:black;stroke-linecap:butt;stroke-linejoin:miter;" clip-path="url(#clip0)" /><path d="M 0.0,16.2 L 324.0,16.2" style="stroke:black;fill:none;stroke-width:1;stroke-linecap:round;stroke-linejoin:round;" clip-path="url(#clip0)" /><path d="M 0.0,48.599999999999994 L 324.0,48.599999999999994" style="stroke:black;fill:none;stroke-width:1;stroke-linecap:round;stroke-linejoin:round;" clip-path="url(#clip0)" /><path d="M 0.0,97.19999999999999 L 194.39999999999998,97.19999999999999" style="stroke:black;fill:none;stroke-width:1;stroke-linecap:round;stroke-linejoin:round;" clip-path="url(#clip0)" /><path d="M 194.39999999999998,97.19999999999999 L 199.26,81.0 L 324.0,81.0" style="stroke:black;fill:none;stroke-width:1;stroke-linecap:round;stroke-linejoin:round;" clip-path="url(#clip0)" /><path d="M 0.0,113.39999999999999 L 97.19999999999999,113.39999999999999" style="stroke:black;fill:none;stroke-width:1;stroke-linecap:round;stroke-linejoin:round;" clip-path="url(#clip0)" /><path d="M 97.19999999999999,113.39999999999999 L 102.05999999999999,129.6 L 324.0,129.6" style="stroke:black;fill:none;stroke-width:1;stroke-linecap:round;stroke-linejoin:round;" clip-path="url(#clip0)" /><path d="M 99.63,89.1 L 196.82999999999998,89.1" style="stroke:blue;fill:none;stroke-width:1;stroke-linecap:round;stroke-linejoin:round;" /><path d="M 99.63,92.34 L 99.63,85.86" style="stroke:blue;fill:none;stroke-width:1;stroke-linecap:round;stroke-linejoin:round;" /><path d="M 196.82999999999998,92.34 L 196.82999999999998,85.86" style="stroke:blue;fill:none;stroke-width:1;stroke-linecap:round;stroke-linejoin:round;" /><path d="M 2.4299999999999997,121.5 L 99.63,121.5" style="stroke:blue;fill:none;stroke-width:1;stroke-linecap:round;stroke-linejoin:round;" /><path d="M 2.4299999999999997,124.74 L 2.4299999999999997,118.25999999999999" style="stroke:blue;fill:none;stroke-width:1;stroke-linecap:round;stroke-linejoin:round;" /><path d="M 99.63,124.74 L 99.63,118.25999999999999" style="stroke:blue;fill:none;stroke-width:1;stroke-linecap:round;stroke-linejoin:round;" /><path d="M 196.82999999999998,89.1 L 261.62999999999994,89.1" style="stroke:blue;fill:none;stroke-width:1;stroke-linecap:round;stroke-linejoin:round;" /><path d="M 196.82999999999998,92.34 L 196.82999999999998,85.86" style="stroke:blue;fill:none;stroke-width:1;stroke-linecap:round;stroke-linejoin:round;" /><path d="M 261.62999999999994,92.34 L 261.62999999999994,85.86" style="stroke:blue;fill:none;stroke-width:1;stroke-linecap:round;stroke-linejoin:round;" /><text x="-6.48" y="-11.400000000000002" fill="blue" font-size="12" font-family="sans" text-anchor="end" transform="rotate(0 -6.48 -1.7999999999999998)"><tspan x="-6.48" dy="9.600000000000001">clk</tspan></text><text x="-6.48" y="20.999999999999996" fill="blue" font-size="12" font-family="sans" text-anchor="end" transform="rotate(0 -6.48 30.599999999999998)"><tspan x="-6.48" dy="9.600000000000001">A</tspan></text><text x="-6.48" y="53.39999999999999" fill="blue" font-size="12" font-family="sans" text-anchor="end" transform="rotate(0 -6.48 62.99999999999999)"><tspan x="-6.48" dy="9.600000000000001">B</tspan></text><text x="-6.48" y="85.80000000000001" fill="blue" font-size="12" font-family="sans" text-anchor="end" transform="rotate(0 -6.48 95.4)"><tspan x="-6.48" dy="9.600000000000001">J</tspan></text><text x="-6.48" y="118.19999999999999" fill="blue" font-size="12" font-family="sans" text-anchor="end" transform="rotate(0 -6.48 127.8)"><tspan x="-6.48" dy="9.600000000000001">S</tspan></text><polygon points="136.242,93.42 136.242,84.78 160.218,84.78 160.218,93.42 " style="stroke:none;fill:white;stroke-width:2.0;stroke-linecap:round;stroke-linejoin:round;" /><text x="148.23" y="84.69999999999999" fill="black" font-size="8" font-family="sans" text-anchor="middle" transform="rotate(0 148.23 87.89999999999999)"><tspan x="148.23" dy="6.4">15ns</tspan></text><polygon points="39.04200000000001,125.82 39.04200000000001,117.17999999999999 63.018,117.17999999999999 63.018,125.82 " style="stroke:none;fill:white;stroke-width:2.0;stroke-linecap:round;stroke-linejoin:round;" /><text x="51.03" y="117.09999999999998" fill="black" font-size="8" font-family="sans" text-anchor="middle" transform="rotate(0 51.03 120.29999999999998)"><tspan x="51.03" dy="6.4">15ns</tspan></text><polygon points="217.24199999999996,93.42 217.24199999999996,84.78 241.21799999999996,84.78 241.21799999999996,93.42 " style="stroke:none;fill:white;stroke-width:2.0;stroke-linecap:round;stroke-linejoin:round;" /><text x="229.22999999999996" y="84.69999999999999" fill="black" font-size="8" font-family="sans" text-anchor="middle" transform="rotate(0 229.22999999999996 87.89999999999999)"><tspan x="229.22999999999996" dy="6.4">11ns</tspan></text></svg>