<svg xmlns="http://www.w3.org/2000/svg" xml:lang="en" height="245.37999999999997pt" width="652.4536pt" viewBox="-31.613599999999998 -29.54 652.4536 245.37999999999997"><path d="M 0.0,-24.299999999999997 L 0.0,210.6" style="stroke:#DDDDDD;fill:none;stroke-width:1;stroke-dasharray:2,3.3;stroke-linecap:round;stroke-linejoin:round;" /><path d="M 32.4,-24.299999999999997 L 32.4,210.6" style="stroke:#DDDDDD;fill:none;stroke-width:1;stroke-dasharray:2,3.3;stroke-linecap:round;stroke-linejoin:round;" /><path d="M 64.8,-24.299999999999997 L 64.8,210.6" style="stroke:#DDDDDD;fill:none;stroke-width:1;stroke-dasharray:2,3.3;stroke-linecap:round;stroke-linejoin:round;" /><path d="M 97.19999999999999,-24.299999999999997 L 97.19999999999999,210.6" style="stroke:#DDDDDD;fill:none;stroke-width:1;stroke-dasharray:2,3.3;stroke-linecap:round;stroke-linejoin:round;" /><path d="M 129.6,-24.299999999999997 L 129.6,210.6" style="stroke:#DDDDDD;fill:none;stroke-width:1;stroke-dasharray:2,3.3;stroke-linecap:round;stroke-linejoin:round;" /><path d="M 162.0,-24.299999999999997 L 162.0,210.6" style="stroke:#DDDDDD;fill:none;stroke-width:1;stroke-dasharray:2,3.3;stroke-linecap:round;stroke-linejoin:round;" /><path d="M 194.39999999999998,-24.299999999999997 L 194.39999999999998,210.6" style="stroke:#DDDDDD;fill:none;stroke-width:1;stroke-dasharray:2,3.3;stroke-linecap:round;stroke-linejoin:round;" /><path d="M 226.79999999999998,-24.299999999999997 L 226.79999999999998,210.6" style="stroke:#DDDDDD;fill:none;stroke-width:1;stroke-dasharray:2,3.3;stroke-linecap:round;stroke-linejoin:round;" /><path d="M 259.2,-24.299999999999997 L 259.2,210.6" style="stroke:#DDDDDD;fill:none;stroke-width:1;stroke-dasharray:2,3.3;stroke-linecap:round;stroke-linejoin:round;" /><path d="M 291.59999999999997,-24.299999999999997 L 291.59999999999997,210.6" style="stroke:#DDDDDD;fill:none;stroke-width:1;stroke-dasharray:2,3.3;stroke-linecap:round;stroke-linejoin:round;" /><path d="M 324.0,-24.299999999999997 L 324.0,210.6" style="stroke:#DDDDDD;fill:none;stroke-width:1;stroke-dasharray:2,3.3;stroke-linecap:round;stroke-linejoin:round;" /><path d="M 356.4,-24.299999999999997 L 356.4,210.6" style="stroke:#DDDDDD;fill:none;stroke-width:1;stroke-dasharray:2,3.3;stroke-linecap:round;stroke-linejoin:round;" /><path d="M 388.79999999999995,-24.299999999999997 L 388.79999999999995,210.6" style="stroke:#DDDDDD;fill:none;stroke-width:1;stroke-dasharray:2,3.3;stroke-linecap:round;stroke-linejoin:round;" /><path d="M 421.2,-24.299999999999997 L 421.2,210.6" style="stroke:#DDDDDD;fill:none;stroke-width:1;stroke-dasharray:2,3.3;stroke-linecap:round;stroke-linejoin:round;" /><path d="M 453.59999999999997,-24.299999999999997 L 453.59999999999997,210.6" style="stroke:#DDDDDD;fill:none;stroke-width:1;stroke-dasharray:2,3.3;stroke-linecap:round;stroke-linejoin:round;" /><path d="M 486.0,-24.299999999999997 L 486.0,210.6" style="stroke:#DDDDDD;fill:none;stroke-width:1;stroke-dasharray:2,3.3;stroke-linecap:round;stroke-linejoin:round;" /><path d="M 518.4,-24.299999999999997 L 518.4,210.6" style="stroke:#DDDDDD;fill:none;stroke-width:1;stroke-dasharray:2,3.3;stroke-linecap:round;stroke-linejoin:round;" /><path d="M 550.8,-24.299999999999997 L 550.8,210.6" style="stroke:#DDDDDD;fill:none;stroke-width:1;stroke-dasharray:2,3.3;stroke-linecap:round;stroke-linejoin:round;" /><path d="M 583.1999999999999,-24.299999999999997 L 583.1999999999999,210.6" style="stroke:#DDDDDD;fill:none;stroke-width:1;stroke-dasharray:2,3.3;stroke-linecap:round;stroke-linejoin:round;" /><path d="M 615.6,-24.299999999999997 L 615.6,210.6" style="stroke:#DDDDDD;fill:none;stroke-width:1;stroke-dasharray:2,3.3;stroke-linecap:round;stroke-linejoin:round;" /><defs><clipPath id="clip0"><rect x="-1.0" y="-18.82" width="617.6" height="246.61999999999998" /></clipPath></defs><path d="M 0.0,-0.0 L 0.0,-16.2 L 16.2,-16.2 L 16.2,-0.0 L 32.4,-0.0 L 32.4,-16.2 L 48.599999999999994,-16.2 L 48.599999999999994,-0.0 L 64.8,-0.0 L 64.8,-16.2 L 81.0,-16.2 L 81.0,-0.0 L 97.19999999999999,-0.0 L 97.19999999999999,-16.2 L 113.39999999999999,-16.2 L 113.39999999999999,-0.0 L 129.6,-0.0 L 129.6,-16.2 L 145.79999999999998,-16.2 L 145.79999999999998,-0.0 L 162.0,-0.0 L 162.0,-16.2 L 178.2,-16.2 L 178.2,-0.0 L 194.39999999999998,-0.0 L 194.39999999999998,-16.2 L 210.6,-16.2 L 210.6,-0.0 L 226.79999999999998,-0.0 L 226.79999999999998,-16.2 L 243.0,-16.2 L 243.0,-0.0 L 259.2,-0.0 L 259.2,-16.2 L 275.4,-16.2 L 275.4,-0.0 L 291.59999999999997,-0.0 L 291.59999999999997,-16.2 L 307.8,-16.2 L 307.8,-0.0 L 324.0,-0.0 L 324.0,-16.2 L 340.2,-16.2 L 340.2,-0.0 L 356.4,-0.0 L 356.4,-16.2 L 372.59999999999997,-16.2 L 372.59999999999997,-0.0 L 388.79999999999995,-0.0 L 388.79999999999995,-16.2 L 405.0,-16.2 L 405.0,-0.0 L 421.2,-0.0 L 421.2,-16.2 L 437.4,-16.2 L 437.4,-0.0 L 453.59999999999997,-0.0 L 453.59999999999997,-16.2 L 469.79999999999995,-16.2 L 469.79999999999995,-0.0 L 486.0,-0.0 L 486.0,-16.2 L 502.2,-16.2 L 502.2,-0.0 L 518.4,-0.0 L 518.4,-16.2 L 534.6,-16.2 L 534.6,-0.0 L 550.8,-0.0 L 550.8,-16.2 L 567.0,-16.2 L 567.0,-0.0 L 583.1999999999999,-0.0 L 583.1999999999999,-16.2 L 599.4,-16.2 L 599.4,-0.0 L 615.6,-0.0" style="stroke:black;fill:none;stroke-width:1;stroke-linecap:round;stroke-linejoin:round;" clip-path="url(#clip0)" /><path d="M -16.2,16.2 L 113.39999999999999,16.2" style="stroke:black;fill:none;stroke-width:1;stroke-linecap:round;stroke-linejoin:round;" clip-path="url(#clip0)" /><path d="M 113.39999999999999,16.2 L 118.25999999999999,32.4 L 275.4,32.4" style="stroke:black;fill:none;stroke-width:1;stroke-linecap:round;stroke-linejoin:round;" clip-path="url(#clip0)" /><path d="M 275.4,32.4 L 280.26,16.2 L 437.4,16.2" style="stroke:black;fill:none;stroke-width:1;stroke-linecap:round;stroke-linejoin:round;" clip-path="url(#clip0)" /><path d="M 437.4,16.2 L 442.26,32.4 L 599.4,32.4" style="stroke:black;fill:none;stroke-width:1;stroke-linecap:round;stroke-linejoin:round;" clip-path="url(#clip0)" /><path d="M -16.2,48.599999999999994 L 48.599999999999994,48.599999999999994" style="stroke:black;fill:none;stroke-width:1;stroke-linecap:round;stroke-linejoin:round;" clip-path="url(#clip0)" /><path d="M 48.599999999999994,48.599999999999994 L 53.459999999999994,64.8 L 113.39999999999999,64.8" style="stroke:black;fill:none;stroke-width:1;stroke-linecap:round;stroke-linejoin:round;" clip-path="url(#clip0)" /><path d="M 113.39999999999999,64.8 L 118.25999999999999,48.599999999999994 L 178.2,48.599999999999994" style="stroke:black;fill:none;stroke-width:1;stroke-linecap:round;stroke-linejoin:round;" clip-path="url(#clip0)" /><path d="M 178.2,48.599999999999994 L 183.06,64.8 L 243.0,64.8" style="stroke:black;fill:none;stroke-width:1;stroke-linecap:round;stroke-linejoin:round;" clip-path="url(#clip0)" /><path d="M 243.0,64.8 L 247.86,48.599999999999994 L 307.8,48.599999999999994" style="stroke:black;fill:none;stroke-width:1;stroke-linecap:round;stroke-linejoin:round;" clip-path="url(#clip0)" /><path d="M 307.8,48.599999999999994 L 312.66,64.8 L 372.59999999999997,64.8" style="stroke:black;fill:none;stroke-width:1;stroke-linecap:round;stroke-linejoin:round;" clip-path="url(#clip0)" /><path d="M 372.59999999999997,64.8 L 377.46,48.599999999999994 L 437.4,48.599999999999994" style="stroke:black;fill:none;stroke-width:1;stroke-linecap:round;stroke-linejoin:round;" clip-path="url(#clip0)" /><path d="M 437.4,48.599999999999994 L 442.26,64.8 L 502.2,64.8" style="stroke:black;fill:none;stroke-width:1;stroke-linecap:round;stroke-linejoin:round;" clip-path="url(#clip0)" /><path d="M 502.2,64.8 L 507.06,48.599999999999994 L 567.0,48.599999999999994" style="stroke:black;fill:none;stroke-width:1;stroke-linecap:round;stroke-linejoin:round;" clip-path="url(#clip0)" /><path d="M 567.0,48.599999999999994 L 571.8599999999999,64.8 L 599.4,64.8" style="stroke:black;fill:none;stroke-width:1;stroke-linecap:round;stroke-linejoin:round;" clip-path="url(#clip0)" /><path d="M 0.0,81.0 L 64.8,81.0" style="stroke:black;fill:none;stroke-width:1;stroke-linecap:round;stroke-linejoin:round;" clip-path="url(#clip0)" /><path d="M 64.8,81.0 L 69.66,97.19999999999999 L 129.6,97.19999999999999" style="stroke:black;fill:none;stroke-width:1;stroke-linecap:round;stroke-linejoin:round;" clip-path="url(#clip0)" /><path d="M 129.6,97.19999999999999 L 134.46,81.0 L 194.39999999999998,81.0" style="stroke:black;fill:none;stroke-width:1;stroke-linecap:round;stroke-linejoin:round;" clip-path="url(#clip0)" /><path d="M 194.39999999999998,81.0 L 199.26,97.19999999999999 L 259.2,97.19999999999999" style="stroke:black;fill:none;stroke-width:1;stroke-linecap:round;stroke-linejoin:round;" clip-path="url(#clip0)" /><path d="M 259.2,97.19999999999999 L 264.06,81.0 L 324.0,81.0" style="stroke:black;fill:none;stroke-width:1;stroke-linecap:round;stroke-linejoin:round;" clip-path="url(#clip0)" /><path d="M 324.0,81.0 L 328.86,97.19999999999999 L 388.79999999999995,97.19999999999999" style="stroke:black;fill:none;stroke-width:1;stroke-linecap:round;stroke-linejoin:round;" clip-path="url(#clip0)" /><path d="M 388.79999999999995,97.19999999999999 L 393.65999999999997,81.0 L 453.59999999999997,81.0" style="stroke:black;fill:none;stroke-width:1;stroke-linecap:round;stroke-linejoin:round;" clip-path="url(#clip0)" /><path d="M 453.59999999999997,81.0 L 458.46,97.19999999999999 L 518.4,97.19999999999999" style="stroke:black;fill:none;stroke-width:1;stroke-linecap:round;stroke-linejoin:round;" clip-path="url(#clip0)" /><path d="M 518.4,97.19999999999999 L 523.2599999999999,81.0 L 583.1999999999999,81.0" style="stroke:black;fill:none;stroke-width:1;stroke-linecap:round;stroke-linejoin:round;" clip-path="url(#clip0)" /><path d="M 583.1999999999999,81.0 L 588.06,97.19999999999999 L 615.6,97.19999999999999" style="stroke:black;fill:none;stroke-width:1;stroke-linecap:round;stroke-linejoin:round;" clip-path="url(#clip0)" /><path d="M 0.0,129.6 L 64.8,129.6" style="stroke:black;fill:none;stroke-width:1;stroke-linecap:round;stroke-linejoin:round;" clip-path="url(#clip0)" /><path d="M 64.8,129.6 L 69.66,113.39999999999999 L 129.6,113.39999999999999" style="stroke:black;fill:none;stroke-width:1;stroke-linecap:round;stroke-linejoin:round;" clip-path="url(#clip0)" /><path d="M 129.6,113.39999999999999 L 134.46,129.6 L 194.39999999999998,129.6" style="stroke:black;fill:none;stroke-width:1;stroke-linecap:round;stroke-linejoin:round;" clip-path="url(#clip0)" /><path d="M 194.39999999999998,129.6 L 199.26,113.39999999999999 L 259.2,113.39999999999999" style="stroke:black;fill:none;stroke-width:1;stroke-linecap:round;stroke-linejoin:round;" clip-path="url(#clip0)" /><path d="M 259.2,113.39999999999999 L 264.06,129.6 L 324.0,129.6" style="stroke:black;fill:none;stroke-width:1;stroke-linecap:round;stroke-linejoin:round;" clip-path="url(#clip0)" /><path d="M 324.0,129.6 L 328.86,113.39999999999999 L 388.79999999999995,113.39999999999999" style="stroke:black;fill:none;stroke-width:1;stroke-linecap:round;stroke-linejoin:round;" clip-path="url(#clip0)" /><path d="M 388.79999999999995,113.39999999999999 L 393.65999999999997,129.6 L 453.59999999999997,129.6" style="stroke:black;fill:none;stroke-width:1;stroke-linecap:round;stroke-linejoin:round;" clip-path="url(#clip0)" /><path d="M 453.59999999999997,129.6 L 458.46,113.39999999999999 L 518.4,113.39999999999999" style="stroke:black;fill:none;stroke-width:1;stroke-linecap:round;stroke-linejoin:round;" clip-path="url(#clip0)" /><path d="M 518.4,113.39999999999999 L 523.2599999999999,129.6 L 583.1999999999999,129.6" style="stroke:black;fill:none;stroke-width:1;stroke-linecap:round;stroke-linejoin:round;" clip-path="url(#clip0)" /><path d="M 583.1999999999999,129.6 L 588.06,113.39999999999999 L 615.6,113.39999999999999" style="stroke:black;fill:none;stroke-width:1;stroke-linecap:round;stroke-linejoin:round;" clip-path="url(#clip0)" /><path d="M 0.0,162.0 L 388.79999999999995,162.0" style="stroke:black;fill:none;stroke-width:1;stroke-linecap:round;stroke-linejoin:round;" clip-path="url(#clip0)" /><path d="M 388.79999999999995,162.0 L 393.65999999999997,145.79999999999998 L 518.4,145.79999999999998" style="stroke:black;fill:none;stroke-width:1;stroke-linecap:round;stroke-linejoin:round;" clip-path="url(#clip0)" /><path d="M 518.4,145.79999999999998 L 523.2599999999999,162.0 L 615.6,162.0" style="stroke:black;fill:none;stroke-width:1;stroke-linecap:round;stroke-linejoin:round;" clip-path="url(#clip0)" /><path d="M 0.0,178.2 L 64.8,178.2" style="stroke:black;fill:none;stroke-width:1;stroke-linecap:round;stroke-linejoin:round;" clip-path="url(#clip0)" /><path d="M 64.8,178.2 L 69.66,194.39999999999998 L 129.6,194.39999999999998" style="stroke:black;fill:none;stroke-width:1;stroke-linecap:round;stroke-linejoin:round;" clip-path="url(#clip0)" /><path d="M 129.6,194.39999999999998 L 134.46,178.2 L 194.39999999999998,178.2" style="stroke:black;fill:none;stroke-width:1;stroke-linecap:round;stroke-linejoin:round;" clip-path="url(#clip0)" /><path d="M 194.39999999999998,178.2 L 199.26,194.39999999999998 L 259.2,194.39999999999998" style="stroke:black;fill:none;stroke-width:1;stroke-linecap:round;stroke-linejoin:round;" clip-path="url(#clip0)" /><path d="M 259.2,194.39999999999998 L 264.06,178.2 L 324.0,178.2" style="stroke:black;fill:none;stroke-width:1;stroke-linecap:round;stroke-linejoin:round;" clip-path="url(#clip0)" /><path d="M 324.0,178.2 L 328.86,194.39999999999998 L 453.59999999999997,194.39999999999998" style="stroke:black;fill:none;stroke-width:1;stroke-linecap:round;stroke-linejoin:round;" clip-path="url(#clip0)" /><path d="M 453.59999999999997,194.39999999999998 L 458.46,178.2 L 583.1999999999999,178.2" style="stroke:black;fill:none;stroke-width:1;stroke-linecap:round;stroke-linejoin:round;" clip-path="url(#clip0)" /><path d="M 583.1999999999999,178.2 L 588.06,194.39999999999998 L 615.6,194.39999999999998" style="stroke:black;fill:none;stroke-width:1;stroke-linecap:round;stroke-linejoin:round;" clip-path="url(#clip0)" /><text x="-6.48" y="-11.400000000000002" fill="blue" font-size="12" font-family="sans" text-anchor="end" transform="rotate(0 -6.48 -1.7999999999999998)"><tspan x="-6.48" dy="9.600000000000001">clk</tspan></text><text x="-6.48" y="20.999999999999996" fill="blue" font-size="12" font-family="sans" text-anchor="end" transform="rotate(0 -6.48 30.599999999999998)"><tspan x="-6.48" dy="9.600000000000001">A</tspan></text><text x="-6.48" y="53.39999999999999" fill="blue" font-size="12" font-family="sans" text-anchor="end" transform="rotate(0 -6.48 62.99999999999999)"><tspan x="-6.48" dy="9.600000000000001">B</tspan></text><text x="-6.48" y="85.80000000000001" fill="blue" font-size="12" font-family="sans" text-anchor="end" transform="rotate(0 -6.48 95.4)"><tspan x="-6.48" dy="9.600000000000001">X</tspan></text><text x="-6.48" y="118.19999999999999" fill="blue" font-size="12" font-family="sans" text-anchor="end" transform="rotate(0 -6.48 127.8)"><tspan x="-6.48" dy="9.600000000000001">X'</tspan></text><text x="-6.48" y="150.6" fill="blue" font-size="12" font-family="sans" text-anchor="end" transform="rotate(0 -6.48 160.2)"><tspan x="-6.48" dy="9.600000000000001">Y</tspan></text><text x="-6.48" y="183.0" fill="blue" font-size="12" font-family="sans" text-anchor="end" transform="rotate(0 -6.48 192.6)"><tspan x="-6.48" dy="9.600000000000001">S</tspan></text></svg>