<?xml version="1.0" encoding="UTF-8" standalone="no"?>
<!-- Created with Digital by H.Neemann -->
<!-- created: Wed Jul 19 11:09:01 EDT 2023 -->

<svg
   xmlns:svg="http://www.w3.org/2000/svg"
   xmlns="http://www.w3.org/2000/svg"
   width="80.85mm"
   height="46.65mm"
   viewBox="416 206 539 311">
<g stroke-linecap="square">
<path d="M 660,440 L 670,440 L 680,440" stroke="#000000" stroke-width="4.0" fill="none"/>
<path d="M 660,460 L 670,460" stroke="#000000" stroke-width="4.0" fill="none"/>
<path d="M 500,280 L 500,320 L 780,320" stroke="#0000b2" stroke-width="4.0" fill="none"/>
<path d="M 480,500 L 540,500 L 540,460 L 660,460" stroke="#0000b2" stroke-width="4.0" fill="none"/>
<path d="M 480,340 L 700,340 L 700,260 L 780,260" stroke="#0000b2" stroke-width="4.0" fill="none"/>
<path d="M 680,440 L 800,440 L 800,340" stroke="#0000b2" stroke-width="4.0" fill="none"/>
<path d="M 480,440 L 660,440" stroke="#0000b2" stroke-width="4.0" fill="none"/>
<path d="M 560,280 L 780,280" stroke="#0000b2" stroke-width="4.0" fill="none"/>
<path d="M 480,280 L 500,280 L 520,280" stroke="#0000b2" stroke-width="4.0" fill="none"/>
<path d="M 820,300 L 880,300" stroke="#0000b2" stroke-width="4.0" fill="none"/>
<path d="M 480,220 L 720,220 L 720,300 L 780,300" stroke="#0000b2" stroke-width="4.0" fill="none"/>
<g>
<circle cx="500.0" cy="280.0" r="4.0" stroke="#0000b2" stroke-width="4.0" fill="#0000b2" />
</g>
<g>
<path d="M 449,265 L 479,265 L 479,295 L 449,295 Z" stroke="#000000" stroke-width="4.0" fill="none"/>
<circle cx="464.0" cy="280.0" r="9.0" stroke="#000000" stroke-width="4.0" fill="none" />
<text text-anchor="end" x="435.0" y="289.0" fill="#000000" style="font-size:24px"><tspan style="font-style:italic;">C</tspan></text>
<circle cx="480.0" cy="280.0" r="2.0" stroke="#b20000" stroke-width="4.0" fill="#b20000" />
</g>
<g>
<path d="M 449,425 L 479,425 L 479,455 L 449,455 Z" stroke="#000000" stroke-width="4.0" fill="none"/>
<circle cx="464.0" cy="440.0" r="9.0" stroke="#000000" stroke-width="4.0" fill="none" />
<text text-anchor="end" x="435.0" y="449.0" fill="#000000" style="font-size:24px"><tspan style="font-style:italic;">B</tspan></text>
<circle cx="480.0" cy="440.0" r="2.0" stroke="#b20000" stroke-width="4.0" fill="#b20000" />
</g>
<g>
<path d="M 449,485 L 479,485 L 479,515 L 449,515 Z" stroke="#000000" stroke-width="4.0" fill="none"/>
<circle cx="464.0" cy="500.0" r="9.0" stroke="#000000" stroke-width="4.0" fill="none" />
<text text-anchor="end" x="435.0" y="509.0" fill="#000000" style="font-size:24px"><tspan style="font-style:italic;">A</tspan></text>
<circle cx="480.0" cy="500.0" r="2.0" stroke="#b20000" stroke-width="4.0" fill="#b20000" />
</g>
<g>
<path d="M 781,256 L 819,265 L 819,335 L 781,344 Z" stroke="#000000" stroke-width="4.0" fill="none"/>
<text text-anchor="start" x="783.0" y="275.5" fill="#808080" style="font-size:18px">0</text>
<circle cx="800.0" cy="340.0" r="2.0" stroke="#0000b2" stroke-width="4.0" fill="#0000b2" />
<circle cx="780.0" cy="260.0" r="2.0" stroke="#0000b2" stroke-width="4.0" fill="#0000b2" />
<circle cx="780.0" cy="280.0" r="2.0" stroke="#0000b2" stroke-width="4.0" fill="#0000b2" />
<circle cx="780.0" cy="300.0" r="2.0" stroke="#0000b2" stroke-width="4.0" fill="#0000b2" />
<circle cx="780.0" cy="320.0" r="2.0" stroke="#0000b2" stroke-width="4.0" fill="#0000b2" />
<circle cx="820.0" cy="300.0" r="2.0" stroke="#b20000" stroke-width="4.0" fill="#b20000" />
</g>
<g>
<text text-anchor="end" x="477.0" y="229.0" fill="#000000" style="font-size:24px">1</text>
<circle cx="480.0" cy="220.0" r="2.0" stroke="#b20000" stroke-width="4.0" fill="#b20000" />
</g>
<g>
<circle cx="896.0" cy="300.0" r="9.0" stroke="#000000" stroke-width="4.0" fill="none" />
<circle cx="896.0" cy="300.0" r="15.0" stroke="#000000" stroke-width="4.0" fill="none" />
<text text-anchor="start" x="925.0" y="309.0" fill="#000000" style="font-size:24px"><tspan style="font-style:italic;">F<tspan style="font-size:80%;baseline-shift:sub;">1</tspan></tspan></text>
<circle cx="880.0" cy="300.0" r="2.0" stroke="#0000b2" stroke-width="4.0" fill="#0000b2" />
</g>
<g>
<text text-anchor="end" x="477.0" y="349.0" fill="#000000" style="font-size:24px">0</text>
<circle cx="480.0" cy="340.0" r="2.0" stroke="#b20000" stroke-width="4.0" fill="#b20000" />
</g>
<g>
<text text-anchor="end" x="658.0" y="437.0" fill="#808080" style="font-size:12px">0</text>
<text text-anchor="end" x="658.0" y="457.0" fill="#808080" style="font-size:12px">1</text>
<text text-anchor="start" x="682.0" y="437.0" fill="#808080" style="font-size:12px">0,1</text>
<path d="M 668,438 L 672,438 L 672,462 L 668,462 Z" stroke="#000000" stroke-width="4.0" fill="#000000" fill-opacity="1.0"/>
<circle cx="660.0" cy="440.0" r="2.0" stroke="#0000b2" stroke-width="4.0" fill="#0000b2" />
<circle cx="660.0" cy="460.0" r="2.0" stroke="#0000b2" stroke-width="4.0" fill="#0000b2" />
<circle cx="680.0" cy="440.0" r="2.0" stroke="#b20000" stroke-width="4.0" fill="#b20000" />
</g>
<g>
<path d="M 521,268 L 539,280 L 521,292 Z" stroke="#000000" stroke-width="4.0" fill="none"/>
<circle cx="550.0" cy="280.0" r="9.0" stroke="#000000" stroke-width="4.0" fill="none" />
<circle cx="520.0" cy="280.0" r="2.0" stroke="#0000b2" stroke-width="4.0" fill="#0000b2" />
<circle cx="560.0" cy="280.0" r="2.0" stroke="#b20000" stroke-width="4.0" fill="#b20000" />
</g>
</g>
</svg>