<?xml version="1.0" encoding="UTF-8" standalone="no"?>
<!-- Created with Digital by H.Neemann -->
<!-- created: Tue Jul 18 15:12:00 EDT 2023 -->

<svg
   xmlns:svg="http://www.w3.org/2000/svg"
   xmlns="http://www.w3.org/2000/svg"
   width="96.3mm"
   height="26.1mm"
   viewBox="218 163 642 174">
<g stroke-linecap="square">
<path d="M 280,320 L 360,320" stroke="#0000b2" stroke-width="4.0" fill="none"/>
<path d="M 480,300 L 480,320 L 500,320" stroke="#0000b2" stroke-width="4.0" fill="none"/>
<path d="M 780,240 L 800,240" stroke="#0000b2" stroke-width="4.0" fill="none"/>
<path d="M 280,180 L 340,180" stroke="#0000b2" stroke-width="4.0" fill="none"/>
<path d="M 280,280 L 360,280" stroke="#0000b2" stroke-width="4.0" fill="none"/>
<path d="M 440,200 L 620,200 L 620,220 L 680,220" stroke="#0000b2" stroke-width="4.0" fill="none"/>
<path d="M 460,300 L 480,300 L 480,280 L 500,280" stroke="#0000b2" stroke-width="4.0" fill="none"/>
<path d="M 600,300 L 620,300 L 620,260 L 680,260" stroke="#0000b2" stroke-width="4.0" fill="none"/>
<path d="M 280,220 L 340,220" stroke="#0000b2" stroke-width="4.0" fill="none"/>
<g>
<circle cx="480.0" cy="300.0" r="4.0" stroke="#0000b2" stroke-width="4.0" fill="#0000b2" />
</g>
<g>
<path d="M 249,165 L 279,165 L 279,195 L 249,195 Z" stroke="#000000" stroke-width="4.0" fill="none"/>
<circle cx="264.0" cy="180.0" r="9.0" stroke="#000000" stroke-width="4.0" fill="none" />
<text text-anchor="end" x="235.0" y="189.0" fill="#000000" style="font-size:24px"><tspan style="font-style:italic;">a</tspan></text>
<circle cx="280.0" cy="180.0" r="2.0" stroke="#b20000" stroke-width="4.0" fill="#b20000" />
</g>
<g>
<path d="M 249,205 L 279,205 L 279,235 L 249,235 Z" stroke="#000000" stroke-width="4.0" fill="none"/>
<circle cx="264.0" cy="220.0" r="9.0" stroke="#000000" stroke-width="4.0" fill="none" />
<text text-anchor="end" x="235.0" y="229.0" fill="#000000" style="font-size:24px"><tspan style="font-style:italic;">b</tspan></text>
<circle cx="280.0" cy="220.0" r="2.0" stroke="#b20000" stroke-width="4.0" fill="#b20000" />
</g>
<g>
<path d="M 249,265 L 279,265 L 279,295 L 249,295 Z" stroke="#000000" stroke-width="4.0" fill="none"/>
<circle cx="264.0" cy="280.0" r="9.0" stroke="#000000" stroke-width="4.0" fill="none" />
<text text-anchor="end" x="235.0" y="289.0" fill="#000000" style="font-size:24px"><tspan style="font-style:italic;">c</tspan></text>
<circle cx="280.0" cy="280.0" r="2.0" stroke="#b20000" stroke-width="4.0" fill="#b20000" />
</g>
<g>
<path d="M 249,305 L 279,305 L 279,335 L 249,335 Z" stroke="#000000" stroke-width="4.0" fill="none"/>
<circle cx="264.0" cy="320.0" r="9.0" stroke="#000000" stroke-width="4.0" fill="none" />
<text text-anchor="end" x="235.0" y="329.0" fill="#000000" style="font-size:24px"><tspan style="font-style:italic;">d</tspan></text>
<circle cx="280.0" cy="320.0" r="2.0" stroke="#b20000" stroke-width="4.0" fill="#b20000" />
</g>
<g>
<circle cx="816.0" cy="240.0" r="9.0" stroke="#000000" stroke-width="4.0" fill="none" />
<circle cx="816.0" cy="240.0" r="15.0" stroke="#000000" stroke-width="4.0" fill="none" />
<text text-anchor="start" x="845.0" y="249.0" fill="#000000" style="font-size:24px"><tspan style="font-style:italic;">S</tspan></text>
<circle cx="800.0" cy="240.0" r="2.0" stroke="#0000b2" stroke-width="4.0" fill="#0000b2" />
</g>
<g>
<path d="M 410,330 L 361,330 L 361,270 L 410,270 C 420,270 440,280 439,300 C 439,320 420,330 410,330 Z" stroke="#000000" stroke-width="4.0" fill="none"/>
<circle cx="450.0" cy="300.0" r="9.0" stroke="#000000" stroke-width="4.0" fill="none" />
<circle cx="360.0" cy="280.0" r="2.0" stroke="#0000b2" stroke-width="4.0" fill="#0000b2" />
<circle cx="360.0" cy="320.0" r="2.0" stroke="#0000b2" stroke-width="4.0" fill="#0000b2" />
<circle cx="460.0" cy="300.0" r="2.0" stroke="#b20000" stroke-width="4.0" fill="#b20000" />
</g>
<g>
<path d="M 390,230 L 341,230 L 341,170 L 390,170 C 400,170 420,180 419,200 C 419,220 400,230 390,230 Z" stroke="#000000" stroke-width="4.0" fill="none"/>
<circle cx="430.0" cy="200.0" r="9.0" stroke="#000000" stroke-width="4.0" fill="none" />
<circle cx="340.0" cy="180.0" r="2.0" stroke="#0000b2" stroke-width="4.0" fill="#0000b2" />
<circle cx="340.0" cy="220.0" r="2.0" stroke="#0000b2" stroke-width="4.0" fill="#0000b2" />
<circle cx="440.0" cy="200.0" r="2.0" stroke="#b20000" stroke-width="4.0" fill="#b20000" />
</g>
<g>
<path d="M 730,270 L 681,270 L 681,210 L 730,210 C 740,210 760,220 759,240 C 759,260 740,270 730,270 Z" stroke="#000000" stroke-width="4.0" fill="none"/>
<circle cx="770.0" cy="240.0" r="9.0" stroke="#000000" stroke-width="4.0" fill="none" />
<circle cx="680.0" cy="220.0" r="2.0" stroke="#0000b2" stroke-width="4.0" fill="#0000b2" />
<circle cx="680.0" cy="260.0" r="2.0" stroke="#0000b2" stroke-width="4.0" fill="#0000b2" />
<circle cx="780.0" cy="240.0" r="2.0" stroke="#b20000" stroke-width="4.0" fill="#b20000" />
</g>
<g>
<path d="M 550,330 L 501,330 L 501,270 L 550,270 C 560,270 580,280 579,300 C 579,320 560,330 550,330 Z" stroke="#000000" stroke-width="4.0" fill="none"/>
<circle cx="590.0" cy="300.0" r="9.0" stroke="#000000" stroke-width="4.0" fill="none" />
<circle cx="500.0" cy="280.0" r="2.0" stroke="#0000b2" stroke-width="4.0" fill="#0000b2" />
<circle cx="500.0" cy="320.0" r="2.0" stroke="#0000b2" stroke-width="4.0" fill="#0000b2" />
<circle cx="600.0" cy="300.0" r="2.0" stroke="#b20000" stroke-width="4.0" fill="#b20000" />
</g>
</g>
</svg>