<?xml version="1.0" encoding="UTF-8" standalone="no"?>
<!-- Created with Digital by H.Neemann -->
<!-- created: Tue Jul 18 18:02:08 EDT 2023 -->

<svg
   xmlns:svg="http://www.w3.org/2000/svg"
   xmlns="http://www.w3.org/2000/svg"
   width="123.6mm"
   height="46.35mm"
   viewBox="96 68 824 309">
<g stroke-linecap="square">
<path d="M 320,280 L 320,320 L 380,320 L 384,320" stroke="#0000b2" stroke-width="4.0" fill="none"/>
<path d="M 160,160 L 200,160 L 200,80 L 280,80 L 284,80" stroke="#0000b2" stroke-width="4.0" fill="none"/>
<path d="M 820,240 L 860,240" stroke="#0000b2" stroke-width="4.0" fill="none"/>
<path d="M 160,260 L 240,260 L 240,120 L 280,120 L 284,120" stroke="#0000b2" stroke-width="4.0" fill="none"/>
<path d="M 380,100 L 420,100 L 424,100" stroke="#0000b2" stroke-width="4.0" fill="none"/>
<path d="M 480,340 L 540,340 L 540,160 L 560,160 L 564,160" stroke="#0000b2" stroke-width="4.0" fill="none"/>
<path d="M 160,360 L 280,360 L 380,360 L 384,360" stroke="#0000b2" stroke-width="4.0" fill="none"/>
<path d="M 520,120 L 560,120 L 564,120" stroke="#0000b2" stroke-width="4.0" fill="none"/>
<path d="M 240,260 L 240,280 L 320,280 L 320,260 L 720,260 L 724,260" stroke="#0000b2" stroke-width="4.0" fill="none"/>
<path d="M 660,140 L 700,140 L 700,220 L 720,220 L 724,220" stroke="#0000b2" stroke-width="4.0" fill="none"/>
<path d="M 280,360 L 280,140 L 420,140 L 424,140" stroke="#0000b2" stroke-width="4.0" fill="none"/>
<g>
<circle cx="240.0" cy="260.0" r="4.0" stroke="#0000b2" stroke-width="4.0" fill="#0000b2" />
<circle cx="280.0" cy="360.0" r="4.0" stroke="#0000b2" stroke-width="4.0" fill="#0000b2" />
<circle cx="320.0" cy="280.0" r="4.0" stroke="#0000b2" stroke-width="4.0" fill="#0000b2" />
</g>
<g>
<circle cx="876.0" cy="240.0" r="9.0" stroke="#000000" stroke-width="4.0" fill="none" />
<circle cx="876.0" cy="240.0" r="15.0" stroke="#000000" stroke-width="4.0" fill="none" />
<text text-anchor="start" x="905.0" y="249.0" fill="#000000" style="font-size:24px"><tspan style="font-style:italic;">F</tspan></text>
<circle cx="860.0" cy="240.0" r="2.0" stroke="#0000b2" stroke-width="4.0" fill="#0000b2" />
</g>
<g>
<path d="M 129,145 L 159,145 L 159,175 L 129,175 Z" stroke="#000000" stroke-width="4.0" fill="none"/>
<circle cx="144.0" cy="160.0" r="9.0" stroke="#000000" stroke-width="4.0" fill="none" />
<text text-anchor="end" x="115.0" y="169.0" fill="#000000" style="font-size:24px"><tspan style="font-style:italic;">C</tspan></text>
<circle cx="160.0" cy="160.0" r="2.0" stroke="#b20000" stroke-width="4.0" fill="#b20000" />
</g>
<g>
<path d="M 129,245 L 159,245 L 159,275 L 129,275 Z" stroke="#000000" stroke-width="4.0" fill="none"/>
<circle cx="144.0" cy="260.0" r="9.0" stroke="#000000" stroke-width="4.0" fill="none" />
<text text-anchor="end" x="115.0" y="269.0" fill="#000000" style="font-size:24px"><tspan style="font-style:italic;">B</tspan></text>
<circle cx="160.0" cy="260.0" r="2.0" stroke="#b20000" stroke-width="4.0" fill="#b20000" />
</g>
<g>
<path d="M 129,345 L 159,345 L 159,375 L 129,375 Z" stroke="#000000" stroke-width="4.0" fill="none"/>
<circle cx="144.0" cy="360.0" r="9.0" stroke="#000000" stroke-width="4.0" fill="none" />
<text text-anchor="end" x="115.0" y="369.0" fill="#000000" style="font-size:24px"><tspan style="font-style:italic;">A</tspan></text>
<circle cx="160.0" cy="360.0" r="2.0" stroke="#b20000" stroke-width="4.0" fill="#b20000" />
</g>
<g>
<path d="M 590,170 L 560,170 C 570,154 570,126 560,110 L 580,110 C 610,110 630,120 640,140 C 630,160 610,170 590,170 Z" stroke="#000000" stroke-width="4.0" fill="none"/>
<circle cx="650.0" cy="140.0" r="9.0" stroke="#000000" stroke-width="4.0" fill="none" />
<circle cx="560.0" cy="120.0" r="2.0" stroke="#0000b2" stroke-width="4.0" fill="#0000b2" />
<circle cx="560.0" cy="160.0" r="2.0" stroke="#0000b2" stroke-width="4.0" fill="#0000b2" />
<circle cx="660.0" cy="140.0" r="2.0" stroke="#b20000" stroke-width="4.0" fill="#b20000" />
</g>
<g>
<path d="M 310,130 L 280,130 C 290,114 290,86 280,70 L 300,70 C 330,70 350,80 360,100 C 350,120 330,130 310,130 Z" stroke="#000000" stroke-width="4.0" fill="none"/>
<circle cx="370.0" cy="100.0" r="9.0" stroke="#000000" stroke-width="4.0" fill="none" />
<circle cx="280.0" cy="80.0" r="2.0" stroke="#0000b2" stroke-width="4.0" fill="#0000b2" />
<circle cx="280.0" cy="120.0" r="2.0" stroke="#0000b2" stroke-width="4.0" fill="#0000b2" />
<circle cx="380.0" cy="100.0" r="2.0" stroke="#b20000" stroke-width="4.0" fill="#b20000" />
</g>
<g>
<path d="M 410,370 L 380,370 C 390,354 390,326 380,310 L 400,310 C 430,310 450,320 460,340 C 450,360 430,370 410,370 Z" stroke="#000000" stroke-width="4.0" fill="none"/>
<circle cx="470.0" cy="340.0" r="9.0" stroke="#000000" stroke-width="4.0" fill="none" />
<circle cx="380.0" cy="320.0" r="2.0" stroke="#0000b2" stroke-width="4.0" fill="#0000b2" />
<circle cx="380.0" cy="360.0" r="2.0" stroke="#0000b2" stroke-width="4.0" fill="#0000b2" />
<circle cx="480.0" cy="340.0" r="2.0" stroke="#b20000" stroke-width="4.0" fill="#b20000" />
</g>
<g>
<path d="M 750,270 L 720,270 C 730,254 730,226 720,210 L 740,210 C 770,210 790,220 800,240 C 790,260 770,270 750,270 Z" stroke="#000000" stroke-width="4.0" fill="none"/>
<circle cx="810.0" cy="240.0" r="9.0" stroke="#000000" stroke-width="4.0" fill="none" />
<circle cx="720.0" cy="220.0" r="2.0" stroke="#0000b2" stroke-width="4.0" fill="#0000b2" />
<circle cx="720.0" cy="260.0" r="2.0" stroke="#0000b2" stroke-width="4.0" fill="#0000b2" />
<circle cx="820.0" cy="240.0" r="2.0" stroke="#b20000" stroke-width="4.0" fill="#b20000" />
</g>
<g>
<path d="M 450,150 L 420,150 C 430,134 430,106 420,90 L 440,90 C 470,90 490,100 500,120 C 490,140 470,150 450,150 Z" stroke="#000000" stroke-width="4.0" fill="none"/>
<circle cx="510.0" cy="120.0" r="9.0" stroke="#000000" stroke-width="4.0" fill="none" />
<circle cx="420.0" cy="100.0" r="2.0" stroke="#0000b2" stroke-width="4.0" fill="#0000b2" />
<circle cx="420.0" cy="140.0" r="2.0" stroke="#0000b2" stroke-width="4.0" fill="#0000b2" />
<circle cx="520.0" cy="120.0" r="2.0" stroke="#b20000" stroke-width="4.0" fill="#b20000" />
</g>
</g>
</svg>