<?xml version="1.0" encoding="UTF-8" standalone="no"?>
<!-- Created with Digital by H.Neemann -->
<!-- created: Mon Jul 31 10:14:54 EDT 2023 -->

<svg
   xmlns:svg="http://www.w3.org/2000/svg"
   xmlns="http://www.w3.org/2000/svg"
   width="90.6mm"
   height="41.1mm"
   viewBox="196 163 604 274">
<g stroke-linecap="square">
<path d="M 400,400 L 420,400 L 420,380 L 440,380" stroke="#0000b2" stroke-width="4.0" fill="none"/>
<path d="M 260,180 L 300,180 L 320,180" stroke="#0000b2" stroke-width="4.0" fill="none"/>
<path d="M 360,180 L 420,180 L 420,200 L 440,200" stroke="#0000b2" stroke-width="4.0" fill="none"/>
<path d="M 260,420 L 320,420 L 324,420" stroke="#0000b2" stroke-width="4.0" fill="none"/>
<path d="M 280,300 L 280,340 L 440,340" stroke="#0000b2" stroke-width="4.0" fill="none"/>
<path d="M 520,360 L 540,360 L 540,300 L 560,300 L 564,300" stroke="#0000b2" stroke-width="4.0" fill="none"/>
<path d="M 640,280 L 740,280" stroke="#0000b2" stroke-width="4.0" fill="none"/>
<path d="M 260,300 L 280,300 L 320,300" stroke="#0000b2" stroke-width="4.0" fill="none"/>
<path d="M 360,300 L 420,300 L 420,240 L 440,240" stroke="#0000b2" stroke-width="4.0" fill="none"/>
<path d="M 300,180 L 300,380 L 320,380 L 324,380" stroke="#0000b2" stroke-width="4.0" fill="none"/>
<path d="M 520,220 L 540,220 L 540,260 L 560,260 L 564,260" stroke="#0000b2" stroke-width="4.0" fill="none"/>
<g>
<circle cx="300.0" cy="180.0" r="4.0" stroke="#0000b2" stroke-width="4.0" fill="#0000b2" />
<circle cx="280.0" cy="300.0" r="4.0" stroke="#0000b2" stroke-width="4.0" fill="#0000b2" />
</g>
<g>
<path d="M 229,165 L 259,165 L 259,195 L 229,195 Z" stroke="#000000" stroke-width="4.0" fill="none"/>
<circle cx="244.0" cy="180.0" r="9.0" stroke="#000000" stroke-width="4.0" fill="none" />
<text text-anchor="end" x="215.0" y="189.0" fill="#000000" style="font-size:24px"><tspan style="font-style:italic;">A</tspan></text>
<circle cx="260.0" cy="180.0" r="2.0" stroke="#b20000" stroke-width="4.0" fill="#b20000" />
</g>
<g>
<path d="M 229,285 L 259,285 L 259,315 L 229,315 Z" stroke="#000000" stroke-width="4.0" fill="none"/>
<circle cx="244.0" cy="300.0" r="9.0" stroke="#000000" stroke-width="4.0" fill="none" />
<text text-anchor="end" x="215.0" y="309.0" fill="#000000" style="font-size:24px"><tspan style="font-style:italic;">B</tspan></text>
<circle cx="260.0" cy="300.0" r="2.0" stroke="#b20000" stroke-width="4.0" fill="#b20000" />
</g>
<g>
<path d="M 229,405 L 259,405 L 259,435 L 229,435 Z" stroke="#000000" stroke-width="4.0" fill="none"/>
<circle cx="244.0" cy="420.0" r="9.0" stroke="#000000" stroke-width="4.0" fill="none" />
<text text-anchor="end" x="215.0" y="429.0" fill="#000000" style="font-size:24px"><tspan style="font-style:italic;">C</tspan></text>
<circle cx="260.0" cy="420.0" r="2.0" stroke="#b20000" stroke-width="4.0" fill="#b20000" />
</g>
<g>
<circle cx="756.0" cy="280.0" r="9.0" stroke="#000000" stroke-width="4.0" fill="none" />
<circle cx="756.0" cy="280.0" r="15.0" stroke="#000000" stroke-width="4.0" fill="none" />
<text text-anchor="start" x="785.0" y="289.0" fill="#000000" style="font-size:24px"><tspan style="font-style:italic;">S</tspan></text>
<circle cx="740.0" cy="280.0" r="2.0" stroke="#0000b2" stroke-width="4.0" fill="#0000b2" />
</g>
<g>
<path d="M 490,250 L 441,250 L 441,190 L 490,190 C 500,190 520,200 519,220 C 519,240 500,250 490,250 Z" stroke="#000000" stroke-width="4.0" fill="none"/>
<circle cx="440.0" cy="200.0" r="2.0" stroke="#0000b2" stroke-width="4.0" fill="#0000b2" />
<circle cx="440.0" cy="240.0" r="2.0" stroke="#0000b2" stroke-width="4.0" fill="#0000b2" />
<circle cx="520.0" cy="220.0" r="2.0" stroke="#b20000" stroke-width="4.0" fill="#b20000" />
</g>
<g>
<path d="M 321,168 L 339,180 L 321,192 Z" stroke="#000000" stroke-width="4.0" fill="none"/>
<circle cx="350.0" cy="180.0" r="9.0" stroke="#000000" stroke-width="4.0" fill="none" />
<circle cx="320.0" cy="180.0" r="2.0" stroke="#0000b2" stroke-width="4.0" fill="#0000b2" />
<circle cx="360.0" cy="180.0" r="2.0" stroke="#b20000" stroke-width="4.0" fill="#b20000" />
</g>
<g>
<path d="M 321,288 L 339,300 L 321,312 Z" stroke="#000000" stroke-width="4.0" fill="none"/>
<circle cx="350.0" cy="300.0" r="9.0" stroke="#000000" stroke-width="4.0" fill="none" />
<circle cx="320.0" cy="300.0" r="2.0" stroke="#0000b2" stroke-width="4.0" fill="#0000b2" />
<circle cx="360.0" cy="300.0" r="2.0" stroke="#b20000" stroke-width="4.0" fill="#b20000" />
</g>
<g>
<path d="M 350,430 L 320,430 C 330,414 330,386 320,370 L 340,370 C 370,370 390,380 400,400 C 390,420 370,430 350,430 Z" stroke="#000000" stroke-width="4.0" fill="none"/>
<circle cx="320.0" cy="380.0" r="2.0" stroke="#0000b2" stroke-width="4.0" fill="#0000b2" />
<circle cx="320.0" cy="420.0" r="2.0" stroke="#0000b2" stroke-width="4.0" fill="#0000b2" />
<circle cx="400.0" cy="400.0" r="2.0" stroke="#b20000" stroke-width="4.0" fill="#b20000" />
</g>
<g>
<path d="M 490,390 L 441,390 L 441,330 L 490,330 C 500,330 520,340 519,360 C 519,380 500,390 490,390 Z" stroke="#000000" stroke-width="4.0" fill="none"/>
<circle cx="440.0" cy="340.0" r="2.0" stroke="#0000b2" stroke-width="4.0" fill="#0000b2" />
<circle cx="440.0" cy="380.0" r="2.0" stroke="#0000b2" stroke-width="4.0" fill="#0000b2" />
<circle cx="520.0" cy="360.0" r="2.0" stroke="#b20000" stroke-width="4.0" fill="#b20000" />
</g>
<g>
<path d="M 590,310 L 560,310 C 570,294 570,266 560,250 L 580,250 C 610,250 630,260 640,280 C 630,300 610,310 590,310 Z" stroke="#000000" stroke-width="4.0" fill="none"/>
<circle cx="560.0" cy="260.0" r="2.0" stroke="#0000b2" stroke-width="4.0" fill="#0000b2" />
<circle cx="560.0" cy="300.0" r="2.0" stroke="#0000b2" stroke-width="4.0" fill="#0000b2" />
<circle cx="640.0" cy="280.0" r="2.0" stroke="#b20000" stroke-width="4.0" fill="#b20000" />
</g>
</g>
</svg>