<?xml version="1.0" encoding="UTF-8" standalone="no"?>
<!-- Created with Digital by H.Neemann -->
<!-- created: Tue Jul 18 17:31:07 EDT 2023 -->

<svg
   xmlns:svg="http://www.w3.org/2000/svg"
   xmlns="http://www.w3.org/2000/svg"
   width="195.6mm"
   height="45.6mm"
   viewBox="-84 68 1304 304">
<g stroke-linecap="square">
<path d="M -20,160 L 80,160 L 80,100 L 140,100 L 140,80 L 160,80" stroke="#0000b2" stroke-width="4.0" fill="none"/>
<path d="M 20,240 L 20,260 L 40,260" stroke="#0000b2" stroke-width="4.0" fill="none"/>
<path d="M 260,100 L 300,100 L 300,120" stroke="#0000b2" stroke-width="4.0" fill="none"/>
<path d="M 0,240 L 0,200 L 140,200 L 140,180 L 160,180" stroke="#0000b2" stroke-width="4.0" fill="none"/>
<path d="M 740,140 L 740,200 L 760,200" stroke="#0000b2" stroke-width="4.0" fill="none"/>
<path d="M 260,200 L 300,200 L 300,160" stroke="#0000b2" stroke-width="4.0" fill="none"/>
<path d="M 600,200 L 620,200 L 620,160 L 640,160" stroke="#0000b2" stroke-width="4.0" fill="none"/>
<path d="M 20,340 L 20,360 L 40,360" stroke="#0000b2" stroke-width="4.0" fill="none"/>
<path d="M 400,140 L 420,140 L 420,180 L 460,180 L 500,180" stroke="#0000b2" stroke-width="4.0" fill="none"/>
<path d="M -20,240 L 0,240 L 20,240 L 20,220 L 40,220" stroke="#0000b2" stroke-width="4.0" fill="none"/>
<path d="M 140,240 L 760,240" stroke="#0000b2" stroke-width="4.0" fill="none"/>
<path d="M 920,220 L 920,240 L 940,240" stroke="#0000b2" stroke-width="4.0" fill="none"/>
<path d="M -20,340 L 20,340 L 20,320 L 40,320" stroke="#0000b2" stroke-width="4.0" fill="none"/>
<path d="M 140,340 L 460,340 L 460,220 L 500,220" stroke="#0000b2" stroke-width="4.0" fill="none"/>
<path d="M 140,100 L 140,120 L 160,120" stroke="#0000b2" stroke-width="4.0" fill="none"/>
<path d="M 460,180 L 460,120 L 640,120" stroke="#0000b2" stroke-width="4.0" fill="none"/>
<path d="M 860,220 L 920,220 L 920,200 L 940,200" stroke="#0000b2" stroke-width="4.0" fill="none"/>
<path d="M 1040,220 L 1160,220" stroke="#0000b2" stroke-width="4.0" fill="none"/>
<path d="M 140,200 L 140,220 L 160,220" stroke="#0000b2" stroke-width="4.0" fill="none"/>
<g>
<circle cx="140.0" cy="100.0" r="4.0" stroke="#0000b2" stroke-width="4.0" fill="#0000b2" />
<circle cx="140.0" cy="200.0" r="4.0" stroke="#0000b2" stroke-width="4.0" fill="#0000b2" />
<circle cx="0.0" cy="240.0" r="4.0" stroke="#0000b2" stroke-width="4.0" fill="#0000b2" />
<circle cx="20.0" cy="240.0" r="4.0" stroke="#0000b2" stroke-width="4.0" fill="#0000b2" />
<circle cx="20.0" cy="340.0" r="4.0" stroke="#0000b2" stroke-width="4.0" fill="#0000b2" />
<circle cx="460.0" cy="180.0" r="4.0" stroke="#0000b2" stroke-width="4.0" fill="#0000b2" />
<circle cx="920.0" cy="220.0" r="4.0" stroke="#0000b2" stroke-width="4.0" fill="#0000b2" />
</g>
<g>
<path d="M -51,145 L -21,145 L -21,175 L -51,175 Z" stroke="#000000" stroke-width="4.0" fill="none"/>
<circle cx="-36.0" cy="160.0" r="9.0" stroke="#000000" stroke-width="4.0" fill="none" />
<text text-anchor="end" x="-65.0" y="169.0" fill="#000000" style="font-size:24px"><tspan style="font-style:italic;">A</tspan></text>
<circle cx="-20.0" cy="160.0" r="2.0" stroke="#b20000" stroke-width="4.0" fill="#b20000" />
</g>
<g>
<path d="M -51,225 L -21,225 L -21,255 L -51,255 Z" stroke="#000000" stroke-width="4.0" fill="none"/>
<circle cx="-36.0" cy="240.0" r="9.0" stroke="#000000" stroke-width="4.0" fill="none" />
<text text-anchor="end" x="-65.0" y="249.0" fill="#000000" style="font-size:24px"><tspan style="font-style:italic;">B</tspan></text>
<circle cx="-20.0" cy="240.0" r="2.0" stroke="#b20000" stroke-width="4.0" fill="#b20000" />
</g>
<g>
<path d="M -51,325 L -21,325 L -21,355 L -51,355 Z" stroke="#000000" stroke-width="4.0" fill="none"/>
<circle cx="-36.0" cy="340.0" r="9.0" stroke="#000000" stroke-width="4.0" fill="none" />
<text text-anchor="end" x="-65.0" y="349.0" fill="#000000" style="font-size:24px"><tspan style="font-style:italic;">C</tspan></text>
<circle cx="-20.0" cy="340.0" r="2.0" stroke="#b20000" stroke-width="4.0" fill="#b20000" />
</g>
<g>
<circle cx="1176.0" cy="220.0" r="9.0" stroke="#000000" stroke-width="4.0" fill="none" />
<circle cx="1176.0" cy="220.0" r="15.0" stroke="#000000" stroke-width="4.0" fill="none" />
<text text-anchor="start" x="1205.0" y="229.0" fill="#000000" style="font-size:24px"><tspan style="font-style:italic;">F</tspan></text>
<circle cx="1160.0" cy="220.0" r="2.0" stroke="#0000b2" stroke-width="4.0" fill="#0000b2" />
</g>
<g>
<path d="M 90,370 L 41,370 L 41,310 L 90,310 C 100,310 120,320 119,340 C 119,360 100,370 90,370 Z" stroke="#000000" stroke-width="4.0" fill="none"/>
<circle cx="130.0" cy="340.0" r="9.0" stroke="#000000" stroke-width="4.0" fill="none" />
<circle cx="40.0" cy="320.0" r="2.0" stroke="#0000b2" stroke-width="4.0" fill="#0000b2" />
<circle cx="40.0" cy="360.0" r="2.0" stroke="#0000b2" stroke-width="4.0" fill="#0000b2" />
<circle cx="140.0" cy="340.0" r="2.0" stroke="#b20000" stroke-width="4.0" fill="#b20000" />
</g>
<g>
<path d="M 90,270 L 41,270 L 41,210 L 90,210 C 100,210 120,220 119,240 C 119,260 100,270 90,270 Z" stroke="#000000" stroke-width="4.0" fill="none"/>
<circle cx="130.0" cy="240.0" r="9.0" stroke="#000000" stroke-width="4.0" fill="none" />
<circle cx="40.0" cy="220.0" r="2.0" stroke="#0000b2" stroke-width="4.0" fill="#0000b2" />
<circle cx="40.0" cy="260.0" r="2.0" stroke="#0000b2" stroke-width="4.0" fill="#0000b2" />
<circle cx="140.0" cy="240.0" r="2.0" stroke="#b20000" stroke-width="4.0" fill="#b20000" />
</g>
<g>
<path d="M 810,250 L 761,250 L 761,190 L 810,190 C 820,190 840,200 839,220 C 839,240 820,250 810,250 Z" stroke="#000000" stroke-width="4.0" fill="none"/>
<circle cx="850.0" cy="220.0" r="9.0" stroke="#000000" stroke-width="4.0" fill="none" />
<circle cx="760.0" cy="200.0" r="2.0" stroke="#0000b2" stroke-width="4.0" fill="#0000b2" />
<circle cx="760.0" cy="240.0" r="2.0" stroke="#0000b2" stroke-width="4.0" fill="#0000b2" />
<circle cx="860.0" cy="220.0" r="2.0" stroke="#b20000" stroke-width="4.0" fill="#b20000" />
</g>
<g>
<path d="M 990,250 L 941,250 L 941,190 L 990,190 C 1000,190 1020,200 1019,220 C 1019,240 1000,250 990,250 Z" stroke="#000000" stroke-width="4.0" fill="none"/>
<circle cx="1030.0" cy="220.0" r="9.0" stroke="#000000" stroke-width="4.0" fill="none" />
<circle cx="940.0" cy="200.0" r="2.0" stroke="#0000b2" stroke-width="4.0" fill="#0000b2" />
<circle cx="940.0" cy="240.0" r="2.0" stroke="#0000b2" stroke-width="4.0" fill="#0000b2" />
<circle cx="1040.0" cy="220.0" r="2.0" stroke="#b20000" stroke-width="4.0" fill="#b20000" />
</g>
<g>
<path d="M 550,230 L 501,230 L 501,170 L 550,170 C 560,170 580,180 579,200 C 579,220 560,230 550,230 Z" stroke="#000000" stroke-width="4.0" fill="none"/>
<circle cx="590.0" cy="200.0" r="9.0" stroke="#000000" stroke-width="4.0" fill="none" />
<circle cx="500.0" cy="180.0" r="2.0" stroke="#0000b2" stroke-width="4.0" fill="#0000b2" />
<circle cx="500.0" cy="220.0" r="2.0" stroke="#0000b2" stroke-width="4.0" fill="#0000b2" />
<circle cx="600.0" cy="200.0" r="2.0" stroke="#b20000" stroke-width="4.0" fill="#b20000" />
</g>
<g>
<path d="M 690,170 L 641,170 L 641,110 L 690,110 C 700,110 720,120 719,140 C 719,160 700,170 690,170 Z" stroke="#000000" stroke-width="4.0" fill="none"/>
<circle cx="730.0" cy="140.0" r="9.0" stroke="#000000" stroke-width="4.0" fill="none" />
<circle cx="640.0" cy="120.0" r="2.0" stroke="#0000b2" stroke-width="4.0" fill="#0000b2" />
<circle cx="640.0" cy="160.0" r="2.0" stroke="#0000b2" stroke-width="4.0" fill="#0000b2" />
<circle cx="740.0" cy="140.0" r="2.0" stroke="#b20000" stroke-width="4.0" fill="#b20000" />
</g>
<g>
<path d="M 210,230 L 161,230 L 161,170 L 210,170 C 220,170 240,180 239,200 C 239,220 220,230 210,230 Z" stroke="#000000" stroke-width="4.0" fill="none"/>
<circle cx="250.0" cy="200.0" r="9.0" stroke="#000000" stroke-width="4.0" fill="none" />
<circle cx="160.0" cy="180.0" r="2.0" stroke="#0000b2" stroke-width="4.0" fill="#0000b2" />
<circle cx="160.0" cy="220.0" r="2.0" stroke="#0000b2" stroke-width="4.0" fill="#0000b2" />
<circle cx="260.0" cy="200.0" r="2.0" stroke="#b20000" stroke-width="4.0" fill="#b20000" />
</g>
<g>
<path d="M 210,130 L 161,130 L 161,70 L 210,70 C 220,70 240,80 239,100 C 239,120 220,130 210,130 Z" stroke="#000000" stroke-width="4.0" fill="none"/>
<circle cx="250.0" cy="100.0" r="9.0" stroke="#000000" stroke-width="4.0" fill="none" />
<circle cx="160.0" cy="80.0" r="2.0" stroke="#0000b2" stroke-width="4.0" fill="#0000b2" />
<circle cx="160.0" cy="120.0" r="2.0" stroke="#0000b2" stroke-width="4.0" fill="#0000b2" />
<circle cx="260.0" cy="100.0" r="2.0" stroke="#b20000" stroke-width="4.0" fill="#b20000" />
</g>
<g>
<path d="M 350,170 L 301,170 L 301,110 L 350,110 C 360,110 380,120 379,140 C 379,160 360,170 350,170 Z" stroke="#000000" stroke-width="4.0" fill="none"/>
<circle cx="390.0" cy="140.0" r="9.0" stroke="#000000" stroke-width="4.0" fill="none" />
<circle cx="300.0" cy="120.0" r="2.0" stroke="#0000b2" stroke-width="4.0" fill="#0000b2" />
<circle cx="300.0" cy="160.0" r="2.0" stroke="#0000b2" stroke-width="4.0" fill="#0000b2" />
<circle cx="400.0" cy="140.0" r="2.0" stroke="#b20000" stroke-width="4.0" fill="#b20000" />
</g>
</g>
</svg>