<?xml version="1.0" encoding="UTF-8" standalone="no"?>
<!-- Created with Digital by H.Neemann -->
<!-- created: Tue Jul 18 16:21:40 EDT 2023 -->

<svg
   xmlns:svg="http://www.w3.org/2000/svg"
   xmlns="http://www.w3.org/2000/svg"
   width="87.6mm"
   height="29.1mm"
   viewBox="176 143 584 194">
<g stroke-linecap="square">
<path d="M 240,320 L 300,320" stroke="#0000b2" stroke-width="4.0" fill="none"/>
<path d="M 340,320 L 380,320 L 380,300 L 400,300" stroke="#0000b2" stroke-width="4.0" fill="none"/>
<path d="M 240,240 L 300,240" stroke="#0000b2" stroke-width="4.0" fill="none"/>
<path d="M 340,240 L 380,240 L 380,220 L 400,220" stroke="#0000b2" stroke-width="4.0" fill="none"/>
<path d="M 640,240 L 700,240" stroke="#0000b2" stroke-width="4.0" fill="none"/>
<path d="M 240,160 L 300,160" stroke="#0000b2" stroke-width="4.0" fill="none"/>
<path d="M 340,160 L 380,160 L 380,180 L 400,180" stroke="#0000b2" stroke-width="4.0" fill="none"/>
<path d="M 380,240 L 380,260 L 400,260" stroke="#0000b2" stroke-width="4.0" fill="none"/>
<path d="M 480,200 L 520,200 L 520,220 L 560,220 L 564,220" stroke="#0000b2" stroke-width="4.0" fill="none"/>
<path d="M 480,280 L 520,280 L 520,260 L 560,260 L 564,260" stroke="#0000b2" stroke-width="4.0" fill="none"/>
<g>
<circle cx="380.0" cy="240.0" r="4.0" stroke="#0000b2" stroke-width="4.0" fill="#0000b2" />
</g>
<g>
<path d="M 209,145 L 239,145 L 239,175 L 209,175 Z" stroke="#000000" stroke-width="4.0" fill="none"/>
<circle cx="224.0" cy="160.0" r="9.0" stroke="#000000" stroke-width="4.0" fill="none" />
<text text-anchor="end" x="195.0" y="169.0" fill="#000000" style="font-size:24px"><tspan style="font-style:italic;">A</tspan></text>
<circle cx="240.0" cy="160.0" r="2.0" stroke="#b20000" stroke-width="4.0" fill="#b20000" />
</g>
<g>
<path d="M 209,225 L 239,225 L 239,255 L 209,255 Z" stroke="#000000" stroke-width="4.0" fill="none"/>
<circle cx="224.0" cy="240.0" r="9.0" stroke="#000000" stroke-width="4.0" fill="none" />
<text text-anchor="end" x="195.0" y="249.0" fill="#000000" style="font-size:24px"><tspan style="font-style:italic;">B</tspan></text>
<circle cx="240.0" cy="240.0" r="2.0" stroke="#b20000" stroke-width="4.0" fill="#b20000" />
</g>
<g>
<path d="M 209,305 L 239,305 L 239,335 L 209,335 Z" stroke="#000000" stroke-width="4.0" fill="none"/>
<circle cx="224.0" cy="320.0" r="9.0" stroke="#000000" stroke-width="4.0" fill="none" />
<text text-anchor="end" x="195.0" y="329.0" fill="#000000" style="font-size:24px"><tspan style="font-style:italic;">C</tspan></text>
<circle cx="240.0" cy="320.0" r="2.0" stroke="#b20000" stroke-width="4.0" fill="#b20000" />
</g>
<g>
<circle cx="716.0" cy="240.0" r="9.0" stroke="#000000" stroke-width="4.0" fill="none" />
<circle cx="716.0" cy="240.0" r="15.0" stroke="#000000" stroke-width="4.0" fill="none" />
<text text-anchor="start" x="745.0" y="249.0" fill="#000000" style="font-size:24px"><tspan style="font-style:italic;">F</tspan></text>
<circle cx="700.0" cy="240.0" r="2.0" stroke="#0000b2" stroke-width="4.0" fill="#0000b2" />
</g>
<g>
<path d="M 301,148 L 319,160 L 301,172 Z" stroke="#000000" stroke-width="4.0" fill="none"/>
<circle cx="330.0" cy="160.0" r="9.0" stroke="#000000" stroke-width="4.0" fill="none" />
<circle cx="300.0" cy="160.0" r="2.0" stroke="#0000b2" stroke-width="4.0" fill="#0000b2" />
<circle cx="340.0" cy="160.0" r="2.0" stroke="#b20000" stroke-width="4.0" fill="#b20000" />
</g>
<g>
<path d="M 301,228 L 319,240 L 301,252 Z" stroke="#000000" stroke-width="4.0" fill="none"/>
<circle cx="330.0" cy="240.0" r="9.0" stroke="#000000" stroke-width="4.0" fill="none" />
<circle cx="300.0" cy="240.0" r="2.0" stroke="#0000b2" stroke-width="4.0" fill="#0000b2" />
<circle cx="340.0" cy="240.0" r="2.0" stroke="#b20000" stroke-width="4.0" fill="#b20000" />
</g>
<g>
<path d="M 301,308 L 319,320 L 301,332 Z" stroke="#000000" stroke-width="4.0" fill="none"/>
<circle cx="330.0" cy="320.0" r="9.0" stroke="#000000" stroke-width="4.0" fill="none" />
<circle cx="300.0" cy="320.0" r="2.0" stroke="#0000b2" stroke-width="4.0" fill="#0000b2" />
<circle cx="340.0" cy="320.0" r="2.0" stroke="#b20000" stroke-width="4.0" fill="#b20000" />
</g>
<g>
<path d="M 450,230 L 401,230 L 401,170 L 450,170 C 460,170 480,180 479,200 C 479,220 460,230 450,230 Z" stroke="#000000" stroke-width="4.0" fill="none"/>
<circle cx="400.0" cy="180.0" r="2.0" stroke="#0000b2" stroke-width="4.0" fill="#0000b2" />
<circle cx="400.0" cy="220.0" r="2.0" stroke="#0000b2" stroke-width="4.0" fill="#0000b2" />
<circle cx="480.0" cy="200.0" r="2.0" stroke="#b20000" stroke-width="4.0" fill="#b20000" />
</g>
<g>
<path d="M 590,270 L 560,270 C 570,254 570,226 560,210 L 580,210 C 610,210 630,220 640,240 C 630,260 610,270 590,270 Z" stroke="#000000" stroke-width="4.0" fill="none"/>
<circle cx="560.0" cy="220.0" r="2.0" stroke="#0000b2" stroke-width="4.0" fill="#0000b2" />
<circle cx="560.0" cy="260.0" r="2.0" stroke="#0000b2" stroke-width="4.0" fill="#0000b2" />
<circle cx="640.0" cy="240.0" r="2.0" stroke="#b20000" stroke-width="4.0" fill="#b20000" />
</g>
<g>
<path d="M 450,310 L 401,310 L 401,250 L 450,250 C 460,250 480,260 479,280 C 479,300 460,310 450,310 Z" stroke="#000000" stroke-width="4.0" fill="none"/>
<circle cx="400.0" cy="260.0" r="2.0" stroke="#0000b2" stroke-width="4.0" fill="#0000b2" />
<circle cx="400.0" cy="300.0" r="2.0" stroke="#0000b2" stroke-width="4.0" fill="#0000b2" />
<circle cx="480.0" cy="280.0" r="2.0" stroke="#b20000" stroke-width="4.0" fill="#b20000" />
</g>
</g>
</svg>