<?xml version="1.0" encoding="UTF-8" standalone="no"?>
<!-- Created with Digital by H.Neemann -->
<!-- created: Tue Jul 18 17:19:54 EDT 2023 -->

<svg
   xmlns:svg="http://www.w3.org/2000/svg"
   xmlns="http://www.w3.org/2000/svg"
   width="141.6mm"
   height="32.85mm"
   viewBox="-164 143 944 219">
<g stroke-linecap="square">
<path d="M -100,160 L -60,160 L 260,160 L 260,240 L 280,240 L 284,240" stroke="#0000b2" stroke-width="4.0" fill="none"/>
<path d="M -100,320 L 60,320 L 260,320 L 260,280 L 280,280 L 284,280" stroke="#0000b2" stroke-width="4.0" fill="none"/>
<path d="M -100,240 L -60,240 L -60,280 L -40,280 L -40,260 L -20,260 L -16,260" stroke="#0000b2" stroke-width="4.0" fill="none"/>
<path d="M 220,240 L 240,240 L 240,260 L 280,260 L 287,260" stroke="#0000b2" stroke-width="4.0" fill="none"/>
<path d="M 520,240 L 540,240 L 540,220 L 560,220 L 564,220" stroke="#0000b2" stroke-width="4.0" fill="none"/>
<path d="M 660,240 L 720,240" stroke="#0000b2" stroke-width="4.0" fill="none"/>
<path d="M 380,260 L 400,260 L 400,240 L 420,240 L 427,240" stroke="#0000b2" stroke-width="4.0" fill="none"/>
<path d="M 540,240 L 540,260 L 560,260 L 564,260" stroke="#0000b2" stroke-width="4.0" fill="none"/>
<path d="M 60,320 L 60,360 L 420,360 L 420,260 L 424,260" stroke="#0000b2" stroke-width="4.0" fill="none"/>
<path d="M -60,160 L -60,200 L -40,200 L -40,180 L -20,180 L -16,180" stroke="#0000b2" stroke-width="4.0" fill="none"/>
<path d="M 80,200 L 100,200 L 380,200 L 380,220 L 420,220 L 424,220" stroke="#0000b2" stroke-width="4.0" fill="none"/>
<path d="M 80,280 L 100,280 L 100,260 L 120,260 L 124,260" stroke="#0000b2" stroke-width="4.0" fill="none"/>
<path d="M -40,280 L -40,300 L -20,300 L -16,300" stroke="#0000b2" stroke-width="4.0" fill="none"/>
<path d="M -40,200 L -40,220 L -20,220 L -16,220" stroke="#0000b2" stroke-width="4.0" fill="none"/>
<path d="M 100,200 L 100,220 L 120,220 L 124,220" stroke="#0000b2" stroke-width="4.0" fill="none"/>
<g>
<circle cx="-60.0" cy="160.0" r="4.0" stroke="#0000b2" stroke-width="4.0" fill="#0000b2" />
<circle cx="60.0" cy="320.0" r="4.0" stroke="#0000b2" stroke-width="4.0" fill="#0000b2" />
<circle cx="540.0" cy="240.0" r="4.0" stroke="#0000b2" stroke-width="4.0" fill="#0000b2" />
<circle cx="-40.0" cy="200.0" r="4.0" stroke="#0000b2" stroke-width="4.0" fill="#0000b2" />
<circle cx="100.0" cy="200.0" r="4.0" stroke="#0000b2" stroke-width="4.0" fill="#0000b2" />
<circle cx="-40.0" cy="280.0" r="4.0" stroke="#0000b2" stroke-width="4.0" fill="#0000b2" />
</g>
<g>
<path d="M -131,145 L -101,145 L -101,175 L -131,175 Z" stroke="#000000" stroke-width="4.0" fill="none"/>
<circle cx="-116.0" cy="160.0" r="9.0" stroke="#000000" stroke-width="4.0" fill="none" />
<text text-anchor="end" x="-145.0" y="169.0" fill="#000000" style="font-size:24px"><tspan style="font-style:italic;">A</tspan></text>
<circle cx="-100.0" cy="160.0" r="2.0" stroke="#b20000" stroke-width="4.0" fill="#b20000" />
</g>
<g>
<path d="M -131,225 L -101,225 L -101,255 L -131,255 Z" stroke="#000000" stroke-width="4.0" fill="none"/>
<circle cx="-116.0" cy="240.0" r="9.0" stroke="#000000" stroke-width="4.0" fill="none" />
<text text-anchor="end" x="-145.0" y="249.0" fill="#000000" style="font-size:24px"><tspan style="font-style:italic;">B</tspan></text>
<circle cx="-100.0" cy="240.0" r="2.0" stroke="#b20000" stroke-width="4.0" fill="#b20000" />
</g>
<g>
<path d="M -131,305 L -101,305 L -101,335 L -131,335 Z" stroke="#000000" stroke-width="4.0" fill="none"/>
<circle cx="-116.0" cy="320.0" r="9.0" stroke="#000000" stroke-width="4.0" fill="none" />
<text text-anchor="end" x="-145.0" y="329.0" fill="#000000" style="font-size:24px"><tspan style="font-style:italic;">C</tspan></text>
<circle cx="-100.0" cy="320.0" r="2.0" stroke="#b20000" stroke-width="4.0" fill="#b20000" />
</g>
<g>
<circle cx="736.0" cy="240.0" r="9.0" stroke="#000000" stroke-width="4.0" fill="none" />
<circle cx="736.0" cy="240.0" r="15.0" stroke="#000000" stroke-width="4.0" fill="none" />
<text text-anchor="start" x="765.0" y="249.0" fill="#000000" style="font-size:24px"><tspan style="font-style:italic;">F</tspan></text>
<circle cx="720.0" cy="240.0" r="2.0" stroke="#0000b2" stroke-width="4.0" fill="#0000b2" />
</g>
<g>
<path d="M 450,270 L 420,270 C 430,254 430,226 420,210 L 440,210 C 470,210 490,220 500,240 C 490,260 470,270 450,270 Z" stroke="#000000" stroke-width="4.0" fill="none"/>
<circle cx="510.0" cy="240.0" r="9.0" stroke="#000000" stroke-width="4.0" fill="none" />
<circle cx="420.0" cy="220.0" r="2.0" stroke="#0000b2" stroke-width="4.0" fill="#0000b2" />
<circle cx="420.0" cy="240.0" r="2.0" stroke="#0000b2" stroke-width="4.0" fill="#0000b2" />
<circle cx="420.0" cy="260.0" r="2.0" stroke="#0000b2" stroke-width="4.0" fill="#0000b2" />
<circle cx="520.0" cy="240.0" r="2.0" stroke="#b20000" stroke-width="4.0" fill="#b20000" />
</g>
<g>
<path d="M 590,270 L 560,270 C 570,254 570,226 560,210 L 580,210 C 610,210 630,220 640,240 C 630,260 610,270 590,270 Z" stroke="#000000" stroke-width="4.0" fill="none"/>
<circle cx="650.0" cy="240.0" r="9.0" stroke="#000000" stroke-width="4.0" fill="none" />
<circle cx="560.0" cy="220.0" r="2.0" stroke="#0000b2" stroke-width="4.0" fill="#0000b2" />
<circle cx="560.0" cy="260.0" r="2.0" stroke="#0000b2" stroke-width="4.0" fill="#0000b2" />
<circle cx="660.0" cy="240.0" r="2.0" stroke="#b20000" stroke-width="4.0" fill="#b20000" />
</g>
<g>
<path d="M 10,230 L -20,230 C -10,214 -10,186 -20,170 L 0,170 C 30,170 50,180 60,200 C 50,220 30,230 10,230 Z" stroke="#000000" stroke-width="4.0" fill="none"/>
<circle cx="70.0" cy="200.0" r="9.0" stroke="#000000" stroke-width="4.0" fill="none" />
<circle cx="-20.0" cy="180.0" r="2.0" stroke="#0000b2" stroke-width="4.0" fill="#0000b2" />
<circle cx="-20.0" cy="220.0" r="2.0" stroke="#0000b2" stroke-width="4.0" fill="#0000b2" />
<circle cx="80.0" cy="200.0" r="2.0" stroke="#b20000" stroke-width="4.0" fill="#b20000" />
</g>
<g>
<path d="M 10,310 L -20,310 C -10,294 -10,266 -20,250 L 0,250 C 30,250 50,260 60,280 C 50,300 30,310 10,310 Z" stroke="#000000" stroke-width="4.0" fill="none"/>
<circle cx="70.0" cy="280.0" r="9.0" stroke="#000000" stroke-width="4.0" fill="none" />
<circle cx="-20.0" cy="260.0" r="2.0" stroke="#0000b2" stroke-width="4.0" fill="#0000b2" />
<circle cx="-20.0" cy="300.0" r="2.0" stroke="#0000b2" stroke-width="4.0" fill="#0000b2" />
<circle cx="80.0" cy="280.0" r="2.0" stroke="#b20000" stroke-width="4.0" fill="#b20000" />
</g>
<g>
<path d="M 150,270 L 120,270 C 130,254 130,226 120,210 L 140,210 C 170,210 190,220 200,240 C 190,260 170,270 150,270 Z" stroke="#000000" stroke-width="4.0" fill="none"/>
<circle cx="210.0" cy="240.0" r="9.0" stroke="#000000" stroke-width="4.0" fill="none" />
<circle cx="120.0" cy="220.0" r="2.0" stroke="#0000b2" stroke-width="4.0" fill="#0000b2" />
<circle cx="120.0" cy="260.0" r="2.0" stroke="#0000b2" stroke-width="4.0" fill="#0000b2" />
<circle cx="220.0" cy="240.0" r="2.0" stroke="#b20000" stroke-width="4.0" fill="#b20000" />
</g>
<g>
<path d="M 310,290 L 280,290 C 290,274 290,246 280,230 L 300,230 C 330,230 350,240 360,260 C 350,280 330,290 310,290 Z" stroke="#000000" stroke-width="4.0" fill="none"/>
<circle cx="370.0" cy="260.0" r="9.0" stroke="#000000" stroke-width="4.0" fill="none" />
<circle cx="280.0" cy="240.0" r="2.0" stroke="#0000b2" stroke-width="4.0" fill="#0000b2" />
<circle cx="280.0" cy="260.0" r="2.0" stroke="#0000b2" stroke-width="4.0" fill="#0000b2" />
<circle cx="280.0" cy="280.0" r="2.0" stroke="#0000b2" stroke-width="4.0" fill="#0000b2" />
<circle cx="380.0" cy="260.0" r="2.0" stroke="#b20000" stroke-width="4.0" fill="#b20000" />
</g>
</g>
</svg>