<?xml version="1.0" encoding="UTF-8" standalone="no"?>
<!-- Created with Digital by H.Neemann -->
<!-- created: Tue Jul 18 17:25:52 EDT 2023 -->

<svg
   xmlns:svg="http://www.w3.org/2000/svg"
   xmlns="http://www.w3.org/2000/svg"
   width="54.6mm"
   height="29.1mm"
   viewBox="-4 143 364 194">
<g stroke-linecap="square">
<path d="M 60,160 L 80,160" stroke="#0000b2" stroke-width="4.0" fill="none"/>
<path d="M 120,160 L 160,160 L 160,200 L 180,200 L 184,200" stroke="#0000b2" stroke-width="4.0" fill="none"/>
<path d="M 60,320 L 160,320 L 160,240 L 180,240 L 184,240" stroke="#0000b2" stroke-width="4.0" fill="none"/>
<path d="M 260,220 L 300,220" stroke="#0000b2" stroke-width="4.0" fill="none"/>
<g>
</g>
<g>
<path d="M 29,145 L 59,145 L 59,175 L 29,175 Z" stroke="#000000" stroke-width="4.0" fill="none"/>
<circle cx="44.0" cy="160.0" r="9.0" stroke="#000000" stroke-width="4.0" fill="none" />
<text text-anchor="end" x="15.0" y="169.0" fill="#000000" style="font-size:24px"><tspan style="font-style:italic;">A</tspan></text>
<circle cx="60.0" cy="160.0" r="2.0" stroke="#b20000" stroke-width="4.0" fill="#b20000" />
</g>
<g>
<path d="M 29,225 L 59,225 L 59,255 L 29,255 Z" stroke="#000000" stroke-width="4.0" fill="none"/>
<circle cx="44.0" cy="240.0" r="9.0" stroke="#000000" stroke-width="4.0" fill="none" />
<text text-anchor="end" x="15.0" y="249.0" fill="#000000" style="font-size:24px"><tspan style="font-style:italic;">B</tspan></text>
<circle cx="60.0" cy="240.0" r="2.0" stroke="#b20000" stroke-width="4.0" fill="#b20000" />
</g>
<g>
<path d="M 29,305 L 59,305 L 59,335 L 29,335 Z" stroke="#000000" stroke-width="4.0" fill="none"/>
<circle cx="44.0" cy="320.0" r="9.0" stroke="#000000" stroke-width="4.0" fill="none" />
<text text-anchor="end" x="15.0" y="329.0" fill="#000000" style="font-size:24px"><tspan style="font-style:italic;">C</tspan></text>
<circle cx="60.0" cy="320.0" r="2.0" stroke="#b20000" stroke-width="4.0" fill="#b20000" />
</g>
<g>
<circle cx="316.0" cy="220.0" r="9.0" stroke="#000000" stroke-width="4.0" fill="none" />
<circle cx="316.0" cy="220.0" r="15.0" stroke="#000000" stroke-width="4.0" fill="none" />
<text text-anchor="start" x="345.0" y="229.0" fill="#000000" style="font-size:24px"><tspan style="font-style:italic;">F</tspan></text>
<circle cx="300.0" cy="220.0" r="2.0" stroke="#0000b2" stroke-width="4.0" fill="#0000b2" />
</g>
<g>
<path d="M 81,148 L 99,160 L 81,172 Z" stroke="#000000" stroke-width="4.0" fill="none"/>
<circle cx="110.0" cy="160.0" r="9.0" stroke="#000000" stroke-width="4.0" fill="none" />
<circle cx="80.0" cy="160.0" r="2.0" stroke="#0000b2" stroke-width="4.0" fill="#0000b2" />
<circle cx="120.0" cy="160.0" r="2.0" stroke="#b20000" stroke-width="4.0" fill="#b20000" />
</g>
<g>
<path d="M 210,250 L 180,250 C 190,234 190,206 180,190 L 200,190 C 230,190 250,200 260,220 C 250,240 230,250 210,250 Z" stroke="#000000" stroke-width="4.0" fill="none"/>
<circle cx="180.0" cy="200.0" r="2.0" stroke="#0000b2" stroke-width="4.0" fill="#0000b2" />
<circle cx="180.0" cy="240.0" r="2.0" stroke="#0000b2" stroke-width="4.0" fill="#0000b2" />
<circle cx="260.0" cy="220.0" r="2.0" stroke="#b20000" stroke-width="4.0" fill="#b20000" />
</g>
</g>
</svg>