<?xml version="1.0" encoding="UTF-8" standalone="no"?>
<!-- Created with Digital by H.Neemann -->
<!-- created: Mon Jul 17 09:48:38 EDT 2023 -->

<svg
   xmlns:svg="http://www.w3.org/2000/svg"
   xmlns="http://www.w3.org/2000/svg"
   width="140.4mm"
   height="61.65mm"
   viewBox="41 43 936 411">
<g stroke-linecap="square">
<path d="M 120,160 L 420,160 L 420,180 L 540,180" stroke="#0000b2" stroke-width="4.0" fill="none"/>
<path d="M 120,260 L 420,260 L 420,280 L 540,280" stroke="#0000b2" stroke-width="4.0" fill="none"/>
<path d="M 600,100 L 620,100 L 620,160 L 520,160 L 520,220 L 540,220" stroke="#0000b2" stroke-width="4.0" fill="none"/>
<path d="M 120,100 L 220,100" stroke="#0000b2" stroke-width="4.0" fill="none"/>
<path d="M 260,100 L 540,100" stroke="#0000b2" stroke-width="4.0" fill="none"/>
<path d="M 600,200 L 620,200 L 620,260 L 520,260 L 520,320 L 540,320" stroke="#0000b2" stroke-width="4.0" fill="none"/>
<path d="M 120,200 L 220,200" stroke="#0000b2" stroke-width="4.0" fill="none"/>
<path d="M 260,200 L 540,200" stroke="#0000b2" stroke-width="4.0" fill="none"/>
<path d="M 120,360 L 420,360 L 420,380 L 540,380" stroke="#0000b2" stroke-width="4.0" fill="none"/>
<path d="M 600,300 L 620,300 L 620,360 L 520,360 L 520,420 L 540,420" stroke="#0000b2" stroke-width="4.0" fill="none"/>
<path d="M 120,300 L 220,300" stroke="#0000b2" stroke-width="4.0" fill="none"/>
<path d="M 260,300 L 540,300" stroke="#0000b2" stroke-width="4.0" fill="none"/>
<path d="M 120,400 L 220,400" stroke="#0000b2" stroke-width="4.0" fill="none"/>
<path d="M 260,400 L 540,400" stroke="#0000b2" stroke-width="4.0" fill="none"/>
<path d="M 600,80 L 900,80 L 900,280" stroke="#0000b2" stroke-width="4.0" fill="none"/>
<path d="M 600,180 L 860,180 L 860,320 L 900,320" stroke="#0000b2" stroke-width="4.0" fill="none"/>
<path d="M 600,280 L 820,280 L 820,360 L 900,360" stroke="#0000b2" stroke-width="4.0" fill="none"/>
<path d="M 460,120 L 540,120" stroke="#0000b2" stroke-width="4.0" fill="none"/>
<path d="M 120,60 L 420,60 L 420,80 L 540,80" stroke="#0000b2" stroke-width="4.0" fill="none"/>
<path d="M 600,380 L 780,380 L 780,400 L 900,400" stroke="#0000b2" stroke-width="4.0" fill="none"/>
<g>
</g>
<g>
<path d="M 541,70 L 599,70 L 599,130 L 541,130 Z" stroke="#000000" stroke-width="4.0" fill="none"/>
<text text-anchor="start" x="544.0" y="86.75" fill="#808080" style="font-size:18px">a</text>
<text text-anchor="start" x="544.0" y="106.75" fill="#808080" style="font-size:18px">b</text>
<text text-anchor="start" x="544.0" y="126.75" fill="#808080" style="font-size:18px">c<tspan style="font-size:80%;baseline-shift:sub;">i</tspan></text>
<text text-anchor="end" x="596.0" y="86.75" fill="#808080" style="font-size:18px">s</text>
<text text-anchor="end" x="596.0" y="106.75" fill="#808080" style="font-size:18px">c<tspan style="font-size:80%;baseline-shift:sub;">o</tspan></text>
<text text-anchor="middle" x="570.0" y="147.5" fill="#808080" style="font-size:18px">Add</text>
<circle cx="540.0" cy="80.0" r="2.0" stroke="#0000b2" stroke-width="4.0" fill="#0000b2" />
<circle cx="540.0" cy="100.0" r="2.0" stroke="#0000b2" stroke-width="4.0" fill="#0000b2" />
<circle cx="540.0" cy="120.0" r="2.0" stroke="#0000b2" stroke-width="4.0" fill="#0000b2" />
<circle cx="600.0" cy="80.0" r="2.0" stroke="#b20000" stroke-width="4.0" fill="#b20000" />
<circle cx="600.0" cy="100.0" r="2.0" stroke="#b20000" stroke-width="4.0" fill="#b20000" />
</g>
<g>
<path d="M 541,170 L 599,170 L 599,230 L 541,230 Z" stroke="#000000" stroke-width="4.0" fill="none"/>
<text text-anchor="start" x="544.0" y="186.75" fill="#808080" style="font-size:18px">a</text>
<text text-anchor="start" x="544.0" y="206.75" fill="#808080" style="font-size:18px">b</text>
<text text-anchor="start" x="544.0" y="226.75" fill="#808080" style="font-size:18px">c<tspan style="font-size:80%;baseline-shift:sub;">i</tspan></text>
<text text-anchor="end" x="596.0" y="186.75" fill="#808080" style="font-size:18px">s</text>
<text text-anchor="end" x="596.0" y="206.75" fill="#808080" style="font-size:18px">c<tspan style="font-size:80%;baseline-shift:sub;">o</tspan></text>
<text text-anchor="middle" x="570.0" y="247.5" fill="#808080" style="font-size:18px">Add</text>
<circle cx="540.0" cy="180.0" r="2.0" stroke="#0000b2" stroke-width="4.0" fill="#0000b2" />
<circle cx="540.0" cy="200.0" r="2.0" stroke="#0000b2" stroke-width="4.0" fill="#0000b2" />
<circle cx="540.0" cy="220.0" r="2.0" stroke="#0000b2" stroke-width="4.0" fill="#0000b2" />
<circle cx="600.0" cy="180.0" r="2.0" stroke="#b20000" stroke-width="4.0" fill="#b20000" />
<circle cx="600.0" cy="200.0" r="2.0" stroke="#b20000" stroke-width="4.0" fill="#b20000" />
</g>
<g>
<path d="M 541,270 L 599,270 L 599,330 L 541,330 Z" stroke="#000000" stroke-width="4.0" fill="none"/>
<text text-anchor="start" x="544.0" y="286.75" fill="#808080" style="font-size:18px">a</text>
<text text-anchor="start" x="544.0" y="306.75" fill="#808080" style="font-size:18px">b</text>
<text text-anchor="start" x="544.0" y="326.75" fill="#808080" style="font-size:18px">c<tspan style="font-size:80%;baseline-shift:sub;">i</tspan></text>
<text text-anchor="end" x="596.0" y="286.75" fill="#808080" style="font-size:18px">s</text>
<text text-anchor="end" x="596.0" y="306.75" fill="#808080" style="font-size:18px">c<tspan style="font-size:80%;baseline-shift:sub;">o</tspan></text>
<text text-anchor="middle" x="570.0" y="347.5" fill="#808080" style="font-size:18px">Add</text>
<circle cx="540.0" cy="280.0" r="2.0" stroke="#0000b2" stroke-width="4.0" fill="#0000b2" />
<circle cx="540.0" cy="300.0" r="2.0" stroke="#0000b2" stroke-width="4.0" fill="#0000b2" />
<circle cx="540.0" cy="320.0" r="2.0" stroke="#0000b2" stroke-width="4.0" fill="#0000b2" />
<circle cx="600.0" cy="280.0" r="2.0" stroke="#b20000" stroke-width="4.0" fill="#b20000" />
<circle cx="600.0" cy="300.0" r="2.0" stroke="#b20000" stroke-width="4.0" fill="#b20000" />
</g>
<g>
<path d="M 541,370 L 599,370 L 599,430 L 541,430 Z" stroke="#000000" stroke-width="4.0" fill="none"/>
<text text-anchor="start" x="544.0" y="386.75" fill="#808080" style="font-size:18px">a</text>
<text text-anchor="start" x="544.0" y="406.75" fill="#808080" style="font-size:18px">b</text>
<text text-anchor="start" x="544.0" y="426.75" fill="#808080" style="font-size:18px">c<tspan style="font-size:80%;baseline-shift:sub;">i</tspan></text>
<text text-anchor="end" x="596.0" y="386.75" fill="#808080" style="font-size:18px">s</text>
<text text-anchor="end" x="596.0" y="406.75" fill="#808080" style="font-size:18px">c<tspan style="font-size:80%;baseline-shift:sub;">o</tspan></text>
<text text-anchor="middle" x="570.0" y="447.5" fill="#808080" style="font-size:18px">Add</text>
<circle cx="540.0" cy="380.0" r="2.0" stroke="#0000b2" stroke-width="4.0" fill="#0000b2" />
<circle cx="540.0" cy="400.0" r="2.0" stroke="#0000b2" stroke-width="4.0" fill="#0000b2" />
<circle cx="540.0" cy="420.0" r="2.0" stroke="#0000b2" stroke-width="4.0" fill="#0000b2" />
<circle cx="600.0" cy="380.0" r="2.0" stroke="#b20000" stroke-width="4.0" fill="#b20000" />
<circle cx="600.0" cy="400.0" r="2.0" stroke="#b20000" stroke-width="4.0" fill="#b20000" />
</g>
<g>
<circle cx="916.0" cy="280.0" r="9.0" stroke="#000000" stroke-width="4.0" fill="none" />
<circle cx="916.0" cy="280.0" r="15.0" stroke="#000000" stroke-width="4.0" fill="none" />
<text text-anchor="start" x="945.0" y="289.0" fill="#000000" style="font-size:24px"><tspan style="font-style:italic;">Y<tspan style="font-size:80%;baseline-shift:sub;">0</tspan></tspan></text>
<circle cx="900.0" cy="280.0" r="2.0" stroke="#0000b2" stroke-width="4.0" fill="#0000b2" />
</g>
<g>
<circle cx="916.0" cy="320.0" r="9.0" stroke="#000000" stroke-width="4.0" fill="none" />
<circle cx="916.0" cy="320.0" r="15.0" stroke="#000000" stroke-width="4.0" fill="none" />
<text text-anchor="start" x="945.0" y="329.0" fill="#000000" style="font-size:24px"><tspan style="font-style:italic;">Y<tspan style="font-size:80%;baseline-shift:sub;">1</tspan></tspan></text>
<circle cx="900.0" cy="320.0" r="2.0" stroke="#0000b2" stroke-width="4.0" fill="#0000b2" />
</g>
<g>
<circle cx="916.0" cy="360.0" r="9.0" stroke="#000000" stroke-width="4.0" fill="none" />
<circle cx="916.0" cy="360.0" r="15.0" stroke="#000000" stroke-width="4.0" fill="none" />
<text text-anchor="start" x="945.0" y="369.0" fill="#000000" style="font-size:24px"><tspan style="font-style:italic;">Y<tspan style="font-size:80%;baseline-shift:sub;">2</tspan></tspan></text>
<circle cx="900.0" cy="360.0" r="2.0" stroke="#0000b2" stroke-width="4.0" fill="#0000b2" />
</g>
<g>
<circle cx="916.0" cy="400.0" r="9.0" stroke="#000000" stroke-width="4.0" fill="none" />
<circle cx="916.0" cy="400.0" r="15.0" stroke="#000000" stroke-width="4.0" fill="none" />
<text text-anchor="start" x="945.0" y="409.0" fill="#000000" style="font-size:24px"><tspan style="font-style:italic;">Y<tspan style="font-size:80%;baseline-shift:sub;">3</tspan></tspan></text>
<circle cx="900.0" cy="400.0" r="2.0" stroke="#0000b2" stroke-width="4.0" fill="#0000b2" />
</g>
<g>
<path d="M 89,45 L 119,45 L 119,75 L 89,75 Z" stroke="#000000" stroke-width="4.0" fill="none"/>
<circle cx="104.0" cy="60.0" r="9.0" stroke="#000000" stroke-width="4.0" fill="none" />
<text text-anchor="end" x="75.0" y="69.0" fill="#000000" style="font-size:24px"><tspan style="font-style:italic;">A<tspan style="font-size:80%;baseline-shift:sub;">0</tspan></tspan></text>
<circle cx="120.0" cy="60.0" r="2.0" stroke="#b20000" stroke-width="4.0" fill="#b20000" />
</g>
<g>
<path d="M 89,85 L 119,85 L 119,115 L 89,115 Z" stroke="#000000" stroke-width="4.0" fill="none"/>
<circle cx="104.0" cy="100.0" r="9.0" stroke="#000000" stroke-width="4.0" fill="none" />
<text text-anchor="end" x="75.0" y="109.0" fill="#000000" style="font-size:24px"><tspan style="font-style:italic;">B<tspan style="font-size:80%;baseline-shift:sub;">0</tspan></tspan></text>
<circle cx="120.0" cy="100.0" r="2.0" stroke="#b20000" stroke-width="4.0" fill="#b20000" />
</g>
<g>
<path d="M 89,145 L 119,145 L 119,175 L 89,175 Z" stroke="#000000" stroke-width="4.0" fill="none"/>
<circle cx="104.0" cy="160.0" r="9.0" stroke="#000000" stroke-width="4.0" fill="none" />
<text text-anchor="end" x="75.0" y="169.0" fill="#000000" style="font-size:24px"><tspan style="font-style:italic;">A<tspan style="font-size:80%;baseline-shift:sub;">1</tspan></tspan></text>
<circle cx="120.0" cy="160.0" r="2.0" stroke="#b20000" stroke-width="4.0" fill="#b20000" />
</g>
<g>
<path d="M 89,185 L 119,185 L 119,215 L 89,215 Z" stroke="#000000" stroke-width="4.0" fill="none"/>
<circle cx="104.0" cy="200.0" r="9.0" stroke="#000000" stroke-width="4.0" fill="none" />
<text text-anchor="end" x="75.0" y="209.0" fill="#000000" style="font-size:24px"><tspan style="font-style:italic;">B<tspan style="font-size:80%;baseline-shift:sub;">1</tspan></tspan></text>
<circle cx="120.0" cy="200.0" r="2.0" stroke="#b20000" stroke-width="4.0" fill="#b20000" />
</g>
<g>
<path d="M 89,245 L 119,245 L 119,275 L 89,275 Z" stroke="#000000" stroke-width="4.0" fill="none"/>
<circle cx="104.0" cy="260.0" r="9.0" stroke="#000000" stroke-width="4.0" fill="none" />
<text text-anchor="end" x="75.0" y="269.0" fill="#000000" style="font-size:24px"><tspan style="font-style:italic;">A<tspan style="font-size:80%;baseline-shift:sub;">2</tspan></tspan></text>
<circle cx="120.0" cy="260.0" r="2.0" stroke="#b20000" stroke-width="4.0" fill="#b20000" />
</g>
<g>
<path d="M 89,285 L 119,285 L 119,315 L 89,315 Z" stroke="#000000" stroke-width="4.0" fill="none"/>
<circle cx="104.0" cy="300.0" r="9.0" stroke="#000000" stroke-width="4.0" fill="none" />
<text text-anchor="end" x="75.0" y="309.0" fill="#000000" style="font-size:24px"><tspan style="font-style:italic;">B<tspan style="font-size:80%;baseline-shift:sub;">2</tspan></tspan></text>
<circle cx="120.0" cy="300.0" r="2.0" stroke="#b20000" stroke-width="4.0" fill="#b20000" />
</g>
<g>
<path d="M 89,345 L 119,345 L 119,375 L 89,375 Z" stroke="#000000" stroke-width="4.0" fill="none"/>
<circle cx="104.0" cy="360.0" r="9.0" stroke="#000000" stroke-width="4.0" fill="none" />
<text text-anchor="end" x="75.0" y="369.0" fill="#000000" style="font-size:24px"><tspan style="font-style:italic;">A<tspan style="font-size:80%;baseline-shift:sub;">3</tspan></tspan></text>
<circle cx="120.0" cy="360.0" r="2.0" stroke="#b20000" stroke-width="4.0" fill="#b20000" />
</g>
<g>
<path d="M 89,385 L 119,385 L 119,415 L 89,415 Z" stroke="#000000" stroke-width="4.0" fill="none"/>
<circle cx="104.0" cy="400.0" r="9.0" stroke="#000000" stroke-width="4.0" fill="none" />
<text text-anchor="end" x="75.0" y="409.0" fill="#000000" style="font-size:24px"><tspan style="font-style:italic;">B<tspan style="font-size:80%;baseline-shift:sub;">3</tspan></tspan></text>
<circle cx="120.0" cy="400.0" r="2.0" stroke="#b20000" stroke-width="4.0" fill="#b20000" />
</g>
<g>
<text text-anchor="end" x="457.0" y="129.0" fill="#000000" style="font-size:24px">1</text>
<circle cx="460.0" cy="120.0" r="2.0" stroke="#b20000" stroke-width="4.0" fill="#b20000" />
</g>
<g>
<path d="M 221,88 L 239,100 L 221,112 Z" stroke="#000000" stroke-width="4.0" fill="none"/>
<circle cx="250.0" cy="100.0" r="9.0" stroke="#000000" stroke-width="4.0" fill="none" />
<circle cx="220.0" cy="100.0" r="2.0" stroke="#0000b2" stroke-width="4.0" fill="#0000b2" />
<circle cx="260.0" cy="100.0" r="2.0" stroke="#b20000" stroke-width="4.0" fill="#b20000" />
</g>
<g>
<path d="M 221,188 L 239,200 L 221,212 Z" stroke="#000000" stroke-width="4.0" fill="none"/>
<circle cx="250.0" cy="200.0" r="9.0" stroke="#000000" stroke-width="4.0" fill="none" />
<circle cx="220.0" cy="200.0" r="2.0" stroke="#0000b2" stroke-width="4.0" fill="#0000b2" />
<circle cx="260.0" cy="200.0" r="2.0" stroke="#b20000" stroke-width="4.0" fill="#b20000" />
</g>
<g>
<path d="M 221,288 L 239,300 L 221,312 Z" stroke="#000000" stroke-width="4.0" fill="none"/>
<circle cx="250.0" cy="300.0" r="9.0" stroke="#000000" stroke-width="4.0" fill="none" />
<circle cx="220.0" cy="300.0" r="2.0" stroke="#0000b2" stroke-width="4.0" fill="#0000b2" />
<circle cx="260.0" cy="300.0" r="2.0" stroke="#b20000" stroke-width="4.0" fill="#b20000" />
</g>
<g>
<path d="M 221,388 L 239,400 L 221,412 Z" stroke="#000000" stroke-width="4.0" fill="none"/>
<circle cx="250.0" cy="400.0" r="9.0" stroke="#000000" stroke-width="4.0" fill="none" />
<circle cx="220.0" cy="400.0" r="2.0" stroke="#0000b2" stroke-width="4.0" fill="#0000b2" />
<circle cx="260.0" cy="400.0" r="2.0" stroke="#b20000" stroke-width="4.0" fill="#b20000" />
</g>
</g>
</svg>