<?xml version="1.0" encoding="UTF-8" standalone="no"?>
<!-- Created with Digital by H.Neemann -->
<!-- created: Sun Aug 13 14:42:46 EDT 2023 -->

<svg
   xmlns:svg="http://www.w3.org/2000/svg"
   xmlns="http://www.w3.org/2000/svg"
   width="123.75mm"
   height="61.35mm"
   viewBox="395 168 825 409">
<g stroke-linecap="square">
<path d="M 460,320 L 500,320 L 520,320 L 520,360 L 540,360 L 540,340 L 560,340" stroke="#0000b2" stroke-width="4.0" fill="none"/>
<path d="M 1100,320 L 1160,320" stroke="#0000b2" stroke-width="4.0" fill="none"/>
<path d="M 920,320 L 1000,320" stroke="#0000b2" stroke-width="4.0" fill="none"/>
<path d="M 460,480 L 500,480 L 540,480 L 540,460 L 560,460" stroke="#0000b2" stroke-width="4.0" fill="none"/>
<path d="M 660,480 L 700,480 L 700,200 L 820,200" stroke="#0000b2" stroke-width="4.0" fill="none"/>
<path d="M 520,240 L 520,260 L 540,260" stroke="#0000b2" stroke-width="4.0" fill="none"/>
<path d="M 500,320 L 500,420 L 740,420 L 740,520 L 820,520" stroke="#0000b2" stroke-width="4.0" fill="none"/>
<path d="M 920,200 L 960,200 L 960,300 L 1000,300" stroke="#0000b2" stroke-width="4.0" fill="none"/>
<path d="M 660,360 L 680,360 L 680,320 L 820,320" stroke="#0000b2" stroke-width="4.0" fill="none"/>
<path d="M 500,240 L 500,300 L 820,300" stroke="#0000b2" stroke-width="4.0" fill="none"/>
<path d="M 460,560 L 780,560 L 820,560" stroke="#0000b2" stroke-width="4.0" fill="none"/>
<path d="M 460,240 L 500,240 L 520,240 L 520,220 L 540,220" stroke="#0000b2" stroke-width="4.0" fill="none"/>
<path d="M 640,240 L 660,240 L 660,180 L 820,180" stroke="#0000b2" stroke-width="4.0" fill="none"/>
<path d="M 540,480 L 540,500 L 560,500" stroke="#0000b2" stroke-width="4.0" fill="none"/>
<path d="M 500,480 L 500,540 L 820,540" stroke="#0000b2" stroke-width="4.0" fill="none"/>
<path d="M 920,540 L 960,540 L 960,340 L 1000,340" stroke="#0000b2" stroke-width="4.0" fill="none"/>
<path d="M 540,360 L 540,380 L 560,380" stroke="#0000b2" stroke-width="4.0" fill="none"/>
<path d="M 820,340 L 780,340 L 780,220 L 820,220" stroke="#0000b2" stroke-width="4.0" fill="none"/>
<path d="M 780,340 L 780,560" stroke="#0000b2" stroke-width="4.0" fill="none"/>
<g>
<circle cx="500.0" cy="320.0" r="4.0" stroke="#0000b2" stroke-width="4.0" fill="#0000b2" />
<circle cx="500.0" cy="480.0" r="4.0" stroke="#0000b2" stroke-width="4.0" fill="#0000b2" />
<circle cx="540.0" cy="480.0" r="4.0" stroke="#0000b2" stroke-width="4.0" fill="#0000b2" />
<circle cx="540.0" cy="360.0" r="4.0" stroke="#0000b2" stroke-width="4.0" fill="#0000b2" />
<circle cx="780.0" cy="560.0" r="4.0" stroke="#0000b2" stroke-width="4.0" fill="#0000b2" />
<circle cx="500.0" cy="240.0" r="4.0" stroke="#0000b2" stroke-width="4.0" fill="#0000b2" />
<circle cx="520.0" cy="240.0" r="4.0" stroke="#0000b2" stroke-width="4.0" fill="#0000b2" />
<circle cx="780.0" cy="340.0" r="4.0" stroke="#0000b2" stroke-width="4.0" fill="#0000b2" />
</g>
<g>
<path d="M 429,225 L 459,225 L 459,255 L 429,255 Z" stroke="#000000" stroke-width="4.0" fill="none"/>
<circle cx="444.0" cy="240.0" r="9.0" stroke="#000000" stroke-width="4.0" fill="none" />
<text text-anchor="end" x="415.0" y="249.0" fill="#000000" style="font-size:24px"><tspan style="font-style:italic;">A</tspan></text>
<circle cx="460.0" cy="240.0" r="2.0" stroke="#b20000" stroke-width="4.0" fill="#b20000" />
</g>
<g>
<path d="M 429,305 L 459,305 L 459,335 L 429,335 Z" stroke="#000000" stroke-width="4.0" fill="none"/>
<circle cx="444.0" cy="320.0" r="9.0" stroke="#000000" stroke-width="4.0" fill="none" />
<text text-anchor="end" x="415.0" y="329.0" fill="#000000" style="font-size:24px"><tspan style="font-style:italic;">B</tspan></text>
<circle cx="460.0" cy="320.0" r="2.0" stroke="#b20000" stroke-width="4.0" fill="#b20000" />
</g>
<g>
<path d="M 429,465 L 459,465 L 459,495 L 429,495 Z" stroke="#000000" stroke-width="4.0" fill="none"/>
<circle cx="444.0" cy="480.0" r="9.0" stroke="#000000" stroke-width="4.0" fill="none" />
<text text-anchor="end" x="415.0" y="489.0" fill="#000000" style="font-size:24px"><tspan style="font-style:italic;">C</tspan></text>
<circle cx="460.0" cy="480.0" r="2.0" stroke="#b20000" stroke-width="4.0" fill="#b20000" />
</g>
<g>
<path d="M 429,545 L 459,545 L 459,575 L 429,575 Z" stroke="#000000" stroke-width="4.0" fill="none"/>
<circle cx="444.0" cy="560.0" r="9.0" stroke="#000000" stroke-width="4.0" fill="none" />
<text text-anchor="end" x="415.0" y="569.0" fill="#000000" style="font-size:24px"><tspan style="font-style:italic;">D</tspan></text>
<circle cx="460.0" cy="560.0" r="2.0" stroke="#b20000" stroke-width="4.0" fill="#b20000" />
</g>
<g>
<circle cx="1176.0" cy="320.0" r="9.0" stroke="#000000" stroke-width="4.0" fill="none" />
<circle cx="1176.0" cy="320.0" r="15.0" stroke="#000000" stroke-width="4.0" fill="none" />
<text text-anchor="start" x="1205.0" y="329.0" fill="#000000" style="font-size:24px"><tspan style="font-style:italic;">S</tspan></text>
<circle cx="1160.0" cy="320.0" r="2.0" stroke="#0000b2" stroke-width="4.0" fill="#0000b2" />
</g>
<g>
<path d="M 590,270 L 541,270 L 541,210 L 590,210 C 600,210 620,220 619,240 C 619,260 600,270 590,270 Z" stroke="#000000" stroke-width="4.0" fill="none"/>
<circle cx="630.0" cy="240.0" r="9.0" stroke="#000000" stroke-width="4.0" fill="none" />
<circle cx="540.0" cy="220.0" r="2.0" stroke="#0000b2" stroke-width="4.0" fill="#0000b2" />
<circle cx="540.0" cy="260.0" r="2.0" stroke="#0000b2" stroke-width="4.0" fill="#0000b2" />
<circle cx="640.0" cy="240.0" r="2.0" stroke="#b20000" stroke-width="4.0" fill="#b20000" />
</g>
<g>
<path d="M 610,390 L 561,390 L 561,330 L 610,330 C 620,330 640,340 639,360 C 639,380 620,390 610,390 Z" stroke="#000000" stroke-width="4.0" fill="none"/>
<circle cx="650.0" cy="360.0" r="9.0" stroke="#000000" stroke-width="4.0" fill="none" />
<circle cx="560.0" cy="340.0" r="2.0" stroke="#0000b2" stroke-width="4.0" fill="#0000b2" />
<circle cx="560.0" cy="380.0" r="2.0" stroke="#0000b2" stroke-width="4.0" fill="#0000b2" />
<circle cx="660.0" cy="360.0" r="2.0" stroke="#b20000" stroke-width="4.0" fill="#b20000" />
</g>
<g>
<path d="M 610,510 L 561,510 L 561,450 L 610,450 C 620,450 640,460 639,480 C 639,500 620,510 610,510 Z" stroke="#000000" stroke-width="4.0" fill="none"/>
<circle cx="650.0" cy="480.0" r="9.0" stroke="#000000" stroke-width="4.0" fill="none" />
<circle cx="560.0" cy="460.0" r="2.0" stroke="#0000b2" stroke-width="4.0" fill="#0000b2" />
<circle cx="560.0" cy="500.0" r="2.0" stroke="#0000b2" stroke-width="4.0" fill="#0000b2" />
<circle cx="660.0" cy="480.0" r="2.0" stroke="#b20000" stroke-width="4.0" fill="#b20000" />
</g>
<g>
<path d="M 870,230 L 821,230 L 821,170 L 870,170 C 880,170 900,180 899,200 C 899,220 880,230 870,230 Z" stroke="#000000" stroke-width="4.0" fill="none"/>
<circle cx="910.0" cy="200.0" r="9.0" stroke="#000000" stroke-width="4.0" fill="none" />
<circle cx="820.0" cy="180.0" r="2.0" stroke="#0000b2" stroke-width="4.0" fill="#0000b2" />
<circle cx="820.0" cy="200.0" r="2.0" stroke="#0000b2" stroke-width="4.0" fill="#0000b2" />
<circle cx="820.0" cy="220.0" r="2.0" stroke="#0000b2" stroke-width="4.0" fill="#0000b2" />
<circle cx="920.0" cy="200.0" r="2.0" stroke="#b20000" stroke-width="4.0" fill="#b20000" />
</g>
<g>
<path d="M 870,350 L 821,350 L 821,290 L 870,290 C 880,290 900,300 899,320 C 899,340 880,350 870,350 Z" stroke="#000000" stroke-width="4.0" fill="none"/>
<circle cx="910.0" cy="320.0" r="9.0" stroke="#000000" stroke-width="4.0" fill="none" />
<circle cx="820.0" cy="300.0" r="2.0" stroke="#0000b2" stroke-width="4.0" fill="#0000b2" />
<circle cx="820.0" cy="320.0" r="2.0" stroke="#0000b2" stroke-width="4.0" fill="#0000b2" />
<circle cx="820.0" cy="340.0" r="2.0" stroke="#0000b2" stroke-width="4.0" fill="#0000b2" />
<circle cx="920.0" cy="320.0" r="2.0" stroke="#b20000" stroke-width="4.0" fill="#b20000" />
</g>
<g>
<path d="M 870,570 L 821,570 L 821,510 L 870,510 C 880,510 900,520 899,540 C 899,560 880,570 870,570 Z" stroke="#000000" stroke-width="4.0" fill="none"/>
<circle cx="910.0" cy="540.0" r="9.0" stroke="#000000" stroke-width="4.0" fill="none" />
<circle cx="820.0" cy="520.0" r="2.0" stroke="#0000b2" stroke-width="4.0" fill="#0000b2" />
<circle cx="820.0" cy="540.0" r="2.0" stroke="#0000b2" stroke-width="4.0" fill="#0000b2" />
<circle cx="820.0" cy="560.0" r="2.0" stroke="#0000b2" stroke-width="4.0" fill="#0000b2" />
<circle cx="920.0" cy="540.0" r="2.0" stroke="#b20000" stroke-width="4.0" fill="#b20000" />
</g>
<g>
<path d="M 1050,350 L 1001,350 L 1001,290 L 1050,290 C 1060,290 1080,300 1079,320 C 1079,340 1060,350 1050,350 Z" stroke="#000000" stroke-width="4.0" fill="none"/>
<circle cx="1090.0" cy="320.0" r="9.0" stroke="#000000" stroke-width="4.0" fill="none" />
<circle cx="1000.0" cy="300.0" r="2.0" stroke="#0000b2" stroke-width="4.0" fill="#0000b2" />
<circle cx="1000.0" cy="320.0" r="2.0" stroke="#0000b2" stroke-width="4.0" fill="#0000b2" />
<circle cx="1000.0" cy="340.0" r="2.0" stroke="#0000b2" stroke-width="4.0" fill="#0000b2" />
<circle cx="1100.0" cy="320.0" r="2.0" stroke="#b20000" stroke-width="4.0" fill="#b20000" />
</g>
</g>
</svg>