<?xml version="1.0" encoding="utf-8" standalone="no"?>
<!DOCTYPE svg PUBLIC "-//W3C//DTD SVG 1.1//EN"
  "http://www.w3.org/Graphics/SVG/1.1/DTD/svg11.dtd">
<svg xmlns:xlink="http://www.w3.org/1999/xlink" width="174.5298pt" height="101.95pt" viewBox="0 0 174.5298 101.95" xmlns="http://www.w3.org/2000/svg" version="1.1">
 <metadata>
  <rdf:RDF xmlns:dc="http://purl.org/dc/elements/1.1/" xmlns:cc="http://creativecommons.org/ns#" xmlns:rdf="http://www.w3.org/1999/02/22-rdf-syntax-ns#">
   <cc:Work>
    <dc:type rdf:resource="http://purl.org/dc/dcmitype/StillImage"/>
    <dc:date>2022-01-15T08:42:41.590717</dc:date>
    <dc:format>image/svg+xml</dc:format>
    <dc:creator>
     <cc:Agent>
      <dc:title>Matplotlib v3.5.1, https://matplotlib.org/</dc:title>
     </cc:Agent>
    </dc:creator>
   </cc:Work>
  </rdf:RDF>
 </metadata>
 <defs>
  <style type="text/css">*{stroke-linejoin: round; stroke-linecap: butt}</style>
 </defs>
 <g id="figure_1">
  <g id="patch_1">
   <path d="M 0 101.95 
L 174.5298 101.95 
L 174.5298 0 
L 0 0 
L 0 101.95 
z
" style="fill: none"/>
  </g>
  <g id="axes_1">
   <g id="patch_2">
    <path d="M 77.0088 38.582 
C 77.982626 38.582 78.916697 38.195095 79.605296 37.506496 
C 80.293895 36.817897 80.6808 35.883826 80.6808 34.91 
C 80.6808 33.936174 80.293895 33.002103 79.605296 32.313504 
C 78.916697 31.624905 77.982626 31.238 77.0088 31.238 
C 76.034974 31.238 75.100903 31.624905 74.412304 32.313504 
C 73.723705 33.002103 73.3368 33.936174 73.3368 34.91 
C 73.3368 35.883826 73.723705 36.817897 74.412304 37.506496 
C 75.100903 38.195095 76.034974 38.582 77.0088 38.582 
L 77.0088 38.582 
z
" clip-path="url(#p2491a78a42)" style="fill: none; stroke: #000000; stroke-width: 2; stroke-linejoin: miter"/>
   </g>
   <g id="patch_3">
    <path d="M 77.0088 76.832 
C 77.982626 76.832 78.916697 76.445095 79.605296 75.756496 
C 80.293895 75.067897 80.6808 74.133826 80.6808 73.16 
C 80.6808 72.186174 80.293895 71.252103 79.605296 70.563504 
C 78.916697 69.874905 77.982626 69.488 77.0088 69.488 
C 76.034974 69.488 75.100903 69.874905 74.412304 70.563504 
C 73.723705 71.252103 73.3368 72.186174 73.3368 73.16 
C 73.3368 74.133826 73.723705 75.067897 74.412304 75.756496 
C 75.100903 76.445095 76.034974 76.832 77.0088 76.832 
L 77.0088 76.832 
z
" clip-path="url(#p2491a78a42)" style="fill: none; stroke: #000000; stroke-width: 2; stroke-linejoin: miter"/>
   </g>
   <g id="patch_4">
    <path d="M 96.51936 65.357 
C 97.493186 65.357 98.427257 64.970095 99.115856 64.281496 
C 99.804455 63.592897 100.19136 62.658826 100.19136 61.685 
C 100.19136 60.711174 99.804455 59.777103 99.115856 59.088504 
C 98.427257 58.399905 97.493186 58.013 96.51936 58.013 
C 95.545534 58.013 94.611463 58.399905 93.922864 59.088504 
C 93.234265 59.777103 92.84736 60.711174 92.84736 61.685 
C 92.84736 62.658826 93.234265 63.592897 93.922864 64.281496 
C 94.611463 64.970095 95.545534 65.357 96.51936 65.357 
L 96.51936 65.357 
z
" clip-path="url(#p2491a78a42)" style="fill: none; stroke: #000000; stroke-width: 2; stroke-linejoin: miter"/>
   </g>
   <g id="patch_5">
    <path d="M 96.51936 50.057 
C 97.493186 50.057 98.427257 49.670095 99.115856 48.981496 
C 99.804455 48.292897 100.19136 47.358826 100.19136 46.385 
C 100.19136 45.411174 99.804455 44.477103 99.115856 43.788504 
C 98.427257 43.099905 97.493186 42.713 96.51936 42.713 
C 95.545534 42.713 94.611463 43.099905 93.922864 43.788504 
C 93.234265 44.477103 92.84736 45.411174 92.84736 46.385 
C 92.84736 47.358826 93.234265 48.292897 93.922864 48.981496 
C 94.611463 49.670095 95.545534 50.057 96.51936 50.057 
L 96.51936 50.057 
z
" clip-path="url(#p2491a78a42)" style="fill: none; stroke: #000000; stroke-width: 2; stroke-linejoin: miter"/>
   </g>
   <g id="line2d_1">
    <path d="M 58.0368 50.21 
L 59.017074 50.178565 
L 59.993321 50.084387 
L 60.961527 49.927855 
L 61.917715 49.709611 
L 62.857956 49.430553 
L 63.778385 49.091826 
L 64.675221 48.694824 
L 65.544779 48.241176 
L 66.383484 47.732748 
L 67.187891 47.171628 
L 67.954694 46.560123 
L 68.680743 45.900745 
L 69.363053 45.196204 
L 69.998822 44.449394 
L 70.585435 43.663385 
L 71.120484 42.841406 
L 71.601769 41.986836 
L 72.027313 41.103185 
L 72.395367 40.194085 
L 72.704418 39.263272 
L 72.953197 38.31457 
L 73.140681 37.351878 
L 73.2661 36.379152 
L 73.328939 35.400389 
L 73.328939 34.419611 
L 73.2661 33.440848 
L 73.140681 32.468122 
L 72.953197 31.50543 
L 72.704418 30.556728 
L 72.395367 29.625915 
L 72.027313 28.716815 
L 71.601769 27.833164 
L 71.120484 26.978594 
L 70.585435 26.156615 
L 69.998822 25.370606 
L 69.363053 24.623796 
L 68.680743 23.919255 
L 67.954694 23.259877 
L 67.187891 22.648372 
L 66.383484 22.087252 
L 65.544779 21.578824 
L 64.675221 21.125176 
L 63.778385 20.728174 
L 62.857956 20.389447 
L 61.917715 20.110389 
L 60.961527 19.892145 
L 59.993321 19.735613 
L 59.017074 19.641435 
L 58.0368 19.61 
L 58.0368 19.61 
L 38.1468 19.61 
L 38.1468 34.91 
L 38.1468 50.21 
L 58.0368 50.21 
" clip-path="url(#p2491a78a42)" style="fill: none; stroke: #000000; stroke-width: 2; stroke-linecap: round"/>
   </g>
   <g id="line2d_2">
    <path d="M 27.4368 42.56 
L 38.1468 42.56 
" clip-path="url(#p2491a78a42)" style="fill: none; stroke: #000000; stroke-width: 2; stroke-linecap: round"/>
   </g>
   <g id="line2d_3">
    <path d="M 27.4368 27.26 
L 38.1468 27.26 
" clip-path="url(#p2491a78a42)" style="fill: none; stroke: #000000; stroke-width: 2; stroke-linecap: round"/>
   </g>
   <g id="line2d_4">
    <path d="M 80.6808 34.91 
L 84.0468 34.91 
" clip-path="url(#p2491a78a42)" style="fill: none; stroke: #000000; stroke-width: 2; stroke-linecap: round"/>
   </g>
   <g id="line2d_5">
    <path d="M 58.0368 88.46 
L 59.017074 88.428565 
L 59.993321 88.334387 
L 60.961527 88.177855 
L 61.917715 87.959611 
L 62.857956 87.680553 
L 63.778385 87.341826 
L 64.675221 86.944824 
L 65.544779 86.491176 
L 66.383484 85.982748 
L 67.187891 85.421628 
L 67.954694 84.810123 
L 68.680743 84.150745 
L 69.363053 83.446204 
L 69.998822 82.699394 
L 70.585435 81.913385 
L 71.120484 81.091406 
L 71.601769 80.236836 
L 72.027313 79.353185 
L 72.395367 78.444085 
L 72.704418 77.513272 
L 72.953197 76.56457 
L 73.140681 75.601878 
L 73.2661 74.629152 
L 73.328939 73.650389 
L 73.328939 72.669611 
L 73.2661 71.690848 
L 73.140681 70.718122 
L 72.953197 69.75543 
L 72.704418 68.806728 
L 72.395367 67.875915 
L 72.027313 66.966815 
L 71.601769 66.083164 
L 71.120484 65.228594 
L 70.585435 64.406615 
L 69.998822 63.620606 
L 69.363053 62.873796 
L 68.680743 62.169255 
L 67.954694 61.509877 
L 67.187891 60.898372 
L 66.383484 60.337252 
L 65.544779 59.828824 
L 64.675221 59.375176 
L 63.778385 58.978174 
L 62.857956 58.639447 
L 61.917715 58.360389 
L 60.961527 58.142145 
L 59.993321 57.985613 
L 59.017074 57.891435 
L 58.0368 57.86 
L 58.0368 57.86 
L 38.1468 57.86 
L 38.1468 73.16 
L 38.1468 88.46 
L 58.0368 88.46 
" clip-path="url(#p2491a78a42)" style="fill: none; stroke: #000000; stroke-width: 2; stroke-linecap: round"/>
   </g>
   <g id="line2d_6">
    <path d="M 27.4368 80.81 
L 38.1468 80.81 
" clip-path="url(#p2491a78a42)" style="fill: none; stroke: #000000; stroke-width: 2; stroke-linecap: round"/>
   </g>
   <g id="line2d_7">
    <path d="M 27.4368 65.51 
L 38.1468 65.51 
" clip-path="url(#p2491a78a42)" style="fill: none; stroke: #000000; stroke-width: 2; stroke-linecap: round"/>
   </g>
   <g id="line2d_8">
    <path d="M 80.6808 73.16 
L 84.0468 73.16 
" clip-path="url(#p2491a78a42)" style="fill: none; stroke: #000000; stroke-width: 2; stroke-linecap: round"/>
   </g>
   <g id="line2d_9">
    <path d="M 94.7568 69.029 
L 111.805371 68.929082 
L 113.553943 68.629327 
L 115.302514 68.129735 
L 117.051086 67.430306 
L 118.799657 66.531041 
L 120.985371 65.125939 
L 123.171086 63.408592 
L 125.3568 61.379 
L 127.542514 59.037163 
L 129.728229 56.383082 
L 131.4768 54.035 
L 131.4768 54.035 
L 128.853943 50.587816 
L 126.668229 48.058633 
L 124.482514 45.841694 
L 122.2968 43.937 
L 120.111086 42.344551 
L 117.925371 41.064347 
L 116.1768 40.265 
L 114.428229 39.66549 
L 112.679657 39.265816 
L 110.931086 39.06598 
L 110.0568 39.041 
L 94.7568 39.041 
L 94.7568 39.041 
L 96.96 41.489 
L 98.35536 43.325 
L 99.5304 45.161 
L 100.48512 46.997 
L 101.21952 48.833 
L 101.7336 50.669 
L 102.02736 52.505 
L 102.1008 54.341 
L 101.95392 56.177 
L 101.58672 58.013 
L 100.9992 59.849 
L 100.19136 61.685 
L 99.1632 63.521 
L 97.91472 65.357 
L 96.44592 67.193 
L 94.7568 69.029 
L 94.7568 69.029 
" clip-path="url(#p2491a78a42)" style="fill: none; stroke: #000000; stroke-width: 2; stroke-linecap: round"/>
   </g>
   <g id="line2d_10">
    <path d="M 84.0468 61.685 
L 92.84736 61.685 
" clip-path="url(#p2491a78a42)" style="fill: none; stroke: #000000; stroke-width: 2; stroke-linecap: round"/>
   </g>
   <g id="line2d_11">
    <path d="M 84.0468 46.385 
L 92.84736 46.385 
" clip-path="url(#p2491a78a42)" style="fill: none; stroke: #000000; stroke-width: 2; stroke-linecap: round"/>
   </g>
   <g id="line2d_12">
    <path d="M 131.4768 54.035 
L 142.1868 54.035 
" clip-path="url(#p2491a78a42)" style="fill: none; stroke: #000000; stroke-width: 2; stroke-linecap: round"/>
   </g>
   <g id="line2d_13">
    <path d="M 84.0468 34.91 
L 84.0468 40.6475 
L 84.0468 46.385 
" clip-path="url(#p2491a78a42)" style="fill: none; stroke: #000000; stroke-width: 2; stroke-linecap: round"/>
   </g>
   <g id="line2d_14">
    <path d="M 84.0468 73.16 
L 84.0468 67.4225 
L 84.0468 61.685 
" clip-path="url(#p2491a78a42)" style="fill: none; stroke: #000000; stroke-width: 2; stroke-linecap: round"/>
   </g>
   <g id="text_1">
    <g clip-path="url(#p2491a78a42)">
     <!-- A -->
     <g transform="translate(15.826019 30.709219)scale(0.125 -0.125)">
      <defs>
       <path id="DejaVuSans-41" d="M 2188 4044 
L 1331 1722 
L 3047 1722 
L 2188 4044 
z
M 1831 4666 
L 2547 4666 
L 4325 0 
L 3669 0 
L 3244 1197 
L 1141 1197 
L 716 0 
L 50 0 
L 1831 4666 
z
" transform="scale(0.015625)"/>
      </defs>
      <use xlink:href="#DejaVuSans-41"/>
     </g>
    </g>
   </g>
   <g id="text_2">
    <g clip-path="url(#p2491a78a42)">
     <!-- B -->
     <g transform="translate(15.800628 46.009219)scale(0.125 -0.125)">
      <defs>
       <path id="DejaVuSans-42" d="M 1259 2228 
L 1259 519 
L 2272 519 
Q 2781 519 3026 730 
Q 3272 941 3272 1375 
Q 3272 1813 3026 2020 
Q 2781 2228 2272 2228 
L 1259 2228 
z
M 1259 4147 
L 1259 2741 
L 2194 2741 
Q 2656 2741 2882 2914 
Q 3109 3088 3109 3444 
Q 3109 3797 2882 3972 
Q 2656 4147 2194 4147 
L 1259 4147 
z
M 628 4666 
L 2241 4666 
Q 2963 4666 3353 4366 
Q 3744 4066 3744 3513 
Q 3744 3084 3544 2831 
Q 3344 2578 2956 2516 
Q 3422 2416 3680 2098 
Q 3938 1781 3938 1306 
Q 3938 681 3513 340 
Q 3088 0 2303 0 
L 628 0 
L 628 4666 
z
" transform="scale(0.015625)"/>
      </defs>
      <use xlink:href="#DejaVuSans-42"/>
     </g>
    </g>
   </g>
   <g id="text_3">
    <g clip-path="url(#p2491a78a42)">
     <!-- C -->
     <g transform="translate(15.648284 68.959219)scale(0.125 -0.125)">
      <defs>
       <path id="DejaVuSans-43" d="M 4122 4306 
L 4122 3641 
Q 3803 3938 3442 4084 
Q 3081 4231 2675 4231 
Q 1875 4231 1450 3742 
Q 1025 3253 1025 2328 
Q 1025 1406 1450 917 
Q 1875 428 2675 428 
Q 3081 428 3442 575 
Q 3803 722 4122 1019 
L 4122 359 
Q 3791 134 3420 21 
Q 3050 -91 2638 -91 
Q 1578 -91 968 557 
Q 359 1206 359 2328 
Q 359 3453 968 4101 
Q 1578 4750 2638 4750 
Q 3056 4750 3426 4639 
Q 3797 4528 4122 4306 
z
" transform="scale(0.015625)"/>
      </defs>
      <use xlink:href="#DejaVuSans-43"/>
     </g>
    </g>
   </g>
   <g id="text_4">
    <g clip-path="url(#p2491a78a42)">
     <!-- D -->
     <g transform="translate(14.7518 84.259219)scale(0.125 -0.125)">
      <defs>
       <path id="DejaVuSans-44" d="M 1259 4147 
L 1259 519 
L 2022 519 
Q 2988 519 3436 956 
Q 3884 1394 3884 2338 
Q 3884 3275 3436 3711 
Q 2988 4147 2022 4147 
L 1259 4147 
z
M 628 4666 
L 1925 4666 
Q 3281 4666 3915 4102 
Q 4550 3538 4550 2338 
Q 4550 1131 3912 565 
Q 3275 0 1925 0 
L 628 0 
L 628 4666 
z
" transform="scale(0.015625)"/>
      </defs>
      <use xlink:href="#DejaVuSans-44"/>
     </g>
    </g>
   </g>
   <g id="text_5">
    <g clip-path="url(#p2491a78a42)">
     <!-- F -->
     <g transform="translate(145.2468 57.484219)scale(0.125 -0.125)">
      <defs>
       <path id="DejaVuSans-46" d="M 628 4666 
L 3309 4666 
L 3309 4134 
L 1259 4134 
L 1259 2759 
L 3109 2759 
L 3109 2228 
L 1259 2228 
L 1259 0 
L 628 0 
L 628 4666 
z
" transform="scale(0.015625)"/>
      </defs>
      <use xlink:href="#DejaVuSans-46"/>
     </g>
    </g>
   </g>
  </g>
 </g>
 <defs>
  <clipPath id="p2491a78a42">
   <rect x="7.2" y="7.2" width="160.1298" height="87.55"/>
  </clipPath>
 </defs>
</svg>
