<?xml version="1.0" encoding="utf-8" standalone="no"?>
<!DOCTYPE svg PUBLIC "-//W3C//DTD SVG 1.1//EN"
  "http://www.w3.org/Graphics/SVG/1.1/DTD/svg11.dtd">
<svg xmlns:xlink="http://www.w3.org/1999/xlink" width="177.5898pt" height="109.6pt" viewBox="0 0 177.5898 109.6" xmlns="http://www.w3.org/2000/svg" version="1.1">
 <metadata>
  <rdf:RDF xmlns:dc="http://purl.org/dc/elements/1.1/" xmlns:cc="http://creativecommons.org/ns#" xmlns:rdf="http://www.w3.org/1999/02/22-rdf-syntax-ns#">
   <cc:Work>
    <dc:type rdf:resource="http://purl.org/dc/dcmitype/StillImage"/>
    <dc:date>2022-01-14T16:37:00.130186</dc:date>
    <dc:format>image/svg+xml</dc:format>
    <dc:creator>
     <cc:Agent>
      <dc:title>Matplotlib v3.5.1, https://matplotlib.org/</dc:title>
     </cc:Agent>
    </dc:creator>
   </cc:Work>
  </rdf:RDF>
 </metadata>
 <defs>
  <style type="text/css">*{stroke-linejoin: round; stroke-linecap: butt}</style>
 </defs>
 <g id="figure_1">
  <g id="patch_1">
   <path d="M 0 109.6 
L 177.5898 109.6 
L 177.5898 0 
L 0 0 
L 0 109.6 
z
" style="fill: none"/>
  </g>
  <g id="axes_1">
   <g id="line2d_1">
    <path d="M 97.8168 72.854 
L 114.865371 72.754082 
L 116.613943 72.454327 
L 118.362514 71.954735 
L 120.111086 71.255306 
L 121.859657 70.356041 
L 124.045371 68.950939 
L 126.231086 67.233592 
L 128.4168 65.204 
L 130.602514 62.862163 
L 132.788229 60.208082 
L 134.5368 57.86 
L 134.5368 57.86 
L 131.913943 54.412816 
L 129.728229 51.883633 
L 127.542514 49.666694 
L 125.3568 47.762 
L 123.171086 46.169551 
L 120.985371 44.889347 
L 119.2368 44.09 
L 117.488229 43.49049 
L 115.739657 43.090816 
L 113.991086 42.89098 
L 113.1168 42.866 
L 97.8168 42.866 
L 97.8168 42.866 
L 100.02 45.314 
L 101.41536 47.15 
L 102.5904 48.986 
L 103.54512 50.822 
L 104.27952 52.658 
L 104.7936 54.494 
L 105.08736 56.33 
L 105.1608 58.166 
L 105.01392 60.002 
L 104.64672 61.838 
L 104.0592 63.674 
L 103.25136 65.51 
L 102.2232 67.346 
L 100.97472 69.182 
L 99.50592 71.018 
L 97.8168 72.854 
L 97.8168 72.854 
" clip-path="url(#p6d0f238617)" style="fill: none; stroke: #000000; stroke-width: 2; stroke-linecap: round"/>
   </g>
   <g id="line2d_2">
    <path d="M 87.1068 65.51 
L 103.25136 65.51 
" clip-path="url(#p6d0f238617)" style="fill: none; stroke: #000000; stroke-width: 2; stroke-linecap: round"/>
   </g>
   <g id="line2d_3">
    <path d="M 87.1068 50.21 
L 103.25136 50.21 
" clip-path="url(#p6d0f238617)" style="fill: none; stroke: #000000; stroke-width: 2; stroke-linecap: round"/>
   </g>
   <g id="line2d_4">
    <path d="M 134.5368 57.86 
L 145.2468 57.86 
" clip-path="url(#p6d0f238617)" style="fill: none; stroke: #000000; stroke-width: 2; stroke-linecap: round"/>
   </g>
   <g id="line2d_5">
    <path d="M 58.0368 50.21 
L 59.017074 50.178565 
L 59.993321 50.084387 
L 60.961527 49.927855 
L 61.917715 49.709611 
L 62.857956 49.430553 
L 63.778385 49.091826 
L 64.675221 48.694824 
L 65.544779 48.241176 
L 66.383484 47.732748 
L 67.187891 47.171628 
L 67.954694 46.560123 
L 68.680743 45.900745 
L 69.363053 45.196204 
L 69.998822 44.449394 
L 70.585435 43.663385 
L 71.120484 42.841406 
L 71.601769 41.986836 
L 72.027313 41.103185 
L 72.395367 40.194085 
L 72.704418 39.263272 
L 72.953197 38.31457 
L 73.140681 37.351878 
L 73.2661 36.379152 
L 73.328939 35.400389 
L 73.328939 34.419611 
L 73.2661 33.440848 
L 73.140681 32.468122 
L 72.953197 31.50543 
L 72.704418 30.556728 
L 72.395367 29.625915 
L 72.027313 28.716815 
L 71.601769 27.833164 
L 71.120484 26.978594 
L 70.585435 26.156615 
L 69.998822 25.370606 
L 69.363053 24.623796 
L 68.680743 23.919255 
L 67.954694 23.259877 
L 67.187891 22.648372 
L 66.383484 22.087252 
L 65.544779 21.578824 
L 64.675221 21.125176 
L 63.778385 20.728174 
L 62.857956 20.389447 
L 61.917715 20.110389 
L 60.961527 19.892145 
L 59.993321 19.735613 
L 59.017074 19.641435 
L 58.0368 19.61 
L 58.0368 19.61 
L 38.1468 19.61 
L 38.1468 34.91 
L 38.1468 50.21 
L 58.0368 50.21 
" clip-path="url(#p6d0f238617)" style="fill: none; stroke: #000000; stroke-width: 2; stroke-linecap: round"/>
   </g>
   <g id="line2d_6">
    <path d="M 27.4368 42.56 
L 38.1468 42.56 
" clip-path="url(#p6d0f238617)" style="fill: none; stroke: #000000; stroke-width: 2; stroke-linecap: round"/>
   </g>
   <g id="line2d_7">
    <path d="M 27.4368 27.26 
L 38.1468 27.26 
" clip-path="url(#p6d0f238617)" style="fill: none; stroke: #000000; stroke-width: 2; stroke-linecap: round"/>
   </g>
   <g id="line2d_8">
    <path d="M 73.3368 34.91 
L 84.0468 34.91 
" clip-path="url(#p6d0f238617)" style="fill: none; stroke: #000000; stroke-width: 2; stroke-linecap: round"/>
   </g>
   <g id="line2d_9">
    <path d="M 87.1068 50.21 
L 84.0468 50.21 
L 84.0468 34.91 
" clip-path="url(#p6d0f238617)" style="fill: none; stroke: #000000; stroke-width: 2; stroke-linecap: round"/>
   </g>
   <g id="line2d_10">
    <path d="M 58.0368 96.11 
L 59.017074 96.078565 
L 59.993321 95.984387 
L 60.961527 95.827855 
L 61.917715 95.609611 
L 62.857956 95.330553 
L 63.778385 94.991826 
L 64.675221 94.594824 
L 65.544779 94.141176 
L 66.383484 93.632748 
L 67.187891 93.071628 
L 67.954694 92.460123 
L 68.680743 91.800745 
L 69.363053 91.096204 
L 69.998822 90.349394 
L 70.585435 89.563385 
L 71.120484 88.741406 
L 71.601769 87.886836 
L 72.027313 87.003185 
L 72.395367 86.094085 
L 72.704418 85.163272 
L 72.953197 84.21457 
L 73.140681 83.251878 
L 73.2661 82.279152 
L 73.328939 81.300389 
L 73.328939 80.319611 
L 73.2661 79.340848 
L 73.140681 78.368122 
L 72.953197 77.40543 
L 72.704418 76.456728 
L 72.395367 75.525915 
L 72.027313 74.616815 
L 71.601769 73.733164 
L 71.120484 72.878594 
L 70.585435 72.056615 
L 69.998822 71.270606 
L 69.363053 70.523796 
L 68.680743 69.819255 
L 67.954694 69.159877 
L 67.187891 68.548372 
L 66.383484 67.987252 
L 65.544779 67.478824 
L 64.675221 67.025176 
L 63.778385 66.628174 
L 62.857956 66.289447 
L 61.917715 66.010389 
L 60.961527 65.792145 
L 59.993321 65.635613 
L 59.017074 65.541435 
L 58.0368 65.51 
L 58.0368 65.51 
L 38.1468 65.51 
L 38.1468 80.81 
L 38.1468 96.11 
L 58.0368 96.11 
" clip-path="url(#p6d0f238617)" style="fill: none; stroke: #000000; stroke-width: 2; stroke-linecap: round"/>
   </g>
   <g id="line2d_11">
    <path d="M 27.4368 88.46 
L 38.1468 88.46 
" clip-path="url(#p6d0f238617)" style="fill: none; stroke: #000000; stroke-width: 2; stroke-linecap: round"/>
   </g>
   <g id="line2d_12">
    <path d="M 27.4368 73.16 
L 38.1468 73.16 
" clip-path="url(#p6d0f238617)" style="fill: none; stroke: #000000; stroke-width: 2; stroke-linecap: round"/>
   </g>
   <g id="line2d_13">
    <path d="M 73.3368 80.81 
L 84.0468 80.81 
" clip-path="url(#p6d0f238617)" style="fill: none; stroke: #000000; stroke-width: 2; stroke-linecap: round"/>
   </g>
   <g id="line2d_14">
    <path d="M 87.1068 65.51 
L 84.0468 65.51 
L 84.0468 80.81 
" clip-path="url(#p6d0f238617)" style="fill: none; stroke: #000000; stroke-width: 2; stroke-linecap: round"/>
   </g>
   <g id="text_1">
    <g clip-path="url(#p6d0f238617)">
     <!-- F -->
     <g transform="translate(148.3068 61.309219)scale(0.125 -0.125)">
      <defs>
       <path id="DejaVuSans-46" d="M 628 4666 
L 3309 4666 
L 3309 4134 
L 1259 4134 
L 1259 2759 
L 3109 2759 
L 3109 2228 
L 1259 2228 
L 1259 0 
L 628 0 
L 628 4666 
z
" transform="scale(0.015625)"/>
      </defs>
      <use xlink:href="#DejaVuSans-46"/>
     </g>
    </g>
   </g>
   <g id="text_2">
    <g clip-path="url(#p6d0f238617)">
     <!-- A -->
     <g transform="translate(15.826019 30.709219)scale(0.125 -0.125)">
      <defs>
       <path id="DejaVuSans-41" d="M 2188 4044 
L 1331 1722 
L 3047 1722 
L 2188 4044 
z
M 1831 4666 
L 2547 4666 
L 4325 0 
L 3669 0 
L 3244 1197 
L 1141 1197 
L 716 0 
L 50 0 
L 1831 4666 
z
" transform="scale(0.015625)"/>
      </defs>
      <use xlink:href="#DejaVuSans-41"/>
     </g>
    </g>
   </g>
   <g id="text_3">
    <g clip-path="url(#p6d0f238617)">
     <!-- B -->
     <g transform="translate(15.800628 46.009219)scale(0.125 -0.125)">
      <defs>
       <path id="DejaVuSans-42" d="M 1259 2228 
L 1259 519 
L 2272 519 
Q 2781 519 3026 730 
Q 3272 941 3272 1375 
Q 3272 1813 3026 2020 
Q 2781 2228 2272 2228 
L 1259 2228 
z
M 1259 4147 
L 1259 2741 
L 2194 2741 
Q 2656 2741 2882 2914 
Q 3109 3088 3109 3444 
Q 3109 3797 2882 3972 
Q 2656 4147 2194 4147 
L 1259 4147 
z
M 628 4666 
L 2241 4666 
Q 2963 4666 3353 4366 
Q 3744 4066 3744 3513 
Q 3744 3084 3544 2831 
Q 3344 2578 2956 2516 
Q 3422 2416 3680 2098 
Q 3938 1781 3938 1306 
Q 3938 681 3513 340 
Q 3088 0 2303 0 
L 628 0 
L 628 4666 
z
" transform="scale(0.015625)"/>
      </defs>
      <use xlink:href="#DejaVuSans-42"/>
     </g>
    </g>
   </g>
   <g id="text_4">
    <g clip-path="url(#p6d0f238617)">
     <!-- C -->
     <g transform="translate(15.648284 76.609219)scale(0.125 -0.125)">
      <defs>
       <path id="DejaVuSans-43" d="M 4122 4306 
L 4122 3641 
Q 3803 3938 3442 4084 
Q 3081 4231 2675 4231 
Q 1875 4231 1450 3742 
Q 1025 3253 1025 2328 
Q 1025 1406 1450 917 
Q 1875 428 2675 428 
Q 3081 428 3442 575 
Q 3803 722 4122 1019 
L 4122 359 
Q 3791 134 3420 21 
Q 3050 -91 2638 -91 
Q 1578 -91 968 557 
Q 359 1206 359 2328 
Q 359 3453 968 4101 
Q 1578 4750 2638 4750 
Q 3056 4750 3426 4639 
Q 3797 4528 4122 4306 
z
" transform="scale(0.015625)"/>
      </defs>
      <use xlink:href="#DejaVuSans-43"/>
     </g>
    </g>
   </g>
   <g id="text_5">
    <g clip-path="url(#p6d0f238617)">
     <!-- D -->
     <g transform="translate(14.7518 91.909219)scale(0.125 -0.125)">
      <defs>
       <path id="DejaVuSans-44" d="M 1259 4147 
L 1259 519 
L 2022 519 
Q 2988 519 3436 956 
Q 3884 1394 3884 2338 
Q 3884 3275 3436 3711 
Q 2988 4147 2022 4147 
L 1259 4147 
z
M 628 4666 
L 1925 4666 
Q 3281 4666 3915 4102 
Q 4550 3538 4550 2338 
Q 4550 1131 3912 565 
Q 3275 0 1925 0 
L 628 0 
L 628 4666 
z
" transform="scale(0.015625)"/>
      </defs>
      <use xlink:href="#DejaVuSans-44"/>
     </g>
    </g>
   </g>
  </g>
 </g>
 <defs>
  <clipPath id="p6d0f238617">
   <rect x="7.2" y="7.2" width="163.1898" height="95.2"/>
  </clipPath>
 </defs>
</svg>
