<?xml version="1.0" encoding="UTF-8" standalone="no"?>
<!-- Created with Digital by H.Neemann -->
<!-- created: Fri Jan 21 15:47:52 EST 2022 -->

<svg
   xmlns:svg="http://www.w3.org/2000/svg"
   xmlns="http://www.w3.org/2000/svg"
   width="83.25mm"
   height="32.1mm"
   viewBox="318 103 555 214">
<g stroke-linecap="square">
<path d="M 580,280 L 580,160 L 620,160 L 624,160" stroke="#0000b2" stroke-width="4.0" fill="none"/>
<path d="M 560,280 L 580,280 L 800,280" stroke="#0000b2" stroke-width="4.0" fill="none"/>
<path d="M 540,120 L 620,120 L 624,120" stroke="#0000b2" stroke-width="4.0" fill="none"/>
<path d="M 720,140 L 740,140 L 800,140" stroke="#0000b2" stroke-width="4.0" fill="none"/>
<path d="M 380,300 L 460,300 L 464,300" stroke="#0000b2" stroke-width="4.0" fill="none"/>
<path d="M 464,260 L 460,260 L 420,260 L 420,200 L 740,200 L 740,140" stroke="#0000b2" stroke-width="4.0" fill="none"/>
<g>
<circle cx="580.0" cy="280.0" r="4.0" stroke="#0000b2" stroke-width="4.0" fill="#0000b2" />
<circle cx="740.0" cy="140.0" r="4.0" stroke="#0000b2" stroke-width="4.0" fill="#0000b2" />
</g>
<g>
<path d="M 650,170 L 620,170 C 630,154 630,126 620,110 L 640,110 C 670,110 690,120 700,140 C 690,160 670,170 650,170 Z" stroke="#000000" stroke-width="4.0" fill="none"/>
<circle cx="710.0" cy="140.0" r="9.0" stroke="#000000" stroke-width="4.0" fill="none" />
<circle cx="620.0" cy="120.0" r="2.0" stroke="#0000b2" stroke-width="4.0" fill="#0000b2" />
<circle cx="620.0" cy="160.0" r="2.0" stroke="#0000b2" stroke-width="4.0" fill="#0000b2" />
<circle cx="720.0" cy="140.0" r="2.0" stroke="#b20000" stroke-width="4.0" fill="#b20000" />
</g>
<g>
<path d="M 490,310 L 460,310 C 470,294 470,266 460,250 L 480,250 C 510,250 530,260 540,280 C 530,300 510,310 490,310 Z" stroke="#000000" stroke-width="4.0" fill="none"/>
<circle cx="550.0" cy="280.0" r="9.0" stroke="#000000" stroke-width="4.0" fill="none" />
<circle cx="460.0" cy="260.0" r="2.0" stroke="#0000b2" stroke-width="4.0" fill="#0000b2" />
<circle cx="460.0" cy="300.0" r="2.0" stroke="#0000b2" stroke-width="4.0" fill="#0000b2" />
<circle cx="560.0" cy="280.0" r="2.0" stroke="#b20000" stroke-width="4.0" fill="#b20000" />
</g>
<g>
<circle cx="816.0" cy="140.0" r="9.0" stroke="#000000" stroke-width="4.0" fill="none" />
<circle cx="816.0" cy="140.0" r="15.0" stroke="#000000" stroke-width="4.0" fill="none" />
<text text-anchor="start" x="845.0" y="149.0" fill="#000000" style="font-size:24px"><tspan style="font-style:italic;">Q</tspan></text>
<circle cx="800.0" cy="140.0" r="2.0" stroke="#0000b2" stroke-width="4.0" fill="#0000b2" />
</g>
<g>
<circle cx="816.0" cy="280.0" r="9.0" stroke="#000000" stroke-width="4.0" fill="none" />
<circle cx="816.0" cy="280.0" r="15.0" stroke="#000000" stroke-width="4.0" fill="none" />
<text text-anchor="start" x="845.0" y="289.0" fill="#000000" style="font-size:24px"><tspan style="font-style:italic;">Q'</tspan></text>
<circle cx="800.0" cy="280.0" r="2.0" stroke="#0000b2" stroke-width="4.0" fill="#0000b2" />
</g>
<g>
<path d="M 509,105 L 539,105 L 539,135 L 509,135 Z" stroke="#000000" stroke-width="4.0" fill="none"/>
<circle cx="524.0" cy="120.0" r="9.0" stroke="#000000" stroke-width="4.0" fill="none" />
<text text-anchor="end" x="495.0" y="129.0" fill="#000000" style="font-size:24px"><tspan style="font-style:italic;">R</tspan></text>
<circle cx="540.0" cy="120.0" r="2.0" stroke="#b20000" stroke-width="4.0" fill="#b20000" />
</g>
<g>
<path d="M 349,285 L 379,285 L 379,315 L 349,315 Z" stroke="#000000" stroke-width="4.0" fill="none"/>
<circle cx="364.0" cy="300.0" r="9.0" stroke="#000000" stroke-width="4.0" fill="none" />
<text text-anchor="end" x="335.0" y="309.0" fill="#000000" style="font-size:24px"><tspan style="font-style:italic;">S</tspan></text>
<circle cx="380.0" cy="300.0" r="2.0" stroke="#b20000" stroke-width="4.0" fill="#b20000" />
</g>
</g>
</svg>